<svg width="120" height="120" viewBox="0 0 120 120" fill="none" xmlns="http://www.w3.org/2000/svg">
<path fill-rule="evenodd" clip-rule="evenodd" d="M99.3099 28.9357L98.4991 29.7475L97.6878 28.9362L98.4986 28.1253L99.3099 28.9357ZM98.4995 31.4173C98.1905 31.7551 97.805 32.1865 97.3639 32.701C96.1824 34.0795 94.6072 36.0487 93.0337 38.409C89.8619 43.1666 86.8067 49.3518 86.8063 55.4266C86.8192 61.8831 92.0481 67.1205 98.4991 67.1205C104.967 67.1205 110.205 61.8803 110.205 55.4277C110.205 49.3529 107.147 43.1674 103.972 38.4094C102.396 36.0491 100.819 34.08 99.6367 32.7015C99.195 32.1867 98.809 31.7551 98.4995 31.4173ZM105.88 37.1356C109.132 42.0078 112.5 48.6624 112.5 55.4277C112.5 63.1491 106.232 69.4152 98.4991 69.4152C90.7764 69.4152 84.5263 63.1468 84.5116 55.4299C84.5116 48.665 87.8763 42.0083 91.1244 37.1361C92.7609 34.6814 94.3957 32.638 95.6217 31.2077C96.2352 30.4919 96.7477 29.9281 97.1086 29.5414C97.2891 29.348 97.4318 29.1988 97.5304 29.0969C97.5797 29.046 97.618 29.0068 97.6445 28.9799L97.6753 28.9487L97.6839 28.9401L97.6878 28.9362C97.6881 28.9359 97.6878 28.9362 98.4991 29.7475C99.3099 28.9357 99.3096 28.9355 99.3099 28.9357L99.3139 28.9397L99.3225 28.9483L99.3533 28.9795C99.3798 29.0064 99.4181 29.0455 99.4675 29.0965C99.5662 29.1984 99.7091 29.3476 99.8897 29.541C100.251 29.9277 100.764 30.4915 101.378 31.2072C102.605 32.6375 104.242 34.6809 105.88 37.1356Z" fill="black"/>
<path fill-rule="evenodd" clip-rule="evenodd" d="M44.3256 28.9363L43.5143 29.7476L42.703 28.9363L43.5143 28.125L44.3256 28.9363ZM43.5143 31.4179C43.2053 31.7556 42.82 32.1868 42.3792 32.7012C41.1976 34.0796 39.6224 36.0488 38.0489 38.4091C34.877 43.167 31.8215 49.3526 31.8215 55.4278C31.8215 61.8812 37.061 67.1206 43.5143 67.1206C49.9676 67.1206 55.2071 61.8812 55.2071 55.4278C55.2071 49.3526 52.1516 43.167 48.9797 38.4091C47.4062 36.0488 45.831 34.0796 44.6494 32.7012C44.2086 32.1868 43.8233 31.7556 43.5143 31.4179ZM42.703 28.9363C42.7033 28.936 42.703 28.9363 43.5143 29.7476C44.3256 28.9363 44.3253 28.936 44.3256 28.9363L44.3295 28.9402L44.3381 28.9489L44.3689 28.98C44.3954 29.007 44.4337 29.0461 44.483 29.097C44.5816 29.1989 44.7243 29.3481 44.9048 29.5415C45.2657 29.9282 45.7782 30.492 46.3917 31.2078C47.6177 32.6381 49.2525 34.6815 50.889 37.1362C54.1371 42.0084 57.5018 48.6629 57.5018 55.4278C57.5018 63.1485 51.2349 69.4153 43.5143 69.4153C35.7937 69.4153 29.5268 63.1485 29.5268 55.4278C29.5268 48.6629 32.8915 42.0084 36.1396 37.1362C37.7761 34.6815 39.4109 32.6381 40.6369 31.2078C41.2504 30.492 41.7629 29.9282 42.1238 29.5415C42.3043 29.3481 42.447 29.1989 42.5456 29.097C42.5949 29.0461 42.6332 29.007 42.6597 28.98L42.6905 28.9489L42.6991 28.9402L42.703 28.9363Z" fill="black"/>
<path fill-rule="evenodd" clip-rule="evenodd" d="M71.6895 28.9357L70.8787 29.7475L70.0674 28.9362L70.8782 28.1253L71.6895 28.9357ZM70.8791 31.4173C70.57 31.7551 70.1846 32.1865 69.7435 32.701C68.562 34.0795 66.9868 36.0487 65.4133 38.409C62.2413 43.1669 59.1859 49.3525 59.1859 55.4277V55.4401C59.1987 61.907 64.4376 67.1328 70.89 67.1339C77.3581 67.1217 82.5849 61.8814 82.5849 55.4277C82.5849 49.3529 79.5264 43.1674 76.3511 38.4094C74.776 36.0491 73.1991 34.08 72.0163 32.7015C71.5746 32.1867 71.1886 31.7551 70.8791 31.4173ZM78.2598 37.1356C81.5113 42.0078 84.8796 48.6624 84.8796 55.4277C84.8796 63.148 78.6271 69.414 70.8943 69.4286C63.174 69.4286 56.9059 63.1761 56.8912 55.4433L56.8912 55.4277C56.8912 48.6628 60.2558 42.0083 63.504 37.1361C65.1405 34.6814 66.7753 32.638 68.0013 31.2077C68.6148 30.4919 69.1273 29.9281 69.4882 29.5414C69.6687 29.348 69.8114 29.1988 69.91 29.0969C69.9593 29.046 69.9976 29.0068 70.0241 28.9799L70.0549 28.9487L70.0634 28.9401L70.0674 28.9362C70.0677 28.9359 70.0674 28.9362 70.8787 29.7475C71.6895 28.9357 71.6892 28.9355 71.6895 28.9357L71.6935 28.9397L71.7021 28.9483L71.7329 28.9795C71.7594 29.0064 71.7977 29.0455 71.8471 29.0965C71.9458 29.1984 72.0886 29.3476 72.2693 29.541C72.6306 29.9277 73.1436 30.4915 73.7578 31.2072C74.985 32.6375 76.6216 34.6809 78.2598 37.1356Z" fill="black"/>
<path fill-rule="evenodd" clip-rule="evenodd" d="M109.386 91.2826H7.5V88.9879H109.386V91.2826Z" fill="black"/>
<path fill-rule="evenodd" clip-rule="evenodd" d="M70.1412 87.3896L18.9118 66.6252L18.0498 68.7519L70.1342 89.8628L105.836 75.6257L104.986 73.4942L70.1412 87.3896Z" fill="black"/>
<path d="M21.0272 66.1796L19.2083 67.985L19.2488 70.5449L14.9642 66.2604L21.0272 66.1796Z" fill="black"/>
</svg>
