<svg width="120" height="120" viewBox="0 0 120 120" fill="none" xmlns="http://www.w3.org/2000/svg">
<path fill-rule="evenodd" clip-rule="evenodd" d="M87.2325 16.3816L86.8811 16.0048L86.515 16.3672C82.9432 19.9033 79.2967 25.2497 77.7349 30.4337C76.9533 33.0279 76.6825 35.6191 77.2406 37.9359C77.803 40.2705 79.1998 42.2915 81.6769 43.7256C86.9259 46.7645 92.861 44.6973 95.1513 39.399C97.4351 34.1155 96.0347 25.82 87.2325 16.3816ZM82.1779 42.8602C79.9373 41.563 78.711 39.7699 78.2128 37.7017C77.7103 35.6155 77.9414 33.2149 78.6924 30.7222C80.1431 25.9068 83.4917 20.8885 86.8537 17.4454C95.2016 26.5762 96.2638 34.305 94.2334 39.0022C92.1812 43.7498 86.9103 45.6 82.1779 42.8602Z" fill="black"/>
<path d="M67.7161 50.1153H103.995V49.1153H67.7161V50.1153Z" fill="black"/>
<path d="M35.9331 66L38.7912 74.7104L41.6311 66.3197L42.579 66.3219L45.4102 74.8155L48.1165 66.1555L49.071 66.4538L45.9028 76.5918L44.9513 76.6008L42.1011 68.0503L39.2574 76.452L38.3087 76.4476L34.9829 66.3118L35.9331 66Z" fill="black"/>
<path d="M38.4992 93.7747L41.3573 102.485L44.1973 94.0944L45.1452 94.0966L47.9764 102.59L50.6826 93.9303L51.6371 94.2285L48.469 104.367L47.5174 104.376L44.6673 95.825L41.8236 104.227L40.8749 104.222L37.5491 94.0865L38.4992 93.7747Z" fill="black"/>
<path fill-rule="evenodd" clip-rule="evenodd" d="M54.1753 66.5815L55.0888 66.5756L59.6727 76.6918L58.7618 77.1045L57.389 74.0747H51.9886L50.6644 77.1012L49.7483 76.7004L54.1753 66.5815ZM52.4261 73.0747H56.9358L54.6414 68.0111L52.4261 73.0747Z" fill="black"/>
<path d="M64.2475 67.2819H61.1248V66.2819H68.7194V67.2819H65.2475V76.9427H64.2475V67.2819Z" fill="black"/>
<path d="M93.5312 80.1693H101.626V81.1693H98.154V90.83H97.154V81.1693H93.5312V80.1693Z" fill="black"/>
<path fill-rule="evenodd" clip-rule="evenodd" d="M54.209 94.2831L56.8223 94.2831C59.4262 94.2831 61.1707 95.8018 61.137 97.5663C61.1203 98.4428 60.6473 99.2708 59.757 99.8508C59.383 100.094 58.9368 100.294 58.4182 100.441L61.5999 104.532L60.8106 105.146L57.3183 100.655C56.8854 100.707 56.4163 100.729 55.9109 100.717H55.209V105.095H54.209L54.209 94.2831ZM55.209 99.7173H55.9282C57.486 99.7535 58.5503 99.4434 59.2111 99.0129C59.8631 98.5882 60.1276 98.0481 60.1372 97.5472C60.1561 96.5569 59.1079 95.2831 56.8223 95.2831L55.209 95.2831V99.7173Z" fill="black"/>
<path fill-rule="evenodd" clip-rule="evenodd" d="M21 90.9055H22V86.528H22.7019C23.2072 86.5395 23.6763 86.5177 24.1091 86.4662L27.6014 90.9562L28.3907 90.3423L25.209 86.2515C25.7277 86.1051 26.174 85.9052 26.5479 85.6615C27.4383 85.0815 27.9113 84.2536 27.928 83.377C27.9616 81.6125 26.2172 80.0938 23.6133 80.0938L21 80.0938V90.9055ZM22 81.0938V85.528H22.7192C24.277 85.5642 25.3413 85.2542 26.0021 84.8236C26.6541 84.3989 26.9186 83.8589 26.9282 83.358C26.9471 82.3677 25.8989 81.0938 23.6133 81.0938C23.6133 81.0938 23.6133 81.0938 23.6133 81.0938L22 81.0938Z" fill="black"/>
<path fill-rule="evenodd" clip-rule="evenodd" d="M79.5686 77.0182H80.5686V72.6407H81.2705C81.7759 72.6522 82.2449 72.6304 82.6777 72.5788L86.17 77.0689L86.9594 76.455L83.7776 72.3642C84.2964 72.2177 84.7426 72.0178 85.1166 71.7742C86.0069 71.1942 86.4799 70.3662 86.4966 69.4897C86.5303 67.7252 84.7858 66.2065 82.1819 66.2065L79.5686 66.2065V77.0182ZM80.5686 67.2065V71.6407H81.2878C82.8456 71.6769 83.9099 71.3668 84.5707 70.9363C85.2227 70.5116 85.4872 69.9715 85.4968 69.4706C85.5157 68.4803 84.4675 67.2065 82.1819 67.2065L80.5686 67.2065Z" fill="black"/>
<path d="M70.7378 66.2819H77.3229V67.2819H71.7378V71.1123H76.8701V72.1123H71.7378V75.9427H77.3229V76.9427H70.7378V66.2819Z" fill="black"/>
<path d="M74.2097 80.1693H80.7948V81.1693H75.2097V84.9996H80.342V85.9996H75.2097V89.83H80.7948V90.83H74.2097V80.1693Z" fill="black"/>
<path d="M47.3408 80.1693H53.926V81.1693H48.3408V84.9996H53.4731V85.9996H48.3408V89.83H53.926V90.83H47.3408V80.1693Z" fill="black"/>
<path d="M30.1326 80.1693H36.7177V81.1693H31.1326V84.9996H36.2649V85.9996H31.1326V89.83H36.7177V90.83H30.1326V80.1693Z" fill="black"/>
<path d="M57.2468 80.0183V89.83H62.2282V90.83H56.2468V80.0183H57.2468Z" fill="black"/>
<path d="M66.1531 80.0183V89.83H71.1344V90.83H65.1531V80.0183H66.1531Z" fill="black"/>
<path d="M91.3614 80.3203V90.3301L90.4644 90.634L83.9648 82.1449V90.8301H82.9648V80.6693L83.8618 80.3653L90.3614 88.8545V80.3203H91.3614Z" fill="black"/>
<path fill-rule="evenodd" clip-rule="evenodd" d="M38.5857 80.1693H41.199C43.9028 80.1693 45.7101 81.6726 45.6612 83.4566C45.637 84.3398 45.1384 85.1655 44.2251 85.741C43.3205 86.3111 42.0086 86.6418 40.2877 86.6034H39.5857V90.981H38.5857V80.1693ZM39.5857 85.6034H40.3047C41.9018 85.6397 43.0031 85.3291 43.692 84.895C44.3731 84.4658 44.6481 83.9235 44.6616 83.4293C44.6882 82.4585 43.6274 81.1693 41.199 81.1693H39.5857V85.6034Z" fill="black"/>
<path fill-rule="evenodd" clip-rule="evenodd" d="M79.2382 104.821C81.4057 104.821 83.0119 102.523 83.0119 99.6889C83.0119 96.8544 81.4057 94.5566 79.2382 94.5566C77.0706 94.5566 75.3135 96.8544 75.3135 99.6889C75.3135 102.523 77.0706 104.821 79.2382 104.821ZM81.1279 102.732C81.6598 101.997 82.0119 100.927 82.0119 99.6889C82.0119 98.4511 81.6598 97.3809 81.1279 96.6463C80.6011 95.9187 79.9352 95.5566 79.2382 95.5566C78.5314 95.5566 77.8221 95.9288 77.2574 96.6673C76.6919 97.4067 76.3135 98.4717 76.3135 99.6889C76.3135 100.906 76.6919 101.971 77.2574 102.711C77.8221 103.449 78.5314 103.821 79.2382 103.821C79.9352 103.821 80.6011 103.459 81.1279 102.732Z" fill="black"/>
<path d="M66.4529 94.386C67.6585 94.1141 68.9212 94.2736 70.0213 94.8367C71.1214 95.3998 71.9892 96.3309 72.4736 97.4679L72.5912 97.7439L71.636 98.1508L71.5184 97.8748C71.1292 96.9614 70.4321 96.2133 69.5482 95.7609C68.6644 95.3085 67.6499 95.1804 66.6813 95.3988C65.7127 95.6172 64.8515 96.1685 64.2474 96.9565C63.6433 97.7444 63.3347 98.7193 63.3753 99.7114C63.4159 100.703 63.8031 101.65 64.4695 102.386C65.136 103.122 66.0394 103.601 67.0226 103.739C68.0058 103.878 69.0064 103.667 69.8503 103.144C70.6942 102.621 71.328 101.819 71.6412 100.877L71.7359 100.592L72.7211 100.919L72.6264 101.204C72.2366 102.377 71.4477 103.376 70.3973 104.027C69.3469 104.678 68.1014 104.94 66.8777 104.768C65.6539 104.595 64.5294 103.999 63.6999 103.083C62.8704 102.167 62.3884 100.989 62.3379 99.7538C62.2874 98.519 62.6715 97.3056 63.4234 96.3248C64.1753 95.344 65.2473 94.6579 66.4529 94.386Z" fill="black"/>
<path fill-rule="evenodd" clip-rule="evenodd" d="M8 8V112H112.671V8H8ZM58.7 9.3H9.3V58.3645H58.7V9.3ZM111.371 59.6645H9.3V110.7H111.371L111.371 59.6645ZM60 58.3645V9.3H111.371V58.3645H60Z" fill="black"/>
<path fill-rule="evenodd" clip-rule="evenodd" d="M28.3866 16.8131C27.462 16.7408 26.5419 17.0627 25.8511 17.6999L25.8466 17.704C25.6228 17.9043 25.4253 18.1296 25.2427 18.3829L21.7353 24.7025L28.6008 28.4782L32.8482 20.8317L31.3635 18.4969L31.3519 18.4775C30.9645 17.7848 30.3272 17.2601 29.5661 17.0129L28.3866 16.8131ZM32.0475 18.0759L33.6541 20.6024L33.6617 20.6149L36.6732 25.7546L36.5251 26.3068L34.6436 27.3755L41.692 27.033L44.9884 21.0737L43.3483 22.0282L42.8 21.8845L40.6116 18.1568L40.6082 18.1508C40.3673 17.7238 39.9973 17.4054 39.4828 17.2078L38.7352 17.0362L31.1049 16.9518C31.4832 17.2607 31.804 17.6401 32.0475 18.0759ZM29.1418 16.1269L28.5038 16.0184L28.4698 16.0141C27.3129 15.9177 26.1662 16.3178 25.3088 17.1076C25.0303 17.3571 24.7909 17.6336 24.5762 17.9343L24.5518 17.9728L20.8375 24.6652L20.9951 25.2119L28.5642 29.3746L29.1087 29.2177L33.3245 21.628L35.7746 25.8095L32.7823 27.5091L33.0001 28.2593L41.9545 27.8243L42.2864 27.6176L46.3955 20.1891L45.8421 19.6477L43.2901 21.1329L41.3059 17.7531C40.9615 17.1443 40.4297 16.7041 39.7399 16.4464L39.6892 16.4312L38.8727 16.2438L38.7873 16.2336L29.1418 16.1269ZM39.6518 31.4857L43.9992 39.0561L46.7696 39.0747L46.7756 39.0748C47.6011 39.0926 48.3334 38.8233 48.9828 38.2527C48.9834 38.2522 48.984 38.2517 48.9846 38.2512L49.0211 38.2183C49.1248 38.125 49.2212 38.0383 49.3131 37.9526C49.3143 37.9508 49.3154 37.9492 49.3165 37.9476C49.3232 37.938 49.3311 37.9275 49.3317 37.9267C49.3326 37.9255 49.3329 37.925 49.3329 37.925C49.3329 37.925 49.3319 37.9264 49.3306 37.9284L49.3692 37.8793C49.4977 37.7395 49.6144 37.5719 49.7169 37.391L49.7402 37.3546C50.2891 36.591 50.4872 35.6285 50.2955 34.7059L50.2949 34.703C50.2341 34.3991 50.1448 34.1085 50.018 33.84L46.4312 27.571L39.6518 31.4857ZM48.2618 39.6233C47.792 39.8033 47.2908 39.8888 46.7614 39.8777L43.766 39.8577L43.7662 39.8385L43.7589 39.851L37.796 39.8041L37.3977 39.3928L37.4506 37.2242L34.0962 43.432L37.4974 49.3423L37.5315 47.4463L37.9386 47.052L42.254 47.1123C42.2537 47.1123 42.2542 47.1123 42.254 47.1123C42.7664 47.1177 43.2415 46.957 43.6892 46.6081L43.6935 46.6048C43.8753 46.4671 44.0393 46.2936 44.1777 46.0992L48.2618 39.6233ZM49.2498 38.5527L49.515 38.8542C49.5143 38.8547 49.5137 38.8553 49.513 38.8559C49.5124 38.8564 49.5117 38.857 49.5111 38.8575M49.6312 38.2047L49.9069 38.4966C49.7948 38.6025 49.6773 38.7082 49.5588 38.8148C49.5453 38.8269 49.5319 38.839 49.5184 38.8511L49.2498 38.5527M38.9033 30.9906L46.3787 26.674L46.928 26.8223L50.7226 33.4544L50.7363 33.4806C50.9005 33.8238 51.01 34.1842 51.0821 34.5441C51.3167 35.6753 51.0775 36.8594 50.4049 37.8057C50.2863 38.0126 50.1447 38.2187 49.9783 38.4031L49.9709 38.4189L44.8512 46.5367L44.8396 46.5541C44.6585 46.8107 44.4371 47.0486 44.1806 47.2433C43.5985 47.6962 42.9496 47.923 42.2451 47.9153L42.2439 47.9153L38.3272 47.8606L38.2742 50.8069L37.5247 51L33.2884 43.6384L33.2832 43.2472L37.5395 35.3703L38.2942 35.571L38.2105 39.0043L43.0652 39.0424L38.7559 31.5383L38.9033 30.9906ZM49.9957 38.3718C50.0012 38.3605 50.007 38.3471 50.0122 38.3316L49.9938 38.3705L49.9957 38.3718ZM15 28.7318L15.2056 27.9854H23.705L24.0466 28.1759L28.7513 35.7918L28.2006 36.3456L25.2721 34.5587L22.8486 38.7468H31.4815L31.8831 39.1477L31.8964 47.7875L31.4949 48.1897H24.2629C23.7799 48.2111 23.2623 48.1179 22.7158 47.9263C21.594 47.5374 20.771 46.7973 20.2567 45.7249C20.1442 45.5247 20.0488 45.3114 19.9764 45.0899L19.9708 45.0923L15.4267 36.5461L15.4183 36.5295C15.2793 36.2361 15.1949 35.9293 15.1561 35.6185C15.0425 34.9238 15.1824 34.2153 15.5436 33.6152C15.5438 33.6148 15.5441 33.6144 15.5443 33.6139L17.5404 30.2467L15 28.7318ZM20.7233 44.7884C20.7811 44.9786 20.8625 45.1651 20.9624 45.3416L20.9756 45.3669C21.3984 46.2548 22.0587 46.8487 22.9798 47.1678L22.9812 47.1683C23.4614 47.3367 23.8774 47.4041 24.2346 47.3871L24.2537 47.3866H31.0927L31.0806 39.5498H22.384L20.9875 41.966L20.9834 41.9729C20.5556 42.6799 20.4241 43.4392 20.5911 44.2788C20.6289 44.4484 20.673 44.6183 20.7233 44.7884ZM21.8047 38.9474L21.8055 38.946L24.7829 33.8007L25.3396 33.6591L27.1858 34.7856L23.481 28.7885H16.6631L18.2957 29.762L18.4355 30.3117L16.2337 34.0259L16.2322 34.0284C15.9664 34.4696 15.8653 34.9885 15.9497 35.4952L15.9522 35.5126C15.9805 35.7446 16.0419 35.9675 16.1403 36.1776L19.7573 42.9802C19.8361 42.4856 20.0104 42.0107 20.281 41.5604L21.8047 38.9474Z" fill="black"/>
<path fill-rule="evenodd" clip-rule="evenodd" d="M28.3866 16.8131C27.462 16.7408 26.5419 17.0627 25.8511 17.6999L25.8466 17.704C25.6228 17.9043 25.4253 18.1296 25.2427 18.3829L21.7353 24.7025L28.6008 28.4782L32.8482 20.8317L31.3635 18.4969L31.3519 18.4775C30.9645 17.7848 30.3272 17.2601 29.5661 17.0129L28.3866 16.8131ZM31.1021 16.9517C31.4819 17.2621 31.8036 17.6428 32.0475 18.0759L33.6541 20.6024L33.6617 20.6149L36.6732 25.7546L36.5251 26.3068L34.6436 27.3755L41.692 27.033L44.9884 21.0737L43.3483 22.0282L42.8 21.8845L40.6116 18.1568L40.6082 18.1508C40.3673 17.7238 39.9973 17.4054 39.4828 17.2078L38.7352 17.0362L31.1021 16.9517ZM29.1418 16.1269L28.5038 16.0184L28.4698 16.0141C27.3129 15.9177 26.1662 16.3178 25.3088 17.1076C25.0303 17.3571 24.7909 17.6336 24.5762 17.9343L24.5518 17.9728L20.8375 24.6652L20.9951 25.2119L28.5642 29.3746L29.1087 29.2177L33.3245 21.628L35.7746 25.8095L32.7823 27.5091L33.0001 28.2593L41.9545 27.8243L42.2864 27.6176L46.3955 20.1891L45.8421 19.6477L43.2901 21.1329L41.3059 17.7531C40.9615 17.1443 40.4297 16.7041 39.7399 16.4464L39.6892 16.4312L38.8727 16.2438L38.7873 16.2336L29.1418 16.1269ZM39.6589 31.4857L44.0063 39.0562L46.7696 39.0747L46.7756 39.0748C47.6018 39.0926 48.3347 38.8228 48.9846 38.2512L48.9888 38.2478C49.1129 38.1415 49.2215 38.0445 49.3174 37.9507C49.3455 37.9093 49.3726 37.882 49.3833 37.8715C49.5091 37.7334 49.6233 37.5686 49.724 37.391L49.7473 37.3546C50.2961 36.591 50.4943 35.6285 50.3026 34.7059L50.302 34.703C50.2412 34.3991 50.1519 34.1085 50.0251 33.84L46.4383 27.571L39.6589 31.4857ZM48.2655 39.622C47.7947 39.8029 47.292 39.8888 46.7614 39.8777L43.766 39.8577L43.7665 39.8493L43.7655 39.851L37.8026 39.7974L37.4048 39.3861L37.4577 37.2175L34.1033 43.4253L37.5044 49.3357L37.5386 47.4396L37.9456 47.0453L42.261 47.1056C42.2608 47.1056 42.2613 47.1056 42.261 47.1056C42.7735 47.111 43.2486 46.9503 43.6963 46.6014L43.7006 46.5981C43.8824 46.4604 44.0464 46.2869 44.1848 46.0925L48.2655 39.622ZM43.0719 39.0416L38.763 31.5383L38.9104 30.9906L46.3858 26.674L46.9351 26.8223L50.7297 33.4544L50.7434 33.4806C50.9076 33.8238 51.0171 34.1842 51.0892 34.5441C51.3238 35.6753 51.0846 36.8594 50.412 37.8057C50.2918 38.0153 50.148 38.2242 49.9788 38.4104L49.978 38.4122L44.8583 46.53L44.8467 46.5474C44.6655 46.8041 44.4441 47.042 44.1876 47.2366C43.6055 47.6895 42.9566 47.9163 42.2522 47.9086L42.251 47.9086L38.3343 47.8539L38.2813 50.8003L37.5318 50.9933L33.2955 43.6317L33.2903 43.2405L37.5466 35.3636L38.3013 35.5643L38.2176 38.998L43.0719 39.0416ZM50.0192 38.325C50.0098 38.3533 49.9977 38.3766 49.9862 38.3948L50.0192 38.325ZM15.0071 28.7251L15.2127 27.9787H23.712L24.0537 28.1692L28.7584 35.7852L28.2085 36.3395L25.273 34.5579L22.8486 38.7468H31.4815L31.8831 39.1477L31.8964 47.7875L31.4949 48.1897H24.2629C23.7799 48.2111 23.2623 48.1179 22.7158 47.9263C21.594 47.5374 20.771 46.7973 20.2567 45.7249C20.1414 45.5198 20.0446 45.3009 19.9715 45.0735L15.4337 36.5394L15.4217 36.5149C15.2952 36.2319 15.2028 35.9284 15.1632 35.6118C15.0496 34.9171 15.1895 34.2086 15.5506 33.6085C15.5509 33.6081 15.5512 33.6077 15.5514 33.6072L17.5475 30.24L15.0071 28.7251ZM20.6596 44.8066L20.7234 44.7873C20.7811 44.9778 20.8623 45.1648 20.9624 45.3416L20.9756 45.3669C21.3984 46.2548 22.0587 46.8487 22.9798 47.1678L22.9812 47.1683C23.4614 47.3367 23.8774 47.4041 24.2346 47.3871L24.2537 47.3866H31.0927L31.0806 39.5498H22.384L20.9806 41.9603L20.9771 41.9662C20.5493 42.6732 20.4178 43.4325 20.5848 44.2721C20.6227 44.4421 20.6669 44.6124 20.7174 44.783L20.6596 44.8066ZM19.7609 42.9669C19.8403 42.4759 20.016 42.0041 20.2882 41.5535L21.8047 38.9474L21.8055 38.946L24.7829 33.8007L25.3396 33.6591L27.1975 34.7865L23.4881 28.7818H16.6702L18.3028 29.7553L18.4426 30.305L16.2408 34.0192L16.2393 34.0217C15.9735 34.4629 15.8724 34.9818 15.9568 35.4885L15.9593 35.5059C15.9868 35.7308 16.0526 35.9555 16.1494 36.1748L19.7609 42.9669Z" fill="black"/>
</svg>
