<svg width="120" height="120" viewBox="0 0 120 120" fill="none" xmlns="http://www.w3.org/2000/svg">
<path fill-rule="evenodd" clip-rule="evenodd" d="M57.8643 22.2959L56.5667 21L42.6753 34.9098L56.5672 48.8016L57.8639 47.5049L46.2332 35.8741C60.0571 36.0873 72.4913 38.942 81.5452 43.4141C91.0194 48.0938 96.5198 54.3881 96.5198 61.0647C96.5198 67.7417 91.0233 74.0359 81.5538 78.7155C72.1419 83.3665 59.0735 86.2682 44.5836 86.2682C30.6772 86.2682 18.0943 83.593 8.77181 79.2678L8 80.9313C17.6074 85.3887 30.4626 88.1021 44.5836 88.1021C59.2932 88.1021 72.6514 85.1603 82.3662 80.3596C92.0234 75.5873 98.3537 68.8214 98.3537 61.0647C98.3537 53.3078 92.0185 46.5419 82.3573 41.7698C72.9854 37.1406 60.2257 34.2399 46.1371 34.0386L57.8643 22.2959ZM110.166 30.1489V26.5641H112V30.1489H110.166ZM110.166 44.488V37.3184H112V44.488H110.166ZM110.166 58.8271V51.6575H112V58.8271H110.166ZM110.166 73.1662V65.9967H112V73.1662H110.166ZM110.166 87.5053V80.3358H112V87.5053H110.166ZM110.166 98.2596V94.6749H112V98.2596H110.166Z" fill="black"/>
</svg>
