<svg width="120" height="120" viewBox="0 0 120 120" fill="none" xmlns="http://www.w3.org/2000/svg">
<path fill-rule="evenodd" clip-rule="evenodd" d="M36.0359 13.1646C37.2225 11.7457 38.2307 10.5298 38.2307 8H40.2307C40.2307 11.2661 38.8201 12.953 37.5817 14.4338L37.5702 14.4476C36.3836 15.8664 35.3754 17.0823 35.3754 19.6121C35.3754 22.142 36.3836 23.3579 37.5706 24.7794L37.5791 24.7896C38.8189 26.2742 40.2307 27.965 40.2307 31.2413C40.2307 32.8488 39.8927 34.0934 39.3661 35.1441C38.8585 36.1569 38.1881 36.9585 37.5964 37.666L37.5964 37.666L37.5702 37.6973C36.9544 38.4337 36.4233 39.075 36.028 39.8637C35.6442 40.6295 35.3754 41.5664 35.3754 42.8704H33.3754C33.3754 41.2629 33.7134 40.0182 34.24 38.9676C34.7476 37.9547 35.418 37.1531 36.0097 36.4456L36.0098 36.4456L36.0359 36.4143C36.6517 35.6779 37.1828 35.0367 37.5781 34.248C37.9619 33.4822 38.2307 32.5453 38.2307 31.2413C38.2307 28.702 37.2214 27.4815 36.0355 26.0613L36.0212 26.0442C34.7839 24.5626 33.3754 22.8758 33.3754 19.6121C33.3754 16.346 34.786 14.6592 36.0244 13.1783L36.0359 13.1646ZM59.2944 13.1646C60.4809 11.7457 61.4892 10.5298 61.4892 8H63.4892C63.4892 11.2661 62.0786 12.953 60.8402 14.4338L60.8287 14.4476C59.6421 15.8664 58.6339 17.0823 58.6339 19.6121C58.6339 22.142 59.6421 23.3579 60.8291 24.7794L60.8376 24.7896C62.0774 26.2742 63.4892 27.965 63.4892 31.2413C63.4892 32.8488 63.1511 34.0934 62.6246 35.1441C62.117 36.157 61.4465 36.9586 60.8548 37.666L60.8287 37.6973C60.2128 38.4337 59.6818 39.075 59.2865 39.8637C58.9027 40.6295 58.6339 41.5664 58.6339 42.8704H56.6339C56.6339 41.2629 56.9719 40.0182 57.4985 38.9676C58.0061 37.9547 58.6765 37.1531 59.2682 36.4456L59.2944 36.4143C59.9102 35.6779 60.4413 35.0367 60.8366 34.248C61.2204 33.4822 61.4892 32.5453 61.4892 31.2413C61.4892 28.702 60.4798 27.4815 59.294 26.0613L59.2797 26.0442C58.0424 24.5626 56.6339 22.8758 56.6339 19.6121C56.6339 16.346 58.0445 14.6592 59.2829 13.1783L59.2944 13.1646ZM84.7305 8C84.7305 10.5298 83.7222 11.7457 82.5357 13.1646L82.5242 13.1783C81.2858 14.6592 79.8751 16.346 79.8751 19.6121C79.8751 22.8758 81.2837 24.5626 82.521 26.0442L82.5352 26.0613C83.7211 27.4815 84.7305 28.702 84.7305 31.2413C84.7305 32.5453 84.4617 33.4822 84.0778 34.248C83.6826 35.0367 83.1515 35.6779 82.5357 36.4143L82.5095 36.4456C81.9178 37.1531 81.2474 37.9547 80.7398 38.9676C80.2132 40.0182 79.8751 41.2629 79.8751 42.8704H81.8751C81.8751 41.5664 82.144 40.6295 82.5278 39.8637C82.923 39.075 83.4541 38.4337 84.0699 37.6973L84.0961 37.666C84.6878 36.9586 85.3582 36.157 85.8659 35.1441C86.3924 34.0934 86.7305 32.8488 86.7305 31.2413C86.7305 27.965 85.3186 26.2742 84.0789 24.7896L84.0704 24.7794C82.8834 23.3579 81.8751 22.142 81.8751 19.6121C81.8751 17.0823 82.8834 15.8664 84.0699 14.4476L84.0815 14.4338C85.3198 12.953 86.7305 11.2661 86.7305 8H84.7305ZM108.564 51.5609H12V49.5609H108.564V51.5609ZM12 63.4616H108.564V61.4616H12V63.4616ZM79.2806 109.584V70.3728H81.2806V109.586L94.1227 96.7438L95.5369 98.158L80.2803 113.415L65.041 98.1576L66.4561 96.7442L79.2806 109.584ZM39.2665 100.858V70.3728H41.2665V100.86L54.1086 88.0177L55.5228 89.4319L40.2661 104.689L25.0269 89.4315L26.4419 88.0181L39.2665 100.858Z" fill="black"/>
</svg>
