<svg width="120" height="120" viewBox="0 0 120 120" fill="none" xmlns="http://www.w3.org/2000/svg">
<path fill-rule="evenodd" clip-rule="evenodd" d="M38.4133 30.0463C38.4133 18.1636 48.2829 8 60.4679 8C72.6529 8 82.5304 17.6325 82.5304 29.5151C82.5304 29.6937 82.5276 29.8718 82.5223 30.049C83.7755 29.8676 85.0429 29.777 86.3098 29.777C100.47 29.777 111.941 40.9617 111.941 54.7532C111.941 65.2416 105.211 74.5896 95.1764 78.1749C94.6311 82.9469 92.3598 87.3915 88.7439 90.6726C80.7262 97.9557 68.3053 97.7891 60.4871 90.4944C57.0422 93.7072 52.5376 95.6737 47.7534 96.0032C36.6695 96.7961 26.9841 88.861 25.7955 78.1743C13.8778 73.9199 6.91777 61.7609 9.55689 49.5826M60.4679 10.2451C49.5543 10.2451 40.7075 18.8724 40.7075 29.5151C40.7075 30.1082 40.7433 30.7091 40.7987 31.303L40.9397 32.816L39.4153 32.5031C26.8186 29.9179 14.4602 37.7807 11.8096 50.0456C9.35995 61.348 15.9953 72.6335 27.2392 76.2885L27.9684 76.5255L28.0234 77.2731C28.7452 87.0931 37.5165 94.4856 47.5872 93.764L47.5905 93.7638C52.1898 93.4472 56.5034 91.4239 59.6443 88.132L60.4866 87.2493L61.3293 88.1316C68.2058 95.3302 79.7941 95.7346 87.1751 89.0295C90.5485 85.9685 92.6078 81.7612 92.951 77.27L93.0079 76.5248L93.7349 76.2885C103.221 73.2048 109.639 64.5229 109.639 54.7532C109.639 42.2028 99.2 32.0221 86.3098 32.0221C84.6998 32.0221 83.0906 32.1827 81.5192 32.5034L79.9962 32.8142L80.137 31.303C80.1924 30.7091 80.2282 30.1082 80.2282 29.5151C80.2282 18.8724 71.3814 10.2451 60.4679 10.2451ZM38.4133 30.0463C25.0965 28.0868 12.3663 36.584 9.55689 49.5826L38.4133 30.0463Z" fill="black"/>
<path d="M61.3179 80.9826V112H58.8374V80.9656C50.5285 80.2775 43.9917 73.3084 43.9917 64.823H46.4722C46.4722 71.9376 51.9003 77.7945 58.8374 78.4749V64.8417H61.3179V78.495C68.3622 77.9207 73.9079 72.0143 73.9079 64.823H76.3884C76.3884 73.3848 69.7334 80.4029 61.3179 80.9826Z" fill="black"/>
</svg>
