<svg width="120" height="120" viewBox="0 0 120 120" fill="none" xmlns="http://www.w3.org/2000/svg">
<path fill-rule="evenodd" clip-rule="evenodd" d="M49.4376 43.5725C49.4376 43.2862 49.6437 43.0458 49.9299 43.0115C49.9528 43 49.9643 43 49.9872 43C50.2963 43 50.5368 43.2519 50.5368 43.5496V56.1674C50.5368 56.3048 50.4795 56.4422 50.3765 56.5452C50.1704 56.7513 49.8269 56.7513 49.6208 56.5452L38.3312 44.9465V56.1674C38.3197 56.4651 38.0793 56.7055 37.7816 56.7055H37.7358C37.4381 56.6941 37.2206 56.4536 37.232 56.1674V43.5725C37.232 43.0916 37.8159 42.8283 38.148 43.1603L49.4376 54.7132V43.5725ZM14.607 49.5944L21.0647 43.045C21.0762 43.0336 21.0991 43.0221 21.1334 43.0221C21.1792 43.0221 21.2136 43.0565 21.2136 43.1023V56.1552V56.2124C21.1907 56.4872 20.9617 56.7048 20.6755 56.6933H20.664C20.3549 56.6933 20.1144 56.4529 20.1144 56.1552V45.564L14.607 51.1516L9.0996 45.564V56.1323V56.1895C9.08815 56.4758 8.83625 56.7048 8.55001 56.6933H8.50421C8.21796 56.6819 7.98896 56.4414 8.00041 56.1552V43.1023C8.00041 43.0794 8.01186 43.0565 8.02331 43.045C8.05766 43.0107 8.10346 43.0107 8.13781 43.045L14.607 49.5944ZM45.9225 62.3618L45.5103 62.2473C45.3958 62.2244 45.2927 62.1901 45.1897 62.1328C45.1095 62.087 45.0637 62.0069 45.0637 61.9153C45.0637 61.8122 45.1095 61.7206 45.2011 61.6634C45.2927 61.6061 45.3958 61.5832 45.5103 61.5832C45.6133 61.5832 45.7049 61.6061 45.7965 61.6519C45.911 61.7206 45.9797 61.858 45.9797 61.984H46.4606C46.4721 61.7321 46.369 61.5031 46.1744 61.3313C46.0026 61.1825 45.7851 61.1023 45.5561 61.1023C45.2584 61.1023 45.0294 61.171 44.8576 61.3313C44.6973 61.4916 44.6057 61.7092 44.6057 61.9382C44.5943 62.1672 44.6973 62.3962 44.8805 62.5336C45.0523 62.6252 45.2355 62.6939 45.4301 62.7397C45.6133 62.774 45.7851 62.8313 45.9454 62.9114C46.0141 62.9572 46.0599 63.0374 46.0484 63.1175C46.0484 63.4267 45.7393 63.4725 45.579 63.4725C45.3614 63.4725 45.2355 63.4381 45.1439 63.3236C45.0866 63.232 45.0523 63.1404 45.0408 63.0374H44.5599C44.5485 63.2893 44.6515 63.5412 44.8462 63.7129C45.0408 63.8732 45.2469 63.9305 45.5904 63.9305C45.8538 63.9419 46.1057 63.8503 46.2889 63.6671C46.4377 63.5068 46.5293 63.3007 46.5179 63.0832C46.5293 62.8885 46.4606 62.7053 46.3232 62.5565C46.2202 62.4649 46.0713 62.3962 45.9225 62.3618ZM23.8471 61.1939L24.2822 63.3006L24.7173 61.1939H25.4501V63.8731H24.9463V61.629L24.4997 63.8731H24.0532L23.5723 61.629V63.8731H23.1028V61.1939H23.8471ZM26.1256 63.8846L26.9843 61.2053H27.5568L28.4156 63.8846H27.866L27.6942 63.335H26.824L26.6523 63.8846H26.1256ZM27.2591 61.8122L26.9614 62.8656H27.5454L27.2591 61.8122ZM42.5562 61.2053L41.6975 63.8846H42.2242L42.3959 63.335H43.2661L43.4378 63.8846H43.9874L43.1287 61.2053H42.5562ZM42.5333 62.8656L42.831 61.8122L43.1172 62.8656H42.5333ZM29.6178 61.2053L30.5682 63.0717V61.2053H31.0376V63.8732H30.5338L29.5606 61.9839V63.8732H29.0911V61.2053H29.6178ZM59.5708 63.3006L59.1357 61.1939H58.3914V63.8731H58.8609V61.629L59.3418 63.8731H59.7883L60.2348 61.629V63.8731H60.7386V61.1939H60.0059L59.5708 63.3006ZM63.7843 63.8846L64.6431 61.2053H65.2156L66.0743 63.8846H65.5247L65.353 63.335H64.4828L64.311 63.8846H63.7843ZM64.9293 61.8122L64.6316 62.8656H65.2156L64.9293 61.8122ZM74.593 61.2053L73.7343 63.8846H74.261L74.4327 63.335H75.3029L75.4747 63.8846H76.0243L75.1655 61.2053H74.593ZM74.5816 62.8656L74.8793 61.8122L75.1655 62.8656H74.5816ZM70.2879 61.2053L71.2382 63.0717V61.2053H71.7077V63.8732H71.2039L70.2306 61.9839V63.8732H69.7612V61.2053H70.2879ZM31.7131 61.6748H32.4574V63.8732H32.9612V61.6748H33.6596V61.2053H31.7131V61.6748ZM36.0183 62.7053H34.8733V63.3923H36.1901V63.8732H34.381V61.2053H36.1214V61.6748H34.8733V62.2473H36.0183V62.7053ZM77.7303 61.6748H78.4631V63.8732H78.9669V61.6748H79.6654V61.2053H77.7303V61.6748ZM82.024 62.7053H80.879V63.3923H82.1957V63.8732H80.3867V61.2053H82.1385V61.6748H80.879V62.2473H82.024V62.7053ZM37.5068 61.2053H37.003V63.8732H38.6747V63.3923H37.5068V61.2053ZM92.5694 62.7053V63.3923H93.8861V63.8732H92.077V61.2053H93.8174V61.6748H92.5694V62.2473H93.7029V62.7053H92.5694ZM90.0848 61.2053H89.5924V63.8732H91.2641V63.3923H90.0848V61.2053ZM39.4304 61.2053H39.9342V63.3923H41.1135V63.8732H39.4304V61.2053ZM48.1437 62.2473L48.5559 62.3618C48.7048 62.3962 48.8422 62.4649 48.9567 62.5565C49.0941 62.7053 49.1628 62.8885 49.1513 63.0832C49.1628 63.3007 49.0712 63.5068 48.9223 63.6671C48.7391 63.8503 48.4872 63.9419 48.2239 63.9305C47.8804 63.9305 47.6743 63.8732 47.4797 63.7129C47.285 63.5412 47.182 63.2893 47.1934 63.0374H47.6743C47.6858 63.1404 47.7201 63.232 47.7774 63.3236C47.869 63.4381 47.9949 63.4725 48.2124 63.4725C48.3727 63.4725 48.6819 63.4267 48.6819 63.1175C48.6933 63.0374 48.6475 62.9572 48.5788 62.9114C48.4185 62.8313 48.2468 62.774 48.0636 62.7397C47.869 62.6939 47.6858 62.6252 47.514 62.5336C47.3308 62.3962 47.2278 62.1672 47.2392 61.9382C47.2392 61.7092 47.3308 61.4916 47.4911 61.3313C47.6629 61.171 47.8918 61.1023 48.1895 61.1023C48.4185 61.1023 48.6361 61.1825 48.8078 61.3313C49.0025 61.5031 49.1055 61.7321 49.0941 61.984H48.6132C48.6132 61.858 48.5445 61.7206 48.43 61.6519C48.3384 61.6061 48.2468 61.5832 48.1437 61.5832C48.0293 61.5832 47.9262 61.6061 47.8346 61.6634C47.743 61.7206 47.6972 61.8122 47.6972 61.9153C47.6972 62.0069 47.743 62.087 47.8232 62.1328C47.9262 62.1901 48.0293 62.2244 48.1437 62.2473ZM50.3879 61.2053H49.8956V63.8846H50.3879V61.2053ZM83.8217 62.2473L84.2338 62.3618C84.3941 62.3962 84.5315 62.4649 84.6346 62.5565C84.772 62.7053 84.8407 62.8885 84.8292 63.0832C84.8407 63.3007 84.7491 63.5068 84.6003 63.6671C84.417 63.8503 84.1652 63.9419 83.9018 63.9305C83.5583 63.9305 83.3522 63.8732 83.1576 63.7129C82.9629 63.5412 82.8599 63.2893 82.8713 63.0374H83.3522C83.3637 63.1404 83.398 63.232 83.4553 63.3236C83.5469 63.4381 83.6728 63.4725 83.8904 63.4725C84.0507 63.4725 84.3598 63.4267 84.3598 63.1175C84.3713 63.0374 84.3254 62.9572 84.2568 62.9114C84.0965 62.8313 83.9247 62.774 83.7415 62.7397C83.5469 62.6939 83.3637 62.6252 83.1919 62.5336C83.0087 62.3962 82.9057 62.1672 82.9171 61.9382C82.9171 61.7092 83.0087 61.4916 83.169 61.3313C83.3408 61.171 83.5698 61.1023 83.8675 61.1023C84.0965 61.1023 84.314 61.1825 84.4857 61.3313C84.6804 61.5031 84.7834 61.7321 84.772 61.984H84.2911C84.2911 61.858 84.2224 61.7206 84.1079 61.6519C84.0163 61.6061 83.9247 61.5832 83.8217 61.5832C83.7072 61.5832 83.6041 61.6061 83.5125 61.6634C83.4209 61.7206 83.3751 61.8122 83.3751 61.9153C83.3751 62.0069 83.4209 62.087 83.5011 62.1328C83.6041 62.1901 83.7072 62.2244 83.8217 62.2473ZM86.8673 62.3618L86.4551 62.2473C86.3406 62.2244 86.2376 62.1901 86.1345 62.1328C86.0544 62.087 86.0086 62.0069 86.0086 61.9153C86.0086 61.8122 86.0544 61.7206 86.146 61.6634C86.2376 61.6061 86.3406 61.5832 86.4551 61.5832C86.5582 61.5832 86.6498 61.6061 86.7414 61.6519C86.8559 61.7206 86.9246 61.858 86.9246 61.984H87.4055C87.4169 61.7321 87.3139 61.5031 87.1192 61.3313C86.9475 61.1825 86.7299 61.1023 86.5009 61.1023C86.2032 61.1023 85.9742 61.171 85.8025 61.3313C85.6422 61.4916 85.5506 61.7092 85.5506 61.9382C85.5391 62.1672 85.6422 62.3962 85.8254 62.5336C85.9971 62.6252 86.1803 62.6939 86.375 62.7397C86.5582 62.774 86.7299 62.8313 86.8902 62.9114C86.9589 62.9572 87.0047 63.0374 86.9933 63.1175C86.9933 63.4267 86.6841 63.4725 86.5238 63.4725C86.3063 63.4725 86.1803 63.4381 86.0887 63.3236C86.0315 63.232 85.9971 63.1404 85.9857 63.0374H85.5048C85.4933 63.2893 85.5964 63.5412 85.791 63.7129C85.9857 63.8732 86.1918 63.9305 86.5353 63.9305C86.7986 63.9419 87.0505 63.8503 87.2337 63.6671C87.3826 63.5068 87.4742 63.3007 87.4627 63.0832C87.4742 62.8885 87.4055 62.7053 87.2681 62.5565C87.165 62.4649 87.0162 62.3962 86.8673 62.3618ZM88.2184 61.2053H88.7108V63.8846H88.2184V61.2053ZM73.0358 61.2053H72.5435V63.8846H73.0358V61.2053ZM53.9947 61.8007C53.9031 61.6748 53.7428 61.6175 53.5939 61.629C53.4107 61.629 53.2504 61.7206 53.1703 61.8694C53.0443 62.087 52.9985 62.3274 53.01 62.5679C53.01 62.877 53.0672 63.106 53.1817 63.2549C53.2733 63.3923 53.4336 63.4724 53.5939 63.4724C53.7542 63.4839 53.9031 63.4037 53.9947 63.2778C54.0519 63.1862 54.0977 63.0831 54.1206 62.9686H54.613C54.5901 63.232 54.4756 63.4724 54.2924 63.6671C54.1092 63.8617 53.8573 63.9647 53.5939 63.9533C53.2962 63.9647 53.01 63.8388 52.8153 63.6098C52.6092 63.3579 52.4947 63.0144 52.4947 62.5564C52.4947 62.087 52.6092 61.7091 52.8497 61.4572C53.0329 61.2511 53.2962 61.1481 53.571 61.1481C54.0061 61.1481 54.2695 61.2969 54.4641 61.5946C54.5557 61.7435 54.613 61.9152 54.6244 62.0984H54.1206C54.0977 61.9954 54.0519 61.8923 53.9947 61.8007ZM56.4678 61.1252C56.1816 61.1137 55.9068 61.2168 55.7007 61.4229C55.4373 61.6633 55.3228 62.0526 55.3228 62.545C55.3228 63.0259 55.4488 63.4037 55.6892 63.6442C55.8953 63.8617 56.1816 63.9762 56.4793 63.9533C56.8457 63.9533 57.0747 63.8503 57.2693 63.6442C57.5212 63.3694 57.6357 63.0259 57.6357 62.545C57.6357 61.9725 57.4869 61.6633 57.2464 61.4229C57.0289 61.2053 56.7541 61.1023 56.4678 61.1252ZM56.4678 63.4724C56.0442 63.4724 55.8152 63.106 55.8152 62.5106C55.8152 62.0412 55.9984 61.5832 56.4678 61.5832C56.9144 61.5832 57.109 62.0068 57.109 62.5106C57.109 63.0602 56.9258 63.4724 56.4678 63.4724ZM61.5974 61.2054H62.6279C62.834 61.1939 63.0401 61.2626 63.2004 61.4115C63.3492 61.5489 63.4294 61.7664 63.4294 62.0527C63.4294 62.3618 63.3492 62.5908 63.2004 62.7168C63.0286 62.8542 62.8111 62.9229 62.5935 62.9114H62.0897V63.8847H61.5974V61.2054ZM62.5363 62.4534C62.6393 62.4649 62.7424 62.4305 62.8225 62.3618C62.9027 62.2702 62.937 62.1672 62.9256 62.0527C62.937 61.9382 62.9027 61.8351 62.8225 61.755C62.7424 61.6863 62.6393 61.6519 62.5363 61.6634H62.0897V62.4534H62.5363ZM67.8948 62.8884H68.4444C68.4215 63.0602 68.307 63.4724 67.8147 63.4724C67.5513 63.4724 67.1735 63.2892 67.1735 62.5678C67.1735 62.2472 67.2307 61.9839 67.3681 61.8236C67.4826 61.6747 67.6544 61.5831 67.849 61.5946C68.1124 61.5831 68.3414 61.7778 68.3872 62.0411H68.8795C68.8566 61.7892 68.7421 61.5602 68.5589 61.3999C68.3528 61.2167 68.0895 61.1251 67.8261 61.148C67.5055 61.1366 67.1964 61.2854 67.0017 61.5259C66.7727 61.7892 66.6697 62.1442 66.6697 62.5793C66.6697 63.0029 66.7727 63.3693 67.0017 63.6097C67.1849 63.8387 67.4712 63.9761 67.7689 63.9532C67.9292 63.9647 68.1009 63.9189 68.2383 63.8273C68.3414 63.7471 68.433 63.6555 68.5131 63.5525L68.5589 63.8845H68.891V62.4533H67.8948V62.8884ZM23.7784 56.3849L26.595 50.7287H31.8391L34.6443 56.3849C34.7817 56.6597 35.1023 56.7628 35.3771 56.6254C35.6519 56.488 35.755 56.1674 35.6176 55.8926L29.4003 43.3893C29.343 43.2863 29.2171 43.2405 29.114 43.2977C29.0682 43.3206 29.0339 43.355 29.0224 43.3893L25.7592 49.9615C25.7592 49.9615 25.7592 49.973 25.7477 49.973L22.8051 55.904C22.6677 56.1788 22.7822 56.4994 23.0456 56.6368C23.3204 56.7742 23.641 56.6597 23.7784 56.3849ZM29.2056 45.4617L31.2781 49.6409H27.1217L29.2056 45.4617ZM59.0326 44.3739V56.133C59.0326 56.4307 58.7922 56.6711 58.4945 56.6826C58.1853 56.6826 57.9449 56.4307 57.9449 56.133V44.3739H52.0711C51.7619 44.3739 51.5215 44.122 51.5215 43.8243C51.5215 43.5152 51.7734 43.2747 52.0711 43.2747H64.9064C65.2156 43.2747 65.456 43.5266 65.456 43.8243C65.456 44.1335 65.2041 44.3739 64.9064 44.3739H59.0326ZM79.3905 44.3739C79.6882 44.3739 79.9401 44.1335 79.9401 43.8243C79.9401 43.5266 79.6997 43.2747 79.3905 43.2747H66.704V56.4192H79.3905C79.6882 56.4192 79.9401 56.1788 79.9401 55.8696C79.9401 55.5605 79.6997 55.32 79.3905 55.32H67.7918V50.3851H79.1157C79.4134 50.3851 79.6653 50.1447 79.6653 49.8355C79.6653 49.5378 79.4249 49.2974 79.1157 49.2859H67.7918V44.351H79.3905V44.3739ZM95.3059 49.8586C95.3059 46.0801 98.363 43.023 102.141 43.023C105.92 43.0344 108.977 46.0916 108.977 49.8586C108.977 53.637 105.92 56.6942 102.141 56.6942C98.363 56.6942 95.3059 53.637 95.3059 49.8586ZM96.3936 49.8586C96.3936 53.0302 98.9699 55.6064 102.141 55.6064C105.313 55.595 107.889 53.0302 107.889 49.8586C107.889 46.687 105.313 44.1107 102.141 44.1107C98.9699 44.1107 96.3936 46.687 96.3936 49.8586ZM93.8975 51.7363C93.6227 51.6218 93.3022 51.7592 93.1877 52.034C91.9854 54.9766 88.6306 56.3849 85.6994 55.1827C82.7568 53.9804 81.3485 50.6256 82.5507 47.6945C83.4323 45.5304 85.5391 44.1221 87.8634 44.1221C88.2527 44.1221 88.642 44.1564 89.0199 44.2366C89.3176 44.2938 89.6038 44.1106 89.6611 43.8129C89.7183 43.5152 89.5351 43.229 89.2374 43.1717C85.5391 42.416 81.9324 44.7976 81.1653 48.4959C80.4096 52.1943 82.7911 55.801 86.4895 56.5681C89.7069 57.2322 92.9472 55.5033 94.1952 52.4576C94.3097 52.1599 94.1723 51.8508 93.8975 51.7363ZM111.244 44.2938C111.244 43.9961 111.084 43.8473 110.717 43.8473H110.088V45.4846H110.294V44.7633H110.637L111.095 45.4846H111.336L110.855 44.7633C111.05 44.706 111.244 44.5801 111.244 44.2938ZM110.546 44.5801H110.282V44.019H110.649C110.843 44.019 111.038 44.0763 111.038 44.3053C111.038 44.5686 110.798 44.5801 110.546 44.5801ZM109.183 44.6488C109.183 43.8702 109.813 43.2405 110.592 43.2405H110.626C111.393 43.2405 112.011 43.8817 112 44.6488C112 45.4274 111.37 46.0571 110.592 46.0571C109.813 46.0571 109.183 45.4274 109.183 44.6488ZM109.355 44.6717C109.366 45.3358 109.927 45.8739 110.592 45.8625H110.626C111.279 45.8396 111.794 45.3015 111.782 44.6488V44.6259C111.771 43.9618 111.21 43.4237 110.546 43.4351C109.882 43.4466 109.343 44.0076 109.355 44.6717Z" fill="black"/>
<path fill-rule="evenodd" clip-rule="evenodd" d="M93.222 71.7736C93.0961 71.4072 92.9014 71.0637 92.6495 70.766C92.4205 70.5026 92.1343 70.2851 91.8137 70.1133C91.1496 69.8156 90.3939 69.8156 89.7298 70.1248C89.3977 70.2851 89.1115 70.5141 88.8825 70.7889C88.6306 71.098 88.436 71.4644 88.31 71.8423C88.1726 72.2888 88.0925 72.7468 88.1039 73.2163C88.0925 73.6628 88.1611 74.1094 88.31 74.533C88.436 74.9108 88.6306 75.2429 88.8825 75.5406C89.1229 75.8154 89.4092 76.0329 89.7298 76.1818C90.0504 76.3306 90.3939 76.3993 90.7488 76.3993C91.1381 76.4108 91.5389 76.3192 91.8938 76.1474C92.2259 75.9757 92.5121 75.7352 92.7411 75.4375C92.9701 75.1284 93.1533 74.7734 93.2564 74.3956C93.3823 73.9834 93.4396 73.5483 93.4396 73.1132C93.4396 72.6552 93.3708 72.2087 93.222 71.7736ZM91.9969 74.2811C91.9511 74.5903 91.8824 74.8879 91.7679 75.1742C91.6763 75.4032 91.5503 75.6093 91.3786 75.7696C91.2068 75.9184 91.0007 75.9871 90.7832 75.9871C90.5656 75.9871 90.3481 75.9184 90.1878 75.7696C90.016 75.5978 89.8786 75.3917 89.7985 75.1627C89.684 74.8765 89.6038 74.5788 89.5695 74.2697C89.5237 73.9147 89.5008 73.5483 89.5008 73.1819C89.5122 72.2774 89.6153 71.5675 89.8328 71.0751C90.0504 70.5828 90.371 70.3309 90.7832 70.3309C91.0122 70.3309 91.2412 70.411 91.4015 70.5713C91.5847 70.7431 91.7221 70.9606 91.8022 71.2011C91.9053 71.4988 91.974 71.7965 92.0083 72.1056C92.0427 72.4491 92.0656 72.8041 92.0656 73.1476C92.0656 73.5254 92.0427 73.9033 91.9969 74.2811ZM15.7863 76.4106C15.5001 76.4106 15.2138 76.3648 14.939 76.2732C14.71 76.1931 14.4811 76.0786 14.275 75.9412L14.0345 76.2503H13.7483L13.7025 74.029H14.0002C14.0689 74.258 14.1605 74.4756 14.2521 74.6931C14.3437 74.9107 14.4696 75.1282 14.6185 75.3229C14.7444 75.5061 14.9047 75.6664 15.0879 75.7923C15.2711 75.9183 15.4886 75.9755 15.7062 75.9755C15.981 75.9984 16.2443 75.8839 16.4275 75.6893C16.5993 75.4832 16.6909 75.2313 16.6794 74.9565C16.6909 74.7389 16.6107 74.5214 16.4619 74.3496C16.2787 74.155 16.0497 74.0176 15.7978 73.926C15.6031 73.8458 15.4314 73.7771 15.2596 73.7084L15.2596 73.7084C15.0993 73.6397 14.939 73.571 14.8016 73.5024C14.4811 73.3535 14.2292 73.1016 14.0689 72.7925C13.9086 72.4719 13.817 72.1169 13.8284 71.762C13.8284 71.5215 13.8742 71.2925 13.9544 71.075C14.0345 70.8574 14.1605 70.6513 14.3208 70.4796C14.4811 70.3078 14.6872 70.1704 14.9047 70.0788C15.1451 69.9758 15.4199 69.9185 15.6833 69.9185C15.9466 69.9185 16.21 69.9643 16.4504 70.0674C16.6451 70.1361 16.8397 70.2391 17.0115 70.3536L17.2176 70.0903H17.5267L17.5496 72.1971H17.2519C17.1832 71.9681 17.1031 71.7391 17.0115 71.4986C16.9313 71.2925 16.8397 71.0979 16.7138 70.9147C16.6107 70.7544 16.4733 70.617 16.3245 70.5139C16.1642 70.4109 15.9924 70.3651 15.7978 70.3651C15.5688 70.3536 15.3398 70.4567 15.1795 70.6284C15.0192 70.8116 14.939 71.0406 14.939 71.2811C14.9276 71.4986 15.0077 71.7162 15.1451 71.8879C15.3283 72.0711 15.5459 72.2085 15.7863 72.3001C15.8571 72.3284 15.9279 72.3587 15.9994 72.3892C16.1015 72.4329 16.2053 72.4773 16.313 72.5177C16.4962 72.5864 16.6451 72.6551 16.7939 72.7238C17.1145 72.8726 17.3779 73.1016 17.5611 73.3993C17.7443 73.7199 17.8359 74.0863 17.8244 74.4641C17.8244 74.7275 17.7786 74.9908 17.6756 75.2427C17.584 75.4717 17.4466 75.6893 17.2748 75.861C17.0916 76.0442 16.8741 76.1816 16.6336 76.2847C16.3703 76.3648 16.084 76.4106 15.7863 76.4106ZM24.7173 70.4226C24.6142 70.434 24.5226 70.4569 24.431 70.4798C24.3165 70.5027 24.202 70.56 24.1104 70.6401C24.0074 70.7432 23.9387 70.8806 23.9272 71.0294C23.8814 71.3042 23.87 71.5904 23.87 71.8767V74.1667C23.87 74.8422 23.6868 75.3804 23.3204 75.7926C22.954 76.2048 22.4158 76.4338 21.8662 76.4109C21.1678 76.4109 20.6182 76.2162 20.2403 75.8155C19.8511 75.4262 19.6679 74.8651 19.6679 74.1552V71.0065C19.6679 70.9149 19.6564 70.8348 19.6221 70.7432C19.5877 70.663 19.519 70.5943 19.4389 70.5485C19.3786 70.5083 19.3096 70.4858 19.2472 70.4654L19.2213 70.4569C19.1526 70.434 19.0839 70.4226 19.0038 70.4111V70.0791H21.5914V70.4111C21.5113 70.4111 21.4426 70.4226 21.3624 70.4455C21.2823 70.4684 21.2021 70.4913 21.1334 70.5142C21.0533 70.5371 20.9846 70.6058 20.9617 70.6859C20.9273 70.7775 20.9159 70.8691 20.9159 70.9607V74.0636C20.9159 74.6705 21.0189 75.117 21.2365 75.3918C21.454 75.6666 21.7632 75.804 22.1754 75.804C22.5532 75.8155 22.9082 75.6437 23.1257 75.346C23.3547 75.0369 23.4692 74.5903 23.4692 73.9949V71.911C23.4807 71.6362 23.4578 71.35 23.412 71.0752C23.3891 70.9264 23.3204 70.789 23.2288 70.6745C23.1372 70.5943 23.0341 70.5371 22.9196 70.5027C22.8166 70.4684 22.7135 70.434 22.6105 70.4111V70.0676H24.7516L24.7173 70.4226ZM26.9042 76.2735C27.179 76.3651 27.4652 76.4109 27.7515 76.4109C28.0492 76.4109 28.3354 76.3651 28.5873 76.2849C28.8278 76.1819 29.0453 76.0445 29.2285 75.8613C29.4003 75.6895 29.5377 75.472 29.6293 75.243C29.7323 74.9911 29.7781 74.7277 29.7781 74.4644C29.7896 74.0865 29.698 73.7201 29.5148 73.3995C29.3316 73.1018 29.0682 72.8729 28.7476 72.724C28.5988 72.6553 28.4499 72.5866 28.2667 72.5179C28.159 72.4775 28.0552 72.4332 27.9531 72.3895C27.8815 72.3589 27.8108 72.3287 27.74 72.3004C27.4996 72.2088 27.282 72.0714 27.0988 71.8882C26.9614 71.7164 26.8813 71.4989 26.8927 71.2813C26.8927 71.0409 26.9729 70.8119 27.1332 70.6287C27.2935 70.4569 27.5225 70.3539 27.7515 70.3653C27.9461 70.3653 28.1179 70.4111 28.2782 70.5142C28.427 70.6172 28.5644 70.7546 28.6675 70.9149C28.7934 71.0981 28.885 71.2928 28.9652 71.4989C29.0568 71.7393 29.1369 71.9683 29.2056 72.1973H29.5033L29.4804 70.0905H29.1713L28.9652 70.3539C28.7934 70.2394 28.5988 70.1363 28.4041 70.0676C28.1637 69.9646 27.9003 69.9188 27.637 69.9188C27.3736 69.9188 27.0988 69.976 26.8584 70.0791C26.6408 70.1707 26.4347 70.3081 26.2744 70.4798C26.1141 70.6516 25.9882 70.8577 25.9081 71.0752C25.8279 71.2928 25.7821 71.5218 25.7821 71.7622C25.7707 72.1172 25.8623 72.4721 26.0225 72.7927C26.1828 73.1019 26.4347 73.3537 26.7553 73.5026C26.8927 73.5713 27.053 73.64 27.2132 73.7087L27.2133 73.7087L27.2133 73.7087C27.3851 73.7774 27.5568 73.8461 27.7515 73.9262C28.0034 74.0178 28.2324 74.1552 28.4156 74.3499C28.5644 74.5216 28.6446 74.7392 28.6331 74.9567C28.6446 75.2315 28.553 75.4834 28.3812 75.6895C28.198 75.8842 27.9347 75.9987 27.6599 75.9758C27.4423 75.9758 27.2248 75.9185 27.0416 75.7926C26.8584 75.6666 26.6981 75.5063 26.5721 75.3231C26.4233 75.1285 26.2973 74.9109 26.2057 74.6934C26.1141 74.4758 26.0226 74.2583 25.9539 74.0293H25.6562L25.702 76.2506H25.9997L26.2401 75.9414C26.4462 76.0788 26.6752 76.1933 26.9042 76.2735ZM35.5832 71.8423H35.3084C35.2283 71.5446 35.1023 71.2698 34.9649 70.995C34.8046 70.6973 34.6558 70.537 34.5298 70.5141C34.4611 70.5027 34.3581 70.4912 34.255 70.4798C34.1406 70.4683 34.049 70.4683 33.9688 70.4683H33.9688H33.8085V75.3002C33.8085 75.3918 33.8199 75.4834 33.8543 75.575C33.8886 75.6551 33.9459 75.7238 34.026 75.7696C34.1062 75.804 34.1863 75.8269 34.2779 75.8498C34.3185 75.8579 34.3562 75.866 34.3915 75.8736C34.4559 75.8875 34.5124 75.8996 34.5642 75.907V76.2391H31.8162V75.907C31.8849 75.8956 31.9765 75.8841 32.1024 75.8727L32.1175 75.8705C32.1939 75.8597 32.2792 75.8476 32.3543 75.8154C32.4345 75.7811 32.5032 75.7124 32.5375 75.6322C32.5719 75.5406 32.5833 75.449 32.5833 75.3574V70.4683H32.423H32.423C32.3428 70.4683 32.2513 70.4683 32.1368 70.4798C32.1052 70.4833 32.0747 70.4857 32.0452 70.4881C31.9786 70.4934 31.9176 70.4982 31.862 70.5141C31.7246 70.537 31.5757 70.6973 31.4269 70.995C31.278 71.2584 31.1635 71.5446 31.0834 71.8423H30.8086V70.079H35.5832V71.8423ZM39.2586 76.2391H41.9379L41.9036 75.9185L41.874 75.9136C41.8124 75.9036 41.7435 75.8924 41.6746 75.8727C41.5944 75.8498 41.5143 75.8154 41.4456 75.7696C41.3654 75.7124 41.3082 75.6437 41.2509 75.5635C41.2051 75.4834 41.1708 75.4032 41.1364 75.3231C41.0725 75.1227 41.0006 74.9049 40.9225 74.6684L40.9223 74.6676L40.9221 74.667L40.922 74.6667L40.9214 74.6649L40.9214 74.6649L40.9214 74.6649C40.7901 74.2671 40.6414 73.8166 40.4838 73.3079C40.2319 72.495 39.8769 71.3958 39.4189 69.9989H38.7205C38.3999 70.9836 38.1022 71.8881 37.8274 72.7011C37.6957 73.1075 37.5612 73.514 37.4266 73.9205C37.2921 74.327 37.1576 74.7334 37.0259 75.1399C36.9916 75.2658 36.9343 75.3803 36.8656 75.4948C36.8084 75.5864 36.7168 75.678 36.6252 75.7467C36.5565 75.7925 36.4763 75.8269 36.3962 75.8498C36.316 75.8727 36.2359 75.8841 36.1443 75.8956V76.2276H38.1709V75.8956C37.9762 75.8841 37.7816 75.8383 37.6098 75.7582C37.5068 75.7124 37.4495 75.6208 37.4381 75.5177C37.4381 75.4719 37.4381 75.4147 37.4496 75.3689C37.4725 75.2429 37.4954 75.1284 37.5297 75.014C37.5479 74.9471 37.5694 74.8769 37.5924 74.8019L37.5924 74.8019L37.5924 74.8018L37.5925 74.8016C37.6128 74.7354 37.6342 74.6654 37.6556 74.5903C37.6843 74.49 37.713 74.3987 37.7388 74.3163L37.7389 74.316L37.739 74.3158L37.7391 74.3155C37.7544 74.2665 37.7688 74.2207 37.7816 74.1781H39.4876L39.9113 75.449C39.917 75.4662 39.9227 75.4863 39.9285 75.5063L39.9285 75.5064C39.9342 75.5264 39.9399 75.5464 39.9456 75.5635V75.6437C39.9456 75.7124 39.8655 75.7696 39.6937 75.8154C39.5563 75.8612 39.4075 75.8956 39.2586 75.907V76.2391ZM38.6289 71.5217L39.3388 73.743H37.9304L38.6289 71.5217ZM45.3958 76.2391H42.6593V75.907C42.6931 75.9003 42.7389 75.8975 42.7967 75.894L42.7967 75.894C42.8367 75.8916 42.8825 75.8888 42.9341 75.8841C43.0257 75.8841 43.1058 75.8612 43.186 75.8383C43.2661 75.804 43.3233 75.7467 43.3577 75.6666C43.392 75.5864 43.4035 75.4834 43.4035 75.3918V71.0294C43.4035 70.9378 43.392 70.8462 43.3577 70.766C43.3233 70.6859 43.2547 70.6172 43.186 70.5828C43.1058 70.5485 43.0257 70.5141 42.9341 70.4912L42.9337 70.4911C42.8422 70.4683 42.7507 70.4454 42.6478 70.4225V70.079H45.3843V70.4225C45.3156 70.434 45.224 70.4454 45.121 70.4569C45.0294 70.4683 44.9378 70.4912 44.8576 70.5256C44.7775 70.5599 44.7088 70.6172 44.6744 70.6973C44.6401 70.7889 44.6286 70.8805 44.6286 70.9721V75.3345C44.6286 75.4261 44.6401 75.5177 44.6744 75.5979C44.7088 75.678 44.7775 75.7353 44.8576 75.7811C44.9377 75.8154 45.0179 75.8383 45.098 75.8612L45.0981 75.8612C45.1897 75.8841 45.2813 75.8956 45.3843 75.907L45.3958 76.2391ZM52.1627 70.4332C52.1877 70.4294 52.2106 70.426 52.2314 70.4225L52.2199 70.0905H50.1017V70.434C50.2162 70.4569 50.3192 70.4912 50.4223 70.5256C50.5368 70.5599 50.6284 70.6172 50.72 70.6973C50.8116 70.8118 50.8803 70.9492 50.9032 71.0981C50.949 71.3729 50.9719 71.6477 50.9604 71.9225V74.2468L48.2697 70.079H46.4148V70.4225C46.5408 70.4569 46.6553 70.5027 46.7698 70.5599C46.8728 70.6172 46.9644 70.6973 47.0446 70.7889C47.1247 70.892 47.182 70.995 47.2163 71.121C47.2507 71.2584 47.2736 71.3958 47.2736 71.5332V74.4529C47.285 74.7277 47.2736 75.0139 47.2278 75.3002C47.2049 75.4376 47.1476 75.575 47.0446 75.678C46.953 75.7467 46.8499 75.7925 46.7469 75.8269C46.6438 75.8612 46.5408 75.8841 46.4377 75.8956V76.2276H48.556V75.8956C48.5189 75.8832 48.4803 75.8723 48.4414 75.8613C48.372 75.8418 48.3013 75.8218 48.2354 75.7925C48.1209 75.7582 48.0293 75.7009 47.9377 75.6208C47.8461 75.5063 47.7774 75.3574 47.7545 75.2086C47.7087 74.9452 47.6858 74.6704 47.6972 74.3956V71.5103L50.7658 76.2734H51.3841V71.8766C51.3841 71.6019 51.3955 71.3156 51.4413 71.0408C51.4642 70.892 51.5215 70.7546 51.6245 70.6401C51.7161 70.5485 51.8306 70.4912 51.9566 70.4683C52.0364 70.4523 52.1051 70.4419 52.1627 70.4332ZM58.5975 76.2391H55.9182V75.907C56.0671 75.8956 56.2159 75.8612 56.3533 75.8154C56.5251 75.7696 56.6052 75.7124 56.6052 75.6437V75.5635C56.5995 75.5464 56.5938 75.5263 56.5881 75.5063C56.5823 75.4863 56.5766 75.4662 56.5709 75.449L56.1472 74.1781H54.4412C54.4285 74.2204 54.4143 74.2658 54.399 74.3143L54.3988 74.3152L54.3986 74.3156L54.3986 74.3156L54.3986 74.3157L54.3985 74.316C54.3726 74.3984 54.3439 74.4899 54.3152 74.5903C54.2938 74.6655 54.2723 74.7356 54.252 74.8019L54.2519 74.8022L54.2517 74.8028L54.2517 74.8028C54.2288 74.8775 54.2075 74.9473 54.1893 75.014C54.155 75.1284 54.132 75.2429 54.1091 75.3689C54.0977 75.4147 54.0977 75.4719 54.0977 75.5177C54.1091 75.6208 54.1664 75.7124 54.2695 75.7582C54.4412 75.8383 54.6358 75.8841 54.8305 75.8956V76.2276H52.8039V75.8956C52.8955 75.8841 52.9756 75.8727 53.0558 75.8498C53.1359 75.8269 53.2161 75.7925 53.2848 75.7467C53.3764 75.678 53.468 75.5864 53.5252 75.4948C53.5939 75.3803 53.6512 75.2658 53.6855 75.1399C53.8172 74.7334 53.9517 74.327 54.0863 73.9205C54.2208 73.514 54.3553 73.1075 54.487 72.7011C54.7618 71.8881 55.0595 70.9836 55.3801 69.9989H56.0785C56.5365 71.3958 56.8915 72.495 57.1434 73.3079C57.301 73.8167 57.4497 74.2672 57.581 74.665C57.6595 74.9028 57.7318 75.1218 57.796 75.3231L57.796 75.3231L57.7961 75.3232L57.7961 75.3232L57.7961 75.3233L57.7961 75.3233L57.7962 75.3234L57.7962 75.3235L57.7962 75.3235C57.8305 75.4035 57.8648 75.4835 57.9105 75.5635C57.9678 75.6437 58.025 75.7124 58.1052 75.7696C58.1739 75.8154 58.254 75.8498 58.3342 75.8727C58.4031 75.8924 58.472 75.9036 58.5336 75.9136L58.5632 75.9185L58.5975 76.2391ZM56.0098 73.743L55.2999 71.5217L54.6015 73.743H56.0098ZM64.0591 73.8919C63.9675 73.7087 63.8416 73.5484 63.6927 73.411C63.5439 73.285 63.3721 73.182 63.2004 73.0904C63.0172 73.0217 62.834 72.9644 62.6393 72.9415V72.8614C62.8111 72.8156 62.9828 72.7469 63.1431 72.6667C63.292 72.598 63.4179 72.5064 63.5439 72.3919C63.6698 72.2774 63.7614 72.14 63.8301 71.9797C63.8988 71.808 63.9332 71.6134 63.9332 71.4302C63.9332 70.9836 63.7843 70.6401 63.4866 70.4111C63.1889 70.1821 62.708 70.0676 62.0325 70.0676H59.3532V70.4111C59.417 70.4202 59.4808 70.4366 59.5503 70.4544L59.6051 70.4684C59.6967 70.4913 59.7769 70.5142 59.857 70.56C59.9372 70.5943 60.0059 70.663 60.0402 70.7432C60.0631 70.8348 60.0746 70.9149 60.0746 71.0065V75.346C60.0746 75.4376 60.0631 75.5292 60.0288 75.6208C59.9944 75.701 59.9372 75.7582 59.857 75.7926C59.7883 75.8155 59.7082 75.8384 59.628 75.8498C59.5482 75.8658 59.4795 75.8762 59.4219 75.8849C59.3969 75.8887 59.374 75.8921 59.3532 75.8956V76.2277H61.9065C62.2271 76.2391 62.5477 76.2048 62.8683 76.1475C63.1202 76.0903 63.3721 75.9987 63.5897 75.8613C63.7843 75.7468 63.9332 75.5636 64.0362 75.3575C64.1507 75.117 64.208 74.8422 64.1965 74.5674C64.208 74.3384 64.1507 74.1094 64.0591 73.8919ZM62.3531 70.7661C62.5134 70.9951 62.605 71.2813 62.5821 71.5675C62.5935 71.8767 62.5019 72.1973 62.3187 72.4492C62.147 72.6667 61.8722 72.7812 61.4943 72.7812H61.3111V70.5027C61.3385 70.5027 61.3658 70.5001 61.3944 70.4974C61.4256 70.4944 61.4584 70.4913 61.4943 70.4913C61.563 70.4798 61.6203 70.4798 61.6661 70.4798C61.918 70.4569 62.1813 70.5714 62.3531 70.7661ZM62.5134 73.5369C62.7195 73.7659 62.8225 74.098 62.8225 74.5216C62.8225 74.9453 62.7424 75.2659 62.5706 75.5178C62.4103 75.7353 62.1584 75.8613 61.8951 75.8613C61.7462 75.8613 61.6088 75.8269 61.4943 75.7468C61.3913 75.6781 61.3226 75.5865 61.2997 75.472V73.2163C61.3139 73.2163 61.3321 73.2144 61.3534 73.2121C61.3834 73.2088 61.4198 73.2049 61.46 73.2049C61.5287 73.1934 61.5859 73.1934 61.6317 73.1934C62.021 73.1934 62.3073 73.3079 62.5134 73.5369ZM70.0818 74.2697L69.9902 76.2391H65.456V75.9071L65.4959 75.9014C65.5664 75.8916 65.6463 75.8804 65.7422 75.8613L65.757 75.8588C65.8222 75.8481 65.896 75.8359 65.9598 75.804C66.0399 75.7697 66.0972 75.7124 66.1315 75.6323C66.1659 75.5407 66.1888 75.4491 66.1773 75.3575V71.018C66.1773 70.9264 66.1659 70.8462 66.143 70.7546C66.1086 70.6745 66.0399 70.6058 65.9598 70.5714C65.8796 70.5256 65.788 70.4913 65.7079 70.4684C65.6564 70.4569 65.6106 70.4455 65.5705 70.4354L65.5704 70.4354C65.5304 70.4254 65.4961 70.4168 65.4674 70.4111V70.0676H68.1696V70.4111C68.1009 70.4226 68.0093 70.434 67.9063 70.4455C67.8147 70.4569 67.7345 70.4798 67.6429 70.5142C67.5628 70.5485 67.4941 70.6058 67.4597 70.6859C67.4254 70.7775 67.4139 70.8691 67.4139 70.9607V75.014C67.4139 75.1628 67.4254 75.3117 67.4483 75.4605C67.4597 75.5521 67.5055 75.6323 67.5742 75.701C67.6429 75.7582 67.7345 75.7926 67.8261 75.804C67.975 75.8269 68.1238 75.8269 68.2727 75.8269C68.4559 75.8269 68.6391 75.8155 68.8108 75.7811C68.9482 75.7697 69.0856 75.701 69.1887 75.5979C69.3375 75.4033 69.452 75.1972 69.5551 74.9796C69.6696 74.7392 69.7726 74.4987 69.8528 74.2468L70.0818 74.2697ZM75.1312 71.6477H75.3945L75.3831 70.0905H71.0207V70.434C71.1008 70.4455 71.181 70.4684 71.2611 70.4913C71.3527 70.5027 71.4328 70.5371 71.513 70.5829C71.5932 70.6172 71.6618 70.6859 71.6962 70.7661C71.7191 70.8577 71.7306 70.9378 71.7306 71.0294V75.3689C71.7306 75.4605 71.7191 75.5521 71.6847 75.6437C71.6504 75.7124 71.5932 75.7811 71.513 75.8155C71.4443 75.8384 71.3642 75.8613 71.284 75.8727C71.1695 75.8842 71.0894 75.8956 71.0207 75.9071V76.2391H75.6464L75.738 74.327H75.4861C75.406 74.556 75.3144 74.7735 75.2113 74.9796C75.1083 75.2086 74.9823 75.4262 74.8335 75.6323C74.7877 75.6895 74.719 75.7353 74.6503 75.7582C74.5587 75.7926 74.4671 75.8155 74.3755 75.8269L74.3474 75.8301C74.2555 75.8404 74.1714 75.8498 74.0778 75.8498H73.7915C73.6541 75.8613 73.5167 75.8498 73.3793 75.8269C73.2877 75.8155 73.2076 75.7811 73.1389 75.7239C73.0702 75.6552 73.0244 75.5636 73.0129 75.472C72.99 75.3231 72.9786 75.1743 72.9786 75.0254V73.2507H73.4824C73.6083 73.2507 73.7343 73.2622 73.8488 73.308C73.9633 73.3538 74.0549 73.4339 74.1236 73.5255C74.1923 73.64 74.2495 73.766 74.2839 73.9034C74.3297 74.0522 74.364 74.201 74.3869 74.3613H74.6503V71.7737H74.3869C74.364 71.9225 74.3297 72.0714 74.2839 72.2088C74.2495 72.3347 74.1923 72.4607 74.1236 72.5637C74.0434 72.6668 73.9518 72.7355 73.8373 72.7813C73.7343 72.8156 73.6083 72.8385 73.4938 72.8385H72.99V70.4684H73.6999C73.7355 70.4684 73.7756 70.4706 73.8202 70.4731C73.876 70.4763 73.939 70.4798 74.0091 70.4798C74.1007 70.4798 74.2037 70.4913 74.2953 70.5142C74.4556 70.56 74.6274 70.6974 74.7877 70.9378C74.9365 71.1554 75.051 71.3958 75.1312 71.6477ZM87.291 70.434C87.2223 70.4454 87.1421 70.4683 87.0734 70.4912C86.9933 70.5256 86.9246 70.5599 86.8559 70.6057C86.7643 70.6744 86.6841 70.7546 86.6269 70.8576C86.5811 70.9607 86.5353 71.0752 86.5009 71.1897C86.375 71.6248 86.1803 72.3347 85.917 73.2965C85.6536 74.2697 85.3788 75.2773 85.0926 76.3192H84.3941L83.1003 71.7507L81.921 76.3078H81.2225L81.1894 76.1882L81.1893 76.1878L81.1893 76.1876C80.8162 74.8381 80.5296 73.8012 80.3294 73.056C80.2836 72.8882 80.2396 72.726 80.1971 72.5696C80.0482 72.0218 79.9185 71.5447 79.8027 71.1439C79.7798 71.0179 79.7226 70.9034 79.6539 70.8004C79.5852 70.7202 79.5165 70.6515 79.4363 70.5828C79.3791 70.537 79.3104 70.4912 79.2417 70.4683C79.1615 70.4454 79.0814 70.4225 79.0012 70.4111V70.0676H81.6233V70.3996C81.5088 70.4111 81.3943 70.434 81.2798 70.4683C81.2225 70.4798 81.1538 70.5027 81.0966 70.537C81.0705 70.5457 81.0511 70.5675 81.0332 70.5875L81.0331 70.5877C81.0274 70.594 81.0219 70.6002 81.0164 70.6057C81.005 70.6286 81.005 70.6515 81.005 70.6744C81.005 70.7088 81.005 70.7546 81.0164 70.7889C81.0225 70.8072 81.0253 70.8287 81.0284 70.8517C81.0311 70.8719 81.0339 70.8934 81.0393 70.9149C81.0642 71.0143 81.0998 71.1504 81.1453 71.3242L81.146 71.3266C81.2052 71.5527 81.281 71.8422 81.3714 72.1973C81.4822 72.6038 81.6074 73.0724 81.75 73.6061L81.7515 73.6115L81.7557 73.6275C81.8324 73.9143 81.914 74.2198 82.0011 74.5445L83.1232 70.0561H83.856L85.1498 74.6819C85.3445 73.9377 85.4933 73.3308 85.6078 72.8614C85.6981 72.4914 85.7741 72.164 85.8415 71.8738L85.8418 71.8723L85.8941 71.6477C85.9103 71.5746 85.9251 71.5059 85.9389 71.4415C85.9642 71.3242 85.9864 71.2211 86.0086 71.1324C86.0296 71.0274 86.0409 70.9128 86.0515 70.8061L86.0544 70.7775C86.0544 70.7202 86.0315 70.663 85.9857 70.6172C85.9284 70.5714 85.8712 70.5256 85.8025 70.5027C85.7448 70.478 85.687 70.4651 85.625 70.4513L85.625 70.4513C85.6009 70.4459 85.5762 70.4404 85.5506 70.434C85.4475 70.4225 85.3559 70.4111 85.2872 70.3996V70.0561H87.2681V70.434H87.291ZM99.1988 70.766C99.4507 71.0637 99.6454 71.4072 99.7713 71.7736C99.9202 72.2087 99.9889 72.6552 99.9889 73.1132C99.9889 73.5483 99.9316 73.9834 99.8057 74.3956C99.7026 74.7734 99.5194 75.1284 99.2904 75.4375C99.0614 75.7352 98.7752 75.9757 98.4432 76.1474C98.0882 76.3192 97.6875 76.4108 97.2982 76.3993C96.9432 76.3993 96.5997 76.3306 96.2791 76.1818C95.9585 76.0329 95.6723 75.8154 95.4318 75.5406C95.1799 75.2429 94.9853 74.9108 94.8593 74.533C94.7105 74.1094 94.6418 73.6628 94.6532 73.2163C94.6418 72.7468 94.7219 72.2888 94.8593 71.8423C94.9853 71.4644 95.1799 71.098 95.4318 70.7889C95.6608 70.5141 95.9471 70.2851 96.2791 70.1248C96.9432 69.8156 97.6989 69.8156 98.363 70.1133C98.6721 70.2851 98.9584 70.5026 99.1988 70.766ZM98.3058 75.1742C98.4203 74.8879 98.489 74.5903 98.5348 74.2811C98.5806 73.9033 98.6034 73.5254 98.6034 73.1476C98.6034 72.8041 98.5806 72.4491 98.5462 72.1056C98.5118 71.7965 98.4432 71.4988 98.3401 71.2011C98.26 70.9606 98.1226 70.7431 97.9394 70.5713C97.7791 70.411 97.5501 70.3309 97.3211 70.3309C96.9089 70.3309 96.5883 70.5828 96.3707 71.0751C96.1532 71.5675 96.0501 72.2774 96.0387 73.1819C96.0387 73.5483 96.0616 73.9147 96.1074 74.2697C96.1417 74.5788 96.2219 74.8765 96.3364 75.1627C96.4165 75.3917 96.5539 75.5978 96.7257 75.7696C96.886 75.9184 97.1035 75.9871 97.3211 75.9871C97.5386 75.9871 97.7447 75.9184 97.9165 75.7696C98.0882 75.6093 98.2256 75.4032 98.3058 75.1742ZM105.725 76.2391L105.817 74.2697L105.588 74.2468C105.508 74.4987 105.405 74.7392 105.29 74.9796C105.187 75.1972 105.073 75.4033 104.924 75.5979C104.821 75.701 104.683 75.7697 104.546 75.7811C104.374 75.8155 104.191 75.8269 104.008 75.8269C103.859 75.8269 103.71 75.8269 103.561 75.804C103.47 75.7926 103.378 75.7582 103.309 75.701C103.241 75.6323 103.195 75.5521 103.183 75.4605C103.161 75.3117 103.149 75.1628 103.149 75.014V70.9607C103.149 70.8691 103.161 70.7775 103.195 70.6859C103.229 70.6058 103.298 70.5485 103.378 70.5142C103.47 70.4798 103.55 70.4569 103.641 70.4455C103.744 70.434 103.836 70.4226 103.905 70.4111V70.0676H101.203V70.4111C101.231 70.4168 101.266 70.4254 101.306 70.4354C101.346 70.4455 101.392 70.4569 101.443 70.4684C101.523 70.4913 101.615 70.5256 101.695 70.5714C101.775 70.6058 101.844 70.6745 101.878 70.7546C101.901 70.8462 101.912 70.9264 101.912 71.018V75.3575C101.924 75.4491 101.901 75.5407 101.867 75.6323C101.832 75.7124 101.775 75.7697 101.695 75.804C101.631 75.8359 101.557 75.8481 101.492 75.8588L101.477 75.8613C101.381 75.8804 101.302 75.8916 101.231 75.9014C101.217 75.9033 101.204 75.9052 101.191 75.9071V76.2391H105.725Z" fill="#C7C9C7"/>
</svg>
