<svg width="120" height="120" viewBox="0 0 120 120" fill="none" xmlns="http://www.w3.org/2000/svg">
<path d="M86.9902 24.0408C86.8034 23.9785 86.629 23.9287 86.4422 23.8539C85.5329 23.5301 84.6362 23.1938 83.727 22.8824C82.7181 22.5337 81.7217 22.2099 80.7128 21.886C80.4637 21.8113 80.2146 21.7615 79.9655 21.6867C79.6168 21.5871 79.2805 21.4875 78.9442 21.4003C78.3214 21.2384 77.6862 21.1014 77.0635 20.9519C76.8766 20.9021 76.7023 20.8647 76.5154 20.8149C75.8678 20.6779 75.2201 20.5409 74.56 20.4163C74.0742 20.3167 73.5885 20.2295 73.0903 20.1548C72.5672 20.0676 72.0441 20.0053 71.521 19.943C70.8733 19.8683 70.2381 19.806 69.5904 19.7438C69.4783 19.7313 69.3662 19.7188 69.2666 19.7188C68.3075 19.6939 67.361 19.669 66.4019 19.669C65.8913 19.669 65.3806 19.6815 64.8824 19.7313C63.8362 19.8434 62.7775 19.9181 61.7562 20.1423C61.1334 20.2793 60.5107 20.3914 59.9004 20.5658C59.2029 20.7651 58.5054 21.0017 57.8079 21.2384C56.936 21.5248 56.114 21.9483 55.2795 22.3469C53.9095 23.0194 52.664 23.8788 51.4434 24.7756C51.2939 24.8877 51.1569 25.0247 51.0074 25.1368C50.7708 25.3112 50.5092 25.4731 50.285 25.6599C49.9737 25.9215 49.6747 26.1955 49.3758 26.4695C48.9523 26.8805 48.5289 27.2791 48.1428 27.7275C47.4702 28.4872 46.8101 29.2594 46.1749 30.0441C45.714 30.6046 45.2781 31.19 44.8671 31.7754C44.3315 32.5476 43.8208 33.3447 43.3226 34.1418C42.9365 34.7521 42.5629 35.3749 42.1892 35.9976C41.8031 36.6702 41.4045 37.3428 41.0434 38.0154C40.3459 39.2982 39.6608 40.5811 38.9758 41.8765C38.4776 42.823 37.9919 43.7821 37.4937 44.7287C37.0204 45.6254 36.5471 46.5222 36.0738 47.419C35.8247 47.8923 35.5631 48.3531 35.3016 48.8264C34.7037 49.8602 34.1183 50.8939 33.4956 51.9153C33.0098 52.7124 32.4867 53.4846 31.9511 54.2568C31.4654 54.9418 30.9547 55.6269 30.4316 56.287C29.921 56.9347 29.3729 57.545 28.7751 58.1179C28.3765 58.4915 28.0527 58.9399 27.6417 59.3011C27.1684 59.7246 26.6577 60.1107 26.1595 60.4968C25.9478 60.6587 25.7236 60.7957 25.4869 60.9576C25.4371 60.8954 25.3873 60.858 25.3624 60.8082C25.1507 60.2353 24.9389 59.6748 24.7521 59.1018C24.5653 58.5538 24.3909 58.0058 24.229 57.4578C23.9923 56.6108 23.7432 55.7639 23.6062 54.8796C23.5564 54.5433 23.4568 54.2194 23.3945 53.8956C23.3198 53.5469 23.2575 53.1981 23.2077 52.8369C23.0956 51.9402 22.9835 51.0434 22.9212 50.1342C22.8091 48.7641 22.7593 47.3941 22.834 46.0115C22.8589 45.5756 22.8714 45.1397 22.9087 44.7038C22.9586 44.081 23.0333 43.4582 23.108 42.8355C23.1329 42.6487 23.1578 42.4618 23.1828 42.275C23.2699 41.5153 23.4069 40.7679 23.5938 40.0206C23.656 39.784 23.6934 39.5598 23.7308 39.3232C23.8802 38.4638 24.1293 37.6417 24.3909 36.8197C24.503 36.446 24.6151 36.0848 24.7396 35.7112C25.0137 34.9265 25.3001 34.1418 25.624 33.3696C25.9353 32.6099 26.2841 31.8626 26.6577 31.1277C27.0065 30.4302 27.4175 29.7701 27.7538 29.0726C27.9904 28.562 28.2769 28.0762 28.5509 27.5905C28.6381 27.441 28.7377 27.3165 28.8374 27.1794C29.0989 26.8058 29.348 26.4197 29.622 26.0585C29.8462 25.7596 30.0953 25.4856 30.3444 25.1866C30.9049 24.5141 31.4405 23.829 32.0134 23.1689C32.4369 22.6832 32.8853 22.2223 33.3461 21.7615C33.782 21.3256 34.2304 20.9021 34.6913 20.4911C35.6129 19.6566 36.5595 18.847 37.5684 18.137C38.3904 17.5641 39.2125 16.9787 40.0594 16.4432C40.7569 15.9948 41.5042 15.6087 42.2266 15.2101C42.8369 14.8863 43.4596 14.5624 44.0948 14.276C44.8546 13.9397 45.6144 13.6034 46.399 13.3418C46.8972 13.1799 47.383 12.9682 47.8687 12.7814C48.068 12.7066 48.2922 12.6568 48.4915 12.5945C48.9897 12.4451 49.4754 12.2956 49.9737 12.1711C50.4345 12.0465 50.9078 11.9593 51.3686 11.8597C51.68 11.7974 51.9914 11.7227 52.2903 11.6604C52.7387 11.5857 53.1995 11.5109 53.6479 11.4487C54.3205 11.349 55.0055 11.2369 55.6905 11.1622C56.0144 11.1248 56.3507 11.1622 56.6745 11.1124C58.1442 10.9256 59.6139 11.0252 61.0836 11.0376C61.7188 11.0376 62.354 11.1497 62.9768 11.2245C63.2383 11.2494 63.4874 11.2867 63.749 11.3241C64.5959 11.4238 65.4429 11.5483 66.2898 11.7102C66.8503 11.8223 67.4108 11.9469 67.9588 12.1212C68.3823 12.2582 68.8182 12.333 69.2541 12.4575C69.6153 12.5572 69.989 12.6444 70.3377 12.7689C71.1722 13.0678 72.0192 13.3792 72.8412 13.7155C73.5262 13.9895 74.2113 14.3009 74.8838 14.6123C76.0297 15.1354 77.1257 15.7581 78.1969 16.4182C78.994 16.904 79.7538 17.452 80.5135 17.9876C81.074 18.3862 81.6096 18.8096 82.1451 19.2331C82.9298 19.8683 83.6896 20.5284 84.412 21.2508C84.8977 21.7366 85.3835 22.2223 85.8568 22.7205C86.2553 23.144 86.629 23.5924 87.0151 24.0283C87.0151 24.0034 87.0026 24.0159 86.9902 24.0408Z" fill="black"/>
<path d="M95.5717 47.2446C95.5717 47.9421 95.6091 48.5897 95.5593 49.225C95.5095 50.0719 95.3725 50.9064 95.3102 51.7409C95.2479 52.4633 95.0984 53.1732 94.9988 53.8956C94.9116 54.4685 94.7995 55.029 94.675 55.5895C94.5753 56.0503 94.4508 56.4987 94.3138 56.9471C94.0896 57.7193 93.8654 58.4915 93.6038 59.2513C93.3298 60.036 93.0309 60.8206 92.7071 61.5929C92.4206 62.2903 92.0843 62.9629 91.748 63.648C91.5363 64.0839 91.3121 64.5198 91.0755 64.9433C90.9634 65.155 90.8139 65.3418 90.6893 65.5411C90.2534 66.2386 89.8299 66.9486 89.3691 67.6336C88.8958 68.3186 88.3851 68.9787 87.8869 69.6513C87.2891 70.4733 86.6165 71.2331 85.9315 71.9804C84.9974 72.9893 84.0134 73.9608 82.9423 74.8451C82.3195 75.3682 81.6843 75.8788 81.0616 76.3895C80.8249 76.5888 80.5634 76.7507 80.3142 76.9375C79.8908 77.2364 79.4798 77.5354 79.0438 77.8094C78.1844 78.3325 77.3126 78.8556 76.4283 79.3538C75.9923 79.6029 75.544 79.8396 75.0831 80.0513C74.1614 80.4748 73.2522 80.9107 72.3056 81.2719C71.4213 81.6082 70.537 81.9818 69.6029 82.1811C69.2541 82.2559 68.9303 82.3929 68.5816 82.4925C68.4321 82.5423 68.2702 82.5672 68.1207 82.5921C68.0834 82.6046 68.046 82.5921 68.0086 82.6046C67.6972 82.6918 67.3859 82.779 67.062 82.8661C66.788 82.9284 66.5265 82.9907 66.2525 83.053C65.555 83.2024 64.845 83.2772 64.1351 83.3893C62.8647 83.5885 61.5818 83.6633 60.2989 83.7131C59.7384 83.738 59.1655 83.7754 58.605 83.7505C57.9075 83.7255 57.2101 83.6633 56.525 83.6135C55.9895 83.5761 55.4539 83.5263 54.9183 83.464C54.4326 83.4017 53.9593 83.3145 53.4735 83.2523C53.3614 83.2398 53.2618 83.2273 53.1497 83.2149C52.4647 83.1526 51.8046 82.9658 51.1444 82.8039C50.8953 82.7416 50.6462 82.7042 50.3971 82.642C49.9861 82.5423 49.5626 82.4427 49.1641 82.3306C48.6783 82.1936 48.1926 82.0441 47.7193 81.8822C46.7478 81.5459 45.7887 81.2096 44.8546 80.7737C44.0699 80.4125 43.2728 80.0762 42.5131 79.6776C41.6537 79.2293 40.8192 78.756 39.9971 78.2578C39.3246 77.8467 38.6893 77.3984 37.9919 76.9251C38.104 76.9002 38.1538 76.8753 38.2036 76.8753C39.0505 76.8877 39.8975 76.8254 40.732 76.7009C41.3049 76.6137 41.8778 76.5763 42.4508 76.4891C42.7746 76.4393 43.0984 76.3646 43.4098 76.3023C43.7337 76.24 44.0575 76.1778 44.3689 76.103C44.8172 76.0034 45.2781 75.8913 45.7265 75.7667C46.1624 75.6422 46.6108 75.5176 47.0343 75.3682C47.7442 75.1191 48.4417 74.8451 49.1392 74.5586C49.7246 74.322 50.3099 74.0729 50.8953 73.8113C51.3313 73.612 51.7547 73.4003 52.1657 73.1636C52.801 72.8024 53.4486 72.4537 54.0714 72.0551C54.9806 71.4822 55.8774 70.8968 56.7492 70.2741C57.5214 69.7385 58.2563 69.1406 59.0036 68.5677C59.589 68.1193 60.1744 67.6709 60.7348 67.2101C61.3701 66.687 61.9804 66.1265 62.6156 65.6034C62.8771 65.3792 63.176 65.1924 63.4376 64.9806C63.886 64.5945 64.3344 64.196 64.7703 63.7974C65.144 63.4736 65.5176 63.1373 65.8913 62.8135C66.4766 62.3028 67.0994 61.8295 67.6225 61.269C68.3947 60.447 69.279 59.762 70.126 59.0271C70.7114 58.5165 71.3217 58.0058 71.9195 57.5076C72.5298 57.0094 73.1401 56.5236 73.7753 56.0628C74.7717 55.3404 75.7931 54.6429 76.8019 53.9579C77.3998 53.5469 78.0101 53.1608 78.6328 52.7871C79.131 52.4882 79.6541 52.2142 80.1648 51.9277C80.4637 51.7658 80.7626 51.579 81.074 51.4295C81.8338 51.0559 82.606 50.6822 83.3782 50.3335C84.0134 50.047 84.6486 49.7854 85.2963 49.5239C85.6824 49.3744 86.081 49.2499 86.4795 49.1253C87.1272 48.9136 87.7748 48.6894 88.435 48.5026C89.1075 48.3157 89.805 48.1538 90.4901 48.0044C91.1253 47.8673 91.7729 47.7303 92.4206 47.6183C93.3796 47.4439 94.3387 47.3069 95.3102 47.2446C95.3725 47.2446 95.4596 47.2446 95.5717 47.2446Z" fill="black"/>
<path d="M27.5545 65.2547C27.7289 65.1675 27.8908 65.0554 28.0776 64.9931C28.9744 64.6568 29.8338 64.2458 30.6558 63.7725C31.3035 63.3988 31.9138 62.9878 32.5241 62.5644C33.0846 62.1658 33.6201 61.7423 34.1557 61.3188C34.8034 60.7957 35.4261 60.2353 35.999 59.625C36.709 58.8777 37.4065 58.1179 38.0915 57.3457C38.9384 56.3866 39.6982 55.3778 40.4455 54.344C41.0434 53.522 41.6537 52.7124 42.2266 51.8779C42.9988 50.7445 43.7337 49.5986 44.4934 48.4527C44.8048 47.9919 45.1162 47.5311 45.4275 47.0702C45.714 46.6468 45.9756 46.2233 46.262 45.7998C46.6855 45.1646 47.109 44.5294 47.5449 43.8942C48.0556 43.1593 48.5538 42.412 49.0769 41.6896C49.5253 41.0669 49.9986 40.469 50.4719 39.8587C50.9202 39.2733 51.3686 38.7004 51.8295 38.1275C52.3028 37.5545 52.801 36.9941 53.2867 36.4336C53.5732 36.1222 53.8846 35.8233 54.1835 35.5119C54.4575 35.2379 54.719 34.9514 54.9931 34.6899C55.4539 34.2539 55.9147 33.818 56.388 33.3945C57.1852 32.697 58.0196 32.0369 58.8915 31.4266C60.137 30.5672 61.4199 29.7826 62.8024 29.1473C63.4999 28.8235 64.1849 28.5121 64.8949 28.2257C65.4429 28.0139 66.0283 27.8645 66.5887 27.6776C66.6635 27.6527 66.7382 27.6154 66.8129 27.5905C67.2364 27.4784 67.6474 27.3663 68.0709 27.2542C68.6065 27.1172 69.1296 26.9926 69.6651 26.8805C69.8271 26.8432 70.0014 26.8556 70.1634 26.8307C71.0477 26.6688 71.9444 26.6439 72.8287 26.5318C74.1116 26.3823 75.3945 26.4321 76.6774 26.4446C77.2627 26.4446 77.8481 26.5318 78.4335 26.5691C78.8321 26.5941 79.2307 26.619 79.6292 26.6563C79.9904 26.6937 80.3641 26.756 80.7253 26.7809C81.4601 26.8432 82.1825 27.0051 82.9049 27.1296C83.3782 27.2168 83.839 27.3289 84.3123 27.3912C84.7234 27.441 85.1095 27.5531 85.4956 27.6403C86.2304 27.8271 86.9653 27.9766 87.7001 28.1509C88.2855 28.3004 88.8584 28.4748 89.4438 28.6367C89.7428 28.7239 90.0417 28.7861 90.3406 28.8733C90.5274 28.9232 90.6769 29.0103 90.7765 29.1972C91.4117 30.3181 91.9847 31.4515 92.5078 32.6223C92.5327 32.6846 92.5452 32.7469 92.5825 32.859C92.0594 32.7344 91.5737 32.6099 91.0755 32.5227C90.378 32.3981 89.668 32.2985 88.9581 32.1739C88.4723 32.0992 87.9741 32.012 87.4884 31.9248C87.4386 31.9124 87.3887 31.8999 87.3389 31.8999C84.6237 31.5387 81.896 31.5138 79.1684 31.601C78.4834 31.6259 77.7983 31.7006 77.1133 31.7754C76.6151 31.8376 76.1169 31.9497 75.6187 32.0369C75.2326 32.0992 74.834 32.149 74.4479 32.2362C73.8002 32.3857 73.165 32.56 72.5174 32.722C71.384 33.0084 70.3004 33.3945 69.2292 33.8554C68.8057 34.0297 68.3823 34.1917 67.9713 34.3909C67.6723 34.5279 67.4108 34.7148 67.1243 34.8767C66.5887 35.1756 66.0407 35.4496 65.5176 35.761C64.297 36.4834 63.1387 37.293 62.0053 38.1648C61.0836 38.8872 60.1868 39.647 59.3274 40.4441C58.6299 41.1042 57.9574 41.8017 57.2848 42.4867C56.7119 43.0846 56.1389 43.7074 55.5909 44.3176C55.1923 44.766 54.7938 45.2393 54.4077 45.7002C53.897 46.3105 53.3863 46.9208 52.9006 47.5311C52.2654 48.3282 51.6426 49.1253 51.0199 49.9224C50.5217 50.5577 50.011 51.2053 49.5128 51.8405C48.8402 52.6999 48.1677 53.5593 47.4951 54.4187C47.0592 54.9668 46.5983 55.5148 46.1499 56.0503C45.7016 56.5859 45.2532 57.1339 44.7799 57.6695C44.1696 58.3545 43.5344 59.0147 42.9241 59.6872C42.1643 60.5217 41.3423 61.2815 40.5078 62.0288C39.9349 62.5394 39.3121 63.0003 38.7018 63.486C37.9545 64.0963 37.1325 64.607 36.3229 65.1177C36.2606 65.155 36.2108 65.2048 36.136 65.2173C35.7749 65.2671 35.5133 65.5038 35.1895 65.6532C34.8158 65.8276 34.4422 66.0144 34.056 66.1888C33.9938 66.2137 33.9315 66.2511 33.8692 66.2884C33.4956 66.5126 33.0721 66.6496 32.6611 66.7866C32.4743 66.8489 32.2999 66.9486 32.1131 67.0108C31.6273 67.1727 31.1291 67.3222 30.6309 67.4717C30.2822 67.5713 29.921 67.6585 29.5722 67.7581C29.5099 67.7706 29.4352 67.783 29.3729 67.7955C29.1737 67.8453 29.0366 67.7581 28.9246 67.5838C28.6879 67.1977 28.4388 66.8115 28.1897 66.4254C28.0527 66.2137 27.9157 66.002 27.8534 65.7404C27.841 65.6159 27.6666 65.4415 27.5545 65.2547Z" fill="black"/>
<path d="M31.702 71.2206C32.1878 71.1459 32.6237 71.0836 33.0472 71.0089C33.7073 70.8844 34.355 70.7723 35.0026 70.6353C35.3638 70.5605 35.7126 70.4733 36.0738 70.3737C36.5595 70.2367 37.0453 70.0872 37.531 69.9378C38.378 69.6762 39.2 69.315 40.022 68.9538C40.5701 68.7172 41.0932 68.4307 41.6038 68.1442C42.3387 67.7332 43.0735 67.2973 43.7835 66.8489C44.4311 66.4254 45.0539 65.9646 45.6891 65.5162C45.9257 65.3543 46.2122 65.2297 46.4364 65.0429C47.3332 64.2832 48.2424 63.5109 49.1143 62.7263C49.8117 62.0911 50.4843 61.4185 51.1444 60.7584C51.817 60.0858 52.4647 59.4132 53.1123 58.7282C53.8596 57.9311 54.6069 57.1339 55.3543 56.3368C55.7902 55.8635 56.2136 55.3778 56.6496 54.892C57.4218 54.0575 58.194 53.2106 58.9911 52.3885C59.8505 51.4918 60.7099 50.6075 61.5942 49.7232C62.3416 48.9759 63.0889 48.241 63.8735 47.5435C64.708 46.8087 65.5799 46.1112 66.4393 45.4137C66.8129 45.1023 67.2364 44.8408 67.5851 44.5045C68.0086 44.1059 68.4819 43.7945 68.9552 43.4707C69.5032 43.097 70.0637 42.7359 70.6491 42.412C71.4587 41.9512 72.2807 41.5153 73.1028 41.0793C73.875 40.6559 74.697 40.3071 75.519 39.9957C76.4158 39.647 77.3126 39.3107 78.2467 39.0616C78.7947 38.9121 79.3428 38.7627 79.8908 38.6257C80.3765 38.5136 80.8623 38.4139 81.348 38.3143C82.0455 38.1773 82.7305 38.0527 83.428 37.9282C83.4654 37.9157 83.5028 37.9157 83.5526 37.9157C84.5116 37.841 85.4707 37.7912 86.4297 37.6915C87.5507 37.567 88.6841 37.6044 89.805 37.6168C90.6644 37.6293 91.5114 37.704 92.3708 37.7663C92.9437 37.8036 93.5166 37.8659 94.0896 37.9157C94.3387 37.9406 94.3636 37.9656 94.4259 38.2022C94.5629 38.7378 94.7123 39.2733 94.8244 39.8214C94.9614 40.4815 95.0611 41.1541 95.1732 41.8142C95.1732 41.8391 95.1607 41.8764 95.1607 41.9263C95.086 41.9387 95.0113 41.9512 94.9365 41.9512C94.4508 41.9512 93.965 41.9387 93.4668 41.9512C92.6074 41.9885 91.7356 42.0508 90.8762 42.1006C90.8388 42.1006 90.8014 42.1131 90.7516 42.1131C89.9296 42.1006 89.1325 42.2376 88.3229 42.3373C87.7499 42.412 87.1895 42.5366 86.6165 42.6362C86.2553 42.6985 85.8941 42.7608 85.5329 42.8355C85.0223 42.9476 84.4992 43.0597 84.001 43.1842C83.3159 43.3586 82.6184 43.5579 81.9334 43.7572C81.6968 43.8194 81.4726 43.9191 81.2359 44.0187C80.6381 44.2554 80.0278 44.4796 79.4299 44.7162C78.72 45.0027 78.0225 45.3016 77.3375 45.6254C76.8642 45.8496 76.4034 46.0987 75.9425 46.3603C75.2575 46.7464 74.56 47.145 73.8874 47.556C73.3394 47.8923 72.8038 48.2535 72.2683 48.6147C71.7202 48.9883 71.1847 49.3495 70.6616 49.7481C70.0014 50.2463 69.3538 50.7569 68.7061 51.2676C68.4321 51.4793 68.1705 51.7035 67.909 51.9402C67.5852 52.2266 67.2862 52.5131 66.9749 52.812C66.7756 52.9988 66.5638 53.1857 66.3521 53.3725C65.829 53.8333 65.3059 54.2942 64.8077 54.7675C64.2098 55.3279 63.612 55.9009 63.0266 56.4738C62.3914 57.0841 61.7562 57.7069 61.121 58.3172C60.5107 58.915 59.9004 59.5129 59.2901 60.1107C58.6673 60.7085 58.0446 61.3064 57.4218 61.9042C56.936 62.3651 56.4503 62.8384 55.9521 63.2868C55.2172 63.9469 54.5073 64.6568 53.7102 65.2422C52.6266 66.0518 51.6053 66.9361 50.5092 67.7083C49.6125 68.3311 48.7281 68.9663 47.7691 69.5018C47.2086 69.8132 46.6731 70.1371 46.1126 70.4484C45.8884 70.573 45.6517 70.6602 45.4151 70.7723C45.3777 70.7847 45.3404 70.7972 45.303 70.8221C44.6927 71.2206 43.9952 71.4324 43.3351 71.7313C42.9614 71.9057 42.5629 72.0427 42.1643 72.1797C41.6038 72.3541 41.0434 72.5284 40.4829 72.6779C39.885 72.8398 39.2872 72.9644 38.6893 73.1138C37.668 73.3629 36.6218 73.4626 35.5631 73.5497C35.1272 73.5871 34.6913 73.612 34.2553 73.6494C34.1059 73.6618 33.9813 73.612 33.8817 73.5124C33.371 72.9893 32.8604 72.4537 32.3497 71.9306C32.1255 71.6815 31.9262 71.4697 31.702 71.2206Z" fill="black"/>
<path d="M51.6551 104.538C52.228 105.086 52.8134 105.634 53.3739 106.182C53.9468 106.743 54.5073 107.315 55.0802 107.876C55.6532 108.436 56.2136 108.997 56.8364 109.607C56.6994 109.62 56.6247 109.645 56.5499 109.645C55.5286 109.645 54.4949 109.645 53.4735 109.645C53.3241 109.645 53.212 109.595 53.0999 109.495C52.6141 108.997 52.1159 108.511 51.6177 108.025C50.858 107.266 50.0857 106.493 49.326 105.721C49.2263 105.622 49.1267 105.522 49.0271 105.422C48.7032 105.123 48.367 104.824 48.0307 104.538C47.9808 104.488 47.9061 104.451 47.8563 104.451C47.3083 104.438 46.7602 104.451 46.1998 104.451C46.1873 104.575 46.1749 104.675 46.1749 104.762C46.1749 106.269 46.1749 107.764 46.1749 109.271C46.1749 109.333 46.1749 109.395 46.1749 109.445C46.1749 109.582 46.1001 109.645 45.9631 109.645C45.3777 109.645 44.7799 109.682 44.2069 109.632C43.497 109.57 42.8369 109.022 42.6501 108.225C42.6002 108.013 42.5753 107.789 42.5753 107.577C42.5753 104.301 42.5753 101.026 42.5753 97.75C42.5753 97.3016 42.5753 97.3016 43.0113 97.2891C46.0752 97.2767 49.1516 97.2518 52.2156 97.2518C52.9878 97.2518 53.7725 97.339 54.5198 97.5507C55.3792 97.7998 56.114 98.2482 56.525 99.1076C56.662 99.419 56.7741 99.7303 56.8115 100.079C56.8489 100.503 56.8862 100.926 56.824 101.362C56.6994 102.259 56.251 102.944 55.5162 103.442C54.6443 104.027 53.6479 104.252 52.6266 104.351C52.3152 104.376 52.0038 104.426 51.6925 104.463C51.68 104.488 51.6675 104.513 51.6551 104.538ZM46.1998 102.62C46.3617 102.62 46.4738 102.62 46.5983 102.62C48.1801 102.62 49.7619 102.62 51.3437 102.62C51.4683 102.62 51.5804 102.62 51.7049 102.607C52.7262 102.47 53.5358 101.487 53.1871 100.303C53.0002 99.6681 52.3526 99.0578 51.406 99.0702C49.7868 99.0827 48.1552 99.0702 46.5361 99.0702C46.424 99.0702 46.3243 99.0827 46.1998 99.0951C46.1998 100.266 46.1998 101.424 46.1998 102.62Z" fill="black"/>
<path d="M79.3801 104.463C79.3677 104.6 79.3552 104.725 79.3552 104.837C79.3552 105.161 79.3552 105.472 79.3552 105.796C79.3428 106.493 79.5545 106.942 80.3765 107.353C81.1986 107.751 82.0829 107.864 82.9796 107.864C85.1966 107.864 87.4261 107.864 89.6431 107.864C89.7054 107.864 89.7677 107.864 89.8175 107.864C89.9669 107.864 90.0292 107.938 90.0292 108.088C90.0292 108.549 90.0292 109.009 90.0292 109.458C90.0292 109.508 90.0043 109.545 89.9919 109.607C89.9171 109.62 89.8424 109.632 89.7801 109.632C87.0275 109.632 84.2874 109.657 81.5349 109.607C80.6132 109.595 79.6915 109.495 78.7947 109.258C78.2218 109.109 77.6738 108.935 77.1631 108.623C76.2663 108.075 75.7432 107.303 75.7432 106.232C75.7308 104.65 75.7557 103.068 75.7557 101.487C75.7557 100.428 75.7557 99.3816 75.7557 98.3229C75.7557 98.0489 75.7806 97.7873 75.7931 97.5133C75.8055 97.3265 75.8429 97.3016 76.0297 97.2891C76.1543 97.2767 76.2913 97.2767 76.4158 97.2767C80.8125 97.2767 85.2216 97.2767 89.6182 97.2767C89.6929 97.2767 89.7801 97.2767 89.8549 97.2891C89.9545 97.3016 90.0168 97.3639 90.0168 97.4635C90.0168 97.9742 90.0168 98.4973 90.0168 99.0578C89.8673 99.0578 89.7428 99.0578 89.6182 99.0578C86.355 99.0578 83.0793 99.0578 79.816 99.0578C79.3552 99.0578 79.3428 98.9955 79.3552 99.5311C79.3552 100.403 79.3552 101.262 79.3552 102.134C79.3552 102.209 79.3552 102.296 79.3552 102.371C79.3677 102.558 79.405 102.595 79.5919 102.607C79.679 102.62 79.7662 102.607 79.8659 102.607C83.0917 102.607 86.3176 102.607 89.5435 102.607C90.0168 102.607 90.0292 102.545 90.0292 103.093C90.0292 103.417 90.0292 103.728 90.0292 104.052C90.0292 104.401 90.0043 104.426 89.6556 104.426C86.7037 104.426 83.7643 104.426 80.8125 104.426C80.4014 104.426 79.9904 104.426 79.5919 104.426C79.5296 104.438 79.4798 104.451 79.3801 104.463Z" fill="black"/>
<path d="M39.3993 109.632C39.3245 109.632 39.2498 109.645 39.1751 109.645C36.4474 109.645 33.7198 109.657 30.9921 109.632C30.1451 109.62 29.2733 109.545 28.4513 109.346C27.679 109.146 26.9068 108.897 26.2716 108.374C25.6613 107.888 25.3001 107.253 25.2503 106.469C25.2254 106.107 25.2378 105.734 25.2503 105.36C25.2503 103.218 25.2628 101.075 25.2628 98.9332C25.2628 98.4848 25.2628 98.0365 25.2752 97.5881C25.2752 97.3265 25.3126 97.3016 25.5741 97.2891C25.7983 97.2767 26.035 97.2891 26.2592 97.2891C30.3569 97.2891 34.4546 97.2891 38.5399 97.2891C38.7641 97.2891 38.9758 97.2891 39.2 97.2891C39.4242 97.3016 39.474 97.339 39.474 97.5507C39.4865 97.9742 39.4865 98.4101 39.474 98.8336C39.474 99.0329 39.4366 99.0578 39.2498 99.0578C39.1751 99.0578 39.1128 99.0578 39.0381 99.0578C35.7375 99.0578 32.4369 99.0578 29.1487 99.0578C29.0989 99.0578 29.0491 99.0578 28.9993 99.0578C28.8125 99.0702 28.7751 99.0951 28.7626 99.2944C28.7502 99.5809 28.7626 99.8673 28.7626 100.166C28.7626 100.851 28.7626 101.536 28.7626 102.234C28.7626 102.62 28.7751 102.632 29.1737 102.632C32.3995 102.632 35.6254 102.632 38.8513 102.632C38.9758 102.632 39.1128 102.632 39.2374 102.632C39.3868 102.632 39.474 102.695 39.474 102.832C39.474 103.305 39.474 103.766 39.474 104.239C39.474 104.376 39.3744 104.451 39.2374 104.438C39.1875 104.438 39.1377 104.438 39.0879 104.438C35.7748 104.438 32.4743 104.438 29.1612 104.438C29.1363 104.438 29.1238 104.438 29.0989 104.438C28.7751 104.438 28.7626 104.451 28.7626 104.775C28.7626 105.111 28.7751 105.447 28.7626 105.796C28.7253 106.568 29.1114 107.054 29.7715 107.353C30.3818 107.627 31.017 107.801 31.6896 107.826C32.1255 107.839 32.5614 107.864 32.9974 107.864C35.0151 107.864 37.0453 107.864 39.063 107.864C39.1253 107.864 39.1875 107.864 39.2374 107.864C39.3868 107.864 39.4616 107.926 39.4616 108.075C39.4616 108.549 39.4616 109.034 39.4491 109.508C39.4366 109.545 39.4242 109.57 39.3993 109.632Z" fill="black"/>
<path d="M8.01246 97.3141C8.32383 97.2891 8.6103 97.2518 8.89677 97.2393C11.3131 97.2269 13.7418 97.2269 16.1581 97.2269C16.5566 97.2269 16.9552 97.2269 17.3538 97.2269C18.1634 97.2144 18.9605 97.3514 19.7452 97.5507C20.4053 97.7126 21.0405 97.9866 21.5511 98.4724C22.0244 98.9083 22.286 99.4314 22.2735 100.079C22.2735 101.2 22.2735 102.309 22.2735 103.43C22.2735 103.99 22.1241 104.526 21.7504 104.949C21.5636 105.161 21.302 105.323 21.0529 105.472C20.2683 105.933 19.3964 106.095 18.4996 106.095C16.3574 106.095 14.2151 106.095 12.0728 106.095C11.5746 106.095 11.5746 106.095 11.5746 106.581C11.5746 107.477 11.5746 108.374 11.5746 109.271C11.5746 109.383 11.5746 109.483 11.5746 109.62C11.4625 109.632 11.3753 109.645 11.2881 109.645C10.7152 109.645 10.1298 109.657 9.55689 109.645C8.88431 109.632 8.32383 109.196 8.1121 108.598C8.02491 108.362 8 108.138 8 107.901C8 104.513 8 101.125 8 97.75C8.01246 97.613 8.01246 97.4884 8.01246 97.3141ZM11.612 104.351C11.7241 104.364 11.8237 104.389 11.9234 104.389C13.6048 104.389 15.2862 104.389 16.9677 104.389C17.2043 104.389 17.441 104.351 17.6652 104.239C18.3502 103.89 18.7114 103.342 18.7238 102.583C18.7363 102.035 18.7114 101.487 18.7238 100.938C18.7487 99.9545 17.9641 99.0702 16.8929 99.0702C15.224 99.0702 13.5425 99.0702 11.8735 99.0702C11.7863 99.0702 11.6992 99.0951 11.612 99.1076C11.612 100.864 11.612 102.595 11.612 104.351Z" fill="black"/>
<path d="M93.2551 97.339C93.3547 97.3265 93.4544 97.3016 93.5416 97.3016C94.5131 97.3016 95.497 97.3016 96.4685 97.3016C96.6553 97.3016 96.8048 97.3639 96.9293 97.5133C97.3279 97.9866 97.7265 98.4475 98.1375 98.9083C98.6606 99.5186 99.1837 100.129 99.7068 100.739C99.8314 100.889 99.9559 101.051 100.08 101.2C100.143 101.262 100.205 101.325 100.292 101.412C100.467 101.225 100.616 101.063 100.766 100.901C101.463 100.092 102.16 99.282 102.858 98.4599C103.12 98.1486 103.394 97.8496 103.643 97.5258C103.78 97.3639 103.929 97.3016 104.128 97.3016C104.751 97.3016 105.386 97.3016 106.009 97.3016C106.345 97.3016 106.682 97.3016 107.03 97.3016C107.118 97.3016 107.217 97.3265 107.367 97.3514C107.18 97.5881 107.03 97.7624 106.881 97.9493C106.121 98.8336 105.361 99.7303 104.589 100.615C104.029 101.275 103.468 101.922 102.895 102.583C102.709 102.794 102.534 103.006 102.484 103.292C102.41 103.741 102.534 104.115 102.821 104.451C102.995 104.65 103.144 104.887 103.344 105.049C103.979 105.572 104.427 106.257 104.975 106.842C105.511 107.428 106.009 108.05 106.52 108.648C106.794 108.96 107.055 109.283 107.354 109.62C107.242 109.632 107.167 109.657 107.093 109.657C106.071 109.657 105.038 109.657 104.016 109.657C103.817 109.657 103.717 109.57 103.593 109.433C102.584 108.25 101.563 107.066 100.554 105.883C100.467 105.784 100.367 105.684 100.242 105.559C100.155 105.647 100.068 105.721 100.006 105.796C99.3581 106.556 98.7104 107.328 98.0628 108.088C97.6766 108.536 97.2905 108.984 96.9044 109.445C96.7799 109.595 96.6553 109.657 96.4436 109.657C95.4472 109.645 94.4508 109.657 93.4544 109.657C93.3672 109.657 93.28 109.645 93.1555 109.632C93.2675 109.483 93.3423 109.383 93.4419 109.271C94.538 108.001 95.6465 106.718 96.755 105.447C96.9293 105.248 97.1286 105.074 97.303 104.874C97.4525 104.712 97.6019 104.526 97.7514 104.351C98.1873 103.841 98.1873 103.205 97.7389 102.707C96.8422 101.673 95.9578 100.627 95.0611 99.5933C94.4508 98.8834 93.8405 98.1735 93.2426 97.476C93.28 97.4386 93.28 97.4012 93.2551 97.339Z" fill="black"/>
<path d="M72.9782 99.0702C71.2096 99.0702 69.4783 99.0702 67.7097 99.0702C67.6848 100.253 67.6973 101.412 67.6973 102.583C67.6973 103.753 67.6973 104.937 67.6973 106.107C67.6973 107.266 67.6973 108.436 67.6973 109.62C67.5852 109.632 67.498 109.645 67.4108 109.645C66.925 109.645 66.4393 109.645 65.9411 109.645C65.144 109.657 64.5087 109.146 64.2845 108.474C64.2098 108.25 64.1849 108.001 64.1849 107.764C64.1725 105.024 64.1849 102.284 64.1849 99.5435C64.1849 99.3941 64.1725 99.2446 64.16 99.0702C62.3914 99.0702 60.6352 99.0702 58.904 99.0702C58.8168 98.8336 58.7919 97.9119 58.8541 97.3639C58.9787 97.2518 59.1406 97.2767 59.3025 97.2767C60.6228 97.2767 61.9555 97.2767 63.2757 97.2767C66.3396 97.2767 69.4161 97.2767 72.48 97.2767C72.6419 97.2767 72.7914 97.2891 72.9658 97.3016C72.9782 97.9119 72.9782 98.4724 72.9782 99.0702Z" fill="black"/>
<path d="M108.438 99.0827C108.413 98.0863 109.223 97.3265 110.219 97.3265C111.215 97.3265 112 98.1112 112 99.0827C112 100.079 111.215 100.864 110.206 100.864C109.198 100.851 108.425 100.067 108.438 99.0827ZM110.256 97.6379C109.596 97.5881 108.811 98.1112 108.811 99.0827C108.811 99.9296 109.397 100.54 110.206 100.552C110.954 100.565 111.614 99.9919 111.639 99.1076C111.664 98.2731 111.016 97.613 110.256 97.6379Z" fill="black"/>
<path d="M110.568 99.2321C110.742 99.5186 110.891 99.7802 111.041 100.042C110.792 100.141 110.767 100.141 110.655 99.9794C110.543 99.8051 110.418 99.6307 110.319 99.4563C110.219 99.2695 110.094 99.2197 109.87 99.2944C109.87 99.4812 109.87 99.693 109.858 99.8923C109.845 100.079 109.845 100.079 109.621 100.092C109.546 99.8798 109.521 98.4599 109.609 98.0738C109.957 98.0614 110.306 98.024 110.655 98.0987C110.916 98.1486 111.016 98.3603 111.053 98.5969C111.078 98.8211 110.979 98.9955 110.779 99.12C110.73 99.145 110.68 99.1699 110.568 99.2321ZM109.87 98.3603C109.87 98.5222 109.858 98.6592 109.87 98.7962C109.883 98.846 109.945 98.9332 109.995 98.9332C110.169 98.9332 110.343 98.9332 110.518 98.8959C110.667 98.8709 110.705 98.7339 110.692 98.5969C110.68 98.4599 110.58 98.3852 110.456 98.3727C110.281 98.3478 110.094 98.3603 109.87 98.3603Z" fill="black"/>
</svg>
