<svg width="120" height="120" viewBox="0 0 120 120" fill="none" xmlns="http://www.w3.org/2000/svg">
<path fill-rule="evenodd" clip-rule="evenodd" d="M69.574 62C68.4996 63.2773 67.3656 64.6263 66.0763 65.7723C65.9808 65.8081 65.8734 65.8797 65.7659 65.7842C65.7062 65.2948 66.0286 64.877 65.8614 64.3637C65.754 64.0294 65.4914 63.7548 65.1571 63.6355C63.45 63.2773 61.9459 64.0413 60.7999 65.259C60.0478 66.0588 59.3196 66.9302 58.4363 67.551C57.6603 67.9927 56.6814 68.4941 55.8577 68.315C55.7622 68.2911 55.7026 68.1837 55.7264 68.0882C55.7264 68.0762 55.7384 68.0524 55.7503 68.0404C56.1681 67.539 56.7053 67.0854 57.1709 66.6199C57.72 65.9872 58.484 65.4261 58.4004 64.5308C58.2572 63.8026 57.4216 64.0891 56.9321 63.8265C57.2067 63.4564 57.6006 63.146 57.5768 62.6566C57.5648 62.5372 57.4693 62.4298 57.3499 62.4059C57.2306 62.3462 57.1231 62.4178 57.0157 62.4417C56.4904 62.7282 56.4188 63.3012 56.3949 63.8384C55.6667 64.5188 54.9147 65.1635 54.1029 65.6649C54.0313 65.6768 53.9358 65.7484 53.8642 65.6649C53.8522 65.6052 53.9 65.5455 53.9 65.4977C53.888 65.056 54.091 64.6143 53.9597 64.1846C53.7925 63.6474 53.2315 63.4803 52.7301 63.4445C50.9514 63.4325 49.495 64.5666 48.4564 65.9872C47.2388 67.0019 45.7824 67.4436 44.2305 67.6465C42.7503 67.7181 41.2581 67.6823 39.7778 67.551C39.742 67.5271 39.6823 67.5271 39.6823 67.4674C42.4996 65.7962 45.4482 63.6474 47.4179 60.7824C49.4473 60.1258 51.3931 59.2305 53.2195 58.1322C55.0937 56.8907 57.4932 55.315 58.2572 53.0707C58.4004 52.4738 58.2214 51.877 57.6961 51.5069C56.4904 50.8503 55.0699 51.4233 54.0313 51.9963C51.2021 53.775 48.8146 56.6639 46.7613 59.2902C46.4151 59.7319 46.1167 60.2094 45.7227 60.6153C43.6814 61.1286 41.2223 60.8898 39.933 59.0634C39.2645 57.9293 39.7898 56.4968 40.4583 55.5299C42.9771 52.1993 46.821 51.1488 50.9275 51.4353C50.9633 51.3995 51.0111 51.4233 51.023 51.3756C51.023 51.3398 51.035 51.3159 51.0111 51.292C49.5905 50.9578 47.9431 51.1488 46.5226 51.3517C46.0451 51.4472 44.9945 51.6501 44.0754 52.0083C41.8788 52.8797 40.4105 53.9063 39.2526 55.685C38.6438 56.64 38.4408 58.5978 39.6704 59.7677C40.6015 60.663 41.5446 61.1405 42.6787 61.2957C43.5979 61.4151 44.3619 61.3673 45.1736 61.3315V61.3912C44.5409 62.2746 43.8844 63.146 43.192 64.0055C43.1681 64.0413 42.1534 65.1396 42.1176 65.1157C41.4252 65.7007 40.697 66.2379 39.945 66.7392C39.5152 66.9541 39.1093 67.2645 38.6318 67.3958C38.2498 67.3003 37.8439 67.2645 37.45 67.2048C35.8623 67.0257 33.9284 66.7034 32.5556 67.551C32.4243 67.6823 32.3527 67.8614 32.3646 68.0524C32.484 68.5299 33.0212 68.5896 33.4151 68.697C35.0864 68.9357 36.8531 68.7567 38.3214 68.1956C40.5776 68.7806 43.2517 68.6373 45.4482 68.0166C46.2957 67.8017 47.0717 67.3481 47.8596 66.978C47.8715 66.9899 47.8834 67.0019 47.8954 67.0138C47.8238 67.551 47.8118 68.1956 48.3251 68.4941C49.7338 69.1626 51.0469 68.1598 52.1332 67.348C52.5272 67.1332 52.742 66.4647 53.2792 66.584C54.0313 66.3095 54.6998 65.8439 55.3564 65.3187C55.7861 65.0083 56.1442 64.5188 56.5979 64.2682C56.9679 64.304 57.3499 64.3278 57.6961 64.4592C57.7797 64.7457 57.3977 64.8412 57.2664 65.056C56.383 65.9633 54.7714 66.8109 55.1057 68.2672C55.3802 68.7089 55.9413 68.8044 56.4546 68.7328C57.6603 68.5418 58.7228 67.9807 59.6778 67.169C59.7016 67.169 59.6658 67.7778 59.8568 68.0882C60.1195 68.5537 60.6328 68.8044 61.17 68.7328C62.5667 68.5657 63.6649 67.7301 64.7154 66.7631C64.9184 66.7154 65.0855 66.8347 65.3481 66.7034C66.7926 66.1782 67.7834 64.6621 68.822 63.5161C69.1443 63.0625 69.5263 62.6327 69.7411 62.1313C69.7053 62.0478 69.6815 61.9642 69.574 62ZM52.1571 54.2525C53.506 52.8439 54.9505 51.5546 56.9202 51.686C57.2544 51.7815 57.6723 51.9247 57.7797 52.3186C57.9826 53.1901 57.3619 53.8108 56.8844 54.4555C54.5446 57.0579 51.6796 58.5501 48.7429 59.7796C48.5161 59.8632 48.2893 59.9229 48.0625 59.9587C49.2563 57.9293 50.6291 56.0193 52.1571 54.2525ZM35.8981 68.2553C35.0864 68.3508 34.1314 68.3986 33.3196 68.2195C33.1883 68.1598 33.0212 68.124 32.9495 67.9688C32.8898 67.8256 33.057 67.742 33.1405 67.6942C34.4775 67.169 36.0891 67.4794 37.3545 67.9449C36.9367 68.1479 36.4114 68.2314 35.8981 68.2553ZM53.506 64.9128C53.0524 65.056 52.5749 65.4977 52.4675 65.9752C52.4436 66.1065 52.4317 66.2379 52.4436 66.3692C51.5602 67.169 50.6768 67.9449 49.5666 68.1956C49.1966 68.2314 48.7668 68.2076 48.5519 67.8852C48.5281 67.6823 48.5878 67.4794 48.7071 67.3122C49.4353 66.393 50.2351 65.5455 51.1066 64.7576C51.7154 64.2085 52.5152 63.7787 53.315 64.0294C53.4702 64.1249 53.5657 64.2801 53.5657 64.4592C53.5538 64.6024 53.5777 64.7815 53.506 64.9128ZM65.3839 64.9844C65.0139 65.0322 64.6915 65.3067 64.4886 65.629C64.3692 65.8678 64.2976 66.1304 64.3095 66.393C63.6291 67.0974 62.8173 67.6704 61.922 68.0643C61.5281 68.2314 60.967 68.2792 60.597 68.0285C60.4298 67.8972 60.3582 67.6823 60.4179 67.4794C60.5611 67.1093 60.8596 66.787 61.1222 66.4766C62.0295 65.4022 63.1755 64.4472 64.4647 64.0891C64.7035 64.0294 64.9542 64.0413 65.1929 64.1249C65.3601 64.2323 65.4675 64.4114 65.4675 64.6143C65.4556 64.7576 65.4794 64.9128 65.3839 64.9844ZM111.988 63.54C111.869 63.528 111.749 63.5758 111.678 63.6593C110.078 65.3784 108.395 67.3003 106.282 68.0166C106.091 68.0524 105.828 68.1001 105.661 68.0046C105.602 67.9211 105.614 67.8136 105.673 67.742C106.509 66.7989 108.789 64.2323 109.075 63.8265C108.61 63.8265 108.132 63.8265 107.643 63.8265C107.524 63.9458 107.297 64.1846 107.142 64.1965C107.106 64.1727 107.106 64.1368 107.082 64.101C106.843 63.731 106.437 63.6116 106.007 63.6474C104.157 63.9339 102.534 65.0202 101.567 66.6199C100.922 67.2167 100.23 67.7897 99.4538 68.1121C99.215 68.1837 98.9046 68.3866 98.6778 68.1717C98.642 68.0166 98.7375 67.9211 98.833 67.8256C99.5373 67.0735 100.242 66.3334 100.946 65.5932C101.041 65.4738 101.125 65.3425 101.185 65.1993C101.352 64.7457 101.328 64.1965 100.994 63.8265C100.576 63.528 99.9551 63.6355 99.5135 63.8145C99.2986 63.8981 99.0956 64.0055 98.9046 64.1368C98.642 64.3278 98.3674 64.674 98.0213 64.7457C97.9258 64.3995 97.9377 64.0055 97.6273 63.7429C97.2573 63.4683 96.6723 63.528 96.2545 63.6832C94.9891 64.3159 93.8909 65.5574 92.8762 66.6318C92.1838 67.2525 91.5272 67.9807 90.62 68.0762C90.4528 68.1121 90.2857 68.0882 90.1305 67.9927C90.0708 67.9091 90.0828 67.8017 90.1425 67.7301C90.9781 66.787 93.2582 64.2204 93.5447 63.8145C93.0791 63.8145 92.6016 63.8145 92.1122 63.8145C91.9928 63.9339 91.766 64.1727 91.6108 64.1846C91.575 64.1607 91.575 64.1249 91.5511 64.0891C91.3123 63.719 90.9065 63.5997 90.4767 63.6355C89.1397 63.8503 87.8982 64.483 86.9432 65.45C86.1076 66.4885 84.9019 67.36 83.7559 67.9927C83.4097 68.1479 82.8247 68.3627 82.4905 68.0046C82.4069 67.7659 82.6218 67.5749 82.765 67.4197C83.72 66.405 85.3197 64.7934 86.3105 63.8145C86.3344 63.8265 85.2361 63.8145 84.7586 63.8145C82.8725 65.7484 80.6521 67.3958 78.4317 68.5418C78.372 68.7686 78.6704 68.5896 78.7779 68.6134C79.8761 68.2195 80.8789 67.5749 81.8817 66.9541C81.8936 66.966 81.5952 67.7778 81.8458 68.2672C81.9533 68.4582 82.1443 68.5896 82.3472 68.6373C83.6723 68.7089 84.7109 68.0046 85.7256 67.2884C85.7494 67.2764 85.7972 67.2525 85.8211 67.2884C85.8091 67.348 85.8091 67.4077 85.8091 67.4674C85.8091 67.5749 85.833 67.6704 85.8569 67.7778C85.9165 68.1837 86.3344 68.5299 86.7164 68.6134C87.5281 68.697 88.3399 68.4821 89.0084 67.9927C89.1755 68.0046 89.1039 68.2314 89.2471 68.3627C89.5456 68.7567 90.1066 68.7567 90.5483 68.6492C90.8587 68.5537 91.1691 68.4224 91.4556 68.2553C92.2077 67.8733 92.8881 67.2167 93.4969 66.5363C94.4042 65.6052 95.4069 64.3995 96.6246 63.9578C96.8275 63.9458 97.1021 63.8742 97.2214 64.101C97.2811 64.5905 96.9469 64.9008 96.7201 65.1635C95.7292 66.3095 94.4519 67.4555 93.4134 68.5537C93.4253 68.5657 94.5594 68.5537 95.0607 68.5537C96.2784 67.2406 97.5199 66.0349 98.7733 64.7337C99.1911 64.3875 99.597 64.0055 100.158 64.0055C100.301 64.0413 100.48 64.0533 100.552 64.2204C100.576 64.3278 100.624 64.4711 100.54 64.5785C99.8596 65.3306 99.1553 66.0707 98.4271 66.7989C98.1048 67.2048 97.6273 67.5749 97.7228 68.124C97.7586 68.3389 97.9735 68.6492 98.1406 68.6492C99.406 68.8044 100.373 68.1001 101.34 67.4316C101.388 67.5391 101.412 67.6465 101.4 67.7659C101.459 68.1717 101.877 68.5179 102.259 68.6015C103.071 68.6851 103.883 68.4702 104.539 67.9807C104.706 67.9927 104.635 68.2195 104.778 68.3508C105.064 68.7447 105.637 68.7447 106.079 68.6373C108.347 67.8375 110.281 65.8439 111.845 63.8981C111.929 63.8026 112.036 63.6832 111.988 63.54ZM86.8477 68.2076C86.7402 68.1717 86.6567 68.1001 86.6089 67.9927C86.5134 67.36 87.3491 66.5244 87.8624 65.9394C88.5428 65.1635 89.3188 64.5188 90.1783 64.1607C90.4409 64.0772 90.8229 64.0413 91.0258 64.2801C91.1094 64.4114 91.2049 64.5666 91.1452 64.7457C90.9661 65.1873 90.5722 65.5455 90.226 65.9155C89.2352 66.8705 88.3518 68.4105 86.8477 68.2076ZM102.367 68.2076C102.259 68.1717 102.176 68.1001 102.128 67.9927C102.032 67.36 102.868 66.5244 103.381 65.9394C104.062 65.1635 104.838 64.5188 105.697 64.1607C105.96 64.0772 106.342 64.0413 106.545 64.2801C106.628 64.4114 106.724 64.5666 106.652 64.7457C106.473 65.1873 106.079 65.5455 105.733 65.9155C104.754 66.8705 103.883 68.4105 102.367 68.2076ZM83.1112 63.1222C84.2214 61.8806 85.0212 60.5198 85.8211 59.1469C85.8569 59.1589 87.7549 55.4463 89.2949 53.775C89.7127 54.0257 90.047 54.4793 90.238 54.9091C90.8587 56.4968 90.2618 58.0129 88.9726 59.1589C88.6264 59.4693 88.2921 59.7319 87.8146 59.6841C87.552 59.6244 87.3491 59.4334 87.2655 59.1708C87.2178 58.0726 88.1489 57.1056 89.0681 56.5923C89.3188 56.4252 89.6172 56.3297 89.9276 56.3177C89.9156 56.2342 89.7963 56.2222 89.7127 56.1984C88.9129 56.2103 88.2563 56.5684 87.6833 57.1056C87.0745 57.7502 86.5612 58.6097 86.9193 59.4931C87.1939 60.0423 87.7788 60.1974 88.3399 60.1378C89.5695 59.9587 90.6558 58.8485 91.0378 57.7025C91.5988 56.1029 90.8826 54.5271 89.6769 53.4527C89.6053 53.2498 89.856 53.1304 89.9515 52.9752C91.2646 51.5546 92.8762 50.4206 94.6549 49.6566V49.6446C94.631 49.6088 94.5713 49.6327 94.5355 49.6208C92.327 50.0266 89.2352 53.1185 89.2233 53.1185C87.7669 52.259 85.9762 52.056 84.1975 52.3186C80.5088 52.9275 76.9992 54.7778 74.7788 58.1203C74.2416 59.0514 73.8954 60.3526 74.3849 61.427C75.113 62.4536 76.2949 62.7998 77.5483 62.6685C80.4014 62.3462 82.8008 60.1736 84.4363 57.7741C85.2481 56.461 86.0598 55.124 86.0598 53.5243H86.0479C85.9166 54.0138 85.7733 54.4913 85.6062 54.9688C84.1379 58.3113 80.7834 61.5464 77.1663 62.1194C76.2232 62.1791 75.2205 62.0478 74.731 61.1883C74.3371 60.3526 74.731 59.4693 75.1847 58.8007C76.7246 56.7594 78.6943 55.0882 80.9744 53.9183C83.2067 52.6887 86.5492 52.0441 88.9009 53.4885C87.2058 55.3508 85.6301 57.3205 84.2095 59.4096C81.5474 62.6685 78.8853 67.8614 74.1103 67.933C73.2747 67.933 72.4152 67.5749 72.1048 66.7631C72.3793 66.6318 72.6062 66.4169 72.7494 66.1543C72.9523 65.7842 73.0478 65.2232 72.7494 64.865C72.6181 64.7576 72.451 64.7218 72.2838 64.7695C71.9615 64.9008 71.7228 65.1515 71.6034 65.4738C71.2811 66.2975 71.6034 67.1451 72.2242 67.7181C73.2866 68.6015 74.9698 68.4224 76.1994 68.0524C78.7659 67.0496 81.2012 65.4739 83.1112 63.1222ZM87.5281 61.3315C87.2297 61.2241 86.9551 61.3673 86.7044 61.4867C86.3582 61.7135 86.1672 62.0955 86.1792 62.5014C86.2031 62.6566 86.2866 62.7879 86.4179 62.8715C86.7402 63.0386 87.1223 63.0028 87.4207 62.7879C87.7908 62.5372 87.9818 62.0955 87.8863 61.6538C87.8027 61.5106 87.6833 61.3912 87.5281 61.3315ZM17.8127 50.7309C17.7888 50.7309 17.7649 50.6951 17.7411 50.7071C17.6933 50.7668 17.6933 50.8503 17.7291 50.91C17.7888 50.8981 17.753 50.7787 17.8127 50.7309ZM18.0873 50.6593C18.135 50.5996 18.1469 50.528 18.135 50.4564C18.1111 50.4206 18.0992 50.3489 18.0395 50.3609C17.9798 50.4325 18.0753 50.5041 18.0514 50.5877C18.0156 50.6832 17.9321 50.6713 17.8724 50.7309C17.944 50.8026 18.0156 50.6713 18.0873 50.6593ZM17.4187 52.056C17.4187 51.7695 17.7649 51.9247 17.8724 51.6979C17.944 51.6501 17.9201 51.5308 17.9201 51.4711C17.8724 51.3159 17.9798 51.1846 17.9798 51.0294C17.9798 50.9578 17.8963 50.9339 17.8366 50.9697C17.8485 51.0413 17.8604 51.1129 17.8604 51.1846C17.7172 51.3278 17.8962 51.5666 17.7649 51.7218C17.6456 51.8292 17.3949 51.7456 17.371 51.9486C17.3352 51.9963 17.3113 52.0918 17.2277 52.0799C17.2874 52.0918 17.3829 52.1157 17.4187 52.056ZM18.4454 51.7337C18.6364 51.9486 18.8035 51.6501 19.0184 51.7456C19.0064 51.6979 18.9468 51.7098 18.9109 51.6979C18.8035 51.5666 18.708 51.7456 18.5767 51.7218C18.517 51.7098 18.5051 51.6501 18.4693 51.6143C18.4096 51.5666 18.3857 51.6621 18.3499 51.674C18.2902 51.7337 18.1708 51.7098 18.1469 51.7815C18.2544 51.865 18.3499 51.7695 18.4454 51.7337ZM31.4215 58.9321C31.5528 58.5739 31.5767 58.0606 31.3976 57.7264C31.147 57.9412 31.2902 58.371 30.9679 58.5262C30.8366 58.562 30.6933 58.5262 30.6098 58.4187C30.562 58.2994 30.5501 58.1681 30.574 58.0487C30.753 57.3563 31.1231 56.4132 30.5978 55.7805L30.5381 56.067C30.4904 56.2103 30.4546 56.4132 30.2994 56.4849C30.2875 56.461 30.2516 56.4371 30.2516 56.4252C30.2755 56.0193 30.2278 55.6492 30.0368 55.3389C30.001 55.2553 30.0487 55.1478 30.001 55.0643C29.9055 55.1478 29.7622 55.2075 29.7861 55.3627C29.7622 55.494 29.798 55.6373 29.7383 55.7447C29.6428 55.6492 29.5831 55.5418 29.5593 55.4105C29.4518 55.0165 29.5831 54.5987 29.9055 54.3361C29.7264 54.2883 29.5354 54.3122 29.3683 54.3838C29.2369 54.4316 29.1295 54.539 28.9982 54.551C28.9982 54.2406 28.8669 53.9302 28.652 53.7153C28.6878 53.966 28.5923 54.2167 28.3894 54.36C28.1745 54.2645 28.079 54.0257 28.0313 53.8228C27.9835 53.6198 28.0671 53.4169 28.1029 53.2737C27.9238 53.3095 27.8641 53.5005 27.8044 53.6318C27.7686 53.6795 27.8164 53.775 27.7686 53.8228C27.7209 53.8228 27.7089 53.7631 27.6612 53.7631C27.6851 54.36 27.8164 54.9449 28.0551 55.4821C28.1268 55.7209 28.4252 55.8283 28.5326 56.067C28.5684 56.1267 28.5207 56.1984 28.4729 56.2222C28.1506 56.1745 27.8283 56.2342 27.5538 56.4013C27.5657 56.4371 28.4849 56.9027 28.8072 57.2966C29.2728 57.7144 29.607 58.2636 29.3683 58.8724C29.2966 59.0156 29.1534 59.0992 29.0101 59.0872C28.8669 59.0872 28.7475 58.9559 28.6759 58.8366C28.652 58.7411 28.6401 58.6097 28.7475 58.562C28.9027 58.4904 28.9863 58.6456 29.1056 58.6694C29.0698 58.4784 28.9624 58.3113 28.7953 58.2039C28.5923 58.0606 28.3058 58.1203 28.079 58.1442C27.9238 57.9532 27.9238 57.6786 27.9716 57.4399H27.9358C27.5657 57.5115 27.5538 57.9054 27.4941 58.1919C27.4344 58.3352 27.3031 58.18 27.1717 58.2277C26.9569 58.3113 26.7778 58.4546 26.6584 58.6456C27.1359 58.6575 27.5896 58.8485 27.9358 59.1708C28.3178 59.6125 28.7594 60.1616 28.4849 60.7466C28.4133 60.8659 28.2819 60.9495 28.1387 60.9495C28.0313 60.9495 27.9596 60.854 27.9238 60.7585C27.8403 60.5914 27.9596 60.4362 28.0193 60.2929L27.8522 60.281C27.5657 60.3765 27.4583 60.6869 27.4105 60.9495C27.1359 60.9495 26.8852 60.8063 26.6465 60.6988C26.7897 61.0092 26.9807 61.2957 27.1956 61.5583C27.2314 61.618 27.1479 61.6777 27.1001 61.7255C26.9569 61.9523 26.8256 62.2507 26.9449 62.5133C27.0166 62.4895 27.0404 62.382 27.1001 62.3343C27.1717 62.2388 27.315 62.2507 27.4224 62.2746C27.5299 62.3343 27.5896 62.4417 27.5776 62.5611C27.5537 62.6924 27.4702 62.8118 27.3389 62.8715C27.1359 62.9192 26.8375 62.9431 26.6942 62.7401C26.551 62.5969 26.6107 62.3581 26.6584 62.191C26.3481 62.2865 26.1093 62.5969 25.978 62.8715C25.787 62.764 25.6079 62.6327 25.405 62.6208L25.4885 62.7163C25.7751 63.2177 25.787 63.9936 25.4289 64.4472C25.3334 64.1727 25.0469 63.8981 24.7484 63.8862C24.4977 63.8862 24.247 63.9578 24.1157 64.1846C24.2351 64.1368 24.3664 64.1249 24.4977 64.1607C24.5932 64.2085 24.6649 64.292 24.7126 64.3875C24.7723 64.5666 24.6649 64.7098 24.5455 64.8292C24.3067 65.0202 24.056 64.8053 23.8292 64.7695C23.6979 64.7576 23.5427 64.686 23.4233 64.7337L23.5666 64.9008C23.674 65.0799 23.674 65.2948 23.5785 65.4738C23.483 65.6052 23.3756 65.7842 23.1727 65.7604C23.0055 65.6052 22.91 65.3903 22.91 65.1635C22.5638 65.4977 22.6474 66.0469 22.4564 66.4647C21.9192 67.1093 21.2746 67.8256 20.6061 68.2911C20.5225 68.1956 20.5941 68.0524 20.63 67.9569C20.7374 67.7897 20.9165 67.6942 21.1075 67.7062C21.0716 67.6107 20.9523 67.5749 20.8568 67.5629H20.63C20.6061 67.4674 20.7255 67.3839 20.7971 67.3122C20.8926 67.2526 21.0239 67.2645 21.1194 67.2048C20.9761 67.0496 20.7613 67.0019 20.5703 67.0616C20.5345 67.0974 20.4748 67.1093 20.427 67.1093C20.4867 66.966 20.5703 66.8347 20.6658 66.7154C20.809 66.5124 20.9761 66.3214 21.1552 66.1543C21.2268 66.1782 21.2865 66.2259 21.3104 66.2975C21.3462 66.3811 21.2388 66.4408 21.2985 66.5005C21.3701 66.5005 21.4298 66.4527 21.4417 66.393L21.4895 66.202C22.0505 66.1543 22.3848 65.5813 22.719 65.1754C22.8623 64.9605 22.9936 64.7099 22.8981 64.4353C22.8265 64.2562 22.6713 64.1249 22.4922 64.0772C21.9192 63.9817 21.5491 64.6382 21.2268 65.0202C21.0955 65.2351 20.9284 65.45 20.9761 65.7484C20.8568 65.7604 20.7493 65.82 20.6896 65.9155C20.7016 65.9514 20.6658 65.9633 20.6777 65.9872C20.7613 65.9872 20.8687 65.9394 20.9403 66.023C20.7613 66.2617 20.5464 66.4766 20.3315 66.6795C20.2957 66.3095 20.2718 65.9514 20.2838 65.5813C20.3673 65.5455 20.439 65.641 20.4748 65.7007C20.4986 65.7126 20.4748 65.7604 20.5225 65.7604C20.6061 65.7604 20.6061 65.6649 20.63 65.6171C20.6419 65.4977 20.5822 65.4142 20.5583 65.3187C20.9045 64.865 20.9761 64.2443 20.7493 63.719C20.5822 63.3848 20.1763 63.2535 19.854 63.4206C19.7227 63.4803 19.6272 63.5877 19.5556 63.719C19.3288 64.2443 19.4004 64.8531 19.7466 65.3187C19.6988 65.4142 19.6749 65.5216 19.6749 65.6171C19.7108 65.6768 19.6988 65.7723 19.7824 65.7604C19.8301 65.7604 19.7943 65.7126 19.8301 65.7007C19.8779 65.641 19.9376 65.5455 20.0211 65.5813C20.045 65.9633 19.9853 66.3214 19.9734 66.6795C19.7466 66.4766 19.5436 66.2617 19.3646 66.023C19.4362 65.9275 19.5556 65.9752 19.6272 65.9872C19.6391 65.9514 19.6033 65.9394 19.6153 65.9155C19.5556 65.82 19.4481 65.7484 19.3288 65.7484C19.3765 65.45 19.2213 65.247 19.09 65.0202C18.7796 64.6382 18.3976 63.9817 17.8246 64.0772C17.6456 64.1368 17.4904 64.2682 17.4187 64.4353C17.3232 64.7099 17.4665 64.9605 17.5978 65.1754C17.9321 65.5813 18.2544 66.1424 18.8274 66.202L18.8751 66.393C18.8871 66.4647 18.9587 66.5124 19.0184 66.5005C19.0781 66.4408 18.9706 66.3811 19.0064 66.2975C19.0303 66.2259 19.09 66.1782 19.1616 66.1543C19.3526 66.3214 19.5198 66.5005 19.6511 66.7154C19.7466 66.8347 19.8301 66.966 19.8898 67.1093C19.8421 67.1212 19.7824 67.0974 19.7466 67.0616C19.5556 67.0019 19.3407 67.0496 19.1974 67.2048C19.2929 67.2645 19.4243 67.2526 19.5198 67.3122C19.5914 67.3719 19.7108 67.4555 19.6869 67.5629H19.4601C19.3646 67.5749 19.2452 67.6107 19.2213 67.7062C19.4123 67.7062 19.5914 67.8017 19.6988 67.9569C19.7466 68.0524 19.8063 68.1956 19.7227 68.2911C19.0423 67.8256 18.4215 67.1451 17.8843 66.5005C17.7052 66.0827 17.7411 65.5694 17.4665 65.1993C17.4426 65.1993 17.4307 65.1396 17.4068 65.1874C17.3829 65.4261 17.3352 65.7007 17.1084 65.7842C16.9054 65.7723 16.7741 65.5335 16.7144 65.3783C16.6547 65.1396 16.7502 64.9008 16.9412 64.7576C16.607 64.7218 16.3324 64.9128 15.9982 64.9367C15.843 64.9128 15.7117 64.8053 15.64 64.6502C15.6042 64.5069 15.652 64.3517 15.7714 64.2562C15.9146 64.1727 16.0817 64.1607 16.225 64.2323V64.1846C16.0698 64.0055 15.831 63.91 15.5804 63.9458C15.27 63.9936 15.0074 64.2085 14.8999 64.5069C14.5179 64.0533 14.5657 63.3131 14.8044 62.8118C14.8402 62.764 14.876 62.7163 14.8999 62.6566C14.8283 62.6327 14.4582 62.8953 14.315 62.9073C14.1837 62.6327 13.9449 62.3104 13.6226 62.2507C13.6226 62.3104 13.6703 62.3462 13.6703 62.4059C13.7181 62.585 13.6584 62.7879 13.5032 62.8953C13.3838 62.9908 13.2048 62.9789 13.0615 62.955C12.9063 62.9431 12.775 62.8357 12.7273 62.7043C12.6915 62.5969 12.7273 62.4775 12.8108 62.394C12.8705 62.3581 12.9302 62.3343 13.0018 62.3343C13.1093 62.3343 13.1809 62.4059 13.2525 62.4895C13.2764 62.5253 13.2883 62.5969 13.3361 62.5969C13.36 62.585 13.36 62.5611 13.3838 62.5491C13.4316 62.2268 13.3242 61.8926 13.0854 61.6658C13.2764 61.3912 13.6345 60.7704 13.6345 60.7704C13.4435 60.8779 13.2525 60.9614 13.0377 61.0211C12.7273 61.1524 12.8825 60.7466 12.7392 60.6391C12.6318 60.4839 12.4766 60.3288 12.2617 60.3646C12.1662 60.4243 12.3214 60.5078 12.3214 60.5794C12.3692 60.7346 12.3214 60.9137 12.1901 61.0211C12.1185 61.0569 12.0349 61.0569 11.9633 61.0211C11.7245 60.9018 11.6529 60.6511 11.6648 60.3884C11.7603 60.0184 11.9394 59.6841 12.1901 59.3976C12.5721 58.9798 13.0854 58.7291 13.6107 58.7888C13.5271 58.6814 13.4435 58.5739 13.36 58.4784C13.2048 58.3232 12.9899 58.2755 12.787 58.3471C12.7153 58.0726 12.6915 57.7622 12.4408 57.5712C12.3692 57.5234 12.2856 57.5115 12.202 57.5473L12.2617 57.6786C12.3214 57.8816 12.2856 58.0964 12.1662 58.2636C11.9394 58.2039 11.6529 58.1681 11.438 58.2874C11.2828 58.4068 11.1038 58.5739 11.1038 58.7769C11.1754 58.7649 11.2351 58.7411 11.2828 58.6933C11.3664 58.6575 11.4619 58.6336 11.5335 58.7172C11.6051 58.8246 11.5693 58.9201 11.5216 59.0276C11.45 59.1708 11.2948 59.2424 11.1396 59.2066C10.9366 59.1708 10.8531 58.944 10.8053 58.7769C10.7456 58.3232 10.9247 57.9293 11.247 57.6189C11.629 57.1414 12.6915 56.5923 12.6915 56.5087C12.4288 56.3297 11.7006 56.2939 11.7006 56.2939C11.6887 56.0551 11.9633 55.9477 12.0827 55.7567C12.393 55.1717 12.5482 54.5271 12.5482 53.8586L12.4288 53.9063C12.4169 53.7034 12.3572 53.4885 12.1423 53.4169C12.2737 53.7989 12.1662 54.2167 11.8558 54.4793C11.629 54.3361 11.5096 54.0735 11.5574 53.8108C11.438 53.9422 11.3425 54.0854 11.2709 54.2525C11.1993 54.3719 11.247 54.5271 11.1754 54.6465C10.8889 54.5271 10.6143 54.3361 10.2681 54.4316C10.4114 54.5629 10.5308 54.73 10.6024 54.9091C10.7218 55.2195 10.674 55.5776 10.4591 55.8402C10.3756 55.6134 10.483 55.303 10.2085 55.1598C10.1846 55.2314 10.1607 55.315 10.1488 55.3866C9.95776 55.7328 9.8742 56.1267 9.92195 56.5207C9.91001 56.5445 9.88614 56.5923 9.85032 56.5684C9.65932 56.3774 9.64739 56.0909 9.56382 55.8522C9.16988 56.3655 9.27732 57.1653 9.46832 57.7264C9.53995 57.9771 9.71901 58.3113 9.51607 58.562C8.90726 58.9201 9.07438 58.0367 8.78788 57.8099C8.60882 58.1681 8.63269 58.6456 8.76401 59.0276C8.71625 59.0753 8.63269 59.0395 8.573 59.0514C8.22681 59.1231 8.07163 59.4931 8 59.8035C8.13131 59.8035 8.20294 59.6722 8.33425 59.6603C8.94307 59.4931 9.64739 59.6244 10.0175 60.1497C10.1488 60.3765 10.1607 60.6511 10.0294 60.8779C9.95776 60.9853 9.85032 61.045 9.71901 61.0569C9.40863 61.0689 9.16988 60.5436 9.16988 60.5436C9.16988 60.6749 9.18182 60.8182 9.19376 60.9495C9.26538 61.4628 9.62351 62.012 10.1368 62.1791C10.3636 62.3462 10.5785 62.573 10.5188 62.8595C10.4711 62.9192 10.3995 62.9789 10.3159 62.9311C10.1368 62.8834 10.0055 62.5372 10.0055 62.5372C9.82645 62.8237 9.80257 63.1699 9.94582 63.4803C9.75482 63.8265 9.70707 64.2443 9.81451 64.6263C9.85032 64.674 9.86226 64.7576 9.91001 64.7576C9.99358 64.3995 10.2204 64.0055 10.6024 63.8623C11.068 63.6474 11.6051 63.7071 12.023 64.0055C12.1185 64.101 12.1543 64.2562 12.1065 64.3875C11.9513 64.6621 11.5335 64.6143 11.259 64.5785C11.2948 64.7695 11.4261 64.9128 11.5574 65.068C11.3783 65.3067 11.3067 65.6171 11.3783 65.9036L11.7126 65.6052C12.0707 65.3664 12.5005 65.2112 12.9422 65.3067C13.0854 65.3664 13.157 65.5097 13.1451 65.6649C13.157 65.8797 12.9063 65.9036 12.7989 66.0469C12.7273 66.1304 12.7034 66.2379 12.7153 66.3453C13.0377 66.2379 13.3719 66.1424 13.7062 66.0946C14.2195 66.0588 14.8999 65.9394 15.2103 66.4169C15.258 66.584 15.1625 66.7273 15.0432 66.8586C14.9477 66.966 14.8044 66.9899 14.697 67.0616C14.7089 67.1093 14.7209 67.1451 14.7567 67.169C15.0074 67.3719 15.4132 67.3242 15.6759 67.2048C15.7714 67.3719 15.6162 67.551 15.6162 67.7181C15.8907 67.742 16.1653 67.6107 16.3205 67.3839C16.607 67.6823 16.989 67.8733 17.4068 67.8972C17.4546 67.7897 17.3591 67.6704 17.3949 67.551C17.4307 67.5391 17.4546 67.5629 17.4904 67.5629C18.0873 67.9569 18.6722 68.5418 18.9587 69.1864C18.8154 69.2342 18.6722 69.2581 18.5648 69.3894C18.517 69.4729 18.4573 69.5565 18.5051 69.6639C18.5886 69.6639 18.6364 69.5923 18.708 69.5565C18.9587 69.5326 19.1258 69.8311 19.2691 69.9982C19.4243 70.2369 19.0303 70.1056 19.0184 70.2966C19.1974 70.416 19.3407 70.5951 19.4123 70.8099C19.4243 70.8816 19.4362 70.9413 19.472 71.001H20.8448C20.8926 70.8577 20.9403 70.7264 21.012 70.607C21.0716 70.4638 21.2149 70.3802 21.2985 70.2608C21.2149 70.1653 21.0955 70.1773 20.9881 70.1176C21.0836 69.8908 21.2388 69.6878 21.4536 69.5565C21.5611 69.4849 21.6924 69.6281 21.8118 69.6401C21.8237 69.5684 21.7998 69.4849 21.764 69.4252C21.6685 69.2581 21.5133 69.2223 21.3462 69.2103C21.5611 68.7686 21.8476 68.3627 22.2177 68.0285C22.4445 67.8494 22.6355 67.6226 22.8981 67.5271C22.9458 67.6346 22.8503 67.7539 22.8742 67.8614C23.292 67.8375 23.686 67.6584 23.9725 67.348C24.1515 67.5629 24.4142 67.7301 24.6887 67.6584C24.641 67.5152 24.5455 67.3958 24.5694 67.2167C24.5813 67.169 24.641 67.2048 24.6649 67.1929C24.9394 67.2884 25.3572 67.3242 25.5602 67.0616C25.5721 66.9661 25.405 66.9541 25.3334 66.8944C25.1782 66.775 25.0469 66.6199 25.0469 66.4169C25.2498 65.9991 25.8347 65.9991 26.2287 66.023C26.6823 66.0469 27.1359 66.1424 27.5657 66.3095C27.6373 65.9155 27.0762 65.9394 27.124 65.5574C27.1479 65.4142 27.2434 65.2948 27.3747 65.259C27.9716 65.1873 28.4729 65.4739 28.8788 65.8797C28.9146 65.6529 28.8788 65.4261 28.7953 65.2112C28.7594 65.1396 28.6759 65.068 28.6998 64.9963C28.843 64.877 28.9385 64.7098 28.9743 64.5308C28.9266 64.5427 28.8669 64.5308 28.8311 64.5547C28.5804 64.5547 28.2342 64.6024 28.1268 64.304C28.0909 64.1607 28.1387 64.0055 28.2581 63.91C28.5923 63.7071 28.9863 63.6355 29.3683 63.719C29.8338 63.8026 30.2158 64.2443 30.3233 64.686H30.3471C30.4546 64.495 30.4546 64.2443 30.4426 64.0294C30.4188 63.8145 30.3471 63.5997 30.2636 63.3967C30.4426 63.1222 30.3233 62.7401 30.192 62.4895C30.1323 62.6208 30.0845 62.8237 29.9055 62.8834C29.8219 62.9192 29.7264 62.8834 29.6906 62.7879C29.6428 62.5014 29.8577 62.2746 30.0726 62.1075C30.562 61.9403 30.9201 61.427 30.9918 60.9495C30.9918 60.7824 31.0634 60.6033 30.9798 60.4601C30.8485 60.6033 30.8485 60.7824 30.7053 60.9018C30.5859 60.9973 30.4307 61.0092 30.2994 60.9495C30.192 60.8779 30.1203 60.7704 30.0965 60.6391C30.0368 60.3765 30.1203 60.1019 30.3113 59.9109C30.753 59.517 31.3857 59.3976 31.9348 59.6125C32.0184 59.6364 32.09 59.7199 32.1736 59.6841L32.0662 59.3738C31.9468 59.0992 31.708 58.8962 31.4215 58.9321ZM23.6621 51.6621C23.483 51.2443 23.3517 50.7668 23.1488 50.3609C22.9578 50.7668 22.8265 51.2443 22.6474 51.6621H21.3223C21.3223 51.6621 22.0267 52.2112 22.3609 52.4858C22.2773 52.9513 22.1222 53.3692 21.9908 53.8347L23.1488 53.0349L24.2948 53.8347C24.1754 53.3811 24.0083 52.9513 23.9247 52.4858C24.2709 52.2112 24.9633 51.6621 24.9633 51.6621H23.6621ZM14.0046 49.8237V60.4004C13.9807 61.0211 14.1598 61.5941 14.7209 61.9881C15.079 62.2388 15.4013 62.2746 15.8072 62.2746H19.2691C19.663 62.3343 19.9973 62.585 20.1763 62.9431C20.3435 62.585 20.6777 62.3462 21.0597 62.2746H24.5216C24.9275 62.2746 25.2498 62.2268 25.6079 61.9881C26.169 61.6061 26.36 61.0331 26.3242 60.4004V49.8237C26.3719 49.4775 26.6107 49.1791 26.933 49.0477C26.9927 49.0239 27.0643 49.0119 27.124 49H13.2048C13.2645 49.0119 13.3361 49.0239 13.3958 49.0477C13.7181 49.1791 13.9449 49.4775 14.0046 49.8237ZM20.4151 59.3021C20.4509 58.944 20.5822 58.6097 20.6419 58.2516C20.427 58.0248 20.5583 57.6547 20.6658 57.416C20.8687 56.9743 21.0836 56.5326 21.2626 56.0909C21.4059 55.9238 21.6685 55.9238 21.8595 55.9954C22.0267 56.067 22.1341 56.2461 22.1341 56.4252C22.1818 56.7475 21.9431 56.9743 22.0505 57.2847C21.955 57.2608 21.7879 57.2847 21.7282 57.1414C21.6208 57.0698 21.4417 57.1295 21.3462 57.034C20.8329 57.0579 20.8329 57.6189 20.6777 57.9532C20.6419 58.0129 20.6419 58.0964 20.6658 58.1561C20.8568 58.2158 20.6896 58.4068 20.7135 58.5381C20.6061 58.8007 20.5822 59.0992 20.427 59.3379C20.4151 59.3738 20.4509 59.3021 20.4151 59.3021ZM22.1938 57.7025C22.2177 57.607 22.2177 57.416 22.3848 57.5115C22.4445 57.5831 22.4206 57.7144 22.4087 57.8099C22.3728 57.8935 22.3848 57.989 22.3132 58.0606C22.2535 58.0606 22.1818 58.0606 22.158 58.0129C22.2057 57.8935 22.1102 57.7502 22.1938 57.7025ZM22.3012 58.562L22.2415 58.5501C22.2654 58.4187 22.2296 58.2516 22.337 58.18C22.3967 58.3113 22.3251 58.4546 22.3012 58.562ZM21 57.9771C20.9403 57.8816 21 57.7741 21 57.6786L21.1433 57.2847C21.191 57.2489 21.2388 57.2011 21.3104 57.225C21.3462 57.2847 21.3462 57.3563 21.3223 57.416L21.1552 57.9651C21.1075 57.9771 21.0358 58.0248 21 57.9771ZM21.0597 58.4187C21 58.6694 20.9881 58.9321 20.8329 59.1469C20.809 59.1589 20.7851 59.1469 20.7732 59.1231C20.7732 58.8008 20.9165 58.5262 20.9881 58.2277C21 58.18 21.0478 58.2039 21.0716 58.2039C21.1313 58.2636 21.0716 58.3471 21.0597 58.4187ZM21.1313 58.7888L21.2746 58.2397C21.3104 58.1919 21.3701 58.1681 21.4298 58.2039C21.4178 58.4546 21.2985 58.7052 21.2388 58.9559C21.203 58.9679 21.191 58.9918 21.1552 58.9798C21.1075 58.9321 21.1194 58.8485 21.1313 58.7888ZM21.394 57.9771C21.4059 57.7383 21.4536 57.4996 21.5372 57.2727C21.5969 57.2608 21.6566 57.2727 21.6805 57.3324C21.6685 57.5592 21.6208 57.798 21.5372 58.0129C21.4895 58.0248 21.394 58.0248 21.394 57.9771ZM21.6327 58.2158L21.6924 58.1681C21.7282 58.1561 21.776 58.18 21.7879 58.2158C21.7401 58.4307 21.7282 58.6456 21.6088 58.8246C21.585 58.8366 21.573 58.8485 21.5491 58.8366C21.4536 58.6217 21.6208 58.4187 21.6327 58.2158ZM21.764 57.989C21.7521 57.8577 21.7521 57.7383 21.776 57.607L21.8237 57.4279C21.8953 57.4041 21.967 57.416 22.0267 57.4637C22.0386 57.6547 21.967 57.8099 21.9431 57.9771C21.8953 58.0248 21.8118 58.0248 21.764 57.989ZM22.0505 58.1681C22.1699 58.1681 22.0863 58.2994 22.0983 58.371C22.0505 58.4546 22.0744 58.5739 22.0028 58.6336L21.9431 58.6217C21.955 58.4665 21.9073 58.2516 22.0505 58.1681ZM21.4775 60.2452H21.4298C21.4895 60.0423 21.6208 59.8632 21.7879 59.7319C21.764 59.9348 21.6446 60.1258 21.4775 60.2452ZM22.0028 59.9945C21.9789 60.0423 21.9431 60.0781 21.8953 60.1019H21.8476C21.8595 59.9468 21.9312 59.8154 22.0505 59.7199C22.1341 59.7916 22.0267 59.899 22.0028 59.9945ZM22.0863 59.5767C22.0505 59.6125 21.9908 59.6244 21.9431 59.6006C21.9431 59.4334 22.0863 59.326 22.2177 59.2424C22.3132 59.2186 22.4325 59.135 22.5161 59.2424C22.528 59.2424 22.54 59.2186 22.5519 59.2186C22.54 59.1589 22.5042 59.1111 22.4564 59.0753C22.158 59.0276 21.9312 59.2663 21.7401 59.4812L21.0239 60.5317C20.9881 60.6869 21.1671 60.6272 21.2149 60.7227C21.0597 60.6749 20.8926 60.7227 20.7971 60.854C20.7613 60.7824 20.7255 60.6511 20.618 60.6511C20.6777 60.6033 20.7851 60.6391 20.8568 60.6033C21.2507 60.0661 21.5969 59.517 21.9789 58.9798C22.0983 58.8366 22.2893 58.7769 22.4683 58.8246C22.5638 58.8485 22.6355 58.9201 22.6832 59.0037C22.8145 59.3379 22.6235 59.6125 22.5042 59.8871C22.5161 59.8154 22.528 59.7319 22.5161 59.6603C22.4803 59.5767 22.3848 59.5409 22.3132 59.5767C22.2415 59.6006 22.158 59.5409 22.0863 59.5767ZM22.7787 56.5923C22.8862 56.5565 23.0294 56.6162 23.113 56.5445C23.2085 56.5923 23.3278 56.6162 23.4353 56.6042C23.4114 56.7236 23.2443 56.6759 23.2204 56.7952V57.0937C23.1727 57.0937 23.1368 57.0459 23.101 57.0817C23.0652 57.1056 23.0772 57.1414 23.0413 57.1534C22.9817 57.1295 22.9339 57.0459 22.8623 57.0937C22.8384 57.1056 22.8265 57.1295 22.8026 57.1175C22.7907 57.0579 22.8503 56.9862 22.8026 56.9146C22.731 56.8072 22.5997 56.8072 22.4803 56.8191C22.6116 56.7952 22.719 56.6997 22.7787 56.5923ZM22.719 56.0074C22.7787 56.0193 22.8384 56.0909 22.8981 56.0551C23.0175 56.0074 22.91 55.7925 23.0891 55.8283C23.1488 55.8999 23.101 56.0312 23.2323 56.0551C23.3159 56.0551 23.4114 55.9119 23.4472 56.0312C23.4353 56.1148 23.3995 56.1864 23.3398 56.2461C23.1368 56.2222 22.9339 56.2222 22.7429 56.2461C22.7071 56.1864 22.6355 56.079 22.719 56.0074ZM22.3609 59.708C22.3967 59.8035 22.349 59.8751 22.3132 59.9587C22.2893 59.9706 22.2535 60.0064 22.2177 59.9706C22.2535 59.8751 22.2415 59.7319 22.3609 59.708ZM24.056 60.663C23.8292 60.6749 23.7457 60.4123 23.5785 60.2929C23.5427 60.2571 23.495 60.3049 23.4711 60.3407C23.5666 60.6033 23.8173 60.8182 23.9725 61.0569C23.8173 61.0569 23.674 60.9018 23.5666 60.7585C23.4592 60.6391 23.4711 60.4243 23.292 60.3884L23.2562 60.4243C23.292 60.6511 23.3159 60.9495 23.2323 61.1644C23.1607 61.2121 23.113 61.1166 23.0891 61.0689C23.0533 60.8421 23.0413 60.6153 23.0533 60.3884C23.0413 60.3407 22.9936 60.3646 22.9578 60.3646C22.8145 60.6511 22.7071 61.0808 22.349 61.1525C22.4922 60.9018 22.6832 60.6749 22.7787 60.4123C22.7787 60.3646 22.7787 60.3168 22.731 60.3049C22.5997 60.3526 22.5758 60.5198 22.4445 60.6033C22.3728 60.6391 22.3132 60.7108 22.2177 60.6988C22.2535 60.5317 22.3967 60.4004 22.4564 60.2571C22.6474 59.8513 23.0772 59.4215 22.8026 58.944C22.4922 58.5859 22.4803 57.989 22.6235 57.5473C22.6952 57.4399 22.731 57.2131 22.922 57.2489C22.9697 57.2847 23.0175 57.3802 23.0772 57.3086C23.101 57.2608 23.1488 57.2369 23.2085 57.2489C23.2443 57.2847 23.2562 57.3682 23.3278 57.3563C23.3398 57.3205 23.3756 57.3324 23.3995 57.3324C23.6382 57.5951 23.5905 58.0248 23.5785 58.3949C23.5427 58.6336 23.4592 58.8724 23.3398 59.0872C23.2562 59.3857 23.4353 59.6006 23.5427 59.8274L24.0322 60.6153L24.056 60.663ZM23.7457 59.8035C23.7337 59.7558 23.7457 59.6961 23.7695 59.6483C23.8412 59.6483 23.8412 59.7438 23.865 59.8035V59.899C23.7815 59.9229 23.7695 59.8393 23.7457 59.8035ZM24.1157 60.0303C24.0202 59.9229 23.9725 59.7796 24.0083 59.6364C24.0441 59.6364 24.0799 59.6722 24.0919 59.6961C24.0799 59.8035 24.2112 59.9348 24.1157 60.0303ZM24.5694 60.1855C24.45 60.2452 24.3903 60.0781 24.3425 60.0064C24.3067 59.899 24.1515 59.7438 24.2948 59.6603C24.438 59.7677 24.4739 59.9468 24.5813 60.09L24.5694 60.1855ZM25.1424 60.7227C25.0707 60.6033 24.9514 60.5317 24.82 60.5317C24.9036 60.4839 24.9036 60.3765 24.8797 60.2929L24.1874 59.2544C24.0441 59.1589 23.9008 58.9559 23.7337 59.0753C23.6979 59.0992 23.686 59.135 23.686 59.1708C23.7457 59.2424 23.8292 59.1469 23.8889 59.1947C24.0083 59.2544 24.0919 59.3737 24.1038 59.5051C24.0202 59.4573 23.9247 59.4573 23.8531 59.517C23.7576 59.4812 23.6143 59.6006 23.5666 59.4693C23.5547 59.3141 23.4711 59.1111 23.5785 58.9559C23.7218 58.8485 23.8889 58.8127 24.068 58.8604C24.1874 58.9082 24.259 59.0276 24.3187 59.1111L25.0349 60.3407C25.1065 60.4243 25.2259 60.4243 25.3214 60.4959C25.2379 60.5317 25.1662 60.6153 25.1424 60.7227ZM24.3784 57.9771C24.0919 58.0487 24.1874 57.7144 24.0799 57.5831C24.068 57.5115 24.1157 57.4399 24.1754 57.4279C24.4022 57.4279 24.3545 57.6906 24.438 57.8219C24.4739 57.8816 24.4619 57.9771 24.3784 57.9771ZM24.4142 58.5978C24.3903 58.6336 24.3545 58.5978 24.3425 58.5739C24.2948 58.4546 24.259 58.3352 24.247 58.2039L24.2709 58.18C24.3545 58.2994 24.4142 58.4426 24.4142 58.5978ZM24.1515 58.3113C24.1754 58.3949 24.2112 58.5023 24.1635 58.5859H24.1396C24.0919 58.4665 24.0441 58.3352 24.0322 58.2039C24.1038 58.1681 24.1277 58.2636 24.1515 58.3113ZM23.9605 58.0726C23.7099 58.0726 23.8173 57.7741 23.7457 57.6189C23.7337 57.5831 23.7576 57.5354 23.7934 57.5234C23.877 57.4757 23.9486 57.5592 23.9725 57.6189C23.9605 57.7741 24.1635 57.9771 23.9605 58.0726ZM23.9367 58.5978C23.8412 58.6575 23.865 58.5142 23.8173 58.4665C23.8292 58.3591 23.7457 58.2636 23.7934 58.1681C23.9008 58.1442 23.9009 58.2755 23.9367 58.3471C23.9367 58.4187 23.9844 58.5262 23.9367 58.5978ZM24.9514 58.3949C25.0349 58.5739 25.0946 58.7649 25.1065 58.9679C25.0946 58.9917 25.0588 59.0037 25.0349 58.9917C25.0349 58.9917 25.023 58.9918 25.023 58.9798C24.8678 58.7291 24.8081 58.4426 24.6887 58.1919C24.6887 58.1442 24.6887 58.0845 24.7365 58.0606C24.8678 58.1084 24.9036 58.2755 24.9514 58.3949ZM24.82 57.2369L24.8797 57.1892C25.1065 57.2608 25.1065 57.5354 25.202 57.7144C25.214 57.7861 25.1782 57.8577 25.1065 57.8816C25.0588 57.8935 25.0349 57.8577 25.011 57.8338C24.9633 57.6309 24.8081 57.4518 24.82 57.2369ZM24.7604 57.9054C24.7365 57.9293 24.6887 57.9054 24.6649 57.9174C24.5932 57.7502 24.5335 57.5831 24.4739 57.416C24.4739 57.3682 24.5097 57.3324 24.5455 57.3086C24.7365 57.3205 24.7126 57.5473 24.7962 57.6667C24.8081 57.7502 24.8439 57.8696 24.7604 57.9054ZM24.629 58.371C24.6649 58.5023 24.7007 58.6456 24.7365 58.7769C24.6529 58.7888 24.641 58.6694 24.5932 58.6097C24.5813 58.4426 24.4261 58.2994 24.4858 58.1203C24.5455 58.2039 24.5932 58.2874 24.629 58.371ZM25.3453 59.0395C25.1424 58.7769 25.1304 58.4426 24.9633 58.1561C24.9991 58.1322 24.9514 58.0845 25.011 58.0606C25.0707 58.0367 25.1185 58.1084 25.1424 58.1561C25.2259 58.4426 25.3811 58.7052 25.405 59.0156C25.393 59.0514 25.3692 59.0395 25.3453 59.0395ZM25.2975 58.18C25.2379 58.0129 25.4647 57.9532 25.393 57.7861C25.2975 57.5234 25.2379 57.225 24.9991 57.0459C24.7962 56.9504 24.7007 57.2131 24.4858 57.1534C24.3545 57.3444 24.0919 57.2011 23.9486 57.3682C23.9247 57.2847 23.9367 57.1892 23.9725 57.1056C23.9486 56.7594 23.7934 56.3655 23.9605 56.0312L24.1038 55.9357C24.3306 55.8402 24.5813 55.876 24.7723 56.0312C24.9991 56.4013 25.1424 56.7952 25.3334 57.1772C25.4289 57.4279 25.5363 57.7264 25.4647 58.0009C25.3811 58.1681 25.5124 58.2994 25.5602 58.4426C25.6437 58.6814 25.7154 58.9321 25.7512 59.1947C25.5721 58.8843 25.4169 58.5381 25.2975 58.18ZM20.1644 49.2268H26.3122C26.0735 49.4894 26.0377 49.8356 26.0377 50.1938V55.5537H20.1644V49.2268ZM14.8641 51.4353C14.8402 51.3159 14.8999 51.2085 15.0074 51.1488C15.0909 51.1249 15.1745 51.1488 15.2461 51.0891C15.2103 50.9458 15.1745 50.7309 15.3297 50.6354C15.3774 50.6235 15.4371 50.6593 15.4729 50.6116C15.449 50.5041 15.4729 50.3967 15.5326 50.3131C15.652 50.2296 15.8669 50.2296 15.8549 50.0266C15.8907 49.9669 15.9504 49.9311 16.0221 49.9311C16.1653 49.8834 16.3444 50.0863 16.3563 49.8356C16.5473 49.573 16.8816 49.8118 17.1442 49.7401C17.3113 49.7879 17.3113 49.9908 17.4068 50.0863C17.5381 49.955 17.7052 49.8595 17.8963 49.9192C17.9918 49.955 18.135 49.9908 18.1708 50.1221C18.1828 50.1579 18.1708 50.2057 18.2186 50.2296C18.3141 50.1938 18.3857 50.0983 18.5051 50.1579C18.6722 50.2296 18.6961 50.3967 18.6961 50.5519C18.7796 50.5638 18.8871 50.5041 18.9468 50.5996C19.0064 50.6713 18.8274 50.8026 18.9945 50.8264C19.0423 50.8503 19.0542 50.8981 19.0423 50.9458C19.0423 50.9458 19.0423 50.9458 19.0423 50.9578C19.09 51.0055 19.2094 51.0174 19.2094 51.1129C19.281 51.2801 19.0781 51.4114 19.2094 51.5427C19.2333 51.6024 19.1616 51.6621 19.2213 51.7098C19.3049 51.686 19.3526 51.7456 19.4123 51.7695C19.4601 51.8531 19.472 51.9486 19.4481 52.0321C19.4839 52.2351 19.0542 52.1993 19.281 52.4022C19.281 52.4977 19.2213 52.5813 19.1378 52.6171C19.0781 52.6529 19.0303 52.5693 18.9826 52.6171C18.9945 52.7723 18.899 52.9275 18.7558 52.9871C18.6483 52.9991 18.5051 53.0349 18.3976 52.9871L18.2305 52.7961C18.1231 52.9036 17.9559 52.9513 17.8127 52.9155C17.5262 52.8081 17.8007 52.4141 17.5262 52.2948C17.2874 52.2351 17.1084 52.4858 16.9771 52.641L16.9174 52.629C16.7144 52.3783 16.6309 52.0799 16.4876 51.8053C16.4518 51.8053 16.416 51.8053 16.416 51.8411C16.4637 52.1873 16.6667 52.4619 16.8577 52.7365C16.9054 52.7723 16.9412 52.8439 17.0009 52.7961C17.1322 52.6529 17.2277 52.4858 17.4307 52.438C17.4904 52.5455 17.5142 52.6887 17.4784 52.8081C17.1442 53.1185 17.3113 53.6557 17.2874 54.0854C17.3471 54.539 17.2994 55.0285 17.5739 55.3985C17.4068 55.4702 17.2039 55.4344 17.0606 55.3269C16.9174 55.315 16.8219 55.4582 16.6667 55.4344C16.6189 55.3985 16.5473 55.4463 16.5115 55.3985C16.8935 55.0643 16.7502 54.5032 16.7741 54.0615C16.6547 53.6079 16.8935 52.9991 16.4757 52.6648C16.3444 52.438 16.2489 52.2112 16.1772 51.9605C16.1534 51.9247 16.1176 51.9247 16.0817 51.9247C15.9982 52.0083 16.034 52.1396 15.9146 52.1993C15.7355 52.3067 15.6281 51.9844 15.4729 52.1754C15.4013 52.1754 15.3297 52.1396 15.2939 52.0799C15.2819 52.056 15.2819 52.0321 15.258 52.0202C15.2222 52.0083 15.2103 52.0441 15.1984 52.056C15.1864 52.1635 15.2461 52.259 15.3416 52.3067C15.4132 52.3306 15.4968 52.3306 15.5565 52.2948C15.6042 52.1515 15.7117 52.2948 15.7833 52.2828L16.1056 52.2709C16.2131 52.5455 16.3563 52.8081 16.5234 53.0588C16.5354 53.1304 16.5234 53.214 16.4518 53.214C16.3086 53.0707 16.3086 53.3214 16.1772 53.3095C16.1056 53.3214 16.0221 53.2975 15.9624 53.2498L15.843 53.1065C15.7594 53.1185 15.6281 53.1423 15.5923 53.0588C15.5684 53.011 15.5804 52.9633 15.5684 52.9155C15.4849 52.9155 15.3655 52.9394 15.2819 52.8678C15.1506 52.7961 15.3058 52.5216 15.067 52.5693C14.9357 52.5096 14.8402 52.3783 14.8522 52.2351C14.8641 52.1276 14.8999 51.9605 14.7567 51.9366C14.6373 51.7576 14.697 51.5427 14.8641 51.4353ZM14.2553 55.6612H20.1644V62.5253C19.9256 62.1791 19.4362 61.9761 18.9706 62.0358H15.461C14.8999 61.9284 14.4344 61.5106 14.2911 60.9495L14.2553 60.5914V55.6612ZM22.9339 56.8191C22.9578 56.8072 22.9936 56.7714 22.9936 56.7594C22.9578 56.7236 22.922 56.7117 22.8742 56.7117C22.8384 56.7236 22.8026 56.7475 22.8026 56.7952C22.8265 56.843 22.8981 56.8072 22.9339 56.8191ZM15.8072 51.3517C15.9266 51.3636 16.0817 51.3995 16.1653 51.2801C16.2727 51.1607 16.3444 51.3756 16.4637 51.3398C16.6667 51.3636 16.5712 51.0413 16.798 51.1249C16.9174 51.101 17.0129 51.0175 17.0606 50.91C16.989 50.719 17.1919 50.6474 17.18 50.4683C17.1681 50.4086 17.1084 50.3251 17.0367 50.3609C17.0367 50.3728 17.0367 50.3967 17.0487 50.3967C17.0845 50.4564 17.0726 50.5519 17.0248 50.5996C16.8816 50.6354 16.989 50.8264 16.9293 50.922C16.8816 51.1846 16.5712 50.9458 16.5473 51.1607C16.5234 51.2443 16.4279 51.292 16.3444 51.2681C16.2011 51.0533 16.0937 51.3875 15.9146 51.292C15.843 51.2801 15.7833 51.2323 15.7475 51.1726C15.6997 51.1249 15.7475 50.9816 15.64 50.9936C15.6042 51.0294 15.5923 51.0771 15.6042 51.1249C15.6281 51.2204 15.6997 51.3039 15.8072 51.3517ZM16.034 60.3526L17.1919 59.5528L18.3379 60.3526C18.2186 59.899 18.0514 59.4693 17.9679 59.0037C18.3141 58.7291 19.0064 58.18 19.0064 58.18H17.6814C17.5023 57.7622 17.3591 57.2847 17.1681 56.8788C16.9771 57.2847 16.8457 57.7622 16.6667 58.18H15.3416C15.3416 58.18 16.0459 58.7172 16.3802 59.0037C16.3205 59.4693 16.1653 59.8871 16.034 60.3526Z" fill="black"/>
</svg>
