<svg width="120" height="120" viewBox="0 0 120 120" fill="none" xmlns="http://www.w3.org/2000/svg">
<path d="M41.4556 52.782C40.3899 52.782 39.37 52.7808 38.35 52.7832C38.2457 52.7832 38.1847 52.7257 38.1261 52.6542C36.9983 51.2626 35.8717 49.8699 34.745 48.4783C34.7274 48.456 34.7169 48.429 34.6805 48.361C34.9396 48.361 35.1741 48.361 35.4074 48.361C36.1694 48.361 36.9315 48.361 37.6935 48.3599C37.8143 48.3599 37.9174 48.3622 38.01 48.4759C39.1332 49.871 40.2633 51.2615 41.3899 52.653C41.4075 52.6765 41.4169 52.7058 41.4556 52.782Z" fill="black"/>
<path fill-rule="evenodd" clip-rule="evenodd" d="M15.5008 48.1206C15.3253 48.0984 15.1502 48.0762 14.9861 48H13.2416C13.0495 48.0488 12.8549 48.0856 12.6603 48.1224C12.3503 48.181 12.0402 48.2397 11.7398 48.347C9.6964 49.0762 8.49825 50.4913 8.17585 52.6437C8.15566 52.7776 8.14549 52.9129 8.13533 53.0482C8.11541 53.3134 8.09549 53.5786 8 53.8325V60.2042C8.09491 60.4454 8.11445 60.6984 8.13398 60.9513C8.14389 61.0796 8.15379 61.2078 8.17351 61.3344C8.43963 63.0449 9.29897 64.3309 10.8629 65.1094C12.1584 65.7542 13.5453 65.8773 14.9661 65.7413C17.3425 65.5138 19.781 64.0484 20.0612 60.679C20.1563 59.5358 20.1602 58.3925 20.1642 57.2492C20.1656 56.8415 20.167 56.4337 20.1726 56.026C20.1749 55.856 20.1269 55.8114 19.9569 55.8114C18.1198 55.8173 16.2815 55.8185 14.4444 55.8114C14.2674 55.8114 14.2287 55.8677 14.2299 56.033C14.2381 56.8044 14.2405 57.5758 14.2287 58.3472C14.2252 58.5559 14.2803 58.6204 14.4949 58.6169C14.9421 58.6099 15.3894 58.6105 15.8367 58.611C16.2229 58.6114 16.6092 58.6118 16.9955 58.6075C17.1772 58.6051 17.2452 58.6485 17.23 58.8384C17.2148 59.0249 17.2058 59.2122 17.1968 59.3995L17.1968 59.3996L17.1968 59.3996L17.1968 59.3996L17.1968 59.3997L17.1968 59.3997L17.1968 59.3998L17.1968 59.3998L17.1968 59.3998L17.1968 59.3999L17.1968 59.3999L17.1968 59.4L17.1968 59.4L17.1968 59.4L17.1967 59.4001L17.1967 59.4001L17.1967 59.4002C17.1841 59.6625 17.1714 59.925 17.142 60.1855C17.0647 60.8807 16.8806 61.5396 16.3695 62.0636C15.455 63.0027 13.6062 63.2055 12.3659 62.5009C11.4409 61.9757 11.0962 61.1105 11.0223 60.1233C10.8617 57.9756 10.8629 55.8231 11.0212 53.6742C11.0798 52.8794 11.3072 52.1349 11.9462 51.5886C12.7 50.9461 13.6004 50.8008 14.5441 50.9028C15.6203 51.0188 16.4668 51.5053 16.8958 52.5546C16.9427 52.6695 17.0002 52.7012 17.1151 52.7012C18.0178 52.6988 18.9217 52.6976 19.8256 52.7023C19.9627 52.7023 19.9991 52.6625 19.9721 52.5288C19.8654 51.9884 19.7435 51.4514 19.495 50.9567C18.7259 49.4291 17.4469 48.5698 15.8149 48.1723C15.7116 48.1473 15.6061 48.1339 15.5008 48.1206ZM30.0281 48.1248C29.8505 48.1009 29.6732 48.077 29.5069 48H27.5186C27.3715 48.0902 27.2076 48.1103 27.044 48.1304C26.9546 48.1414 26.8653 48.1523 26.7788 48.1747C24.6662 48.7187 23.2195 49.9449 22.7178 52.1279C22.5091 53.0388 22.461 53.9696 22.454 54.9017C22.4512 55.2818 22.4459 55.662 22.4406 56.0422C22.4174 57.7133 22.3942 59.3851 22.5794 61.0507C22.8186 63.2043 23.9429 64.6991 26.0098 65.4001C27.6182 65.9453 29.2701 65.9676 30.8879 65.4376C32.7977 64.8128 34.0217 63.5255 34.4296 61.5278C34.6102 60.6415 34.6536 59.7412 34.6606 58.8408C34.6633 58.5008 34.6679 58.1608 34.6726 57.8207V57.8207V57.8206V57.8206V57.8206V57.8205V57.8205V57.8205V57.8204V57.8204V57.8204V57.8203V57.8203V57.8203V57.8202V57.8202V57.8202C34.6957 56.1189 34.7188 54.4175 34.5058 52.7234C34.2116 50.3775 32.6324 48.6753 30.3053 48.17C30.2139 48.1499 30.1209 48.1373 30.0281 48.1248ZM25.3601 56.93L25.3603 56.8994L25.3594 56.6129V56.6129C25.3562 55.658 25.353 54.7034 25.4564 53.7528C25.6956 51.5628 27.2009 50.4936 29.3803 50.9625C30.6922 51.2439 31.4472 52.0657 31.616 53.4022C31.7729 54.6494 31.7586 55.901 31.7442 57.1524V57.1524V57.1525V57.1526V57.1526V57.1527V57.1527V57.1528V57.1528V57.1529V57.153V57.153V57.1531V57.1531V57.1532V57.1532V57.1533V57.1534C31.7391 57.6026 31.7339 58.0518 31.7367 58.5008C31.7414 59.2511 31.7156 60.0038 31.5491 60.7388C31.2959 61.8584 30.6148 62.556 29.4729 62.8045C28.7085 62.971 27.9606 62.9628 27.2255 62.6932C26.066 62.2676 25.5959 61.3508 25.4693 60.1972C25.3508 59.1101 25.3555 58.0206 25.3601 56.93ZM110.422 48C110.497 48.0701 110.591 48.0938 110.684 48.1176L110.684 48.1176C110.741 48.132 110.798 48.1464 110.851 48.1712C111.744 48.592 112.186 49.5921 111.926 50.6226C111.702 51.5077 110.867 52.1173 109.933 52.0786C108.885 52.0353 108.142 51.3682 107.992 50.3447C107.837 49.2861 108.464 48.2638 109.462 48.0563C109.476 48.0532 109.488 48.0384 109.499 48.0232V48.0232L109.499 48.0231L109.499 48.0231V48.0231C109.506 48.0149 109.512 48.0066 109.519 48H110.422ZM111.626 50.0622C111.628 49.0938 110.921 48.3611 109.982 48.3623C109.061 48.3634 108.349 49.0938 108.344 50.0411C108.341 50.9965 109.031 51.707 109.975 51.7164C110.908 51.7258 111.624 51.0071 111.626 50.0622ZM97.3577 64.0626C98.247 62.399 99.1362 60.7353 100.049 59.0307L100.055 59.0411C100.101 59.1243 100.124 59.1649 100.15 59.2066L100.804 60.4301C101.664 62.0405 102.525 63.6502 103.381 65.263C103.471 65.4329 103.564 65.5056 103.768 65.5009C104.236 65.4892 104.704 65.4913 105.173 65.4934H105.173H105.173H105.173H105.173H105.174H105.174H105.174H105.174H105.174H105.174H105.174H105.174H105.174H105.174C105.358 65.4943 105.542 65.4951 105.725 65.4951H107.191C107.133 65.3943 107.101 65.3356 107.068 65.2759L106.482 64.2008C105.19 61.83 103.898 59.4595 102.601 57.0916C102.505 56.9169 102.5 56.7821 102.599 56.6039C103.564 54.8588 104.524 53.1099 105.485 51.3606L105.487 51.3552L105.836 50.721C106.183 50.0878 106.529 49.4537 106.885 48.8036L107.126 48.3611C106.815 48.3611 106.506 48.3625 106.2 48.3639C105.433 48.3675 104.681 48.371 103.929 48.3517C103.58 48.3423 103.409 48.4478 103.248 48.7585C102.822 49.5843 102.384 50.4038 101.945 51.2231L101.945 51.2232L101.945 51.2233L101.945 51.2234L101.945 51.2236L101.945 51.2237L101.945 51.224L101.945 51.2244C101.319 52.3947 100.693 53.5648 100.103 54.7528C100.023 54.7287 99.9985 54.6676 99.9749 54.6094C99.9685 54.5938 99.9623 54.5784 99.9551 54.564C99.324 53.3157 98.6601 52.0845 97.9962 50.8533L97.9961 50.8531L97.996 50.8529L97.9959 50.8528L97.9958 50.8525C97.5881 50.0964 97.1804 49.3403 96.7803 48.5803C96.6947 48.4197 96.6045 48.3552 96.4157 48.3576C95.7753 48.3642 95.1354 48.3639 94.4953 48.3636C94.1113 48.3634 93.7272 48.3633 93.343 48.3646C93.3264 48.3646 93.3091 48.3624 93.2914 48.3602C93.2324 48.3527 93.169 48.3447 93.1167 48.415C93.1301 48.4405 93.1435 48.4665 93.157 48.4927L93.1574 48.4934C93.1793 48.5358 93.2015 48.5788 93.2246 48.6213L93.7747 49.6298C95.0414 51.9515 96.3082 54.2735 97.5822 56.591C97.6866 56.7821 97.6807 56.9193 97.5775 57.1045C96.6836 58.7094 95.7954 60.3179 94.9073 61.926L94.9073 61.9261L94.9072 61.9262L94.9072 61.9263L94.9072 61.9264L94.9071 61.9265L94.9071 61.9266L94.9068 61.927L94.9066 61.9275L94.9064 61.9279L94.9061 61.9283L94.9059 61.9288L94.9057 61.9292L94.9055 61.9296L94.9052 61.93L94.9008 61.9381C94.6461 62.3993 94.3914 62.8605 94.1367 63.3215C93.785 63.957 93.4343 64.5925 93.0712 65.2503L93.0537 65.2822L93.0494 65.2899L92.9362 65.4951L93.738 65.4949C94.659 65.4944 95.5608 65.4941 96.4626 65.4986C96.5915 65.4986 96.63 65.4263 96.6757 65.3405L96.6783 65.3356C96.7914 65.1241 96.9042 64.9126 97.017 64.7011C97.1299 64.4894 97.2428 64.2777 97.3559 64.066L97.3577 64.0626ZM51.197 55.1352V55.1352V55.1352C51.1976 52.9787 51.1982 50.8221 51.1908 48.6647C51.1896 48.4208 51.2389 48.3528 51.4956 48.3528C54.8392 48.3634 58.1816 48.3622 61.5251 48.354C61.7409 48.354 61.8135 48.3915 61.8077 48.626C61.7901 49.3669 61.7901 50.109 61.8065 50.85C61.8124 51.1009 61.7667 51.1853 61.4876 51.1829C60.1679 51.1749 58.8485 51.1745 57.5291 51.1741C56.5395 51.1738 55.55 51.1735 54.5602 51.17C54.3316 51.1688 54.26 51.2169 54.2636 51.4584C54.2776 52.68 54.2753 53.9028 54.2647 55.1244C54.2624 55.3354 54.3187 55.3882 54.5297 55.3882C55.4806 55.3843 56.4317 55.3841 57.3828 55.3838C58.4698 55.3835 59.5568 55.3832 60.6435 55.3776C60.9026 55.3764 61.0058 55.4198 60.9964 55.7117C60.973 56.4527 60.9765 57.1948 60.9952 57.9357C61.0011 58.1819 60.919 58.2253 60.6928 58.2241C59.6242 58.2198 58.5556 58.2194 57.4871 58.2189C56.5075 58.2185 55.528 58.2181 54.5484 58.2147C54.3374 58.2135 54.26 58.244 54.2624 58.4832C54.2765 59.7951 54.2741 61.1081 54.2636 62.42C54.2624 62.6286 54.3116 62.6837 54.525 62.6826C55.6062 62.6788 56.6872 62.6782 57.7682 62.6777H57.7691C59.0167 62.6771 60.2643 62.6765 61.5123 62.6708C61.7526 62.6697 61.81 62.7353 61.8053 62.9675C61.7901 63.7283 61.7924 64.4903 61.8042 65.2512C61.8077 65.4482 61.7538 65.4974 61.558 65.4962C58.1851 65.4904 54.8111 65.4892 51.4382 65.4974C51.2025 65.4986 51.192 65.4071 51.192 65.2207C51.197 62.845 51.1969 60.4666 51.1967 58.0879V58.0879V58.0879V58.0878V58.0878V58.0878V58.0877V58.0877V58.0877V58.0876V58.0876V58.0876V58.0876V58.0875L51.1967 56.8993C51.1967 56.3114 51.1968 55.7235 51.197 55.1355V55.1355V55.1355V55.1354V55.1354V55.1354V55.1353V55.1353V55.1352ZM80.8693 55.2503L80.869 56.897L80.8691 58.0885C80.8692 60.4663 80.8694 62.844 80.8644 65.2208C80.8644 65.4119 80.8819 65.4998 81.1152 65.4986C84.2279 65.4904 87.3405 65.4916 90.4531 65.4975C90.6184 65.4975 90.7028 65.4447 90.7813 65.3052C91.1018 64.7388 91.4272 64.1754 91.7526 63.612L91.7527 63.6119L91.7527 63.6119L91.7528 63.6118L91.7528 63.6117L91.7529 63.6117L91.7529 63.6116L91.753 63.6115L91.753 63.6115L91.7531 63.6114L91.7531 63.6114L91.7531 63.6113L91.7532 63.6112L91.7574 63.6039C91.8804 63.3911 92.0033 63.1782 92.126 62.9652L92.1268 62.9639C92.2913 62.6779 92.292 62.6768 91.9619 62.6768L90.5616 62.6766H90.5607C88.4568 62.6763 86.3531 62.6759 84.2501 62.6826C84.0016 62.6826 83.9101 62.6463 83.9137 62.3637C83.9324 61.0824 83.9301 59.7998 83.9148 58.5172C83.9125 58.257 83.991 58.2124 84.2325 58.2136C85.2549 58.2192 86.2775 58.2195 87.3003 58.2198C88.1952 58.2201 89.0903 58.2203 89.9853 58.2241C90.1881 58.2241 90.2585 58.1878 90.2538 57.9674C90.2385 57.196 90.2374 56.4246 90.2538 55.6532C90.2585 55.4234 90.1916 55.3765 89.9712 55.3777C88.9773 55.3825 87.9831 55.383 86.9887 55.3834C86.0654 55.3838 85.1419 55.3843 84.2185 55.3882C83.9899 55.3894 83.9125 55.3425 83.9148 55.0963C83.9289 53.8946 83.9324 52.6918 83.9137 51.4901C83.909 51.2099 83.9981 51.1701 84.249 51.1712C85.5869 51.1761 86.9249 51.1766 88.2628 51.177H88.2631C89.5054 51.1774 90.7477 51.1778 91.99 51.1818C92.2562 51.183 92.2714 51.1314 92.1424 50.9145C91.6887 50.1501 91.2456 49.3787 90.8118 48.6014C90.7122 48.4221 90.6031 48.3564 90.3933 48.3564C87.3217 48.3634 84.249 48.3646 81.1762 48.3552C80.93 48.3541 80.8608 48.4068 80.862 48.6624C80.8705 50.858 80.8699 53.0544 80.8693 55.2503ZM39.8413 48.3505C40.3862 48.37 40.9199 48.3637 41.4464 48.3575C42.2203 48.3484 42.9789 48.3394 43.7358 48.4127C46.6902 48.6999 48.3737 50.4397 48.5753 53.401C48.7629 56.1432 47.0372 58.3144 44.2704 58.8185C44.1176 58.8466 43.9642 58.8698 43.797 58.8952L43.7969 58.8952L43.7968 58.8952C43.7063 58.9089 43.6116 58.9232 43.5108 58.9393C45.3385 61.1234 47.1404 63.277 48.9962 65.4951H48.3479L47.6643 65.4949C46.8679 65.4944 46.0719 65.494 45.2752 65.4986C45.1321 65.4998 45.036 65.4599 44.9434 65.3497C43.1781 63.2436 41.4111 61.1386 39.644 59.0336L37.5622 56.5535C37.556 56.5459 37.5518 56.5363 37.5442 56.5187L37.5441 56.5186L37.5441 56.5186L37.5441 56.5186C37.5388 56.5062 37.5318 56.49 37.5212 56.4679H37.8201C38.2117 56.4679 38.6033 56.4682 38.9949 56.4685H38.9949H38.995H38.9951H38.9952H38.9952H38.9953H38.9954H38.9954H38.9955H38.9956H38.9956C40.0399 56.4692 41.0839 56.4698 42.1274 56.4656C42.6092 56.4644 43.0887 56.407 43.5565 56.2862C44.9762 55.9216 45.6339 54.945 45.519 53.4843C45.3854 51.7926 44.3748 51.2662 42.9656 51.1302L42.9589 51.1293C42.951 51.1282 42.9434 51.1272 42.9351 51.129C42.2282 51.2615 41.805 50.9098 41.4228 50.3553C41.0984 49.883 40.7329 49.4394 40.3525 48.9777C40.1842 48.7735 40.0131 48.5658 39.8413 48.3505ZM74.3924 59.9128C74.3927 59.396 74.393 58.8792 74.393 58.3624C74.393 57.7868 74.3932 57.2112 74.3934 56.6357V56.6355V56.6352V56.635V56.6348V56.6346V56.6344V56.6341V56.6339V56.6337V56.6335C74.3941 54.9055 74.3947 53.1781 74.3895 51.4514C74.3883 51.2298 74.4363 51.1689 74.665 51.1712C75.359 51.1786 76.0534 51.1783 76.7478 51.178C77.2686 51.1778 77.7893 51.1776 78.3098 51.1806C78.4962 51.1818 78.5701 51.1466 78.5666 50.9379C78.5537 50.1571 78.556 49.3751 78.5654 48.5944C78.5677 48.4185 78.5361 48.3575 78.3403 48.3575C74.6251 48.3646 70.9111 48.3634 67.1959 48.3587C67.0259 48.3587 66.9778 48.4033 66.9802 48.5733C66.9895 49.354 66.9919 50.136 66.979 50.9168C66.9755 51.1255 67.0271 51.1853 67.2416 51.1829C67.7672 51.1783 68.2929 51.1786 68.8185 51.179C69.4875 51.1794 70.1565 51.1799 70.8255 51.17C71.0951 51.1665 71.1467 51.2392 71.1467 51.4971C71.1428 53.6722 71.1418 55.8475 71.1408 58.0229C71.1398 60.3957 71.1387 62.7685 71.1338 65.141C71.1326 65.4153 71.1748 65.5127 71.4797 65.5033C72.3425 65.4775 73.2065 65.4845 74.0694 65.4998C74.3179 65.5044 74.4024 65.4634 74.4012 65.1844C74.3903 63.4277 74.3913 61.6703 74.3924 59.9128ZM65.959 55.3847C66.1194 55.3847 66.2799 55.3852 66.4403 55.3858C66.8414 55.3873 67.2425 55.3887 67.6436 55.3812C67.8242 55.3776 67.884 55.4222 67.8816 55.6121C67.8711 56.4117 67.8711 57.2124 67.8816 58.0131C67.884 58.1925 67.8207 58.2253 67.6577 58.2241C66.5053 58.2183 65.3517 58.2183 64.1993 58.2241C64.0351 58.2253 63.9753 58.1878 63.9765 58.0107C63.9859 57.21 63.9871 56.4105 63.9753 55.6098C63.973 55.4175 64.0363 55.3776 64.2145 55.38C64.6421 55.3878 65.071 55.3866 65.4998 55.3855H65.4999H65.4999H65.5H65.5H65.5001H65.5002H65.5002H65.5003H65.5003C65.6532 55.3851 65.8061 55.3847 65.959 55.3847ZM85.9875 71.7332C86.161 72.1869 86.4588 72.3382 86.9547 72.1881C86.8855 72.0705 86.8173 71.9535 86.7494 71.8371L86.7469 71.833C86.5673 71.525 86.3902 71.2213 86.2044 70.922C86.1165 70.7789 86.1306 70.7227 86.2865 70.6382C86.7543 70.385 86.916 69.9466 86.8058 69.3229C86.7285 68.8821 86.419 68.5913 85.9313 68.4963C85.5746 68.4274 85.2155 68.435 84.8566 68.4427H84.8565H84.8565H84.8564H84.8563H84.8562H84.8562H84.8561H84.856C84.7149 68.4457 84.5739 68.4488 84.433 68.4471C84.3111 68.4459 84.2806 68.501 84.2806 68.6112C84.2823 69.4743 84.2821 70.3373 84.2819 71.2003L84.2818 72.0615C84.2818 72.2765 84.397 72.2534 84.5079 72.2312C84.5537 72.2221 84.5987 72.2131 84.6346 72.2209L84.6439 72.2229C84.7524 72.2465 84.9027 72.279 84.8902 72.0568C84.8796 71.8626 84.8821 71.6679 84.8845 71.473V71.4729V71.4728V71.4727V71.4726V71.4725V71.4724V71.4723V71.4722C84.8856 71.3873 84.8867 71.3024 84.8867 71.2174V71.2139C84.8867 71.0037 84.8867 70.8997 84.9387 70.85C84.9896 70.8013 85.0906 70.805 85.2906 70.8122L85.3111 70.8129C85.4424 70.8176 85.5092 70.8692 85.5667 70.9759C85.6156 71.0659 85.6699 71.1536 85.724 71.2412L85.7242 71.2414C85.823 71.4012 85.9217 71.5606 85.9875 71.7332ZM85.3498 68.9805V68.9735C85.3908 68.9761 85.432 68.9773 85.4732 68.9785C85.5626 68.981 85.6516 68.9836 85.7366 69.0005C86.0708 69.0673 86.2255 69.2689 86.2302 69.6148C86.2361 69.9852 86.0895 70.174 85.7402 70.2584C85.5828 70.2964 85.4244 70.2934 85.2661 70.2903C85.1849 70.2888 85.1037 70.2873 85.0227 70.2912C84.916 70.2971 84.8855 70.2408 84.8867 70.1447L84.8874 70.0435V70.0433V70.0432V70.043V70.0429V70.0427V70.0425V70.0424V70.0422C84.8896 69.7374 84.8919 69.4316 84.8855 69.1259C84.8832 68.9981 84.943 68.9735 85.0496 68.9794C85.1194 68.9826 85.1898 68.9819 85.2599 68.9812H85.26C85.29 68.9808 85.3199 68.9805 85.3498 68.9805ZM92.0885 72.2256C91.3828 72.235 91.3828 72.235 91.3828 71.521C91.3828 71.2685 91.3833 71.0159 91.3839 70.7632V70.7631V70.763V70.7628V70.7627V70.7626V70.7625V70.7624C91.3856 70.0758 91.3872 69.3889 91.3769 68.7027C91.3734 68.4858 91.4449 68.4272 91.6454 68.4366C91.7821 68.443 91.9192 68.4413 92.0564 68.4396C92.1698 68.4383 92.2833 68.4369 92.3968 68.4401C93.5235 68.4729 94.1272 69.052 94.2034 70.1775C94.2187 70.3956 94.207 70.6148 94.1648 70.834C94.0006 71.6852 93.4367 72.1822 92.5692 72.2256C92.4629 72.2303 92.3562 72.2287 92.2492 72.2272C92.1957 72.2264 92.1421 72.2256 92.0885 72.2256ZM91.9865 70.3627L91.9862 70.6487V70.6488V70.6489V70.649V70.6491V70.6492V70.6493V70.6494C91.9858 70.9345 91.9853 71.2192 91.9889 71.5046C91.9891 71.519 91.9873 71.5343 91.9855 71.5497C91.9787 71.6071 91.9716 71.6671 92.0686 71.6957C92.4144 71.8 93.0803 71.6336 93.2914 71.344C93.731 70.7437 93.6829 70.0931 93.3746 69.4706C93.1425 69.0005 92.6653 68.9665 92.1987 68.9805L92.1883 68.9808C92.1817 68.9811 92.1752 68.9813 92.1682 68.9805C92.0252 68.9571 91.9795 69.0145 91.983 69.1611C91.9898 69.4505 91.9886 69.7399 91.9874 70.0289V70.0296C91.987 70.1407 91.9865 70.2518 91.9865 70.3627ZM87.7134 70.1334V70.1336C87.7145 70.2085 87.7157 70.2834 87.7157 70.358H87.7075C87.7075 70.4259 87.707 70.4938 87.7066 70.5616V70.5617V70.5618V70.5619V70.562V70.5621V70.5622C87.7056 70.7145 87.7046 70.8666 87.7086 71.0181C87.7321 71.854 88.1717 72.276 89.0146 72.2783C89.8095 72.2795 90.2491 71.9384 90.3324 71.1869C90.3969 70.6019 90.3969 70.0075 90.3206 69.4213C90.2456 68.8492 89.908 68.5139 89.3406 68.4002C88.4378 68.2185 87.7696 68.7249 87.718 69.6394C87.7083 69.8027 87.7109 69.9677 87.7134 70.1325V70.1326V70.1328V70.133V70.1331V70.1333V70.1334ZM89.7474 70.3346H89.7532C89.7532 70.4129 89.7545 70.4912 89.7558 70.5697V70.5698V70.5699V70.5701V70.5702V70.5704V70.5705V70.5707V70.5708V70.571V70.5712C89.7586 70.7425 89.7613 70.914 89.7509 71.0849C89.7251 71.528 89.473 71.7566 89.0334 71.7566C88.5903 71.7566 88.3288 71.5304 88.3159 71.0896C88.3007 70.5808 88.3019 70.0696 88.323 69.5608C88.3405 69.1353 88.6008 68.9149 89.0299 68.9137C89.4543 68.9113 89.7145 69.1353 89.7439 69.5561C89.7568 69.7341 89.7535 69.9133 89.7503 70.0928L89.7503 70.0938C89.7488 70.174 89.7474 70.2543 89.7474 70.3346ZM95.7518 70.2178V70.2179C95.7488 70.4878 95.7458 70.7579 95.758 71.0274C95.7803 71.5245 96.0019 71.7461 96.4485 71.7543C96.921 71.7637 97.1707 71.5515 97.1895 71.0521C97.2176 70.283 97.2176 69.5128 97.2106 68.7425C97.2082 68.5151 97.2563 68.433 97.5025 68.4389C97.7323 68.4447 97.8366 68.4705 97.8284 68.7425C97.8191 69.0465 97.8197 69.3508 97.8202 69.655C97.821 70.1605 97.8219 70.6658 97.778 71.1693C97.7112 71.9302 97.2692 72.2842 96.4239 72.2783C95.6689 72.2737 95.2258 71.8844 95.1718 71.1541C95.1343 70.6383 95.1394 70.1212 95.1445 69.6042V69.6039C95.1477 69.2807 95.1509 68.9575 95.1437 68.6347C95.1394 68.4174 95.2552 68.4315 95.3684 68.4452C95.4086 68.4501 95.4484 68.4549 95.4825 68.4494C95.6361 68.4236 95.7475 68.4424 95.7369 68.6569C95.7246 68.9378 95.7272 69.2187 95.7299 69.4999L95.73 69.5021C95.7311 69.6204 95.7322 69.7389 95.7322 69.8574C95.7404 69.8586 95.7475 69.8586 95.7545 69.8586C95.7545 69.9781 95.7532 70.0977 95.7518 70.2173V70.2174V70.2176V70.2177V70.2178ZM80.8676 69.8778V69.8779V69.878V69.8781C80.8671 70.0335 80.8667 70.1888 80.8667 70.344C80.8667 70.5021 80.8677 70.6602 80.8687 70.8181V70.8184V70.8187V70.819V70.8192C80.8713 71.2206 80.874 71.6214 80.8596 72.0216C80.8522 72.2485 80.9692 72.2384 81.0869 72.2281C81.1182 72.2254 81.1495 72.2227 81.1785 72.2244C81.1919 72.2253 81.2054 72.2264 81.2188 72.2275C81.3511 72.2384 81.4778 72.2489 81.4576 72.0157C81.4425 71.8364 81.4454 71.6554 81.4484 71.4743V71.4742V71.4741V71.474V71.4739V71.4735C81.4505 71.3447 81.4526 71.2158 81.4482 71.0872C81.4435 70.9419 81.4927 70.8985 81.6357 70.902C81.9159 70.909 82.1961 70.9126 82.474 70.8551C83.0989 70.725 83.4084 70.3299 83.4013 69.6534C83.3943 69.0016 83.0731 68.6054 82.4611 68.4928C82.1366 68.4329 81.8104 68.438 81.484 68.443C81.3505 68.4451 81.217 68.4471 81.0836 68.4447C80.9112 68.4412 80.8608 68.4963 80.8632 68.6651C80.8699 69.069 80.8688 69.4735 80.8676 69.8778ZM81.5075 69.0366C81.5624 68.9817 81.6723 68.9817 81.8925 68.9817L81.9323 68.9814L81.9759 68.9808C82.0383 68.9798 82.1005 68.9788 82.1621 68.9829C82.6018 69.0098 82.8222 69.256 82.8151 69.7109C82.8093 70.12 82.5865 70.344 82.1586 70.3698C81.4529 70.4131 81.4529 70.4131 81.4529 69.7191V69.419C81.4529 69.2007 81.4529 69.0914 81.5075 69.0366ZM106.146 72.2784C105.568 72.276 105.2 72.0498 105.037 71.5843C105.032 71.5676 105.023 71.5487 105.015 71.5289C104.974 71.4346 104.923 71.3185 105.088 71.3088C105.132 71.3061 105.181 71.2825 105.232 71.2581C105.358 71.1979 105.493 71.1337 105.575 71.3733C105.669 71.6465 105.875 71.7567 106.156 71.7555C106.418 71.7543 106.633 71.6746 106.72 71.4026C106.805 71.133 106.653 70.9583 106.449 70.8282C106.326 70.7505 106.194 70.6853 106.063 70.6203L106.062 70.6202C106.006 70.5921 105.949 70.5641 105.893 70.5351C105.688 70.4284 105.491 70.3112 105.335 70.1353C105.071 69.8387 104.997 69.2842 105.193 68.9231C105.433 68.4799 105.841 68.3568 106.313 68.3815C106.754 68.4037 107.091 68.6488 107.213 69.052C107.216 69.061 107.22 69.0709 107.224 69.0815C107.228 69.0911 107.233 69.1013 107.238 69.1118C107.279 69.2015 107.333 69.3177 107.159 69.3299C107.117 69.3328 107.07 69.353 107.022 69.3736C106.897 69.4271 106.764 69.4841 106.686 69.2549C106.594 68.9876 106.392 68.895 106.12 68.9137C105.908 68.929 105.754 69.0227 105.696 69.2314C105.621 69.5022 105.7 69.7355 105.942 69.8797C106.074 69.9583 106.21 70.0283 106.347 70.0982C106.522 70.188 106.697 70.2776 106.86 70.385C107.48 70.7942 107.512 71.6289 106.941 72.0638C106.742 72.2139 106.501 72.2796 106.146 72.2784ZM98.7885 70.0828V70.0829V70.0831C98.7904 70.169 98.7923 70.2548 98.7921 70.3404C98.7921 70.4148 98.7915 70.4892 98.7909 70.5636C98.7895 70.7495 98.788 70.9354 98.7956 71.1212C98.8132 71.6242 99.0183 72.038 99.5131 72.1928C100.055 72.3628 100.607 72.3675 101.058 71.9278C101.205 71.7848 101.288 71.6007 101.326 71.4003C101.327 71.3932 101.328 71.386 101.33 71.3788L101.33 71.3783L101.33 71.3779C101.34 71.33 101.351 71.2796 101.288 71.2432C101.151 71.1634 100.787 71.269 100.705 71.4155C100.552 71.691 100.253 71.8176 99.9023 71.7426C99.6033 71.6793 99.4286 71.4847 99.4005 71.1834C99.3478 70.6148 99.3548 70.0438 99.4029 69.4752C99.4275 69.1857 99.6033 68.9934 99.8882 68.936C100.177 68.8773 100.499 68.8902 100.627 69.1845C100.733 69.4272 100.883 69.4317 101.071 69.4373L101.071 69.4373C101.087 69.4378 101.104 69.4382 101.12 69.4389C101.328 69.4471 101.357 69.3732 101.302 69.1927C101.147 68.6851 100.694 68.3791 100.072 68.3791C99.4626 68.3791 98.9984 68.6933 98.8554 69.2068C98.7756 69.4942 98.7821 69.7887 98.7885 70.0826V70.0828ZM103.444 70.6066C103.444 70.7467 103.443 70.8867 103.441 71.0268V71.0269C103.438 71.3568 103.434 71.6866 103.45 72.0158C103.462 72.2505 103.341 72.2408 103.218 72.2309C103.203 72.2297 103.188 72.2285 103.173 72.2277C103.163 72.2271 103.153 72.2268 103.143 72.2268C103.119 72.2268 103.094 72.2287 103.069 72.2306C102.946 72.2401 102.828 72.2491 102.832 72.0146C102.841 71.4917 102.84 70.9688 102.84 70.4459C102.839 70.0391 102.838 69.6323 102.843 69.2256C102.845 69.0333 102.799 68.9536 102.598 68.9794C102.537 68.9872 102.474 68.9843 102.412 68.9815C102.343 68.9784 102.275 68.9753 102.208 68.9864C101.929 69.0333 101.871 68.9125 101.886 68.6581C101.896 68.4823 101.955 68.4448 102.118 68.4459C102.81 68.4541 103.501 68.46 104.192 68.4436C104.408 68.4387 104.404 68.5458 104.399 68.6635C104.398 68.6862 104.397 68.7093 104.397 68.732L104.398 68.7628C104.404 68.8943 104.41 69.0253 104.197 68.9829C104.19 68.9813 104.184 68.9818 104.177 68.9823C104.173 68.9826 104.17 68.9829 104.166 68.9829C104.096 68.9847 104.019 68.9782 103.941 68.9717C103.767 68.957 103.592 68.9423 103.498 69.0227C103.387 69.1168 103.408 69.293 103.429 69.4709C103.438 69.5523 103.448 69.6342 103.445 69.7086C103.439 69.9115 103.441 70.1156 103.442 70.32C103.443 70.4155 103.444 70.511 103.444 70.6066ZM110.206 50.7583C110.364 51.01 110.513 51.249 110.905 51.0903C110.885 51.0584 110.866 51.027 110.848 50.9962C110.797 50.9137 110.749 50.8343 110.7 50.755C110.681 50.7257 110.663 50.6962 110.645 50.6668C110.595 50.5854 110.545 50.5042 110.49 50.4267C110.41 50.3154 110.416 50.2591 110.551 50.1817C110.815 50.0305 110.894 49.7433 110.8 49.4244C110.713 49.129 110.507 48.9765 110.206 48.9636C110.085 48.9588 109.964 48.9604 109.843 48.9621C109.703 48.964 109.564 48.966 109.424 48.9578C109.248 48.9472 109.21 49.0105 109.212 49.1758C109.221 49.7456 109.219 50.3165 109.213 50.8863C109.212 51.0422 109.213 51.1372 109.426 51.136C109.614 51.1351 109.62 51.0501 109.628 50.9404C109.629 50.9185 109.631 50.8956 109.634 50.8722C109.642 50.812 109.632 50.7421 109.621 50.6726C109.6 50.5299 109.579 50.3885 109.718 50.3341C109.952 50.2433 110.038 50.4262 110.118 50.5954C110.14 50.6424 110.162 50.6882 110.186 50.7269C110.193 50.7373 110.199 50.7478 110.206 50.7583ZM109.63 49.6772C109.631 49.6575 109.633 49.6376 109.634 49.6178C109.567 49.3705 109.68 49.3048 109.925 49.3177C110.278 49.3376 110.438 49.4361 110.418 49.687C110.397 49.9602 110.221 49.9689 110.036 49.978C109.992 49.9802 109.947 49.9824 109.904 49.9883C109.603 50.0296 109.616 49.8606 109.63 49.6772Z" fill="black"/>
</svg>
