<svg width="120" height="120" viewBox="0 0 120 120" fill="none" xmlns="http://www.w3.org/2000/svg">
<path d="M23.0659 49.6459C23.0659 48.6525 23.0431 47.9136 23.0727 47.1794C23.1022 46.3882 23.1318 45.5926 23.25 44.8106C23.3364 44.2377 23.516 43.6648 23.741 43.1283C24.0502 42.3963 24.5753 41.803 25.196 41.3051C25.6302 40.9573 26.0871 40.6481 26.6327 40.4822C27.076 40.3481 27.5079 40.1821 27.9489 40.0344C28.008 40.0139 28.074 40.0184 28.1376 40.0184C29.0015 40.0162 29.8653 39.9912 30.7269 40.0298C31.0679 40.0457 31.4066 40.2003 31.7385 40.3094C32.0454 40.4095 32.3546 40.5186 32.6479 40.6527C33.5163 41.0505 34.2233 41.6461 34.737 42.4532C34.9666 42.8123 35.169 43.1943 35.3326 43.5898C35.4463 43.8626 35.4463 44.1831 35.5395 44.4673C35.735 45.0538 35.6168 45.6722 35.7282 46.2564C35.9623 47.4749 35.785 48.6957 35.8464 49.9141C35.8646 50.2688 35.8623 50.6234 35.8441 50.9781C35.7987 51.8146 35.7577 52.6535 35.6736 53.4855C35.6373 53.831 35.494 54.163 35.3986 54.5017C35.3417 54.6972 35.2894 54.895 35.2235 55.0882C34.9644 55.852 34.4915 56.4772 33.8709 56.9705C33.4344 57.3183 32.9684 57.6479 32.4751 57.9025C32.1045 58.0935 31.6635 58.1526 31.2566 58.2708C30.2586 58.5618 29.2356 58.4686 28.2263 58.4004C27.5238 58.3527 26.8441 58.1344 26.1849 57.8252C25.2323 57.3774 24.5049 56.7159 23.9593 55.8407C23.7774 55.5474 23.6706 55.2064 23.5387 54.8836C23.2773 54.2425 23.3068 53.5469 23.1818 52.8854C22.959 51.7146 23.1659 50.5507 23.0659 49.6459ZM32.8252 49.2253C32.8252 49.2253 32.8297 49.2253 32.8343 49.2253C32.8343 49.1526 32.8365 49.0798 32.8343 49.0071C32.7843 47.85 32.9275 46.6861 32.7138 45.5312C32.6251 45.0538 32.4796 44.6219 32.2318 44.2059C31.7385 43.3784 30.9542 43.0192 30.0722 42.9055C29.5175 42.8351 28.9378 42.8032 28.3627 43.0124C28.0171 43.1374 27.6716 43.2511 27.3715 43.4534C26.4667 44.0627 26.153 45.0152 26.1144 46.0132C26.0416 47.8841 26.0598 49.7573 26.0757 51.6305C26.0803 52.2056 26.1576 52.7876 26.2758 53.3491C26.3463 53.6901 26.519 54.0288 26.7145 54.3221C26.9441 54.6676 27.2351 54.9609 27.642 55.1405C28.0512 55.3223 28.4422 55.5679 28.9015 55.5565C29.4607 55.5429 30.0336 55.6861 30.5792 55.4133C30.8883 55.2587 31.2566 55.2041 31.5339 55.0109C32.1159 54.604 32.4978 54.0152 32.6524 53.3218C32.7638 52.8217 32.807 52.3011 32.8229 51.7896C32.8434 50.9349 32.8252 50.0801 32.8252 49.2253Z" fill="black"/>
<path d="M20.4175 44.7696C20.3425 44.7765 20.2561 44.7901 20.1674 44.7901C19.2945 44.7924 18.4215 44.7878 17.5486 44.7924C17.394 44.7924 17.328 44.7515 17.2576 44.5923C16.9689 43.9376 16.4847 43.4739 15.8299 43.1715C15.1343 42.851 14.3955 42.7714 13.6726 42.9055C12.8337 43.0601 12.0722 43.4125 11.6061 44.2195C11.3765 44.6173 11.2265 45.0243 11.1583 45.4744C10.8696 47.3908 11.0378 49.3185 11.0105 51.2395C11.0083 51.4668 11.0196 51.6941 11.0242 51.9215C11.0424 52.6489 11.1606 53.3605 11.4811 54.0175C11.7062 54.4767 12.054 54.8199 12.5109 55.0927C13.1929 55.4997 13.9135 55.5974 14.6796 55.5656C15.1866 55.5451 15.6231 55.3383 16.0686 55.1223C16.6006 54.8677 16.9416 54.4562 17.203 53.9538C17.294 53.7788 17.3758 53.5946 17.4235 53.4059C17.6122 52.6444 17.6554 51.8669 17.6395 51.0849C17.6349 50.8917 17.5099 50.878 17.3599 50.878C16.5597 50.8803 15.7595 50.8803 14.9593 50.878C14.6251 50.878 14.6092 50.8621 14.6092 50.5211C14.6092 49.83 14.6069 49.1389 14.6092 48.4479C14.6114 48.0932 14.6728 48.0318 15.0138 48.0318C16.787 48.0318 18.5602 48.0364 20.3334 48.025C20.5789 48.0228 20.638 48.0955 20.6357 48.3319C20.6221 49.5231 20.6425 50.7143 20.6175 51.9056C20.6039 52.4784 20.563 53.0604 20.4516 53.6196C20.2765 54.4903 20.0742 55.3746 19.4945 56.0839C19.108 56.559 18.6738 57.0114 18.1919 57.3865C17.8054 57.6888 17.3349 57.923 16.8643 58.0708C16.0573 58.3276 15.2184 58.4891 14.3591 58.439C13.9954 58.4186 13.6271 58.4527 13.2702 58.4027C12.8269 58.3413 12.3813 58.2458 11.954 58.1094C11.4993 57.9662 11.0196 57.8275 10.6309 57.5661C10.1467 57.241 9.71702 56.8159 9.31237 56.3885C8.99184 56.0498 8.78497 55.627 8.6122 55.1768C8.29621 54.3516 8.23028 53.5014 8.12798 52.6376C7.9052 50.7734 8.04614 48.9071 8.02114 47.0452C8.01204 46.3473 8.08024 45.6403 8.18709 44.9492C8.26893 44.4287 8.4758 43.9308 8.61902 43.4193C8.91 42.3736 9.66701 41.6802 10.4627 41.0392C10.7764 40.7868 11.1879 40.6413 11.5698 40.4867C12.0062 40.3094 12.4609 40.173 12.9087 40.023C12.9588 40.0071 13.0179 40.0093 13.0701 40.0093C13.8976 40.0093 14.7251 39.9821 15.5503 40.0207C15.8731 40.0366 16.1914 40.1912 16.5097 40.289C16.6938 40.3458 16.8734 40.4185 17.0575 40.4754C17.7736 40.6913 18.3442 41.1392 18.8807 41.637C19.4377 42.1508 19.8264 42.7851 20.1129 43.4784C20.2242 43.7467 20.247 44.0513 20.3106 44.3377C20.3402 44.4718 20.3743 44.5969 20.4175 44.7696Z" fill="black"/>
<path d="M112 40.3981C111.8 40.7664 111.607 41.1187 111.416 41.4756C111.216 41.8462 111.022 42.219 110.82 42.5896C110.595 43.001 110.361 43.4079 110.133 43.8171C109.831 44.3627 109.529 44.906 109.231 45.4539C108.951 45.97 108.735 46.5337 108.381 46.9952C108.103 47.3567 107.931 47.7659 107.678 48.1341C107.501 48.391 107.371 48.6797 107.235 48.9616C107.199 49.0389 107.183 49.1662 107.221 49.2344C107.542 49.8187 107.881 50.3915 108.206 50.9712C108.394 51.3077 108.565 51.6509 108.745 51.9919C108.974 52.4284 109.201 52.8672 109.438 53.3014C109.729 53.8356 110.031 54.3653 110.329 54.895C110.645 55.4633 110.966 56.0271 111.275 56.5999C111.504 57.025 111.723 57.4547 111.936 57.8889C112.043 58.1049 111.902 58.1344 111.729 58.1321C110.92 58.1299 110.111 58.1321 109.301 58.1321C109.156 58.1321 109.001 58.098 108.867 58.139C108.472 58.2572 108.308 58.0321 108.158 57.7298C107.833 57.0751 107.501 56.4249 107.153 55.7815C106.862 55.2428 106.528 54.7267 106.237 54.188C105.901 53.5628 105.594 52.9195 105.266 52.2897C105.1 51.9715 104.916 51.6623 104.741 51.3486C104.709 51.3509 104.678 51.3531 104.646 51.3531C104.466 51.6669 104.284 51.9783 104.112 52.2966C103.8 52.8649 103.493 53.4355 103.191 54.0084C102.945 54.4767 102.716 54.9541 102.47 55.4224C102.2 55.9361 101.911 56.4431 101.64 56.9568C101.488 57.2478 101.368 57.5547 101.199 57.8366C101.095 58.0139 100.99 58.164 100.692 58.1549C99.6581 58.1208 98.6215 58.1549 97.5871 58.1617C97.5371 58.1617 97.4462 58.1549 97.4439 58.1458C97.4371 58.0799 97.4303 58.0026 97.4598 57.948C97.7622 57.3888 98.0759 56.8364 98.3782 56.2771C98.7033 55.6792 99.017 55.0768 99.3421 54.4812C99.6149 53.9834 99.9014 53.4969 100.176 52.999C100.483 52.4443 100.774 51.8806 101.083 51.3259C101.379 50.7939 101.672 50.262 101.997 49.7482C102.325 49.2299 102.322 48.9707 101.97 48.4433C101.806 48.1978 101.702 47.9136 101.554 47.6545C101.452 47.4749 101.32 47.3158 101.211 47.1407C101.061 46.8997 100.915 46.6542 100.777 46.4087C100.47 45.8654 100.167 45.3175 99.8672 44.7719C99.6331 44.3445 99.4058 43.9149 99.1716 43.4875C98.7511 42.7169 98.326 41.9462 97.9077 41.1733C97.7713 40.9187 97.653 40.6527 97.5144 40.3617C97.6303 40.3503 97.6985 40.339 97.7667 40.339C98.7852 40.339 99.8036 40.3481 100.822 40.3322C101.029 40.3299 101.127 40.4526 101.195 40.5731C101.436 41.0028 101.643 41.4529 101.872 41.8916C102.175 42.4668 102.484 43.0397 102.795 43.6103C103.052 44.0808 103.329 44.5401 103.58 45.0129C103.818 45.463 104.03 45.929 104.257 46.3837C104.357 46.5838 104.459 46.7861 104.575 46.977C104.659 47.118 104.839 47.1021 104.914 46.9543C105.28 46.2405 105.639 45.5198 106.01 44.8083C106.326 44.2013 106.662 43.6057 106.983 43.001C107.424 42.1667 107.853 41.3256 108.297 40.4913C108.331 40.4254 108.419 40.3435 108.483 40.3435C109.62 40.3367 110.756 40.339 111.893 40.3413C111.913 40.3435 111.929 40.3594 112 40.3981Z" fill="black"/>
<path d="M53.3668 58.164C53.3668 52.2329 53.3668 46.3019 53.3668 40.3367C53.4668 40.3367 53.5645 40.3367 53.6623 40.3367C57.1359 40.3367 60.6095 40.339 64.0831 40.3322C64.315 40.3322 64.4037 40.3776 64.3991 40.63C64.3832 41.3847 64.3878 42.1394 64.3969 42.8942C64.3991 43.1192 64.3332 43.1829 64.1013 43.1829C61.6734 43.1715 59.2455 43.1783 56.8176 43.1715C56.5721 43.1715 56.4767 43.2534 56.4789 43.4989C56.4857 44.7537 56.488 46.0086 56.4789 47.2635C56.4767 47.5181 56.5903 47.5567 56.8108 47.5567C58.9568 47.5499 61.1028 47.559 63.2488 47.5476C63.5239 47.5454 63.5853 47.6386 63.5807 47.8909C63.5671 48.6638 63.5762 49.4367 63.5762 50.2097C63.5762 50.3074 63.5648 50.4052 63.558 50.4779C63.2829 50.462 63.0283 50.4325 62.7737 50.4325C60.8187 50.4279 58.8636 50.4302 56.9086 50.4302C56.5358 50.4302 56.4835 50.4802 56.4835 50.8553C56.4812 52.2284 56.4812 53.6014 56.4835 54.9745C56.4835 55.3383 56.5289 55.3792 56.8972 55.3792C59.2796 55.3792 61.6621 55.3837 64.0445 55.3724C64.315 55.3701 64.4082 55.4337 64.4014 55.7179C64.3809 56.4363 64.39 57.1546 64.3969 57.873C64.3991 58.089 64.3559 58.2072 64.1036 58.1321C64.0195 58.1071 63.924 58.1253 63.8331 58.1253C60.5322 58.1253 57.2314 58.1253 53.9305 58.1253C53.751 58.1299 53.5714 58.1526 53.3668 58.164Z" fill="black"/>
<path d="M96.255 55.4133C96.0254 55.802 95.8117 56.1521 95.6116 56.509C95.3297 57.0182 95.0615 57.5388 94.775 58.0458C94.7387 58.1094 94.625 58.1617 94.5477 58.1594C92.7677 58.1526 90.9854 58.1344 89.2054 58.1276C87.8596 58.1208 86.5138 58.1276 85.1681 58.1276C85.1044 58.1276 85.0407 58.1253 84.9771 58.1276C84.5702 58.1435 84.5747 58.1435 84.5747 57.7252C84.577 54.2607 84.577 50.7939 84.5747 47.3294C84.5747 45.047 84.5702 42.7646 84.5679 40.4822C84.5679 40.4458 84.577 40.4117 84.5884 40.3367C84.6747 40.3367 84.7611 40.3367 84.8475 40.3367C87.9938 40.3367 91.14 40.3435 94.2863 40.3253C94.625 40.3231 94.7978 40.4367 94.9455 40.7141C95.2547 41.3006 95.5866 41.8735 95.9026 42.4577C96.0208 42.6782 96.1163 42.9101 96.2299 43.1511C96.1981 43.1579 96.1481 43.1806 96.1004 43.1806C93.4179 43.1783 90.7354 43.1761 88.0529 43.1738C87.6437 43.1738 87.6073 43.2102 87.605 43.6307C87.6028 44.8219 87.6028 46.0132 87.605 47.2044C87.605 47.5363 87.6232 47.5522 87.9665 47.5522C89.967 47.5522 91.9675 47.5522 93.968 47.5522C94.3136 47.5522 94.3295 47.5658 94.3317 47.8977C94.334 48.6706 94.334 49.4436 94.3295 50.2165C94.3295 50.312 94.3022 50.4075 94.2908 50.4847C94.1226 50.4643 93.9839 50.4302 93.8453 50.4302C91.9266 50.4279 90.0079 50.4279 88.0892 50.4279C87.7005 50.4279 87.6028 50.5234 87.6028 50.9076C87.6028 52.2352 87.6028 53.5628 87.6028 54.8904C87.6028 55.2951 87.6891 55.3769 88.1052 55.3769C90.7058 55.3769 93.3065 55.3769 95.9072 55.3792C96.0231 55.3837 96.1345 55.4042 96.255 55.4133Z" fill="black"/>
<path d="M39.0609 48.823C39.2177 48.8093 39.32 48.7911 39.4246 48.7911C40.5612 48.7889 41.6979 48.8048 42.8345 48.7843C43.4938 48.7729 44.1644 48.7684 44.81 48.6547C45.2761 48.5729 45.7376 48.4115 46.1627 48.1319C46.5423 47.8818 46.8015 47.5545 47.0515 47.2066C47.1561 47.0589 47.2334 46.8634 47.247 46.6838C47.297 46.0245 47.3493 45.3539 47.0856 44.7219C46.8606 44.1809 46.5037 43.7535 45.9467 43.4943C45.4784 43.2761 44.9987 43.1579 44.4872 43.1511C44.2122 43.1465 43.9325 43.1624 43.6643 43.1101C43.5211 43.0829 43.3801 42.9465 43.2824 42.8237C42.9187 42.3668 42.5754 41.8939 42.2185 41.4302C42.0071 41.1551 41.7775 40.8914 41.5683 40.6163C41.5206 40.5549 41.516 40.4595 41.4842 40.3572C41.591 40.3481 41.6615 40.3367 41.732 40.3367C42.8596 40.3367 43.9871 40.314 45.1124 40.3549C45.5739 40.3708 46.0354 40.514 46.49 40.63C46.8378 40.7209 47.1811 40.8437 47.513 40.9823C48.2291 41.2779 48.8111 41.7575 49.2635 42.3804C49.5022 42.7078 49.7022 43.0647 49.8818 43.4284C49.9932 43.6557 50.0477 43.9149 50.1 44.1672C50.2091 44.6742 50.3024 45.1857 50.3956 45.6949C50.4115 45.7745 50.4206 45.8608 50.4069 45.9381C50.316 46.4383 50.2501 46.9452 50.1159 47.4317C50.0091 47.8204 49.8454 48.1978 49.6567 48.5547C49.3339 49.1617 48.8793 49.6618 48.3178 50.0665C47.7903 50.4461 47.2266 50.7462 46.5923 50.9008C46.1308 51.0144 45.6625 51.1076 45.1988 51.2122C45.1397 51.2258 45.0828 51.2509 44.9624 51.294C46.8537 53.5583 48.7224 55.7929 50.632 58.0799C50.4888 58.1026 50.3933 58.1276 50.2978 58.1299C49.3703 58.1321 48.4428 58.1321 47.5153 58.1321C47.4698 58.1321 47.4221 58.1231 47.3789 58.1344C46.8219 58.2867 46.5218 57.9685 46.2149 57.5638C45.7216 56.9159 45.1783 56.309 44.6555 55.6838C44.1849 55.1223 43.7143 54.5631 43.2415 54.0015C42.6777 53.3309 42.023 52.7126 41.5797 51.9715C41.225 51.3804 40.7454 50.9167 40.3521 50.3734C39.977 49.8482 39.5292 49.3754 39.0609 48.823Z" fill="black"/>
<path d="M81.9877 40.3549C81.9877 40.5322 81.9877 40.6845 81.9877 40.8368C81.99 41.537 81.9854 42.2372 81.9991 42.9374C82.0036 43.1306 81.9513 43.1852 81.7558 43.1829C80.501 43.1715 79.2461 43.1761 77.9935 43.1761C77.5752 43.1761 77.5502 43.2011 77.5502 43.6285C77.5502 48.3478 77.5502 53.0672 77.5502 57.7843C77.5502 58.1662 77.5502 58.1435 77.1728 58.1367C76.3453 58.1208 75.5179 58.1208 74.6904 58.1367C74.4176 58.1412 74.3403 58.0662 74.3403 57.7866C74.3494 53.0581 74.3471 48.3296 74.3471 43.6034C74.3471 43.1829 74.3471 43.1783 73.9266 43.1783C72.699 43.1761 71.4714 43.1738 70.2461 43.1852C70.0392 43.1874 69.9755 43.1261 69.9778 42.926C69.9846 42.144 69.9846 41.362 69.9801 40.58C69.9801 40.414 70.0187 40.3367 70.2074 40.3367C74.088 40.3413 77.9708 40.3413 81.8513 40.3413C81.8854 40.339 81.9218 40.3458 81.9877 40.3549Z" fill="black"/>
<path d="M84.1542 70.3193C84.0268 70.6581 83.9041 71.0013 83.7677 71.3355C83.6222 71.6901 83.4608 72.038 83.3108 72.3903C83.1903 72.6745 83.0834 72.9632 82.9584 73.2451C82.8311 73.5315 82.6879 73.8134 82.5515 74.0976C82.5447 74.1135 82.5265 74.1249 82.5174 74.1385C82.4264 74.2999 82.3719 74.5545 82.24 74.6022C82.0127 74.6841 81.7399 74.65 81.4876 74.6409C81.3557 74.6363 81.2534 74.5863 81.2057 74.409C81.142 74.1794 80.9965 73.9725 80.8942 73.7498C80.7328 73.3997 80.5737 73.0496 80.4259 72.6949C80.1668 72.0766 79.9144 71.456 79.6598 70.8377C79.5871 70.6581 79.5166 70.4785 79.4461 70.2989C79.4029 70.308 79.3597 70.3193 79.3166 70.3284C79.3166 70.4466 79.3075 70.5671 79.3188 70.6853C79.3393 70.9081 79.3938 71.1309 79.3961 71.3537C79.4052 72.554 79.4007 73.7543 79.4007 74.9546C79.4007 75.3229 79.3347 75.3888 78.9778 75.3911C78.8596 75.3911 78.7414 75.3911 78.6232 75.3911C78.3049 75.3888 78.2276 75.3138 78.2254 74.9864C78.2231 74.2863 78.2254 73.5861 78.2254 72.8859C78.2254 71.1764 78.2299 69.4668 78.2208 67.7573C78.2185 67.4891 78.3072 67.3959 78.5664 67.4163C78.755 67.4322 78.9506 67.4391 79.1392 67.414C79.3666 67.3845 79.478 67.5004 79.5484 67.68C79.7826 68.2779 80.0008 68.8826 80.2441 69.4759C80.4305 69.9329 80.6555 70.3739 80.8465 70.8308C80.9829 71.1536 81.0806 71.4901 81.2102 71.8152C81.3557 72.1766 81.5126 72.5358 81.674 72.8904C81.7013 72.9473 81.7899 73.0268 81.8308 73.0177C81.9036 72.9996 81.99 72.9336 82.0173 72.8654C82.2082 72.3949 82.381 71.9152 82.5651 71.4423C82.8084 70.8172 83.0493 70.192 83.3039 69.5737C83.4335 69.26 83.5995 68.9599 83.7313 68.6462C83.8677 68.3234 84.0041 67.996 84.0996 67.6596C84.1473 67.4936 84.2155 67.4254 84.3701 67.4231C84.6338 67.4209 84.8975 67.4277 85.1612 67.4186C85.3249 67.4141 85.359 67.4936 85.3567 67.6368C85.3522 68.0369 85.3545 68.437 85.3545 68.8371C85.3545 70.9013 85.3545 72.9655 85.3545 75.0296C85.3545 75.3933 85.3545 75.3934 84.993 75.3934C84.2701 75.3934 84.2701 75.3934 84.2701 74.6841C84.2701 73.3656 84.2724 72.0471 84.2701 70.7285C84.2701 70.5944 84.2451 70.4603 84.2314 70.3262C84.2064 70.3193 84.1814 70.3193 84.1542 70.3193Z" fill="black"/>
<path d="M39.5746 69.5714C39.5633 69.6669 39.5428 69.7624 39.5428 69.8579C39.5519 71.5856 39.5678 73.311 39.5769 75.0387C39.5792 75.3502 39.5269 75.3911 39.2063 75.3911C39.0972 75.3911 38.9881 75.3911 38.879 75.3911C38.5539 75.3888 38.4562 75.2911 38.4562 74.9728C38.4562 72.5631 38.4607 70.1557 38.4493 67.746C38.4493 67.4868 38.5357 67.405 38.7767 67.4186C38.9586 67.43 39.1404 67.4209 39.3223 67.4209C39.8065 67.4209 39.8406 67.455 40.0202 67.9074C40.102 68.1097 40.2339 68.2893 40.343 68.4802C40.6976 69.0963 41.0932 69.6965 41.3887 70.3398C41.5092 70.6035 41.5751 70.9036 41.7297 71.165C41.9229 71.4946 42.0912 71.8402 42.2708 72.1789C42.4913 72.5972 42.7141 73.0132 42.9368 73.4292C42.9437 73.4429 42.9664 73.4474 43.0369 73.4861C43.1301 72.97 43.0619 72.4699 43.0755 71.9766C43.0869 71.4764 43.0778 70.9763 43.0778 70.4762C43.0778 69.967 43.0778 69.4578 43.0778 68.9485C43.0778 68.4507 43.0778 67.9528 43.0778 67.4209C43.412 67.4209 43.7211 67.4072 44.0235 67.4322C44.0758 67.4368 44.1531 67.6027 44.1531 67.6937C44.1622 69.1122 44.1599 70.5308 44.1599 71.947C44.1599 72.9655 44.1599 73.9839 44.1599 75.0023C44.1599 75.3888 44.1599 75.3888 43.7643 75.3888C43.5916 75.3888 43.4165 75.3706 43.246 75.3934C43.005 75.4252 42.8868 75.2956 42.7868 75.1092C42.5663 74.7 42.3503 74.2885 42.1094 73.8907C41.9548 73.6361 41.7593 73.4042 41.582 73.1632C41.5615 73.136 41.5206 73.111 41.516 73.0814C41.4342 72.3176 40.8954 71.7834 40.5521 71.1491C40.3021 70.6876 40.0816 70.2102 39.8406 69.7442C39.7974 69.6624 39.7201 69.5987 39.6587 69.526C39.636 69.5396 39.6042 69.5555 39.5746 69.5714Z" fill="black"/>
<path d="M63.4216 67.4186C63.4216 67.5595 63.4216 67.6573 63.4216 67.755C63.4216 70.1738 63.4216 72.5926 63.4216 75.0114C63.4216 75.3888 63.4216 75.3888 63.0465 75.3888C62.9101 75.3888 62.7714 75.3729 62.6373 75.3911C62.319 75.4388 62.1576 75.2433 62.0122 75.0137C61.7371 74.575 61.4597 74.1385 61.1915 73.6952C60.9232 73.2542 60.6618 72.8086 60.4004 72.363C60.0594 71.7788 59.7184 71.1923 59.3842 70.6035C59.2342 70.3398 59.1023 70.0625 58.9523 69.7988C58.8955 69.6987 58.8068 69.6146 58.734 69.5214C58.7113 69.535 58.6863 69.551 58.6636 69.5646C58.6568 69.6146 58.6386 69.6669 58.6431 69.7146C58.6704 69.9829 58.725 70.2511 58.7272 70.5194C58.7363 72.0198 58.7318 73.5202 58.7318 75.0205C58.7318 75.3684 58.7159 75.3888 58.3589 75.3843C57.6156 75.3729 57.6383 75.532 57.6406 74.675C57.6429 72.3653 57.6451 70.0556 57.636 67.746C57.636 67.4845 57.7065 67.3754 57.9725 67.4118C58.0611 67.4231 58.1589 67.43 58.2453 67.4118C58.8136 67.2845 59.0341 67.6618 59.2478 68.0733C59.4706 68.5007 59.7138 68.9167 59.948 69.3373C60.2003 69.7897 60.4436 70.2443 60.7027 70.6922C61.0324 71.265 61.3734 71.8311 61.703 72.404C61.8485 72.6586 61.9735 72.9245 62.1144 73.1837C62.144 73.2405 62.194 73.286 62.2349 73.336C62.2713 73.2724 62.3304 73.211 62.3395 73.1451C62.3554 73.0291 62.3418 72.9086 62.3418 72.7904C62.3418 71.09 62.3441 69.3896 62.335 67.6891C62.335 67.4732 62.3963 67.3959 62.6123 67.4095C62.8715 67.43 63.1329 67.4186 63.4216 67.4186Z" fill="black"/>
<path d="M71.0986 70.533C71.0986 71.406 71.0963 72.2789 71.1008 73.1519C71.1031 73.6293 71.4532 74.143 71.9056 74.2953C72.1852 74.3886 72.4807 74.4499 72.7717 74.4749C73.265 74.5159 73.6356 74.2476 74.0243 73.9657C74.5153 73.6111 74.4153 73.0905 74.4312 72.6563C74.4858 71.0309 74.4585 69.4009 74.4608 67.7732C74.4608 67.4186 74.4608 67.4186 74.8268 67.4186C75.0177 67.4186 75.2087 67.4231 75.3996 67.4163C75.5406 67.4118 75.5906 67.4709 75.5883 67.6118C75.5815 69.4941 75.6224 71.3787 75.5474 73.2587C75.5224 73.9043 75.1723 74.5113 74.5949 74.9251C74.113 75.2706 73.5946 75.4593 72.9968 75.4252C72.6239 75.4047 72.2443 75.4547 71.8806 75.3911C71.4123 75.3092 70.994 75.0774 70.653 74.7296C70.2915 74.359 70.0415 73.9362 69.9892 73.411C69.9437 72.9541 69.8801 72.4949 69.8755 72.0357C69.8596 70.599 69.8755 69.1622 69.8641 67.7255C69.8619 67.4868 69.9233 67.3936 70.1688 67.4163C70.3756 67.4345 70.5871 67.4254 70.7962 67.4186C71.0122 67.4118 71.1008 67.4959 71.0963 67.7255C71.0849 68.6621 71.0917 69.5987 71.0917 70.5353C71.0917 70.5353 71.094 70.533 71.0986 70.533Z" fill="black"/>
<path d="M51.1321 71.2923C51.1321 71.6083 51.1321 71.8675 51.1321 72.1675C51.0548 72.1766 50.9548 72.2016 50.8525 72.2016C50.0705 72.2039 49.2885 72.2016 48.5064 72.2039C48.1677 72.2039 48.0495 72.3199 48.0472 72.6563C48.045 73.4474 48.0472 74.2385 48.0472 75.0296C48.0472 75.3729 48.029 75.3888 47.6994 75.3911C46.9469 75.3934 46.947 75.3934 46.947 74.65C46.947 72.3494 46.9515 70.0488 46.9401 67.7482C46.9379 67.4845 47.0129 67.4118 47.2743 67.4141C48.5474 67.4277 49.8204 67.4254 51.0935 67.4141C51.3413 67.4118 51.4026 67.4913 51.3958 67.7255C51.3731 68.5871 51.5027 68.4598 50.6615 68.4666C49.9341 68.4711 49.2066 68.4666 48.4792 68.4689C48.1041 68.4711 48.0472 68.528 48.045 68.8917C48.045 69.5282 48.0427 70.1648 48.045 70.8013C48.0472 71.1673 48.1495 71.2719 48.5087 71.2719C49.2907 71.2719 50.0727 71.2719 50.8548 71.2719C50.9548 71.2696 51.0503 71.2855 51.1321 71.2923Z" fill="black"/>
<path d="M70.2574 50.4984C70.0642 50.4734 69.9096 50.4347 69.7528 50.4325C68.7707 50.4279 67.7886 50.4234 66.8066 50.437C66.5588 50.4393 66.4792 50.3711 66.4837 50.1142C66.4997 49.3595 66.4951 48.6047 66.486 47.85C66.4837 47.634 66.5429 47.5454 66.7793 47.5476C67.8614 47.559 68.9435 47.5567 70.0256 47.5499C70.2074 47.5499 70.2938 47.5976 70.2938 47.7909C70.2893 48.6365 70.2938 49.4822 70.2915 50.3279C70.2893 50.3915 70.2665 50.4506 70.2574 50.4984Z" fill="black"/>
<path d="M53.6691 67.4254C54.0328 67.4254 54.3761 67.4163 54.7171 67.4345C54.7762 67.4368 54.8444 67.5391 54.8808 67.6096C54.9058 67.6596 54.8876 67.7346 54.8876 67.7982C54.8876 70.1716 54.8876 72.5449 54.8876 74.9182C54.8876 75.3115 54.8058 75.3911 54.4057 75.3911C53.6737 75.3911 53.6714 75.3911 53.6714 74.6636C53.6714 72.3539 53.6714 70.0443 53.6714 67.7346C53.6691 67.6437 53.6691 67.555 53.6691 67.4254Z" fill="black"/>
<path d="M67.3976 71.3969C67.3976 72.6131 67.3931 73.8316 67.4022 75.0478C67.4044 75.3024 67.3362 75.4206 67.0634 75.3911C66.8929 75.3729 66.7179 75.3911 66.5474 75.3865C66.3132 75.382 66.1768 75.2683 66.1768 75.0228C66.1768 72.5699 66.1791 70.1193 66.1746 67.6664C66.1746 67.4845 66.2541 67.4209 66.4155 67.4186C66.652 67.4163 66.8884 67.4277 67.1225 67.414C67.3317 67.4027 67.4044 67.4709 67.4022 67.6914C67.3908 68.9281 67.3976 70.1625 67.3976 71.3969Z" fill="black"/>
<path d="M35.7032 67.4186C35.7032 67.5459 35.7032 67.6346 35.7032 67.7232C35.7032 70.1579 35.7032 72.5949 35.7032 75.0296C35.7032 75.3911 35.7032 75.3911 35.3417 75.3911C34.6052 75.3911 34.6052 75.3911 34.6052 74.6614C34.6052 72.3539 34.6075 70.0443 34.6006 67.7369C34.6006 67.4891 34.662 67.3913 34.9212 67.4141C35.169 67.4345 35.4213 67.4186 35.7032 67.4186Z" fill="black"/>
<path d="M69.0344 80.1855C68.798 80.2355 68.6366 80.2764 68.5479 79.9923C68.4752 79.7558 68.3319 79.5353 68.1842 79.3353C68.1251 79.258 67.9614 79.2261 67.8477 79.2352C67.7977 79.2398 67.7318 79.3921 67.7227 79.4808C67.7045 79.6694 67.7295 79.8627 67.7091 80.0514C67.7022 80.1105 67.6113 80.1628 67.5567 80.2173C67.509 80.165 67.4203 80.1127 67.4181 80.0605C67.409 79.2875 67.409 78.5169 67.4226 77.7439C67.4249 77.6758 67.5499 77.5484 67.6113 77.553C67.95 77.578 68.3138 77.5689 68.6184 77.6939C69.073 77.8826 69.1549 78.4941 68.8162 78.9124C68.7184 79.0352 68.4729 79.0602 68.5411 79.2875C68.5843 79.4353 68.6661 79.574 68.7411 79.7104C68.823 79.8604 68.9184 80.0014 69.0344 80.1855ZM67.7159 78.3737H67.7204C67.7204 78.501 67.7091 78.6283 67.725 78.7533C67.7318 78.817 67.7704 78.9011 67.8204 78.9306C68.025 79.0534 68.4615 78.8806 68.6593 78.6124C68.7843 78.4441 68.7161 78.1463 68.5206 77.9736C68.3138 77.7894 68.0546 77.7394 67.8295 77.8417C67.7386 77.8849 67.75 78.1531 67.7159 78.3191C67.7136 78.3373 67.7159 78.3555 67.7159 78.3737Z" fill="black"/>
<path d="M72.9036 78.892C72.9036 78.5282 72.9081 78.1668 72.9013 77.8031C72.899 77.6235 72.9627 77.5212 73.1559 77.5439C73.5128 77.5871 73.8765 77.5962 74.2198 77.6894C74.6767 77.8122 74.8268 78.2395 74.9041 78.6374C75.0177 79.2102 74.7881 79.8763 74.2062 80.1287C74.0175 80.2105 73.7879 80.2173 73.5765 80.2219C72.9013 80.24 72.9013 80.2332 72.9013 79.574C72.9036 79.3444 72.9036 79.1193 72.9036 78.892ZM73.1855 78.8852C73.1855 79.1398 73.1968 79.3944 73.1809 79.6467C73.1673 79.8627 73.2741 79.9354 73.4628 79.9559C74.0743 80.0241 74.3267 79.8263 74.5335 79.2102C74.7654 78.526 74.2494 77.6826 73.4446 77.8031C73.2696 77.8281 73.1786 77.8826 73.1809 78.069C73.1877 78.3396 73.1855 78.6124 73.1855 78.8852Z" fill="black"/>
<path d="M69.9642 78.917C70.0233 78.576 70.0233 78.21 70.1529 77.9008C70.3143 77.5166 70.7098 77.4848 71.0826 77.5189C71.4077 77.5484 71.6669 77.7053 71.7669 78.0304C71.951 78.6396 71.9601 79.2534 71.7464 79.8581C71.6714 80.0673 71.5168 80.1696 71.2941 80.2287C71.0372 80.2969 70.8098 80.3219 70.5484 80.231C70.2756 80.1355 70.0528 79.9309 70.0278 79.6353C70.0255 79.6081 70.0233 79.5808 70.0233 79.5535C70.0233 79.3444 70.0233 79.1352 70.0233 78.9284C70.0051 78.9238 69.9846 78.9215 69.9642 78.917ZM70.2915 78.9306C70.2915 79.6263 70.2915 79.6263 70.4575 79.8263C70.753 80.1832 71.2577 80.1059 71.4691 79.6945C71.7033 79.2421 71.6123 78.7715 71.5623 78.3168C71.5168 77.9076 71.169 77.7371 70.7212 77.8053C70.4939 77.8394 70.2961 78.1441 70.2915 78.4691C70.2893 78.6237 70.2915 78.776 70.2915 78.9306Z" fill="black"/>
<path d="M75.9089 78.7192C75.9089 78.4009 75.8998 78.0827 75.9157 77.7667C75.9202 77.6917 76.0043 77.6212 76.0521 77.5507C76.1089 77.6235 76.2135 77.6962 76.2135 77.7712C76.2271 78.3418 76.2203 78.9147 76.2249 79.4876C76.2271 79.8172 76.4636 80.0536 76.7841 80.0605C77.0887 80.0673 77.3933 79.799 77.3979 79.4989C77.407 78.9352 77.3979 78.3737 77.4115 77.8099C77.4138 77.7235 77.4934 77.6417 77.5388 77.5553C77.5979 77.6417 77.7071 77.7258 77.7048 77.8122C77.7002 78.4555 77.698 79.1011 77.6389 79.7422C77.6229 79.9081 77.4343 80.1309 77.2729 80.19C77.0501 80.2696 76.8159 80.3742 76.5272 80.2582C76.1203 80.0946 75.9271 79.9241 75.9157 79.4853C75.9089 79.2307 75.9134 78.9761 75.9134 78.7237C75.9134 78.7192 75.9089 78.7192 75.9089 78.7192Z" fill="black"/>
<path d="M64.6833 78.9033C64.6833 78.5396 64.6878 78.1759 64.681 77.8144C64.6787 77.6235 64.7424 77.5189 64.9493 77.5439C65.2766 77.5826 65.6085 77.6076 65.9359 77.6598C66.2314 77.7076 66.3724 77.9372 66.4224 78.1963C66.486 78.5305 66.4133 78.8329 66.12 79.0647C65.8904 79.2466 65.6335 79.2307 65.3744 79.233C64.9856 79.2375 64.9856 79.2352 64.9856 79.6285C64.9856 79.7467 65.0038 79.8695 64.9788 79.9809C64.9606 80.065 64.8879 80.1377 64.8401 80.2173C64.7879 80.1423 64.6924 80.0696 64.6901 79.9923C64.6742 79.6285 64.6833 79.2648 64.6833 78.9033ZM65.3903 78.9693C65.4812 78.9693 65.5949 79.0034 65.6585 78.9624C65.829 78.8511 66.0245 78.7328 66.1177 78.5646C66.1768 78.4601 66.1064 78.2373 66.0245 78.1122C65.8336 77.8213 65.4312 77.7053 65.1129 77.8213C65.0561 77.8417 65.0016 77.9372 64.9947 78.0008C64.9788 78.1895 64.9856 78.3828 64.9856 78.5737C64.9856 78.9761 64.9879 78.9761 65.3903 78.9693Z" fill="black"/>
<path d="M85.1931 78.069C84.9544 78.235 84.8862 78.0258 84.793 77.9372C84.5702 77.728 84.211 77.7394 84.0337 77.9804C83.895 78.1713 83.9859 78.4464 84.2655 78.6215C84.4656 78.7488 84.6793 78.8579 84.8907 78.9647C85.1658 79.1057 85.2476 79.3262 85.1885 79.8058C85.1567 80.0695 84.9703 80.1423 84.7452 80.2378C84.477 80.3514 84.2474 80.281 84.0291 80.1991C83.8723 80.1423 83.7541 79.965 83.6358 79.8263C83.6154 79.8013 83.6768 79.7081 83.7018 79.6444C83.7745 79.6763 83.8768 79.6876 83.9155 79.7422C84.1473 80.0582 84.4019 80.1241 84.7225 79.9331C84.9885 79.774 85.0135 79.4353 84.7589 79.2625C84.5088 79.092 84.2405 78.9511 83.9814 78.792C83.7859 78.6737 83.5767 78.2918 83.6427 78.1145C83.7427 77.8463 83.895 77.5962 84.2064 77.5325C84.552 77.4621 84.8771 77.4984 85.093 77.8281C85.1385 77.9031 85.1612 77.994 85.1931 78.069Z" fill="black"/>
<path d="M80.5714 78.0918C80.3555 78.1463 80.2122 78.1963 80.1008 77.9781C79.9531 77.6894 79.6621 77.7781 79.4439 77.8235C79.3097 77.8508 79.1256 78.0395 79.112 78.1713C79.0642 78.6124 79.087 79.0602 79.0733 79.5035C79.0642 79.8263 79.2915 79.9491 79.5302 80.0354C79.7689 80.1196 79.9554 79.9832 80.1236 79.8127C80.2168 79.7195 80.3464 79.6581 80.5078 79.5512C80.5555 79.9172 80.3305 80.0445 80.1827 80.1696C79.8849 80.4174 79.1551 80.2901 78.9074 79.9832C78.8801 79.9491 78.8392 79.9104 78.8323 79.8718C78.7755 79.4739 78.6232 79.0557 78.7005 78.6828C78.7732 78.3305 78.6823 77.8713 79.1347 77.628C79.5666 77.3984 80.1577 77.5007 80.4123 77.9167C80.4441 77.969 80.4941 78.0077 80.5714 78.0918Z" fill="black"/>
<path d="M82.9129 77.8076C82.8129 77.8076 82.706 77.8076 82.6015 77.8076C82.2946 77.8099 82.1991 77.894 82.1968 78.21C82.19 78.8624 82.1946 79.5149 82.1946 80.1718C81.9309 80.2582 81.8854 80.2287 81.8854 79.9536C81.8831 79.3557 81.8763 78.7556 81.8899 78.1577C81.8968 77.894 81.8172 77.7621 81.5353 77.8031C81.4398 77.8167 81.3398 77.8053 81.2489 77.8053C81.1852 77.6121 81.2398 77.5394 81.4126 77.5416C81.8581 77.5439 82.3014 77.5462 82.747 77.5416C82.9175 77.5439 82.9811 77.6121 82.9129 77.8076Z" fill="black"/>
<path d="M87.0003 69.1349C87.0003 68.7462 86.9981 68.3597 87.0003 67.971C87.0026 67.6118 87.0049 67.5209 86.6298 67.5527C86.5934 67.555 86.5548 67.53 86.5252 67.455C86.8844 67.455 87.2436 67.455 87.671 67.455C87.5846 67.5141 87.5505 67.555 87.5232 67.5527C87.2118 67.5254 87.1299 67.6914 87.1413 67.9687C87.1549 68.2847 87.1481 68.603 87.1435 68.9213C87.1435 68.9985 87.1163 69.0781 87.1026 69.1554C87.0685 69.1463 87.0344 69.1395 87.0003 69.1349Z" fill="black"/>
<path d="M88.1347 69.1463C88.1347 68.5757 88.1347 68.0051 88.1347 67.4231C88.4257 67.555 88.6121 68.0097 88.4962 68.3075C88.4416 68.2256 88.3961 68.1597 88.3484 68.0915C88.3234 68.0892 88.2961 68.0892 88.2711 68.087C88.2711 68.4393 88.2711 68.7917 88.2711 69.1463C88.2256 69.1463 88.1802 69.1463 88.1347 69.1463Z" fill="black"/>
<path d="M89.2373 68.2165C89.3009 67.9733 89.3577 67.7255 89.435 67.4868C89.4464 67.4482 89.5532 67.4413 89.6442 67.4072C89.6442 68.0074 89.6442 68.5666 89.6442 69.1281C89.6101 69.1304 89.576 69.1327 89.5442 69.1327C89.5442 68.7917 89.5442 68.4484 89.5442 68.0801C89.3873 68.1438 89.31 68.1756 89.2304 68.2074L89.2373 68.2165Z" fill="black"/>
<path d="M89.2304 68.2097C89.16 68.4393 89.0986 68.6735 89.0099 68.894C88.9872 68.9508 88.8758 68.9735 88.8053 69.0122C88.7758 68.9917 88.7485 68.969 88.7189 68.9485C88.7644 68.8553 88.8053 68.7576 88.8576 68.6666C88.9258 68.5462 88.9963 68.4279 89.0804 68.3188C89.1145 68.2734 89.1827 68.2506 89.2373 68.2188L89.2304 68.2097Z" fill="black"/>
<path d="M37.2262 40.1617C37.6809 40.1617 38.1356 40.1799 38.588 40.1549C38.8858 40.139 39.0517 40.2822 39.2154 40.4982C39.5905 40.9937 39.986 41.478 40.3657 41.969C40.6226 42.2986 40.9636 42.5851 41.1 43.0102C41.1409 43.1352 41.2318 43.2466 41.3182 43.3512C41.6683 43.7763 42.0229 44.1991 42.3798 44.6174C42.4435 44.6924 42.4935 44.7629 42.4594 44.8606C42.423 44.972 42.3207 44.9629 42.2321 44.9629C41.2682 44.9652 40.3066 44.9629 39.3427 44.9652C39.1813 44.9652 39.0631 44.8993 38.9676 44.7811C38.6357 44.3673 38.2606 43.9809 37.956 43.5512C37.4899 42.8897 36.908 42.3259 36.4601 41.6507C36.3169 41.4348 36.1078 41.262 35.9305 41.0688C35.7691 40.8914 35.6849 40.6618 35.5076 40.4868C35.3508 40.3299 35.4508 40.1708 35.6963 40.1685C36.2078 40.1594 36.717 40.1617 37.2262 40.1617Z" fill="black"/>
</svg>
