<svg width="120" height="120" viewBox="0 0 120 120" fill="none" xmlns="http://www.w3.org/2000/svg">
<path fill-rule="evenodd" clip-rule="evenodd" d="M10.1276 36V56.3156H8V36H10.1276ZM19.3469 56.3156V37.9978H12.5491V36H28.2723V37.9978H21.5004V56.3156H19.3469ZM31.5847 56.3156L33.8161 51.1264H44.895L47.1004 56.3156H49.3576L40.5879 36H38.175L29.4053 56.3156H31.5847ZM44.0647 49.1805H34.6204L39.3425 38.2054L44.0647 49.1805ZM54.4142 36V54.3178H64.0401V56.3156H52.2866V36H54.4142ZM69.6427 56.3156V36H67.5151V56.3156H69.6427ZM76.9757 51.1264L74.7444 56.3156H72.5649L81.3346 36H83.7476L92.5173 56.3156H90.26L88.0546 51.1264H76.9757ZM77.7801 49.1805H87.2244L82.5022 38.2054L77.7801 49.1805ZM112 56.3156V36H109.899V52.9686L97.9116 36H95.4468V56.3156H97.5484V39.0097L109.717 56.3156H112ZM23.4364 73.5136V75.4855H13.8624V84.5406H11.7349V64.2249H24.3186V66.2228H13.8624V73.5136H23.4364ZM26.2651 84.5406L28.4965 79.3514H39.5754L41.7808 84.5406H44.0381L35.2684 64.2249H32.8554L24.0857 84.5406H26.2651ZM34.023 66.4303L38.7451 77.4054H29.3008L34.023 66.4303ZM46.967 84.5406V64.2249H54.2578C56.1778 64.2249 57.7346 64.666 58.954 65.5741C60.1735 66.4822 60.7962 67.7276 60.7962 69.3363C60.7962 69.959 60.7183 70.5557 60.3292 71.5157C59.9919 72.4498 59.0319 73.3838 57.7086 73.9806C59.0578 74.3179 60.0697 74.9925 60.7183 76.0044C61.367 77.0163 61.7043 78.0022 61.7043 78.9622C61.7043 80.8044 61.0297 82.2054 59.6546 83.1395C58.3054 84.0735 56.593 84.5406 54.5173 84.5406H46.967ZM49.0687 66.1709V73.2541H53.9205C57.1119 73.2541 58.6427 71.7233 58.6427 69.5698C58.6427 67.2606 56.6708 66.1709 54.0762 66.1709H49.0687ZM49.0687 75.1482V82.5946H54.5692C55.8924 82.5946 57.034 82.2833 58.02 81.6865C59.0319 81.0898 59.5248 80.1298 59.5248 78.8065C59.5248 77.8984 59.2394 77.1719 58.6427 76.6011C57.4751 75.4336 55.9443 75.1482 54.18 75.1482H49.0687ZM68.2914 76.3157H72.4427L78.4362 84.5406H81.0308L74.7519 75.9525C76.3605 75.7449 77.6838 75.1482 78.7476 74.1363C79.8113 73.1244 80.3303 71.8011 80.3303 70.1406C80.3303 68.4541 79.7335 67.0271 78.5141 65.9114C77.3205 64.7958 75.5562 64.2249 73.1952 64.2249H66.1638V84.5406H68.2914V76.3157ZM68.2914 74.3698V66.2228H73.0654C76.62 66.2228 78.1768 67.9352 78.1768 70.2184C78.1768 71.3601 77.7357 72.346 76.8795 73.1503C76.0232 73.9546 74.726 74.3698 73.0135 74.3698H68.2914ZM86.5663 64.2249V84.5406H84.4387V64.2249H86.5663ZM93.5412 81.8681C95.4871 83.7881 97.9001 84.7481 100.754 84.7481C103.063 84.7481 105.035 84.1514 106.618 82.9319C108.227 81.7125 109.342 80.2336 109.939 78.4952L108.019 77.5871C106.851 80.7784 104.438 82.7244 100.832 82.7244C98.5228 82.7244 96.6287 81.92 95.1239 80.3373C93.619 78.7546 92.8666 76.7309 92.8666 74.3179C92.8666 71.9049 93.645 69.933 95.1758 68.3763C96.7325 66.8195 98.6006 66.0412 100.806 66.0412C102.752 66.0412 104.309 66.5341 105.476 67.5201C106.67 68.4801 107.5 69.6995 107.993 71.1266L109.913 70.2444C109.368 68.532 108.304 67.079 106.722 65.8595C105.139 64.6401 103.193 64.0174 100.858 64.0174C98.0298 64.0174 95.6169 65.0033 93.619 66.9752C91.6212 68.9212 90.6353 71.412 90.6353 74.4476C90.6353 77.4573 91.5953 79.9222 93.5412 81.8681Z" fill="black"/>
</svg>
