<svg width="120" height="120" viewBox="0 0 120 120" fill="none" xmlns="http://www.w3.org/2000/svg">
<path fill-rule="evenodd" clip-rule="evenodd" d="M90.8514 22.9359L92.6347 26.5556L75.8616 34.7525C73.1903 30.8214 69.3299 27.8496 64.8463 26.2728C60.3627 24.696 55.4919 24.5972 50.948 25.9909C46.4042 27.3846 42.4264 30.1975 39.598 34.017C36.7696 37.8365 35.2393 42.4618 35.2316 47.2146C35.2316 59.4745 45.1693 69.4156 57.4326 69.4156C69.6891 69.4156 79.6267 59.4745 79.6267 47.2146C79.6142 46.1015 79.5277 44.9905 79.3679 43.8889L83.1296 42.0737C83.4564 43.7681 83.6273 45.4889 83.64 47.2146C83.64 61.6903 71.9049 73.4254 57.4326 73.4254C42.9534 73.4254 31.2218 61.6903 31.2218 47.2146C31.2218 32.7352 42.9534 21.0001 57.4326 21.0001C61.1236 20.9903 64.7746 21.7632 68.145 23.2678C71.5153 24.7724 74.5284 26.9745 76.9854 29.7288L90.8514 22.9359ZM94.5856 30.53L92.8662 27.1087L75.4478 35.7452C73.515 32.7198 70.8511 30.2301 67.702 28.5063C64.5529 26.7824 61.0202 25.8798 57.4302 25.8819C45.6453 25.8819 36.0941 35.4368 36.0941 47.2216C36.0941 52.8803 38.342 58.3072 42.3433 62.3084C46.3446 66.3097 51.7715 68.5576 57.4302 68.5576C63.0888 68.5576 68.5157 66.3097 72.517 62.3084C76.5183 58.3072 78.7662 52.8803 78.7662 47.2216C78.7694 46.2321 78.7114 45.2434 78.5925 44.2611L74.7493 46.1047C74.7671 46.4238 74.7705 46.8918 74.7705 47.2216C74.7709 50.6517 73.754 54.0049 71.8485 56.8571C69.9431 59.7093 67.2346 61.9324 64.0656 63.2452C60.8966 64.558 57.4095 64.9015 54.0453 64.2324C50.6811 63.5633 47.5908 61.9116 45.1654 59.4861C42.7399 57.0606 41.0882 53.9703 40.4191 50.6061C39.75 47.2419 40.0936 43.7548 41.4065 40.5858C42.7193 37.4169 44.9424 34.7084 47.7946 32.803C50.6468 30.8975 54 29.8807 57.4302 29.8811C64.8294 29.8811 71.133 34.3661 73.6218 40.8932L94.5856 30.53ZM95.0532 31.1822L96.7834 34.6816L69.9095 47.8455C69.9126 47.7662 69.9208 47.6737 69.9293 47.5793C69.9405 47.4545 69.952 47.3265 69.952 47.2216C69.9516 44.7572 69.2205 42.3483 67.8511 40.2994C66.4817 38.2505 64.5354 36.6537 62.2585 35.711C59.9816 34.7682 57.4762 34.5218 55.0592 35.0029C52.6423 35.484 50.4222 36.6711 48.6799 38.4139C46.9375 40.1567 45.7511 42.3771 45.2707 44.7942C44.7902 47.2113 45.0373 49.7166 45.9807 51.9933C46.9241 54.2699 48.5215 56.2157 50.5707 57.5846C52.62 58.9534 55.0291 59.6839 57.4935 59.6836C63.9356 59.6836 69.1827 54.9505 69.8315 48.6787L73.8874 46.6578C73.8921 46.7576 73.9016 46.8348 73.9107 46.9092L73.9108 46.9094C73.9224 47.0042 73.9335 47.0946 73.9335 47.2216C73.9332 50.4735 72.9685 53.6522 71.1616 56.3559C69.3547 59.0595 66.7866 61.1666 63.7822 62.4107C60.7777 63.6549 57.4718 63.9801 54.2825 63.3454C51.0932 62.7106 48.1637 61.1444 45.8645 58.8447C43.5653 56.5451 41.9997 53.6153 41.3656 50.4258C40.7316 47.2364 41.0575 43.9305 42.3023 40.9263C43.547 37.9221 45.6547 35.3545 48.3587 33.5481C51.0627 31.7418 54.2416 30.7778 57.4935 30.7782C64.7261 30.7782 70.8738 35.4687 73.072 41.9567L95.0532 31.1822ZM97.4821 92.6767C97.4999 91.4997 97.4574 90.5921 97.3581 89.9645C97.2096 88.9505 96.8286 87.9846 96.2448 87.1424C95.6449 86.2534 94.8052 85.5527 93.8233 85.1215C92.7845 84.6808 91.6651 84.4622 90.5368 84.4798C88.4816 84.4797 86.8105 85.1108 85.5235 86.3729C84.2426 87.6375 83.6021 89.4539 83.6021 91.8222C83.6032 94.3478 84.3146 96.1724 85.7363 97.2962C87.1627 98.4166 88.8065 98.9768 90.6679 98.9768C92.9252 98.9792 94.6814 98.3139 95.9364 96.9808C96.7447 96.1476 97.1985 95.3215 97.2942 94.5131H93.3836C93.2106 94.8684 92.9697 95.1863 92.6746 95.4491C92.1783 95.8711 91.5365 96.0766 90.7496 96.0766C90.0062 96.0779 89.3703 95.9065 88.8421 95.5625C87.9735 95.0142 87.5126 94.0522 87.4594 92.6767H97.4821ZM93.5042 90.319H87.5515C87.6756 89.429 87.9806 88.7271 88.4662 88.2059C88.959 87.6919 89.6468 87.4296 90.5368 87.4296C91.3486 87.433 92.0329 87.6741 92.5789 88.1705C93.132 88.6563 93.4405 89.3688 93.5042 90.319ZM112 98.9768L107.001 91.9853L111.812 85.3165H107.256L104.863 89.2839L102.42 85.3165H97.7299L102.512 92.0492L97.5135 98.9768H102.162L104.7 94.8713L107.228 98.9768H112ZM82.02 98.9096V96.2363C81.8959 96.2433 81.7646 96.2504 81.63 96.2577H81.2684C80.4883 96.2577 80.0204 96.1938 79.8715 96.0591C79.7191 95.9173 79.6376 95.5663 79.6376 95.0025V87.77H82.02V85.2209H79.6376V81.4096H75.8546V85.2209H73.8088V87.77H75.8546V96.1974C75.8546 97.0482 76.0708 97.6828 76.4997 98.0942C77.1616 98.7382 78.3967 99.0301 80.2048 98.9698L82.02 98.9096ZM72.8906 89.9646C72.9899 90.5921 73.0323 91.4997 73.0145 92.6767H62.9883C63.0449 94.0523 63.5024 95.0131 64.371 95.5626C64.9424 95.9177 65.6059 96.0965 66.2784 96.0767C67.0689 96.0767 67.7072 95.8712 68.2035 95.4491C68.4997 95.1866 68.7418 94.8687 68.9161 94.5132H72.8232C72.7274 95.3215 72.2736 96.1476 71.4652 96.9808C70.2138 98.3139 68.4589 98.9793 66.2004 98.9769C64.3356 98.9769 62.6917 98.4167 61.2687 97.2963C59.8436 96.1725 59.131 94.3478 59.1309 91.8223C59.1309 89.454 59.7715 87.6375 61.0525 86.373C62.343 85.1109 64.014 84.4798 66.0657 84.4799C67.1963 84.4623 68.3181 84.6808 69.3594 85.1216C70.3391 85.5549 71.177 86.2552 71.7773 87.1425C72.3625 87.984 72.7437 88.9502 72.8906 89.9646ZM63.084 90.3191H69.0366C68.9729 89.3688 68.6643 88.6564 68.1078 88.1706C67.5618 87.6741 66.8811 87.4331 66.0657 87.4296C65.1793 87.4296 64.488 87.6919 63.9952 88.206C63.5129 88.7271 63.2081 89.4291 63.084 90.3191ZM56.7413 98.9768L56.7696 90.3508C56.7662 89.4681 56.7235 88.7944 56.6313 88.3335C56.5119 87.6836 56.2246 87.0762 55.7981 86.5715C55.3428 86.0248 54.756 85.6026 54.0929 85.3448C53.4834 85.114 52.8372 84.9951 52.1854 84.9939C51.2761 84.9811 50.3756 85.1737 49.5512 85.5575C48.7763 85.9624 48.1293 86.575 47.6828 87.3266C47.4144 86.6776 46.9789 86.1113 46.4206 85.6851C45.7294 85.2208 44.8252 84.9939 43.7049 84.9939C42.5208 84.9939 41.5636 85.2598 40.819 85.7951C40.3935 86.0965 39.9468 86.6034 39.4717 87.3161V85.3164H35.7527V98.9768H39.6349V90.7444C39.6349 89.9999 39.7377 89.4361 39.9468 89.0604C40.3191 88.3974 41.0566 88.0712 42.1485 88.0712C43.088 88.0712 43.7226 88.3974 44.0418 89.0604C44.2189 89.4256 44.3111 90.0177 44.3111 90.8295V98.9768H48.1685V90.8295C48.1521 90.2906 48.2575 89.7549 48.4769 89.2624C48.8812 88.4399 49.608 88.0288 50.6681 88.0288C51.5828 88.0288 52.2067 88.3513 52.5507 88.9823C52.7419 89.3823 52.8332 89.8228 52.8166 90.2659V98.9768H56.7413ZM32.9174 80.4737H29.0884V98.977H32.9174V80.4737ZM26.9891 89.1882C26.9879 85.7977 25.9893 83.2533 23.9933 81.555C22.4982 80.1156 20.3343 79.396 17.5016 79.396C14.6724 79.396 12.5098 80.1157 11.0136 81.555C9.00455 83.2544 8 85.7988 8 89.1882C8.00236 92.5126 9.00691 95.0558 11.0136 96.8178C12.5061 98.2573 14.6688 98.977 17.5016 98.977C20.3331 98.977 22.497 98.2573 23.9933 96.8178C25.9905 95.0535 26.9891 92.5103 26.9891 89.1882ZM21.398 84.3771C22.3671 85.5105 22.8517 87.1141 22.8517 89.1882C22.8517 91.273 22.3659 92.8755 21.398 94.0064C20.442 95.1362 19.1432 95.7011 17.5016 95.7011C15.8624 95.7024 14.5553 95.1375 13.5804 94.0064C12.602 92.8755 12.1126 91.273 12.1126 89.1882C12.1126 87.1 12.602 85.4975 13.5804 84.363C14.5565 83.2332 15.8636 82.6683 17.5016 82.6683C19.1419 82.6695 20.4407 83.2392 21.398 84.3771Z" fill="black"/>
</svg>
