<svg width="120" height="120" viewBox="0 0 120 120" fill="none" xmlns="http://www.w3.org/2000/svg">
<path d="M64.8358 6C58.8366 6 55.1943 8.39967 55.1943 14.4417V71.8195C47.9953 74.7334 44.3101 82.1038 44.3101 89.4314C44.3101 100.787 53.5231 110 64.8787 110C76.1914 110 85.4473 100.787 85.4473 89.4314C85.4473 82.1038 81.7621 74.7334 74.563 71.8195C74.563 50.7367 74.6059 32.9963 74.5202 14.4845C74.563 8.39967 70.9207 6 64.8358 6ZM64.8358 8.39967C69.7209 8.39967 72.1205 9.64236 72.0777 14.4417C72.1205 18.2555 72.1205 21.7264 72.1205 25.3688H64.8787V27.8113H72.1205C72.1205 30.0824 72.1205 32.4392 72.1205 35.0532H64.8787V37.4957H72.1205C72.1205 39.9382 72.1205 42.7235 72.1205 44.7375H66.0785V42.295C66.1213 41.6094 65.3929 40.9666 64.7073 41.0523C64.1073 41.138 63.636 41.6951 63.6788 42.295V81.0754C59.5651 81.6753 56.3941 85.232 56.3941 89.4743C56.3941 94.145 60.2079 97.9588 64.8787 97.9588C69.5494 97.9588 73.3204 94.145 73.3204 89.4743C73.3204 85.232 70.1494 81.6753 66.0785 81.0754V66.506H72.1205C72.1205 68.0058 72.1205 71.5196 72.1205 72.5051C72.1205 73.0194 72.4633 73.5336 72.9775 73.6621C79.6623 75.9333 83.0047 82.5752 83.0047 89.4314C83.0047 99.4586 74.9059 107.6 64.8787 107.6C54.8515 107.6 46.7097 99.4586 46.7097 89.4314C46.7097 82.5752 50.095 75.9333 56.7798 73.6621C57.2511 73.5336 57.6368 73.0194 57.5939 72.5051V14.4845C57.5939 9.64236 60.0365 8.39967 64.8358 8.39967ZM66.0785 47.1372H72.1205C72.1205 50.0511 72.1205 51.7223 72.1205 54.4219H66.0785V47.1372ZM66.0785 56.8216H72.1205C72.1205 59.3927 72.1205 62.0066 72.1205 64.0635H66.0785V56.8216ZM64.8787 83.4322C68.2211 83.4322 70.9207 86.1319 70.9207 89.4743C70.9207 92.8167 68.2211 95.4734 64.8787 95.4734C61.5363 95.4734 58.8366 92.8167 58.8366 89.4743C58.8366 85.8319 61.2363 83.3894 64.8787 83.4322Z" fill="black"/>
<path fill-rule="evenodd" clip-rule="evenodd" d="M41.4157 14.5306C41.4157 14.2376 41.1782 14 40.8851 14C40.5921 14 40.3545 14.2376 40.3545 14.5306V15.3718L39.6683 14.6858C39.4611 14.4786 39.1251 14.4786 38.918 14.6859C38.7108 14.8931 38.7108 15.2291 38.918 15.4363L40.3545 16.8724V21.545L37.222 19.7369L36.9726 17.9627C36.9318 17.6725 36.6634 17.4703 36.3732 17.5111C36.083 17.5519 35.8808 17.8202 35.9216 18.1104L36.0555 19.0636L34.9463 18.4233C34.6925 18.2768 34.368 18.3638 34.2214 18.6176C34.0749 18.8713 34.1618 19.1958 34.4156 19.3423L35.4144 19.9188L34.4569 20.0534C34.1667 20.0942 33.9645 20.3625 34.0052 20.6526C34.046 20.9428 34.3143 21.145 34.6046 21.1042L36.8256 20.7921L36.8342 20.791C36.8572 20.7877 36.8796 20.7831 36.9013 20.7771L39.8235 22.4639L36.9627 24.1152C36.9224 24.0986 36.8794 24.0867 36.8342 24.0804L36.8256 24.0792L34.6046 23.7672C34.3143 23.7264 34.046 23.9286 34.0052 24.2187C33.9645 24.5089 34.1667 24.7772 34.4569 24.818L35.493 24.9635L34.4156 25.5854C34.1618 25.7319 34.0748 26.0564 34.2214 26.3102C34.3679 26.5639 34.6925 26.6509 34.9463 26.5044L36.0469 25.8691L35.9216 26.7609C35.8808 27.0511 36.083 27.3194 36.3732 27.3602C36.6634 27.401 36.9318 27.1988 36.9726 26.9087L37.2133 25.1958L40.3545 23.3827V26.5135L38.918 27.9497C38.7108 28.1569 38.7108 28.4929 38.918 28.7001C39.1251 28.9073 39.4611 28.9074 39.6683 28.7002L40.3545 28.0142V28.8555C40.3545 29.1485 40.5921 29.3861 40.8851 29.3861C41.1782 29.3861 41.4157 29.1485 41.4157 28.8555V28.014L42.1021 28.7002C42.3093 28.9074 42.6453 28.9073 42.8525 28.7001C43.0597 28.4929 43.0596 28.1569 42.8524 27.9497L41.4157 26.5134V23.3829L44.5177 25.1735L45.0573 27.1869C45.1332 27.4699 45.4242 27.6378 45.7073 27.5619C45.9904 27.4861 46.1583 27.1951 46.0825 26.9121L45.8176 25.9238L46.8241 26.5048C47.0779 26.6513 47.4025 26.5643 47.549 26.3105C47.6956 26.0567 47.6086 25.7323 47.3548 25.5858L46.4136 25.0425L47.2993 24.8052C47.5824 24.7294 47.7504 24.4385 47.6746 24.1554C47.5988 23.8724 47.3078 23.7044 47.0247 23.7803L45.1138 24.2922L41.9463 22.4639L45.1803 20.5971L47.0247 21.0912C47.3078 21.1671 47.5988 20.9991 47.6746 20.716C47.7504 20.433 47.5824 20.1421 47.2993 20.0662L46.4802 19.8468L47.3548 19.342C47.6086 19.1955 47.6955 18.871 47.549 18.6172C47.4024 18.3634 47.0779 18.2765 46.8241 18.423L45.7998 19.0142L46.0825 17.9594C46.1583 17.6764 45.9904 17.3855 45.7073 17.3096C45.4242 17.2337 45.1332 17.4017 45.0573 17.6847L44.4999 19.7645L41.4157 21.5448V16.8726L42.8524 15.4363C43.0596 15.2291 43.0597 14.8931 42.8525 14.6859C42.6453 14.4786 42.3093 14.4786 42.1021 14.6858L41.4157 15.3719V14.5306Z" fill="black"/>
<path fill-rule="evenodd" clip-rule="evenodd" d="M41.4157 32.5306C41.4157 32.2376 41.1782 32 40.8851 32C40.5921 32 40.3545 32.2376 40.3545 32.5306V33.3718L39.6683 32.6858C39.4611 32.4786 39.1251 32.4786 38.918 32.6859C38.7108 32.8931 38.7108 33.2291 38.918 33.4363L40.3545 34.8724V39.545L37.222 37.7369L36.9726 35.9627C36.9318 35.6725 36.6634 35.4703 36.3732 35.5111C36.083 35.5519 35.8808 35.8202 35.9216 36.1104L36.0555 37.0636L34.9463 36.4233C34.6925 36.2768 34.368 36.3638 34.2214 36.6176C34.0749 36.8713 34.1618 37.1958 34.4156 37.3423L35.4144 37.9188L34.4569 38.0534C34.1667 38.0942 33.9645 38.3625 34.0052 38.6526C34.046 38.9428 34.3143 39.145 34.6046 39.1042L36.8256 38.7921L36.8342 38.791C36.8572 38.7877 36.8796 38.7831 36.9013 38.7771L39.8235 40.4639L36.9627 42.1152C36.9224 42.0986 36.8794 42.0867 36.8342 42.0804L36.8256 42.0792L34.6046 41.7672C34.3143 41.7264 34.046 41.9286 34.0052 42.2187C33.9645 42.5089 34.1667 42.7772 34.4569 42.818L35.493 42.9635L34.4156 43.5854C34.1618 43.7319 34.0748 44.0564 34.2214 44.3102C34.3679 44.5639 34.6925 44.6509 34.9463 44.5044L36.0469 43.8691L35.9216 44.7609C35.8808 45.0511 36.083 45.3194 36.3732 45.3602C36.6634 45.401 36.9318 45.1988 36.9726 44.9087L37.2133 43.1958L40.3545 41.3827V44.5135L38.918 45.9497C38.7108 46.1569 38.7108 46.4929 38.918 46.7001C39.1251 46.9073 39.4611 46.9074 39.6683 46.7002L40.3545 46.0142V46.8555C40.3545 47.1485 40.5921 47.3861 40.8851 47.3861C41.1782 47.3861 41.4157 47.1485 41.4157 46.8555V46.014L42.1021 46.7002C42.3093 46.9074 42.6453 46.9073 42.8525 46.7001C43.0597 46.4929 43.0596 46.1569 42.8524 45.9497L41.4157 44.5134V41.3829L44.5177 43.1735L45.0573 45.1869C45.1332 45.4699 45.4242 45.6378 45.7073 45.5619C45.9904 45.4861 46.1583 45.1951 46.0825 44.9121L45.8176 43.9238L46.8241 44.5048C47.0779 44.6513 47.4025 44.5643 47.549 44.3105C47.6956 44.0567 47.6086 43.7323 47.3548 43.5858L46.4136 43.0425L47.2993 42.8052C47.5824 42.7294 47.7504 42.4385 47.6746 42.1554C47.5988 41.8724 47.3078 41.7044 47.0247 41.7803L45.1138 42.2922L41.9463 40.4639L45.1803 38.5971L47.0247 39.0912C47.3078 39.1671 47.5988 38.9991 47.6746 38.716C47.7504 38.433 47.5824 38.1421 47.2993 38.0662L46.4802 37.8468L47.3548 37.342C47.6086 37.1955 47.6955 36.871 47.549 36.6172C47.4024 36.3634 47.0779 36.2765 46.8241 36.423L45.7998 37.0142L46.0825 35.9594C46.1583 35.6764 45.9904 35.3855 45.7073 35.3096C45.4242 35.2337 45.1332 35.4017 45.0573 35.6847L44.4999 37.7645L41.4157 39.5448V34.8726L42.8524 33.4363C43.0596 33.2291 43.0597 32.8931 42.8525 32.6859C42.6453 32.4786 42.3093 32.4786 42.1021 32.6858L41.4157 33.3719V32.5306Z" fill="black"/>
<path fill-rule="evenodd" clip-rule="evenodd" d="M41.4157 50.5306C41.4157 50.2376 41.1782 50 40.8851 50C40.5921 50 40.3545 50.2376 40.3545 50.5306V51.3718L39.6683 50.6858C39.4611 50.4786 39.1251 50.4786 38.918 50.6859C38.7108 50.8931 38.7108 51.2291 38.918 51.4363L40.3545 52.8724V57.545L37.222 55.7369L36.9726 53.9627C36.9318 53.6725 36.6634 53.4703 36.3732 53.5111C36.083 53.5519 35.8808 53.8202 35.9216 54.1104L36.0555 55.0636L34.9463 54.4233C34.6925 54.2768 34.368 54.3638 34.2214 54.6176C34.0749 54.8713 34.1618 55.1958 34.4156 55.3423L35.4144 55.9188L34.4569 56.0534C34.1667 56.0942 33.9645 56.3625 34.0052 56.6526C34.046 56.9428 34.3143 57.145 34.6046 57.1042L36.8256 56.7921L36.8342 56.791C36.8572 56.7877 36.8796 56.7831 36.9013 56.7771L39.8235 58.4639L36.9627 60.1152C36.9224 60.0986 36.8794 60.0867 36.8342 60.0804L36.8256 60.0792L34.6046 59.7672C34.3143 59.7264 34.046 59.9286 34.0052 60.2187C33.9645 60.5089 34.1667 60.7772 34.4569 60.818L35.493 60.9635L34.4156 61.5854C34.1618 61.7319 34.0748 62.0564 34.2214 62.3102C34.3679 62.5639 34.6925 62.6509 34.9463 62.5044L36.0469 61.8691L35.9216 62.7609C35.8808 63.0511 36.083 63.3194 36.3732 63.3602C36.6634 63.401 36.9318 63.1988 36.9726 62.9087L37.2133 61.1958L40.3545 59.3827V62.5135L38.918 63.9497C38.7108 64.1569 38.7108 64.4929 38.918 64.7001C39.1251 64.9073 39.4611 64.9074 39.6683 64.7002L40.3545 64.0142V64.8555C40.3545 65.1485 40.5921 65.3861 40.8851 65.3861C41.1782 65.3861 41.4157 65.1485 41.4157 64.8555V64.014L42.1021 64.7002C42.3093 64.9074 42.6453 64.9073 42.8525 64.7001C43.0597 64.4929 43.0596 64.1569 42.8524 63.9497L41.4157 62.5134V59.3829L44.5177 61.1735L45.0573 63.1869C45.1332 63.4699 45.4242 63.6378 45.7073 63.5619C45.9904 63.4861 46.1583 63.1951 46.0825 62.9121L45.8176 61.9238L46.8241 62.5048C47.0779 62.6513 47.4025 62.5643 47.549 62.3105C47.6956 62.0567 47.6086 61.7323 47.3548 61.5858L46.4136 61.0425L47.2993 60.8052C47.5824 60.7294 47.7504 60.4385 47.6746 60.1554C47.5988 59.8724 47.3078 59.7044 47.0247 59.7803L45.1138 60.2922L41.9463 58.4639L45.1803 56.5971L47.0247 57.0912C47.3078 57.1671 47.5988 56.9991 47.6746 56.716C47.7504 56.433 47.5824 56.1421 47.2993 56.0662L46.4802 55.8468L47.3548 55.342C47.6086 55.1955 47.6955 54.871 47.549 54.6172C47.4024 54.3634 47.0779 54.2765 46.8241 54.423L45.7998 55.0142L46.0825 53.9594C46.1583 53.6764 45.9904 53.3855 45.7073 53.3096C45.4242 53.2337 45.1332 53.4017 45.0573 53.6847L44.4999 55.7645L41.4157 57.5448V52.8726L42.8524 51.4363C43.0596 51.2291 43.0597 50.8931 42.8525 50.6859C42.6453 50.4786 42.3093 50.4786 42.1021 50.6858L41.4157 51.3719V50.5306Z" fill="black"/>
</svg>
