<svg width="120" height="120" viewBox="0 0 120 120" fill="none" xmlns="http://www.w3.org/2000/svg">
<path fill-rule="evenodd" clip-rule="evenodd" d="M40.8851 6C41.1782 6 41.4157 6.23756 41.4157 6.53061V7.37194L42.1021 6.68577C42.3093 6.47858 42.6453 6.47862 42.8525 6.68586C43.0597 6.8931 43.0596 7.22906 42.8524 7.43626L41.4157 8.87256V13.5448L44.4999 11.7645L45.0573 9.6847C45.1332 9.40166 45.4242 9.23373 45.7073 9.3096C45.9904 9.38547 46.1583 9.67641 46.0825 9.95944L45.7998 11.0142L46.8241 10.423C47.0779 10.2765 47.4024 10.3634 47.549 10.6172C47.6955 10.871 47.6086 11.1955 47.3548 11.342L46.4802 11.8468L47.2993 12.0662C47.5824 12.1421 47.7504 12.433 47.6746 12.716C47.5988 12.9991 47.3078 13.1671 47.0247 13.0912L45.1803 12.5971L41.9463 14.4639L45.1138 16.2922L47.0247 15.7803C47.3078 15.7044 47.5988 15.8724 47.6746 16.1554C47.7504 16.4385 47.5824 16.7294 47.2993 16.8052L46.4136 17.0425L47.3548 17.5858C47.6086 17.7323 47.6956 18.0567 47.549 18.3105C47.4025 18.5643 47.0779 18.6513 46.8241 18.5048L45.8176 17.9238L46.0825 18.9121C46.1583 19.1951 45.9904 19.4861 45.7073 19.5619C45.4242 19.6378 45.1332 19.4699 45.0573 19.1869L44.5177 17.1735L41.4157 15.3829V18.5134L42.8524 19.9497C43.0596 20.1569 43.0597 20.4929 42.8525 20.7001C42.6453 20.9073 42.3093 20.9074 42.1021 20.7002L41.4157 20.014V20.8555C41.4157 21.1485 41.1782 21.3861 40.8851 21.3861C40.5921 21.3861 40.3545 21.1485 40.3545 20.8555V20.0142L39.6683 20.7002C39.4611 20.9074 39.1251 20.9073 38.918 20.7001C38.7108 20.4929 38.7108 20.1569 38.918 19.9497L40.3545 18.5135V15.3827L37.2133 17.1958L36.9726 18.9087C36.9318 19.1988 36.6634 19.401 36.3732 19.3602C36.083 19.3194 35.8808 19.0511 35.9216 18.7609L36.0469 17.8691L34.9463 18.5044C34.6925 18.6509 34.3679 18.5639 34.2214 18.3102C34.0748 18.0564 34.1618 17.7319 34.4156 17.5854L35.493 16.9635L34.4569 16.818C34.1667 16.7772 33.9645 16.5089 34.0052 16.2187C34.046 15.9286 34.3143 15.7264 34.6046 15.7672L36.8256 16.0792L36.8342 16.0804C36.8794 16.0867 36.9224 16.0986 36.9627 16.1152L39.8235 14.4639L36.9013 12.7771C36.8796 12.7831 36.8572 12.7877 36.8342 12.791L36.8256 12.7921L34.6046 13.1042C34.3143 13.145 34.046 12.9428 34.0052 12.6526C33.9645 12.3625 34.1667 12.0942 34.4569 12.0534L35.4144 11.9188L34.4156 11.3423C34.1618 11.1958 34.0749 10.8713 34.2214 10.6176C34.368 10.3638 34.6925 10.2768 34.9463 10.4233L36.0555 11.0636L35.9216 10.1104C35.8808 9.82024 36.083 9.55194 36.3732 9.51115C36.6634 9.47035 36.9318 9.6725 36.9726 9.96266L37.222 11.7369L40.3545 13.545V8.87241L38.918 7.43626C38.7108 7.22906 38.7108 6.8931 38.918 6.68586C39.1251 6.47862 39.4611 6.47858 39.6683 6.68577L40.3545 7.37179V6.53061C40.3545 6.23756 40.5921 6 40.8851 6ZM64.8399 9.18475C58.8407 9.18475 55.1984 11.5844 55.1984 17.6265V75.0043C47.9994 77.9182 44.3142 85.2886 44.3142 92.6162C44.3142 103.972 53.5272 113.185 64.8828 113.185C76.1955 113.185 85.4514 103.972 85.4514 92.6162C85.4514 85.2886 81.7662 77.9182 74.5672 75.0043C74.5672 69.5804 74.57 64.3778 74.5727 59.3263V59.3262V59.3261V59.3259C74.5807 44.7422 74.588 31.4185 74.5243 17.6693C74.5672 11.5844 70.9248 9.18475 64.8399 9.18475ZM64.8399 11.5844C69.725 11.5844 72.1246 12.8271 72.0818 17.6265C72.1246 21.4402 72.1246 24.9112 72.1246 28.5535H64.8828V30.996H72.1246V38.2379H64.8828V40.6804H72.1246V47.9223H66.0826V45.4798C66.1255 44.7942 65.397 44.1514 64.7114 44.2371C64.1115 44.3228 63.6401 44.8799 63.6829 45.4798V84.2602C59.5692 84.8601 56.3982 88.4167 56.3982 92.659C56.3982 97.3298 60.212 101.144 64.8828 101.144C69.5536 101.144 73.3245 97.3298 73.3245 92.659C73.3245 88.4167 70.1535 84.8601 66.0826 84.2602V69.6907H72.1246V75.6899C72.1246 76.2041 72.4674 76.7183 72.9817 76.8469C79.6665 79.118 83.0089 85.76 83.0089 92.6162C83.0089 102.643 74.91 110.785 64.8828 110.785C54.8556 110.785 46.7138 102.643 46.7138 92.6162C46.7138 85.76 50.0991 79.118 56.7839 76.8469C57.2552 76.7183 57.6409 76.2041 57.5981 75.6899V17.6693C57.5981 12.8271 60.0406 11.5844 64.8399 11.5844ZM66.0826 50.322H72.1246V57.6067H66.0826V50.322ZM66.0826 60.0063H72.1246V67.2482H66.0826V60.0063ZM64.8828 86.617C68.2252 86.617 70.9248 89.3166 70.9248 92.659C70.9248 96.0014 68.2252 98.6582 64.8828 98.6582C61.5404 98.6582 58.8407 96.0014 58.8407 92.659C58.8407 89.0166 61.2404 86.5741 64.8828 86.617ZM41.4157 24.5306C41.4157 24.2376 41.1782 24 40.8851 24C40.5921 24 40.3545 24.2376 40.3545 24.5306V25.3718L39.6683 24.6858C39.4611 24.4786 39.1251 24.4786 38.918 24.6859C38.7108 24.8931 38.7108 25.2291 38.918 25.4363L40.3545 26.8724V31.545L37.222 29.7369L36.9726 27.9627C36.9318 27.6725 36.6634 27.4703 36.3732 27.5111C36.083 27.5519 35.8808 27.8202 35.9216 28.1104L36.0555 29.0636L34.9463 28.4233C34.6925 28.2768 34.368 28.3638 34.2214 28.6176C34.0749 28.8713 34.1618 29.1958 34.4156 29.3423L35.4144 29.9188L34.4569 30.0534C34.1667 30.0942 33.9645 30.3625 34.0052 30.6526C34.046 30.9428 34.3143 31.145 34.6046 31.1042L36.8256 30.7921L36.8342 30.791C36.8572 30.7877 36.8796 30.7831 36.9013 30.7771L39.8235 32.4639L36.9627 34.1152C36.9224 34.0986 36.8794 34.0867 36.8342 34.0804L36.8256 34.0792L34.6046 33.7672C34.3143 33.7264 34.046 33.9286 34.0052 34.2187C33.9645 34.5089 34.1667 34.7772 34.4569 34.818L35.493 34.9635L34.4156 35.5854C34.1618 35.7319 34.0748 36.0564 34.2214 36.3102C34.3679 36.5639 34.6925 36.6509 34.9463 36.5044L36.0469 35.8691L35.9216 36.7609C35.8808 37.0511 36.083 37.3194 36.3732 37.3602C36.6634 37.401 36.9318 37.1988 36.9726 36.9087L37.2133 35.1958L40.3545 33.3827V36.5135L38.918 37.9497C38.7108 38.1569 38.7108 38.4929 38.918 38.7001C39.1251 38.9073 39.4611 38.9074 39.6683 38.7002L40.3545 38.0142V38.8555C40.3545 39.1485 40.5921 39.3861 40.8851 39.3861C41.1782 39.3861 41.4157 39.1485 41.4157 38.8555V38.014L42.1021 38.7002C42.3093 38.9074 42.6453 38.9073 42.8525 38.7001C43.0597 38.4929 43.0596 38.1569 42.8524 37.9497L41.4157 36.5134V33.3829L44.5177 35.1735L45.0573 37.1869C45.1332 37.4699 45.4242 37.6378 45.7073 37.562C45.9904 37.4861 46.1583 37.1951 46.0825 36.9121L45.8176 35.9238L46.8241 36.5048C47.0779 36.6513 47.4025 36.5643 47.549 36.3105C47.6956 36.0567 47.6086 35.7323 47.3548 35.5858L46.4136 35.0425L47.2993 34.8052C47.5824 34.7294 47.7504 34.4385 47.6746 34.1554C47.5988 33.8724 47.3078 33.7044 47.0247 33.7803L45.1138 34.2922L41.9463 32.4639L45.1803 30.5971L47.0247 31.0912C47.3078 31.167 47.5988 30.9991 47.6746 30.716C47.7504 30.433 47.5824 30.1421 47.2993 30.0662L46.4802 29.8468L47.3548 29.342C47.6086 29.1955 47.6955 28.871 47.549 28.6172C47.4024 28.3634 47.0779 28.2765 46.8241 28.423L45.7998 29.0142L46.0825 27.9594C46.1583 27.6764 45.9904 27.3855 45.7073 27.3096C45.4242 27.2337 45.1332 27.4017 45.0573 27.6847L44.4999 29.7645L41.4157 31.5448V26.8726L42.8524 25.4363C43.0596 25.2291 43.0597 24.8931 42.8525 24.6859C42.6453 24.4786 42.3093 24.4786 42.1021 24.6858L41.4157 25.3719V24.5306ZM41.4157 42.5306C41.4157 42.2376 41.1782 42 40.8851 42C40.5921 42 40.3545 42.2376 40.3545 42.5306V43.3718L39.6683 42.6858C39.4611 42.4786 39.1251 42.4786 38.918 42.6859C38.7108 42.8931 38.7108 43.2291 38.918 43.4363L40.3545 44.8724V49.545L37.222 47.7369L36.9726 45.9627C36.9318 45.6725 36.6634 45.4703 36.3732 45.5111C36.083 45.5519 35.8808 45.8202 35.9216 46.1104L36.0555 47.0636L34.9463 46.4233C34.6925 46.2768 34.368 46.3638 34.2214 46.6176C34.0749 46.8713 34.1618 47.1958 34.4156 47.3423L35.4144 47.9188L34.4569 48.0534C34.1667 48.0942 33.9645 48.3625 34.0052 48.6526C34.046 48.9428 34.3143 49.145 34.6046 49.1042L36.8256 48.7921L36.8342 48.791C36.8572 48.7877 36.8796 48.7831 36.9013 48.7771L39.8235 50.4639L36.9627 52.1152C36.9224 52.0986 36.8794 52.0867 36.8342 52.0804L36.8256 52.0792L34.6046 51.7672C34.3143 51.7264 34.046 51.9286 34.0052 52.2187C33.9645 52.5089 34.1667 52.7772 34.4569 52.818L35.493 52.9635L34.4156 53.5854C34.1618 53.7319 34.0748 54.0564 34.2214 54.3102C34.3679 54.5639 34.6925 54.6509 34.9463 54.5044L36.0469 53.8691L35.9216 54.7609C35.8808 55.0511 36.083 55.3194 36.3732 55.3602C36.6634 55.401 36.9318 55.1988 36.9726 54.9087L37.2133 53.1958L40.3545 51.3827V54.5135L38.918 55.9497C38.7108 56.1569 38.7108 56.4929 38.918 56.7001C39.1251 56.9073 39.4611 56.9074 39.6683 56.7002L40.3545 56.0142V56.8555C40.3545 57.1485 40.5921 57.3861 40.8851 57.3861C41.1782 57.3861 41.4157 57.1485 41.4157 56.8555V56.014L42.1021 56.7002C42.3093 56.9074 42.6453 56.9073 42.8525 56.7001C43.0597 56.4929 43.0596 56.1569 42.8524 55.9497L41.4157 54.5134V51.3829L44.5177 53.1735L45.0573 55.1869C45.1332 55.4699 45.4242 55.6378 45.7073 55.562C45.9904 55.4861 46.1583 55.1951 46.0825 54.9121L45.8176 53.9238L46.8241 54.5048C47.0779 54.6513 47.4025 54.5643 47.549 54.3105C47.6956 54.0567 47.6086 53.7323 47.3548 53.5858L46.4136 53.0425L47.2993 52.8052C47.5824 52.7294 47.7504 52.4385 47.6746 52.1554C47.5988 51.8724 47.3078 51.7044 47.0247 51.7803L45.1138 52.2922L41.9463 50.4639L45.1803 48.5971L47.0247 49.0912C47.3078 49.167 47.5988 48.9991 47.6746 48.716C47.7504 48.433 47.5824 48.1421 47.2993 48.0662L46.4802 47.8468L47.3548 47.342C47.6086 47.1955 47.6955 46.871 47.549 46.6172C47.4024 46.3634 47.0779 46.2765 46.8241 46.423L45.7998 47.0142L46.0825 45.9594C46.1583 45.6764 45.9904 45.3855 45.7073 45.3096C45.4242 45.2337 45.1332 45.4017 45.0573 45.6847L44.4999 47.7645L41.4157 49.5448V44.8726L42.8524 43.4363C43.0596 43.2291 43.0597 42.8931 42.8525 42.6859C42.6453 42.4786 42.3093 42.4786 42.1021 42.6858L41.4157 43.3719V42.5306ZM40.8851 60C41.1782 60 41.4157 60.2376 41.4157 60.5306V61.3719L42.1021 60.6858C42.3093 60.4786 42.6453 60.4786 42.8525 60.6859C43.0597 60.8931 43.0596 61.2291 42.8524 61.4363L41.4157 62.8726V67.5448L44.4999 65.7645L45.0573 63.6847C45.1332 63.4017 45.4242 63.2337 45.7073 63.3096C45.9904 63.3855 46.1583 63.6764 46.0825 63.9594L45.7998 65.0142L46.8241 64.423C47.0779 64.2765 47.4024 64.3634 47.549 64.6172C47.6955 64.871 47.6086 65.1955 47.3548 65.342L46.4802 65.8468L47.2993 66.0662C47.5824 66.1421 47.7504 66.433 47.6746 66.716C47.5988 66.9991 47.3078 67.167 47.0247 67.0912L45.1803 66.5971L41.9463 68.4639L45.1138 70.2922L47.0247 69.7803C47.3078 69.7044 47.5988 69.8724 47.6746 70.1554C47.7504 70.4385 47.5824 70.7294 47.2993 70.8052L46.4136 71.0425L47.3548 71.5858C47.6086 71.7323 47.6956 72.0567 47.549 72.3105C47.4025 72.5643 47.0779 72.6513 46.8241 72.5048L45.8176 71.9238L46.0825 72.9121C46.1583 73.1951 45.9904 73.4861 45.7073 73.562C45.4242 73.6378 45.1332 73.4699 45.0573 73.1869L44.5177 71.1735L41.4157 69.3829V72.5134L42.8524 73.9497C43.0596 74.1569 43.0597 74.4929 42.8525 74.7001C42.6453 74.9073 42.3093 74.9074 42.1021 74.7002L41.4157 74.014V74.8555C41.4157 75.1485 41.1782 75.3861 40.8851 75.3861C40.5921 75.3861 40.3545 75.1485 40.3545 74.8555V74.0142L39.6683 74.7002C39.4611 74.9074 39.1251 74.9073 38.918 74.7001C38.7108 74.4929 38.7108 74.1569 38.918 73.9497L40.3545 72.5135V69.3827L37.2133 71.1958L36.9726 72.9087C36.9318 73.1989 36.6634 73.401 36.3732 73.3602C36.083 73.3194 35.8808 73.0511 35.9216 72.7609L36.0469 71.8691L34.9463 72.5044C34.6925 72.6509 34.3679 72.5639 34.2214 72.3102C34.0748 72.0564 34.1618 71.7319 34.4156 71.5854L35.493 70.9635L34.4569 70.818C34.1667 70.7772 33.9645 70.5089 34.0052 70.2187C34.046 69.9286 34.3143 69.7264 34.6046 69.7672L36.8256 70.0792L36.8342 70.0804C36.8794 70.0867 36.9224 70.0986 36.9627 70.1152L39.8235 68.4639L36.9013 66.7771C36.8796 66.7831 36.8572 66.7877 36.8342 66.791L36.8256 66.7921L34.6046 67.1042C34.3143 67.145 34.046 66.9428 34.0052 66.6526C33.9645 66.3625 34.1667 66.0942 34.4569 66.0534L35.4144 65.9188L34.4156 65.3423C34.1618 65.1958 34.0749 64.8713 34.2214 64.6176C34.368 64.3638 34.6925 64.2768 34.9463 64.4233L36.0555 65.0636L35.9216 64.1104C35.8808 63.8202 36.083 63.5519 36.3732 63.5111C36.6634 63.4703 36.9318 63.6725 36.9726 63.9627L37.222 65.7369L40.3545 67.545V62.8724L38.918 61.4363C38.7108 61.2291 38.7108 60.8931 38.918 60.6859C39.1251 60.4786 39.4611 60.4786 39.6683 60.6858L40.3545 61.3718V60.5306C40.3545 60.2376 40.5921 60 40.8851 60Z" fill="black"/>
</svg>
