<svg width="120" height="120" viewBox="0 0 120 120" fill="none" xmlns="http://www.w3.org/2000/svg">
<path d="M64.8357 6C58.8366 6 55.1942 8.39967 55.1942 14.4417V71.8195C47.9952 74.7334 44.31 82.1038 44.31 89.4314C44.31 100.787 53.523 110 64.8786 110C76.1913 110 85.4472 100.787 85.4472 89.4314C85.4472 82.1038 81.762 74.7334 74.563 71.8195C74.563 50.7367 74.6058 32.9963 74.5201 14.4845C74.563 8.39967 70.9206 6 64.8357 6ZM64.8357 8.39967C69.7208 8.39967 72.1205 9.64236 72.0776 14.4417C72.1205 18.2555 72.1205 21.7264 72.1205 25.3688H64.8786V27.8113H72.1205C72.1205 30.0824 72.1205 32.4392 72.1205 35.0532H64.8786V37.4957H72.1205C72.1205 39.9382 72.1205 42.7235 72.1205 44.7375H66.0784V42.295C66.1213 41.6094 65.3928 40.9666 64.7072 41.0523C64.1073 41.138 63.6359 41.6951 63.6788 42.295V81.0754C59.565 81.6753 56.394 85.232 56.394 89.4743C56.394 94.145 60.2078 97.9588 64.8786 97.9588C69.5494 97.9588 73.3203 94.145 73.3203 89.4743C73.3203 85.232 70.1493 81.6753 66.0784 81.0754V66.506H72.1205C72.1205 68.0058 72.1205 71.5196 72.1205 72.5051C72.1205 73.0194 72.4633 73.5336 72.9775 73.6621C79.6623 75.9333 83.0047 82.5752 83.0047 89.4314C83.0047 99.4586 74.9058 107.6 64.8786 107.6C54.8514 107.6 46.7097 99.4586 46.7097 89.4314C46.7097 82.5752 50.0949 75.9333 56.7797 73.6621C57.2511 73.5336 57.6367 73.0194 57.5939 72.5051V14.4845C57.5939 9.64236 60.0364 8.39967 64.8357 8.39967ZM66.0784 47.1372H72.1205C72.1205 50.0511 72.1205 51.7223 72.1205 54.4219H66.0784V47.1372ZM66.0784 56.8216H72.1205C72.1205 59.3927 72.1205 62.0066 72.1205 64.0635H66.0784V56.8216ZM64.8786 83.4322C68.221 83.4322 70.9206 86.1319 70.9206 89.4743C70.9206 92.8167 68.221 95.4734 64.8786 95.4734C61.5362 95.4734 58.8366 92.8167 58.8366 89.4743C58.8366 85.8319 61.2362 83.3894 64.8786 83.4322Z" fill="black"/>
<path fill-rule="evenodd" clip-rule="evenodd" d="M41.4157 24.5306C41.4157 24.2376 41.1782 24 40.8851 24C40.5921 24 40.3545 24.2376 40.3545 24.5306V25.3718L39.6683 24.6858C39.4611 24.4786 39.1251 24.4786 38.918 24.6859C38.7108 24.8931 38.7108 25.2291 38.918 25.4363L40.3545 26.8724V31.545L37.222 29.7369L36.9726 27.9627C36.9318 27.6725 36.6634 27.4703 36.3732 27.5111C36.083 27.5519 35.8808 27.8202 35.9216 28.1104L36.0555 29.0636L34.9463 28.4233C34.6925 28.2768 34.368 28.3638 34.2214 28.6176C34.0749 28.8713 34.1618 29.1958 34.4156 29.3423L35.4144 29.9188L34.4569 30.0534C34.1667 30.0942 33.9645 30.3625 34.0052 30.6526C34.046 30.9428 34.3143 31.145 34.6046 31.1042L36.8256 30.7921L36.8342 30.791C36.8572 30.7877 36.8796 30.7831 36.9013 30.7771L39.8235 32.4639L36.9627 34.1152C36.9224 34.0986 36.8794 34.0867 36.8342 34.0804L36.8256 34.0792L34.6046 33.7672C34.3143 33.7264 34.046 33.9286 34.0052 34.2187C33.9645 34.5089 34.1667 34.7772 34.4569 34.818L35.493 34.9635L34.4156 35.5854C34.1618 35.7319 34.0748 36.0564 34.2214 36.3102C34.3679 36.5639 34.6925 36.6509 34.9463 36.5044L36.0469 35.8691L35.9216 36.7609C35.8808 37.0511 36.083 37.3194 36.3732 37.3602C36.6634 37.401 36.9318 37.1988 36.9726 36.9087L37.2133 35.1958L40.3545 33.3827V36.5135L38.918 37.9497C38.7108 38.1569 38.7108 38.4929 38.918 38.7001C39.1251 38.9073 39.4611 38.9074 39.6683 38.7002L40.3545 38.0142V38.8555C40.3545 39.1485 40.5921 39.3861 40.8851 39.3861C41.1782 39.3861 41.4157 39.1485 41.4157 38.8555V38.014L42.1021 38.7002C42.3093 38.9074 42.6453 38.9073 42.8525 38.7001C43.0597 38.4929 43.0596 38.1569 42.8524 37.9497L41.4157 36.5134V33.3829L44.5177 35.1735L45.0573 37.1869C45.1332 37.4699 45.4242 37.6378 45.7073 37.5619C45.9904 37.4861 46.1583 37.1951 46.0825 36.9121L45.8176 35.9238L46.8241 36.5048C47.0779 36.6513 47.4025 36.5643 47.549 36.3105C47.6956 36.0567 47.6086 35.7323 47.3548 35.5858L46.4136 35.0425L47.2993 34.8052C47.5824 34.7294 47.7504 34.4385 47.6746 34.1554C47.5988 33.8724 47.3078 33.7044 47.0247 33.7803L45.1138 34.2922L41.9463 32.4639L45.1803 30.5971L47.0247 31.0912C47.3078 31.1671 47.5988 30.9991 47.6746 30.716C47.7504 30.433 47.5824 30.1421 47.2993 30.0662L46.4802 29.8468L47.3548 29.342C47.6086 29.1955 47.6955 28.871 47.549 28.6172C47.4024 28.3634 47.0779 28.2765 46.8241 28.423L45.7998 29.0142L46.0825 27.9594C46.1583 27.6764 45.9904 27.3855 45.7073 27.3096C45.4242 27.2337 45.1332 27.4017 45.0573 27.6847L44.4999 29.7645L41.4157 31.5448V26.8726L42.8524 25.4363C43.0596 25.2291 43.0597 24.8931 42.8525 24.6859C42.6453 24.4786 42.3093 24.4786 42.1021 24.6858L41.4157 25.3719V24.5306Z" fill="black"/>
<path fill-rule="evenodd" clip-rule="evenodd" d="M41.4157 42.5306C41.4157 42.2376 41.1782 42 40.8851 42C40.5921 42 40.3545 42.2376 40.3545 42.5306V43.3718L39.6683 42.6858C39.4611 42.4786 39.1251 42.4786 38.918 42.6859C38.7108 42.8931 38.7108 43.2291 38.918 43.4363L40.3545 44.8724V49.545L37.222 47.7369L36.9726 45.9627C36.9318 45.6725 36.6634 45.4703 36.3732 45.5111C36.083 45.5519 35.8808 45.8202 35.9216 46.1104L36.0555 47.0636L34.9463 46.4233C34.6925 46.2768 34.368 46.3638 34.2214 46.6176C34.0749 46.8713 34.1618 47.1958 34.4156 47.3423L35.4144 47.9188L34.4569 48.0534C34.1667 48.0942 33.9645 48.3625 34.0052 48.6526C34.046 48.9428 34.3143 49.145 34.6046 49.1042L36.8256 48.7921L36.8342 48.791C36.8572 48.7877 36.8796 48.7831 36.9013 48.7771L39.8235 50.4639L36.9627 52.1152C36.9224 52.0986 36.8794 52.0867 36.8342 52.0804L36.8256 52.0792L34.6046 51.7672C34.3143 51.7264 34.046 51.9286 34.0052 52.2187C33.9645 52.5089 34.1667 52.7772 34.4569 52.818L35.493 52.9635L34.4156 53.5854C34.1618 53.7319 34.0748 54.0564 34.2214 54.3102C34.3679 54.5639 34.6925 54.6509 34.9463 54.5044L36.0469 53.8691L35.9216 54.7609C35.8808 55.0511 36.083 55.3194 36.3732 55.3602C36.6634 55.401 36.9318 55.1988 36.9726 54.9087L37.2133 53.1958L40.3545 51.3827V54.5135L38.918 55.9497C38.7108 56.1569 38.7108 56.4929 38.918 56.7001C39.1251 56.9073 39.4611 56.9074 39.6683 56.7002L40.3545 56.0142V56.8555C40.3545 57.1485 40.5921 57.3861 40.8851 57.3861C41.1782 57.3861 41.4157 57.1485 41.4157 56.8555V56.014L42.1021 56.7002C42.3093 56.9074 42.6453 56.9073 42.8525 56.7001C43.0597 56.4929 43.0596 56.1569 42.8524 55.9497L41.4157 54.5134V51.3829L44.5177 53.1735L45.0573 55.1869C45.1332 55.4699 45.4242 55.6378 45.7073 55.5619C45.9904 55.4861 46.1583 55.1951 46.0825 54.9121L45.8176 53.9238L46.8241 54.5048C47.0779 54.6513 47.4025 54.5643 47.549 54.3105C47.6956 54.0567 47.6086 53.7323 47.3548 53.5858L46.4136 53.0425L47.2993 52.8052C47.5824 52.7294 47.7504 52.4385 47.6746 52.1554C47.5988 51.8724 47.3078 51.7044 47.0247 51.7803L45.1138 52.2922L41.9463 50.4639L45.1803 48.5971L47.0247 49.0912C47.3078 49.1671 47.5988 48.9991 47.6746 48.716C47.7504 48.433 47.5824 48.1421 47.2993 48.0662L46.4802 47.8468L47.3548 47.342C47.6086 47.1955 47.6955 46.871 47.549 46.6172C47.4024 46.3634 47.0779 46.2765 46.8241 46.423L45.7998 47.0142L46.0825 45.9594C46.1583 45.6764 45.9904 45.3855 45.7073 45.3096C45.4242 45.2337 45.1332 45.4017 45.0573 45.6847L44.4999 47.7645L41.4157 49.5448V44.8726L42.8524 43.4363C43.0596 43.2291 43.0597 42.8931 42.8525 42.6859C42.6453 42.4786 42.3093 42.4786 42.1021 42.6858L41.4157 43.3719V42.5306Z" fill="black"/>
</svg>
