<svg width="32" height="32" viewBox="0 0 32 32" fill="none" xmlns="http://www.w3.org/2000/svg">
<path fill-rule="evenodd" clip-rule="evenodd" d="M22.9338 8.97461C22.9338 12.8297 19.8087 15.9549 15.9536 15.9549C12.0985 15.9549 8.97333 12.8297 8.97333 8.97461C8.97333 5.11952 12.0985 1.99436 15.9536 1.99436C19.8087 1.99436 22.9338 5.11952 22.9338 8.97461ZM24.9282 8.97461C24.9282 13.9311 20.9101 17.9492 15.9536 17.9492C10.997 17.9492 6.97897 13.9311 6.97897 8.97461C6.97897 4.01807 10.997 0 15.9536 0C20.9101 0 24.9282 4.01807 24.9282 8.97461ZM2.98617 32C3.13454 30.3678 3.95262 27.8425 5.9349 25.7378C7.88873 23.6633 11.0282 21.9379 15.9536 21.9379C20.879 21.9379 24.0184 23.6633 25.9723 25.7378C27.9546 27.8425 28.7726 30.3678 28.921 32L30.9072 31.8194C30.7232 29.7953 29.7463 26.8361 27.4241 24.3704C25.0734 21.8746 21.3988 19.9436 15.9536 19.9436C10.5083 19.9436 6.83373 21.8746 4.48307 24.3704C2.16087 26.8361 1.18402 29.7953 1 31.8194L2.98617 32Z" fill="black"/>
</svg>
