<svg width="32" height="32" viewBox="0 0 32 32" fill="currentColor" xmlns="http://www.w3.org/2000/svg">
<g clip-path="url(#clip0_1_1350)">
<path fill-rule="evenodd" clip-rule="evenodd" d="M6.06897 13.0467C6.1591 11.1222 6.87291 8.62326 8.4478 6.61648C10.0106 4.62505 12.4297 3.10345 16 3.10345C19.5659 3.10345 21.8916 4.62106 23.4096 6.61055C24.9359 8.61083 25.6588 11.1102 25.931 13.0724V25.6538C25.8428 25.9823 25.6746 26.4418 25.4462 26.8161C25.1773 27.257 24.9525 27.3793 24.8276 27.3793H19.3104V25.9448C19.3104 25.8229 19.2116 25.7241 19.0897 25.7241H14.0138C13.8919 25.7241 13.7931 25.8229 13.7931 25.9448V29.9172C13.7931 30.0391 13.8919 30.1379 14.0138 30.1379H19.0897C19.2116 30.1379 19.3104 30.0391 19.3104 29.9172V28.4828H24.8276C25.5855 28.4828 26.0963 27.8694 26.3883 27.3908C26.6091 27.0288 26.7784 26.6246 26.8951 26.2759H31.2276C31.6542 26.2759 32 25.93 32 25.5034V13.2552C32 12.8286 31.6542 12.4828 31.2276 12.4828H26.9574C26.6259 10.4767 25.852 7.99233 24.2869 5.94118C22.5774 3.70078 19.9375 2 16 2C12.0668 2 9.33644 3.69679 7.57974 5.93525C5.97964 7.97416 5.1945 10.4499 5.00302 12.4828H0.772414C0.345823 12.4828 0 12.8286 0 13.2552V25.5034C0 25.93 0.34582 26.2759 0.772413 26.2759H6.06897V13.0467ZM1.10345 13.5862V25.1724H4.96552V13.5862H1.10345ZM27.0345 13.5862V25.1724H30.8966V13.5862H27.0345ZM14.8966 29.0345V26.8276H18.2069V29.0345H14.8966Z" fill="currentColor"/>
</g>
<defs>
<clipPath id="clip0_1_1350">
<rect width="32" height="32" fill="currentColor"/>
</clipPath>
</defs>
</svg>
