<svg width="120" height="120" viewBox="0 0 120 120" fill="none" xmlns="http://www.w3.org/2000/svg">
<path fill-rule="evenodd" clip-rule="evenodd" d="M76.8769 51.4127L59.9016 22L42.9263 51.4127L10.76 35.3364L10 36.8571L42.075 52.8877L29.1634 75.2593L10 84.8369L10.76 86.3575L27.6219 77.9302L15.5519 98.8436H104.251L92.1813 77.9301L109.043 86.3575L109.803 84.8369L90.6397 75.2592L77.7282 52.8878L109.803 36.8571L109.043 35.3364L76.8769 51.4127ZM75.3536 52.1741L59.9016 25.4009L44.4497 52.174L59.9017 59.8967L75.3536 52.1741ZM76.2049 53.6491L61.803 60.847L87.8812 73.8805L76.2049 53.6491ZM89.4228 76.5514L59.9017 61.7972L30.3804 76.5515L18.4958 97.1436H101.307L89.4228 76.5514ZM31.9219 73.8806L58.0004 60.847L43.5984 53.6491L31.9219 73.8806Z" fill="black"/>
</svg>
