<svg width="32" height="32" viewBox="0 0 32 32" xmlns="http://www.w3.org/2000/svg">
<path fill-rule="evenodd" clip-rule="evenodd" d="M7.69373 1.59966C8.14875 0.269551 9.60286 -0.305679 10.8424 0.159142L16.5804 2.31091V9.262L13.1623 10.971C13.0593 11.7624 12.9843 12.8743 13.0456 14.011C13.12 15.3921 13.3895 16.6693 13.9309 17.4812C15.0272 19.1257 16.6216 20.5098 17.5282 21.1817L21.8001 19.4729L26.7527 24.4255L24.5022 30.4268C24.1129 31.4649 23.037 32.2012 21.842 31.9509C18.2079 31.1896 12.0032 28.4457 8.31886 21.6911C4.57542 14.8282 6.1263 6.18156 7.69373 1.59966ZM10.255 1.72538C9.82071 1.5625 9.40003 1.77975 9.27642 2.14109C7.75648 6.58418 6.38652 14.6553 9.78735 20.8901C13.1752 27.1011 18.8875 29.6229 22.185 30.3137C22.4643 30.3722 22.7964 30.2117 22.936 29.8394L24.8083 24.8467L21.3972 21.4356L17.3189 23.067L16.9529 22.8229C16.0579 22.2263 13.9573 20.5365 12.539 18.4091C11.7422 17.2138 11.4541 15.5636 11.3752 14.1011C11.2949 12.6109 11.4254 11.1693 11.5736 10.2803L11.6436 9.86024L14.9077 8.22819V3.47012L10.255 1.72538Z" fill="currentColor"/>
</svg>
