<svg width="32" height="32" viewBox="0 0 32 32" fill="none" xmlns="http://www.w3.org/2000/svg">
<path fill-rule="evenodd" clip-rule="evenodd" d="M16.8001 5.41115L24.2879 2.08325L24.3249 2L24.4001 2.0334L24.4752 2L24.5122 2.08325L32 5.41115V10.7311C32 11.3591 31.8229 12.8741 31.1155 14.2888C30.8913 14.7374 30.4416 15.2442 29.9562 15.7262C29.843 15.8386 29.7239 15.9535 29.6 16.0701V29.131H0V7.53104H16.8001V5.41115ZM24.465 20.182C25.3687 19.5366 26.74 18.5096 28 17.4685V27.531H1.6V17.131H13.5999V15.531H1.6V9.13104H16.8001V10.7311C16.8001 11.3591 16.9772 12.8741 17.6846 14.2888C17.9089 14.7374 18.3586 15.2442 18.8439 15.7262C19.351 16.2298 19.9754 16.7812 20.6277 17.3254C21.9335 18.4146 23.3901 19.507 24.3351 20.182L24.4001 20.0911L24.465 20.182ZM27.1475 16.0967C26.2302 16.8619 25.2313 17.6325 24.4001 18.2494C23.5688 17.6325 22.5699 16.8619 21.6526 16.0967C21.0182 15.5676 20.4326 15.049 19.9714 14.5909C19.4884 14.1112 19.2114 13.7648 19.1157 13.5733C18.543 12.428 18.4001 11.1696 18.4001 10.7311V6.45095L24.4001 3.78431L30.4 6.45095V10.7311C30.4 11.1696 30.2571 12.428 29.6845 13.5733C29.5887 13.7648 29.3118 14.1112 28.8288 14.5909C28.3675 15.049 27.7819 15.5676 27.1475 16.0967ZM9.59994 21.131H5.59994V19.531H9.59994V21.131ZM24.0539 14.3162L28.6147 8.84319L27.3855 7.8189L23.9464 11.9459L22.1658 10.1654L21.0344 11.2967L24.0539 14.3162Z" fill="black"/>
</svg>
