<svg width="32" height="32" viewBox="0 0 32 32" fill="none" xmlns="http://www.w3.org/2000/svg">
<g clip-path="url(#clip0_1_1389)">
<path fill-rule="evenodd" clip-rule="evenodd" d="M8.27728 3.31826C7.5322 4.44565 7.32773 5.74778 7.32773 6.36364V7H17.5095V6.36364C17.5095 5.82617 17.3071 4.52071 16.5577 3.37003C15.8333 2.25788 14.5924 1.27273 12.4186 1.27273C10.2358 1.27273 8.99692 2.22937 8.27728 3.31826ZM6.055 13.3636V8.27273H1.27273V26.7273H14.8057C14.2883 25.5916 14 24.3294 14 23C14 18.0294 18.0294 14 23 14C23.1831 14 23.365 14.0055 23.5455 14.0163V8.27273H18.7823V13.3626L17.5095 13.3636V8.27273H7.32773V13.3636H6.055ZM24.8182 14.1837V7H18.7823V6.36364C18.7823 5.62837 18.5326 4.0702 17.6241 2.67542C16.6906 1.24211 15.0678 0 12.4186 0C9.7785 0 8.15375 1.19685 7.21549 2.61652C6.30268 3.9977 6.055 5.5592 6.055 6.36364V7H0V28H15.5155C17.1301 30.412 19.8796 32 23 32C27.9706 32 32 27.9706 32 23C32 18.6523 28.9172 15.0246 24.8182 14.1837Z" fill="black"/>
<path d="M26.9071 24.5446V25.3246H25.0231L24.4591 27.9286H23.5831L24.1471 25.3246H21.2911L20.7271 27.9286H19.8511L20.4151 25.3246H18.7111V24.5446H20.5951L21.2071 21.7126H19.5031V20.9326H21.3871L21.9151 18.5326H22.7911L22.2631 20.9326H25.1191L25.6471 18.5326H26.5231L25.9951 20.9326H27.6991V21.7126H25.8151L25.2031 24.5446H26.9071ZM24.3271 24.5446L24.9511 21.7126H22.0831L21.4711 24.5446H24.3271Z" fill="white"/>
</g>
<defs>
<clipPath id="clip0_1_1389">
<rect width="32" height="32" fill="white"/>
</clipPath>
</defs>
</svg>
