<svg width="32" height="32" viewBox="0 0 32 32" fill="none" xmlns="http://www.w3.org/2000/svg">
<path fill-rule="evenodd" clip-rule="evenodd" d="M10.3745 7.27273C10.3745 6.5689 10.6082 5.08074 11.4598 3.79229C12.2822 2.54785 13.6981 1.45455 16.1927 1.45455C18.677 1.45455 20.0952 2.58044 20.923 3.85146C21.7796 5.16653 22.0109 6.65849 22.0109 7.27273V8H10.3745V7.27273ZM8.92 9.45455V15.2727H10.3745V9.45455H22.0109V15.2727L23.4655 15.2715V9.45455H28.9091V30.5455H3.45455V9.45455H8.92ZM8.92 8V7.27273C8.92 6.35337 9.20307 4.5688 10.2463 2.99031C11.3186 1.36783 13.1754 0 16.1927 0C19.2204 0 21.075 1.41956 22.1419 3.05763C23.1801 4.65165 23.4655 6.43242 23.4655 7.27273V8H30.3636V32H2V8H8.92Z" fill="black"/>
</svg>
