<svg width="32" height="32" viewBox="0 0 32 32" fill="none" xmlns="http://www.w3.org/2000/svg">
<g clip-path="url(#clip0_1_1410)">
<path fill-rule="evenodd" clip-rule="evenodd" d="M22.9414 16.4511C23.0399 16.3264 23.13 16.2004 23.2105 16.0731L23.2101 3.23596C23.122 3.1781 23.0324 3.12107 22.9414 3.06489C20.0965 1.30834 15.8776 0.371122 12.4501 0.384558C11.9776 0.38641 11.5247 0.383333 11.0902 0.380383C6.68958 0.350485 4.17122 0.333376 2.24387 5.57901C0.988979 8.99422 0 13.2772 0 16.3017C0 17.3138 0.0970478 19.488 1.24778 19.488H8.78457C9.32137 19.488 9.90651 19.4901 10.3537 20.0458C10.722 20.5029 10.8422 21.2754 10.4156 22.6643C9.68966 25.0283 9.22574 27.9004 10.3644 30.1286C11.3836 32.1233 13.3487 32.9494 13.5535 30.4414C13.9079 26.0984 15.236 22.6384 17.8937 20.4791C18.4206 20.051 19.0381 19.6185 19.6693 19.1764C20.8959 18.3173 22.1745 17.4218 22.9414 16.4511ZM16.7839 19.1131C17.3509 18.6524 18.0768 18.143 18.7501 17.6705C19.1112 17.4171 19.4573 17.1743 19.7554 16.9553C20.5177 16.3956 21.0844 15.9158 21.4504 15.4935L21.4501 4.23604C18.9638 2.89845 15.4196 2.13293 12.457 2.14454C11.9355 2.14659 11.4623 2.14325 11.0217 2.14014C10.2795 2.13491 9.63 2.13032 8.99901 2.15322C8.02728 2.18849 7.32209 2.28765 6.7557 2.4877C5.80874 2.82216 4.85648 3.57158 3.89589 6.18599C2.67972 9.49583 1.76 13.5617 1.76 16.3017C1.76 16.7469 1.78307 17.2963 1.87252 17.728H8.78457C8.80491 17.728 8.82704 17.7279 8.85085 17.7277C9.37986 17.7248 10.7385 17.7173 11.7243 18.9416M16.7839 19.1131C13.8422 21.5032 12.3992 25.1165 11.9025 29.2694C11.1383 27.7069 11.3965 25.4656 12.098 23.181C12.5763 21.6237 12.6562 20.0989 11.7243 18.9416M11.7993 30.2983C11.7829 30.4996 11.7532 30.6061 11.7397 30.6444C11.737 30.6522 11.7354 30.6558 11.7354 30.6558C11.7353 30.6557 11.7587 30.6014 11.8285 30.527C11.8991 30.4517 11.9969 30.3782 12.1166 30.3242M32 18.7084L32 1.3682C32 0.622023 31.3914 0.0130672 30.6449 0.0130672H26.0565C25.3103 0.0130672 24.7014 0.62167 24.7014 1.3682L24.7014 18.7084C24.7014 19.4546 25.31 20.0635 26.0565 20.0635H30.6449C31.3914 20.0635 32.0004 19.4546 32 18.7084ZM30.24 18.3035L30.24 1.77307H26.4614L26.4614 18.3035H30.24Z" fill="black"/>
</g>
<defs>
<clipPath id="clip0_1_1410">
<rect width="32" height="32" fill="white"/>
</clipPath>
</defs>
</svg>
