<svg width="120" height="120" viewBox="0 0 120 120" fill="none" xmlns="http://www.w3.org/2000/svg">
<g clip-path="url(#clip0_1_3747)">
<path fill-rule="evenodd" clip-rule="evenodd" d="M27.82 43.1244C33.9996 31.5086 46.2276 23.6 60.3028 23.6C74.4192 23.6 86.6777 31.555 92.8397 43.2268L60.4323 59.4236L27.82 43.1244ZM26.3881 42.4088L0.715296 29.5779L0 31.0091L25.6678 43.8375C23.274 48.8437 21.9336 54.4499 21.9336 60.3692C21.9336 66.2559 23.2593 71.8329 25.6283 76.8181L0 89.6268L0.715296 91.058L26.3452 78.2485C32.7739 90.433 45.5684 98.7383 60.3028 98.7383C75.0784 98.7383 87.9033 90.3864 94.3142 78.146L120.149 91.058L120.865 89.6268L95.0267 76.7134C97.3647 71.7549 98.6719 66.2147 98.6719 60.3692C98.6719 54.4911 97.3501 48.9217 94.9875 43.942L120.865 31.0091L120.149 29.5779L94.2716 42.5112C87.8466 30.315 75.0457 22 60.3028 22C45.6011 22 32.8307 30.2685 26.3881 42.4088ZM93.5557 44.6577L62.2217 60.3179L93.5948 75.9977C95.8252 71.2547 97.0719 65.9575 97.0719 60.3692C97.0719 54.7482 95.8107 49.4219 93.5557 44.6577ZM92.8825 77.4304L60.4323 61.2123L27.7771 77.5329C33.9428 89.193 46.1949 97.1384 60.3028 97.1384C74.4519 97.1384 86.7344 89.1464 92.8825 77.4304ZM27.0602 76.1025L58.6428 60.3179L27.0996 44.5531C24.8134 49.3438 23.5336 54.7071 23.5336 60.3692C23.5336 65.9987 24.7987 71.3327 27.0602 76.1025Z" fill="black"/>
</g>
<defs>
<clipPath id="clip0_1_3747">
<rect width="120" height="120" fill="white"/>
</clipPath>
</defs>
</svg>
