<svg width="120" height="120" viewBox="0 0 120 120" fill="none" xmlns="http://www.w3.org/2000/svg">
<path fill-rule="evenodd" clip-rule="evenodd" d="M21 21H98.4051V98.4084H21V21ZM22.6 22.6V96.8084H96.8051V22.6H22.6ZM59.3884 54.5348C56.5279 54.5348 54.2089 56.8538 54.2089 59.7146C54.2089 62.5753 56.5279 64.8943 59.3884 64.8943C62.2489 64.8943 64.5679 62.5753 64.5679 59.7146C64.5679 56.8538 62.2489 54.5348 59.3884 54.5348ZM52.6089 59.7146C52.6089 55.9702 55.6442 52.9348 59.3884 52.9348C63.1327 52.9348 66.1679 55.9702 66.1679 59.7146C66.1679 63.4589 63.1327 66.4943 59.3884 66.4943C55.6442 66.4943 52.6089 63.4589 52.6089 59.7146ZM28.7961 59.7581C28.7961 42.742 42.5898 28.9478 59.605 28.9478C76.6203 28.9478 90.414 42.742 90.414 59.7581C90.414 76.7741 76.6203 90.5683 59.605 90.5683C42.5898 90.5683 28.7961 76.7741 28.7961 59.7581ZM59.605 27.3478C41.706 27.3478 27.1961 41.8584 27.1961 59.7581C27.1961 77.6577 41.706 92.1684 59.605 92.1684C77.504 92.1684 92.014 77.6577 92.014 59.7581C92.014 41.8584 77.504 27.3478 59.605 27.3478Z" fill="black"/>
</svg>
