<svg width="120" height="120" viewBox="0 0 120 120" fill="none" xmlns="http://www.w3.org/2000/svg">
<path fill-rule="evenodd" clip-rule="evenodd" d="M20.4622 20H99.5145V38.8939L111.285 33.0114L112 34.4426L99.5145 40.6826V78.3915L112 84.6315L111.285 86.0627L99.5145 80.1802V99.0524H20.4622V80.1919L8.71542 86.0627L8.00012 84.6315L20.4622 78.4032V40.6709L8.00012 34.4426L8.71542 33.0114L20.4622 38.8822V20ZM97.9145 21.6V39.6936L89.1375 44.0802C83.5789 33.6132 72.5662 26.4851 59.8886 26.4851C47.2466 26.4851 36.2601 33.5733 30.6866 43.9923L22.0622 39.6819V21.6H97.9145ZM32.1187 44.708C37.4291 34.8134 47.8731 28.0851 59.8886 28.0851C71.9397 28.0851 82.41 34.8533 87.7056 44.7959L60.0001 58.6427L32.1187 44.708ZM29.9664 45.421L22.0622 41.4706V77.6035L29.9328 73.6699C27.9188 69.3951 26.7928 64.6195 26.7928 59.5809C26.7928 54.5144 27.9313 49.7138 29.9664 45.421ZM31.3648 72.9542C29.4583 68.8949 28.3928 64.3623 28.3928 59.5809C28.3928 54.7716 29.4708 50.214 31.3982 46.1366L58.2106 59.537L31.3648 72.9542ZM30.6497 75.1003L22.0622 79.3922V97.4524H97.9145V79.3805L89.1743 75.0122C83.6275 85.5171 72.5942 92.6767 59.8886 92.6767C47.2186 92.6767 36.2115 85.5571 30.6497 75.1003ZM87.7424 74.2966C82.4586 84.277 71.9677 91.0767 59.8886 91.0767C47.8451 91.0767 37.3804 84.317 32.0817 74.3846L60.0001 60.4314L87.7424 74.2966ZM89.8868 73.5797L97.9145 77.5918V41.4823L89.8535 45.5111C91.8618 49.7809 92.9844 54.5498 92.9844 59.5809C92.9844 64.5841 91.8743 69.328 89.8868 73.5797ZM88.4215 46.2268C90.3223 50.2811 91.3844 54.807 91.3844 59.5809C91.3844 64.3269 90.3347 68.8278 88.4547 72.8639L61.7895 59.537L88.4215 46.2268Z" fill="black"/>
</svg>
