<svg width="120" height="120" viewBox="0 0 120 120" fill="none" xmlns="http://www.w3.org/2000/svg">
<path fill-rule="evenodd" clip-rule="evenodd" d="M59.5212 9.6C34.7119 9.6 14.6 29.7119 14.6 54.5212C14.6 79.3305 34.7119 99.4424 59.5212 99.4424C84.3305 99.4424 104.442 79.3305 104.442 54.5212C104.442 29.7119 84.3305 9.6 59.5212 9.6ZM13 54.5212C13 28.8282 33.8282 8 59.5212 8C85.2141 8 106.042 28.8282 106.042 54.5212C106.042 80.2141 85.2141 101.042 59.5212 101.042C33.8282 101.042 13 80.2141 13 54.5212ZM72.1618 38.3418C69.3898 36.2211 65.9628 35.1371 62.475 35.2783L62.4589 35.2789H62.4427H48.3723V73.6448H55.0693V60.4217V59.6217H55.8693H62.1505H62.1687L62.1868 59.6225C65.7418 59.7838 69.2412 58.6982 72.0806 56.5537C73.3997 55.4385 74.4401 54.0306 75.1189 52.4421C75.8003 50.8472 76.0983 49.1148 75.9887 47.3839L75.986 47.34L75.988 47.296C76.0672 45.6075 75.7623 43.9231 75.0965 42.3695C74.4337 40.8231 73.4305 39.4463 72.1618 38.3418ZM62.4267 33.6789C66.291 33.5263 70.087 34.7321 73.155 37.0872L73.1739 37.1017L73.1919 37.1173C74.6519 38.3829 75.806 39.9632 76.5671 41.7392C77.3225 43.5017 77.6714 45.4115 77.5883 47.3269C77.7058 49.2928 77.3642 51.2594 76.5902 53.0708C75.8104 54.8957 74.6135 56.5123 73.0956 57.7907L73.0797 57.8041L73.0632 57.8165C69.9279 60.1913 66.0615 61.3956 62.1326 61.2217H56.6693V74.4448V75.2448H55.8693H47.5723H46.7723V74.4448V34.4789V33.6789H47.5723H62.4267ZM61.7047 41.5085C62.9057 41.486 64.1026 41.6559 65.25 42.0117C66.4254 42.3747 67.4463 43.119 68.1513 44.1271C68.8525 45.1297 69.2015 46.3363 69.144 47.558C69.138 49.6971 68.163 51.2405 66.7135 52.2182C65.2961 53.1743 63.4661 53.5674 61.7123 53.5674H55.8693H55.0693V52.7674V42.3085V41.5085H55.8693H61.7047ZM64.7766 43.54C63.79 43.234 62.7606 43.0883 61.7278 43.1083L61.7201 43.1085H61.7123H56.6693V51.9674H61.7123C63.2598 51.9674 64.7457 51.6155 65.8188 50.8917C66.8553 50.1926 67.5441 49.1279 67.5441 47.5379V47.5177L67.5451 47.4974C67.5894 46.624 67.3414 45.7607 66.8401 45.0441C66.3389 44.3274 65.6132 43.7983 64.7776 43.5403L64.7766 43.54ZM93.5857 111.763V110.163H25.4567V111.763H93.5857Z" fill="black"/>
</svg>
