<svg width="120" height="120" viewBox="0 0 120 120" fill="none" xmlns="http://www.w3.org/2000/svg">
<path fill-rule="evenodd" clip-rule="evenodd" d="M60.3018 9.6C35.6137 9.6 15.6 29.6137 15.6 54.3018C15.6 78.99 35.6137 99.0037 60.3018 99.0037C84.99 99.0037 105.004 78.99 105.004 54.3018C105.004 29.6137 84.99 9.6 60.3018 9.6ZM14 54.3018C14 28.73 34.73 8 60.3018 8C85.8737 8 106.604 28.73 106.604 54.3018C106.604 79.8737 85.8737 100.604 60.3018 100.604C34.73 100.604 14 79.8737 14 54.3018ZM48.0755 33.5565H75.8427V42.9485H57.8746V49.7802H74.0691V59.2594H57.8746V74.9307H48.0755V33.5565ZM49.6755 35.1565V73.3307H56.2746V57.6594H72.4691V51.3802H56.2746V41.3485H74.2427V35.1565H49.6755ZM94.2029 111.274V109.674H26.4008V111.274H94.2029Z" fill="black"/>
</svg>
