<svg width="120" height="120" viewBox="0 0 120 120" fill="none" xmlns="http://www.w3.org/2000/svg">
<path fill-rule="evenodd" clip-rule="evenodd" d="M57.3594 29.6563L58.1876 28.8281C58.1873 28.8278 58.1876 28.8281 57.3594 29.6563ZM56.5313 28.8281L56.5273 28.8322L56.5185 28.841L56.4871 28.8728C56.4601 28.9003 56.421 28.9402 56.3707 28.9922C56.27 29.0962 56.1243 29.2485 55.9401 29.4459C55.5717 29.8407 55.0486 30.4162 54.4223 31.1468C53.1709 32.6068 51.5022 34.6925 49.8317 37.1982C46.5162 42.1715 43.0817 48.9641 43.0817 55.8694C43.0817 63.7503 49.4786 70.1472 57.3594 70.1472C64.0397 70.1472 69.6537 65.5509 71.2092 59.3505C72.7671 65.5653 78.3868 70.1609 85.0739 70.1609C92.9672 70.1459 99.3494 63.7499 99.3494 55.8694C99.3494 48.9637 95.9112 42.171 92.5922 37.1978C90.92 34.6921 89.2495 32.6063 87.9968 31.1463C87.3699 30.4157 86.8463 29.8402 86.4775 29.4455C86.293 29.2481 86.1472 29.0958 86.0464 28.9918C85.9961 28.9397 85.9569 28.8998 85.9299 28.8723L85.8984 28.8405L85.8896 28.8317L85.8856 28.8277L85.0575 28.0004L84.2298 28.8281L84.2258 28.8321L84.217 28.8409L84.1856 28.8728C84.1586 28.9002 84.1195 28.9402 84.0691 28.9922C83.9685 29.0962 83.8228 29.2485 83.6386 29.4459C83.2702 29.8407 82.7471 30.4162 82.1208 31.1468C80.8694 32.6068 79.2006 34.6925 77.5302 37.1982C74.9169 41.1181 72.2298 46.1682 71.2087 51.5129C70.1876 46.1682 67.5004 41.1181 64.8872 37.1982C63.2167 34.6925 61.548 32.6068 60.2965 31.1468C59.6703 30.4162 59.1472 29.8407 58.7788 29.4459C58.5945 29.2485 58.4489 29.0962 58.3482 28.9922C58.2979 28.9402 58.2588 28.9003 58.2318 28.8728L58.2003 28.841L58.1916 28.8322L58.1876 28.8281L57.3594 28L56.5313 28.8281ZM85.0579 29.6562L85.8856 28.8277C85.8853 28.8274 85.8856 28.8277 85.0579 29.6562ZM56.5313 28.8281L57.3594 29.6563C56.5313 28.8281 56.5316 28.8278 56.5313 28.8281ZM57.3594 31.3613C57.044 31.706 56.6507 32.1461 56.2007 32.6711C54.9947 34.0782 53.3868 36.0882 51.7806 38.4975C48.5428 43.3542 45.424 49.6682 45.424 55.8694C45.424 62.4567 50.7722 67.8049 57.3594 67.8049C63.9467 67.8049 69.2949 62.4567 69.2949 55.8694C69.2949 49.6682 66.176 43.3542 62.9383 38.4975C61.3321 36.0882 59.7242 34.0782 58.5181 32.6711C58.0681 32.1461 57.6748 31.706 57.3594 31.3613ZM85.0584 31.3608C84.7429 31.7055 84.3494 32.1459 83.8992 32.6711C82.6932 34.0782 81.0853 36.0882 79.4791 38.4975C76.2413 43.3541 73.1225 49.6682 73.1225 55.8694V55.882C73.1356 62.4832 78.4832 67.8174 85.0695 67.8186C91.6718 67.8061 97.0071 62.4571 97.0071 55.8694C97.0071 49.6685 93.8852 43.3547 90.644 38.498C89.0361 36.0887 87.4265 34.0787 86.2192 32.6716C85.7683 32.1461 85.3743 31.7056 85.0584 31.3608ZM8 92.4682H112V90.1259H73.6966L103.309 73.8393L102.18 71.7869L71.9242 88.4276L28.5407 65.6972L29.5784 64.8501L23.4171 64.3413L27.3367 69.1136L27.4498 67.77L70.1187 90.1259H8V92.4682Z" fill="black"/>
</svg>
