<svg width="120" height="120" viewBox="0 0 120 120" fill="none" xmlns="http://www.w3.org/2000/svg">
<path fill-rule="evenodd" clip-rule="evenodd" d="M70.3594 29.6563L71.1875 28.8281C71.1872 28.8278 71.1875 28.8281 70.3594 29.6563ZM69.5313 28.8281L70.3594 29.6563C69.5313 28.8281 69.5316 28.8278 69.5313 28.8281ZM69.5313 28.8281L70.3594 28L71.1875 28.8281L71.1916 28.8322L71.2003 28.841L71.2317 28.8728C71.2588 28.9003 71.2979 28.9402 71.3482 28.9922C71.4489 29.0962 71.5945 29.2485 71.7788 29.4459C72.1472 29.8407 72.6703 30.4162 73.2965 31.1468C74.548 32.6068 76.2167 34.6925 77.8872 37.1982C81.2027 42.1715 84.6372 48.9641 84.6372 55.8694C84.6372 63.7503 78.2403 70.1472 70.3594 70.1472C62.4785 70.1472 56.0817 63.7503 56.0817 55.8694C56.0817 48.9641 59.5161 42.1715 62.8317 37.1982C64.5021 34.6925 66.1709 32.6068 67.4223 31.1468C68.0485 30.4162 68.5717 29.8407 68.9401 29.4459C69.1243 29.2485 69.27 29.0962 69.3706 28.9922C69.421 28.9402 69.4601 28.9003 69.4871 28.8728L69.5185 28.841L69.5273 28.8322L69.5313 28.8281ZM69.2007 32.6711C69.6507 32.1461 70.044 31.706 70.3594 31.3613C70.6748 31.706 71.0681 32.1461 71.5181 32.6711C72.7242 34.0782 74.3321 36.0882 75.9383 38.4975C79.176 43.3542 82.2949 49.6682 82.2949 55.8694C82.2949 62.4567 76.9467 67.8049 70.3594 67.8049C63.7722 67.8049 58.424 62.4567 58.424 55.8694C58.424 49.6682 61.5428 43.3542 64.7806 38.4975C66.3868 36.0882 67.9947 34.0782 69.2007 32.6711ZM8 92.4682H112V90.1259H73.6966L103.309 73.8393L102.18 71.7869L71.9242 88.4276L28.5407 65.6972L29.5784 64.8501L23.4171 64.3413L27.3367 69.1136L27.4498 67.77L70.1187 90.1259H8V92.4682Z" fill="black"/>
</svg>
