<svg width="120" height="120" viewBox="0 0 120 120" fill="none" xmlns="http://www.w3.org/2000/svg">
<path fill-rule="evenodd" clip-rule="evenodd" d="M40.9413 9.3726L42.2538 8L35.3685 8.23002L40.3523 12.9991L40.2823 11.1089L92.0981 30.8882L92.7604 29.1532L40.9413 9.3726ZM103.477 99.2109V20.7891H105.334V99.2109H103.477ZM79.2826 42.9759C87.7635 47.165 93.3731 53.1275 93.3731 60C93.3731 66.8723 87.7677 72.8348 79.2904 77.024C70.7547 81.2421 59.0264 83.8233 46.1183 83.8233C33.7266 83.8233 22.4404 81.4425 14 77.5265L14.7816 75.8419C22.9334 79.6239 33.9439 81.9662 46.1183 81.9662C58.8039 81.9662 70.2387 79.4256 78.4677 75.3591C86.755 71.2637 91.5159 65.7789 91.5159 60C91.5159 54.2215 86.7516 48.7366 78.4601 44.641C70.6114 40.7642 59.8491 38.2743 47.8705 38.0504L57.8466 48.0264L56.5334 49.3396L44.2688 37.0751L56.5329 24.7948L57.847 26.1071L47.7762 36.1912C60.023 36.4038 71.1136 38.9409 79.2826 42.9759ZM40.2827 108.891L92.0981 89.1118L92.7604 90.8469L40.9343 110.63L42.2538 112L35.3685 111.77L40.3523 107.001L40.2827 108.891Z" fill="black"/>
</svg>
