<svg width="120" height="120" viewBox="0 0 120 120" fill="none" xmlns="http://www.w3.org/2000/svg">
<path fill-rule="evenodd" clip-rule="evenodd" d="M60.5059 91.3116V28H59.5059V91.3116H60.5059ZM80.0248 39.0302C81.4566 37.9969 83.1848 37.4349 84.9601 37.4349C89.4618 37.4349 93.1418 40.9531 93.4005 45.3899H108.825C110.857 45.3899 112.513 47.0422 112.5 49.0781V64.9747C112.5 65.9195 112.311 66.8552 111.931 67.7179C110.877 70.1309 108.605 71.6361 106.15 71.8219V78.2097H101.963V72.2691C99.1777 73.9016 95.643 73.8234 92.9146 71.9515C90.1822 73.8203 86.6604 73.9016 83.8786 72.2765V78.2097H79.6919V71.8184C76.1346 71.5625 73.3302 68.5974 73.3302 64.9747V52.6917C72.4192 52.4694 71.7488 51.6521 71.7488 50.6699C71.7488 49.6877 72.4192 48.8704 73.3302 48.648V45.8899C73.3302 42.1548 76.3112 39.1188 80.0248 39.0302ZM83.0737 70.4421L83.036 70.4072L82.8519 70.2339L82.8497 70.2349L82.8327 70.2191L82.5323 70.3517C81.8019 70.6739 81.004 70.8363 80.1918 70.8363C76.9533 70.8363 74.3302 68.2133 74.3302 64.9747V52.7515H74.3304V48.5883H74.3302V45.8899C74.3302 42.6513 76.9533 40.0282 80.1918 40.0282H80.3589L80.4924 39.9278C81.7767 38.9618 83.3466 38.4349 84.9601 38.4349C89.0773 38.4349 92.4151 41.7726 92.4151 45.8899V46.3899H108.825C110.307 46.3899 111.51 47.5952 111.5 49.0732L111.5 49.0765V64.9747C111.5 65.7869 111.337 66.5848 111.015 67.3152L111.014 67.317C109.719 70.2864 106.264 71.646 103.296 70.3509L102.996 70.2201L102.756 70.4421C100.11 72.891 96.0913 73.099 93.2155 70.9367L92.9156 70.7112L92.6153 70.9361C89.7272 73.0995 85.72 72.8908 83.0737 70.4421ZM72.7488 50.6699C72.7488 51.0913 72.9831 51.4523 73.3302 51.6313V49.7084C72.9831 49.8874 72.7488 50.2484 72.7488 50.6699ZM20.9949 41.0177C21.8221 40.2423 22.9388 39.8552 24.0821 39.9429L24.868 40.0776L24.8677 40.0795L25.5139 40.191C26.4309 40.4848 27.2084 41.1222 27.6925 41.9772L27.7057 41.9992L29.5018 44.8215L24.3236 54.1509L15.9684 49.5598L20.2472 41.8647C20.4634 41.5489 20.7127 41.2783 20.9921 41.0203L20.9949 41.0177ZM36.7041 40.2151L27.4157 40.1136C27.8704 40.4898 28.2579 40.9495 28.5561 41.4729L30.5176 44.5553L30.4949 44.5698L30.503 44.5697L34.1935 50.8259L34.0101 51.5145L31.7563 52.7968L40.3024 52.375L44.3023 45.1601L42.344 46.2987L41.6616 46.1197L38.9904 41.574L38.9893 41.5722C38.6775 41.0361 38.1949 40.6282 37.619 40.4196L36.7041 40.2151ZM24.9563 55.0716L30.0856 45.8302L33.0741 50.8965L29.4385 52.965L29.7104 53.899L40.6294 53.3601L41.0421 53.1031L46.0564 44.0586L45.3678 43.3839L42.2716 45.184L39.8537 41.0693L39.8531 41.0683C39.4199 40.3242 38.741 39.7526 37.923 39.4664L37.8669 39.4503L36.8711 39.2277L36.7675 39.2157L25.0096 39.0873L24.2287 38.9534L24.185 38.9479C22.7589 38.8312 21.3545 39.3107 20.3124 40.2868C19.9884 40.5861 19.6799 40.919 19.4072 41.3215L19.3842 41.3589L14.8502 49.513L15.0464 50.1942L24.2784 55.2671L24.9563 55.0716ZM43.1279 67.0423L37.8308 57.8243L46.0788 53.0642L50.4468 60.6944C50.6004 61.026 50.7121 61.3753 50.7733 61.7319L50.7772 61.7525C51.0164 62.8653 50.7677 64.0347 50.0971 64.9778L50.0704 65.0195C49.9471 65.2354 49.8056 65.4374 49.6473 65.617C49.6377 65.6268 49.6239 65.6415 49.6094 65.6583C49.5962 65.6737 49.575 65.6995 49.5529 65.7337C49.4431 65.84 49.3264 65.9447 49.1964 66.0487L49.1685 66.0728C48.4468 66.7429 47.4859 67.095 46.5019 67.064L43.1279 67.0423ZM43.3056 75.6387L48.2661 67.7746C47.6977 67.9829 47.0902 68.0824 46.4767 68.0638L42.8276 68.0404L42.8275 68.0287L35.5521 67.9818L35.0555 67.4694L35.1205 64.8693L31.0549 72.3948L35.1686 79.5471L35.2077 77.2793L35.7143 76.7879L40.9747 76.8582L40.9759 76.8582C41.5925 76.868 42.2067 76.6524 42.7059 76.2531L42.721 76.2414C42.9402 76.0795 43.1356 75.8767 43.3056 75.6387ZM46.0135 51.9473L36.8987 57.2076L36.7151 57.8898L41.9636 67.0231L36.0679 66.9851L36.1723 62.8081L35.2326 62.5579L30.0425 72.1648L30.049 72.6517L35.2039 81.6142L36.1373 81.3736L36.199 77.7945L40.961 77.8581C41.817 77.8715 42.6522 77.5739 43.3231 77.0399C43.6364 76.807 43.9045 76.5234 44.1292 76.2062L44.1441 76.1839L50.3802 66.2974L50.3862 66.291C50.5937 66.0575 50.7734 65.8018 50.9263 65.5371C51.7425 64.3777 52.0514 62.9359 51.7571 61.5527C51.6784 61.0993 51.536 60.6617 51.3439 60.2519L51.3251 60.2158L46.6974 52.1319L46.0135 51.9473ZM50.4128 66.241C50.4061 66.2545 50.3995 66.2657 50.3939 66.2746L50.4128 66.241ZM8.00003 53.5557L7.74384 54.4851L10.8307 56.3269L8.40327 60.4292C7.95488 61.1647 7.79357 62.0439 7.92726 62.8812C7.98075 63.2651 8.0874 63.6391 8.24899 63.9892L8.26145 64.0144L13.8012 74.438C13.8901 74.7011 14.0061 74.95 14.1387 75.1844C14.7244 76.4574 15.8188 77.4341 17.1444 77.8756C17.7454 78.1086 18.3908 78.2101 19.0294 78.1979H27.8581L28.3581 77.6974L28.3464 67.165L27.8464 66.6655H17.3381L20.2789 61.5902L23.8493 63.7617L24.5343 63.0714L18.7936 53.7926L18.3684 53.5557H8.00003ZM14.7228 74.0376L14.7161 74.0397C14.6513 73.8333 14.603 73.6543 14.5744 73.4726L14.5693 73.4455C14.3617 72.4801 14.5279 71.4874 15.0449 70.65L15.0529 70.6364L16.7598 67.6655H27.347L27.3576 77.1979L19.0245 77.1978L19.0145 77.198C18.4877 77.2086 17.9679 77.124 17.4962 76.9394L17.4707 76.9302C16.396 76.5755 15.5087 75.7819 15.0394 74.7496L15.0184 74.7084C14.8929 74.4888 14.7921 74.2653 14.7228 74.0376ZM14.1897 70.1316C13.8647 70.6601 13.6502 71.2372 13.5493 71.8332L9.15135 63.558C9.03562 63.3039 8.9571 63.028 8.91723 62.739L8.91541 62.7277C8.81663 62.1152 8.93617 61.475 9.25853 60.9475L11.945 56.4074L11.7709 55.7234L9.81384 54.5557H18.0898L22.586 61.8229L20.3621 60.4704L19.6697 60.647L16.0379 66.9149L16.0369 66.9164L14.1897 70.1316ZM77.7078 48.5102C77.3205 47.8385 77.5503 46.9851 78.2249 46.594C78.4506 46.4682 78.6942 46.4016 78.9267 46.4016H87.8306C88.6089 46.4016 89.2403 47.033 89.2403 47.8112C89.2403 48.0438 89.1737 48.2875 89.0478 48.5132L84.5975 56.2193C84.2067 56.8967 83.3411 57.1255 82.682 56.7403L82.674 56.7358C82.4704 56.6218 82.2959 56.4448 82.1575 56.2153L77.7078 48.5102ZM78.9267 45.4016C78.5042 45.4016 78.0928 45.5219 77.7335 45.7231L77.7279 45.7262C76.577 46.3902 76.1754 47.8552 76.8418 49.0103L81.2937 56.7192L81.298 56.7264C81.51 57.0797 81.8022 57.3927 82.1814 57.6061C83.326 58.2721 84.8008 57.8677 85.4637 56.719L89.9156 49.0103L89.9188 49.0045C90.12 48.6452 90.2403 48.2338 90.2403 47.8112C90.2403 46.4807 89.1612 45.4016 87.8306 45.4016H78.9267ZM80.6919 71.8294V77.2097H82.8786V71.5953C82.7981 71.5316 82.7191 71.4664 82.6416 71.3996C82.0168 71.6314 81.3609 71.7797 80.6919 71.8294ZM102.963 71.5883C103.042 71.5246 103.119 71.461 103.196 71.3979C103.821 71.6388 104.481 71.7827 105.15 71.8303V77.2097H102.963V71.5883ZM92.4152 48.7289H92.9152C94.07 48.7289 94.9968 49.6557 94.9968 50.8105C94.9968 51.9653 94.07 52.8921 92.9152 52.8921H92.4152V48.7289ZM93.4152 51.772C93.7624 51.5931 93.9968 51.232 93.9968 50.8105C93.9968 50.389 93.7624 50.0279 93.4152 49.8489V51.772Z" fill="black"/>
</svg>
