<svg width="120" height="120" viewBox="0 0 120 120" fill="none" xmlns="http://www.w3.org/2000/svg">
<path fill-rule="evenodd" clip-rule="evenodd" d="M41.2744 7C36.6685 7 32.1777 8.46715 28.4704 11.16C18.8807 11.3378 11.1567 19.1718 11.1567 28.8038V36.2492C8.78656 36.7062 6.99994 38.7888 6.99994 41.2937C6.99994 43.7987 8.78656 45.8812 11.1567 46.3383V78.7253C11.1567 88.1267 18.5152 95.8151 27.7847 96.3432V113H38.1176V97.2568C45.421 101.783 54.8558 101.645 62.0783 96.606C69.2979 101.644 78.7434 101.798 86.0392 97.266V113H96.3531V96.3468C102.781 95.9779 108.77 92.0877 111.524 85.7802C112.494 83.5574 113 81.1521 113 78.7253V37.1177C113 31.9669 108.812 27.8038 103.667 27.8038H63.0558C62.534 16.2182 52.9899 7 41.2744 7ZM88.0392 95.8615C88.3305 95.6315 88.6171 95.393 88.8987 95.1462C90.6871 95.8512 92.5261 96.2434 94.3531 96.3473V111H88.0392V95.8615ZM96.1749 94.3531C101.898 94.0488 107.239 90.5953 109.691 84.9803C110.552 83.0081 111 80.875 111 78.7253V37.1177C111 33.0775 107.713 29.8038 103.667 29.8038H61.0783V28.8038C61.0783 17.8577 52.2205 9 41.2744 9C36.9911 9 32.8158 10.3978 29.4036 12.957L29.1369 13.157H28.8036C20.1648 13.157 13.1567 20.165 13.1567 28.8038V78.7253C13.1567 87.0553 19.6728 93.8691 27.8837 94.3456L28.793 94.3532C30.9362 94.371 33.0651 93.9246 35.0548 93.0463L35.6569 92.7805L36.1391 93.2283C36.6455 93.6986 37.1736 94.136 37.7261 94.5595L38.0491 94.8072C44.9946 99.7957 54.4853 99.8086 61.4789 94.5717L62.0783 94.1229L62.6777 94.5717C69.649 99.792 79.1136 99.81 86.0392 94.8632V94.8464L86.4479 94.5467C86.9782 94.1578 87.5004 93.7087 88.0178 93.2283L88.4978 92.7826L89.0982 93.0446C91.0704 93.9052 93.2035 94.3531 95.3531 94.3531H96.1749ZM29.7847 96.3447C31.6606 96.2394 33.5105 95.8332 35.2592 95.1453C35.5406 95.3907 35.8268 95.6278 36.1176 95.8567V111H29.7847V96.3447ZM23.4512 30.3174C21.5411 31.435 20.8901 33.877 21.9855 35.7792L33.637 55.9548C33.9873 56.5639 34.489 57.0658 35.098 57.4162C37.026 58.5171 39.4652 57.856 40.5607 55.9541L40.5613 55.9531L52.2112 35.7802C52.5623 35.1693 52.7455 34.4825 52.7455 33.7807C52.7455 31.568 50.9622 29.7847 48.7496 29.7847H25.4478C24.7467 29.7847 24.0616 29.9671 23.4512 30.3174ZM22.4513 28.5852C23.3657 28.0595 24.3956 27.7847 25.4478 27.7847H48.7496C52.0668 27.7847 54.7455 30.4635 54.7455 33.7807C54.7455 34.8328 54.4708 35.8628 53.9451 36.7772L42.2938 56.9524C40.6435 59.8169 36.9816 60.7961 34.1046 59.1521L34.1022 59.1507C33.1865 58.6241 32.4302 57.868 31.9035 56.9522L20.2527 36.7778C18.6031 33.9139 19.5908 30.2557 22.4455 28.5886L22.4513 28.5852ZM62.0782 36.5182H61.0782V46.7939H62.0782C64.9188 46.7939 67.2161 44.4965 67.2161 41.656C67.2161 38.8155 64.9188 36.5182 62.0782 36.5182ZM65.2161 41.656C65.2161 43.0422 64.3223 44.2153 63.0782 44.6319V38.6802C64.3223 39.0967 65.2161 40.2699 65.2161 41.656ZM11.1378 38.3179C9.8938 38.7344 8.99994 39.9076 8.99994 41.2937C8.99994 42.6799 9.8938 43.853 11.1378 44.2696V38.3179Z" fill="black"/>
</svg>
