<svg width="120" height="120" viewBox="0 0 120 120" fill="none" xmlns="http://www.w3.org/2000/svg">
<path fill-rule="evenodd" clip-rule="evenodd" d="M78.0591 30.0449C75.0063 30.0449 72.4253 29.0241 70.3439 26.9824C68.2624 24.9131 67.2356 22.2919 67.2356 19.0914C67.2356 15.8633 68.2902 13.2146 70.4271 11.1453C72.5641 9.04844 75.1451 8 78.1701 8C80.6678 8 82.7493 8.66217 84.4422 9.95893C86.1351 11.2557 87.273 12.8008 87.8558 14.6218L85.8021 15.5598C85.2748 14.0423 84.3867 12.7456 83.1101 11.7247C81.8612 10.6763 80.196 10.1521 78.1146 10.1521C75.7556 10.1521 73.7574 10.9798 72.0923 12.6352C70.4549 14.2907 69.6223 16.3876 69.6223 18.9535C69.6223 21.5194 70.4271 23.6715 72.0368 25.3545C73.6464 27.0375 75.6724 27.8928 78.1424 27.8928C82 27.8928 84.581 25.8235 85.8298 22.4299L87.8835 23.3956C87.2452 25.2441 86.0519 26.8168 84.3312 28.1136C82.6383 29.4103 80.5291 30.0449 78.0591 30.0449ZM32.7394 29.8242H35.0151V21.3815H39.6221C42.1476 21.3815 44.118 20.7469 45.5334 19.5053C46.9488 18.2361 47.6426 16.6359 47.6426 14.7045C47.6426 12.8836 47.0043 11.3385 45.6999 10.0969C44.3955 8.85532 42.5084 8.22074 40.0106 8.22074H32.7394V29.8242ZM35.0151 19.2846V10.3452H39.8163C41.7868 10.3452 43.1744 10.7867 44.0347 11.642C44.8951 12.4973 45.3114 13.5457 45.3114 14.7873C45.3114 16.0013 44.8396 17.0497 43.896 17.9602C42.9524 18.8431 41.5648 19.2846 39.7053 19.2846H35.0151ZM64.1553 20.1951V18.0982H53.9146V10.3452H65.0989V8.22074H51.6389V29.8242H53.9146V20.1951H64.1553ZM37.6515 50.6827V48.5858H27.4107V40.8329H38.595V38.7084H25.135V60.3118H27.4107V50.6827H37.6515ZM45.0271 51.5656H49.4676L55.8784 60.3118H58.6537L51.9376 51.1793C53.6582 50.9586 55.0736 50.324 56.2115 49.248C57.3493 48.172 57.9044 46.7648 57.9044 44.999C57.9044 43.2057 57.2661 41.6882 55.9617 40.5018C54.6851 39.3154 52.7979 38.7084 50.2724 38.7084H42.7514V60.3118H45.0271V51.5656ZM45.0271 49.4963V40.8329H50.1336C53.9357 40.8329 55.6009 42.6538 55.6009 45.0818C55.6009 46.2958 55.1291 47.3442 54.2133 48.1996C53.2974 49.0549 51.9098 49.4963 50.0781 49.4963H45.0271ZM76.3245 38.7084V40.8053H65.0015V48.2823H75.3532V50.3792H65.0015V58.215H76.4356V60.3118H62.7257V38.7084H76.3245ZM94.754 40.8053V38.7084H81.1552V60.3118H94.865V58.215H83.431V50.3792H93.7827V48.2823H83.431V40.8053H94.754ZM65.3032 110.885C65.33 110.888 65.4377 110.917 65.6121 110.964L65.6122 110.964C66.3399 111.16 68.2283 111.667 70.2431 111.879C72.1303 112.072 73.9203 112.03 76.5291 111.782C78.7077 111.575 80.47 110.816 81.5662 110.223C83.0926 109.409 83.8836 108.72 84.73 107.657C85.2434 107.009 85.8124 106.278 86.3952 105.216C86.8808 104.305 87.3388 103.229 87.6718 102.125C87.9354 101.243 88.3656 99.6285 88.324 97.7247C88.3101 96.7866 88.2268 95.3243 88.0326 94.3035C87.595 92.0057 87.5929 91.9987 87.1313 90.476L87.1311 90.4754C87.0219 90.1149 86.8869 89.6696 86.7143 89.0888C86.2703 87.5989 85.4516 84.6743 85.2989 82.3291C85.2157 81.06 85.2712 78.8941 86.4645 75.8729C86.9502 74.6589 87.4498 73.8036 87.7828 73.3484C88.6154 72.2172 86.2564 73.0863 80.5116 75.666C78.5227 76.5586 77.2994 77.0649 76.3481 77.4586L76.348 77.4586C74.9764 78.0262 74.1701 78.3599 72.4495 79.2804C70.2709 80.4392 68.8 81.3497 66.3022 82.9361C64.4719 84.1022 63.4677 85.0303 63.0561 85.4107C63.0246 85.4398 62.9966 85.4657 62.9719 85.4883C61.057 87.2403 60.3216 88.3853 60.2799 88.4543C59.5861 89.4475 59.1698 90.6891 59.1976 90.7029C59.2023 90.7029 59.1902 90.7536 59.1676 90.8475L59.1676 90.8477C59.0577 91.3065 58.701 92.7954 58.8507 94.4552C58.852 94.4729 58.8532 94.4908 58.8542 94.5092C58.8551 94.524 58.8558 94.5392 58.8567 94.5548C58.8753 94.913 58.9065 95.5133 59.9053 98.0144C60.5575 99.6285 62.1671 103.174 62.1671 103.174C63.0552 101.781 70.5484 92.4273 70.8398 92.0962C73.2682 89.4475 75.2247 88.2335 75.3496 88.3439C75.3751 88.3693 75.295 88.4881 75.2388 88.5714L75.2247 88.5922C75.1037 88.7618 74.8588 89.018 74.5221 89.3701C72.5035 91.4812 67.1862 97.0421 65.4974 108.085C65.206 109.92 65.1366 110.872 65.3032 110.885ZM50.4538 109.169C50.5562 109.156 50.6194 109.147 50.6359 109.147C50.7608 109.147 50.8024 108.444 50.8024 107.037C50.7787 98.7442 47.5897 94.0928 46.3708 92.3149C46.1641 92.0136 46.0141 91.7948 45.9457 91.6548C45.9404 91.6415 45.934 91.6267 45.9274 91.6113C45.8997 91.5469 45.8678 91.4728 45.8902 91.4617C45.9873 91.3927 47.264 92.4825 48.7071 94.6898C48.8875 94.9519 53.2169 102.636 53.7026 103.753C53.7026 103.753 55.229 101.312 55.8673 100.18C56.8597 98.4222 56.9422 97.9861 56.9918 97.7237C56.9963 97.6999 57.0005 97.6775 57.0051 97.6557C57.3018 96.4053 57.1926 95.2356 57.1634 94.9229C57.1584 94.8699 57.1558 94.8415 57.1578 94.8415C57.1855 94.8415 57.019 93.8758 56.6305 93.0757C56.6027 93.0067 56.2003 92.0962 55.0208 90.6063C55.0069 90.5888 54.991 90.5686 54.9733 90.5461C54.7261 90.2319 54.1036 89.4407 52.9255 88.3853C51.3159 86.9644 50.3584 86.1367 48.9291 85.0606C47.8131 84.2164 47.2721 83.8876 46.3748 83.3424C45.7326 82.9521 44.9078 82.451 43.559 81.5704C39.743 79.0873 38.1472 78.1906 38.619 79.1148C38.8133 79.4873 39.0769 80.1633 39.2851 81.1152C39.8124 83.4604 39.6181 85.0744 39.4238 85.9987C39.0631 87.7231 38.1611 89.7924 37.6893 90.8547C37.1844 91.9804 36.987 92.3906 36.8163 92.8116C36.6586 93.2006 36.5239 93.5989 36.1907 94.5794C35.9409 95.3105 35.7327 96.3866 35.6217 97.0763C35.3997 98.4697 35.5246 99.7112 35.6217 100.387C35.7466 101.243 35.9548 102.084 36.2045 102.801C36.5098 103.643 36.8429 104.25 37.1343 104.774C37.6338 105.643 38.1195 106.236 39.1186 106.995C39.8401 107.533 41.0196 108.278 42.546 108.651C44.3777 109.106 45.6543 109.313 47.0142 109.368C48.5121 109.425 49.9525 109.235 50.4538 109.169Z" fill="black"/>
</svg>
