<svg width="120" height="120" viewBox="0 0 120 120" fill="none" xmlns="http://www.w3.org/2000/svg">
<path fill-rule="evenodd" clip-rule="evenodd" d="M42.7156 24.7757C42.7156 15.1948 50.6733 7 60.498 7C70.3226 7 78.2868 14.7665 78.2868 24.3474C78.2868 24.4914 78.2845 24.635 78.2802 24.7779C79.2907 24.6316 80.3125 24.5586 81.3341 24.5586C92.7515 24.5586 102 33.5766 102 44.6966C102 53.1532 96.5736 60.6904 88.4831 63.5813C88.0434 67.4288 86.2121 71.0125 83.2966 73.658C76.832 79.5302 66.8172 79.3959 60.5135 73.5143C57.7359 76.1047 54.1039 77.6903 50.2464 77.956C41.3096 78.5953 33.5004 72.1973 32.542 63.5807C22.9329 60.1505 17.3211 50.3468 19.449 40.5276M60.498 8.81016C51.6985 8.81016 44.5654 15.7663 44.5654 24.3474C44.5654 24.8256 44.5943 25.3101 44.6389 25.789L44.7526 27.0089L43.5235 26.7566C33.3669 24.6722 23.4025 31.0119 21.2653 40.9009C19.2902 50.0139 24.6403 59.1133 33.7061 62.0602L34.294 62.2513L34.3383 62.8541C34.9204 70.7719 41.9925 76.7324 50.1125 76.1505L50.1151 76.1504C53.8234 75.8951 57.3014 74.2638 59.834 71.6096L60.513 70.8979L61.1925 71.6092C66.7369 77.4133 76.0805 77.7394 82.0317 72.3332C84.7516 69.8652 86.412 66.4729 86.6887 62.8516L86.7346 62.2508L87.3208 62.0602C94.9696 59.5739 100.144 52.5738 100.144 44.6966C100.144 34.5773 91.7273 26.3687 81.3341 26.3687C80.0359 26.3687 78.7384 26.4982 77.4714 26.7568L76.2434 27.0074L76.357 25.789C76.4017 25.3101 76.4305 24.8256 76.4305 24.3474C76.4305 15.7663 69.2974 8.81016 60.498 8.81016ZM42.7156 24.7757C31.9784 23.1957 21.7142 30.047 19.449 40.5276L42.7156 24.7757Z" fill="black"/>
<path d="M61.1833 65.8451V90.854H59.1833V65.8313C52.484 65.2765 47.2134 59.6575 47.2134 52.8157H49.2134C49.2134 58.5522 53.59 63.2746 59.1833 63.8231V52.8308H61.1833V63.8394C66.8631 63.3762 71.3345 58.614 71.3345 52.8157H73.3345C73.3345 59.719 67.9687 65.3776 61.1833 65.8451Z" fill="black"/>
<path fill-rule="evenodd" clip-rule="evenodd" d="M54.8477 103.998C54.8477 100.127 52.6726 96.0562 48.4023 96.0562C45.2095 96.0363 43.0544 98.4308 42.2762 101.205C41.4381 103.998 41.8971 107.191 43.4735 109.486C44.5111 111.002 46.2472 112 48.3225 112C49.3601 112 50.298 111.761 51.156 111.302C53.6304 109.945 54.8477 106.892 54.8477 103.998ZM48.3624 110.503C44.99 110.503 43.5533 106.832 43.5533 103.998C43.5533 102.541 43.9324 101.025 44.6708 99.7478C45.4091 98.4508 46.7461 97.5728 48.3424 97.5728C49.9388 97.5728 51.2957 98.4907 52.034 99.7877C52.7724 101.085 53.1715 102.621 53.1715 104.078C53.1715 106.852 51.7347 110.503 48.3624 110.503Z" fill="black"/>
<path d="M34.2685 100.187L38.0199 97.9519V111.84H39.6562V96.2159H38.0598L33.5301 98.9496L34.2685 100.187Z" fill="black"/>
<path fill-rule="evenodd" clip-rule="evenodd" d="M63.352 96.0562C67.6223 96.0562 69.7974 100.127 69.7974 103.998C69.7974 106.892 68.5802 109.945 66.1058 111.302C65.2477 111.761 64.3099 112 63.2722 112C61.1969 112 59.4609 111.002 58.4232 109.486C56.8468 107.191 56.3879 103.998 57.226 101.205C58.0042 98.4308 60.1593 96.0363 63.352 96.0562ZM58.5031 103.998C58.5031 106.832 59.9398 110.503 63.3121 110.503C66.6845 110.503 68.1212 106.852 68.1212 104.078C68.1212 102.621 67.7221 101.085 66.9838 99.7877C66.2455 98.4907 64.8886 97.5728 63.2922 97.5728C61.6958 97.5728 60.3588 98.4508 59.6205 99.7478C58.8822 101.025 58.5031 102.541 58.5031 103.998Z" fill="black"/>
<path fill-rule="evenodd" clip-rule="evenodd" d="M77.2983 102.083C77.9968 101.384 78.336 100.566 78.336 99.5882C78.336 98.6104 77.9968 97.7723 77.2983 97.0939C76.5999 96.3954 75.7818 96.0562 74.804 96.0562C73.8262 96.0562 73.0081 96.3954 72.3097 97.0939C71.6312 97.7923 71.292 98.6104 71.292 99.5882C71.292 100.566 71.6312 101.384 72.3097 102.083C73.0081 102.761 73.8262 103.1 74.804 103.1C75.7818 103.1 76.5999 102.761 77.2983 102.083ZM77.019 99.5882C77.019 100.207 76.7995 100.726 76.3605 101.145C75.9414 101.564 75.4226 101.783 74.804 101.783C74.1854 101.783 73.6666 101.564 73.2276 101.145C72.8085 100.726 72.589 100.207 72.589 99.5882C72.589 98.9696 72.8085 98.4508 73.2276 98.0317C73.6666 97.5927 74.1854 97.3732 74.804 97.3732C75.4226 97.3732 75.9414 97.5927 76.3605 98.0317C76.7995 98.4508 77.019 98.9696 77.019 99.5882Z" fill="black"/>
<path d="M85.0208 96.2159H83.4244L73.2476 111.84H74.824L85.0208 96.2159Z" fill="black"/>
<path fill-rule="evenodd" clip-rule="evenodd" d="M85.9587 110.942C86.6571 110.244 86.9963 109.426 86.9963 108.448C86.9963 107.47 86.6571 106.632 85.9587 105.954C85.2603 105.255 84.4421 104.916 83.4643 104.916C82.4866 104.916 81.6684 105.255 80.97 105.954C80.2716 106.632 79.9324 107.47 79.9324 108.448C79.9324 109.426 80.2716 110.244 80.97 110.942C81.6684 111.621 82.4866 111.96 83.4643 111.96C84.4421 111.96 85.2603 111.621 85.9587 110.942ZM85.6793 108.448C85.6793 109.067 85.4598 109.585 85.0208 110.005C84.6018 110.424 84.0829 110.643 83.4643 110.643C82.8457 110.643 82.3269 110.424 81.9079 110.005C81.4888 109.585 81.2693 109.067 81.2693 108.448C81.2693 107.829 81.4888 107.311 81.9079 106.892C82.3269 106.453 82.8457 106.233 83.4643 106.233C84.0829 106.233 84.6018 106.453 85.0208 106.892C85.4598 107.311 85.6793 107.829 85.6793 108.448Z" fill="black"/>
</svg>
