<svg width="120" height="120" viewBox="0 0 120 120" fill="none" xmlns="http://www.w3.org/2000/svg">
<path fill-rule="evenodd" clip-rule="evenodd" d="M45.9561 10.5321C43.1268 10.3053 40.313 11.2881 38.2028 13.2346L38.1945 13.2423C37.508 13.8565 36.9059 14.5458 36.3529 15.3157L25.8791 34.1872L46.696 45.6356L59.4422 22.6887L54.9658 15.6491L54.9441 15.6128C53.7542 13.4852 51.7936 11.8762 49.4536 11.1246L45.9561 10.5321ZM52.5146 10.9199C54.0537 11.9025 55.3388 13.253 56.2427 14.8618L60.9474 22.2603L60.9616 22.2836L69.767 37.3115L69.4903 38.3428L62.4423 42.3461L85.0636 41.2472L95.5602 22.2713L89.4366 25.8352L88.4125 25.5667L82.0074 14.6564C81.2467 13.3079 80.0756 12.3103 78.4714 11.7006L76.2122 11.1821L52.5146 10.9199ZM60.3319 24.176L68.0885 37.414L58.9657 42.5957L59.3725 43.997L85.554 42.7251L86.1739 42.339L98.1884 20.619L97.1548 19.6077L89.3278 24.1629L83.3139 13.9193C83.3129 13.9175 83.3119 13.9157 83.3109 13.9139C82.3567 12.2253 80.8826 11.0001 78.951 10.2783L78.8562 10.2499L76.469 9.70201L76.3095 9.68306L48.0739 9.37063L46.1754 9.04789L46.112 9.03987C42.8486 8.76792 39.6113 9.89686 37.19 12.1282C36.4013 12.8345 35.7209 13.6196 35.1077 14.4781L35.0622 14.55L24.2022 34.1176L24.4966 35.1388L46.6275 47.3098L47.6446 47.0168L60.3319 24.176ZM78.283 53.6984L91.3262 76.4115L99.6616 76.4673C102.187 76.5219 104.433 75.6928 106.41 73.9538L106.417 73.9474C106.796 73.6222 107.132 73.3221 107.431 73.028C107.498 72.9201 107.57 72.849 107.598 72.8215C107.996 72.3867 108.351 71.8737 108.659 71.3294L108.703 71.2615C110.378 68.9304 110.981 65.9949 110.397 63.1833L110.396 63.1778C110.212 62.2567 109.939 61.3678 109.547 60.5415L98.84 41.828L78.283 53.6984ZM105.146 76.6617C103.462 77.5713 101.62 78.0092 99.6345 77.9672C99.6328 77.9672 99.631 77.9671 99.6292 77.9671L90.8741 77.9085L90.8742 77.8858L90.8724 77.889L73.4376 77.7324L72.6946 76.9641L72.8923 68.8569L62.132 88.7702L72.9585 107.584L73.0858 100.509L73.8462 99.7724L86.4651 99.9484C86.465 99.9484 86.4651 99.9484 86.4651 99.9484C88.0658 99.966 89.5461 99.4608 90.9269 98.3848L90.9349 98.3786C91.5075 97.9448 92.0189 97.4018 92.4469 96.7984L105.146 76.6617ZM89.5768 76.3773L76.6096 53.7965L76.885 52.7735L98.742 40.1524L99.768 40.4295L110.863 59.821L110.888 59.8698C111.351 60.836 111.661 61.8554 111.866 62.881C112.531 66.0823 111.851 69.432 109.944 72.1041C109.595 72.7162 109.178 73.3201 108.69 73.8507L108.687 73.8539L108.674 73.8799L93.705 97.6154L93.6834 97.6479C93.1754 98.3676 92.5569 99.031 91.8445 99.5714C90.2131 100.841 88.4074 101.47 86.4486 101.448L86.4464 101.448L74.5721 101.283L74.4095 110.32L73.0095 110.68L60.6233 89.1558L60.6135 88.4252L73.0585 65.3941L74.4681 65.7689L74.2127 76.2393L89.5768 76.3773ZM108.751 73.717C108.736 73.7632 108.716 73.8007 108.698 73.829L108.751 73.717ZM7 45.4183L7.38411 44.0242H32.235L32.873 44.38L46.6291 66.6479L45.6019 67.6833L36.6489 62.2495L28.9763 75.5084H54.953L55.703 76.2573L55.7421 101.519L54.9921 102.27H33.8373C32.4896 102.331 31.0281 102.072 29.4631 101.524C26.2866 100.423 23.9649 98.3338 22.5095 95.2919C22.1766 94.701 21.8975 94.0708 21.6903 93.4177L8.40472 68.4313L8.38231 68.3855C8.02579 67.5885 7.76849 66.7389 7.65915 65.8578C7.34086 63.9241 7.72938 61.9505 8.73618 60.2784C8.73666 60.2776 8.73714 60.2768 8.73762 60.276L14.7911 50.0641L7 45.4183ZM22.8778 92.9336L23.0907 92.8691C23.2692 93.4582 23.5204 94.0335 23.8277 94.5758L23.8523 94.6231C25.1368 97.3204 27.1545 99.1366 29.9562 100.107L29.9589 100.108C31.4001 100.613 32.6717 100.824 33.7843 100.771L33.82 100.77H54.2409L54.2041 77.0084H28.107L23.8757 84.2781C22.5678 86.4397 22.1665 88.7696 22.6763 91.3272C22.7895 91.8357 22.9215 92.3446 23.0724 92.854L22.8778 92.9336ZM20.9683 88.8647C21.0301 86.9812 21.5698 85.1933 22.5888 83.5072C22.5899 83.5053 22.5911 83.5034 22.5922 83.5016L27.0266 75.8828L27.0275 75.8812L35.7342 60.8353L36.7724 60.5698L43.7136 64.7826L31.8167 45.5242H10.1063L16.2019 49.1589L16.4629 50.1855L10.0252 61.0455L10.0224 61.0501C9.19373 62.4254 8.87769 64.0449 9.14143 65.6273L9.14611 65.6598C9.23265 66.3695 9.44029 67.0718 9.74136 67.7501L20.9683 88.8647Z" fill="black"/>
</svg>
