<svg width="120" height="120" viewBox="0 0 120 120" fill="none" xmlns="http://www.w3.org/2000/svg">
<path fill-rule="evenodd" clip-rule="evenodd" d="M59.999 8C31.2809 8 8 31.2809 8 59.9991C8 88.7172 31.2808 112 59.999 112C88.7173 112 111.998 88.7172 111.998 59.9991C111.998 31.2809 88.7173 8 59.999 8ZM11.8237 55.6931C14.0023 30.9994 34.7393 11.6346 59.999 11.6346C86.7099 11.6346 108.364 33.2882 108.364 59.9991C108.364 64.5444 107.737 68.9433 106.564 73.114C102.156 71.4288 97.6591 69.9851 93.0937 68.7895C93.3913 69.2555 93.5281 69.8062 93.4829 70.3574C93.4838 70.3884 93.478 70.4184 93.4721 70.4485C93.4672 70.474 93.4622 70.4996 93.4613 70.526C97.7961 71.4487 102.115 72.482 106.417 73.6258C105.856 75.5396 105.18 77.4041 104.397 79.2115C99.583 77.5126 94.5964 76.3475 89.5273 75.7373C88.6841 75.6123 87.8362 75.5426 86.9883 75.473C86.7899 75.4567 86.5915 75.4404 86.3932 75.4234L85.7887 75.3786C85.7888 75.3712 85.7875 75.364 85.7847 75.3572C85.782 75.3504 85.7778 75.3442 85.7726 75.3391L85.7292 75.2933L85.7284 75.2924C85.6841 75.2458 85.6403 75.1997 85.5985 75.1525C85.5763 75.1268 85.5595 75.0968 85.549 75.0645C85.5385 75.0321 85.5346 74.998 85.5376 74.9641C85.5448 74.8403 85.5484 74.7166 85.5519 74.5892C85.5553 74.4489 85.5839 74.3104 85.6362 74.1802C85.6449 74.1601 85.6527 74.1396 85.6595 74.1189C85.6609 74.1148 85.6621 74.1108 85.6634 74.1067C85.6665 74.0966 85.6694 74.0864 85.6721 74.0761C85.7059 73.9469 85.7566 73.8227 85.8228 73.7066C85.8477 73.6665 85.8573 73.6187 85.8497 73.572L85.8443 73.5092C85.8443 73.5008 85.8441 73.4928 85.8439 73.4851V73.4848V73.4845C85.8438 73.477 85.8436 73.4697 85.8436 73.4624C85.8436 73.4548 85.8438 73.4471 85.8443 73.4393C85.8431 73.431 85.8445 73.4226 85.8484 73.4151C85.8502 73.4118 85.8523 73.4088 85.8549 73.4061C85.8568 73.4042 85.8588 73.4025 85.8609 73.401C85.8625 73.3999 85.8642 73.3989 85.8659 73.398C85.899 73.3845 85.9342 73.3766 85.9699 73.3747C85.9909 73.3747 86.0117 73.379 86.0309 73.3873C86.056 73.3981 86.0829 73.4106 86.108 73.4214C86.1155 73.4243 86.1233 73.4261 86.1313 73.4267C86.1439 73.4267 86.1493 73.4159 86.1583 73.398C86.1672 73.3765 86.1726 73.3676 86.1852 73.3676C86.1909 73.3683 86.1965 73.3695 86.2019 73.3712C86.2066 73.3726 86.2112 73.3744 86.2156 73.3765C86.2214 73.3788 86.2269 73.3818 86.2318 73.3855C86.2466 73.3938 86.2633 73.3981 86.2802 73.398C86.2937 73.3974 86.307 73.395 86.3198 73.3909C86.3523 73.3784 86.3872 73.3729 86.422 73.3747H86.4489C86.4585 73.3752 86.4678 73.3783 86.4758 73.3837C86.5924 73.4698 86.709 73.5577 86.8256 73.6492C86.8429 73.6628 86.86 73.677 86.8772 73.6913C86.91 73.7187 86.9434 73.7465 86.9799 73.7712C87.0594 73.8324 87.1295 73.9049 87.188 73.9865C87.2687 74.0941 87.3512 74.2053 87.4301 74.3129C87.4643 74.365 87.4984 74.4152 87.5343 74.4636C87.5905 74.5402 87.6219 74.6323 87.6239 74.7274C87.6271 74.7551 87.6344 74.7823 87.6454 74.808C87.6544 74.8368 87.6687 74.8655 87.6796 74.8942C87.6831 74.9053 87.6864 74.9164 87.6897 74.9275C87.6941 74.9422 87.6984 74.9568 87.7032 74.9715C87.7059 74.9798 87.7088 74.9881 87.7119 74.9964C87.7226 75.0233 87.7369 75.0341 87.7585 75.0341C87.7657 75.0335 87.7729 75.0323 87.78 75.0305C87.7911 75.0277 87.8023 75.0228 87.8143 75.0182L87.8249 75.0144C87.8319 75.0126 87.8391 75.0114 87.8463 75.0108C87.8572 75.0108 87.8625 75.0161 87.8715 75.0341L87.8913 75.0659L87.8919 75.0669C87.903 75.0847 87.914 75.1025 87.9251 75.1196L87.9361 75.1364C87.9393 75.1426 87.9431 75.1484 87.9475 75.1538C87.9521 75.1593 87.9572 75.1643 87.9629 75.1687C88.0418 75.2224 88.1348 75.2518 88.2303 75.253C88.2592 75.2528 88.288 75.2498 88.3164 75.244C88.4061 75.2259 88.491 75.1893 88.5657 75.1364C88.5738 75.1303 88.5829 75.1243 88.5925 75.118L88.5927 75.1179C88.6002 75.1129 88.6081 75.1078 88.6159 75.1022C88.6112 75.0967 88.6068 75.0911 88.6025 75.0855C88.5972 75.0786 88.5923 75.0716 88.5873 75.0646C88.4718 74.93 88.3477 74.803 88.216 74.6843C88.1495 74.6269 88.085 74.5676 88.0239 74.5049C87.9896 74.4705 87.959 74.4326 87.9325 74.3919C87.8958 74.3429 87.8642 74.2918 87.8323 74.2403L87.8322 74.2402L87.8322 74.2401L87.8318 74.2395L87.8314 74.2389C87.8215 74.223 87.8116 74.2069 87.8015 74.1909C87.771 74.1443 87.7423 74.0994 87.7154 74.0528C87.6928 74.0152 87.677 73.9739 87.6687 73.9308L87.6687 73.9306L87.6686 73.9304L87.6686 73.9302C87.6489 73.8478 87.6292 73.7655 87.615 73.6815C87.5918 73.5453 87.5316 73.418 87.441 73.3137C87.4268 73.2963 87.412 73.2789 87.3969 73.2618C87.3915 73.2558 87.3862 73.2499 87.3808 73.244C87.3764 73.2391 87.3719 73.2342 87.3674 73.2294C87.355 73.2121 87.3436 73.1941 87.3333 73.1756C87.3299 73.1703 87.327 73.1646 87.3247 73.1588C87.3219 73.1516 87.3199 73.1439 87.319 73.1361C87.3315 73.1325 87.3368 73.1289 87.3458 73.1272C87.3628 73.1252 87.379 73.1187 87.3926 73.1082C87.398 73.104 87.403 73.0993 87.4074 73.0941C87.4109 73.0899 87.4141 73.0854 87.4169 73.0806C87.4192 73.0766 87.4213 73.0723 87.423 73.0679C87.4284 73.05 87.4356 73.041 87.4481 73.041C87.4571 73.041 87.4678 73.05 87.4804 73.0644C87.4846 73.0732 87.4908 73.081 87.4986 73.0869C87.5064 73.0928 87.5156 73.0968 87.5253 73.0984C87.5301 73.0741 87.5339 73.0498 87.5378 73.025C87.5396 73.0138 87.5413 73.0026 87.5432 72.9912C87.5449 72.9811 87.5467 72.9708 87.5486 72.9603C87.5515 72.9427 87.5596 72.9265 87.5719 72.9137C87.5926 72.883 87.6219 72.8593 87.6562 72.8455C87.6707 72.8391 87.6846 72.8313 87.6975 72.8222C87.7054 72.8176 87.7116 72.8106 87.7152 72.8021C87.7187 72.7937 87.7194 72.7844 87.7172 72.7755C87.7121 72.7485 87.7165 72.7206 87.7298 72.6966C87.7423 72.6679 87.7459 72.6607 87.7692 72.6607C87.7746 72.6605 87.7801 72.6611 87.7853 72.6625H87.8141C87.8232 72.6631 87.8322 72.6606 87.8397 72.6553C87.8414 72.6542 87.8429 72.653 87.8443 72.6516C87.846 72.65 87.8475 72.6483 87.8489 72.6465C87.8517 72.6427 87.8539 72.6384 87.8553 72.6338C87.8648 72.6096 87.8763 72.5862 87.8895 72.5639C87.9015 72.5642 87.9134 72.5654 87.9252 72.5674L88.0239 72.5728H88.0311C88.0581 72.5728 88.0598 72.5674 88.0652 72.5405C88.0681 72.5312 88.0704 72.5224 88.0726 72.5141L88.0726 72.5139L88.0738 72.5094C88.0751 72.5046 88.0763 72.5 88.0777 72.4956C88.0793 72.49 88.0811 72.4847 88.0831 72.4795C88.1043 72.4848 88.1259 72.4885 88.1477 72.4903C88.1543 72.4906 88.1608 72.4901 88.1672 72.4887C88.1755 72.487 88.1834 72.4839 88.1908 72.4795L88.1973 72.4754C88.2262 72.4573 88.2353 72.4517 88.2303 72.4132C88.2294 72.3848 88.2258 72.3565 88.2195 72.3288C88.2179 72.3231 88.2175 72.3171 88.2183 72.3114C88.219 72.3066 88.2205 72.3019 88.2227 72.2975C88.2277 72.2879 88.2362 72.2805 88.2464 72.2768C88.271 72.2686 88.2962 72.2619 88.3217 72.2571C88.363 72.2481 88.3863 72.2158 88.3648 72.1781C88.3605 72.1659 88.3587 72.1529 88.3595 72.14C88.3603 72.127 88.3636 72.1143 88.3693 72.1027C88.3749 72.091 88.3829 72.0806 88.3926 72.072C88.3975 72.0677 88.4027 72.0639 88.4084 72.0606C88.4111 72.059 88.4139 72.0575 88.4168 72.0562C88.4179 72.0557 88.4191 72.0552 88.4202 72.0547C88.4221 72.054 88.4239 72.0532 88.4258 72.0526L88.4278 72.0521C88.4435 72.0487 88.462 72.0445 88.4689 72.0238C88.4635 72.0138 88.4568 72.0049 88.4502 71.9961L88.4502 71.9961C88.4367 71.9782 88.4234 71.9606 88.4222 71.9342C88.4243 71.9342 88.4268 71.9339 88.4296 71.9336L88.4315 71.9333C88.4356 71.9329 88.4399 71.9324 88.4437 71.9324H88.4509L88.469 71.9374L88.4798 71.9405L88.5083 71.9485L88.5117 71.9498C88.5141 71.9506 88.5167 71.9514 88.5192 71.952C88.525 71.9533 88.531 71.954 88.537 71.9539C88.55 71.9539 88.5629 71.951 88.5747 71.9454C88.5865 71.9398 88.5969 71.9317 88.6052 71.9216C88.6142 71.9109 88.6159 71.9001 88.607 71.8911C88.6023 71.8868 88.5981 71.882 88.5945 71.8767C88.5747 71.848 88.5765 71.8283 88.6106 71.8157C88.6179 71.8121 88.6256 71.8092 88.6335 71.807C88.6395 71.8053 88.6456 71.8041 88.6519 71.8032C88.6646 71.802 88.6764 71.7962 88.6853 71.787C88.6942 71.7778 88.6995 71.7657 88.7002 71.753C88.7028 71.737 88.7061 71.7203 88.7094 71.7033L88.7094 71.7031C88.7132 71.6839 88.7171 71.6643 88.72 71.6453C88.7234 71.625 88.7223 71.6042 88.7167 71.5843C88.7112 71.5645 88.7013 71.5461 88.6878 71.5305C88.6745 71.516 88.6619 71.5008 88.65 71.4852C88.6413 71.4737 88.6329 71.4619 88.6249 71.4498C88.6151 71.4351 88.6067 71.4195 88.5998 71.4032H88.6303C88.639 71.4032 88.6482 71.404 88.6576 71.4049C88.6675 71.4058 88.6776 71.4067 88.6878 71.4067C88.7344 71.4067 88.7451 71.387 88.7254 71.3476C88.7236 71.3434 88.7217 71.3395 88.7197 71.3357L88.7166 71.3299C88.7134 71.324 88.7102 71.3181 88.7075 71.3116C88.7013 71.3033 88.6975 71.2933 88.6966 71.2829C88.6963 71.2809 88.6961 71.2789 88.696 71.2768C88.696 71.2742 88.6961 71.2716 88.6964 71.269C88.6966 71.2666 88.6971 71.2641 88.6977 71.2617C88.6988 71.2579 88.7002 71.2542 88.7021 71.2506C88.7066 71.2484 88.7115 71.2472 88.7165 71.2471C88.7174 71.2471 88.7183 71.2472 88.7192 71.2473C88.7203 71.2475 88.7215 71.2476 88.7226 71.2478C88.726 71.2484 88.7293 71.2494 88.7325 71.2506C88.7455 71.2561 88.7576 71.2634 88.7685 71.2722C88.7915 71.2901 88.82 71.2996 88.8492 71.2991C88.8593 71.2988 88.8694 71.2981 88.8794 71.2971C88.8909 71.2959 88.9024 71.2942 88.9138 71.2919C88.9425 71.2848 88.9478 71.2776 88.9461 71.2453C88.9453 71.238 88.9472 71.2306 88.9515 71.2246C88.9558 71.2187 88.9622 71.2145 88.9694 71.213C88.9837 71.2064 88.9987 71.2015 89.0142 71.1986C89.0778 71.1886 89.1419 71.182 89.2062 71.1789C89.2274 71.1821 89.2491 71.1777 89.2674 71.1666C89.2858 71.1554 89.2996 71.1382 89.3066 71.1179C89.3107 71.1024 89.3187 71.0882 89.3299 71.0767C89.3709 71.0908 89.4129 71.1016 89.4555 71.109C89.4616 71.1093 89.4676 71.1087 89.4735 71.1072C89.4712 71.089 89.4676 71.071 89.4626 71.0533C89.4626 71.0453 89.4609 71.0363 89.4591 71.0273C89.4573 71.0183 89.4555 71.0094 89.4555 71.0013C89.4553 70.9902 89.4577 70.9791 89.4626 70.969C89.4923 70.9223 89.533 70.8835 89.5811 70.856C89.6083 70.8414 89.6383 70.8329 89.6691 70.8309C89.6738 70.8309 89.6775 70.8314 89.6811 70.8319C89.6824 70.832 89.6837 70.8322 89.685 70.8323C89.6868 70.8325 89.6886 70.8327 89.6905 70.8327C89.7102 70.8363 89.7318 70.8381 89.7534 70.8398C89.809 70.8452 89.8663 70.8506 89.922 70.8506C89.9756 70.8506 90.0291 70.8452 90.0816 70.8345C90.1165 70.8275 90.1519 70.8239 90.1875 70.8237C90.2202 70.8232 90.2528 70.8275 90.2843 70.8363C90.3038 70.8404 90.3236 70.8428 90.3435 70.8434C90.4056 70.8459 90.4664 70.8625 90.5211 70.8919C90.5365 70.9004 90.5538 70.9048 90.5714 70.9044C90.5931 70.9031 90.6144 70.8976 90.6341 70.8883C90.7468 70.8339 90.8401 70.7462 90.9014 70.6372C90.9057 70.6326 90.9092 70.6273 90.9117 70.6216C90.9138 70.6169 90.9151 70.6118 90.9157 70.6067C90.9187 70.5766 90.9313 70.5482 90.9516 70.5259C90.9582 70.5184 90.9643 70.5106 90.9699 70.5024C90.9718 70.4996 90.9737 70.4968 90.9755 70.4939C90.9785 70.4891 90.9813 70.4843 90.9839 70.4793C90.9882 70.4739 90.9919 70.4681 90.9948 70.4619C90.9958 70.4597 90.9968 70.4574 90.9976 70.4551C90.9985 70.4527 90.9992 70.4504 90.9999 70.448C91.003 70.4365 91.0037 70.4246 91.0019 70.4129L91.0015 70.4081C90.998 70.3683 90.9944 70.3271 90.9876 70.2891C90.984 70.2588 90.9877 70.2281 90.9983 70.1994C91.0235 70.1277 91.0109 70.1007 90.9516 70.0487C90.9278 70.0278 90.9056 70.005 90.8853 69.9806C90.8829 69.9782 90.8804 69.9758 90.8779 69.9735C90.8752 69.971 90.8724 69.9685 90.8696 69.9661L90.8683 69.9649C90.8609 69.9583 90.8537 69.9518 90.8476 69.9447L90.8282 69.9229C90.7736 69.8617 90.7184 69.7999 90.6574 69.7437C90.6117 69.7067 90.568 69.6672 90.5265 69.6254C90.4105 69.5076 90.2824 69.4023 90.1443 69.3114C90.06 69.2558 89.9811 69.1948 89.9023 69.1338C89.8675 69.1046 89.8332 69.0753 89.7989 69.046C89.7659 69.0179 89.7329 68.9897 89.6995 68.9616C89.6796 68.9465 89.6657 68.9249 89.6601 68.9006C89.659 68.8886 89.6553 68.877 89.6492 68.8665C89.6331 68.8306 89.6152 68.8145 89.5811 68.8145C89.5757 68.8142 89.5702 68.8148 89.5649 68.8163C89.5502 68.8183 89.5355 68.8207 89.5209 68.8235C89.5074 68.8261 89.494 68.8291 89.4806 68.8324C89.4762 68.8331 89.4718 68.8336 89.4673 68.834C89.4616 68.8344 89.4559 68.8345 89.4502 68.8342C89.4312 68.835 89.4124 68.83 89.3963 68.8199C89.3734 68.8067 89.3474 68.7999 89.321 68.8001C89.2971 68.7998 89.2733 68.804 89.251 68.8127L89.2214 68.8234L89.2056 68.8291L89.2054 68.8291C89.1714 68.8412 89.1367 68.8534 89.1021 68.8683C89.0959 68.8709 89.0894 68.873 89.0829 68.8745C89.0757 68.8761 89.0683 68.8771 89.0608 68.8773C89.0529 68.8778 89.0449 68.8766 89.0375 68.8737C89.0141 68.8674 88.9917 68.8577 88.9711 68.845C88.9573 68.8358 88.9411 68.8309 88.9245 68.8306C88.9194 68.831 88.9144 68.8315 88.9094 68.8322C88.9063 68.8327 88.9032 68.8332 88.9001 68.8337C88.8962 68.8344 88.8925 68.8352 88.8887 68.836C88.8744 68.8414 88.8617 68.8486 88.8474 68.8539C88.8063 68.8717 88.7624 68.8888 88.7192 68.9057C88.6927 68.916 88.6664 68.9262 88.6411 68.9365C88.6339 68.9405 88.626 68.9429 88.6178 68.9437C88.6163 68.9232 88.6255 68.9123 88.6348 68.9012C88.6369 68.8986 88.6391 68.8961 88.6411 68.8934C88.6484 68.8844 88.6565 68.8753 88.6646 68.8663C88.6726 68.8574 88.6806 68.8485 88.6878 68.8396C88.6917 68.8356 88.6946 68.8307 88.6962 68.8254L88.6969 68.8225C88.6978 68.8181 88.6979 68.8134 88.697 68.8089C88.6959 68.8034 88.6935 68.7983 88.69 68.794L88.6872 68.7909L88.6859 68.7896C88.6832 68.7873 88.6802 68.7854 88.6769 68.784C88.668 68.7792 88.6588 68.7749 88.6494 68.7712C88.6408 68.7678 88.6321 68.7649 88.6232 68.7624L88.5812 68.7568L88.5442 68.7517C88.5346 68.7506 88.5253 68.7475 88.5169 68.7425C88.5128 68.7401 88.509 68.7372 88.5055 68.734C88.5018 68.7307 88.4986 68.727 88.4957 68.723C88.487 68.7076 88.4739 68.6951 88.4581 68.6871C88.4479 68.6837 88.4374 68.6803 88.4268 68.677C88.4151 68.6733 88.4032 68.6696 88.3913 68.6659L88.3559 68.6548C88.3329 68.6506 88.3105 68.6434 88.2894 68.6333C88.2766 68.6271 88.2624 68.624 88.2482 68.6243C88.234 68.6249 88.2201 68.628 88.207 68.6333C88.1832 68.6478 88.1586 68.661 88.1334 68.6728L88.1188 68.6783C88.1091 68.6818 88.0992 68.6851 88.0892 68.6881C88.0795 68.691 88.0697 68.6937 88.0598 68.6961C88.0523 68.698 88.0447 68.6996 88.037 68.7011C88.0265 68.7032 88.0159 68.705 88.0053 68.7068L88.0052 68.7068C87.9963 68.7084 87.9874 68.7099 87.9785 68.7116C87.9691 68.7133 87.9597 68.7153 87.9504 68.7176C87.941 68.7197 87.9314 68.7209 87.9218 68.7212C87.8981 68.7201 87.8751 68.7127 87.8553 68.6997C87.8496 68.6968 87.8441 68.6939 87.8387 68.6909L87.826 68.6839C87.8121 68.6761 87.7985 68.6684 87.7836 68.662C87.7605 68.6491 87.7347 68.6418 87.7082 68.6405C87.6849 68.6405 87.662 68.6467 87.6419 68.6584C87.6173 68.6707 87.593 68.6838 87.5686 68.6969L87.5524 68.7056C87.5288 68.7183 87.5049 68.7308 87.4804 68.7427C87.4792 68.7436 87.478 68.7443 87.4767 68.7451C87.4755 68.7458 87.4742 68.7465 87.4729 68.7472C87.4697 68.7489 87.4665 68.7503 87.4631 68.7514C87.4601 68.7524 87.457 68.7533 87.4539 68.7539C87.4502 68.7547 87.4465 68.7551 87.4427 68.7553H87.441C87.4025 68.7568 87.3646 68.7454 87.3333 68.723C87.3141 68.7057 87.2892 68.6961 87.2634 68.6961C87.242 68.6963 87.2211 68.7019 87.2024 68.7122C87.1682 68.7284 87.1288 68.7445 87.0929 68.7589C87.0843 68.7625 87.0752 68.7649 87.0659 68.7661C87.0616 68.7659 87.0573 68.765 87.0532 68.7636C87.0504 68.7626 87.0478 68.7614 87.0453 68.7599C87.039 68.7561 87.0338 68.7508 87.0301 68.7445L87.0086 68.7068C87.0059 68.7022 87.0028 68.6978 86.9993 68.6939C86.9944 68.6883 86.9886 68.6836 86.9822 68.6797C86.9712 68.6731 86.9586 68.6695 86.9458 68.6692H86.935C86.9082 68.6745 86.8812 68.6799 86.8562 68.6853C86.8437 68.6892 86.8306 68.6941 86.8171 68.6991C86.7994 68.7057 86.7811 68.7125 86.7629 68.7176C86.7571 68.7197 86.751 68.7209 86.7449 68.7212C86.7323 68.7212 86.727 68.7122 86.7197 68.6907C86.7181 68.6834 86.7139 68.677 86.708 68.6724C86.7022 68.6678 86.6949 68.6654 86.6874 68.6656H86.6839C86.6591 68.6688 86.6345 68.6736 86.6103 68.6799C86.6071 68.6808 86.6039 68.6823 86.6005 68.6839C86.5964 68.6858 86.592 68.6879 86.587 68.6889H86.5817C86.5727 68.6889 86.5673 68.6853 86.5673 68.6745C86.5738 68.6694 86.5803 68.6651 86.5894 68.6591L86.6014 68.6513C86.5876 68.6452 86.576 68.6396 86.5652 68.6345L86.5651 68.6344C86.5533 68.6288 86.5426 68.6236 86.5314 68.619C86.4832 68.6054 86.4385 68.5815 86.4004 68.549C86.3799 68.5313 86.354 68.5211 86.3269 68.5202C86.2998 68.5209 86.2736 68.5296 86.2515 68.5454C86.2491 68.547 86.2467 68.549 86.2444 68.5509C86.2417 68.5531 86.2392 68.5552 86.2372 68.5562C86.2318 68.5602 86.2258 68.5634 86.2196 68.5657C86.2109 68.569 86.2017 68.5706 86.1923 68.5705C86.1885 68.5705 86.1847 68.57 86.1811 68.5695L86.1763 68.5689L86.1726 68.5687C86.1651 68.568 86.1594 68.5653 86.1548 68.5614C86.152 68.5591 86.1496 68.5565 86.1474 68.5537C86.1451 68.5506 86.1429 68.5474 86.1409 68.5443L86.1368 68.5382C86.1348 68.5357 86.1326 68.5334 86.1301 68.5315C86.1293 68.5309 86.1286 68.5304 86.1278 68.5299C86.1268 68.5292 86.1259 68.5287 86.1249 68.5281C86.1202 68.5257 86.1151 68.5242 86.1098 68.5239C86.1022 68.5245 86.0948 68.527 86.0883 68.531C86.0619 68.5417 86.0367 68.5549 86.0129 68.5705C86.0007 68.579 85.9865 68.5839 85.9717 68.5848C85.9581 68.5842 85.9453 68.5784 85.9359 68.5687C85.9298 68.5631 85.9228 68.5588 85.9151 68.556C85.9073 68.5533 85.8992 68.5521 85.891 68.5525C85.8825 68.5531 85.8741 68.5543 85.8659 68.5562C85.8569 68.5597 85.8443 68.5651 85.8336 68.5705C85.8282 68.5739 85.822 68.5757 85.8156 68.5759C85.8128 68.5755 85.8099 68.5749 85.8072 68.574C85.8065 68.5738 85.8058 68.5735 85.8051 68.5733C85.8011 68.5717 85.7974 68.5696 85.7941 68.5669C85.7797 68.5526 85.7707 68.5472 85.76 68.5472C85.7469 68.549 85.7349 68.5554 85.726 68.5651C85.7223 68.5679 85.7191 68.5706 85.7159 68.5733C85.7128 68.576 85.7097 68.5786 85.7061 68.5813C85.6937 68.5956 85.6847 68.6028 85.6721 68.6028C85.6575 68.5999 85.6443 68.5924 85.6344 68.5813C85.6295 68.5762 85.6249 68.5708 85.6208 68.565C85.6185 68.5617 85.6163 68.5583 85.6143 68.5549L85.6111 68.549C85.6004 68.5292 85.5931 68.5221 85.5805 68.5221C85.5727 68.5225 85.5649 68.5237 85.5572 68.5257C85.5214 68.5299 85.4874 68.5435 85.4586 68.5651C85.4524 68.5717 85.4442 68.5761 85.4353 68.5777C85.4292 68.5777 85.4244 68.5737 85.4175 68.5681L85.4138 68.5651C85.3922 68.5382 85.3761 68.5292 85.3599 68.5292C85.3415 68.5304 85.3237 68.5359 85.3079 68.5454C85.2679 68.5663 85.2238 68.5779 85.1787 68.5795C85.1725 68.5794 85.1664 68.5799 85.1603 68.5811C85.1543 68.5822 85.1485 68.5839 85.1428 68.5862C85.1314 68.5908 85.1211 68.5977 85.1123 68.6064C85.0778 68.6364 85.0356 68.6563 84.9904 68.6638C84.9437 68.6728 84.8971 68.6817 84.8523 68.6871C84.7979 68.6976 84.7426 68.7036 84.6872 68.7051C84.662 68.705 84.6368 68.7032 84.6119 68.6996C84.6087 68.6991 84.6057 68.6985 84.6026 68.6978C84.5999 68.6972 84.5972 68.6965 84.5945 68.6958C84.5851 68.6931 84.5759 68.6896 84.5671 68.6853C84.5483 68.67 84.5248 68.6618 84.5006 68.662C84.4891 68.662 84.4776 68.6638 84.4666 68.6673L84.4619 68.6686C84.4437 68.6736 84.4257 68.6786 84.4092 68.6835C84.3937 68.687 84.378 68.6899 84.3623 68.6922C84.3522 68.6937 84.3421 68.695 84.332 68.6961H84.3249C84.2861 68.6933 84.2474 68.702 84.2136 68.7212C84.2077 68.7248 84.2009 68.7267 84.1939 68.7266C84.1873 68.7262 84.181 68.7242 84.1753 68.7207C84.1697 68.7173 84.165 68.7125 84.1616 68.7068C84.1548 68.6973 84.1455 68.6898 84.1347 68.6853C84.1153 68.6804 84.0954 68.6774 84.0754 68.6763C84.0595 68.6767 84.0438 68.6798 84.0288 68.6853C84.0203 68.6889 84.0117 68.6921 84.003 68.695C83.9974 68.6969 83.9918 68.6986 83.9862 68.7002L83.9751 68.7033C83.9714 68.7033 83.9661 68.7051 83.9588 68.7051C83.9496 68.7052 83.9405 68.7034 83.932 68.6996C83.9226 68.6965 83.9137 68.693 83.9053 68.6895C83.896 68.6856 83.8873 68.6815 83.8788 68.6775C83.8683 68.6727 83.8581 68.668 83.8477 68.6638C83.8353 68.6597 83.8235 68.6579 83.8116 68.6561C83.8028 68.6548 83.794 68.6535 83.7849 68.6512C83.7824 68.6507 83.7793 68.6504 83.7761 68.65L83.7759 68.65C83.7676 68.649 83.7583 68.6479 83.7544 68.644C83.7523 68.6411 83.7499 68.6384 83.7471 68.6361C83.7443 68.6337 83.7412 68.6317 83.7379 68.6302C83.7313 68.627 83.724 68.6256 83.7168 68.6261H83.7078C83.705 68.6276 83.7019 68.6282 83.6988 68.6279C83.6964 68.6279 83.694 68.6278 83.6916 68.6276C83.6892 68.6273 83.6869 68.627 83.6846 68.6266C83.6823 68.6262 83.6799 68.6256 83.6776 68.625C83.6751 68.6243 83.6726 68.6235 83.6701 68.6225C83.6644 68.6203 83.6583 68.6191 83.6521 68.6189C83.6449 68.6194 83.6379 68.6219 83.6319 68.626L83.6284 68.6287L83.6261 68.6307C83.624 68.6329 83.622 68.6353 83.6204 68.6379C83.6195 68.6393 83.6187 68.6408 83.618 68.6423L83.6165 68.6443C83.5961 68.6715 83.5872 68.6835 83.5713 68.6835C83.5619 68.6823 83.5526 68.68 83.5437 68.6768C83.5365 68.6743 83.5296 68.6711 83.5229 68.6673L83.5198 68.6657C83.5174 68.6647 83.5148 68.6641 83.5122 68.6638C83.4848 68.65 83.4549 68.6421 83.4243 68.6405C83.4158 68.6406 83.4074 68.6418 83.3992 68.644C83.3891 68.6455 83.3789 68.6461 83.3687 68.6458C83.3459 68.646 83.3235 68.6398 83.3041 68.6279C83.2907 68.6189 83.2753 68.6133 83.2593 68.6118C83.2559 68.6123 83.2527 68.6131 83.2494 68.6141C83.2474 68.6148 83.2454 68.6155 83.2434 68.6164C83.2405 68.6177 83.2377 68.6191 83.235 68.6208C83.2276 68.6254 83.2212 68.6315 83.2161 68.6386C83.2155 68.64 83.2143 68.6406 83.2129 68.641L83.2112 68.6414C83.2101 68.6416 83.2089 68.6419 83.2078 68.6424C83.207 68.6428 83.2062 68.6433 83.2054 68.644C83.1943 68.6523 83.1814 68.6578 83.1678 68.6602H83.1588C83.1458 68.6611 83.1328 68.6588 83.1208 68.6535C83.1089 68.6481 83.0985 68.64 83.0906 68.6297C83.0852 68.6243 83.0781 68.6243 83.0708 68.6207C83.0608 68.6189 83.0499 68.6171 83.0387 68.6152L83.0062 68.61C83.0006 68.6109 82.9952 68.6127 82.9901 68.6153C82.982 68.6204 82.9728 68.6235 82.9632 68.6243C82.9508 68.6231 82.9393 68.6174 82.9309 68.6081C82.9249 68.6036 82.9183 68.5999 82.9112 68.5974C82.9042 68.5952 82.8969 68.594 82.8896 68.5938C82.8853 68.5948 82.8811 68.5962 82.8771 68.5982C82.8719 68.6007 82.8671 68.6041 82.8628 68.6081C82.8576 68.6135 82.8517 68.6181 82.8452 68.6218C82.8411 68.6242 82.8368 68.6263 82.8323 68.6279C82.8131 68.6341 82.7932 68.6377 82.7731 68.6386C82.7605 68.639 82.748 68.6362 82.7368 68.6306C82.7255 68.625 82.7158 68.6166 82.7085 68.6063C82.7032 68.6046 82.6995 68.6028 82.6995 68.5992C82.6926 68.5946 82.6845 68.5921 82.6762 68.592C82.6737 68.5922 82.6712 68.5926 82.6687 68.5933C82.6643 68.5945 82.6602 68.5965 82.6565 68.5992C82.6496 68.6041 82.6429 68.6095 82.6367 68.6153C82.6363 68.616 82.6358 68.6166 82.6354 68.6173C82.6335 68.62 82.6313 68.6225 82.629 68.6249C82.6254 68.6285 82.6212 68.6315 82.6167 68.634C82.611 68.637 82.6049 68.639 82.5987 68.6399C82.5958 68.6403 82.593 68.6405 82.5901 68.6404C82.5858 68.6409 82.5815 68.6403 82.5776 68.6386C82.5568 68.635 82.5364 68.6296 82.5166 68.6225C82.4933 68.6153 82.4681 68.6082 82.4448 68.5992C82.4304 68.5951 82.4167 68.5904 82.4032 68.5858L82.3846 68.5795L82.373 68.5759C82.3535 68.5672 82.333 68.5606 82.3121 68.5561C82.2954 68.5535 82.2786 68.5516 82.2618 68.5507C82.2594 68.5507 82.2571 68.5509 82.255 68.551L82.2482 68.5518L82.2434 68.5524L82.2402 68.5525C82.2153 68.5562 82.1899 68.5544 82.1658 68.5473C82.1417 68.5401 82.1193 68.5279 82.1004 68.5113C82.0973 68.5076 82.0935 68.5045 82.0892 68.5023C82.0848 68.5002 82.0801 68.4989 82.0752 68.4987C82.0712 68.4994 82.0674 68.5013 82.0645 68.5041C82.0561 68.5136 82.0511 68.5256 82.0502 68.5382C82.0489 68.55 82.0493 68.5625 82.0497 68.5759V68.576C82.0499 68.5829 82.0502 68.59 82.0502 68.5974C82.0437 68.5988 82.0371 68.5994 82.0304 68.5992C82.0111 68.599 81.9922 68.5927 81.9766 68.5813C81.9538 68.5599 81.927 68.5434 81.8976 68.5328C81.8507 68.5185 81.8027 68.5076 81.7541 68.5005C81.7489 68.499 81.7434 68.4984 81.738 68.4987C81.7295 68.4982 81.7209 68.4997 81.7131 68.5031C81.7053 68.5065 81.6984 68.5118 81.6931 68.5185C81.6835 68.5292 81.6715 68.5375 81.6581 68.5428C81.6448 68.5481 81.6303 68.5502 81.616 68.549H81.6053C81.5801 68.5472 81.5568 68.5453 81.5317 68.5418C81.5225 68.5388 81.5127 68.5376 81.503 68.5382C81.4915 68.5374 81.48 68.5396 81.4696 68.5446C81.4592 68.5497 81.4503 68.5573 81.4438 68.5669C81.4412 68.5702 81.4382 68.5732 81.4349 68.5759C81.4315 68.5786 81.4278 68.5809 81.4238 68.5828C81.4161 68.5866 81.4075 68.5885 81.3989 68.5884C81.3893 68.5884 81.3798 68.5883 81.3705 68.588C81.3503 68.5873 81.3307 68.5861 81.3111 68.5848H81.3003C81.2891 68.5844 81.2781 68.5864 81.2678 68.5907C81.2576 68.5951 81.2485 68.6016 81.2411 68.61C81.2214 68.6304 81.2004 68.6496 81.1783 68.6673C81.1632 68.6798 81.144 68.6863 81.1245 68.6853C81.0706 68.6871 81.0133 68.6925 80.9576 68.6978C80.936 68.6998 80.915 68.7066 80.8964 68.7178C80.8778 68.729 80.8619 68.7442 80.85 68.7624C80.8477 68.7668 80.8447 68.7706 80.8411 68.7738C80.8387 68.7759 80.8361 68.7778 80.8333 68.7793C80.8323 68.7799 80.8312 68.7804 80.8302 68.7808C80.829 68.7813 80.8279 68.7818 80.8267 68.7822C80.7616 68.8068 80.7 68.8399 80.6437 68.8808C80.5818 68.9189 80.5163 68.9508 80.4482 68.9759C80.4222 68.9825 80.3978 68.994 80.3763 69.01C80.3352 69.0459 80.2957 69.0818 80.258 69.1212C80.257 69.1219 80.2562 69.1227 80.2554 69.1236C80.2545 69.1245 80.2537 69.1256 80.2531 69.1267C80.2524 69.1281 80.2518 69.1294 80.2514 69.1309L80.2509 69.1338C80.2448 69.1508 80.2339 69.1658 80.2196 69.177C80.2053 69.1881 80.1881 69.1949 80.1701 69.1966C80.1445 69.2011 80.1212 69.2139 80.1037 69.233C80.0862 69.2522 80.0755 69.2765 80.0733 69.3024C80.0712 69.3156 80.0656 69.328 80.0571 69.3383C80.0458 69.3477 80.0335 69.3561 80.0207 69.3649C80.0091 69.3728 79.9972 69.3809 79.9853 69.3903C79.9711 69.3997 79.9584 69.4112 79.9477 69.4244C79.878 69.5118 79.8217 69.6092 79.7808 69.7132C79.7675 69.7444 79.7656 69.7794 79.7755 69.8119C79.7938 69.8681 79.8035 69.9268 79.8041 69.9859C79.8041 69.9954 79.8043 70.0048 79.8045 70.0141L79.8054 70.047C79.8057 70.0586 79.8059 70.0704 79.8059 70.0827C79.8096 70.1177 79.8021 70.1529 79.7844 70.1832C79.7712 70.2048 79.7629 70.2289 79.7601 70.2541C79.7573 70.2792 79.7601 70.3046 79.7682 70.3286C79.773 70.3406 79.7741 70.3538 79.7716 70.3665C79.769 70.3792 79.7629 70.391 79.7539 70.4003C79.7287 70.4312 79.7108 70.4675 79.7014 70.5063C79.6921 70.5451 79.6917 70.5855 79.7001 70.6245C79.7048 70.6506 79.7078 70.677 79.7091 70.7035C79.7091 70.736 79.7087 70.7678 79.708 70.7993C79.7075 70.8289 79.7067 70.8582 79.7059 70.8878L79.7055 70.9026C79.7056 70.9311 79.6995 70.9593 79.6875 70.9851C79.6796 71.0023 79.6754 71.021 79.6754 71.0399C79.6754 71.0588 79.6796 71.0774 79.6875 71.0946C79.69 71.0994 79.692 71.1043 79.6937 71.1094C79.6966 71.118 79.6984 71.127 79.699 71.1362C79.6999 71.1507 79.6978 71.1652 79.6929 71.1789C79.682 71.2177 79.6736 71.2573 79.6678 71.2972C79.6583 71.3373 79.6576 71.379 79.666 71.4193C79.6765 71.4676 79.679 71.5173 79.6732 71.5664C79.6689 71.5945 79.6702 71.6231 79.6768 71.6507C79.6867 71.6859 79.6867 71.7231 79.6768 71.7583C79.6745 71.7673 79.6726 71.7762 79.6709 71.7848L79.6663 71.8091C79.6654 71.814 79.6646 71.8189 79.6637 71.8237C79.6629 71.8278 79.6621 71.832 79.6612 71.836L79.6606 71.839C79.6403 71.9058 79.6341 71.9761 79.6426 72.0454C79.649 72.0919 79.6719 72.1346 79.7072 72.1655C79.7182 72.1735 79.7264 72.1849 79.7306 72.1978C79.7414 72.2768 79.7521 72.3575 79.7611 72.44C79.7632 72.4514 79.7629 72.4635 79.7626 72.4747C79.7623 72.4829 79.7621 72.4906 79.7629 72.4974C79.779 72.5857 79.8172 72.6684 79.8741 72.7378C79.8911 72.7544 79.9046 72.7742 79.9138 72.7961C79.923 72.818 79.9278 72.8414 79.9279 72.8652C79.926 72.8835 79.9308 72.902 79.9413 72.9171C79.9519 72.9322 79.9675 72.9431 79.9853 72.9477C79.9941 72.9518 80.0025 72.9566 80.0104 72.962C80.0202 72.9681 80.0279 72.977 80.0324 72.9876C80.0369 72.9982 80.038 73.01 80.0356 73.0212C80.0287 73.0741 80.0428 73.1276 80.075 73.1701C80.0904 73.1848 80.1016 73.2034 80.1073 73.224C80.1219 73.282 80.125 73.3423 80.1163 73.4016C80.116 73.4036 80.1157 73.4057 80.1153 73.4078C80.1149 73.41 80.1144 73.4123 80.1138 73.4145C80.1122 73.4206 80.11 73.4264 80.1073 73.432C80.0912 73.4617 80.0812 73.4943 80.0778 73.5278C80.0745 73.5614 80.0778 73.5953 80.0876 73.6276C80.1003 73.6856 80.1139 73.7423 80.1275 73.799L80.1276 73.7995C80.1409 73.8548 80.1541 73.9101 80.1665 73.9666L80.1804 74.0329C80.2015 74.1334 80.2229 74.2351 80.2347 74.338C80.2598 74.5514 80.2795 74.7668 80.2975 74.9802C80.304 75.0506 80.3052 75.1214 80.301 75.1919H80.3001C80.2323 75.1919 80.1608 75.1919 80.0911 75.1937L76.9339 75.2852C75.8844 75.3534 74.8343 75.4371 73.7836 75.5363C73.7803 75.4293 73.7924 75.3224 73.8196 75.2188C73.8339 75.1525 73.8501 75.086 73.8662 75.0215C73.867 75.0177 73.868 75.014 73.8693 75.0104L73.8718 75.0039C73.8745 74.9976 73.8779 74.9917 73.882 74.9861C73.8875 74.9787 73.894 74.9722 73.9014 74.9667C73.9045 74.9645 73.9077 74.9624 73.9111 74.9605C73.9289 74.9495 73.9442 74.9348 73.9559 74.9174C73.9816 74.8878 74.0006 74.8529 74.0115 74.8152C74.0324 74.7482 74.07 74.6877 74.1209 74.6394C74.1309 74.6319 74.139 74.6221 74.1442 74.6107C74.1833 74.5644 74.2324 74.5276 74.2878 74.503C74.2961 74.4985 74.3052 74.4954 74.3147 74.4941C74.3226 74.4934 74.3304 74.4918 74.3379 74.4894C74.3458 74.4869 74.3535 74.4835 74.3606 74.4792C74.3746 74.4708 74.3865 74.4593 74.3954 74.4456C74.4005 74.4403 74.4057 74.4352 74.4112 74.4303C74.4171 74.425 74.4232 74.4199 74.4295 74.4151C74.442 74.4295 74.451 74.4385 74.4636 74.451C74.5007 74.4334 74.5301 74.4028 74.546 74.3649C74.5527 74.3483 74.5647 74.3344 74.5802 74.3254C74.593 74.3182 74.6042 74.3084 74.6132 74.2967C74.6221 74.285 74.6286 74.2716 74.6322 74.2573C74.6331 74.2436 74.6388 74.2307 74.6483 74.2208L74.6524 74.217C74.6613 74.2093 74.6724 74.2046 74.6842 74.2034C74.7165 74.1962 74.7219 74.1873 74.7202 74.1479C74.7198 74.1396 74.7214 74.1314 74.7248 74.1239C74.7254 74.1225 74.7262 74.1211 74.7269 74.1198C74.7273 74.1191 74.7277 74.1184 74.7281 74.1177C74.7313 74.1128 74.7352 74.1084 74.7399 74.1048C74.7584 74.0912 74.7719 74.0718 74.7781 74.0497C74.7843 74.0276 74.7828 74.004 74.7739 73.9828C74.772 73.9791 74.7708 73.9752 74.7702 73.9713C74.7696 73.9671 74.7697 73.9629 74.7705 73.9588C74.771 73.9562 74.7718 73.9537 74.7729 73.9514C74.7751 73.9462 74.7785 73.9416 74.7829 73.938C74.8027 73.9163 74.8213 73.8936 74.8385 73.8698C74.8429 73.863 74.8462 73.8556 74.8483 73.8479C74.85 73.8416 74.851 73.8351 74.8511 73.8285C74.8504 73.8134 74.8555 73.7986 74.8654 73.7872C74.8888 73.7729 74.8834 73.7567 74.8744 73.737C74.8701 73.7263 74.8647 73.7161 74.8582 73.7065C74.8385 73.6742 74.8385 73.6742 74.8654 73.6419C74.8793 73.6297 74.8902 73.6144 74.8974 73.5973C74.9045 73.5803 74.9077 73.5618 74.9067 73.5433C74.9054 73.535 74.9061 73.5266 74.909 73.5188C74.9118 73.5109 74.9165 73.5039 74.9228 73.4985C74.9288 73.49 74.9368 73.4832 74.9461 73.4787C74.9511 73.4765 74.9556 73.4737 74.9596 73.4702C74.9652 73.4652 74.9697 73.4589 74.9726 73.4519C74.9777 73.4398 74.9778 73.4263 74.9731 73.4141C74.9724 73.4069 74.9714 73.3998 74.97 73.3927C74.9685 73.3848 74.9665 73.377 74.9641 73.3692C74.9613 73.3605 74.9607 73.3512 74.9622 73.3421C74.9638 73.3331 74.9675 73.3245 74.9731 73.3172C74.984 73.3063 74.9908 73.2918 74.9921 73.2764C74.9934 73.2609 74.9892 73.2455 74.9802 73.2329C74.9641 73.1916 74.9731 73.1791 75.0054 73.1611C75.0358 73.1396 75.0358 73.1325 75.0161 73.0966C74.9981 73.0678 74.9982 73.0625 75.0179 73.0302C75.0222 73.025 75.0271 73.0202 75.0323 73.0159C75.0342 73.0144 75.0359 73.0128 75.0374 73.0111C75.0382 73.0102 75.039 73.0093 75.0397 73.0084L75.0416 73.0057C75.0443 73.0015 75.0462 72.9968 75.0472 72.9918C75.0492 72.9823 75.0477 72.9724 75.043 72.9638C75.0377 72.9558 75.0383 72.9478 75.039 72.9391C75.0392 72.9361 75.0394 72.933 75.0394 72.9297C75.0398 72.9265 75.0402 72.9232 75.0404 72.9199C75.0408 72.9138 75.0409 72.9076 75.0406 72.9015L75.04 72.8915L75.0394 72.8867C75.0355 72.8766 75.0343 72.8657 75.0359 72.855C75.0375 72.8443 75.0418 72.8342 75.0484 72.8257C75.0517 72.8152 75.0535 72.8044 75.0538 72.7934C75.0553 72.7759 75.0565 72.7583 75.0572 72.7408C75.0582 72.7147 75.0583 72.6886 75.0574 72.6624C75.0569 72.6341 75.0539 72.6059 75.0484 72.5781C75.044 72.5577 75.0459 72.5365 75.0538 72.5172C75.0601 72.5078 75.0641 72.4971 75.0657 72.4859C75.0663 72.4818 75.0665 72.4776 75.0664 72.4735C75.0662 72.4664 75.065 72.4593 75.0628 72.4525C75.0603 72.419 75.0595 72.3855 75.0588 72.3525L75.0587 72.3514C75.0583 72.3353 75.058 72.3194 75.0574 72.3036C75.0554 72.2925 75.0572 72.281 75.0624 72.271C75.0675 72.261 75.0759 72.2529 75.0861 72.248C75.1166 72.2229 75.1166 72.2122 75.0968 72.1763C75.0854 72.1517 75.0817 72.1242 75.0861 72.0974L75.088 72.0636C75.0894 72.0433 75.091 72.0232 75.0933 72.0023C75.0925 71.9833 75.0955 71.9644 75.1023 71.9466C75.1154 71.9295 75.1236 71.9091 75.1262 71.8876C75.1287 71.8662 75.1254 71.8444 75.1166 71.8247C75.0987 71.7753 75.0913 71.7228 75.095 71.6704C75.0949 71.6534 75.0982 71.6366 75.1046 71.6208C75.1073 71.6142 75.1106 71.6079 75.1144 71.6019C75.1196 71.5936 75.1257 71.5858 75.1327 71.5789C75.1368 71.575 75.1399 71.5703 75.1418 71.565L75.1428 71.5615C75.1438 71.5572 75.144 71.5528 75.1435 71.5484C75.1443 71.528 75.1402 71.5077 75.1314 71.4893C75.1227 71.4709 75.1096 71.4548 75.0933 71.4426C75.0822 71.4366 75.0738 71.4265 75.0698 71.4145C75.0684 71.4103 75.0676 71.406 75.0673 71.4016C75.0671 71.398 75.0673 71.3943 75.0679 71.3908C75.0686 71.3864 75.0699 71.3821 75.0717 71.378C75.09 71.3318 75.0894 71.2802 75.07 71.2345C75.0671 71.227 75.0652 71.2191 75.0645 71.2111C75.07 71.1932 75.0681 71.1681 75.0771 71.1573C75.1023 71.134 75.0968 71.1125 75.0861 71.0838C75.081 71.0731 75.078 71.0615 75.0771 71.0497L75.0715 71.0192C75.0674 70.9972 75.0635 70.9759 75.06 70.9543L75.0574 70.9367C75.0515 70.9075 75.0392 70.8799 75.0215 70.8559C75.0136 70.8487 75.008 70.8394 75.0054 70.829C75.0116 70.8103 75.0057 70.7959 75.0003 70.7828C74.999 70.7799 74.9978 70.777 74.9968 70.7741C74.9959 70.7715 74.9951 70.7689 74.9945 70.7663C74.993 70.7618 74.9916 70.7573 74.9904 70.7527C74.9884 70.7454 74.9868 70.7379 74.9857 70.7304C75.0732 70.7365 75.1607 70.7185 75.2386 70.6783C75.4044 70.598 75.5603 70.4987 75.7032 70.3824C75.7291 70.3602 75.7515 70.3342 75.7695 70.3052C75.7849 70.2843 75.7916 70.2583 75.7883 70.2326C75.785 70.2068 75.7719 70.1834 75.7517 70.167C75.7438 70.1588 75.7352 70.1512 75.7261 70.1443C75.7188 70.1388 75.7112 70.1339 75.7032 70.1294C75.6756 70.1154 75.6468 70.104 75.6171 70.0953C75.4905 70.0599 75.3582 70.0501 75.2278 70.0666C75.1603 70.0728 75.0964 70.0998 75.0448 70.1437C75.0029 70.1768 74.9555 70.2023 74.9049 70.2191C74.8805 70.2265 74.855 70.2295 74.8295 70.2281C74.7866 70.2213 74.7441 70.2123 74.7022 70.2012C74.6885 70.1425 74.6636 70.087 74.6286 70.0379C74.6246 70.03 74.6184 70.0235 74.6108 70.0191C74.6031 70.0146 74.5944 70.0124 74.5856 70.0128C74.5693 70.0118 74.5529 70.0136 74.5372 70.0182C74.5256 70.0226 74.5128 70.0229 74.501 70.0189L74.497 70.0174L74.4947 70.0164C74.4857 70.012 74.478 70.0052 74.4726 69.9967C74.4674 69.9908 74.4624 69.9846 74.4578 69.9782C74.4563 69.9762 74.4549 69.9741 74.4535 69.972C74.4514 69.9689 74.4494 69.9658 74.4474 69.9626C74.4206 69.9195 74.4206 69.9195 74.3703 69.9285C74.3629 69.9294 74.3557 69.9312 74.3487 69.9339C74.304 69.9464 74.2663 69.9464 74.2394 69.8962C74.2375 69.8934 74.2354 69.891 74.2329 69.8888C74.2283 69.8847 74.2227 69.8818 74.2166 69.8802C74.2074 69.8779 74.1976 69.8791 74.1891 69.8836C74.1588 69.895 74.1258 69.8975 74.0941 69.8908C74.0744 69.8872 74.051 69.8836 74.0295 69.8801C73.997 69.8745 73.9636 69.8816 73.9362 69.8998C73.9247 69.9101 73.9102 69.9167 73.8948 69.9187C73.8795 69.9206 73.8639 69.9178 73.8501 69.9106C73.834 69.9019 73.8172 69.8947 73.7999 69.889C73.7622 69.8783 73.7532 69.8818 73.7389 69.9177C73.7245 69.9428 73.7173 69.9464 73.6904 69.9428C73.6845 69.9415 73.6786 69.94 73.6727 69.9384L73.6727 69.9384C73.6626 69.9358 73.6528 69.9332 73.6437 69.9321C73.6383 69.9315 73.6328 69.932 73.6276 69.9335C73.6224 69.9351 73.6175 69.9376 73.6133 69.9411C73.601 69.9545 73.5846 69.9633 73.5666 69.9661C73.5528 69.9713 73.5395 69.9779 73.5271 69.9859C73.5158 69.9924 73.5045 69.9992 73.4932 70.0059L73.4931 70.006C73.4849 70.0109 73.4767 70.0158 73.4685 70.0206C73.454 70.0291 73.4394 70.0374 73.4249 70.0451C73.4052 70.0585 73.3841 70.07 73.3621 70.0792C73.3577 70.081 73.3532 70.0825 73.3488 70.0841C73.3268 70.0919 73.3072 70.0989 73.3011 70.1258C73.3011 70.1279 73.3001 70.1302 73.2984 70.1326C73.2956 70.1364 73.2912 70.1404 73.2868 70.1437C73.2785 70.1508 73.2702 70.1573 73.262 70.1638L73.2617 70.164L73.2616 70.1641C73.247 70.1756 73.233 70.1868 73.2204 70.1993C73.2113 70.2093 73.1992 70.216 73.186 70.2186C73.1728 70.2212 73.159 70.2195 73.1468 70.2137C73.093 70.1904 73.041 70.1688 72.9872 70.1473C72.9636 70.136 72.939 70.127 72.9136 70.1204C72.8402 70.11 72.7654 70.113 72.693 70.1294C72.5953 70.147 72.5021 70.1835 72.4185 70.237C72.3819 70.2577 72.3506 70.2866 72.327 70.3214C72.3133 70.3392 72.3064 70.3613 72.3078 70.3837C72.3091 70.4061 72.3185 70.4273 72.3342 70.4434C72.3535 70.4665 72.3751 70.4875 72.3988 70.5061C72.4194 70.5207 72.4395 70.5337 72.4593 70.5463L72.4595 70.5465C72.481 70.5603 72.502 70.5737 72.5225 70.5886C72.5297 70.594 72.5387 70.5994 72.5477 70.6066C72.5315 70.6335 72.5154 70.6604 72.5011 70.6855C72.4987 70.6846 72.4963 70.684 72.4938 70.6838C72.4311 70.6478 72.4257 70.6496 72.3916 70.7142C72.3903 70.7169 72.3888 70.7194 72.387 70.7217C72.3844 70.7252 72.3813 70.7283 72.3777 70.7309C72.3718 70.7352 72.3649 70.738 72.3577 70.7391C72.353 70.7398 72.3483 70.7397 72.3436 70.7389C72.3428 70.7388 72.3419 70.7386 72.3411 70.7384C72.3394 70.738 72.3378 70.7375 72.3361 70.737C72.3292 70.7345 72.3231 70.7304 72.3181 70.725C72.3162 70.7196 72.3091 70.7178 72.3055 70.7124C72.2912 70.7393 72.2786 70.7626 72.2499 70.7699C72.2398 70.7719 72.2305 70.7766 72.2229 70.7836C72.2153 70.7905 72.2097 70.7994 72.2069 70.8093C72.2048 70.8149 72.2014 70.8199 72.1969 70.824C72.1925 70.828 72.1872 70.8309 72.1814 70.8325C72.1788 70.8332 72.1763 70.8336 72.1737 70.8338C72.1703 70.834 72.1669 70.8337 72.1636 70.833C72.1578 70.8318 72.1523 70.8292 72.1476 70.8254C72.1414 70.8196 72.1348 70.8142 72.1279 70.8093C72.1027 70.7806 72.101 70.7806 72.0705 70.8093C72.0552 70.8246 72.039 70.839 72.022 70.8524L72.0191 70.8538C72.0085 70.8592 71.9943 70.8664 71.9862 70.8631C71.9681 70.8547 71.9476 70.8531 71.9284 70.8587C71.9092 70.8644 71.8928 70.8768 71.8821 70.8936C71.8802 70.8967 71.8775 70.8992 71.8743 70.9008C71.8711 70.9024 71.8675 70.9031 71.8639 70.9027C71.8603 70.9023 71.8569 70.9009 71.8541 70.8987C71.8513 70.8964 71.8492 70.8934 71.848 70.89C71.8397 70.8733 71.8258 70.8674 71.8117 70.8614C71.8077 70.8596 71.8036 70.8579 71.7997 70.8559C71.7888 70.8503 71.7763 70.8485 71.7643 70.8508C71.7522 70.8531 71.7413 70.8593 71.7332 70.8685C71.7165 70.8833 71.6985 70.8965 71.6794 70.908C71.6753 70.9119 71.6698 70.914 71.6641 70.914C71.6585 70.914 71.653 70.9119 71.6489 70.908C71.6274 70.8864 71.6041 70.8936 71.5808 70.9026C71.5747 70.9044 71.5688 70.9064 71.5629 70.9088L71.5537 70.9128C71.5476 70.9157 71.5417 70.9188 71.5359 70.9223C71.5318 70.9249 71.5274 70.9267 71.5227 70.9276C71.5187 70.9284 71.5145 70.9285 71.5103 70.9278C71.5014 70.9265 71.4933 70.922 71.4875 70.9152C71.4827 70.9095 71.4766 70.905 71.4697 70.9022C71.4628 70.8994 71.4554 70.8983 71.448 70.899C71.4387 70.8999 71.4304 70.9013 71.4221 70.9027C71.4189 70.9032 71.4158 70.9038 71.4125 70.9043C71.4078 70.905 71.403 70.9057 71.3978 70.9062L71.3914 70.9074C71.3866 70.9084 71.3814 70.9095 71.3765 70.9097C71.371 70.91 71.3658 70.9093 71.3619 70.9062C71.3602 70.9052 71.3585 70.9044 71.3568 70.9035C71.3542 70.9023 71.3515 70.9012 71.3488 70.9003C71.341 70.8975 71.3328 70.8961 71.3245 70.8959C71.3113 70.8955 71.2983 70.8985 71.2866 70.9044C71.2355 70.9131 71.1835 70.9137 71.1323 70.9062C71.1214 70.9048 71.1113 70.8997 71.1036 70.8918C71.1001 70.8887 71.0962 70.886 71.0921 70.8838C71.089 70.8822 71.0858 70.8808 71.0824 70.8797C71.0789 70.8786 71.0754 70.8777 71.0717 70.8773C71.0599 70.8757 71.0479 70.8776 71.0371 70.8829C71.0296 70.8839 71.022 70.8863 71.014 70.8889L71.0049 70.8917L70.9977 70.8936C70.9888 70.8971 70.979 70.898 70.9696 70.8965C70.9601 70.8949 70.9512 70.8908 70.9439 70.8847C70.9285 70.8708 70.9101 70.8608 70.8902 70.8555C70.8702 70.8502 70.8493 70.8497 70.8291 70.8542C70.8133 70.8586 70.7966 70.8586 70.7807 70.8542C70.7649 70.8497 70.7506 70.841 70.7394 70.829C70.7341 70.8226 70.727 70.8179 70.719 70.8157C70.7109 70.8134 70.7024 70.8137 70.6945 70.8164C70.6896 70.8189 70.6844 70.8206 70.6791 70.8214C70.6748 70.8221 70.6703 70.8223 70.666 70.8218C70.6561 70.8209 70.6467 70.8172 70.6389 70.8111C70.6327 70.8048 70.625 70.8004 70.6164 70.7982C70.6079 70.796 70.599 70.7961 70.5905 70.7985C70.5783 70.8008 70.5657 70.7988 70.5546 70.7931C70.5393 70.7845 70.5222 70.7798 70.5046 70.7795C70.4871 70.7792 70.4698 70.7833 70.4542 70.7914C70.4417 70.7972 70.4277 70.7993 70.414 70.7974C70.4003 70.7955 70.3875 70.7896 70.377 70.7806C70.3675 70.7763 70.359 70.7702 70.3519 70.7626C70.3432 70.7544 70.3323 70.7489 70.3205 70.7467C70.3088 70.7444 70.2966 70.7456 70.2855 70.7501C70.2838 70.7507 70.2819 70.7511 70.28 70.7514L70.2766 70.7519C70.2734 70.7523 70.2703 70.7528 70.2676 70.7537C70.259 70.7571 70.2494 70.7572 70.2408 70.7539C70.2374 70.7525 70.2342 70.7508 70.2314 70.7486C70.2271 70.7452 70.2235 70.7408 70.221 70.7358C70.2084 70.7106 70.2012 70.7088 70.1778 70.7178C70.1726 70.7195 70.1674 70.7214 70.1623 70.7233L70.1552 70.7262L70.1457 70.7304L70.1326 70.7323C70.1087 70.7359 70.0865 70.7394 70.0667 70.7196C70.0524 70.7071 70.035 70.6988 70.0163 70.6957C69.9976 70.6925 69.9784 70.6946 69.9608 70.7016C69.9451 70.7057 69.9286 70.7058 69.9129 70.7017C69.8972 70.6976 69.8829 70.6896 69.8712 70.6783C69.8514 70.6514 69.8496 70.6496 69.8191 70.6694C69.8091 70.6758 69.7986 70.6817 69.7879 70.6874C69.7776 70.6928 69.7671 70.6981 69.7565 70.7033L69.7563 70.7034C69.7479 70.7076 69.7386 70.7096 69.7292 70.7093C69.7254 70.7092 69.7217 70.7087 69.7181 70.7078C69.7126 70.7065 69.7074 70.7045 69.7025 70.7017C69.6968 70.6963 69.6894 70.6931 69.6816 70.6924C69.6792 70.6922 69.6769 70.6923 69.6746 70.6925C69.6722 70.6928 69.6699 70.6933 69.6676 70.6941C69.6647 70.6951 69.6619 70.6964 69.6594 70.6981C69.6552 70.6995 69.6507 70.7011 69.6461 70.7029C69.6389 70.7056 69.6312 70.7085 69.6236 70.7106C69.5711 70.7358 69.5118 70.7428 69.4549 70.7304C69.4447 70.7256 69.4334 70.7239 69.4222 70.7255C69.411 70.727 69.4006 70.7319 69.3921 70.7393C69.378 70.7474 69.3616 70.7506 69.3455 70.7483C69.3245 70.7471 69.3035 70.7477 69.2827 70.7501C69.2589 70.7549 69.235 70.7606 69.2114 70.7664L69.2111 70.7664L69.2111 70.7664C69.1904 70.7715 69.17 70.7764 69.1499 70.7806C69.1421 70.7815 69.1345 70.7841 69.1277 70.7881C69.1237 70.7905 69.12 70.7933 69.1167 70.7966C69.1156 70.7977 69.1145 70.7989 69.1135 70.8C69.1125 70.8013 69.1114 70.8026 69.1105 70.8039C69.1075 70.8085 69.1035 70.8123 69.0989 70.8151C69.0942 70.8179 69.089 70.8196 69.0836 70.8201C69.0669 70.8239 69.0512 70.8259 69.0344 70.8281L69.0136 70.8308C69.012 70.8338 69.0105 70.8369 69.0091 70.84C69.0074 70.844 69.0059 70.8481 69.0046 70.8524C69.0021 70.8626 68.9964 70.8717 68.9884 70.8785C68.9803 70.8853 68.9703 70.8893 68.9598 70.89L68.9383 70.8954C68.9222 70.8991 68.9077 70.908 68.8971 70.9206C68.8864 70.9332 68.8801 70.9489 68.879 70.9654C68.8779 70.9734 68.8749 70.9811 68.8702 70.9877C68.8656 70.9944 68.8594 70.9998 68.8523 71.0037C68.8451 71.0075 68.8372 71.0096 68.829 71.0098C68.8209 71.01 68.8129 71.0083 68.8056 71.0048C68.8037 71.0077 68.8021 71.0107 68.8005 71.0137C68.7985 71.0177 68.7966 71.0219 68.7951 71.0262C68.7935 71.0303 68.7922 71.0346 68.7912 71.0389C68.7901 71.0518 68.7855 71.0641 68.7779 71.0746C68.7703 71.085 68.76 71.0931 68.7481 71.0981C68.7354 71.1056 68.7228 71.1133 68.7101 71.121L68.7097 71.1212L68.7092 71.1215L68.709 71.1216C68.6826 71.1376 68.6562 71.1537 68.6297 71.1681L68.629 71.1686C68.6095 71.1828 68.5922 71.1954 68.601 71.2255C68.601 71.232 68.5993 71.2383 68.5962 71.244C68.5931 71.2496 68.5885 71.2543 68.5831 71.2578C68.5704 71.2625 68.5593 71.2706 68.5508 71.2811C68.5016 71.3297 68.4625 71.3876 68.436 71.4515C68.4296 71.4711 68.4178 71.4886 68.4019 71.5018C68.3705 71.5219 68.347 71.5524 68.3355 71.5879C68.3257 71.6155 68.3118 71.6415 68.2942 71.665C68.2915 71.6692 68.2882 71.6734 68.2849 71.6776L68.2849 71.6776C68.2754 71.6898 68.2655 71.7024 68.2655 71.717C68.2594 71.7534 68.246 71.7882 68.2261 71.8193C68.222 71.8277 68.2179 71.8361 68.2138 71.8445C68.2076 71.8569 68.2014 71.8692 68.1953 71.8815L68.1951 71.8818C68.178 71.9158 68.161 71.9497 68.1453 71.9843C68.1376 72.0115 68.1212 72.0355 68.0987 72.0525C68.0872 72.0596 68.0785 72.0705 68.0743 72.0833C68.07 72.0961 68.0704 72.11 68.0753 72.1225C68.0814 72.1456 68.0862 72.1689 68.0897 72.1925C68.0772 72.2014 68.0682 72.2122 68.0575 72.2194C68.0378 72.2351 68.0244 72.2574 68.0198 72.2821C68.0107 72.317 68.0035 72.3523 67.9983 72.388C67.995 72.4298 67.9793 72.4698 67.9534 72.5028C67.9491 72.5088 67.9467 72.5158 67.9464 72.5232C67.9461 72.5305 67.9479 72.5377 67.9516 72.544C67.9582 72.5522 67.9617 72.5623 67.9617 72.5728C67.9617 72.5832 67.9582 72.5933 67.9516 72.6015C67.9444 72.6176 67.9354 72.6373 67.9265 72.6535C67.9222 72.6705 67.9198 72.688 67.9193 72.7055C67.9185 72.7356 67.9125 72.7654 67.9014 72.7934C67.8877 72.8116 67.8804 72.8338 67.8807 72.8565C67.8811 72.8793 67.889 72.9013 67.9032 72.919C67.9193 72.9369 67.9176 72.9549 67.8996 72.9782C67.881 72.9996 67.8658 73.0238 67.8547 73.05C67.8507 73.057 67.8491 73.0652 67.8501 73.0733C67.851 73.0813 67.8545 73.0889 67.8601 73.0948C67.866 73.1084 67.8691 73.123 67.8691 73.1378C67.8716 73.1676 67.864 73.1973 67.8476 73.2221C67.844 73.2276 67.8415 73.2337 67.8404 73.2401C67.8395 73.2451 67.8394 73.2502 67.8401 73.2552C67.8418 73.2668 67.8477 73.2774 67.8566 73.2849C67.8639 73.2892 67.8697 73.2957 67.8732 73.3034C67.8768 73.3111 67.8778 73.3197 67.8763 73.328C67.8745 73.3611 67.8722 73.3947 67.87 73.4283C67.8678 73.462 67.8655 73.4957 67.8637 73.529C67.8622 73.5421 67.8613 73.5558 67.8605 73.5697L67.8605 73.5698C67.8592 73.5899 67.8579 73.6103 67.8547 73.6294C67.8515 73.6385 67.8504 73.6482 67.8513 73.6578C67.8522 73.6674 67.8552 73.6767 67.8601 73.685C67.8727 73.6994 67.8673 73.7155 67.8547 73.7316L67.8431 73.7454C67.8375 73.7518 67.8315 73.7585 67.8243 73.7657C67.8218 73.768 67.8198 73.7706 67.8183 73.7737C67.8174 73.7756 67.8167 73.7776 67.8163 73.7797L67.8159 73.7833L67.8159 73.7857L67.816 73.7876L67.8164 73.7897L67.8173 73.7931C67.8184 73.7962 67.8202 73.7991 67.8224 73.8016C67.8452 73.8211 67.84 73.8405 67.8335 73.8653L67.8314 73.8734C67.8269 73.8912 67.8229 73.9094 67.819 73.9276L67.8189 73.9278L67.8189 73.928C67.8149 73.9464 67.8108 73.9648 67.8063 73.9828C67.8405 74 67.8405 74.0007 67.8372 74.0352L67.8368 74.0402C67.8332 74.0531 67.8332 74.0667 67.8368 74.0796C67.8485 74.1189 67.8629 74.1572 67.8799 74.1945C67.8979 74.2217 67.9078 74.2534 67.9086 74.286C67.9072 74.2903 67.9066 74.2949 67.907 74.2995C67.9072 74.3015 67.9076 74.3035 67.9081 74.3055C67.9088 74.3079 67.9098 74.3103 67.911 74.3125C67.9123 74.315 67.914 74.3173 67.9159 74.3194C67.9164 74.3199 67.917 74.3205 67.9175 74.321C67.9182 74.3217 67.919 74.3223 67.9197 74.3229C67.921 74.3239 67.9222 74.3247 67.9236 74.3255C67.9262 74.327 67.929 74.3282 67.9319 74.329C67.9336 74.3291 67.9353 74.3294 67.9369 74.3298C67.9395 74.3304 67.9419 74.3313 67.9442 74.3326C67.948 74.3346 67.9514 74.3374 67.9541 74.3407C67.9554 74.3424 67.9565 74.3441 67.9575 74.346C67.9585 74.348 67.9593 74.35 67.9598 74.3521C67.961 74.3563 67.9612 74.3606 67.9606 74.3649C67.96 74.389 67.9576 74.4129 67.9534 74.4366C67.9475 74.4568 67.9488 74.4783 67.957 74.4976C67.9666 74.5227 67.9744 74.5485 67.9803 74.5748C68.0005 74.6441 67.9961 74.7183 67.9677 74.7847C67.948 74.817 67.9606 74.8331 67.9946 74.8528C68.0198 74.8672 68.0216 74.869 68.0162 74.8959C68.0147 74.9085 68.0131 74.9208 68.0114 74.9329L68.0114 74.9332C68.0072 74.9644 68.0031 74.9947 68.0019 75.0269C67.9946 75.1094 67.9893 75.1901 67.9857 75.2726C67.9832 75.288 67.9839 75.3037 67.9876 75.3188C67.9913 75.3339 67.998 75.3481 68.0072 75.3605C68.0126 75.3687 68.0158 75.3781 68.0165 75.3879C68.0171 75.3976 68.0152 75.4074 68.0109 75.4162C68.0067 75.4332 68.0043 75.4506 68.0036 75.4682C68.002 75.5127 67.9941 75.5568 67.9803 75.5991L67.968 75.6392C67.9608 75.6624 67.9537 75.6858 67.948 75.7086C67.9444 75.7281 67.9444 75.7482 67.948 75.7677C67.9552 75.7825 67.9593 75.7985 67.9599 75.8149C67.9605 75.8313 67.9577 75.8476 67.9516 75.8628C67.9488 75.8715 67.9462 75.8802 67.9439 75.8891C67.9405 75.9023 67.9376 75.9157 67.9354 75.9292C67.9025 76.0315 67.9038 76.1417 67.939 76.2432C67.9415 76.2505 67.9437 76.2578 67.946 76.2651C67.9503 76.2793 67.9547 76.2935 67.9606 76.3077C66.7712 76.514 65.589 76.749 64.4175 77.0289C64.2403 77.069 64.0625 77.107 63.8846 77.145C63.5458 77.2175 63.2071 77.2898 62.873 77.3769L61.3481 77.7985C60.9933 77.9018 60.6359 77.9979 60.2782 78.094C59.6174 78.2715 58.9556 78.4493 58.3075 78.6739L55.3169 79.6965C55.207 79.7345 55.0985 79.7766 54.9901 79.8186L54.9899 79.8186L54.9887 79.8191C54.9188 79.8462 54.8489 79.8732 54.7787 79.8992C52.0205 78.1461 49.1054 76.6532 46.0709 75.4395C41.7696 73.7241 37.2851 72.5094 32.7061 71.8193C35.4206 70.6935 38.2304 69.8128 41.1018 69.1876C44.3738 68.4202 47.6916 67.8629 51.0348 67.5192C57.7065 66.7819 64.4444 66.7729 71.1394 67.2663C73.4231 67.4134 75.7032 67.6502 77.9743 67.9246C77.9887 67.9052 78.0036 67.8865 78.0182 67.868L78.0183 67.8679C78.0346 67.8473 78.0507 67.827 78.0658 67.8063L78.073 67.7883L78.1339 67.7273C78.2906 67.5238 78.4761 67.3443 78.6847 67.1945L78.6934 67.187C78.7115 67.1715 78.7299 67.1557 78.7481 67.1404C78.765 67.1261 78.7818 67.1122 78.7978 67.0994C78.994 66.9376 79.2128 66.8052 79.4472 66.7066L79.4486 66.7055C79.4488 66.7054 79.4491 66.7052 79.4494 66.7051C79.4498 66.705 79.4502 66.7048 79.4507 66.7048C79.7083 66.5184 79.9986 66.3821 80.3065 66.3029C80.3136 66.2994 80.3226 66.2976 80.328 66.294L80.4625 66.1379C77.4254 65.6679 74.3685 65.3002 71.2955 65.0849C64.475 64.6238 57.5791 64.7261 50.8087 65.8329C47.4207 66.3377 44.0791 67.1158 40.8166 68.1597C37.9282 69.1391 35.0473 70.2281 32.4281 71.7798C32.3545 71.7673 32.2828 71.7583 32.2075 71.7494C32.1021 71.669 31.9739 71.6244 31.8414 71.622C31.6693 71.6614 31.567 71.5879 31.576 71.4157C31.5957 71.0981 31.6351 70.7824 31.6764 70.4721C31.6785 70.458 31.6795 70.4421 31.6805 70.4255C31.6859 70.3408 31.6923 70.2387 31.8469 70.2748C31.8494 70.276 31.8636 70.2325 31.8584 70.213C31.9393 70.2567 32.0189 70.299 32.1033 70.3429C32.1643 70.246 32.2415 70.1276 32.3258 70.0003C32.3258 70.0359 32.3243 70.07 32.3226 70.1076V70.1076C32.3211 70.14 32.3195 70.1749 32.3187 70.2155C32.4514 69.9787 32.5913 69.8962 32.742 69.9644L32.7424 69.9631C32.7566 69.9133 32.7708 69.8635 32.7833 69.8137C32.7923 69.8298 32.803 69.8496 32.812 69.8675C32.8298 69.8625 32.8507 69.8594 32.8718 69.8562C32.9184 69.8492 32.9662 69.8421 32.9859 69.8137C33.0459 69.7279 33.0988 69.6364 33.1519 69.5445L33.1519 69.5445C33.202 69.4578 33.2523 69.3708 33.3088 69.2881C33.3605 69.2384 33.3962 69.1746 33.4115 69.1047C33.4269 69.0348 33.4211 68.9619 33.395 68.8952L33.4211 68.9265C33.4412 68.9508 33.4616 68.9754 33.4829 68.9992L33.5367 68.9939C33.541 68.8693 33.5451 68.7449 33.5491 68.6204C33.557 68.3795 33.5649 68.1385 33.5744 67.896L33.6251 67.9001L33.6254 67.9001C33.6656 67.9033 33.7157 67.9073 33.7699 67.9121C33.7233 67.7724 33.6778 67.6431 33.6269 67.4987L33.578 67.3596C33.7614 67.3304 33.9466 67.3136 34.1323 67.3093C34.2074 67.3153 34.2823 67.2964 34.3455 67.2556C34.4088 67.2147 34.4568 67.1542 34.4822 67.0833C34.5485 66.947 34.475 66.8268 34.362 66.7299C34.1429 66.535 33.9275 66.3391 33.7125 66.1436C33.6228 66.0621 33.5332 65.9806 33.4434 65.8993C33.3547 65.8957 33.2665 65.8926 33.1783 65.8895H33.1783H33.1782C33.0898 65.8863 33.0014 65.8832 32.9125 65.8796C32.6978 65.9547 32.4739 66 32.2469 66.0142C32.2143 66.0187 32.1824 66.0271 32.1518 66.0392C32.0212 66.1055 31.8901 66.1737 31.7535 66.2446L31.7522 66.2453C31.6527 66.297 31.5504 66.3501 31.4432 66.4052C31.4883 66.41 31.5224 66.4131 31.5672 66.4173L31.6477 66.4249C31.5672 66.4731 31.4811 66.5111 31.3912 66.538C31.2258 66.5422 31.0609 66.5584 30.8978 66.5864C30.6531 66.6589 30.4281 66.6052 30.2006 66.551C30.1297 66.5341 30.0586 66.5171 29.9865 66.5039L29.8944 66.487C29.0729 66.3359 28.2493 66.1845 27.4158 66.4232C27.1859 66.4772 26.9741 66.5901 26.8011 66.7508C26.6281 66.9116 26.4999 67.1146 26.4292 67.3399C26.3723 67.5879 26.3524 67.843 26.3699 68.0969C26.3671 68.3438 26.3821 68.5919 26.3964 68.8297C26.4003 68.8942 26.4042 68.958 26.4076 69.0208C26.4199 69.0304 26.4349 69.0389 26.4492 69.047C26.4747 69.0615 26.4979 69.0746 26.4991 69.0907C26.5024 69.1589 26.5015 69.2271 26.5007 69.2952V69.2953C26.4997 69.376 26.4987 69.4567 26.5045 69.5374C26.5145 69.6594 26.5322 69.7824 26.5499 69.9048L26.5499 69.9048L26.5637 70.0021C26.5942 70.1501 26.6151 70.2999 26.6265 70.4506C26.6367 70.6494 26.6362 70.8483 26.6357 71.0598L26.6355 71.2058C24.0332 71.0655 21.4246 71.0967 18.8264 71.2991C16.9225 71.4566 15.0278 71.7088 13.1492 72.0549C12.1604 68.2009 11.6346 64.1614 11.6346 59.9991C11.6346 58.886 11.6722 57.7818 11.7462 56.6875L24.7788 46.523L29.7012 42.7163L33.2855 39.9447L40.3895 34.527C41.9596 36.7501 43.7111 38.8394 45.626 40.7735C46.3741 41.5269 47.1473 42.2552 47.9277 42.9728C49.5835 44.4887 51.296 45.9334 53.0655 47.307C54.3661 48.308 55.6775 49.2965 57.0301 50.2239L57.3817 50.4656L57.3818 50.4656L57.3818 50.4657L57.3819 50.4657L57.3819 50.4657C58.611 51.3108 59.8487 52.1618 61.1867 52.9561C62.6819 53.8772 64.2729 54.6327 65.9317 55.2093C67.7116 55.8325 69.6026 56.0745 71.4821 55.9197L72.0346 55.8658L72.4238 55.5609L76.279 52.5542L76.7365 52.1955L78.8946 50.5127C79.6176 49.9333 80.1719 49.5548 80.5486 49.5028C80.945 49.4148 81.4384 49.5046 82.0716 49.8651C82.7633 50.2904 83.4117 50.7825 84.0074 51.3344C84.956 52.1658 85.9606 52.9312 87.0139 53.6252C87.5762 53.9985 88.1584 54.341 88.7577 54.6513C92.2153 56.4059 96.0462 57.2972 99.9232 57.249C102.677 57.2214 105.403 56.6844 107.962 55.6649C107.957 55.598 107.953 55.5307 107.949 55.4634L107.94 55.3073V55.3073C107.927 55.0706 107.913 54.8335 107.892 54.6011C105.327 55.3669 102.642 55.6491 99.9733 55.4335C96.4788 55.2086 93.086 54.1651 90.069 52.3874C88.5989 51.5028 87.2432 50.4406 86.0327 49.2247C85.3237 48.5015 84.5449 47.8501 83.7078 47.28C83.1979 46.9476 82.6434 46.6891 82.0609 46.5123C81.3909 46.3192 80.6865 46.2757 79.9978 46.3849C78.7192 46.597 77.8403 47.2333 77.1599 47.726C77.0576 47.8001 76.9597 47.8709 76.8657 47.9366L74.6555 49.5512L70.7142 52.4233C68.1919 52.4681 65.589 51.3685 63.1385 49.858C61.9002 49.1017 60.6667 48.2339 59.4275 47.362L59.4274 47.3619L59.4274 47.3619L59.4273 47.3619L59.4273 47.3618L59.2295 47.2227C57.9324 46.2952 56.648 45.3695 55.3868 44.4115C52.8748 42.5206 50.4864 40.4707 48.2363 38.2745C47.1832 37.2196 46.1696 36.1362 45.1848 35.0275C44.9522 34.7041 44.6962 34.3983 44.4188 34.1126C43.6438 33.1726 42.8921 32.2128 42.1853 31.2189L41.1161 29.7103L39.7151 30.8368C36.9147 33.0954 34.1496 35.3964 31.4198 37.7399C28.6877 40.072 25.9734 42.4346 23.3184 44.8529C20.6401 47.2495 18.0156 49.7037 15.4216 52.1829C14.2121 53.3419 13.0128 54.512 11.8237 55.6931ZM13.7715 74.2602C14.3794 76.2332 15.1102 78.1524 15.9549 80.0088C17.7697 78.6102 19.7359 77.4186 21.817 76.4567C23.1234 75.8657 24.4719 75.3728 25.8515 74.982C23.5355 74.741 21.2088 74.5604 18.8713 74.4403C17.1767 74.3435 15.4778 74.2917 13.7715 74.2602ZM16.3753 80.9081C17.448 83.142 18.6871 85.2808 20.0767 87.3084C22.8249 84.3374 26.1305 81.9301 29.8089 80.2258C32.1632 79.1441 34.6608 78.4064 37.2251 78.0354C39.16 77.7539 41.1232 77.7232 43.0661 77.9439C39.4262 77.0625 35.7648 76.3401 32.0818 75.7768C31.0096 75.6147 29.9345 75.4646 28.8563 75.3265C26.5898 75.8449 24.3824 76.5945 22.269 77.5636C20.2112 78.5064 18.2393 79.6255 16.3753 80.9081ZM20.3753 87.7391C22.7464 91.1199 25.539 94.1833 28.677 96.8531C29.5182 95.9853 30.3833 95.1385 31.262 94.3064C37.4445 88.6039 44.5939 84.049 52.3749 80.8554L52.9023 80.6402C50.2902 79.8436 47.6998 79.0884 45.0896 78.4354C44.936 78.3967 44.7824 78.3603 44.629 78.3239L44.6284 78.3237C44.5044 78.2943 44.3807 78.2649 44.2573 78.2345C39.425 78.2567 34.6534 79.3125 30.2627 81.3308C26.707 82.9412 23.4275 85.1541 20.3753 87.7391ZM30.1365 98.0468C38.3593 104.51 48.729 108.365 59.999 108.365C68.2197 108.365 75.9613 106.314 82.7402 102.696C80.8896 100.574 78.9944 98.52 76.9769 96.6152C74.5066 94.3028 71.8821 92.1716 69.0279 90.4135C66.1979 88.6196 63.1328 87.2268 59.9202 86.2749C58.0356 85.7316 56.1049 85.3635 54.1526 85.1753L54.1334 85.1815C54.1136 85.1879 54.0945 85.194 54.0755 85.2021C50.6306 86.4699 47.2604 87.9319 43.981 89.5812C45.3565 89.7308 46.7142 90.0132 48.0353 90.4243C51.7039 91.524 55.0155 93.5673 57.9307 95.9747C60.8125 98.4151 63.3587 101.226 65.5029 104.334C66.2635 105.422 66.9667 106.543 67.643 107.678C67.2328 107.738 66.8197 107.795 66.4035 107.849C65.7307 106.957 65.049 106.076 64.344 105.217C62.0227 102.388 59.5218 99.7187 56.7323 97.4153C53.966 95.0903 50.9056 93.1116 47.5527 91.8038C45.8902 91.1536 44.1639 90.6804 42.4023 90.392C38.1393 92.6537 34.0406 95.2117 30.1365 98.0468ZM83.0274 102.541C86.3885 100.718 89.5093 98.5076 92.3301 95.9704C91.2506 94.8111 90.1465 93.6863 88.9998 92.6058C86.5646 90.2785 83.903 88.2003 81.0545 86.4023C78.2241 84.6087 75.1583 83.2171 71.9449 82.2673C70.557 81.8663 69.143 81.5618 67.713 81.3559L65.5029 81.8385C62.334 82.5481 59.2056 83.4278 56.1314 84.4738C57.5113 84.5403 58.8834 84.7197 60.2341 85.0102C63.6694 85.7296 66.9363 87.154 69.9105 88.9963C72.8619 90.8641 75.5487 93.1202 77.8989 95.7038C79.8285 97.8096 81.5462 100.1 83.0274 102.541ZM92.9659 95.3882C95.2392 93.2694 97.3081 90.9342 99.1398 88.4154C95.6068 85.5557 91.8111 83.1034 87.6867 81.3237C86.1432 80.6544 84.5597 80.0816 82.9453 79.6086C81.0473 79.6661 79.153 79.7719 77.2657 79.9531C76.6517 80.0066 76.0383 80.0815 75.4253 80.1564L75.4248 80.1565L75.4237 80.1566L75.4227 80.1567C75.0497 80.2023 74.6768 80.2479 74.304 80.2886L72.8239 80.4644L71.3529 80.7155L71.0264 80.7693C71.4389 80.8369 71.8498 80.9147 72.2588 81.0025C75.6961 81.7237 78.9628 83.1481 81.9372 84.9851C84.8881 86.8541 87.5749 89.1107 89.9256 91.6944C91.0055 92.8695 92.0205 94.1026 92.9659 95.3882ZM99.4682 87.9583C100.78 86.1095 101.966 84.1645 103.012 82.136C102.455 81.8136 101.892 81.5035 101.317 81.216C100.809 80.9631 100.296 80.7263 99.7778 80.4967C96.2786 80.0085 92.7555 79.7103 89.2241 79.6033C88.4276 79.5836 87.6293 79.5764 86.8363 79.571C87.2956 79.7468 87.7531 79.928 88.207 80.1217C92.4349 81.9788 96.2595 84.641 99.4682 87.9583ZM33.2874 44.3147L40.3895 38.8952C41.9587 41.1196 43.7103 43.2096 45.626 45.1435C46.376 45.8987 47.1473 46.6253 47.9277 47.3428C47.542 48.7959 46.5769 50.0768 45.1183 50.4427C43.4857 50.8544 41.9118 50.0719 40.3557 49.2982L40.3557 49.2982C39.8771 49.0603 39.4002 48.8232 38.9239 48.6219C36.8986 47.7662 33.7376 48.1663 33.542 50.3172C32.2624 49.2408 30.9821 48.1645 29.7012 47.0881L33.2874 44.3147ZM27.2149 70.1338C27.1346 70.2054 27.0777 70.2996 27.0516 70.404L27.0512 70.4091C27.0316 70.6316 27.0122 70.8524 27.0122 71.0731C27.0118 71.1265 27.0253 71.1791 27.0516 71.2256C27.3255 71.2413 27.5995 71.2615 27.8733 71.2817L27.8739 71.2818L28.0849 71.2973C28.0774 71.2714 28.0707 71.2465 28.0641 71.2224L28.0641 71.2224L28.0641 71.2224C28.0503 71.1716 28.0374 71.1241 28.0203 71.0767C28.0056 71.0386 27.9884 71.0009 27.9711 70.963C27.9525 70.9224 27.9339 70.8816 27.9182 70.8399C27.8893 70.7592 27.861 70.6777 27.8327 70.5962L27.8326 70.5958L27.8325 70.5958C27.7728 70.4237 27.7129 70.2513 27.6473 70.0846C27.6313 70.0603 27.6098 70.0402 27.5845 70.0259C27.5592 70.0115 27.5309 70.0034 27.5019 70.0021C27.3952 70.0162 27.2952 70.0621 27.2149 70.1338ZM28.4862 70.1472C28.4412 70.1813 28.3968 70.215 28.354 70.2138C28.2518 70.2102 28.2428 70.2264 28.2661 70.316C28.2931 70.4109 28.3158 70.5078 28.3385 70.6046C28.3775 70.7714 28.4165 70.938 28.4778 71.0946C28.5229 71.1952 28.5942 71.2819 28.6842 71.3458C29.2581 71.3924 29.8268 71.4498 30.3973 71.5162C30.5821 71.5198 30.6126 71.4534 30.7077 71.1628C30.7606 71.0005 30.7925 70.8302 30.8256 70.6535L30.8256 70.6534C30.8419 70.5663 30.8585 70.4778 30.8781 70.3878C30.7743 70.4041 30.6875 70.4189 30.6034 70.4333L30.6023 70.4335C30.5297 70.4458 30.4591 70.4579 30.3812 70.4703L30.4095 70.3102C30.4337 70.1739 30.4545 70.0569 30.4781 69.9178C30.3491 69.9757 30.2184 70.0169 30.091 70.0572C29.8392 70.1367 29.6 70.2122 29.4107 70.404C29.4043 70.2824 29.3533 70.3199 29.303 70.3569C29.282 70.3723 29.2612 70.3877 29.2438 70.3914C29.2391 70.352 29.2359 70.3206 29.2327 70.2892L29.2327 70.2891L29.2327 70.2891L29.2277 70.2407C29.0967 70.3735 28.9837 70.3609 28.9012 70.2174C28.7308 70.343 28.6339 70.3125 28.5496 70.1026C28.5284 70.1152 28.5073 70.1312 28.4862 70.1472L28.4862 70.1472ZM31.0577 71.0548C31.0364 71.1397 31.015 71.2248 30.9929 71.3099C30.9301 71.5682 30.9373 71.5754 31.2351 71.5449C31.2673 71.1718 31.3015 70.7932 31.3356 70.4165C31.328 70.4142 31.3205 70.4123 31.3131 70.4106L31.2916 70.4057L31.2835 70.404C31.2408 70.468 31.2042 70.5359 31.1741 70.6067C31.1329 70.7554 31.0954 70.905 31.0577 71.0548ZM68.4593 75.7373C68.4362 75.7565 68.4193 75.7821 68.4108 75.8109C68.3911 75.8769 68.3785 75.9449 68.3732 76.0136C68.3699 76.0873 68.3729 76.1611 68.3821 76.2343L68.401 76.2323C68.4106 76.2311 68.4201 76.2299 68.4297 76.2284C68.45 76.2254 68.4705 76.2218 68.4914 76.2182L68.4916 76.2182L68.5024 76.2163C68.503 76.1614 68.5034 76.1067 68.5037 76.0521C68.5044 75.9533 68.5048 75.8546 68.506 75.7553C68.5066 75.7513 68.507 75.7473 68.5072 75.7434C68.5075 75.7365 68.5071 75.7297 68.506 75.723C68.5015 75.7217 68.4969 75.7211 68.4922 75.7213C68.4883 75.7214 68.4843 75.722 68.4805 75.7232C68.4722 75.7258 68.4649 75.7307 68.4593 75.7373ZM68.9509 75.9347C68.9269 75.9899 68.9123 76.0487 68.9078 76.1087C68.9063 76.1218 68.9057 76.135 68.906 76.1481C70.1151 75.9544 71.326 75.7965 72.5405 75.6638C72.5372 75.631 72.5287 75.5989 72.5154 75.5687C72.4942 75.518 72.4694 75.4679 72.4445 75.4177C72.4271 75.3827 72.4096 75.3476 72.3934 75.3122C72.3904 75.305 72.3873 75.2979 72.3842 75.2908C72.3803 75.2823 72.3764 75.2738 72.3725 75.2653C72.3604 75.2393 72.3486 75.2137 72.3395 75.1866C72.3354 75.1617 72.333 75.1365 72.3324 75.1112C72.3324 75.0897 72.3306 75.0844 72.3091 75.0844C72.2965 75.0861 72.2822 75.0897 72.2678 75.0915C72.2622 75.0861 72.2576 75.0797 72.2544 75.0725C72.2528 75.0688 72.2515 75.0649 72.2507 75.061C72.2499 75.0573 72.2495 75.0536 72.2494 75.0498C72.2492 75.0419 72.2506 75.0341 72.2534 75.0268C72.2563 75.0195 72.2605 75.0129 72.266 75.0072L72.2517 75.0039L72.2514 75.0038C72.2418 75.0015 72.2333 74.9994 72.2248 74.9982L72.2008 74.9931L72.1727 74.9874C72.1698 74.987 72.1671 74.9858 72.1648 74.984C72.1625 74.9823 72.1606 74.9799 72.1594 74.9773C72.1581 74.9746 72.1576 74.9717 72.1577 74.9688C72.1579 74.9659 72.1587 74.9631 72.1602 74.9606C72.1727 74.9211 72.1692 74.9013 72.1279 74.896C72.0946 74.8899 72.063 74.8769 72.0352 74.8577C72.0073 74.8385 71.9839 74.8137 71.9664 74.7847C71.9606 74.7736 71.9513 74.7647 71.94 74.7592C71.9287 74.7537 71.916 74.752 71.9037 74.7542C71.8766 74.7574 71.8501 74.7641 71.8247 74.774L71.8235 74.7747C71.8219 74.7756 71.8201 74.7764 71.8184 74.777C71.8168 74.7775 71.8152 74.7778 71.8136 74.7781C71.8097 74.7787 71.8056 74.7785 71.8018 74.7775C71.7979 74.7765 71.7943 74.7747 71.7911 74.7722C71.788 74.7698 71.7854 74.7667 71.7834 74.7632C71.7788 74.7565 71.7717 74.7518 71.7637 74.7501L71.7605 74.7496C71.7535 74.7489 71.7464 74.7505 71.7404 74.7542C71.7209 74.7651 71.6988 74.7702 71.6766 74.7689C71.6543 74.7676 71.6329 74.7601 71.6148 74.7471C71.5951 74.7363 71.5754 74.7291 71.5574 74.7507C71.5531 74.7532 71.5483 74.7546 71.5433 74.755C71.5383 74.7553 71.5333 74.7544 71.5288 74.7524C71.522 74.7492 71.5148 74.7469 71.5074 74.7457C71.5041 74.7452 71.5008 74.7449 71.4975 74.7448C71.4867 74.7445 71.4759 74.7465 71.4659 74.7507C71.4169 74.7707 71.3626 74.7739 71.3116 74.7597C71.2827 74.7536 71.2529 74.753 71.2237 74.7579C71.1333 74.7695 71.0422 74.7749 70.9511 74.774C70.9316 74.771 70.9117 74.7755 70.8954 74.7866C70.8865 74.7955 70.8685 74.7937 70.8524 74.7919C70.7878 74.7847 70.7232 74.774 70.6586 74.7632C70.6468 74.7614 70.6346 74.7605 70.6222 74.7596L70.6219 74.7596C70.6148 74.7591 70.6076 74.7586 70.6003 74.7579C70.5953 74.7574 70.5902 74.7568 70.5851 74.7561L70.5699 74.7541C70.5638 74.7532 70.5577 74.7522 70.5517 74.751L70.5432 74.7493L70.533 74.7471C70.5187 74.7435 70.5026 74.7399 70.49 74.7363C70.4693 74.7275 70.4468 74.7237 70.4244 74.7253C70.4019 74.7268 70.3802 74.7337 70.3609 74.7453C70.3578 74.7477 70.3545 74.7498 70.351 74.7517C70.342 74.7567 70.3322 74.76 70.3219 74.7613C70.3078 74.7632 70.2933 74.7614 70.2801 74.7561C70.2465 74.7469 70.2106 74.7508 70.1797 74.7668C70.1617 74.7776 70.1384 74.783 70.1205 74.7919C70.1089 74.7973 70.096 74.7989 70.0835 74.7967C70.071 74.7944 70.0595 74.7884 70.0505 74.7794C70.0382 74.7659 70.0251 74.7533 70.0111 74.7417C69.9826 74.7514 69.955 74.7634 69.9285 74.7776C69.9192 74.7836 69.9085 74.7869 69.8974 74.7872C69.8863 74.7875 69.8754 74.7848 69.8658 74.7794C69.8489 74.767 69.828 74.7612 69.8072 74.7632C69.7863 74.7652 69.7669 74.7748 69.7527 74.7902C69.7493 74.7922 69.746 74.794 69.7427 74.7958C69.7389 74.7979 69.7352 74.7998 69.7316 74.8017L69.7222 74.8066C69.7152 74.8104 69.7085 74.8143 69.7025 74.8188C69.6775 74.8381 69.646 74.8471 69.6146 74.844H69.5984C69.5764 74.837 69.5527 74.8383 69.5316 74.8475C69.5105 74.8568 69.4935 74.8733 69.4836 74.8942C69.4587 74.9326 69.4365 74.9728 69.4173 75.0144C69.4016 75.0521 69.3869 75.0901 69.3722 75.1281C69.3533 75.1771 69.3344 75.2261 69.3132 75.2745C69.2827 75.3445 69.2487 75.4126 69.2109 75.4808C69.1978 75.502 69.1835 75.5223 69.1679 75.5418C69.1279 75.5853 69.0952 75.635 69.0711 75.6889C69.0298 75.7714 68.9903 75.8521 68.9509 75.9347ZM73.2222 75.0198C73.1899 75.1305 73.146 75.2376 73.0912 75.3391C73.0481 75.4265 73.0196 75.5205 73.0069 75.6171C73.1289 75.6046 73.2491 75.592 73.3711 75.5777C73.3699 75.5542 73.3688 75.5304 73.3678 75.5067L73.3678 75.5064C73.3658 75.4613 73.3639 75.4159 73.3604 75.3713C73.3581 75.3464 73.3549 75.3218 73.3516 75.2971L73.3516 75.2967L73.3515 75.2963C73.3471 75.2626 73.3426 75.2288 73.3405 75.1937C73.337 75.1556 73.3381 75.1191 73.3393 75.082C73.3399 75.0633 73.3405 75.0444 73.3405 75.0251C73.3405 75.0018 73.3424 74.9767 73.3442 74.9552C73.3449 74.9465 73.3428 74.9379 73.3383 74.9305C73.3338 74.9231 73.3271 74.9173 73.3191 74.9139C73.3072 74.9096 73.2958 74.9042 73.285 74.8978C73.2773 74.8934 73.2683 74.8917 73.2595 74.893C73.2551 74.8937 73.2508 74.8951 73.2468 74.8972C73.243 74.8992 73.2395 74.9018 73.2365 74.905C73.2289 74.9105 73.2233 74.9185 73.2207 74.9276C73.2181 74.9367 73.2186 74.9464 73.2222 74.9552C73.2244 74.9603 73.2261 74.9656 73.2272 74.971C73.2283 74.9764 73.2289 74.9819 73.2289 74.9874C73.2289 74.9986 73.2266 75.0096 73.2222 75.0198ZM80.9917 73.4572C80.9193 73.5357 80.8611 73.6262 80.8195 73.7245C80.7791 73.8342 80.7597 73.9504 80.7621 74.0672C80.7677 74.2288 80.7869 74.3896 80.8195 74.5479L80.8327 74.6213C80.8629 74.7874 80.8934 74.9547 80.9074 75.122C80.9092 75.1453 80.9164 75.1651 80.92 75.1866C81.3756 75.1902 81.8331 75.2045 82.2888 75.2225C82.2824 75.2213 82.2765 75.2185 82.2715 75.2145C82.2664 75.2104 82.2625 75.2051 82.2601 75.1992C82.245 75.1808 82.2329 75.1602 82.2242 75.1382C82.2062 75.0933 82.1882 75.0449 82.1739 75C82.1468 74.8943 82.1039 74.7933 82.0466 74.7004C81.9847 74.5974 81.9301 74.4901 81.8833 74.3793C81.8555 74.3229 81.8289 74.2658 81.8023 74.2084L81.8022 74.2083C81.772 74.1433 81.7417 74.0781 81.7093 74.0134C81.6459 73.8863 81.5714 73.765 81.4868 73.651C81.3956 73.5211 81.3254 73.3776 81.2788 73.2258C81.2735 73.2031 81.2662 73.1809 81.2572 73.1594C81.2572 73.1587 81.2569 73.158 81.2564 73.1572C81.2555 73.1559 81.254 73.1544 81.2519 73.1522C81.2339 73.1522 81.2213 73.1684 81.2123 73.1792C81.2046 73.1897 81.1974 73.1999 81.1903 73.2098L81.1895 73.211C81.1739 73.233 81.1589 73.2541 81.1406 73.276C81.094 73.3353 81.0437 73.3962 80.9917 73.4572ZM82.2439 73.2886C82.2278 73.2886 82.2206 73.303 82.2169 73.3316C82.1981 73.468 82.2142 73.6069 82.2636 73.7353C82.2938 73.8067 82.3251 73.8782 82.3563 73.9493L82.3567 73.9501L82.3571 73.9511C82.3812 74.0062 82.4053 74.0611 82.4287 74.1156C82.5118 74.3077 82.6053 74.4951 82.7086 74.6771C82.713 74.6852 82.7175 74.6931 82.7221 74.701C82.7266 74.7086 82.7312 74.7161 82.7357 74.7237C82.7414 74.733 82.747 74.7423 82.7525 74.7518C82.7604 74.7653 82.768 74.7792 82.7749 74.7937C82.8156 74.8578 82.8709 74.9113 82.9363 74.9498C82.9686 74.9678 83.0028 74.9857 83.0404 75.0036C83.067 75.0146 83.0891 75.0342 83.1032 75.0592C83.1311 75.1062 83.1563 75.1547 83.1785 75.2045L83.1947 75.2476C83.2144 75.2476 83.2305 75.2494 83.2485 75.2494C83.417 75.2552 83.586 75.2593 83.7551 75.2634C84.11 75.272 84.4659 75.2807 84.8218 75.305L85.1501 75.3301C85.1496 75.3258 85.1491 75.3214 85.1488 75.3171C85.1487 75.3149 85.1486 75.3126 85.1485 75.3104C85.1482 75.3044 85.1482 75.2984 85.1483 75.2924C85.1434 75.2895 85.1377 75.2883 85.1321 75.2888C85.1128 75.2908 85.0943 75.2976 85.0783 75.3086C85.0737 75.3113 85.0687 75.3135 85.0636 75.3151C85.0596 75.3163 85.0555 75.3171 85.0514 75.3175C85.0407 75.3175 85.0334 75.305 85.0317 75.2817C85.0319 75.2708 85.0291 75.2601 85.0237 75.2506C85.0184 75.2411 85.0106 75.2333 85.0011 75.2278C84.9973 75.2242 84.994 75.2201 84.9914 75.2157C84.9889 75.2115 84.9869 75.207 84.9855 75.2023C84.9843 75.1984 84.9836 75.1943 84.9833 75.1902C84.9824 75.1822 84.9817 75.1741 84.9813 75.1661C84.9806 75.152 84.9806 75.1379 84.9814 75.1238C84.9843 75.0439 84.9982 74.9648 85.0227 74.8888C85.025 74.8833 85.0271 74.8778 85.029 74.8722C85.0331 74.8606 85.0367 74.8488 85.0402 74.8373L85.0403 74.8371C85.0426 74.8293 85.045 74.8216 85.0474 74.814C85.0493 74.8083 85.0512 74.8028 85.0533 74.7973C85.1263 74.5845 85.1756 74.3644 85.2003 74.1407L85.2003 74.1404C85.2147 74.0454 85.229 73.9504 85.238 73.8555C85.2412 73.8051 85.2406 73.7554 85.2399 73.7055L85.2395 73.6644C85.2394 73.6555 85.2394 73.6465 85.2394 73.6375C85.2395 73.6265 85.2396 73.6154 85.2398 73.6043C85.2398 73.5788 85.2407 73.5533 85.2427 73.5279C85.2429 73.5248 85.2432 73.5218 85.2434 73.5187C85.244 73.5126 85.2446 73.5064 85.2452 73.5003C85.2476 73.4336 85.2428 73.3668 85.2309 73.3012C85.2129 73.1666 85.1949 73.0321 85.1787 72.8993C85.1757 72.8911 85.1733 72.8827 85.1716 72.8742C85.1321 72.8724 85.0927 72.8688 85.0514 72.8688H85.0443C85.0261 72.8688 85.007 72.8693 84.9882 72.8697L84.9874 72.8698C84.9693 72.8702 84.9514 72.8706 84.9348 72.8706C84.9212 72.8709 84.9079 72.8745 84.8961 72.881C84.8842 72.8876 84.8741 72.8969 84.8667 72.9083C84.8523 72.9316 84.8344 72.9549 84.82 72.9818C84.7958 73.0196 84.7687 73.0556 84.7392 73.0895C84.7331 73.0964 84.7257 73.102 84.7174 73.106C84.7091 73.11 84.7001 73.1124 84.6908 73.1128C84.6908 73.1128 84.6889 73.1128 84.6873 73.1124C84.6863 73.1122 84.6855 73.1117 84.6855 73.111C84.6504 73.1084 84.6156 73.103 84.5814 73.0949H84.5652C84.5624 73.0946 84.5596 73.0947 84.5569 73.095C84.5542 73.0953 84.5516 73.0958 84.549 73.0966C84.5483 73.0969 84.5475 73.0971 84.5468 73.0974C84.5409 73.0995 84.5356 73.103 84.5312 73.1074C84.5223 73.1185 84.512 73.1269 84.5021 73.1355C84.499 73.1382 84.4958 73.1409 84.4928 73.1438C84.49 73.1465 84.4872 73.1493 84.4846 73.1522C84.4621 73.1751 84.4322 73.1892 84.4002 73.1917C84.373 73.1962 84.3453 73.198 84.3177 73.1971C84.2808 73.1984 84.2441 73.1917 84.21 73.1774C84.2028 73.1739 84.1948 73.1721 84.1867 73.172C84.1803 73.1724 84.1741 73.1742 84.1685 73.1773C84.163 73.1804 84.1581 73.1848 84.1544 73.19C84.1432 73.2026 84.1294 73.2127 84.1139 73.2195C84.0984 73.2264 84.0817 73.2297 84.0648 73.2294C84.0237 73.2311 83.9842 73.2455 83.9518 73.2707C83.9237 73.2929 83.8889 73.305 83.8531 73.3048C83.8185 73.3038 83.7845 73.2965 83.7526 73.2832C83.7411 73.2797 83.7298 73.2758 83.7186 73.2713L83.7042 73.2653V73.3209L83.698 73.3232C83.6871 73.3272 83.6759 73.3306 83.6647 73.3334C83.5802 73.3513 83.4944 73.3621 83.4081 73.3657C83.4041 73.3657 83.3988 73.3654 83.3932 73.365C83.3864 73.3645 83.3791 73.3639 83.3723 73.3639H83.3687C83.3626 73.3638 83.3567 73.3652 83.3513 73.368C83.346 73.3708 83.3414 73.375 83.3382 73.3801C83.3322 73.3874 83.3268 73.3952 83.3221 73.4034C83.3173 73.4159 83.3085 73.4265 83.2972 73.4336C83.2859 73.4407 83.2726 73.444 83.2593 73.4429C83.2324 73.4447 83.2018 73.4464 83.1714 73.4464H83.1605C83.1297 73.4445 83.1006 73.4318 83.0781 73.4106C83.0379 73.3885 82.9959 73.3699 82.9525 73.355C82.9448 73.3551 82.9372 73.3576 82.9309 73.3621C82.9059 73.3783 82.8789 73.3944 82.8556 73.4124C82.8458 73.4099 82.8366 73.4054 82.8286 73.3992C82.8206 73.3931 82.8139 73.3853 82.809 73.3765C82.8033 73.367 82.796 73.3585 82.7875 73.3514C82.7525 73.3332 82.7139 73.3228 82.6744 73.3209C82.6728 73.3209 82.6712 73.3208 82.6696 73.3208C82.6671 73.3209 82.6646 73.321 82.6622 73.3212C82.6585 73.3215 82.6548 73.322 82.6511 73.3227C82.6446 73.3235 82.6381 73.3247 82.6314 73.3259L82.6313 73.3259C82.6233 73.3274 82.6151 73.3289 82.6063 73.3298C82.5772 73.3349 82.5502 73.3486 82.5291 73.3693C82.5162 73.3814 82.5021 73.3926 82.4875 73.4042L82.4875 73.4042L82.4874 73.4042C82.4781 73.4116 82.4686 73.4192 82.4592 73.4272C82.4525 73.4328 82.4459 73.4386 82.4394 73.4447C82.4146 73.415 82.4147 73.3853 82.4147 73.3556C82.4147 73.3481 82.4147 73.3406 82.4143 73.3332C82.414 73.3273 82.4135 73.3214 82.4125 73.3155C82.3975 73.3147 82.3824 73.3159 82.3677 73.3191C82.3578 73.3223 82.3475 73.3241 82.3372 73.3245C82.3307 73.3241 82.3242 73.3231 82.3179 73.3215C82.3091 73.3194 82.3005 73.3162 82.2924 73.3119C82.2869 73.3083 82.2834 73.3065 82.278 73.303C82.2679 73.2956 82.2562 73.2907 82.2439 73.2886ZM82.3336 75.2045C82.325 75.2138 82.3137 75.2201 82.3014 75.2225C82.3211 75.2233 82.34 75.2238 82.3586 75.2242H82.3588H82.3593C82.3704 75.2245 82.3813 75.2247 82.3921 75.2251C82.4007 75.2253 82.4093 75.2256 82.4179 75.2261C82.4007 75.2105 82.385 75.1976 82.3682 75.1839L82.3605 75.1776C82.354 75.1848 82.3471 75.1918 82.34 75.1985L82.3336 75.2045ZM81.1514 53.0242C80.9732 52.9022 80.7671 52.8269 80.5522 52.8054C80.5318 52.8053 80.5113 52.8071 80.4912 52.8108L80.4715 52.8162L80.4375 52.8216C80.3692 52.8377 80.145 52.9382 79.4579 53.4997L77.6927 54.9079L77.4738 55.0802C79.4705 56.4238 82.4431 56.7915 84.7626 55.8802C84.0118 55.3474 83.2919 54.7724 82.6063 54.1581C82.1587 53.7344 81.6715 53.3547 81.1514 53.0242Z" fill="black"/>
</svg>
