<svg width="120" height="120" viewBox="0 0 120 120" fill="none" xmlns="http://www.w3.org/2000/svg">
<path fill-rule="evenodd" clip-rule="evenodd" d="M61.6685 53.2829L57.7764 46.5057L59.5108 45.5097L63.4028 52.2868L61.6685 53.2829Z" fill="black"/>
<path fill-rule="evenodd" clip-rule="evenodd" d="M86.0467 63.2357C87.8503 66.809 92.2261 68.2577 95.8195 66.4524L96.7073 66.0065L100.882 74.1811L99.9477 74.6211C98.1774 75.4552 96.833 76.9521 96.1855 78.7924L96.1848 78.7944C94.8399 82.5907 96.8312 86.7422 100.626 88.0696L101.704 88.4464L97.4159 96.9205L96.4837 96.3225C94.678 95.1642 92.4467 94.8583 90.4056 95.4876L90.4041 95.4881C86.5763 96.6619 84.4146 100.748 85.6053 104.575L86.0089 105.872H73.4458L73.8377 104.581C74.5377 102.277 74.0752 99.7906 72.5967 97.9213L72.5961 97.9205C70.113 94.7741 65.5336 94.2438 62.3826 96.7305L61.4526 97.4645L56.4999 88.3847L57.5781 87.9803C57.8549 87.8765 58.1237 87.7583 58.3687 87.6277C61.9134 85.7359 63.2712 81.3246 61.3843 77.7889L63.1488 76.8473C65.5581 81.362 63.8238 86.974 59.3237 89.385L62.1093 94.492C66.0475 92.1175 71.2413 92.9754 74.1661 96.6815C75.7808 98.7235 76.4414 101.333 76.0464 103.872H83.3918C82.6782 99.3938 85.3622 94.9431 89.8163 93.5764C92.0695 92.8817 94.4989 93.08 96.6016 94.0998L98.9195 89.5189C94.7692 87.4748 92.7136 82.6054 94.2992 78.1277C95.009 76.1111 96.3792 74.4142 98.1874 73.3028L95.8057 68.6387C91.4227 70.2861 86.4118 68.3975 84.2612 64.1369L86.0467 63.2357Z" fill="black"/>
<path fill-rule="evenodd" clip-rule="evenodd" d="M27.9504 29.5242C33.0282 28.9166 37.6517 32.5398 38.2597 37.6208L38.2599 37.6227C38.3031 37.9904 38.3248 38.3586 38.3248 38.7271H36.3248C36.3248 38.4376 36.3078 38.1477 36.2737 37.8574C35.7969 33.8769 32.1719 31.0333 28.188 31.51C24.207 31.9864 21.3629 35.6116 21.8396 39.5958L21.8398 39.5973C22.0947 41.7557 23.3197 43.6983 25.1609 44.8745L24.0841 46.5599C21.7428 45.0641 20.1796 42.5918 19.8536 39.8319C19.2469 34.7547 22.8699 30.1321 27.9504 29.5242Z" fill="black"/>
<path fill-rule="evenodd" clip-rule="evenodd" d="M46.161 35.147C48.1354 30.417 53.5613 28.1806 58.2931 30.1558L57.5227 32.0014C53.8121 30.4526 49.5565 32.2049 48.0067 35.9172M46.161 35.147C45.8351 35.9291 45.6188 36.7523 45.511 37.5931L46.161 35.147ZM45.511 37.5931L47.4948 37.8474L45.511 37.5931ZM47.4948 37.8474C47.5806 37.178 47.7519 36.529 48.0067 35.9172L47.4948 37.8474Z" fill="black"/>
<path fill-rule="evenodd" clip-rule="evenodd" d="M59.1767 46.8556C59.1581 46.8663 59.1271 46.884 59.0908 46.9021L58.1964 45.1133C58.1824 45.1203 58.1736 45.1253 58.1736 45.1254C58.1736 45.1254 58.1739 45.1252 58.1747 45.1247L58.1969 45.1115L58.1987 45.1104C58.2096 45.1038 58.2276 45.093 58.2461 45.0824C58.2646 45.0716 58.2957 45.054 58.332 45.0358L59.2264 46.8247C59.2433 46.8162 59.2525 46.8107 59.2481 46.8132L59.2259 46.8265L59.2241 46.8276C59.2131 46.8341 59.1951 46.8449 59.1767 46.8556Z" fill="black"/>
<path fill-rule="evenodd" clip-rule="evenodd" d="M59.369 108.202C56.2016 104.189 56.8718 98.351 60.8899 95.1799L62.1289 96.7499C58.9826 99.233 58.4522 103.812 60.9389 106.963C63.4217 110.109 68.0002 110.64 71.1512 108.154C72.3139 107.231 73.1605 106.007 73.5833 104.603L75.4984 105.18C74.9532 106.99 73.8639 108.554 72.3938 109.721L72.3914 109.723C68.378 112.891 62.54 112.22 59.369 108.202Z" fill="black"/>
<path fill-rule="evenodd" clip-rule="evenodd" d="M97.337 94.6442C99.1561 95.8353 100.521 97.6321 101.171 99.7136L101.171 99.7148C102.692 104.602 99.9538 109.789 95.0519 111.307C90.1655 112.827 84.979 110.089 83.4609 105.187L85.3713 104.596C86.5639 108.446 90.6323 110.587 94.459 109.397L94.4602 109.397C98.3103 108.204 100.452 104.136 99.2619 100.31C98.7505 98.6735 97.6752 97.2562 96.2414 96.3174L97.337 94.6442Z" fill="black"/>
<path fill-rule="evenodd" clip-rule="evenodd" d="M61.7188 53.387L61.6413 53.2321L63.4301 52.3376L63.5076 52.4925L61.7188 53.387Z" fill="black"/>
<path fill-rule="evenodd" clip-rule="evenodd" d="M8.96997 56.2584C11.0108 51.5689 16.4799 49.421 21.1681 51.4613L20.37 53.2951C16.6933 51.6951 12.4033 53.3811 10.8038 57.0565C9.20379 60.7332 10.8898 65.0232 14.5652 66.6227L14.567 66.6235C16.4696 67.4559 18.6475 67.4231 20.5385 66.5373L21.3869 68.3484C18.9796 69.4761 16.201 69.521 13.7665 68.4563C9.07742 66.4152 6.92981 60.9465 8.96997 56.2584Z" fill="black"/>
<path fill-rule="evenodd" clip-rule="evenodd" d="M100.587 55.7817C99.6506 53.9107 98.0888 52.4178 96.2087 51.5317L95.3561 53.3409C96.8443 54.0422 98.0702 55.2205 98.7993 56.6787L98.8019 56.6838C100.623 60.2746 99.1769 64.6481 95.5852 66.4524L96.483 68.2396C101.062 65.9394 102.908 60.3617 100.587 55.7817Z" fill="black"/>
<path fill-rule="evenodd" clip-rule="evenodd" d="M21.2011 86.1386C18.4662 81.7976 19.7699 76.088 24.1088 73.3545L25.1749 75.0467C21.7684 77.1928 20.7485 81.6682 22.8932 85.0725C25.039 88.4784 29.5134 89.4985 32.9175 87.3552C34.7432 86.1942 35.9672 84.3034 36.2563 82.1607L38.2383 82.4282C37.8692 85.1644 36.3056 87.5717 33.9885 89.0442L33.9851 89.0463C29.6441 91.7812 23.9345 90.4775 21.2011 86.1386Z" fill="black"/>
<path fill-rule="evenodd" clip-rule="evenodd" d="M55.9425 90.3928C50.8685 91.062 46.2038 87.5048 45.5309 82.4258L47.5136 82.1631C48.041 86.1443 51.6994 88.9375 55.6853 88.4094L55.6963 88.408C56.239 88.3422 56.7969 88.192 57.3339 87.9841L58.0559 89.8493C57.394 90.1055 56.6758 90.3034 55.9425 90.3928Z" fill="black"/>
<path fill-rule="evenodd" clip-rule="evenodd" d="M98.842 72.8117C101.054 71.7709 103.571 71.6404 105.871 72.4432C110.712 74.1366 113.251 79.4332 111.559 84.2705C109.865 89.1118 104.569 91.6494 99.7316 89.9574L100.392 88.0696C104.191 89.3983 108.343 87.4049 109.671 83.6102C110.999 79.8117 109.006 75.659 105.212 74.3315M98.842 72.8117L99.6936 74.6213L98.842 72.8117ZM99.6936 74.6213C101.432 73.8033 103.407 73.7015 105.212 74.3315L99.6936 74.6213Z" fill="black"/>
<path fill-rule="evenodd" clip-rule="evenodd" d="M36.1227 36.7202H47.6081L47.4767 37.8371C47.4425 38.1277 47.4254 38.4179 47.4254 38.7078C47.4254 39.8932 47.7308 41.0871 48.2946 42.1471C50.2026 45.6879 54.6107 47.0137 58.1502 45.1079L59.0069 44.6466L63.8766 53.1262L63.0227 53.6278C61.9455 54.2604 61.0407 55.1483 60.3921 56.2228C58.3329 59.68 59.4576 64.1375 62.9121 66.1966L63.7125 66.6737L59.2899 75.446L58.3713 74.909C57.2669 74.2633 56.0084 73.9226 54.7129 73.9226C54.4974 73.9226 54.2977 73.9365 54.0671 73.9525C53.9495 73.9607 53.8238 73.9694 53.6838 73.9771C49.722 74.5224 46.9508 78.1697 47.4936 82.1396L47.6489 83.2751H36.0576L36.2401 82.1191C36.2876 81.8181 36.3053 81.5053 36.3053 81.1714C36.3053 79.7925 35.9138 78.4481 35.1822 77.291L35.1813 77.2896C33.0352 73.8832 28.5597 72.8633 25.1554 75.008L24.2528 75.5766L19.5773 66.9678L20.5388 66.5178C22.1376 65.7694 23.4157 64.4587 24.1322 62.8208L24.133 62.819C25.7476 59.1481 24.0493 54.8576 20.3701 53.2564L19.3444 52.8101L24.2618 44.2667L25.1463 44.839C26.2968 45.5834 27.6563 45.9759 29.0372 45.9759C33.0547 45.9759 36.3053 42.7252 36.3053 38.7078C36.3053 38.4179 36.2883 38.1277 36.2541 37.8371L36.1227 36.7202ZM38.3053 38.7202C38.2986 43.8365 34.1551 47.9759 29.0372 47.9759C27.6313 47.9759 26.2365 47.6564 24.9752 47.0366L22.1606 51.9265C26.1505 54.2618 27.8762 59.2749 25.9641 63.6234C25.1974 65.3753 23.9224 66.8372 22.3191 67.8256L25.0207 72.8C29.2158 70.7787 34.331 72.1886 36.8731 76.2229C37.8063 77.6991 38.3053 79.4138 38.3053 81.1714C38.3053 81.2058 38.3052 81.2404 38.3048 81.2751H45.4264C45.3606 76.6525 48.7596 72.6119 53.4585 71.9894L53.4977 71.9842L53.5373 71.9821C53.6246 71.9775 53.7272 71.9705 53.8385 71.9629C54.1084 71.9445 54.43 71.9226 54.7129 71.9226C56.0028 71.9226 57.268 72.1885 58.4344 72.7002L61.1086 67.3959C57.321 64.593 56.2118 59.3297 58.6754 55.1967L58.6781 55.1922C59.3281 54.1145 60.1806 53.186 61.1815 52.4492L58.2165 47.2863C53.875 49.0709 48.8064 47.3163 46.5325 43.0932L46.5302 43.089C45.8187 41.7522 45.4276 40.2406 45.4254 38.7202H38.3053Z" fill="black"/>
<path fill-rule="evenodd" clip-rule="evenodd" d="M58.2672 30.1724C60.183 30.9562 61.7678 32.3695 62.7863 34.1681C65.3041 38.6177 63.7419 44.2834 59.2699 46.8016L58.2886 45.0589C61.7941 43.0849 63.0201 38.6428 61.0459 35.1536M58.2672 30.1724L57.5099 32.0235L58.2672 30.1724ZM57.5099 32.0235C59.0019 32.6339 60.2442 33.738 61.0459 35.1536L57.5099 32.0235Z" fill="black"/>
<path fill-rule="evenodd" clip-rule="evenodd" d="M10.3116 58.7397C9.66858 62.702 12.3593 66.4353 16.3216 67.0784C20.2839 67.7214 24.0173 65.0307 24.6603 61.0684C25.3034 57.1061 22.6126 53.3727 18.6503 52.7297C14.688 52.0866 10.9547 54.7774 10.3116 58.7397ZM16.0012 69.0526C10.9486 68.2326 7.51742 63.4719 8.33743 58.4193C9.15743 53.3667 13.9181 49.9355 18.9707 50.7555C24.0233 51.5755 27.4545 56.3362 26.6345 61.3888C25.8145 66.4414 21.0538 69.8726 16.0012 69.0526Z" fill="black"/>
<path fill-rule="evenodd" clip-rule="evenodd" d="M59.4219 58.7441C58.7788 62.7064 61.4696 66.4397 65.4319 67.0828C69.3942 67.7258 73.1275 65.0351 73.7706 61.0728C74.4136 57.1105 71.7229 53.3771 67.7606 52.7341C63.7983 52.091 60.0649 54.7818 59.4219 58.7441ZM65.1115 69.057C60.0589 68.237 56.6277 63.4763 57.4477 58.4237C58.2677 53.3711 63.0284 49.9399 68.081 50.7599C73.1336 51.5799 76.5648 56.3406 75.7448 61.3932C74.9248 66.4458 70.1641 69.877 65.1115 69.057Z" fill="black"/>
<path fill-rule="evenodd" clip-rule="evenodd" d="M59.4202 101.346C58.7771 105.308 61.4679 109.042 65.4302 109.685C69.3924 110.328 73.1258 107.637 73.7689 103.675C74.4119 99.7124 71.7211 95.979 67.7589 95.336C63.7966 94.6929 60.0632 97.3837 59.4202 101.346ZM65.1098 111.659C60.0571 110.839 56.626 106.078 57.446 101.026C58.266 95.973 63.0266 92.5418 68.0793 93.3618C73.1319 94.1818 76.5631 98.9425 75.7431 103.995C74.923 109.048 70.1624 112.479 65.1098 111.659Z" fill="black"/>
<path fill-rule="evenodd" clip-rule="evenodd" d="M85.3339 58.7477C84.6908 62.71 87.3816 66.4434 91.3439 67.0864C95.3062 67.7295 99.0396 65.0387 99.6826 61.0764C100.326 57.1141 97.6349 53.3808 93.6726 52.7377C89.7103 52.0946 85.977 54.7854 85.3339 58.7477ZM91.0235 69.0606C85.9709 68.2406 82.5397 63.4799 83.3597 58.4273C84.1797 53.3747 88.9404 49.9435 93.993 50.7635C99.0456 51.5835 102.477 56.3442 101.657 61.3968C100.837 66.4494 96.0761 69.8806 91.0235 69.0606Z" fill="black"/>
<path fill-rule="evenodd" clip-rule="evenodd" d="M85.332 101.35C84.6889 105.312 87.3797 109.045 91.342 109.688C95.3043 110.331 99.0376 107.641 99.6807 103.678C100.324 99.7161 97.633 95.9827 93.6707 95.3396C89.7084 94.6966 85.975 97.3874 85.332 101.35ZM91.0216 111.663C85.969 110.843 82.5378 106.082 83.3578 101.029C84.1778 95.9766 88.9385 92.5454 93.9911 93.3654C99.0437 94.1854 102.475 98.9461 101.655 103.999C100.835 109.051 96.0742 112.483 91.0216 111.663Z" fill="black"/>
<path fill-rule="evenodd" clip-rule="evenodd" d="M21.8765 37.5677C21.2334 41.53 23.9242 45.2633 27.8865 45.9064C31.8488 46.5494 35.5821 43.8587 36.2252 39.8964C36.8682 35.9341 34.1775 32.2007 30.2152 31.5577C26.2529 30.9146 22.5195 33.6054 21.8765 37.5677ZM27.5661 47.8806C22.5135 47.0606 19.0823 42.2999 19.9023 37.2473C20.7223 32.1947 25.483 28.7635 30.5356 29.5835C35.5882 30.4035 39.0194 35.1642 38.1994 40.2168C37.3794 45.2694 32.6187 48.7006 27.5661 47.8806Z" fill="black"/>
<path fill-rule="evenodd" clip-rule="evenodd" d="M21.8789 80.0499C21.2358 84.0122 23.9266 87.7456 27.8888 88.3886C31.8511 89.0317 35.5845 86.3409 36.2276 82.3786C36.8706 78.4163 34.1798 74.6829 30.2175 74.0399C26.2553 73.3968 22.5219 76.0876 21.8789 80.0499ZM27.5684 90.3628C22.5158 89.5428 19.0846 84.7821 19.9047 79.7295C20.7247 74.6769 25.4853 71.2457 30.5379 72.0657C35.5906 72.8857 39.0218 77.6464 38.2018 82.699C37.3817 87.7516 32.6211 91.1828 27.5684 90.3628Z" fill="black"/>
<path fill-rule="evenodd" clip-rule="evenodd" d="M47.6247 80.0407C46.9817 84.003 49.6724 87.7363 53.6347 88.3794C57.597 89.0224 61.3304 86.3317 61.9734 82.3694C62.6165 78.4071 59.9257 74.6737 55.9634 74.0307C52.0011 73.3876 48.2678 76.0784 47.6247 80.0407ZM53.3143 90.3536C48.2617 89.5336 44.8305 84.7729 45.6505 79.7203C46.4705 74.6677 51.2312 71.2365 56.2838 72.0565C61.3364 72.8765 64.7676 77.6372 63.9476 82.6898C63.1276 87.7424 58.3669 91.1736 53.3143 90.3536Z" fill="black"/>
<path fill-rule="evenodd" clip-rule="evenodd" d="M47.6226 37.5585C46.9795 41.5208 49.6703 45.2541 53.6326 45.8972C57.5948 46.5402 61.3282 43.8495 61.9713 39.8872C62.6143 35.9249 59.9236 32.1915 55.9613 31.5485C51.999 30.9054 48.2656 33.5962 47.6226 37.5585ZM53.3122 47.8714C48.2596 47.0514 44.8284 42.2907 45.6484 37.2381C46.4684 32.1855 51.2291 28.7543 56.2817 29.5743C61.3343 30.3943 64.7655 35.155 63.9455 40.2076C63.1255 45.2602 58.3648 48.6914 53.3122 47.8714Z" fill="black"/>
<path fill-rule="evenodd" clip-rule="evenodd" d="M73.5578 15.4834H85.0431L84.9118 16.6003C84.8776 16.8909 84.8605 17.1811 84.8605 17.4709C84.8605 18.6564 85.1658 19.8502 85.7296 20.9103C87.6377 24.4511 92.0458 25.7769 95.5853 23.8711L96.442 23.4098L101.312 31.8894L100.458 32.391C99.3806 33.0236 98.4758 33.9115 97.8271 34.986C95.768 38.4432 96.8927 42.9007 100.347 44.9598L101.148 45.4369L96.725 54.2092L95.8064 53.6722C94.702 53.0265 93.4435 52.6858 92.148 52.6858C91.9325 52.6858 91.7328 52.6997 91.5022 52.7157C91.3846 52.7238 91.2589 52.7326 91.1189 52.7403C87.1571 53.2856 84.3858 56.9329 84.9287 60.9028L85.084 62.0383H73.4927L73.6752 60.8823C73.7227 60.5813 73.7404 60.2685 73.7404 59.9346C73.7404 58.5557 73.3489 57.2113 72.6172 56.0542L72.6163 56.0528C70.4703 52.6463 65.9948 51.6265 62.5905 53.7712L61.6879 54.3398L57.0124 45.731L57.9739 45.281C59.5727 44.5326 60.8507 43.2219 61.5673 41.584L61.5681 41.5822C63.1826 37.9113 61.4844 33.6208 57.8051 32.0196L56.7795 31.5733L61.6969 23.0299L62.5814 23.6021C63.7319 24.3466 65.0914 24.7391 66.4723 24.7391C70.4897 24.7391 73.7404 21.4884 73.7404 17.4709C73.7404 17.1811 73.7234 16.8909 73.6892 16.6003L73.5578 15.4834ZM75.7404 17.4834C75.7337 22.5997 71.5902 26.7391 66.4723 26.7391C65.0664 26.7391 63.6716 26.4196 62.4102 25.7998L59.5957 30.6897C63.5856 33.025 65.3113 38.0381 63.3992 42.3866C62.6325 44.1385 61.3575 45.6004 59.7542 46.5888L62.4558 51.5632C66.6509 49.5419 71.7661 50.9518 74.3082 54.9861C75.2414 56.4623 75.7404 58.177 75.7404 59.9346C75.7404 59.969 75.7402 60.0036 75.7399 60.0383H82.8615C82.7957 55.4157 86.1947 51.3751 90.8936 50.7526L90.9328 50.7474L90.9724 50.7453C91.0597 50.7407 91.1623 50.7337 91.2736 50.7261C91.5435 50.7077 91.8651 50.6858 92.148 50.6858C93.4379 50.6858 94.7031 50.9517 95.8695 51.4634L98.5437 46.1591C94.7561 43.3562 93.6469 38.0929 96.1105 33.9599L96.1131 33.9554C96.7632 32.8777 97.6157 31.9492 98.6166 31.2124L95.6516 26.0495C91.3101 27.8341 86.2415 26.0795 83.9676 21.8564L83.9653 21.8522C83.2538 20.5154 82.8626 19.0038 82.8605 17.4834H75.7404Z" fill="black"/>
<path fill-rule="evenodd" clip-rule="evenodd" d="M96.8569 37.5073C96.2138 41.4696 98.9046 45.2029 102.867 45.846C106.829 46.489 110.563 43.7983 111.206 39.836C111.849 35.8737 109.158 32.1403 105.196 31.4973C101.233 30.8542 97.4999 33.545 96.8569 37.5073ZM102.546 47.8202C97.4939 47.0002 94.0627 42.2395 94.8827 37.1869C95.7027 32.1343 100.463 28.7031 105.516 29.5231C110.569 30.3431 114 35.1038 113.18 40.1564C112.36 45.209 107.599 48.6402 102.546 47.8202Z" fill="black"/>
<path fill-rule="evenodd" clip-rule="evenodd" d="M59.3116 16.3309C58.6686 20.2931 61.3593 24.0265 65.3216 24.6696C69.2839 25.3126 73.0173 22.6218 73.6603 18.6596C74.3034 14.6973 71.6126 10.9639 67.6503 10.3209C63.688 9.6778 59.9547 12.3686 59.3116 16.3309ZM65.0012 26.6438C59.9486 25.8238 56.5174 21.0631 57.3374 16.0105C58.1574 10.9578 62.9181 7.52665 67.9707 8.34665C73.0233 9.16666 76.4545 13.9273 75.6345 18.98C74.8145 24.0326 70.0538 27.4638 65.0012 26.6438Z" fill="black"/>
<path fill-rule="evenodd" clip-rule="evenodd" d="M85.0576 16.3217C84.4145 20.284 87.1053 24.0173 91.0676 24.6604C95.0299 25.3034 98.7632 22.6127 99.4063 18.6504C100.049 14.6881 97.3586 10.9547 93.3963 10.3117C89.434 9.66861 85.7006 12.3594 85.0576 16.3217ZM90.7472 26.6346C85.6946 25.8146 82.2634 21.0539 83.0834 16.0013C83.9034 10.9487 88.6641 7.51746 93.7167 8.33747C98.7693 9.15747 102.2 13.9182 101.38 18.9708C100.56 24.0234 95.7998 27.4546 90.7472 26.6346Z" fill="black"/>
<path fill-rule="evenodd" clip-rule="evenodd" d="M95.6346 80.0488C94.9916 84.0111 97.6823 87.7445 101.645 88.3875C105.607 89.0306 109.34 86.3398 109.983 82.3775C110.626 78.4153 107.936 74.6819 103.973 74.0388C100.011 73.3958 96.2777 76.0865 95.6346 80.0488ZM101.324 90.3617C96.2716 89.5417 92.8404 84.781 93.6604 79.7284C94.4804 74.6758 99.2411 71.2446 104.294 72.0646C109.346 72.8846 112.778 77.6453 111.958 82.6979C111.137 87.7505 106.377 91.1817 101.324 90.3617Z" fill="black"/>
</svg>
