<svg width="32" height="32" viewBox="0 0 32 32" fill="currentColor" xmlns="http://www.w3.org/2000/svg">
<g clip-path="url(#clip0_1_1508)">
<path fill-rule="evenodd" clip-rule="evenodd" d="M16 32C24.8366 32 32 24.8366 32 16C32 7.16344 24.8366 0 16 0C7.16344 0 0 7.16344 0 16C0 24.8366 7.16344 32 16 32ZM18.6147 7.2H13.36L14.7036 18.9333H17.6369L18.6147 7.2ZM18.071 22.8444C18.071 23.9245 17.1955 24.8 16.1154 24.8C15.0354 24.8 14.1599 23.9245 14.1599 22.8444C14.1599 21.7644 15.0354 20.8889 16.1154 20.8889C17.1955 20.8889 18.071 21.7644 18.071 22.8444Z" fill="currentColor"/>
</g>
<defs>
<clipPath id="clip0_1_1508">
<rect width="32" height="32" fill="white"/>
</clipPath>
</defs>
</svg>
