<svg width="32" height="32" viewBox="0 0 32 32" xmlns="http://www.w3.org/2000/svg">
<path fill-rule="evenodd" clip-rule="evenodd" d="M11.178 4.32146C11.0414 4.06293 10.7322 3.93268 10.4445 4.03492L0.447272 7.58803L0 7.747L0.135529 8.20192L1.9145 14.1733L2.03553 14.5796L2.45613 14.5266L6.6376 14.0003V27.1675V27.6675H7.1376H15.6818H15.9087H24.4529H24.9529V27.1675V14.0003L29.1344 14.5266L29.555 14.5796L29.676 14.1733L31.455 8.20192L31.5905 7.747L31.1432 7.58803L21.146 4.03492C20.8583 3.93268 20.5491 4.06293 20.4125 4.32146C20.197 4.72904 19.6126 5.65526 18.7612 6.51257C18.0996 7.17886 17.3087 7.59433 16.6718 7.84363C16.3552 7.96755 16.0818 8.04841 15.8895 8.09791C15.8554 8.10667 15.8239 8.11444 15.7953 8.12128C15.7666 8.11444 15.7351 8.10667 15.7011 8.09791C15.5087 8.04841 15.2353 7.96755 14.9187 7.84363C14.2818 7.59433 13.491 7.17886 12.8293 6.51257C11.9779 5.65526 11.3935 4.72904 11.178 4.32146ZM15.7953 9.14393L15.8165 9.14778L15.8232 9.14893L15.8255 9.14931L15.8263 9.14946L15.8267 9.14952C15.8267 9.14952 15.8268 9.14953 15.8288 9.13751C15.8413 9.13505 15.8555 9.13218 15.8714 9.12889C15.9355 9.11558 16.0263 9.09528 16.1387 9.06635C16.3633 9.00856 16.676 8.91588 17.0363 8.77483C17.7533 8.49418 18.6796 8.01394 19.4708 7.21721C20.2381 6.44453 20.8077 5.62323 21.1265 5.08928L30.3611 8.37132L28.8387 13.4815L24.5154 12.9373L23.9529 12.8665V13.4334V26.6675H15.9087H15.6818H7.6376V13.4334V12.8665L7.07516 12.9373L2.75184 13.4815L1.22943 8.37132L10.464 5.08928C10.7829 5.62323 11.3524 6.44453 12.1197 7.21721C12.9109 8.01394 13.8372 8.49418 14.5542 8.77483C14.9145 8.91588 15.2273 9.00856 15.4518 9.06635C15.5643 9.09528 15.655 9.11558 15.7191 9.12889C15.735 9.13218 15.7492 9.13505 15.7617 9.13751C15.7638 9.14953 15.7638 9.14952 15.7639 9.14952L15.7642 9.14946L15.7651 9.14931L15.7673 9.14893L15.774 9.14778L15.7953 9.14393Z" fill="currentColor"/>
</svg>
