<svg width="32" height="32" viewBox="0 0 32 32" fill="none" xmlns="http://www.w3.org/2000/svg">
<g clip-path="url(#clip0_1_1257)">
<path fill-rule="evenodd" clip-rule="evenodd" d="M28.3252 11.6284C28.3019 9.38167 27.5829 7.14664 26.2408 5.27353C24.9216 3.43732 23.0565 1.93114 20.8731 1.03234C18.5266 0.0668394 15.9488 -0.228077 13.4204 0.175678C11.0435 0.554857 8.81075 1.61164 7.04424 3.12485C5.28531 4.63103 4.00023 6.61821 3.40129 8.76338C2.68104 11.3369 2.93881 14.0965 4.10637 16.5225C4.73935 17.8381 5.60077 19.0704 6.44496 20.2781L6.46046 20.3003C7.556 21.8626 8.7084 23.3934 9.87975 24.9101C10.9412 26.2864 12.0216 27.6486 13.1171 29.0003C13.7112 29.7352 14.3053 30.4666 14.9106 31.1911C14.9302 31.2149 14.988 31.2847 15.1262 31.4509C15.4319 31.8187 15.5479 32.0005 15.6631 32C15.7788 31.9995 15.8937 31.8153 16.199 31.4509C16.6451 30.9187 16.9114 30.5929 17.2138 30.2229C17.2892 30.1307 17.3668 30.0358 17.45 29.9342C18.3711 28.8037 19.2847 27.6662 20.1869 26.5251C21.309 25.1032 22.4121 23.6707 23.4849 22.2172C24.4667 20.8866 25.4296 19.5419 26.3015 18.1481C26.6237 17.6285 26.9383 17.1053 27.2037 16.5576C27.7913 15.3499 28.1476 14.0754 28.2803 12.7588C28.3144 12.4147 28.3295 12.0707 28.3333 11.7266C28.3333 11.6937 28.3305 11.6609 28.3252 11.6284ZM15.6709 6.12591C14.3859 6.13381 13.0851 6.52091 12.0373 7.27141C10.9658 8.04166 10.1632 9.08446 9.70458 10.3208C8.80312 12.7501 9.58597 15.6533 11.5905 17.2965C12.6344 18.1537 13.8798 18.6632 15.228 18.7699C16.5091 18.8726 17.8376 18.5447 18.9367 17.8811C20.0003 17.2412 20.8939 16.2735 21.4078 15.1398C21.9772 13.8837 22.1433 12.5131 21.8744 11.1582C21.3762 8.66181 19.2491 6.59991 16.7265 6.21281C16.3747 6.16541 16.0267 6.12986 15.6709 6.12591Z" fill="#E5E5E5"/>
<path d="M12.0375 7.27141C13.0852 6.52091 14.3861 6.13381 15.671 6.12591C16.0269 6.12986 16.3748 6.16541 16.7267 6.21281C19.2492 6.59991 21.3764 8.66181 21.8746 11.1582C22.1434 12.5131 21.9774 13.8837 21.408 15.1398C20.894 16.2735 20.0005 17.2412 18.9369 17.8811C17.8377 18.5447 16.5092 18.8726 15.2282 18.7699C13.88 18.6632 12.6345 18.1537 11.5907 17.2965C9.58613 15.6533 8.80328 12.7501 9.70475 10.3208C10.1634 9.08446 10.966 8.04166 12.0375 7.27141Z" fill="black"/>
<path fill-rule="evenodd" clip-rule="evenodd" d="M15.6853 30.131C16.3664 29.3944 17.0932 28.6339 17.8323 27.8606C18.2134 27.4619 18.5977 27.0598 18.9806 26.6558C20.4408 25.1154 21.9067 23.5221 23.2157 21.8782C25.8657 18.5502 27.7041 15.2171 27.7041 11.9342C27.7041 9.27766 26.7334 6.62642 24.8189 4.64579C22.9198 2.68111 20.0182 1.30021 16.0021 1.30021C11.9839 1.30021 9.08249 2.67415 7.18455 4.63396C5.27169 6.60917 4.30021 9.25947 4.30021 11.9342C4.30021 13.2926 4.73867 14.8421 5.53867 16.535C6.33457 18.2192 7.45257 19.9709 8.72678 21.7144C10.5451 24.2022 12.6008 26.5711 14.4136 28.66C14.8542 29.1677 15.2804 29.6588 15.6853 30.131ZM13.4722 29.5597C9.08489 24.5038 3 17.4916 3 11.9342C3 5.96709 7.33405 0 16.0021 0C24.6702 0 29.0043 6.00099 29.0043 11.9342C29.0043 18.0528 23.4488 23.8657 18.7573 28.7747C17.7059 29.8748 16.698 30.9295 15.8056 31.932C15.724 32.0238 15.5836 32.0227 15.5048 31.9285C14.9 31.2051 14.2101 30.41 13.4722 29.5597Z" fill="black"/>
</g>
<defs>
<clipPath id="clip0_1_1257">
<rect width="32" height="32" fill="white"/>
</clipPath>
</defs>
</svg>
