<svg width="120" height="120" viewBox="0 0 120 120" fill="none" xmlns="http://www.w3.org/2000/svg">
<path d="M64.84 9.18481C58.8408 9.18481 55.1984 11.5845 55.1984 17.6265V75.0043C47.9994 77.9182 44.3142 85.2887 44.3142 92.6162C44.3142 103.972 53.5272 113.185 64.8828 113.185C76.1955 113.185 85.4514 103.972 85.4514 92.6162C85.4514 85.2887 81.7662 77.9182 74.5672 75.0043C74.5672 53.9215 74.61 36.1811 74.5243 17.6694C74.5672 11.5845 70.9248 9.18481 64.84 9.18481ZM64.84 11.5845C69.725 11.5845 72.1247 12.8272 72.0818 17.6265C72.1247 21.4403 72.1247 24.9112 72.1247 28.5536H64.8828V30.9961H72.1247C72.1247 33.2672 72.1247 35.624 72.1247 38.238H64.8828V40.6805H72.1247C72.1247 43.123 72.1247 45.9083 72.1247 47.9224H66.0826V45.4798C66.1255 44.7942 65.397 44.1514 64.7114 44.2371C64.1115 44.3228 63.6401 44.8799 63.683 45.4798V84.2602C59.5693 84.8601 56.3983 88.4168 56.3983 92.6591C56.3983 97.3298 60.212 101.144 64.8828 101.144C69.5536 101.144 73.3245 97.3298 73.3245 92.6591C73.3245 88.4168 70.1535 84.8601 66.0826 84.2602V69.6908H72.1247C72.1247 71.1906 72.1247 74.7044 72.1247 75.69C72.1247 76.2042 72.4675 76.7184 72.9817 76.8469C79.6665 79.1181 83.0089 85.76 83.0089 92.6162C83.0089 102.643 74.91 110.785 64.8828 110.785C54.8556 110.785 46.7139 102.643 46.7139 92.6162C46.7139 85.76 50.0991 79.1181 56.7839 76.8469C57.2553 76.7184 57.6409 76.2042 57.5981 75.69V17.6694C57.5981 12.8272 60.0406 11.5845 64.84 11.5845ZM66.0826 50.322H72.1247C72.1247 53.2359 72.1247 54.9071 72.1247 57.6067H66.0826V50.322ZM66.0826 60.0064H72.1247C72.1247 62.5775 72.1247 65.1914 72.1247 67.2483H66.0826V60.0064ZM64.8828 86.617C68.2252 86.617 70.9248 89.3167 70.9248 92.6591C70.9248 96.0015 68.2252 98.6582 64.8828 98.6582C61.5404 98.6582 58.8408 96.0015 58.8408 92.6591C58.8408 89.0167 61.2405 86.5742 64.8828 86.617Z" fill="black"/>
<path fill-rule="evenodd" clip-rule="evenodd" d="M41.4157 32.5306C41.4157 32.2376 41.1782 32 40.8851 32C40.5921 32 40.3545 32.2376 40.3545 32.5306V33.3718L39.6683 32.6858C39.4611 32.4786 39.1251 32.4786 38.918 32.6859C38.7108 32.8931 38.7108 33.2291 38.918 33.4363L40.3545 34.8724V39.545L37.222 37.7369L36.9726 35.9627C36.9318 35.6725 36.6634 35.4703 36.3732 35.5111C36.083 35.5519 35.8808 35.8202 35.9216 36.1104L36.0555 37.0636L34.9463 36.4233C34.6925 36.2768 34.368 36.3638 34.2214 36.6176C34.0749 36.8713 34.1618 37.1958 34.4156 37.3423L35.4144 37.9188L34.4569 38.0534C34.1667 38.0942 33.9645 38.3625 34.0052 38.6526C34.046 38.9428 34.3143 39.145 34.6046 39.1042L36.8256 38.7921L36.8342 38.791C36.8572 38.7877 36.8796 38.7831 36.9013 38.7771L39.8235 40.4639L36.9627 42.1152C36.9224 42.0986 36.8794 42.0867 36.8342 42.0804L36.8256 42.0792L34.6046 41.7672C34.3143 41.7264 34.046 41.9286 34.0052 42.2187C33.9645 42.5089 34.1667 42.7772 34.4569 42.818L35.493 42.9635L34.4156 43.5854C34.1618 43.7319 34.0748 44.0564 34.2214 44.3102C34.3679 44.5639 34.6925 44.6509 34.9463 44.5044L36.0469 43.8691L35.9216 44.7609C35.8808 45.0511 36.083 45.3194 36.3732 45.3602C36.6634 45.401 36.9318 45.1988 36.9726 44.9087L37.2133 43.1958L40.3545 41.3827V44.5135L38.918 45.9497C38.7108 46.1569 38.7108 46.4929 38.918 46.7001C39.1251 46.9073 39.4611 46.9074 39.6683 46.7002L40.3545 46.0142V46.8555C40.3545 47.1485 40.5921 47.3861 40.8851 47.3861C41.1782 47.3861 41.4157 47.1485 41.4157 46.8555V46.014L42.1021 46.7002C42.3093 46.9074 42.6453 46.9073 42.8525 46.7001C43.0597 46.4929 43.0596 46.1569 42.8524 45.9497L41.4157 44.5134V41.3829L44.5177 43.1735L45.0573 45.1869C45.1332 45.4699 45.4242 45.6378 45.7073 45.5619C45.9904 45.4861 46.1583 45.1951 46.0825 44.9121L45.8176 43.9238L46.8241 44.5048C47.0779 44.6513 47.4025 44.5643 47.549 44.3105C47.6956 44.0567 47.6086 43.7323 47.3548 43.5858L46.4136 43.0425L47.2993 42.8052C47.5824 42.7294 47.7504 42.4385 47.6746 42.1554C47.5988 41.8724 47.3078 41.7044 47.0247 41.7803L45.1138 42.2922L41.9463 40.4639L45.1803 38.5971L47.0247 39.0912C47.3078 39.1671 47.5988 38.9991 47.6746 38.716C47.7504 38.433 47.5824 38.1421 47.2993 38.0662L46.4802 37.8468L47.3548 37.342C47.6086 37.1955 47.6955 36.871 47.549 36.6172C47.4024 36.3634 47.0779 36.2765 46.8241 36.423L45.7998 37.0142L46.0825 35.9594C46.1583 35.6764 45.9904 35.3855 45.7073 35.3096C45.4242 35.2337 45.1332 35.4017 45.0573 35.6847L44.4999 37.7645L41.4157 39.5448V34.8726L42.8524 33.4363C43.0596 33.2291 43.0597 32.8931 42.8525 32.6859C42.6453 32.4786 42.3093 32.4786 42.1021 32.6858L41.4157 33.3719V32.5306Z" fill="black"/>
</svg>
