<svg width="120" height="120" viewBox="0 0 120 120" fill="none" xmlns="http://www.w3.org/2000/svg">
<path fill-rule="evenodd" clip-rule="evenodd" d="M43.3259 58.8244C44.9142 60.2009 46.9473 61.0057 49.0651 61.0057C51.1617 61.0057 53.0253 60.328 54.2748 59.3115C55.5243 58.295 56.329 57.1725 56.7314 56.0078L54.3595 54.9277C53.9571 56.0078 53.2583 56.8972 52.2841 57.5749C51.3311 58.2314 50.2722 58.5703 49.1286 58.5703C47.6038 58.5703 46.2696 57.9985 45.1472 56.876C44.0248 55.7325 43.4741 54.2712 43.4741 52.4923C43.4741 50.6922 44.0459 49.2521 45.1684 48.1297C46.2908 47.0072 47.625 46.4354 49.1286 46.4354C51.7335 46.4354 53.47 47.9179 54.296 50.0568L56.6467 48.9768C56.2867 47.7908 55.4819 46.6684 54.296 45.673C53.11 44.6565 51.2675 44 49.1709 44C46.8626 44 44.8931 44.8259 43.22 46.4566C41.547 48.0873 40.721 50.1204 40.721 52.577C40.721 55.1818 41.7376 57.4055 43.3259 58.8244ZM8 60.8151L14.7557 44.233H17.8265L24.5398 60.8151H21.829L20.3254 56.9184H12.1932L10.6684 60.8151H8ZM16.2593 46.7319L13.125 54.61H19.4148L16.2593 46.7319ZM26.7042 60.8151V44.233H32.9305C34.8576 44.233 36.2977 44.72 37.2084 45.6942C38.119 46.6684 38.5849 47.8755 38.5849 49.3368C38.5849 51.6452 37.2931 53.3394 35.0694 54.0806L39.0085 60.8151H36.0648L32.4646 54.5253H29.3091V60.8151H26.7042ZM29.3091 46.6472V52.1746H32.6552C34.9635 52.1746 35.9377 50.9251 35.9377 49.4003C35.9377 48.1297 35.3659 46.6472 32.6552 46.6472H29.3091ZM59.4842 60.8151V44.233H62.089V51.1792H70.2848V44.233H72.8896V60.8151H70.2848V53.657H62.089V60.8151H59.4842ZM77.1254 44.233V60.8151H79.7302V44.233H77.1254ZM90.0706 57.8079L95.0473 44.233H97.8004L91.5318 60.8151H88.5246L82.2348 44.233H85.1362L90.0706 57.8079ZM102.935 46.5837H110.94V44.233H100.33V60.8151H111.025V58.4432H102.935V53.5511H110.22V51.2004H102.935V46.5837ZM37.7867 69.993C37.7867 70.8675 37.4664 71.6066 36.8382 72.1978C36.2101 72.7767 35.3479 73.0723 34.227 73.0723H32.515V76.6442H31V67H34.4118C35.5326 67 36.3825 67.2956 36.9368 67.8745C37.5034 68.4534 37.7867 69.1678 37.7867 69.993ZM34.2763 68.4041H32.515V71.6805H34.2763C35.6189 71.6805 36.247 70.9168 36.247 70.03C36.247 69.5866 36.0992 69.2047 35.7913 68.8845C35.4957 68.5643 34.9907 68.4041 34.2763 68.4041ZM37.4784 76.6442L41.4076 67H43.1935L47.098 76.6442H45.5214L44.6469 74.3779H39.9172L39.0304 76.6442H37.4784ZM42.2821 68.4534L40.4591 73.0353H44.1173L42.2821 68.4534ZM46.4694 67V68.4041H49.524V76.6442H51.039V68.4041H54.1059V67H46.4694ZM54.6005 68.4041V67H62.237V68.4041H59.1701V76.6442H57.6551V68.4041H54.6005ZM65.232 68.3672H69.8878V67H63.717V76.6442H69.937V75.2647H65.232V72.4195H69.469V71.0523H65.232V68.3672ZM71.8842 76.6442V67H75.5054C76.6262 67 77.4638 67.2833 77.9934 67.8499C78.523 68.4165 78.794 69.1185 78.794 69.9684C78.794 71.3109 78.0427 72.2963 76.7494 72.7274L79.0404 76.6442H77.3283L75.2344 72.986H73.3992V76.6442H71.8842ZM73.3992 68.4041V71.6189H75.3453C76.6878 71.6189 77.2544 70.8922 77.2544 70.0053C77.2544 69.2663 76.9218 68.4041 75.3453 68.4041H73.3992ZM82.2274 69.2171L87.2034 76.6442H88.78V67H87.2773V74.1069L82.523 67H80.737V76.6442H82.2274V69.2171Z" fill="black"/>
</svg>
