<svg width="120" height="120" viewBox="0 0 120 120" fill="none" xmlns="http://www.w3.org/2000/svg">
<path fill-rule="evenodd" clip-rule="evenodd" d="M53.4185 26.1998C53.4238 26.2052 53.4292 26.2106 53.4346 26.2159L54.7143 27.4956L54.7143 27.4956L65.632 38.4134L38.8877 65.1577L26.6885 52.9585C25.7282 51.9982 25.7282 50.4435 26.6885 49.4832L26.6887 49.483L48.6621 27.4956L48.6622 27.4956L49.9506 26.2072C50.9085 25.2493 52.4577 25.2469 53.4185 26.1998ZM48.1829 27.0163L47.4738 26.3073L48.7623 25.0188C50.2465 23.5346 52.5755 23.4131 54.1981 24.6542C54.2327 24.6422 54.269 24.6297 54.307 24.6167C54.6811 24.489 55.2203 24.3157 55.8892 24.1298C57.2252 23.7587 59.0887 23.335 61.1957 23.1277C65.3788 22.7162 70.6958 23.1433 74.6683 26.756C74.679 26.7657 74.6895 26.7757 74.6997 26.786L74.1029 27.3776C74.6997 26.786 74.6999 26.7862 74.7001 26.7865L74.7007 26.787L74.7019 26.7883L74.7053 26.7918L74.7155 26.8022C74.7238 26.8108 74.735 26.8224 74.7487 26.8369C74.7761 26.8659 74.8138 26.9066 74.859 26.9573C74.9489 27.0583 75.0707 27.2016 75.2005 27.3735C75.4461 27.6988 75.7783 28.2016 75.925 28.7527C76.0005 29.0364 76.0399 29.3802 75.9524 29.7377C75.8604 30.1133 75.6427 30.4428 75.3085 30.6922C74.695 31.1498 73.7489 31.2963 72.5253 31.2421C71.7051 31.2062 70.0994 30.8668 68.2498 30.4177C66.3637 29.9597 64.1263 29.3622 61.9854 28.7705C60.1403 28.2605 58.3627 27.7535 56.937 27.3417L67.4146 37.8192L67.4148 37.8194L91.8498 62.2685L91.8518 62.2704C93.4725 63.8757 93.4672 66.4955 91.8531 68.1097L68.577 91.3857C66.9604 93.0023 64.3556 93.0023 62.739 91.3857L25.5001 54.1468C23.8835 52.5302 23.8835 49.9115 25.5001 48.2949L47.4736 26.3074L48.1829 27.0163ZM73.5181 27.9816C70.0697 24.8599 65.3555 24.4072 61.3603 24.8002C59.6671 24.9667 58.1343 25.2826 56.9321 25.5907C58.4225 26.0228 60.3867 26.585 62.4332 27.1506C64.5673 27.7405 66.7852 28.3326 68.6463 28.7845C70.5435 29.2452 71.9766 29.536 72.5991 29.5632L72.5995 29.5632C73.7497 29.6141 74.1831 29.435 74.3036 29.3451C74.3118 29.3389 74.3174 29.3341 74.321 29.3306C74.3226 29.314 74.3233 29.2687 74.301 29.1851C74.2394 28.9537 74.0666 28.6608 73.8592 28.3861C73.7626 28.2581 73.6709 28.1502 73.604 28.0751C73.5707 28.0378 73.5442 28.0092 73.5269 27.9909L73.5181 27.9816ZM66.8202 39.6019L40.076 66.346L63.9274 90.1974C64.8877 91.1577 66.4283 91.1577 67.3886 90.1974L90.6647 66.9213C91.6268 65.9592 91.6221 64.4071 90.668 63.4633L90.6662 63.4616L66.8202 39.6019ZM112 96.4495H8V94.7689H112V96.4495Z" fill="black"/>
</svg>
