<svg width="120" height="120" viewBox="0 0 120 120" fill="none" xmlns="http://www.w3.org/2000/svg">
<path fill-rule="evenodd" clip-rule="evenodd" d="M60.0001 9C60.8398 9 61.6747 9.02029 62.5044 9.06039L62.6009 7.06272C61.7391 7.02107 60.872 7 60.0001 7V9ZM67.4873 9.54561C69.1516 9.79042 70.7895 10.1156 72.3972 10.5171L72.8818 8.57666C71.2106 8.15932 69.508 7.82133 67.7784 7.5669L67.4873 9.54561ZM77.1868 11.9682C78.7651 12.533 80.3076 13.1735 81.8097 13.8852L82.6661 12.0778C81.1047 11.3381 79.5014 10.6723 77.8607 10.0852L77.1868 11.9682ZM86.2218 16.2484C87.6556 17.1096 89.0436 18.0393 90.3813 19.033L91.574 17.4275C90.184 16.395 88.7416 15.4289 87.2516 14.5339L86.2218 16.2484ZM94.2492 22.2109C95.486 23.3325 96.6675 24.514 97.7891 25.7508L99.2706 24.4073C98.1053 23.1223 96.8778 21.8947 95.5928 20.7294L94.2492 22.2109ZM100.967 29.6187C101.961 30.9564 102.89 32.3444 103.752 33.7782L105.466 32.7484C104.571 31.2584 103.605 29.8161 102.573 28.4261L100.967 29.6187ZM106.115 38.1903C106.827 39.6925 107.467 41.2349 108.032 42.8133L109.915 42.1394C109.328 40.4986 108.662 38.8953 107.922 37.334L106.115 38.1903ZM109.483 47.6028C109.884 49.2105 110.21 50.8485 110.454 52.5127L112.433 52.2216C112.179 50.492 111.841 48.7895 111.423 47.1182L109.483 47.6028ZM110.94 57.4957C110.98 58.3253 111 59.1602 111 60C111 60.8697 110.978 61.7364 110.934 62.5994L112.931 62.7009C112.977 61.8042 113 60.9037 113 60C113 59.128 112.979 58.2609 112.937 57.3991L110.94 57.4957ZM110.406 67.7691C110.142 69.4887 109.79 71.187 109.355 72.858L111.291 73.3619C111.743 71.6253 112.108 69.8603 112.383 68.0732L110.406 67.7691ZM107.791 77.8139C107.185 79.4401 106.498 81.0325 105.731 82.5849L107.525 83.4703C108.321 81.857 109.036 80.2022 109.665 78.5122L107.791 77.8139ZM103.196 87.1216C102.276 88.588 101.281 90.0084 100.213 91.3767L101.79 92.6068C102.899 91.1848 103.934 89.7087 104.89 88.1848L103.196 87.1216ZM96.8118 95.3055C95.6165 96.5514 94.3541 97.7403 93.0277 98.8663L94.322 100.391C95.7006 99.2207 97.0127 97.985 98.2551 96.6901L96.8118 95.3055ZM88.8997 102.022C88.5611 102.255 88.2191 102.484 87.8738 102.709V83.0291H85.8738V105.796H108.641V103.796H89.8492C89.9101 103.755 89.971 103.713 90.0318 103.671L88.8997 102.022ZM27.2577 18.3204H8.50488V16.3204H31.2913V39.0874H29.2913V19.2793C16.5285 28.8977 8.98173 43.965 9.00003 59.9989L9.00003 60C9.00003 88.1662 31.8339 111 60 111V113C30.7295 113 7.00034 89.271 7.00003 60.0006C6.98159 43.686 14.4986 28.3363 27.2577 18.3204Z" fill="black"/>
</svg>
