<svg width="120" height="120" viewBox="0 0 120 120" fill="none" xmlns="http://www.w3.org/2000/svg">
<path fill-rule="evenodd" clip-rule="evenodd" d="M31.1197 35.905L36.4878 33.3663L35.8465 32.0103L29.7867 34.8761C29.5996 34.9646 29.4573 35.1266 29.3937 35.3236C29.3301 35.5206 29.3507 35.7351 29.4507 35.9164C29.6992 36.3668 29.9343 36.8971 30.1243 37.5078C30.141 37.578 30.1605 37.6363 30.1707 37.6668C30.1714 37.6691 30.1721 37.6712 30.1728 37.6731C30.1804 37.6961 30.1835 37.706 30.1844 37.7089C30.1875 37.7241 30.1912 37.7391 30.1952 37.7541C30.2223 37.8534 30.2493 37.9477 30.2748 38.0372L30.2754 38.039C30.3014 38.1302 30.3261 38.2166 30.3506 38.3066C30.3543 38.3199 30.3583 38.3332 30.3627 38.3464C30.3694 38.3665 30.3757 38.3905 30.3897 38.4465L30.3914 38.4533C30.4025 38.4978 30.4196 38.566 30.443 38.6389C30.5005 38.8428 30.5458 39.0671 30.5977 39.3267L30.601 39.3423C30.6219 39.4363 30.6415 39.5374 30.6631 39.6491C30.6735 39.7034 30.6845 39.7602 30.6964 39.8199C30.7075 39.9013 30.7219 39.978 30.7328 40.0356L30.7341 40.0429C30.7478 40.1159 30.7563 40.1624 30.7616 40.2049C30.7629 40.215 30.7643 40.2251 30.766 40.2352C30.8179 40.5463 30.8691 40.854 30.9204 41.1784C30.9228 41.1937 30.9257 41.2089 30.929 41.2241C30.9533 41.3335 30.9669 41.4487 30.9848 41.6103C30.986 41.6208 30.9874 41.6312 30.989 41.6416C31.004 41.7396 31.0156 41.8353 31.0287 41.9449L31.0293 41.9496C31.0413 42.0495 31.0547 42.1615 31.0725 42.2793C31.1065 42.602 31.1405 42.9081 31.1743 43.2118C31.1913 43.3825 31.2081 43.5499 31.2248 43.7334C31.2411 43.9306 31.2536 44.1291 31.2665 44.3366L31.2668 44.3402C31.279 44.5362 31.2918 44.7402 31.3085 44.9457C31.3098 45.0205 31.3148 45.0899 31.3183 45.1385L31.3188 45.146C31.3234 45.211 31.3255 45.2447 31.3255 45.2739C31.3255 45.2895 31.326 45.3051 31.327 45.3206C31.3614 45.8711 31.3949 46.408 31.4118 46.943V47.0175L31.412 47.031C31.4978 51.804 31.309 57.1869 31.0159 62.3923C31.0152 62.4063 31.0148 62.4204 31.0148 62.4345V62.4768C30.9979 62.7168 30.9852 62.9595 30.9728 63.1943L30.9726 63.1978C30.9596 63.4451 30.947 63.684 30.9303 63.9175C30.9291 63.9353 30.9284 63.9531 30.9284 63.971V64.061C30.9116 64.5245 30.8784 64.9903 30.844 65.4713C30.8428 65.4891 30.8421 65.5069 30.8421 65.5248V65.6006L30.7464 66.893C30.7341 66.9478 30.7291 66.9929 30.7265 67.0214C30.7226 67.0648 30.7216 67.1071 30.7213 67.1354L30.6246 68.3928C30.6027 68.4997 30.6003 68.5914 30.6003 68.6388C30.5666 69.06 30.533 69.4793 30.4994 69.8821C30.498 69.8996 30.4971 69.9171 30.4969 69.9346C30.4969 69.9347 30.4969 69.9345 30.4969 69.9346C30.4962 69.9424 30.4951 69.9526 30.4928 69.9738L30.4925 69.9764C30.4905 69.9942 30.4874 70.0218 30.485 70.0503C30.4832 70.0718 30.4812 70.0992 30.4802 70.1301C30.4465 70.5342 30.4127 70.9224 30.3788 71.3119C30.3772 71.3303 30.3763 71.3491 30.376 71.3675C30.376 71.3676 30.3761 71.3674 30.376 71.3675C30.3754 71.3754 30.3743 71.3855 30.3719 71.4067L30.3716 71.4093C30.3697 71.4271 30.3666 71.4547 30.3642 71.4832C30.3623 71.5044 30.3604 71.5312 30.3594 71.5614C30.3256 71.9505 30.2919 72.3375 30.2582 72.7078C30.2562 72.7298 30.2552 72.7519 30.2551 72.774C30.255 72.7759 30.2543 72.7844 30.2516 72.8068L30.251 72.812C30.2492 72.8272 30.2461 72.8532 30.2437 72.8792C30.2417 72.9008 30.2397 72.9275 30.2386 72.9578C30.2049 73.3293 30.1712 73.6986 30.1377 74.0512C30.1355 74.0744 30.1343 74.0976 30.1343 74.1209C30.1341 74.1228 30.1334 74.1322 30.1302 74.1603L30.1296 74.1664C30.1257 74.2006 30.1184 74.2659 30.1172 74.3423C30.1007 74.6789 30.0684 75.0196 30.0344 75.3598C30.0323 75.3813 30.031 75.4029 30.0308 75.4246C30.0308 75.4247 30.0308 75.4245 30.0308 75.4246C30.0301 75.4324 30.029 75.4426 30.0267 75.4638L30.0264 75.4664C30.0244 75.4842 30.0213 75.5118 30.0189 75.5403C30.0172 75.5602 30.0153 75.5851 30.0143 75.6131C29.9983 75.7769 29.9859 75.9361 29.9743 76.0852L29.9725 76.1077C29.9601 76.2679 29.9483 76.4163 29.9332 76.5625C29.9226 76.6318 29.9171 76.6929 29.9135 76.7333L29.9129 76.739C29.9084 76.7891 29.9062 76.81 29.9028 76.8304C29.9008 76.8422 29.8991 76.8541 29.8977 76.866C29.8799 77.0172 29.8665 77.1671 29.8543 77.3034L29.8524 77.3248C29.8395 77.4688 29.8278 77.5969 29.8127 77.7184C29.8008 77.8049 29.795 77.8909 29.7912 77.9482L29.7907 77.9569C29.7859 78.0276 29.7832 78.0632 29.7793 78.0906C29.7766 78.1093 29.7746 78.128 29.7734 78.1468C29.7657 78.2615 29.7541 78.3789 29.7411 78.5071L29.7387 78.5304C29.7275 78.6404 29.7153 78.7603 29.7064 78.8786C29.6965 78.9552 29.6914 79.0267 29.6878 79.0768L29.6873 79.0841C29.6827 79.1488 29.68 79.1829 29.6757 79.2128C29.6732 79.2303 29.6713 79.2478 29.6701 79.2654C29.6625 79.3705 29.6511 79.4783 29.638 79.5979L29.6355 79.6212C29.6246 79.7212 29.6125 79.8313 29.6036 79.9403C29.5932 80.0127 29.588 80.0815 29.5847 80.1246L29.584 80.1332C29.5792 80.1965 29.577 80.2183 29.5748 80.2314C29.5709 80.2546 29.5681 80.2779 29.5665 80.3013C29.5591 80.4045 29.5478 80.507 29.535 80.6183L29.5306 80.6564C29.5206 80.7423 29.5096 80.8369 29.5012 80.9301C29.4905 80.9961 29.4851 81.0565 29.4821 81.0901L29.4813 81.0982C29.4776 81.1397 29.4758 81.1539 29.4755 81.1571L29.4731 81.1701C29.4348 81.3806 29.4147 81.604 29.3993 81.7761C29.3983 81.7864 29.3974 81.7966 29.3965 81.8065C29.3861 81.8857 29.3808 81.9601 29.3771 82.0117L29.3766 82.0191C29.3719 82.0837 29.3692 82.1178 29.3649 82.1477C29.3638 82.1554 29.3628 82.1632 29.362 82.1709C29.3446 82.3276 29.3279 82.4776 29.3114 82.6096C29.3075 82.6405 29.3056 82.6715 29.3056 82.7026C29.3056 82.8693 29.3592 83.0059 29.4182 83.1026C29.4742 83.1945 29.5384 83.2566 29.5818 83.2934C29.6268 83.3316 29.6687 83.3586 29.6985 83.3762C29.7293 83.3944 29.7572 83.4083 29.7789 83.4184C29.8209 83.438 29.8593 83.4524 29.8835 83.4611C29.8903 83.4635 29.897 83.4659 29.9035 83.4682C30.0216 83.5457 30.1628 83.5907 30.3146 83.5907H45.9214C46.146 83.5907 46.3281 83.7729 46.3281 83.9974V102.401H47.8281V83.9974C47.8281 82.9445 46.9744 82.0907 45.9214 82.0907H30.8753C30.8785 82.0479 30.881 82.0212 30.8844 81.9973C30.8862 81.9846 30.8877 81.9719 30.8888 81.9591L30.892 81.9241C30.9088 81.7388 30.923 81.5824 30.9481 81.4427C30.9637 81.3617 30.9708 81.2825 30.9744 81.2421L30.9752 81.234C30.9793 81.1891 30.9809 81.1762 30.9811 81.1745C30.9811 81.1741 30.9812 81.1738 30.9811 81.1745C30.9867 81.1465 30.9905 81.1188 30.9929 81.0903C30.9995 81.0116 31.009 80.9294 31.0206 80.8291L31.0251 80.7903C31.0372 80.6856 31.0506 80.5659 31.0604 80.4389C31.0705 80.3672 31.0757 80.2995 31.079 80.2568L31.0796 80.2482C31.0845 80.1848 31.0867 80.1631 31.0889 80.15C31.0925 80.1282 31.0952 80.1062 31.0969 80.0842C31.1041 79.9908 31.1148 79.8924 31.1274 79.7768L31.1292 79.7606C31.1413 79.6497 31.1548 79.5247 31.1645 79.3966C31.1743 79.32 31.1794 79.2484 31.183 79.1983L31.1835 79.191C31.1881 79.1263 31.1909 79.0923 31.1951 79.0624C31.1976 79.0449 31.1995 79.0273 31.2008 79.0097C31.2081 78.907 31.2191 78.7992 31.2317 78.6752L31.2334 78.6588C31.2455 78.5399 31.2588 78.4074 31.2683 78.272C31.2783 78.1936 31.2833 78.1176 31.2868 78.0653L31.2873 78.0567C31.2921 77.9859 31.2948 77.9503 31.2987 77.9229L31.3005 77.9099C31.3196 77.7568 31.3336 77.6017 31.3464 77.4586L31.3478 77.4438C31.3599 77.3077 31.3713 77.1813 31.3857 77.0564C31.3968 76.985 31.4025 76.9219 31.4062 76.8806L31.4068 76.8748C31.4113 76.8247 31.4135 76.8038 31.4169 76.7835C31.4194 76.7686 31.4214 76.7537 31.423 76.7387C31.4415 76.5631 31.4551 76.3895 31.468 76.2242L31.4694 76.2067C31.482 76.0451 31.494 75.8907 31.5097 75.7335C31.5119 75.7119 31.5131 75.6903 31.5134 75.6687C31.5134 75.6687 31.5134 75.6686 31.5134 75.6687C31.514 75.6608 31.5151 75.6507 31.5175 75.6295L31.5178 75.6268C31.5198 75.609 31.5228 75.5814 31.5253 75.553C31.527 75.5332 31.5288 75.5085 31.5298 75.4807C31.5635 75.1426 31.5984 74.7732 31.6162 74.3997M31.617 74.3655C31.6172 74.3636 31.6179 74.3542 31.6211 74.326L31.6217 74.32C31.6252 74.2889 31.6316 74.2322 31.6336 74.1649C31.6674 73.8091 31.7012 73.4377 31.7348 73.0682C31.7364 73.05 31.7374 73.0316 31.7378 73.0134C31.7383 73.0082 31.7392 73.0008 31.7412 72.9837L31.7416 72.9797C31.7455 72.9471 31.7525 72.8878 31.7545 72.8163C31.7883 72.4444 31.822 72.0567 31.8555 71.6708L31.8559 71.6667C31.8575 71.6484 31.8584 71.63 31.8587 71.6116C31.8586 71.6117 31.8587 71.6115 31.8587 71.6116C31.8593 71.6037 31.8604 71.5936 31.8628 71.5724L31.8631 71.5697C31.865 71.5519 31.8681 71.5243 31.8705 71.4959C31.8724 71.4747 31.8743 71.4479 31.8753 71.4177C31.9091 71.0289 31.943 70.6384 31.977 70.2311C31.9784 70.2137 31.9793 70.1962 31.9795 70.1786C31.9795 70.1787 31.9795 70.1786 31.9795 70.1786C31.9802 70.1708 31.9813 70.1606 31.9836 70.1394L31.9839 70.1368C31.9859 70.119 31.989 70.0914 31.9914 70.0629C31.9932 70.0414 31.9952 70.014 31.9962 69.9831C32.0302 69.5745 32.0642 69.1499 32.098 68.7267C32.0995 68.7083 32.1003 68.6899 32.1004 68.6715C32.1078 68.6378 32.1128 68.6035 32.1155 68.569L32.2191 67.2224C32.2199 67.2111 32.2205 67.1998 32.2209 67.1884C32.2286 67.1535 32.2338 67.118 32.2365 67.0821L32.3401 65.6837C32.3414 65.6653 32.3421 65.6468 32.3421 65.6283V65.5525C32.3759 65.0796 32.4105 64.5911 32.428 64.1013C32.4283 64.0924 32.4284 64.0835 32.4284 64.0746V63.9977C32.4453 63.7577 32.458 63.515 32.4704 63.2801L32.4706 63.2767C32.4836 63.0294 32.4962 62.7905 32.5129 62.557C32.5141 62.5392 32.5148 62.5213 32.5148 62.5035V62.4561C32.8079 57.2429 32.9982 51.8286 32.9118 47.0108V46.9318C32.9118 46.924 32.9117 46.9156 32.9115 46.9078C32.894 46.3488 32.8593 45.7917 32.8253 45.2477C32.8243 45.1697 32.8191 45.097 32.8155 45.0466L32.815 45.0391C32.8103 44.9742 32.8082 44.9405 32.8082 44.9113C32.8082 44.8905 32.8074 44.8697 32.8057 44.849C32.7891 44.6509 32.7767 44.4515 32.7636 44.243L32.7634 44.2394C32.7506 44.0346 32.7372 43.8209 32.7193 43.606L32.7188 43.6004C32.7013 43.4069 32.6837 43.2312 32.6665 43.0591L32.6655 43.0503C32.631 42.7392 32.5967 42.4306 32.5624 42.105C32.5612 42.0932 32.5596 42.0813 32.5578 42.0695C32.5428 41.9715 32.5312 41.8757 32.518 41.7662L32.5175 41.7615C32.5054 41.661 32.4919 41.5483 32.474 41.4296C32.4583 41.2886 32.4383 41.1091 32.3986 40.923C32.3481 40.6041 32.2977 40.3015 32.2479 40.0022C32.2365 39.9162 32.2212 39.8344 32.2098 39.7737L32.2084 39.7665C32.1947 39.6935 32.1863 39.647 32.1809 39.6045C32.1787 39.5864 32.1758 39.5683 32.1722 39.5504C32.1627 39.5032 32.1524 39.4496 32.1414 39.3933C32.1179 39.2716 32.0918 39.1369 32.0671 39.025L32.0658 39.0187C32.0159 38.7691 31.9591 38.485 31.8817 38.2139C31.8787 38.2035 31.8755 38.1931 31.872 38.1828C31.8653 38.1627 31.859 38.1387 31.845 38.0827L31.8433 38.0759C31.8324 38.0322 31.8157 37.9656 31.7929 37.8942C31.7675 37.8014 31.7422 37.713 31.7182 37.6288L31.7176 37.6269C31.6934 37.5422 31.6704 37.4617 31.6476 37.3786C31.6303 37.3019 31.6088 37.2376 31.5979 37.205C31.5971 37.2028 31.5964 37.2007 31.5958 37.1987C31.5881 37.1757 31.5851 37.1658 31.5842 37.1629C31.5794 37.1399 31.5735 37.117 31.5666 37.0945C31.4349 36.6666 31.2835 36.2701 31.1197 35.905" fill="black"/>
<path fill-rule="evenodd" clip-rule="evenodd" d="M47.8281 102.401C47.8281 103.454 46.9744 104.308 45.9214 104.308H29.952V102.808H45.9214C46.146 102.808 46.3281 102.626 46.3281 102.401H47.8281Z" fill="black"/>
<path fill-rule="evenodd" clip-rule="evenodd" d="M30.7192 106.553L30.7711 110.981C30.7711 111.129 30.8931 111.25 31.0396 111.25H59.3702V112.75H31.0396C30.0829 112.75 29.2738 111.976 29.2711 110.986L29.2193 106.571L30.7192 106.553Z" fill="black"/>
<path fill-rule="evenodd" clip-rule="evenodd" d="M88.9015 110.974L88.9533 105.57L90.4532 105.585L90.4015 110.985C90.3992 111.95 89.5982 112.75 88.6329 112.75L59.3702 112.75V111.25L88.6329 111.25C88.7711 111.25 88.9015 111.12 88.9015 110.981L88.9015 110.974Z" fill="black"/>
<path fill-rule="evenodd" clip-rule="evenodd" d="M73.7513 104.308C72.6983 104.308 71.8446 103.454 71.8446 102.401H73.3446C73.3446 102.626 73.5267 102.808 73.7513 102.808H89.7034V104.308H73.7513Z" fill="black"/>
<path fill-rule="evenodd" clip-rule="evenodd" d="M104.668 99.1498C100.932 66.3913 91.5497 42.1041 88.9243 35.7723L90.3099 35.1977C92.9672 41.6066 102.402 66.0372 106.159 98.9841L106.16 98.9925L106.712 104.379C106.75 104.742 106.52 105.08 106.168 105.178L98.0535 107.44C97.6783 107.544 97.2855 107.344 97.1494 106.979L95.1985 101.748C95.1952 101.739 95.1921 101.731 95.1892 101.722L88.8532 82.5757L90.2773 82.1044L96.6088 101.237L98.3141 105.81L105.156 103.903L104.669 99.154C104.668 99.1526 104.668 99.1512 104.668 99.1498Z" fill="black"/>
<path fill-rule="evenodd" clip-rule="evenodd" d="M29.2021 106.576L29.3056 82.6993L30.8056 82.7058L30.702 106.582L29.2021 106.576Z" fill="black"/>
<path fill-rule="evenodd" clip-rule="evenodd" d="M88.5658 35.9374L83.2021 33.4007L83.8434 32.0447L89.9031 34.9106C90.0927 35.0003 90.2362 35.1653 90.2985 35.3656C90.3609 35.5659 90.3365 35.7832 90.2313 35.9647C89.6133 37.0308 89.1549 38.7203 88.8364 40.736C88.5216 42.7283 88.3549 44.959 88.2777 47.0552C88.055 59.5364 89.6722 76.218 90.3628 82.762C90.3649 82.7814 90.3662 82.8009 90.3667 82.8204L90.3839 83.4592L90.3842 83.4761L90.4878 106.351L88.9878 106.358L88.8843 83.4913L88.868 82.8902C88.1759 76.3286 86.5531 59.5883 86.7781 47.0213L86.7784 47.0072C86.8567 44.8757 87.0268 42.5773 87.3547 40.5019C87.6239 38.7985 88.0075 37.1883 88.5658 35.9374Z" fill="black"/>
<path fill-rule="evenodd" clip-rule="evenodd" d="M81.04 91.365L89.3109 87.4123L89.9577 88.7656L81.0334 93.0307L72.283 88.7631L72.9405 87.4148L81.04 91.365Z" fill="black"/>
<path fill-rule="evenodd" clip-rule="evenodd" d="M59.7844 38.7921C60.1986 38.7921 60.5344 39.1279 60.5344 39.5421C60.5344 40.0535 60.5318 40.1576 60.521 40.2486C60.5207 40.2557 60.5202 40.2698 60.5197 40.2949C60.5182 40.3688 60.5171 40.5089 60.5171 40.7851V40.7895C60.4481 52.6584 60.3833 64.5274 60.3186 76.3966C60.2538 88.2657 60.1891 100.135 60.12 112.004C60.1176 112.418 59.7799 112.752 59.3657 112.75C58.9515 112.747 58.6177 112.41 58.6201 111.996C58.6891 100.127 58.7539 88.2576 58.8186 76.3884C58.8833 64.5201 58.9481 52.6515 59.0171 40.7829C59.0171 40.2734 59.0198 40.1694 59.0306 40.0786C59.0309 40.0715 59.0314 40.0574 59.0318 40.0323C59.0333 39.9584 59.0344 39.8183 59.0344 39.5421C59.0344 39.1279 59.3702 38.7921 59.7844 38.7921Z" fill="black"/>
<path fill-rule="evenodd" clip-rule="evenodd" d="M38.432 91.365L46.7028 87.4123L47.3496 88.7656L38.4254 93.0307L29.675 88.7631L30.3325 87.4148L38.432 91.365Z" fill="black"/>
<path fill-rule="evenodd" clip-rule="evenodd" d="M71.8446 83.9975C71.8446 82.9445 72.6983 82.0908 73.7513 82.0908H89.6171V83.5908H73.7513C73.5267 83.5908 73.3446 83.7729 73.3446 83.9975V89.5561L73.3618 102.59L71.8618 102.592L71.8446 83.9975Z" fill="black"/>
<path fill-rule="evenodd" clip-rule="evenodd" d="M15.298 99.1498C15.2979 99.1512 15.2977 99.1526 15.2975 99.154L14.8105 103.903L21.652 105.81L23.3573 101.237L29.6715 82.122L31.0958 82.5925L24.7771 101.721C24.7741 101.73 24.771 101.739 24.7677 101.748L22.8168 106.979C22.6807 107.344 22.2879 107.544 21.9127 107.44L13.7985 105.178C13.4466 105.08 13.2165 104.742 13.2538 104.379L13.8071 98.984C17.5636 66.0418 26.7203 41.7157 29.398 35.2997L30.7823 35.8774C28.1427 42.2021 19.0346 66.3866 15.298 99.1498Z" fill="black"/>
<path fill-rule="evenodd" clip-rule="evenodd" d="M47.7932 8.85366C51.6956 7.67062 55.6742 7.23302 59.7011 7.2505C64.8268 7.26796 69.9138 7.84249 74.7587 9.9544L74.7598 9.95487C78.9236 11.7777 81.8114 14.4916 83.559 17.7758C85.3026 21.0523 85.8854 24.8468 85.5301 28.8013C84.765 37.5389 78.1091 41.736 71.8394 42.6495L71.8383 42.6497C69.8655 42.9341 67.8185 42.9815 65.7816 42.3088C64.3078 41.8236 62.9847 41.0148 61.9222 39.8389C61.1405 38.9789 60.6673 37.9968 60.5578 36.9461C60.4483 35.8955 60.7087 34.8356 61.2944 33.83L61.295 33.8291C62.1557 32.3563 63.4464 31.3435 64.6437 30.4198L64.6457 30.4183C65.9682 29.405 67.2522 28.3733 68.4113 27.2479C69.0245 26.65 69.5338 25.8788 69.9634 25.0695C70.5106 24.0273 70.6411 23.0093 70.4342 22.091C70.2268 21.1703 69.6667 20.29 68.7298 19.5528C66.8729 18.0963 64.6956 17.4236 62.2968 17.2248C59.2111 16.9849 56.27 16.9826 53.5061 18.1044C52.4659 18.527 51.4633 19.1105 50.6129 19.8165L50.6119 19.8174C49.7801 20.5055 49.3034 21.3091 49.1317 22.1571C48.9592 23.0086 49.0829 23.9627 49.5525 24.9634C50.3559 26.6804 51.7244 27.9727 53.2915 29.2163C53.617 29.4716 53.9541 29.7122 54.3085 29.9652C54.4151 30.0414 54.5233 30.1186 54.6333 30.1977C55.0992 30.533 55.584 30.8934 56.0386 31.3016L56.0407 31.3035C56.791 31.9824 57.5451 32.7695 58.1428 33.6473L58.1496 33.6574C58.8417 34.7101 59.1526 35.8299 59.0371 36.9456C58.9219 38.0583 58.3904 39.0917 57.5306 39.9905C56.0237 41.5728 54.1348 42.4764 52.0034 42.7381L52.0014 42.7383C46.455 43.4046 39.4684 41.0098 36.1091 35.35L36.1085 35.349C34.3419 32.3621 33.7895 29.1171 33.9679 25.7612C34.218 20.7811 35.9427 16.3945 39.8742 13.0247L39.8752 13.0237C42.2163 11.0249 44.9226 9.72192 47.7932 8.85366ZM59.6949 8.75049C55.7805 8.73347 51.9559 9.15905 48.2279 10.2893C45.5051 11.1128 42.9972 12.3306 40.8497 14.1641C37.2892 17.2162 35.6994 21.1849 35.4659 25.8375L35.4658 25.8397C35.299 28.9746 35.8171 31.9096 37.3993 34.5849C40.393 39.628 46.733 41.8598 51.8208 41.2493C53.6255 41.0276 55.1893 40.2739 56.4446 38.9559L56.4458 38.9546C57.1219 38.2481 57.4704 37.5124 57.5451 36.7912C57.6194 36.074 57.4306 35.2965 56.8994 34.4864C56.3929 33.7438 55.7332 33.0482 55.0354 32.4167C54.6443 32.0657 54.2144 31.7444 53.7571 31.4153C53.6579 31.3439 53.5567 31.2716 53.4543 31.1985C53.0943 30.9416 52.7195 30.674 52.3641 30.3953L52.3608 30.3927C50.752 29.1161 49.1514 27.6457 48.1942 25.5998C47.6109 24.3563 47.4153 23.075 47.6615 21.8594C47.9084 20.64 48.5884 19.5446 49.6557 18.6616C50.6349 17.8489 51.7727 17.1896 52.9418 16.7146C56.0472 15.4542 59.2862 15.4861 62.415 15.7295L62.4187 15.7298C65.0254 15.9455 67.5086 16.6883 69.6564 18.3732L69.6572 18.3739C70.8265 19.2939 71.6043 20.4595 71.8976 21.7614C72.1913 23.0654 71.9853 24.4465 71.2903 25.769L71.2889 25.7716C70.8209 26.6537 70.2256 27.5739 69.4581 28.3223L69.457 28.3233C68.234 29.5108 66.8945 30.5849 65.5589 31.6083C65.5586 31.6085 65.5583 31.6088 65.558 31.609L65.1018 31.0137L65.5599 31.6075C65.5596 31.6078 65.5593 31.608 65.5589 31.6083C64.3397 32.5489 63.2829 33.4004 62.59 34.586C62.5902 34.5857 62.5904 34.5854 62.5906 34.5851L61.9425 34.2075L62.59 34.586C62.1403 35.3583 61.9779 36.1022 62.0497 36.7906C62.1214 37.4791 62.4335 38.1715 63.0326 38.8305L63.0343 38.8323C63.905 39.7963 64.9982 40.4718 66.2513 40.8842C67.9776 41.4544 69.7637 41.4331 71.6231 41.1652L71.7311 41.906L71.6243 41.1651C77.4389 40.3174 83.3503 36.5041 84.0359 28.6694L84.036 28.6677C84.3711 24.9398 83.8145 21.4491 82.2348 18.4804C80.6592 15.5194 78.0398 13.0283 74.1588 11.3292C69.5778 9.33247 64.7202 8.76758 59.6949 8.75049Z" fill="black"/>
</svg>
