<svg width="120" height="120" viewBox="0 0 120 120" fill="none" xmlns="http://www.w3.org/2000/svg">
<path fill-rule="evenodd" clip-rule="evenodd" d="M45.3282 16.636C46.0089 18.437 47.2852 19.3445 49.1712 19.3445C50.2489 19.3445 51.1139 19.0467 51.7662 18.437C52.4186 17.8272 52.7447 17.0898 52.7447 16.239C52.7447 15.5441 52.4895 14.9202 51.979 14.3671C51.4259 13.7573 50.49 13.2894 49.1854 12.9632C47.4979 12.5236 46.8172 11.9848 46.8172 10.9779C46.8172 10.4249 47.0441 9.97111 47.4979 9.61659C47.9517 9.26208 48.4905 9.09191 49.1145 9.09191C50.334 9.09191 51.1848 9.6875 51.6528 10.8645L52.6454 10.3114C52.1208 8.90756 50.9012 8 49.1428 8C48.1785 8 47.3561 8.28361 46.6754 8.83666C45.9947 9.3897 45.6544 10.1129 45.6544 11.0347C45.6544 12.5803 46.7038 13.5588 48.9727 14.1119C50.6743 14.5231 51.5535 15.1896 51.5535 16.324C51.5535 16.8913 51.3266 17.3592 50.8587 17.7137C50.4049 18.0683 49.8377 18.2526 49.1712 18.2526C47.7389 18.2526 46.9023 17.4868 46.3351 16.1113L45.3282 16.636ZM12.5882 17.7705C13.6518 18.8198 14.9706 19.3445 16.5305 19.3445C17.7925 19.3445 18.8703 19.0184 19.7353 18.3519C20.6145 17.6854 21.2242 16.8771 21.5504 15.927L20.501 15.4307C19.8629 17.1749 18.5441 18.2384 16.573 18.2384C15.3109 18.2384 14.2757 17.7988 13.4533 16.9338C12.6308 16.0688 12.2195 14.9627 12.2195 13.6439C12.2195 12.3251 12.645 11.2474 13.4816 10.3965C14.3325 9.54569 15.3535 9.12027 16.5588 9.12027C17.6224 9.12027 18.4732 9.3897 19.1113 9.92857C19.7636 10.4533 20.2174 11.1197 20.4868 11.8997L21.5362 11.4175C21.2384 10.4816 20.657 9.6875 19.792 9.02101C18.927 8.35452 17.8634 8.01418 16.5872 8.01418C15.0415 8.01418 13.7227 8.55305 12.6308 9.63077C11.5389 10.6943 11 12.0557 11 13.7148C11 15.3598 11.5247 16.7069 12.5882 17.7705ZM24.8107 19.2311V14.1544H31.1353V19.2311H32.2981V8.12763H31.1353V13.0341H24.8107V8.12763H23.6479V19.2311H24.8107ZM36.2988 16.3949L35.0793 19.2311H33.8881L38.6812 8.12763H40L44.793 19.2311H43.5593L42.354 16.3949H36.2988ZM41.9002 15.3314L39.3193 9.33298L36.7384 15.3314H41.9002ZM56.2463 14.1544V19.2311H55.0835V8.12763H56.2463V13.0341H62.5709V8.12763H63.7337V19.2311H62.5709V14.1544H56.2463ZM77.2638 19.2311H78.4124V8.12763H76.7391L72.6267 17.6428L68.4718 8.12763H66.8269V19.2311H67.9755V9.78676L72.0737 19.2311H73.1231L77.2496 9.71586H77.2638V19.2311ZM88.4546 8.12763V9.20536H82.6688V13.0483H87.9582V14.126H82.6688V18.1533H88.5113V19.2311H81.506V8.12763H88.4546ZM92.0857 14.7358H94.3546L97.6303 19.2311H99.0484L95.6167 14.5373C96.4959 14.4238 97.2191 14.0977 97.8005 13.5446C98.3819 12.9916 98.6655 12.2684 98.6655 11.3608C98.6655 10.4391 98.3393 9.65914 97.6729 9.04937C97.0206 8.4396 96.0563 8.12763 94.7658 8.12763H90.9229V19.2311H92.0857V14.7358ZM92.0857 13.6723V9.21954H94.6949C96.6377 9.21954 97.4885 10.1555 97.4885 11.4034C97.4885 12.0273 97.2474 12.5662 96.7795 13.0058C96.3115 13.4454 95.6025 13.6723 94.6666 13.6723H92.0857ZM108.078 8.12763V9.20536H102.292V13.0483H107.581V14.126H102.292V18.1533H108.134V19.2311H101.129V8.12763H108.078ZM30.3846 104.513L31.434 104.03C31.122 103.109 30.5406 102.315 29.6756 101.662C28.8247 100.996 27.7612 100.67 26.4849 100.67C24.8967 100.67 23.5637 101.223 22.5002 102.315C21.4366 103.407 20.8977 104.768 20.8977 106.37C20.8977 107.987 21.4083 109.334 22.4293 110.398C23.4503 111.461 24.7832 112 26.4424 112C28.0164 112 29.2785 111.518 30.2144 110.554C31.1645 109.589 31.6325 108.384 31.6325 106.938V106.512H25.7475V107.59H30.3846C30.3279 108.611 29.9166 109.419 29.1509 110.015C28.3993 110.61 27.5059 110.908 26.4707 110.908C25.1519 110.908 24.1026 110.468 23.2943 109.589C22.5002 108.696 22.1031 107.604 22.1031 106.299C22.1031 104.981 22.5285 103.903 23.3652 103.052C24.216 102.201 25.2512 101.776 26.4566 101.776C27.5201 101.776 28.3709 102.045 29.0091 102.57C29.6472 103.095 30.1152 103.733 30.3846 104.513ZM42.6143 110.355C43.6778 109.263 44.2167 107.902 44.2167 106.299C44.2167 104.711 43.6778 103.378 42.6143 102.3C41.5507 101.209 40.2319 100.67 38.6579 100.67C37.0555 100.67 35.7225 101.223 34.659 102.315C33.5954 103.407 33.0565 104.768 33.0565 106.37C33.0565 107.959 33.5812 109.291 34.6448 110.383C35.7083 111.461 37.0413 112 38.6154 112C40.2178 112 41.5507 111.447 42.6143 110.355ZM41.7635 103.109C42.6001 104.002 43.0114 105.094 43.0114 106.37C43.0114 107.632 42.6001 108.696 41.7776 109.589C40.9552 110.468 39.92 110.908 38.6579 110.908C37.3958 110.908 36.3464 110.454 35.5098 109.561C34.6731 108.668 34.2619 107.576 34.2619 106.299C34.2619 105.037 34.6731 103.974 35.4956 103.095C36.3181 102.201 37.3533 101.762 38.6154 101.762C39.8774 101.762 40.9268 102.215 41.7635 103.109ZM47.4291 109.05L46.2095 111.887H45.0184L49.8114 100.783H51.1302L55.9233 111.887H54.6896L53.4842 109.05H47.4291ZM47.8687 107.987H53.0304L50.4495 101.988L47.8687 107.987ZM58.932 101.875V111.887H60.109V101.875H63.8101V100.783H55.2167V101.875H58.932ZM75.5035 105.86V106.938H70.2709V111.887H69.1081V100.783H75.9857V101.875H70.2709V105.86H75.5035ZM86.3058 100.783H85.143V107.632C85.143 109.717 84.0937 110.908 82.1793 110.908C80.3216 110.908 79.1304 109.873 79.1304 107.561V100.783H77.9676V107.618C77.9676 108.951 78.3363 110.015 79.0595 110.809C79.7828 111.603 80.8179 112 82.1367 112C84.7602 112 86.3058 110.369 86.3058 107.547V100.783ZM92.689 107.391H90.4201V111.887H89.2573V100.783H93.1003C94.3907 100.783 95.355 101.095 96.0073 101.705C96.6738 102.315 96.9999 103.095 96.9999 104.016C96.9999 104.924 96.7163 105.647 96.1349 106.2C95.5535 106.753 94.8303 107.079 93.9511 107.193L97.3828 111.887H95.9647L92.689 107.391ZM90.4201 101.875V106.328H93.001C93.9369 106.328 94.646 106.101 95.1139 105.661C95.5819 105.222 95.8229 104.683 95.8229 104.059C95.8229 102.811 94.9721 101.875 93.0294 101.875H90.4201ZM66.3014 33.5389C66.276 33.6093 66.2769 33.6892 66.2653 33.9039C66.2653 33.9039 66.4479 34.151 66.6735 34.3336C66.7945 34.3549 66.8871 34.3292 67.0483 34.2844C67.1305 34.2615 67.2304 34.2337 67.3611 34.2047C67.5572 34.1623 67.7168 34.1068 67.8694 34.0537C68.026 33.9992 68.1753 33.9473 68.3494 33.9146C68.5889 33.8697 68.8493 33.8769 69.1559 33.8855C69.2894 33.8892 69.4317 33.8931 69.5849 33.8931C70.0898 33.8931 70.874 34.0113 71.2607 34.1187C71.6475 34.2262 71.9268 34.3336 72.1739 34.5377C72.421 34.7526 72.5069 34.9996 72.6036 35.2897C72.7003 35.5798 72.7433 36.0525 72.7003 36.74C72.6573 37.4168 72.378 38.5018 72.1954 39.1679C72.0545 39.6735 71.5555 40.844 71.1474 41.8014C71.0265 42.0851 70.9136 42.35 70.8203 42.5734C70.4121 43.551 68.8114 46.8383 68.3279 47.7085C68.2627 47.8286 68.1954 47.9544 68.1268 48.0827C67.6984 48.8839 67.2188 49.7808 66.8669 49.9753C66.4587 50.2009 65.7281 50.4265 65.0621 50.5769C64.6537 50.6625 64.2978 50.6956 63.8409 50.7382C63.5526 50.765 63.2241 50.7956 62.8168 50.8454L62.724 50.8559C61.6883 50.9722 60.4427 51.1121 60.0881 51.0496C59.7229 50.9851 59.6691 50.9421 59.4221 50.695C59.2014 50.4744 59.1696 50.2931 59.1246 50.0366C59.117 49.9934 59.1091 49.9481 59.0998 49.9001C59.0629 49.7095 59.114 49.3711 59.1725 48.9835C59.2162 48.694 59.264 48.377 59.2824 48.0738C59.2989 47.8567 59.3143 47.7353 59.3278 47.629C59.3584 47.3883 59.3791 47.2257 59.3791 46.2045C59.3791 45.848 59.381 45.5797 59.3824 45.3657C59.3871 44.6898 59.3881 44.5557 59.3146 43.8948C59.2287 43.0246 59.1535 42.2941 58.9494 41.295C58.9254 41.1834 58.9013 41.0701 58.8768 40.9553C58.6824 40.0422 58.4681 39.036 58.1437 38.0721C57.8288 37.1369 57.3943 36.3134 57.0877 35.7324C57.0386 35.6393 56.9927 35.5524 56.9512 35.4723C56.6504 34.8922 55.3398 32.937 54.0399 31.8949C53.4383 31.4008 52.8259 30.9711 52.4177 30.7669C51.9987 30.5521 51.4293 30.4339 50.9029 30.3265C50.4532 30.2347 50.1211 30.237 49.7458 30.2396C49.6818 30.2401 49.6166 30.2405 49.5493 30.2405C49.0874 30.2405 48.6254 30.3587 48.3784 30.4876C48.1205 30.6058 47.8949 30.8207 47.7123 31.0463C47.5189 31.2719 47.2503 31.7768 47.0892 32.2924C46.9281 32.8081 46.9066 33.4527 46.9066 33.8716C46.9066 34.2799 47.0892 34.8815 47.2718 35.3649C47.4545 35.8483 47.7553 36.031 47.7553 36.031C47.7553 36.031 47.9809 35.0749 48.099 34.6344C48.2172 34.1939 48.2817 34.065 48.3998 33.8824C48.518 33.6998 48.851 33.5708 49.0229 33.5494C49.4901 33.4944 49.7542 33.6582 49.9951 33.8075C50.0367 33.8333 50.0776 33.8587 50.1187 33.8824C50.1597 33.9056 50.2048 33.9305 50.2527 33.957C50.4935 34.0901 50.8043 34.2618 51.0104 34.441C51.1727 34.5823 51.3241 34.7076 51.4693 34.8278C51.8429 35.137 52.1752 35.4121 52.5466 35.8376C52.9772 36.3273 53.275 36.8435 53.5341 37.2923C53.6047 37.4147 53.6724 37.532 53.7391 37.6424C54.0506 38.1581 54.4481 39.3398 54.6952 40.0918C54.953 40.8438 55.1356 41.7784 55.1571 42.09C55.1786 42.4015 55.2968 44.4642 55.2753 44.6898C55.2538 44.9154 55.1679 45.1732 54.8456 45.3343C54.7654 45.3744 54.5438 45.2191 54.3387 45.0753C54.2141 44.988 54.0955 44.9049 54.0184 44.8724C53.8376 44.8091 53.1323 44.2061 52.7082 43.8435C52.6282 43.7751 52.5582 43.7152 52.5036 43.6692C52.3606 43.5485 52.1934 43.4092 52.0205 43.2652C51.778 43.0632 51.5244 42.852 51.3112 42.6701C51.148 42.5349 50.914 42.3066 50.6567 42.0556C50.3209 41.728 49.9454 41.3617 49.6353 41.1124C49.0874 40.6826 48.6899 40.3926 48.4643 40.3066C48.4052 40.2878 48.3468 40.2684 48.2899 40.2494C48.1192 40.1925 47.9621 40.1401 47.8412 40.124C47.6801 40.1025 47.4652 40.1455 47.0355 40.3066C46.7594 40.4171 46.7183 40.4654 46.6502 40.5457C46.6123 40.5904 46.566 40.645 46.4661 40.7256C46.2832 40.8793 46.2149 41.008 46.1526 41.1254C46.1234 41.1803 46.0956 41.2328 46.0579 41.2843C45.9397 41.4561 45.7571 41.8321 45.5745 42.3908C45.3918 42.9601 45.1877 43.7229 45.0051 44.4749C44.8902 44.941 44.7839 45.5686 44.6914 46.1145C44.6368 46.4367 44.587 46.7304 44.5431 46.9458C44.4798 47.2879 44.4276 48.1346 44.3823 48.8708C44.3507 49.3828 44.3225 49.8414 44.296 50.0397C44.248 50.3998 44.2716 51.5946 44.2867 52.3627C44.2919 52.6257 44.296 52.8387 44.296 52.951C44.296 53.3259 44.4922 54.7062 44.5709 55.2594C44.5824 55.3404 44.5914 55.4036 44.5969 55.4434C44.6179 55.5961 44.701 56.0742 44.7877 56.5739C44.878 57.0933 44.9722 57.636 45.0051 57.8606C45.0695 58.2903 45.1125 60.1273 45.048 60.7074C44.9836 61.2875 44.801 62.1792 44.7043 62.5122C44.6183 62.8453 42.2549 69.0869 42.1904 69.248C42.1545 69.325 41.4971 71.2519 40.7962 73.3061C40.0285 75.556 39.2088 77.9586 39.0965 78.2506C38.8816 78.8092 37.0124 84.2989 36.8942 84.6534C36.8615 84.7611 36.7436 85.1227 36.5919 85.5878C36.2444 86.6535 35.7195 88.2627 35.6373 88.6068C35.5298 89.1009 35.4761 89.6703 35.4761 89.8315C35.4761 89.9926 35.5943 90.3041 35.6373 90.4116C35.6802 90.519 35.8199 90.6587 35.9596 90.7016C35.9743 90.7066 35.9898 90.7121 36.0061 90.7178C36.1316 90.7623 36.3031 90.8232 36.5504 90.7661C36.7449 90.7287 36.8456 90.6236 36.9904 90.4726C37.0535 90.4067 37.1251 90.332 37.2165 90.2504C37.4009 90.0792 37.5328 89.803 37.6865 89.4812C37.7835 89.2781 37.8892 89.0569 38.0222 88.8324C38.3368 88.3015 41.5303 81.0592 42.2595 79.4054C42.3271 79.252 42.3736 79.1467 42.3946 79.0993C42.5376 78.7758 43.9128 75.228 45.1202 72.1131C45.9978 69.8489 46.7868 67.8134 46.9495 67.411C47.129 66.9674 47.4749 66.0452 47.822 65.1196C48.2232 64.0501 48.6261 62.9759 48.7758 62.6304C49.0444 61.9858 49.227 60.7934 49.1841 59.8802C49.1476 59.097 49.0263 58.5762 48.9051 58.0562C48.8833 57.9628 48.8616 57.8695 48.8403 57.7746C48.7748 57.4824 48.7542 57.3178 48.7297 57.1223C48.702 56.9009 48.6694 56.64 48.561 56.1095C48.3461 55.1211 48.2817 53.5097 48.2817 52.3709C48.2817 51.9804 48.2791 51.5937 48.2767 51.2181C48.272 50.4985 48.2675 49.8199 48.2817 49.234C48.3032 48.3423 48.6469 46.5698 48.7651 46.3227C48.8725 46.0756 49.0552 45.9467 49.3345 45.9252C49.6115 45.9054 49.688 45.9676 49.8243 46.0782C49.836 46.0877 49.8481 46.0976 49.8609 46.1078C49.9863 46.2081 50.2743 46.5686 50.5478 46.9109C50.6257 47.0085 50.7025 47.1047 50.774 47.1929C51.0963 47.5903 51.8483 48.6646 52.1491 49.1051C52.3514 49.4048 53.1025 50.4362 53.6405 51.175C53.8738 51.4954 54.067 51.7608 54.158 51.8875C54.1904 51.9325 54.2285 51.9886 54.2724 52.0531C54.6374 52.5894 55.4019 53.7127 56.543 53.9716C57.3272 54.1435 58.3048 54.2187 59.7014 54.1972C61.098 54.1757 62.2152 54.0683 64.1597 53.8427C66.1042 53.6171 67.0603 53.4023 68.0486 53.1767C69.0262 52.9403 69.5956 52.7577 70.4013 52.4246C71.1761 52.1001 71.4202 51.9388 71.9592 51.5828L72.002 51.5545C72.5714 51.1785 72.9581 50.9421 73.2589 50.7595C73.5597 50.5661 73.925 50.362 74.1076 50.362C74.2902 50.362 74.4944 50.3728 74.6125 50.5232C74.7028 50.638 74.7116 50.7027 74.7298 50.8369C74.7355 50.8785 74.742 50.9267 74.7522 50.9851C74.8027 51.2172 74.7204 51.4114 74.541 51.8348C74.5295 51.8621 74.5175 51.8904 74.5051 51.9197C74.4769 51.9832 74.4471 52.0509 74.4158 52.1217C74.209 52.5904 73.9421 53.1957 73.6994 53.6064C73.4201 54.0791 72.2813 55.3037 71.6367 55.7227C71.4955 55.8146 71.3722 55.894 71.2608 55.9658C70.8641 56.2216 70.6176 56.3806 70.2402 56.6574C69.8239 56.9626 69.8059 57.0847 69.7472 57.4831C69.7377 57.5474 69.7272 57.6188 69.7138 57.6994C69.6399 58.1425 69.8795 58.5606 70.1595 59.0493C70.2461 59.2004 70.3365 59.3583 70.4228 59.5257C70.7881 60.224 71.4326 61.352 72.5499 63.2428C73.6672 65.1335 74.8811 67.2606 75.3645 68.1523C75.8372 69.0439 76.7074 70.8273 77.0082 71.6222C77.0394 71.7047 77.073 71.7929 77.1083 71.8855C77.413 72.685 77.8399 73.805 77.8784 74.2865C77.9214 74.8236 77.9214 75.2426 77.7172 75.7368C77.7033 75.7689 77.6902 75.7991 77.6779 75.8276C77.5006 76.2379 77.4745 76.2983 77.0727 76.6499C76.6322 77.0259 76.1273 77.187 75.1927 77.316C74.258 77.4341 73.1085 77.5308 72.0557 77.5845C71.7065 77.6024 71.3668 77.6143 71.0279 77.6261C70.345 77.6501 69.6655 77.6739 68.9188 77.7457C68.425 77.7932 67.7865 77.826 67.1451 77.8589C66.3351 77.9005 65.5205 77.9423 64.9869 78.0143C64.1501 78.1165 63.595 78.2912 63.1195 78.4408C63.0456 78.4641 62.9736 78.4868 62.9028 78.5084C62.3764 78.6803 62.2367 78.7448 61.807 78.9489C61.538 79.0767 61.3364 79.2086 61.1283 79.3448C61.004 79.4262 60.8773 79.5091 60.7327 79.5935C60.346 79.8298 59.8948 80.324 59.6154 80.6355C59.5305 80.7302 59.4506 80.814 59.3753 80.8929C59.203 81.0735 59.055 81.2286 58.9279 81.4305C58.7453 81.7206 58.5841 82.0536 58.4445 82.4296C58.3048 82.8056 58.1651 83.5898 58.1651 84.0088V84.8575C58.1651 84.8575 59.7444 83.7939 60.0452 83.5683C60.346 83.3427 61.5492 82.4511 61.8285 82.3222C61.8904 82.2949 61.9477 82.2649 62.0027 82.236C62.1863 82.1396 62.344 82.0569 62.559 82.1395C62.9431 82.2911 63.2321 82.8421 63.4349 83.2289C63.4476 83.2532 63.4601 83.2769 63.4721 83.2998C63.7971 83.9115 63.918 84.0961 64.0836 84.3491C64.1972 84.5226 64.3319 84.7283 64.5679 85.1261C64.7906 85.5022 65.1616 86.1428 65.5263 86.7728C65.9532 87.5101 66.3716 88.2328 66.5339 88.4993C66.617 88.6359 66.7215 88.8201 66.8387 89.0267C67.1455 89.5676 67.5395 90.2622 67.866 90.6587C68.0827 90.9194 68.2418 91.1321 68.3705 91.3042C68.6501 91.678 68.7863 91.8601 69.0585 91.9263C69.5418 92.0472 69.5883 92.0154 69.7439 91.9091C69.7819 91.8831 69.8265 91.8527 69.8857 91.8189C70.1865 91.647 70.2402 91.3032 70.165 90.7768C70.1094 90.374 69.982 90.0161 69.8437 89.6276C69.7681 89.4152 69.6892 89.1936 69.6171 88.9505C69.4452 88.4026 68.8006 86.7805 68.4246 85.8781C68.1023 85.1046 67.4148 83.3642 67.2751 82.8808C67.2632 82.8404 67.2511 82.8 67.2391 82.7599C67.1103 82.3305 66.9881 81.9232 67.1355 81.6776C67.2586 81.4723 67.8461 81.4365 68.2505 81.4118C68.3753 81.4042 68.4826 81.3977 68.5535 81.3875C68.7097 81.3644 68.8223 81.3662 69.0255 81.3694C69.1996 81.3721 69.4403 81.376 69.8319 81.366C70.3227 81.3536 70.774 81.3196 71.2356 81.2849C71.5723 81.2595 71.9144 81.2338 72.2813 81.2156C73.1515 81.1727 75.5042 81.0223 76.4925 80.8396C77.3089 80.6888 77.6195 80.5599 78.169 80.332C78.2848 80.284 78.4112 80.2315 78.5552 80.1736C79.3824 79.8406 79.9733 79.3034 80.6178 78.5514C81.155 77.9283 81.4235 77.2623 81.6491 76.5747C81.8747 75.8872 81.9929 74.4691 81.864 73.5559C81.7662 72.8264 81.5842 72.3496 81.3622 71.7681C81.2671 71.5189 81.1646 71.2505 81.0583 70.9347C80.9377 70.5799 80.6342 69.9533 80.2966 69.256C80.1231 68.8977 79.9406 68.5206 79.7691 68.1523C79.2642 67.0672 78.3618 65.4236 77.8999 64.5964C77.4379 63.7584 76.6859 62.4263 76.181 61.6206C75.6761 60.8041 74.7415 59.1604 74.6448 58.8919C74.5588 58.6233 74.5588 58.5803 74.6233 58.2473C74.6708 58.002 74.794 57.8907 74.9115 57.7847C74.9535 57.7468 74.9947 57.7096 75.0315 57.6672C75.0957 57.5882 75.1689 57.532 75.2803 57.4463C75.4114 57.3455 75.5956 57.2039 75.8802 56.9367C76.2439 56.5953 76.3973 56.3974 76.6097 56.1236C76.7048 56.001 76.8117 55.8632 76.9545 55.6905C77.3201 55.2484 77.4972 54.8669 77.7576 54.3063C77.8262 54.1586 77.9006 53.9983 77.9858 53.8212C78.4048 52.9725 78.6196 52.3602 78.813 51.6619C78.8727 51.447 78.9147 51.3103 78.9527 51.1866C79.0172 50.9765 79.0701 50.8044 79.1783 50.3513C79.2001 50.2589 79.2211 50.1703 79.2414 50.0848C79.4808 49.0761 79.6155 48.508 79.7047 47.5474C79.7477 46.978 79.7906 46.1293 79.7477 45.7748C79.7047 45.4203 79.522 45.0658 79.3394 44.8402C79.1568 44.6038 78.7486 44.4427 78.6089 44.3997C78.4692 44.3567 77.8462 44.2923 77.6206 44.3138C77.395 44.3352 76.9867 44.4104 76.6644 44.4964C76.3421 44.5716 75.6976 44.8509 75.3108 45.0335C75.1424 45.1178 75.0187 45.1918 74.9151 45.2539C74.7808 45.3343 74.6801 45.3946 74.5588 45.431C74.5052 45.4482 74.455 45.4666 74.408 45.4839C74.2199 45.553 74.084 45.6029 73.9894 45.474C73.9088 45.3567 73.9782 45.2144 74.0748 45.0164C74.1198 44.9242 74.1707 44.8199 74.215 44.7005C74.3547 44.3352 74.8811 43.0246 75.2034 42.2726C75.5257 41.5206 76.0091 40.1777 76.2132 39.3828C76.4281 38.5985 76.6752 37.5457 76.6752 36.8474C76.6752 36.7509 76.6756 36.6588 76.676 36.5702C76.6784 36.0179 76.6803 35.5981 76.5785 35.0426C76.4603 34.398 76.3529 33.9146 76.0736 33.2915C76.041 33.2189 76.0126 33.1546 75.987 33.0969C75.7934 32.6597 75.7682 32.6026 75.4075 32.185C75.1977 31.9483 75.128 31.8652 75.0446 31.7993C74.9614 31.7337 74.8646 31.6852 74.6018 31.5189C74.1772 31.2503 73.9553 31.1774 73.6598 31.0803C73.589 31.057 73.5139 31.0324 73.4308 31.0033C73.0011 30.8636 72.378 30.7562 71.9698 30.7347C71.5616 30.7132 70.9062 30.7992 70.3906 30.9388C70.1239 31.015 69.981 31.065 69.8245 31.1197C69.7162 31.1575 69.6014 31.1977 69.4345 31.2504C69.1752 31.3322 69.0329 31.4054 68.8701 31.4892C68.7765 31.5374 68.6761 31.5891 68.5428 31.6479C68.197 31.8004 67.8897 32.0011 67.6482 32.1588C67.6347 32.1677 67.6213 32.1764 67.6082 32.185C67.3611 32.3462 67.0388 32.6255 66.8776 32.8081C66.8203 32.8777 66.7708 32.927 66.7214 32.9762C66.6411 33.0562 66.561 33.136 66.4479 33.3023C66.3639 33.4258 66.3231 33.4789 66.3014 33.5389Z" fill="black"/>
</svg>
