<svg width="120" height="120" viewBox="0 0 120 120" fill="none" xmlns="http://www.w3.org/2000/svg">
<path fill-rule="evenodd" clip-rule="evenodd" d="M60 112C88.7232 112 112 88.7233 112 60C112 31.2768 88.7232 8 60 8C31.2767 8 8 31.2768 8 60C8 88.7233 31.2885 112 60 112ZM60 96.5174C80.1661 96.5174 96.5056 80.1661 96.5056 60.0117C96.5056 39.8573 80.1544 23.5061 60 23.5061C39.8456 23.5061 23.4944 39.8573 23.4944 60.0117C23.4944 80.1661 39.8339 96.5174 60 96.5174ZM67.6181 16.1932C67.7002 15.1367 67.5007 14.2564 67.0429 13.5403C66.4443 12.6248 65.4817 12.12 64.1201 12.0261C62.8289 11.944 61.8194 12.3431 61.0917 13.2469C60.5165 13.9512 60.1996 14.8198 60.1291 15.8528C60.047 17.0031 60.2817 17.9656 60.8334 18.7638C61.4555 19.5855 62.3594 20.0433 63.5332 20.1254C64.8009 20.2076 65.8104 19.832 66.5499 18.9868C67.1838 18.2708 67.5359 17.3435 67.6181 16.1932ZM66.5616 16.1462C66.5029 16.9914 66.2447 17.7426 65.7869 18.3647C65.3291 18.9868 64.6483 19.2686 63.7445 19.2099C62.782 19.1394 62.1011 18.799 61.7138 18.1887C61.3264 17.5783 61.1621 16.8388 61.2208 15.9936C61.2912 14.9254 61.5964 14.139 62.1364 13.6343C62.6763 13.1295 63.3336 12.8947 64.1318 12.9534C64.9535 13.0121 65.5756 13.3291 66.0099 13.916C66.4443 14.5029 66.6203 15.2424 66.5616 16.1462ZM55.9034 12.2374L52.8397 12.5309L53.5675 20.1724L56.6194 19.8789C57.9106 19.7616 58.7675 19.0925 59.1901 17.8834C59.4366 17.2026 59.5187 16.4514 59.4366 15.6415C59.3427 14.5968 59.0023 13.7516 58.4271 13.1295C57.7815 12.4369 56.9364 12.1435 55.9034 12.2374ZM57.1711 18.8342C56.9598 18.9281 56.6781 18.9868 56.3377 19.0221L54.53 19.1981L53.9666 13.3173L55.7625 13.1412C56.5842 13.0708 57.1946 13.2704 57.6172 13.7634C58.0397 14.2564 58.2862 14.9724 58.3801 15.9232C58.4036 16.1697 58.4036 16.4397 58.3801 16.7331C58.3449 17.2261 58.2393 17.637 58.0632 17.9656C57.8519 18.3647 57.5467 18.6582 57.1711 18.8342ZM69.5784 12.9065L69.3084 19.3155L72.6537 13.7634L73.7337 14.0686L73.7454 20.5598L76.8091 14.9137L77.9124 15.2189L73.9097 22.0857L72.8533 21.7923L72.8416 15.172L69.414 20.8415L68.3576 20.548L68.475 12.6013L69.5784 12.9065ZM80.3187 16.5923L79.2271 16.0406L75.7526 22.9074L76.6447 23.3535L79.4383 17.8131L80.1192 25.1025L81.1639 25.6307L84.6266 18.7639L83.7345 18.3178L80.9408 23.8582L80.3187 16.5923ZM48.3323 13.3643L43.0384 15.125L45.4682 22.4379L50.8325 20.6537L50.539 19.785L46.1372 21.2406L45.3156 18.7638L49.3183 17.4257L49.0365 16.5805L45.0338 17.9069L44.2943 15.6884L48.6257 14.2564L48.3323 13.3643ZM36.8759 18.0126L37.8032 17.5431L40.8551 23.5882L44.2944 21.851L44.7052 22.6727L40.3386 24.8794L36.8759 18.0126ZM33.4952 20.1137L30.772 22.027L35.1855 28.3187L37.8618 26.4406C38.6952 25.8536 39.1296 25.1846 39.1648 24.4216C39.1883 23.9051 39.0591 23.4591 38.7774 23.0482C38.437 22.567 38.0262 22.2853 37.5566 22.2148C37.2984 22.1796 36.958 22.2031 36.5472 22.3087C36.688 22.0387 36.7702 21.7922 36.7937 21.581C36.8406 21.1701 36.7232 20.771 36.4415 20.3719C36.2068 20.0315 35.9016 19.7968 35.5377 19.6676C34.9156 19.4446 34.2348 19.5972 33.4952 20.1137ZM35.7725 22.2618C35.6433 22.4965 35.3968 22.743 35.0329 23.0013L33.4718 24.1164L32.0984 22.1679L33.6361 21.088C34.0117 20.818 34.3169 20.6654 34.5634 20.6067C34.9977 20.5011 35.3616 20.6654 35.6551 21.0762C35.9368 21.4871 35.9837 21.8862 35.7725 22.2618ZM38.167 24.4568C38.1553 24.9146 37.8853 25.3254 37.3571 25.7011L35.5142 27.004L33.9648 24.7855L35.6668 23.5882C36.0307 23.3299 36.3476 23.1773 36.6293 23.1069C37.1576 22.9895 37.5801 23.1539 37.8971 23.6117C38.0849 23.8816 38.1788 24.1634 38.167 24.4568ZM27.8609 24.5508L28.6474 23.8465L33.7887 29.563L33.0022 30.2673L27.8609 24.5508ZM28.1896 33.2722C27.8609 33.2252 27.5323 33.0609 27.1919 32.7909L26.5463 33.5422C27.1684 34.0939 27.8257 34.3404 28.5417 34.2582C29.2578 34.1878 29.9269 33.8004 30.5372 33.0961C31.0655 32.4857 31.3941 31.8401 31.5115 31.1476C31.6406 30.4433 31.3824 29.8212 30.7368 29.2578C30.2203 28.8117 29.6803 28.6474 29.0934 28.7648C28.753 28.8352 28.3774 29.0113 27.9548 29.3164L27.0862 29.9386C26.4993 30.3494 26.0885 30.6076 25.8772 30.6781C25.5368 30.7955 25.2316 30.725 24.9499 30.4785C24.6916 30.2555 24.5508 29.962 24.5273 29.5982C24.4921 29.2343 24.6799 28.8352 25.0673 28.3891C25.5485 27.8374 26.0415 27.5792 26.5463 27.6144C26.828 27.6379 27.1332 27.767 27.4736 28.0018L28.1192 27.2623C27.4736 26.6988 26.828 26.4993 26.1706 26.6519C25.5133 26.8045 24.9264 27.1801 24.4099 27.767C23.8582 28.4126 23.5883 29.0465 23.6117 29.6921C23.6469 30.3259 23.9169 30.8776 24.4334 31.3354C24.9147 31.7462 25.4311 31.8871 25.9828 31.7462C26.2998 31.6641 26.7341 31.4293 27.2858 31.0302L28.1309 30.4316C28.5887 30.1029 28.9643 29.9034 29.2695 29.8212C29.5747 29.7508 29.8799 29.8447 30.1968 30.1264C30.6194 30.502 30.7133 30.9833 30.4785 31.5702C30.3612 31.8754 30.1733 32.1688 29.9268 32.4505C29.3752 33.0844 28.7882 33.3544 28.1896 33.2722ZM18.353 36.4533L19.0104 35.4203L26.3115 35.5025L21.0645 32.1806L21.5928 31.3354L28.084 35.4438L27.4618 36.4298L20.1372 36.4063L25.3842 39.7165L24.856 40.5616L18.353 36.4533ZM21.1819 38.6835C20.2077 38.2844 19.3038 38.1788 18.4822 38.3901C17.4257 38.66 16.6393 39.4113 16.1228 40.6673C15.6298 41.8646 15.6885 42.9562 16.3106 43.9305C16.8036 44.6934 17.5196 45.2686 18.4822 45.6677C19.5386 46.102 20.5363 46.1959 21.4636 45.9259C22.4379 45.5973 23.1539 44.893 23.6117 43.8013C24.093 42.6275 24.0578 41.5594 23.4943 40.5851C23.0131 39.7634 22.2384 39.1296 21.1819 38.6835ZM20.7946 39.6695C21.581 39.9982 22.2031 40.4794 22.6492 41.1133C23.107 41.7472 23.1539 42.4867 22.8135 43.3201C22.4379 44.2122 21.898 44.7521 21.1937 44.9165C20.4894 45.0808 19.7381 45.0104 18.9517 44.6817C17.9774 44.2709 17.3318 43.7309 17.0149 43.0618C16.698 42.3928 16.698 41.6885 17.0032 40.949C17.3083 40.1977 17.8131 39.7047 18.5056 39.4817C19.1982 39.2587 19.9612 39.3174 20.7946 39.6695ZM13.1648 50.8794L13.963 47.534C14.1156 46.8767 14.4325 46.3837 14.902 46.0668C15.3715 45.7498 15.9467 45.6677 16.6275 45.832C17.2144 45.9728 17.6722 46.278 18.0244 46.7358C18.3765 47.2054 18.4587 47.804 18.2826 48.5552L17.7309 50.8911L20.8885 51.6424L20.6537 52.6519L13.1648 50.8794ZM15.125 47.1936C14.9724 47.3932 14.8433 47.6866 14.7494 48.074L14.2799 50.0812L16.874 50.6916L17.3436 48.6844C17.4492 48.2383 17.4375 47.8392 17.3201 47.5105C17.191 47.1819 16.8858 46.9589 16.3928 46.8415C15.8411 46.7241 15.4185 46.8415 15.125 47.1936ZM18.7052 57.8284C18.4235 57.981 18.0596 58.0632 17.6253 58.0514L17.5549 59.0374C18.3765 59.1079 19.0573 58.8966 19.5738 58.4036C20.0903 57.9106 20.3837 57.1945 20.4542 56.2672C20.5129 55.469 20.3837 54.7647 20.0551 54.1309C19.7264 53.497 19.1395 53.1566 18.2944 53.0979C17.6135 53.051 17.0736 53.2505 16.6862 53.6966C16.4632 53.9548 16.2754 54.3304 16.1228 54.8234L15.8059 55.8447C15.5828 56.5372 15.4185 56.9833 15.2894 57.1711C15.0898 57.4645 14.8081 57.5936 14.4325 57.5702C14.0921 57.5467 13.7986 57.3941 13.5639 57.1241C13.3291 56.8541 13.2352 56.4198 13.2704 55.8329C13.3174 55.1052 13.5521 54.6004 13.9747 54.3304C14.1977 54.1778 14.5264 54.0957 14.9372 54.0722L15.0077 53.0979C14.1625 53.0392 13.5169 53.274 13.0944 53.7905C12.6718 54.307 12.437 54.9526 12.3783 55.739C12.3196 56.5959 12.4957 57.265 12.9065 57.758C13.3174 58.251 13.8573 58.521 14.5499 58.5679C15.1955 58.6149 15.6885 58.4036 16.0406 57.9575C16.2402 57.6993 16.4397 57.2415 16.6393 56.5959L16.9445 55.6099C17.1088 55.0699 17.2966 54.6826 17.4844 54.4361C17.6722 54.2013 17.9774 54.0957 18.4 54.1191C18.9517 54.1544 19.3156 54.483 19.4916 55.0934C19.5856 55.4103 19.609 55.7508 19.5856 56.1264C19.5269 56.9598 19.2334 57.535 18.7052 57.8284ZM12.66 64.9065L12.2727 59.3427L13.2117 59.2722L13.5287 63.8266L15.8528 63.6623L15.5594 59.46L16.4515 59.4013L16.7449 63.6036L19.339 63.4275L19.0104 58.8027L19.9259 58.744L20.325 64.3901L12.66 64.9065ZM14.1273 72.6538L13.3643 69.2497C13.2352 68.6863 13.2235 68.205 13.3056 67.8059C13.47 67.0429 13.9865 66.5617 14.8433 66.3738C15.2894 66.2682 15.6767 66.2799 16.0054 66.4091C16.3341 66.5264 16.6158 66.7377 16.874 67.0312C16.9327 66.7142 17.0384 66.456 17.191 66.2682C17.3553 66.0804 17.6488 65.9278 18.0831 65.8104L19.0808 65.5522C19.3625 65.4817 19.5738 65.4113 19.7029 65.3409C19.926 65.2235 20.0551 65.0826 20.0903 64.9066L20.2546 64.8714L20.5363 66.1156C20.4776 66.1626 20.4072 66.2095 20.3016 66.2565C20.2077 66.3034 20.0081 66.3621 19.7264 66.4443L18.4939 66.7847C18.0126 66.9138 17.7192 67.172 17.6253 67.5359C17.5783 67.7472 17.6018 68.0524 17.684 68.4515L18.1887 70.6935L21.405 69.9775L21.628 70.9987L14.1273 72.6538ZM16.8271 68.5924C16.7214 68.1346 16.5454 67.7824 16.2989 67.5594C16.0524 67.3364 15.6767 67.2777 15.172 67.3833C14.632 67.5007 14.3151 67.7707 14.2095 68.1933C14.1508 68.4163 14.1625 68.698 14.233 69.0384L14.7729 71.4565L17.3318 70.8813L16.8271 68.5924ZM86.223 26.3115C85.953 26.6636 85.8004 26.9923 85.7535 27.3092C85.6713 27.9079 85.953 28.483 86.5986 29.0347C86.8803 29.2812 87.1855 29.4573 87.4907 29.5747C88.0893 29.7977 88.5589 29.7038 88.9228 29.2812C89.1927 28.9643 89.2984 28.6591 89.2162 28.3539C89.134 28.0487 88.9228 27.6731 88.5941 27.227L87.9837 26.3936C87.5846 25.8537 87.3381 25.4194 87.2559 25.1024C87.1033 24.5507 87.2325 24.0343 87.655 23.553C88.1011 23.0248 88.6528 22.7431 89.2866 22.7196C89.9322 22.6844 90.5778 22.9426 91.2234 23.4943C91.8221 23.9991 92.1977 24.586 92.362 25.2316C92.5264 25.8889 92.3268 26.5345 91.7751 27.1801L91.0356 26.5462C91.2704 26.2058 91.3878 25.8889 91.4112 25.6189C91.4465 25.1142 91.1765 24.6329 90.6248 24.1516C90.1787 23.7643 89.7679 23.5882 89.404 23.6234C89.0401 23.6469 88.7467 23.7995 88.5237 24.0577C88.2772 24.3395 88.2185 24.6564 88.3358 24.9851C88.418 25.1963 88.6645 25.5954 89.0871 26.1823L89.7209 27.051C90.0261 27.4735 90.214 27.8492 90.2961 28.1778C90.4252 28.753 90.2609 29.3047 89.8148 29.8329C89.2632 30.4785 88.641 30.7485 87.9367 30.6311C87.2442 30.5137 86.5869 30.1968 85.9765 29.6803C85.2722 29.0699 84.8731 28.4126 84.7909 27.6966C84.7088 26.9805 84.9318 26.3232 85.4835 25.6893L86.223 26.3115ZM98.1489 30.8894L97.4681 31.4997L95.7309 29.5747L90.6952 34.0939L89.9909 33.3074L95.0266 28.7882L93.3011 26.8749L93.9819 26.2645L98.1489 30.8894ZM100.25 34.2112L99.5928 33.237L91.5991 35.0916L92.186 35.9837L94.5571 35.3968L96.2474 37.9205L94.7684 39.8455L95.4014 40.7951L95.2966 40.8433L95.7074 41.7471L101.342 39.153L97.3273 45.2803L97.8203 46.3484L104.805 43.1439L104.394 42.2401L98.7476 44.8342L102.786 38.7539L102.269 37.6387L95.4041 40.7939L100.25 34.2112ZM98.9472 34.3169L96.7639 37.1692L95.4375 35.1738L98.9472 34.3169ZM106.19 48.1092L105.403 45.1395L97.9729 47.0997L98.7593 50.0578C99.0997 51.3137 99.8862 52.0532 101.154 52.2763C101.87 52.3937 102.621 52.3584 103.408 52.1471C104.429 51.8772 105.192 51.4076 105.72 50.7386C106.295 49.9991 106.46 49.1187 106.19 48.1092ZM99.8979 50.4451C99.7688 50.2456 99.6514 49.9756 99.5693 49.6469L99.1232 47.8979L104.828 46.3955L105.286 48.1444C105.497 48.9309 105.403 49.5765 104.981 50.0695C104.558 50.5625 103.889 50.9264 102.973 51.1729C102.739 51.2316 102.469 51.2785 102.175 51.302C101.682 51.3372 101.26 51.302 100.907 51.1846C100.461 51.0438 100.133 50.7973 99.8979 50.4451ZM107.387 55.1404L107.493 56.3142L100.109 59.8239L100.004 58.6853L102.222 57.6876L101.929 54.6591L99.5575 54.0487L99.4519 52.9806L107.387 55.1404ZM103.032 57.265L106.307 55.786L102.809 54.8704L103.032 57.265ZM107.41 63.944L107.657 60.4578L99.9801 59.9296L99.9097 60.9625L103.196 61.1973L103.032 63.498C103.009 63.9088 102.938 64.2023 102.832 64.3901C102.633 64.7187 102.293 64.8713 101.788 64.8596L100.508 64.8361H100.508C100.203 64.8361 100.004 64.8361 99.8979 64.8479C99.8759 64.8528 99.8549 64.8571 99.8348 64.8613L99.8347 64.8613C99.7585 64.8773 99.6954 64.8904 99.6397 64.9183L99.5458 66.186L99.7219 66.1977C99.804 66.0334 99.9684 65.9395 100.215 65.8926C100.356 65.8691 100.579 65.8573 100.872 65.8691L101.905 65.9043C102.351 65.916 102.68 65.8573 102.891 65.7165C103.102 65.5756 103.279 65.3643 103.419 65.0709C103.572 65.423 103.783 65.7047 104.065 65.916C104.335 66.1273 104.711 66.2447 105.168 66.2799C106.049 66.3386 106.683 66.0217 107.058 65.3409C107.258 64.9887 107.375 64.5192 107.41 63.944ZM104.124 64.7422C103.948 64.4488 103.877 64.0614 103.912 63.5919L104.077 61.256L106.694 61.4438L106.518 63.9088C106.495 64.2609 106.424 64.5309 106.307 64.7305C106.072 65.1061 105.697 65.2704 105.145 65.2352C104.64 65.1883 104.3 65.0357 104.124 64.7422ZM106.87 68.3575L106.166 71.3508C105.92 72.3603 105.368 73.0645 104.511 73.4519C103.736 73.7923 102.832 73.8393 101.8 73.6045C101.001 73.4167 100.321 73.0998 99.7453 72.6537C98.7358 71.8673 98.3837 70.8343 98.6772 69.5666L99.3814 66.5851L106.87 68.3575ZM99.5927 69.5783C99.5106 69.9187 99.4871 70.2004 99.4988 70.4352C99.534 70.846 99.7219 71.2217 100.039 71.5621C100.297 71.832 100.649 72.0668 101.095 72.2663C101.365 72.3837 101.623 72.4659 101.858 72.5246C102.786 72.7476 103.548 72.7359 104.147 72.5011C104.746 72.2663 105.133 71.7381 105.333 70.9399L105.755 69.1792L100.015 67.8176L99.5927 69.5783ZM81.0935 94.8858L78.6402 96.4822L82.6312 102.633L85.0844 101.037C86.1174 100.356 86.5517 99.4167 86.3756 98.2077C86.27 97.5269 86.0118 96.8578 85.5892 96.2005C85.0375 95.3553 84.3802 94.7919 83.6172 94.5219C82.772 94.2285 81.9269 94.3459 81.0935 94.8858ZM85.0844 99.898C84.9436 100.074 84.7323 100.25 84.4623 100.426L83.0185 101.354L79.9549 96.6348L81.3987 95.6957C82.056 95.2732 82.6664 95.1675 83.2416 95.4023C83.805 95.6371 84.3449 96.1301 84.838 96.893C84.9671 97.0926 85.0844 97.3156 85.1901 97.5739C85.3662 98.0082 85.4601 98.4073 85.4601 98.7594C85.4483 99.2055 85.3309 99.5811 85.0844 99.898ZM41.4302 97.1278C41.5946 97.8086 41.5359 98.4307 41.2542 98.9941L40.4325 98.4777C40.5968 98.0199 40.6086 97.5856 40.4912 97.1865C40.3621 96.7756 40.0569 96.4235 39.5639 96.1066C38.9652 95.7309 38.3431 95.637 37.7092 95.8366C37.0637 96.0361 36.465 96.5761 35.9016 97.4565C35.4438 98.1842 35.2325 98.8768 35.2795 99.5458C35.3264 100.203 35.6785 100.743 36.3359 101.166C36.9463 101.553 37.5567 101.6 38.1788 101.33C38.5074 101.189 38.8361 100.931 39.1765 100.579L39.9982 101.095C39.5169 101.706 38.93 102.093 38.2375 102.281C37.4158 102.504 36.5941 102.351 35.7607 101.835C35.0447 101.389 34.5869 100.79 34.3756 100.051C34.1056 99.0763 34.3521 97.9729 35.1151 96.7756C35.6903 95.8601 36.4063 95.2614 37.2515 94.9797C38.167 94.6745 39.0826 94.8036 39.9982 95.3788C40.7964 95.8483 41.2659 96.447 41.4302 97.1278ZM42.8271 97.3156L47.7219 99.4167L47.3697 100.238L43.367 98.5129L42.4866 100.555L46.1842 102.152L45.8438 102.926L42.1462 101.354L41.1602 103.642L45.2334 105.391L44.893 106.19L39.9395 104.053L42.8271 97.3156ZM51.3255 100.367L48.0858 99.5927L46.419 106.741L47.3815 106.976L48.1092 103.912L50.2456 104.417C50.6212 104.511 50.8912 104.617 51.0555 104.746C51.3372 104.981 51.4311 105.333 51.3372 105.802L51.1142 107.011L51.0924 107.141L51.0924 107.141C51.0567 107.352 51.0321 107.498 51.0321 107.586C51.0321 107.692 51.0321 107.774 51.0555 107.845L52.2411 108.126L52.2763 107.962C52.1354 107.856 52.065 107.68 52.065 107.446C52.0533 107.305 52.0767 107.093 52.1354 106.823L52.3232 105.861C52.4054 105.45 52.3937 105.133 52.2998 104.91C52.1941 104.687 52.0181 104.488 51.7716 104.311C52.1237 104.218 52.4171 104.065 52.6637 103.83C52.9102 103.595 53.0745 103.267 53.1801 102.844C53.3797 102.023 53.1801 101.377 52.5932 100.919C52.2763 100.673 51.8655 100.497 51.3255 100.367ZM51.5603 103.595C51.2551 103.713 50.8912 103.725 50.4451 103.619L48.2736 103.114L48.8488 100.673L51.1494 101.213C51.4781 101.295 51.7246 101.4 51.8889 101.541C52.2059 101.811 52.2998 102.199 52.1824 102.703C52.065 103.173 51.8655 103.478 51.5603 103.595ZM59.8357 101.459L59.777 102.328L57.312 102.152L56.8659 108.596L55.8682 108.525L56.3142 102.081L53.8492 101.905L53.9079 101.037L59.8357 101.459ZM61.749 101.342L60.7512 101.4L61.1738 108.725L62.1715 108.666L61.749 101.342ZM64.3901 101.213L69.3905 100.285L69.5548 101.166L65.5287 101.905L65.9395 104.1L69.4844 103.443L69.6487 104.3L66.1038 104.957L66.7142 108.232L65.7399 108.408L64.3901 101.213ZM70.8343 99.7923L69.8718 100.097L72.0903 107.093L73.0528 106.788L70.8343 99.7923ZM73.3697 99.0059L78.2058 96.7874L78.5815 97.6091L74.6257 99.4168L75.553 101.436L79.2153 99.7572L79.5675 100.532L75.9052 102.21L76.9381 104.476L80.9643 102.621L81.3282 103.419L76.4216 105.673L73.3697 99.0059ZM59.8239 93.5125C41.3363 93.5125 26.3467 78.5228 26.3467 60.0353H93.3011C93.3011 78.5228 78.3115 93.5125 59.8239 93.5125ZM41.935 67.9114L38.7657 64.9182C38.7657 64.9182 41.442 68.6157 41.665 68.9796C41.7896 69.1665 41.8732 69.7795 41.9804 70.5657L41.9804 70.5658L41.9804 70.5659L41.9805 70.566C42.0955 71.4094 42.2376 72.452 42.4867 73.3814C42.9914 75.2595 43.3436 75.7995 44.7522 77.8889C45.7968 79.4266 46.7007 79.7083 46.7007 79.7083L46.8298 78.8044L47.1115 80.2013L49.2948 81.7977L49.33 79.3092L50.0695 82.3024L56.819 85.0257C56.819 85.0257 56.0443 82.6898 55.9151 81.7859C55.786 80.8821 55.833 79.3913 55.833 79.3913C55.833 79.3913 56.1734 81.2812 56.4316 82.0559C56.6898 82.8306 57.8167 85.19 57.8167 85.19C57.8167 85.19 58.5093 85.4247 59.4718 85.683C60.4461 85.9412 62.4885 86.1173 63.6975 86.0703C63.9222 86.0596 64.1273 86.054 64.3109 86.049C65.1346 86.0264 65.5243 86.0157 65.2939 85.6126C65.2137 85.4764 65.1118 85.3197 64.9979 85.1444C64.5618 84.4731 63.9488 83.5298 63.6975 82.4315C63.5684 81.8798 63.5097 80.0604 63.5684 80.2247C63.6975 80.6238 64.484 82.8189 65.2587 84.1218C66.0334 85.413 66.9725 85.7652 66.9725 85.7652L67.712 85.8473L65.6461 82.5606L68.7567 85.6712L72.2546 84.6383C72.2546 84.6383 70.9869 84.1453 70.1535 83.4762L70.1193 83.4488L70.1192 83.4488L70.1191 83.4487C69.3047 82.7973 68.3486 82.0324 67.712 81.199C67.0664 80.3421 67.0429 80.0135 67.0781 79.3092C67.1133 78.6166 67.3246 77.255 67.5829 78.0297C67.8411 78.8044 68.4984 79.8491 69.144 80.3656C69.7896 80.8821 71.5621 81.3399 72.7242 81.3399C73.7934 81.3399 74.1471 81.2802 74.8003 81.1701L74.9779 81.1403C75.7643 81.0112 76.4099 80.6238 76.4099 80.6238C76.4099 80.6238 74.2266 80.2482 72.9237 79.8609C71.6325 79.4735 71.3508 79.3326 70.3178 78.4406C69.2849 77.5484 69.3436 76.5977 70.3178 77.5132C70.9517 78.1119 73.7454 78.5931 74.9075 78.464C75.0217 78.4515 75.1293 78.4398 75.2314 78.4287C76.178 78.3259 76.6514 78.2746 77.5838 78.0415C78.6285 77.7715 78.8867 77.1141 78.8867 77.1141V76.4803C78.8867 76.4803 78.1002 76.9968 77.3255 76.9968C77.0806 76.9968 76.8744 77.0226 76.6575 77.0497C76.1885 77.1084 75.6698 77.1733 74.6023 76.9968C73.0528 76.7385 73.088 76.2455 73.088 76.2455C73.088 76.2455 74.8488 76.4568 76.0108 76.3277C76.8381 76.2367 77.1931 76.1049 77.6469 75.9364C77.8371 75.8658 78.0446 75.7887 78.3115 75.7056C78.9219 75.506 79.6379 74.7313 79.6379 74.7313L79.7201 74.1444L77.6542 74.9191L80.1896 72.9706V71.5385C80.1896 71.5385 79.0275 72.9706 78.5111 73.3579C78.4664 73.3914 78.4224 73.4249 78.3784 73.4584C77.913 73.8122 77.4477 74.1661 76.2573 74.52C74.9661 74.9074 72.7594 74.5552 74.1093 74.2618C75.0014 74.0622 76.316 73.2171 77.0908 72.5715C77.8772 71.9259 78.6519 71.0103 79.0393 69.8482C79.4266 68.6744 79.6497 67.5123 79.6497 67.5123L77.4312 65.1764C77.4312 65.1764 76.3865 67.3597 75.7996 68.0992C75.5531 68.4044 74.3675 69.4609 73.851 69.8482C73.3345 70.2356 71.2569 71.0103 71.2569 71.0103C71.2569 71.0103 73.8628 68.7566 74.5084 68.1697C75.154 67.5945 75.5178 66.2681 75.5178 66.2681L74.6962 66.3503L72.9002 68.334L73.135 67.4419L72.0434 67.8645C72.0434 67.8645 71.2217 70.0478 70.447 70.4351C70.0701 70.6235 69.6961 70.7675 69.441 70.8657L69.4366 70.8674C69.396 70.883 69.3585 70.8975 69.3244 70.9108C69.7988 70.4216 70.9634 68.4866 70.9634 68.4866L67.6181 69.4609L64.6366 70.6229C64.6366 70.6229 66.5029 69.4609 65.9865 69.4609C65.8027 69.4609 65.5594 69.501 65.2461 69.5527L65.2458 69.5527L65.2458 69.5528C64.6787 69.6463 63.8823 69.7778 62.7937 69.7778C61.3848 69.7778 60.1063 69.3129 58.9516 68.8931C58.721 68.8092 58.4953 68.7271 58.2745 68.6509C57.0303 68.2284 56.3729 68.381 56.3729 68.381L53.4853 69.4726L55.1756 67.9114C55.1756 67.9114 54.3892 67.7119 53.6145 67.7119C52.8397 67.7119 52.4524 67.125 52.4524 67.125L50.8912 67.8997L51.795 66.9959C51.795 66.9959 51.0203 66.5498 49.7174 66.092C48.5843 65.6903 47.9393 65.6953 47.013 65.7026C46.8838 65.7036 46.7491 65.7047 46.6068 65.7047C45.6324 65.7047 45.2026 65.8862 44.245 66.2909L44.2447 66.291C44.0603 66.3689 43.8564 66.4551 43.6253 66.5498C42.1932 67.1367 41.935 67.9114 41.935 67.9114ZM77.2551 51.478C77.2551 51.9123 77.2903 52.3114 77.3607 52.6636C77.4311 53.0157 77.5602 53.3209 77.7481 53.5674C77.9359 53.8139 78.1941 54.0017 78.511 54.1426C78.828 54.2834 79.2388 54.3539 79.7201 54.3539C80.2952 54.3539 80.8117 54.1661 81.2695 53.7904C81.7273 53.4148 81.9621 52.8396 81.9621 52.0532C81.9621 51.6306 81.9034 51.2785 81.7977 50.9733C81.6803 50.6681 81.4925 50.3981 81.2343 50.1516C80.9761 49.9051 80.6357 49.6821 80.2013 49.4825C79.7788 49.283 79.2505 49.0834 78.6284 48.8722C77.795 48.5904 77.079 48.2852 76.4686 47.9566C75.8582 47.6279 75.3535 47.2406 74.9426 46.7945C74.5318 46.3485 74.2384 45.8437 74.0388 45.2568C73.851 44.6699 73.7571 44.0008 73.7571 43.2378C73.7571 41.395 74.2736 40.0216 75.2948 39.1178C76.316 38.2139 77.7246 37.7679 79.5205 37.7679C80.3539 37.7679 81.1287 37.8618 81.8212 38.0378C82.5138 38.2139 83.1359 38.5191 83.6406 38.9182C84.1571 39.329 84.5562 39.8455 84.8379 40.4794C85.1196 41.1132 85.2722 41.8762 85.2722 42.7566V43.2731H81.6803C81.6803 42.3927 81.5277 41.7001 81.2108 41.2306C80.8939 40.7494 80.3774 40.5146 79.6496 40.5146C79.2271 40.5146 78.8867 40.5733 78.6049 40.7024C78.3232 40.8198 78.1002 40.9841 77.9359 41.1837C77.7715 41.3832 77.6542 41.618 77.5955 41.8762C77.5368 42.1345 77.5016 42.4044 77.5016 42.6862C77.5016 43.2613 77.6189 43.7426 77.8654 44.1299C78.1119 44.5173 78.6284 44.8812 79.4266 45.2099L82.3142 46.4658C83.0302 46.7828 83.6054 47.0997 84.0632 47.4401C84.5092 47.7805 84.8731 48.1444 85.1431 48.5317C85.4131 48.9191 85.6009 49.3534 85.7065 49.8229C85.8122 50.2925 85.8591 50.8089 85.8591 51.3841C85.8591 53.3444 85.2957 54.7764 84.1571 55.6685C83.0185 56.5606 81.4338 57.0067 79.4031 57.0067C77.2785 57.0067 75.7643 56.5489 74.8605 55.6216C73.9449 54.706 73.4871 53.3796 73.4871 51.6658V50.9146H77.2433V51.478H77.2551ZM44.846 39.3173C43.9774 38.5309 42.7566 38.1318 41.1955 38.1318H34.2582V56.725H38.0144V48.8604H40.0217C40.8081 48.8604 41.3598 49.06 41.6885 49.4826C42.0171 49.9051 42.2049 50.4803 42.2402 51.2081L42.3458 54.7765C42.3693 55.1404 42.4045 55.4925 42.4515 55.8329C42.4984 56.1733 42.6275 56.4785 42.8153 56.7367H46.8767V56.5841C46.5246 56.3963 46.3016 56.0325 46.1959 55.516C46.1255 54.9995 46.0785 54.2365 46.0433 53.2505C46.0365 52.959 46.0259 52.6832 46.0158 52.423V52.423C46.0084 52.2327 46.0013 52.0507 45.9964 51.8771C45.9729 51.4663 45.9494 51.0907 45.9142 50.7385C45.8086 49.6938 45.5386 48.9426 45.1043 48.4731C44.67 48.0036 43.9891 47.6984 43.0501 47.5575V47.5106C44.1065 47.2875 44.893 46.771 45.3977 45.9846C45.9025 45.1981 46.149 44.1769 46.149 42.9209C46.149 41.3128 45.7147 40.1038 44.846 39.3173ZM41.665 45.6325C41.172 46.055 40.4794 46.2663 39.5756 46.2663H38.0144V40.902H39.7869C41.5241 40.902 42.3928 41.7589 42.3928 43.4844C42.3928 44.4939 42.1463 45.2099 41.665 45.6325ZM63.5567 38.7656C62.7585 38.3431 61.702 38.1318 60.3991 38.1318H54.26V56.725H60.1761C61.4203 56.725 62.4533 56.5372 63.2749 56.1498C64.0849 55.7625 64.7422 55.1873 65.2235 54.4008C65.7165 53.6261 66.0569 52.6284 66.2564 51.4194C66.456 50.2103 66.5616 48.79 66.5616 47.1584C66.5616 45.7968 66.4794 44.5525 66.3269 43.4374C66.1625 42.3223 65.8691 41.3715 65.423 40.585C64.977 39.7986 64.3548 39.1882 63.5567 38.7656ZM61.256 53.6379C60.8569 53.8609 60.3287 53.9783 59.6713 53.9783H58.0045V40.902H59.5891C60.2934 40.902 60.8686 41.0311 61.2912 41.3011C61.7138 41.571 62.0307 41.9701 62.2537 42.4984C62.4767 43.0266 62.6176 43.6957 62.688 44.4939C62.7585 45.3038 62.7937 46.2311 62.7937 47.2875C62.7937 48.5552 62.7585 49.6234 62.6763 50.4686C62.5941 51.3137 62.4415 52.0063 62.2068 52.5227C61.972 53.0392 61.6551 53.4148 61.256 53.6379ZM52.1589 48.1679C52.1589 49.3065 51.2316 50.2338 50.093 50.2338C48.9544 50.2338 48.0271 49.3065 48.0271 48.1679C48.0271 47.0293 48.9544 46.102 50.093 46.102C51.2316 46.102 52.1589 47.0293 52.1589 48.1679ZM70.4587 50.2338C71.5973 50.2338 72.5246 49.3065 72.5246 48.1679C72.5246 47.0293 71.5973 46.102 70.4587 46.102C69.3201 46.102 68.3928 47.0293 68.3928 48.1679C68.3928 49.3065 69.3201 50.2338 70.4587 50.2338Z" fill="black"/>
</svg>
