<svg width="120" height="120" viewBox="0 0 120 120" fill="none" xmlns="http://www.w3.org/2000/svg">
<path fill-rule="evenodd" clip-rule="evenodd" d="M77.5535 11L76.1056 11.2747C76.1056 22.6582 70.9649 34.2 62.6797 42.9014C54.4127 51.5837 43.0644 57.3871 30.6746 57.4081H7.99987L7.24988 58.1625L7.54018 107.768L8.29017 108.513H33.2561V108.513C33.2878 108.513 33.3194 108.513 33.3511 108.513H112L112.75 107.763V58.1581L112 57.4081H95.8186L77.5535 11ZM95.9465 58.9081C94.5057 67.5156 91.0279 75.4007 86.0574 82.2288H91.4249V83.7288H84.9283C75.8475 95.4014 62.3182 103.761 47.2578 107.013H111.25V83.7288H105.142V82.2288H111.25V58.9081H95.9465ZM33.3501 107.013C62.9587 106.97 90.0451 86.467 94.5352 58.2431L77.4474 14.8262C76.5063 25.451 71.4249 35.8922 63.766 43.9358C55.4876 52.63 44.151 58.5714 31.6775 58.8943V58.9081H30.6759C30.653 58.9081 30.6301 58.9081 30.6071 58.9081V58.9081H8.75427L9.03579 107.013H33.3501Z" fill="black"/>
</svg>
