<svg width="120" height="120" viewBox="0 0 120 120" fill="none" xmlns="http://www.w3.org/2000/svg">
<path fill-rule="evenodd" clip-rule="evenodd" d="M38.7358 46H38.5173V74.0272H38.7358V46ZM28.8673 68.2502L28.8674 68.2501L28.8675 68.25L28.8676 68.2499L28.8677 68.2498L28.8678 68.2497L28.8679 68.2496L28.868 68.2495L28.8681 68.2494L28.8682 68.2493L28.8683 68.2492L28.8684 68.2491L28.8685 68.249L28.8686 68.2489L28.8687 68.2488L28.8688 68.2487L28.8689 68.2486L28.869 68.2485L28.8691 68.2484L28.8692 68.2483L28.8693 68.2482L28.8694 68.2481L28.8695 68.248L28.8696 68.2479L28.8697 68.2479L28.8698 68.2477L28.8703 68.2472C29.0151 68.0998 29.1595 67.9528 29.3058 67.8098L29.2621 67.6568C29.1739 67.6524 29.0875 67.6444 29.0014 67.6365L29.0014 67.6365C28.8742 67.6247 28.7477 67.6131 28.6174 67.6131C28.2849 67.6084 27.9525 67.6097 27.62 67.6111C27.1767 67.6129 26.7333 67.6146 26.29 67.6021C25.7109 67.5912 25.1427 67.5366 24.5745 67.471C22.859 67.2743 21.4167 67.7223 20.324 69.121C20.0652 69.4495 19.7066 69.7145 19.3557 69.9738L19.2532 70.0497C18.1605 70.8474 16.8493 70.3885 16.5106 69.1647C16.2702 68.2687 15.7238 67.7442 14.7841 67.5147C13.604 67.2306 13.0358 66.28 12.6753 65.1983C12.5988 64.9579 12.5769 64.7175 12.5878 64.4662L12.588 64.4581C12.5989 63.8925 12.61 63.3161 12.6643 62.7507C12.7517 61.7017 12.4349 60.8057 11.7356 60.008C11.2657 59.4726 11.0472 58.7952 10.9051 58.1068C10.8068 57.6151 11.0799 57.3091 11.5935 57.2763C12.1071 57.2108 12.6097 57.473 12.861 57.921C13.0905 58.3362 13.2762 58.7733 13.3964 59.2213C13.4994 59.5678 13.5844 59.9204 13.6694 60.273L13.6694 60.273C13.7827 60.743 13.8959 61.2131 14.052 61.6689C14.3471 62.5321 15.1447 62.9036 16.139 62.5649C16.7072 62.3682 17.1006 61.953 17.4503 61.4832C17.9564 60.8151 18.1343 60.0345 18.3141 59.2457L18.3141 59.2457C18.3284 59.1829 18.3427 59.1202 18.3572 59.0574C18.436 58.7246 18.5134 58.3913 18.5909 58.0578L18.5909 58.0577L18.5909 58.0577L18.5909 58.0577L18.5909 58.0577L18.5909 58.0577L18.5909 58.0577L18.5909 58.0577L18.5909 58.0577L18.5909 58.0577L18.5909 58.0576L18.5909 58.0576L18.5909 58.0576L18.5909 58.0576L18.5909 58.0576L18.5909 58.0576L18.5909 58.0576L18.5909 58.0576L18.5909 58.0576L18.5909 58.0575L18.5909 58.0575L18.5909 58.0575L18.5909 58.0575L18.5909 58.0575L18.5909 58.0575L18.5909 58.0575L18.5909 58.0575L18.5909 58.0575L18.5909 58.0574C18.9966 56.3105 19.4033 54.5592 20.0181 52.8619C20.1601 52.4904 20.3568 52.1408 20.6081 51.8348C20.8048 51.5835 21.0998 51.3759 21.4604 51.507C21.8538 51.649 21.9302 51.9769 21.9521 52.3484C21.9849 53.0695 21.7773 53.7251 21.5259 54.3807C21.362 54.8069 21.1994 55.233 21.0367 55.6592L21.0366 55.6593L21.0366 55.6594L21.0365 55.6596L21.0364 55.6598L21.0364 55.66L21.0363 55.6601L21.0362 55.6603L21.0361 55.6605L21.0361 55.6607L21.036 55.6609L21.0359 55.6611L21.0358 55.6613L21.0358 55.6615L21.0357 55.6617L21.0356 55.6619L21.0355 55.6621L21.0355 55.6623L21.0354 55.6624L21.0353 55.6626L21.0353 55.6628L21.0352 55.663L21.0351 55.6632L21.035 55.6634L21.035 55.6636L21.0349 55.6638L21.0348 55.664L21.0347 55.6642L21.0347 55.6644C20.71 56.5149 20.3852 57.3655 20.0508 58.216C19.8432 58.7405 19.8214 59.2869 19.8541 59.8332C19.8651 60.1938 19.9197 60.5653 20.324 60.6855C20.6764 60.7963 20.8804 60.5451 21.0727 60.3084C21.0891 60.2882 21.1054 60.2681 21.1217 60.2484C21.2528 60.0954 21.362 59.9315 21.4604 59.7567L21.5609 59.5841L21.5609 59.584L21.561 59.5839L21.561 59.5839C21.8025 59.1693 22.0484 58.7473 22.269 58.3253C23.154 56.6426 24.2467 55.091 25.5142 53.6814C25.7546 53.4192 26.0169 53.1897 26.3119 53.004C26.8254 52.6543 27.2953 52.7089 27.634 53.1351C27.929 53.5066 27.8526 53.8126 27.4155 54.3043C27.2549 54.4832 27.0933 54.6613 26.9317 54.8392C26.324 55.5087 25.717 56.1774 25.1646 56.8939C24.3451 57.9647 23.5911 59.0793 22.8481 60.2047C22.5203 60.7073 22.2362 61.2318 22.0176 61.7891C21.8319 62.2371 21.9739 62.4447 22.4438 62.543C22.6296 62.5868 22.8372 62.5868 23.0229 62.5321C23.122 62.5022 23.2216 62.4726 23.3214 62.4428L23.3214 62.4428C23.9147 62.2661 24.5159 62.0869 25.0771 61.8437C25.9249 61.4697 26.7656 61.0779 27.6052 60.6866C28.2374 60.392 28.8689 60.0976 29.5025 59.8113C29.874 59.6474 30.2564 59.5382 30.6498 59.4726C31.1087 59.3961 31.4365 59.6475 31.5677 60.0627C31.6988 60.4779 31.6004 60.6855 31.1087 60.9368C30.5522 61.2184 29.9917 61.496 29.4297 61.7744L29.4293 61.7746L29.4272 61.7756C29.0521 61.9614 28.6763 62.1476 28.3005 62.3354C28.2228 62.3808 28.1413 62.4108 28.0581 62.4413C28.001 62.4623 27.9432 62.4836 27.8853 62.5103C26.5413 63.1112 25.1209 63.5046 23.6785 63.8324C23.165 63.9526 22.8153 64.193 22.5968 64.6628C22.3345 65.231 22.5094 65.7227 23.1103 65.8976C23.5037 65.9959 23.8971 66.0615 24.2904 66.0942C24.5948 66.1255 24.8992 66.1288 25.2036 66.1322L25.204 66.1322C25.3256 66.1335 25.4472 66.1348 25.5689 66.138C25.7134 66.138 25.8591 66.1404 26.0053 66.1428L26.0058 66.1428L26.007 66.1428L26.0072 66.1428H26.0074H26.0075C26.3026 66.1477 26.5992 66.1525 26.891 66.138C27.1507 66.1275 27.4117 66.1012 27.6728 66.075C28.4995 65.9919 29.3282 65.9085 30.1253 66.3237C30.2346 66.3783 30.475 66.3456 30.5296 66.2691C30.5953 66.1797 30.664 66.0912 30.7329 66.0025C31.0768 65.5598 31.4256 65.1106 31.4256 64.5099C31.4038 64.1056 31.5786 63.7231 31.8845 63.4609C32.0703 63.297 32.2233 63.1003 32.3216 62.8708C32.5401 62.2371 32.7368 61.5924 32.9007 60.9368C32.9881 60.5762 33.0646 60.1829 33.01 59.8332C32.5511 56.8939 31.2617 54.348 29.2512 52.1626C27.6122 50.3597 25.547 48.9938 23.2524 48.1853C22.3892 47.8793 21.4822 47.5952 20.5753 47.5515C19.4717 47.4969 18.4118 47.9121 17.3956 48.3382C17.2414 48.4021 17.1208 48.5539 17.0024 48.703C16.8775 48.8603 16.755 49.0145 16.598 49.0594C16.4638 49.0952 16.315 49.0889 16.1628 49.0824C15.9431 49.0731 15.7163 49.0634 15.5162 49.1796C15.0136 49.4528 14.5328 49.7587 14.063 50.0865C12.6643 51.1355 11.4405 52.3921 10.4134 53.8016C9.85615 54.5665 9.46278 55.3532 9.30981 56.2929C9.24425 56.6535 9.09127 56.9922 8.87274 57.2873C8.27176 58.0631 7.84562 59.7021 8.05323 60.6746C8.4903 62.7507 9.27703 64.6738 10.5555 66.3893C11.1346 67.1979 11.7902 67.9518 12.5004 68.6511C13.5275 69.6017 14.6749 70.4103 15.9205 71.055C17.3082 71.809 18.8161 72.2897 20.3786 72.4864C20.7365 72.529 21.1076 72.4388 21.4713 72.3503C21.574 72.3253 21.6762 72.3005 21.7773 72.2788C21.8975 72.246 22.0177 72.104 22.0832 71.9838C22.4219 71.3719 22.5421 71.2845 23.1759 71.503C23.5911 71.6451 23.9298 71.5795 24.3232 71.4156C25.6016 70.8802 26.738 70.1153 27.8088 69.2521C28.1838 68.946 28.5266 68.597 28.8673 68.2502ZM49.0281 69.7656C49.192 69.9295 49.2685 70.148 49.2576 70.3775C49.2685 70.596 49.1811 70.8145 49.0281 70.9675C48.8533 71.1205 48.6238 71.197 48.3944 71.186H47.9136V72.1913H47.4109V69.5579H48.3944C48.6348 69.5252 48.8533 69.6126 49.0281 69.7656ZM48.6566 70.6397C48.7331 70.5632 48.7659 70.4649 48.7549 70.3665C48.7659 70.2573 48.7222 70.1589 48.6566 70.0715C48.5801 69.995 48.4818 69.9622 48.3725 69.9732H47.9136V70.738H48.3725C48.4818 70.749 48.5801 70.7053 48.6566 70.6397ZM50.7444 70.5633V71.1643C50.7444 71.8636 51.0613 72.2132 51.6841 72.2351C51.9464 72.246 52.1977 72.1586 52.3943 71.9838C52.5692 71.8199 52.6566 71.5467 52.6566 71.1752V70.5742C52.6566 70.2027 52.5801 69.9295 52.4053 69.7656C52.2086 69.5908 51.9573 69.5034 51.706 69.5143C51.0613 69.5143 50.7444 69.864 50.7444 70.5633ZM52.154 71.1424C52.1649 71.3063 52.1321 71.4702 52.0447 71.6123C51.9682 71.7215 51.8371 71.7762 51.706 71.7434C51.5748 71.7543 51.4437 71.6997 51.3563 71.6013C51.2689 71.4593 51.2361 71.2954 51.247 71.1315V70.5633C51.2361 70.3885 51.2689 70.2246 51.3563 70.0716C51.4437 69.9732 51.5748 69.9186 51.706 69.9295C51.8371 69.9186 51.9682 69.9732 52.0447 70.0825C52.1321 70.2355 52.1649 70.3994 52.154 70.5742V71.1424ZM54.2732 69.547H54.7758V71.7542H55.9341V72.1913H54.2732V69.547ZM58.1412 72.1803V71.0986L58.906 69.547H58.3597L57.8898 70.6178L57.42 69.547H56.8736L57.6385 71.0986V72.1803H58.1412ZM60.2505 71.1644V70.5634C60.2505 69.8641 60.5783 69.5144 61.223 69.5144C61.4743 69.5035 61.7147 69.58 61.9114 69.7439C62.0862 69.9078 62.1845 70.1373 62.1627 70.3776V70.3995H61.66V70.3776C61.66 70.2684 61.6163 70.1591 61.5398 70.0826C61.4524 69.9952 61.3322 69.9515 61.212 69.9624C61.0809 69.9515 60.9498 70.0061 60.8624 70.1154C60.775 70.2684 60.7422 70.4323 60.7531 70.6071V71.1753C60.7422 71.3392 60.775 71.5031 60.8733 71.6452C60.9607 71.7435 61.1028 71.7981 61.2339 71.7872C61.3541 71.7981 61.4743 71.7544 61.5726 71.667C61.6491 71.5687 61.6928 71.4375 61.6819 71.3064V71.1644H61.212V70.7492H62.1627V71.1971C62.1627 71.8746 61.8458 72.2133 61.212 72.2133C60.5783 72.2133 60.2505 71.8637 60.2505 71.1644ZM64.3044 69.547H63.8018V72.1803H64.3044V69.547ZM66.5229 69.9731V70.6287H67.5281V71.0658H66.5229V71.7432H67.692V72.1803H66.0202V69.547H67.692V69.984L66.5229 69.9731ZM71.2643 72.1803V69.547H70.7617V71.1969L69.7892 69.547H69.2866V72.1803H69.7892V70.5304L70.7617 72.1803H71.2643ZM73.45 69.9731V70.6287H74.4553V71.0658H73.45V71.7432H74.6192V72.1803H72.9474V69.547H74.6192V69.984L73.45 69.9731ZM79.4488 69.9734H80.1153V69.5364H78.2687V69.9734H78.9462V72.1807H79.4488V69.9734ZM82.104 69.9731V70.6287H83.1093V71.0658H82.104V71.7432H83.2732V72.1803H81.6014V69.547H83.2732V69.984L82.104 69.9731ZM84.7702 70.5634V71.1644C84.7702 71.8637 85.0871 72.2133 85.7208 72.2243C85.9722 72.2352 86.2125 72.1587 86.4092 71.9948C86.5841 71.82 86.6715 71.5796 86.6605 71.3392V71.3173H86.1688V71.3501C86.1798 71.4703 86.1361 71.5796 86.0596 71.667C85.9722 71.7435 85.852 71.7872 85.7318 71.7763C85.6006 71.7872 85.4695 71.7326 85.3821 71.6342C85.2947 71.4922 85.2619 71.3283 85.2728 71.1644V70.5962C85.2619 70.4213 85.2947 70.2574 85.3821 70.1045C85.4695 69.9952 85.6006 69.9406 85.7318 69.9515C85.852 69.9406 85.9722 69.9843 86.0596 70.0717C86.147 70.1591 86.1907 70.2684 86.1798 70.3886V70.4104H86.6824V70.3886C86.7042 70.1482 86.6059 69.9078 86.4311 69.7439C86.2344 69.58 85.994 69.5035 85.7427 69.5144C85.098 69.5144 84.7702 69.8641 84.7702 70.5634ZM90.1675 69.547V72.1803H89.6649V71.0658H88.7907V72.1803H88.299V69.547H88.8017V70.6287H89.6758V69.547H90.1675ZM93.8397 72.1803V69.547H93.3371V71.1969L92.3646 69.547H91.862V72.1803H92.3646V70.5304L93.3371 72.1803H93.8397ZM95.4894 71.1643V70.5633C95.4894 69.864 95.8063 69.5143 96.451 69.5143C96.7023 69.5034 96.9536 69.5908 97.1503 69.7656C97.3251 69.9295 97.4016 70.2027 97.4016 70.5742V71.1752C97.4016 71.5467 97.3142 71.8199 97.1394 71.9838C96.9427 72.1586 96.6914 72.246 96.4291 72.2351C95.8063 72.2132 95.4894 71.8636 95.4894 71.1643ZM96.7897 71.6123C96.8771 71.4702 96.9099 71.3063 96.899 71.1424V70.5742C96.9099 70.3994 96.8771 70.2355 96.7897 70.0825C96.7132 69.9732 96.5821 69.9186 96.451 69.9295C96.3198 69.9186 96.1887 69.9732 96.1013 70.0716C96.0139 70.2246 95.9811 70.3885 95.992 70.5633V71.1315C95.9811 71.2954 96.0139 71.4593 96.1013 71.6013C96.1887 71.6997 96.3198 71.7543 96.451 71.7434C96.5821 71.7762 96.7132 71.7215 96.7897 71.6123ZM99.5215 69.547H99.0189L99.0298 72.1913H100.68V71.7542H99.5215V69.547ZM102.056 71.1643V70.5633C102.056 69.864 102.373 69.5143 103.018 69.5143C103.269 69.5034 103.52 69.5908 103.717 69.7656C103.892 69.9295 103.968 70.2027 103.968 70.5742V71.1752C103.968 71.5467 103.881 71.8199 103.706 71.9838C103.509 72.1586 103.258 72.246 102.996 72.2351C102.362 72.2132 102.056 71.8636 102.056 71.1643ZM103.356 71.6123C103.444 71.4702 103.476 71.3063 103.466 71.1424V70.5742C103.476 70.3994 103.444 70.2355 103.356 70.0825C103.28 69.9732 103.149 69.9186 103.018 69.9295C102.886 69.9186 102.755 69.9732 102.668 70.0716C102.58 70.2246 102.548 70.3885 102.559 70.5633V71.1315C102.548 71.2954 102.58 71.4593 102.668 71.6013C102.755 71.6997 102.886 71.7543 103.018 71.7434C103.138 71.7762 103.269 71.7215 103.356 71.6123ZM105.586 70.5634V71.1644C105.586 71.8637 105.902 72.2133 106.547 72.2133C107.181 72.2133 107.498 71.8746 107.498 71.1971V70.7492H106.547V71.1644H107.017V71.3064C107.028 71.4375 106.984 71.5687 106.908 71.667C106.809 71.7544 106.689 71.7981 106.569 71.7872C106.438 71.7981 106.296 71.7435 106.208 71.6452C106.11 71.5031 106.077 71.3392 106.088 71.1753V70.6071C106.077 70.4323 106.11 70.2684 106.198 70.1154C106.285 70.0061 106.416 69.9515 106.547 69.9624C106.667 69.9515 106.788 69.9952 106.875 70.0826C106.951 70.1591 106.995 70.2684 106.995 70.3776V70.3995H107.498V70.3776C107.52 70.1373 107.421 69.9078 107.246 69.7439C107.05 69.58 106.809 69.5035 106.558 69.5144C105.913 69.5144 105.586 69.8641 105.586 70.5634ZM110.065 71.0986V72.1803H109.563V71.0986L108.798 69.547H109.344L109.814 70.6178L110.284 69.547H110.83L110.065 71.0986ZM48.067 49.8462H45.1387L49.8372 64.5973H52.0881L56.8085 49.8462H53.8801L50.9736 60.0408L48.067 49.8462ZM58.6661 49.8462H61.365V51.9659H58.6661V49.8462ZM58.7098 53.8016H61.3432V64.5864H58.7098V53.8016ZM66.5445 53.8015H63.9548V64.5753H66.61V58.3034C66.61 57.5494 66.8067 56.9703 67.2001 56.566C67.5934 56.1617 67.9103 56.0634 68.555 56.0634C69.0576 56.0525 69.5384 56.2601 69.8771 56.6425L71.7456 54.6538C71.7456 54.6538 71.1665 53.6376 69.1778 53.6376C68.6424 53.6267 68.1179 53.7469 67.6372 53.9764C67.1782 54.2058 66.7958 54.5773 66.5445 55.0253V53.8015ZM72.9587 55.1566C72.9587 55.1566 73.7126 54.4245 74.0186 54.2497C74.9379 53.7332 75.6717 53.7343 76.8108 53.7359L77.0125 53.7361C78.4221 53.7361 79.5038 54.0639 80.2578 54.7304C81.0117 55.397 81.2958 56.3695 81.2958 57.6698V64.5755H78.8264V63.6248C78.4986 63.9745 78.1161 64.2586 77.6791 64.4553C77.2857 64.6301 76.5973 64.7066 75.9963 64.7066C74.8599 64.7066 73.9749 64.4006 73.3411 63.7887C72.7183 63.1768 72.4014 62.3246 72.4014 61.2428C72.4014 60.2485 72.7402 59.4617 73.4067 58.8826C74.0732 58.3035 75.0129 58.2161 76.2039 58.2161H78.6188V57.9429C78.6188 56.3913 78.2035 55.8887 76.9797 55.8887C76.925 55.8887 76.87 55.888 76.8145 55.8873C76.2151 55.8795 75.5512 55.871 74.5212 56.741L72.9587 55.1566ZM78.1052 62.106C78.4111 61.7891 78.6297 61.4941 78.6297 60.8385V60.0518H76.641C75.5265 60.0518 74.9692 60.3031 74.9692 61.1991C74.9692 62.1279 75.5156 62.5868 76.5973 62.5868C77.2966 62.5868 77.7992 62.4229 78.1052 62.106ZM83.8197 61.21C83.8197 62.2918 84.1147 63.1331 84.7047 63.7122C85.3057 64.3023 86.1252 64.5864 87.1851 64.5864H88.4089V62.3027H87.5129C87.1414 62.3027 86.8792 62.2153 86.7153 62.0186C86.5514 61.8219 86.4749 61.505 86.4749 61.0461V49.8462H83.8197V61.21ZM95.3804 64.663C92.6269 64.663 90.3869 62.423 90.3869 59.6695V54.5994C90.3869 51.8459 92.6269 49.6059 95.3804 49.6059C98.134 49.6059 100.374 51.8459 100.374 54.5994V59.6695C100.374 62.423 98.134 64.6521 95.3804 64.663ZM95.3804 51.1029C93.4464 51.1029 91.8839 52.6654 91.8839 54.5994V59.6695C91.8839 61.6035 93.4464 63.166 95.3804 63.166C97.3145 63.166 98.877 61.6035 98.877 59.6695V54.5994C98.877 52.6654 97.3035 51.1029 95.3804 51.1029ZM103.433 64.4772H104.832V55.6153H108.263V64.4772H109.662V55.6153H111.89V54.4134H109.662V52.862C109.662 51.5726 109.662 51.1793 112 51.1793V49.7806C108.842 49.7806 108.263 50.8187 108.263 52.862V54.4134H104.832V52.862C104.832 51.5726 104.832 51.1793 107.17 51.1793V49.7806C104.012 49.7806 103.433 50.8187 103.433 52.862V54.4134H102.198V55.6153H103.433V64.4772Z" fill="black"/>
</svg>
