<svg width="32" height="32" viewBox="0 0 32 32" fill="none" xmlns="http://www.w3.org/2000/svg">
<path fill-rule="evenodd" clip-rule="evenodd" d="M10.9115 12.3665C10.9115 8.85606 15.6416 6 21.4555 6C27.2699 6 32 8.85606 32 12.3665V19.8111C32 21.759 31.0464 23.5876 29.4493 24.7022C27.874 25.8017 26.0657 26.4564 24.1706 26.6308C24.1067 26.6619 24.0371 26.6828 23.9612 26.6828C23.9225 26.6828 23.8872 26.6725 23.8519 26.6623C23.8456 26.6605 23.8394 26.6587 23.8332 26.657C23.6066 26.6708 23.3796 26.6828 23.151 26.6828H0.484848C0.216856 26.6828 0 26.4659 0 26.1979V18.2476C0 17.9796 0.216856 17.7628 0.484848 17.7628H10.9115V12.3665ZM15.8714 17.7628C14.1396 17.1072 12.7452 16.1568 11.8812 15.0285V17.7628H15.8714ZM28.8944 23.9067C30.232 22.9735 31.0303 21.4422 31.0303 19.8111V15.0285C29.3576 17.2127 25.6962 18.7325 21.4555 18.7325H0.969697V25.7131H3.96165V22.9602C3.96165 22.6922 4.1785 22.4754 4.4465 22.4754C4.71449 22.4754 4.93134 22.6922 4.93134 22.9602V25.7131H7.21402V23.7334C7.21402 23.4654 7.43087 23.2486 7.69886 23.2486C7.96686 23.2486 8.18371 23.4654 8.18371 23.7334V25.7131H10.4664V22.9602C10.4664 22.6922 10.6832 22.4754 10.9512 22.4754C11.2192 22.4754 11.4361 22.6922 11.4361 22.9602V25.7131H13.7188V23.7334C13.7188 23.4654 13.9356 23.2486 14.2036 23.2486C14.4716 23.2486 14.6884 23.4654 14.6884 23.7334V25.7131H16.9716V22.9602C16.9716 22.6922 17.1884 22.4754 17.4564 22.4754C17.7244 22.4754 17.9413 22.6922 17.9413 22.9602V25.7131H20.224V23.7334C20.224 23.4654 20.4408 23.2486 20.7088 23.2486C20.9768 23.2486 21.1937 23.4654 21.1937 23.7334V25.7131H23.151C23.2188 25.7131 23.2861 25.7096 23.3533 25.7062C23.3943 25.7041 23.4353 25.7021 23.4763 25.7008V22.9602C23.4763 22.6922 23.6932 22.4754 23.9612 22.4754C24.2292 22.4754 24.446 22.6922 24.446 22.9602V25.6239C26.0408 25.4181 27.5593 24.8388 28.8944 23.9067ZM11.8812 12.3665C11.8812 15.3419 16.1761 17.7628 21.4555 17.7628C26.7348 17.7628 31.0303 15.3419 31.0303 12.3665C31.0303 9.39062 26.7348 6.9697 21.4555 6.9697C16.1761 6.9697 11.8812 9.39062 11.8812 12.3665ZM16.2666 12.1333C16.2666 11.0461 18.3443 9.46667 21.5998 9.46667C24.8556 9.46667 26.9333 11.0461 26.9333 12.1333C26.9333 13.2205 24.8556 14.8 21.5998 14.8C18.3443 14.8 16.2666 13.2205 16.2666 12.1333ZM16.944 12.1333C16.944 12.611 18.5953 14.0521 21.5998 14.0521C24.6045 14.0521 26.2559 12.611 26.2559 12.1333C26.2559 11.6557 24.6045 10.2146 21.5998 10.2146C18.5953 10.2146 16.944 11.6557 16.944 12.1333Z" fill="black"/>
</svg>
