<svg width="32" height="32" viewBox="0 0 32 32" fill="none" xmlns="http://www.w3.org/2000/svg">
<g clip-path="url(#clip0_1_1523)">
<path fill-rule="evenodd" clip-rule="evenodd" d="M22.6452 0C25.3548 0 27.7419 0.903225 29.4194 2.64516C31.0968 4.32258 32 6.64516 32 9.35484V22.6452C32 25.4194 31.0968 27.8064 29.3548 29.4839C27.6774 31.0968 25.3548 32 22.5806 32H9.41935C6.77419 32 4.45161 31.1613 2.70968 29.4839C0.903226 27.7419 0 25.3548 0 22.5806V9.35484C0 3.74193 3.74193 0 9.35484 0H22.6452ZM27.2903 27.3548C28.4516 26.2581 29.1613 24.6452 29.1613 22.6452V9.35484C29.1613 7.48387 28.5161 5.87097 27.4194 4.70968C26.2581 3.54839 24.6452 2.96774 22.7097 2.96774H9.41935C7.48387 2.96774 5.80645 3.54839 4.70968 4.64516C3.54839 5.80645 2.96774 7.41935 2.96774 9.35484V22.5806C2.96774 24.5806 3.54839 26.1935 4.70968 27.3548C5.87097 28.4516 7.48387 29.0323 9.41935 29.0323H22.5806C24.5161 29.0323 26.129 28.4516 27.2903 27.3548ZM24.5806 9.35483C25.6139 9.35483 26.4516 8.51717 26.4516 7.48386C26.4516 6.45055 25.6139 5.61289 24.5806 5.61289C23.5473 5.61289 22.7097 6.45055 22.7097 7.48386C22.7097 8.51717 23.5473 9.35483 24.5806 9.35483ZM16 7.67739C11.4839 7.67739 7.74194 11.3548 7.74194 15.9355C7.74194 20.5161 11.4194 24.1935 16 24.1935C20.5807 24.1935 24.2581 20.4516 24.2581 15.9355C24.2581 11.4193 20.5161 7.67739 16 7.67739ZM16 21.2258C13.0968 21.2258 10.7097 18.8387 10.7097 15.9355C10.7097 13.0322 13.0968 10.6451 16 10.6451C18.9032 10.6451 21.2903 13.0322 21.2903 15.9355C21.2903 18.8387 18.9032 21.2258 16 21.2258Z" fill="black"/>
</g>
<defs>
<clipPath id="clip0_1_1523">
<rect width="32" height="32" fill="white"/>
</clipPath>
</defs>
</svg>
