<svg width="120" height="120" viewBox="0 0 120 120" fill="none" xmlns="http://www.w3.org/2000/svg">
<path fill-rule="evenodd" clip-rule="evenodd" d="M62.4995 59.4344H97.5222L97.8976 61.0344H62.1867L88.7459 89.0761H104.478L104.708 90.0589L105.487 89.8761V89.0761H104.478L97.8976 61.0344H98.4134V59.4344H97.5222L90.9909 31.6H91.6249V30.8L90.846 30.9828L90.9909 31.6H88.8625L62.4995 59.4344ZM86.6587 31.6L60.4835 59.2362L22.5298 19.1641L21.3682 20.2643L58.4675 59.4344H40.4782H40.4774V60.2344L40.4782 59.4344C37.0045 59.4309 33.5642 60.1116 30.3536 61.4377C27.143 62.7638 24.2251 64.7092 21.7663 67.163C19.3076 69.6168 17.3563 72.5308 16.0237 75.7387C14.6912 78.9466 14.0035 82.3855 14 85.8592V85.86V89.8761V90.6761H14.8H30.7057L21.3682 100.535L22.5298 101.635L32.9095 90.6761H88.0576L98.4373 101.635L99.5989 100.535L90.2613 90.6761H105.487H106.496L106.266 89.6934L92.4037 30.6172L92.2589 30H91.6249H90.3779L99.5989 20.2643L98.4372 19.1641L88.1742 30H37.0054V31.6H86.6587ZM86.5422 89.0761L60.4835 61.563L34.4249 89.0761H86.5422ZM32.2211 89.0761L58.7804 61.0344H40.4774H40.4766C37.213 61.0311 33.9808 61.6707 30.9644 62.9165C27.948 64.1624 25.2066 65.9902 22.8966 68.2955C20.5866 70.6008 18.7533 73.3386 17.5013 76.3525C16.2494 79.3662 15.6033 82.597 15.6 85.8604V85.86H14.8L15.6 85.8608L15.6 85.8604V89.0761H14.8V89.8761H15.6V89.0761H32.2211Z" fill="black"/>
</svg>
