<svg width="120" height="120" viewBox="0 0 120 120" fill="none" xmlns="http://www.w3.org/2000/svg">
<path fill-rule="evenodd" clip-rule="evenodd" d="M37.0054 31.6H90.9909L97.5222 59.4344H40.4782C37.0045 59.4309 33.5642 60.1116 30.3536 61.4377C27.143 62.7638 24.2251 64.7092 21.7663 67.163C19.3076 69.6168 17.3563 72.5308 16.0237 75.7387C14.6912 78.9466 14.0035 82.3863 14 85.86V90.6761H106.496L92.2589 30H37.0054V31.6ZM97.8976 61.0344L97.5222 59.4344H98.4135V61.0344H97.8976ZM104.478 89.0761L97.8976 61.0344H40.4774C37.2138 61.0311 33.9808 61.6707 30.9644 62.9165C27.948 64.1624 25.2066 65.9902 22.8966 68.2955C20.5866 70.6008 18.7533 73.3386 17.5013 76.3525C16.2494 79.3662 15.6033 82.597 15.6 85.8604V89.0761H14.8V89.8761H15.6V89.0761H104.478ZM104.478 89.0761H105.487V89.8761L104.708 90.0589L104.478 89.0761ZM90.9909 31.6L90.846 30.9828L91.6249 30.8V31.6H90.9909ZM56.0206 75.0292C56.0206 72.7521 57.8665 70.9062 60.1436 70.9062C62.4207 70.9062 64.2666 72.7521 64.2666 75.0292C64.2666 77.3062 62.4207 79.1522 60.1436 79.1522C57.8665 79.1522 56.0206 77.3062 56.0206 75.0292ZM60.1436 69.3062C56.9829 69.3062 54.4206 71.8684 54.4206 75.0292C54.4206 78.1899 56.9829 80.7522 60.1436 80.7522C63.3043 80.7522 65.8666 78.1899 65.8666 75.0292C65.8666 71.8684 63.3043 69.3062 60.1436 69.3062Z" fill="black"/>
</svg>
