<svg width="120" height="120" viewBox="0 0 120 120" fill="none" xmlns="http://www.w3.org/2000/svg">
<path fill-rule="evenodd" clip-rule="evenodd" d="M90.9512 31.65H37.0053V29.95H91.6248H92.2985L92.4524 30.6058L106.315 89.6819L106.56 90.7261H105.487H14.8H13.95V89.8761V85.86V85.8591C13.9535 82.3789 14.6424 78.9334 15.9775 75.7195C17.3126 72.5055 19.2676 69.586 21.731 67.1276C24.1944 64.6691 27.1178 62.72 30.3345 61.3914C33.5511 60.0629 36.998 59.3809 40.4782 59.3844L40.4773 60.2344V59.3844H40.4782H97.4591L97.858 61.0844H40.4773L40.4765 61.0844C37.2195 61.0811 33.9938 61.7193 30.9835 62.9627C27.9731 64.206 25.2372 66.0301 22.9318 68.3308C20.6265 70.6315 18.7969 73.3638 17.5474 76.3716C16.2981 79.3793 15.6533 82.6036 15.65 85.8604V85.86H14.8L15.65 85.8608L15.65 85.8604V89.0261H14.8V89.8761H15.65V89.0261H104.414L104.659 90.0703L105.487 89.8761V89.0261H104.414L97.858 61.0844H98.4134V59.3844H97.4591L90.9512 31.65ZM90.9512 31.65H91.6248V30.8L90.7973 30.9941L90.9512 31.65ZM54.1626 70.9561C51.9131 70.9561 50.0895 72.7797 50.0895 75.0291C50.0895 77.2786 51.9131 79.1021 54.1626 79.1021C56.412 79.1021 58.2356 77.2786 58.2356 75.0291C58.2356 72.7797 56.412 70.9561 54.1626 70.9561ZM48.3895 75.0291C48.3895 71.8408 50.9742 69.2561 54.1626 69.2561C57.3509 69.2561 59.9356 71.8408 59.9356 75.0291C59.9356 78.2175 57.3509 80.8022 54.1626 80.8022C50.9742 80.8022 48.3895 78.2175 48.3895 75.0291ZM65.6398 75.0292C65.6398 72.7798 67.4634 70.9562 69.7128 70.9562C71.9623 70.9562 73.7858 72.7798 73.7858 75.0292C73.7858 77.2787 71.9623 79.1023 69.7128 79.1023C67.4634 79.1023 65.6398 77.2787 65.6398 75.0292ZM69.7128 69.2562C66.5245 69.2562 63.9398 71.8409 63.9398 75.0292C63.9398 78.2176 66.5245 80.8023 69.7128 80.8023C72.9012 80.8023 75.4858 78.2176 75.4858 75.0292C75.4858 71.8409 72.9012 69.2562 69.7128 69.2562Z" fill="black"/>
</svg>
