<svg width="42" height="32" viewBox="0 0 42 32" fill="none" xmlns="http://www.w3.org/2000/svg">
<g filter="url(#filter0_d_1_910)">
<path fill-rule="evenodd" clip-rule="evenodd" d="M6.60914 19.227H5V12H6.60914V19.227ZM10.6265 12H9.05227C9.05227 13.33 8.45904 14.5506 7.42473 15.3493L6.80104 15.8307L9.21764 19.2273H11.2045L8.98096 16.1019C10.035 15.0201 10.6265 13.5646 10.6265 12ZM13.1931 19.2251H11.6735V12.0014H13.1931V19.2251ZM17.7845 14.2282V14.5478C17.3745 14.2595 16.8795 14.09 16.3457 14.09C14.933 14.09 13.7877 15.2705 13.7877 16.7267C13.7877 18.1829 14.933 19.3634 16.3457 19.3634C16.8795 19.3634 17.3745 19.1939 17.7845 18.9057V19.2251H19.236V14.2282H17.7845ZM17.7801 16.7268C17.7801 17.4368 17.1913 18.0125 16.4649 18.0125C15.7386 18.0125 15.1497 17.4368 15.1497 16.7268C15.1497 16.0168 15.7386 15.4413 16.4649 15.4413C17.1913 15.4413 17.7801 16.0168 17.7801 16.7268ZM33.097 14.5478V14.2282H34.5484V19.2251H33.097V18.9057C32.687 19.1939 32.192 19.3634 31.6582 19.3634C30.2454 19.3634 29.1002 18.1829 29.1002 16.7267C29.1002 15.2705 30.2454 14.09 31.6582 14.09C32.192 14.09 32.687 14.2595 33.097 14.5478ZM31.7773 18.0125C32.5037 18.0125 33.0925 17.4368 33.0925 16.7268C33.0925 16.0168 32.5037 15.4413 31.7773 15.4413C31.051 15.4413 30.4622 16.0168 30.4622 16.7268C30.4622 17.4368 31.051 18.0125 31.7773 18.0125ZM26.521 14.0937C25.9412 14.0937 25.3924 14.2793 25.0256 14.7912V14.2284H23.5804V19.225H25.0433V16.5991C25.0433 15.8393 25.5377 15.4672 26.1329 15.4672C26.7708 15.4672 27.1375 15.86 27.1375 16.5888V19.225H28.5872V16.0474C28.5872 14.8846 27.6902 14.0937 26.521 14.0937ZM21.4813 14.2281V14.879C21.7722 14.4886 22.3144 14.2284 22.9038 14.2284V15.6825C22.8979 15.6824 22.8924 15.6818 22.8865 15.6818C22.3122 15.6818 21.4846 16.1049 21.4846 16.892V19.225H19.9952V14.2281H21.4813ZM35.1783 18.3916C35.1783 17.873 35.5861 17.4527 36.0891 17.4527C36.5921 17.4527 37 17.873 37 18.3916C37 18.91 36.5921 19.3304 36.0891 19.3304C35.5861 19.3304 35.1783 18.91 35.1783 18.3916Z" fill="black"/>
</g>
<defs>
<filter id="filter0_d_1_910" x="0" y="-5" width="42" height="42" filterUnits="userSpaceOnUse" color-interpolation-filters="sRGB">
<feFlood flood-opacity="0" result="BackgroundImageFix"/>
<feColorMatrix in="SourceAlpha" type="matrix" values="0 0 0 0 0 0 0 0 0 0 0 0 0 0 0 0 0 0 127 0" result="hardAlpha"/>
<feOffset/>
<feGaussianBlur stdDeviation="2.5"/>
<feComposite in2="hardAlpha" operator="out"/>
<feColorMatrix type="matrix" values="0 0 0 0 0 0 0 0 0 0 0 0 0 0 0 0 0 0 0.07 0"/>
<feBlend mode="normal" in2="BackgroundImageFix" result="effect1_dropShadow_1_910"/>
<feBlend mode="normal" in="SourceGraphic" in2="effect1_dropShadow_1_910" result="shape"/>
</filter>
</defs>
</svg>
