<svg width="32" height="32" viewBox="0 0 32 32" fill="none" xmlns="http://www.w3.org/2000/svg">
<g clip-path="url(#clip0_1_1406)">
<path fill-rule="evenodd" clip-rule="evenodd" d="M9.05861 15.5489C8.96008 15.6736 8.86999 15.7996 8.78955 15.9269L8.7899 28.764C8.87802 28.8219 8.96761 28.8789 9.05861 28.9351C11.9035 30.6917 16.1224 31.6289 19.5499 31.6154C20.0224 31.6136 20.4753 31.6167 20.9098 31.6196C25.3104 31.6495 27.8288 31.6666 29.7561 26.421C31.011 23.0058 32 18.7228 32 15.6983C32 14.6862 31.903 12.512 30.7522 12.512H23.2154C22.6786 12.512 22.0935 12.5099 21.6463 11.9542C21.278 11.4971 21.1578 10.7246 21.5844 9.33568C22.3103 6.97165 22.7743 4.09963 21.6356 1.8714C20.6164 -0.123264 18.6513 -0.949428 18.4465 1.55857C18.0921 5.90162 16.764 9.36163 14.1063 11.5209C13.5794 11.949 12.9619 12.3815 12.3307 12.8236C11.1041 13.6827 9.82553 14.5782 9.05861 15.5489ZM15.2161 12.8869C14.6491 13.3476 13.9232 13.857 13.2499 14.3295C12.8888 14.5829 12.5427 14.8257 12.2446 15.0447C11.4823 15.6044 10.9156 16.0842 10.5496 16.5065L10.5499 27.764C13.0362 29.1016 16.5804 29.8671 19.543 29.8555C20.0645 29.8534 20.5377 29.8568 20.9783 29.8599C21.7205 29.8651 22.37 29.8697 23.001 29.8468C23.9727 29.8115 24.6779 29.7123 25.2443 29.5123C26.1913 29.1778 27.1435 28.4284 28.1041 25.814C29.3203 22.5042 30.24 18.4383 30.24 15.6983C30.24 15.2531 30.2169 14.7037 30.1275 14.272H23.2154C23.1951 14.272 23.173 14.2721 23.1491 14.2723C22.6201 14.2752 21.2615 14.2827 20.2757 13.0584M15.2161 12.8869C18.1578 10.4968 19.6008 6.88351 20.0975 2.73055C20.8617 4.29315 20.6035 6.53437 19.902 8.81905C19.4237 10.3763 19.3438 11.9011 20.2757 13.0584M20.2007 1.70172C20.2171 1.50038 20.2468 1.39386 20.2603 1.35559C20.263 1.34778 20.2646 1.34419 20.2646 1.34422C20.2647 1.34433 20.2413 1.39858 20.1715 1.47302C20.1009 1.54825 20.0031 1.62179 19.8834 1.67583M1.55429e-07 13.2916V30.6318C1.55429e-07 31.378 0.608603 31.9869 1.35514 31.9869H5.94348C6.68965 31.9869 7.29861 31.3783 7.29861 30.6318V13.2916C7.29861 12.5454 6.69001 11.9365 5.94348 11.9365H1.35514C0.608603 11.9365 -0.000355181 12.5454 1.55429e-07 13.2916ZM1.76 13.6965V30.2269H5.53861V13.6965H1.76Z" fill="black"/>
</g>
<defs>
<clipPath id="clip0_1_1406">
<rect width="32" height="32" fill="white"/>
</clipPath>
</defs>
</svg>
