<svg width="32" height="32" viewBox="0 0 32 32" fill="none" xmlns="http://www.w3.org/2000/svg">
<path d="M0.407975 31.5782H7.26573V10.9462H0.407975V31.5782Z" fill="black"/>
<path d="M3.79154 8.13021H3.83685C6.22933 8.13021 7.71688 6.54535 7.71688 4.56439C7.67197 2.53996 6.22933 1 3.88175 1C1.53468 1 0 2.53996 0 4.56439C0 6.54535 1.4911 8.13021 3.79154 8.13021Z" fill="black"/>
<path d="M25.1404 31.5782H32V19.7468C32 13.41 28.6164 10.4619 24.1022 10.4619C20.4583 10.4619 18.8315 12.4673 17.92 13.8699V10.9463H11.0591C11.151 12.8819 11.0591 31.5783 11.0591 31.5783H17.92V20.0556C17.92 19.4374 17.9671 18.8245 18.1476 18.3836C18.6439 17.1493 19.7706 15.8751 21.6666 15.8751C24.1493 15.8751 25.1404 17.7676 25.1404 20.54V31.5782Z" fill="black"/>
</svg>
