<svg width="32" height="32" viewBox="0 0 32 32" fill="none" xmlns="http://www.w3.org/2000/svg">
<path fill-rule="evenodd" clip-rule="evenodd" d="M10.0049 7.0143C10.0049 6.33548 10.2303 4.90021 11.0515 3.65754C11.8447 2.45732 13.2103 1.40286 15.6163 1.40286C18.0123 1.40286 19.3801 2.48875 20.1785 3.71461C21.0046 4.98295 21.2278 6.42189 21.2278 7.0143V10.0711H10.0049V7.0143ZM8.60201 10.0711V7.0143C8.60201 6.12762 8.87502 4.40646 9.88116 2.88406C10.9153 1.31922 12.7062 0 15.6163 0C18.5364 0 20.3251 1.36912 21.354 2.94898C22.3554 4.48636 22.6306 6.20386 22.6306 7.0143V10.0711H31.0508V32H1V10.0711H8.60201ZM2.62437 30.3756V11.6954H29.4264V30.3756H2.62437ZM18.0559 19.0051C18.0559 20.3507 16.965 21.4416 15.6193 21.4416C14.2736 21.4416 13.1828 20.3507 13.1828 19.0051C13.1828 17.6594 14.2736 16.5685 15.6193 16.5685C16.965 16.5685 18.0559 17.6594 18.0559 19.0051ZM19.6802 19.0051C19.6802 20.9697 18.2851 22.6085 16.4315 22.9848V26.3147H14.8071V22.9848C12.9535 22.6085 11.5584 20.9697 11.5584 19.0051C11.5584 16.7623 13.3765 14.9442 15.6193 14.9442C17.8621 14.9442 19.6802 16.7623 19.6802 19.0051Z" fill="black"/>
</svg>
