<svg width="32" height="32" viewBox="0 0 32 32" fill="none" xmlns="http://www.w3.org/2000/svg">
<g clip-path="url(#clip0_1_1268)">
<path fill-rule="evenodd" clip-rule="evenodd" d="M18.9961 7.73502C18.9961 11.0576 16.2895 13.7511 12.9508 13.7511C9.61202 13.7511 6.90543 11.0576 6.90543 7.73502C6.90543 4.41241 9.61202 1.71889 12.9508 1.71889C16.2895 1.71889 18.9961 4.41241 18.9961 7.73502ZM20.7234 7.73502C20.7234 12.007 17.2435 15.47 12.9508 15.47C8.65809 15.47 5.17818 12.007 5.17818 7.73502C5.17818 3.46309 8.65809 0 12.9508 0C17.2435 0 20.7234 3.46309 20.7234 7.73502ZM1.72015 27.5801C1.84865 26.1734 2.55716 23.9969 4.27394 22.1828C5.96608 20.3949 8.68505 18.9078 12.9508 18.9078C14.1297 18.9078 15.1905 19.0214 16.1441 19.2235C15.3964 20.4844 14.9674 21.9548 14.9674 23.5249C14.9674 28.2056 18.7803 32 23.4837 32C28.1871 32 32 28.2056 32 23.5249C32 18.8442 28.1871 15.0497 23.4837 15.0497C21.0338 15.0497 18.8255 16.0792 17.2718 17.7272C16.0009 17.3841 14.5658 17.1889 12.9508 17.1889C8.23484 17.1889 5.05239 18.8532 3.01657 21.0044C1.00539 23.1295 0.159369 25.6799 0 27.4245L1.72015 27.5801ZM23.4837 30.6961C27.4635 30.6961 30.6898 27.4854 30.6898 23.5249C30.6898 19.5643 27.4635 16.3536 23.4837 16.3536C19.5039 16.3536 16.2776 19.5643 16.2776 23.5249C16.2776 27.4854 19.5039 30.6961 23.4837 30.6961ZM27.7623 21.5253L22.7155 27.2652L19.6 24.1647L20.5265 23.2427L22.6517 25.3577L26.7763 20.6667L27.7623 21.5253Z" fill="black"/>
</g>
<defs>
<clipPath id="clip0_1_1268">
<rect width="32" height="32" fill="white"/>
</clipPath>
</defs>
</svg>
