<svg width="431" height="54" viewBox="0 0 431 54" fill="none" xmlns="http://www.w3.org/2000/svg">
<g clip-path="url(#clip0_1_532)">
<path fill-rule="evenodd" clip-rule="evenodd" d="M326.125 27.3669C326.125 42.4029 336.943 53.4045 351.98 53.4045C362.064 53.4045 370.316 48.6369 374.9 39.8357L375.816 38.1853L367.564 32.1345L366.28 34.3349C363.164 40.3857 358.028 43.5029 351.796 43.5029C342.812 43.5029 336.21 36.7185 336.21 27.1837C336.21 17.6489 342.812 10.8645 351.796 10.8645C357.664 10.8645 362.612 13.6149 364.996 18.3825L366.096 20.5825L374.532 14.5317L373.432 12.6981C368.664 5.36369 360.78 0.962891 351.612 0.962891C336.943 1.32969 326.125 12.1481 326.125 27.3669ZM72.9025 27.3657C72.9025 12.3301 83.9041 1.32806 98.7565 1.32806C113.792 1.32806 124.611 12.1465 124.611 27.3657C124.611 42.4013 113.792 53.4029 98.7565 53.4029C83.7209 53.4029 72.9025 42.4013 72.9025 27.3657ZM83.1709 27.3657C83.1709 36.9005 89.7717 43.6849 98.7565 43.6849C107.741 43.6849 114.342 36.9005 114.342 27.3657C114.342 18.0141 107.741 11.0465 98.7565 11.0465C89.7717 11.0465 83.1709 17.8309 83.1709 27.3657ZM58.7821 2.24805H67.4001H68.8673L52.5481 52.306H45.2133C45.2133 52.306 36.4121 25.7184 34.7617 20.5844C33.1117 25.5348 24.4937 52.306 24.4937 52.306H17.1593L0.840088 2.24805H11.1081C11.1081 2.24805 19.1761 27.5521 20.8265 32.5029C22.4765 27.3689 30.7281 2.24805 30.7281 2.24805H39.1625C39.1625 2.24805 47.4137 27.3684 49.0641 32.3192C50.7145 27.3684 58.7821 2.24805 58.7821 2.24805ZM159.08 1.32806C144.045 1.32806 133.226 12.3301 133.226 27.3657C133.226 42.4013 144.045 53.4029 159.08 53.4029C174.116 53.4029 184.935 42.4013 184.935 27.3657C184.935 12.1465 174.116 1.32806 159.08 1.32806ZM159.08 43.6849C150.096 43.6849 143.495 36.9005 143.495 27.3657C143.495 17.8309 150.096 11.0465 159.08 11.0465C168.065 11.0465 174.666 18.0141 174.666 27.3657C174.666 36.9005 168.065 43.6849 159.08 43.6849ZM197.223 2.24805H206.391H207.308V42.5876H237.012V52.306H197.223V2.24805ZM281.015 31.036C287.066 28.8356 290.916 23.518 290.916 17.1004C290.916 7.93245 284.499 2.24805 274.414 2.24805H246.176V52.306H256.261V32.3192H270.38C270.93 33.236 281.748 52.306 281.748 52.306H293.117C292.933 52.306 281.931 32.8696 281.015 31.036ZM274.047 22.6012H256.077V11.9664H274.23C280.465 11.9664 280.465 16 280.465 17.2836C280.465 19.6676 279.731 22.6012 274.047 22.6012ZM303.57 2.06445H312.738H313.655V52.3056H303.57V2.06445ZM420.004 2.24805H429.172H430.092V52.306H420.004V29.9356H397.636V52.306H387.552V2.24805H397.636V20.2176H420.004V2.24805Z" fill="black"/>
</g>
<defs>
<clipPath id="clip0_1_532">
<rect width="431" height="54" fill="white"/>
</clipPath>
</defs>
</svg>
