<svg width="548" height="280" viewBox="0 0 548 280" fill="none" xmlns="http://www.w3.org/2000/svg">
<path fill-rule="evenodd" clip-rule="evenodd" d="M196.136 171.091H189.863C177.5 171.091 167.721 161.273 167.906 149.091V104.364V90.9091V72.1818C167.906 63.4546 171.227 55.6364 176.393 49.4546C175.471 49.0909 174.917 48.3637 174.548 47.4546C174.364 47.0909 171.596 38 178.238 28.9091C181.375 24.7273 186.357 24.7273 190.232 25.8182C197.797 15.6364 208.867 14.3637 216.248 15.4546C216.617 12.7273 217.539 9.09092 219.384 6.18183C221.414 2.90911 226.211 1.09092 231.378 1.63638C237.651 2.18183 242.633 5.8182 244.847 11.4546C246.139 14.9091 246.139 18.3636 244.663 21.2727C243.187 24 240.972 25.8182 238.943 27.0909C241.341 30.7273 244.109 37.2727 243.187 46.7273C245.954 48.9091 248.906 52.7273 247.246 57.4546L247.061 58C245.585 62.5455 244.663 65.0909 240.972 68.7273L240.603 69.0909H352.602C364.78 69.0909 374.743 78.9091 374.743 90.9091V149.273C374.743 161.273 364.78 171.091 352.602 171.091H348.543V189.818H342.454V171.091H338.395V189.818H332.306V171.091H212.373V189.818H206.284V171.091H202.225V189.818H196.136V171.091ZM189.863 32.9091C189.863 32.7273 185.065 30.5455 183.405 32.9091C180.083 37.4546 179.899 41.8182 180.083 44.1818L181.191 44.5455L200.195 50.7273L218.646 56.7273L237.467 62.9091L237.651 62.7273C238.943 61.0909 239.496 59.4546 240.603 56.1818L240.788 55.6364C241.526 53.4546 238.02 51.4546 238.02 51.4546C236.913 50.7273 236.175 49.4546 236.36 48.1818C238.205 34.7273 231.378 28.7273 231.378 28.7273C230.455 28 230.086 26.7273 230.271 25.6364C230.455 24.5455 231.378 23.6364 232.485 23.2727C233.776 22.9091 237.098 21.4546 238.389 18.9091C239.127 17.6364 239.127 16.1818 238.389 14.3637C236.544 9.63638 232.3 8.72729 230.455 8.54547C227.319 8.18183 225.104 9.27274 224.551 10C222.521 12.9091 222.337 18 222.337 19.6364C222.337 20.7273 221.968 21.8182 221.045 22.3636C220.307 22.9091 219.2 23.0909 218.093 22.7273C217.539 22.5455 202.594 17.6364 194.106 31.6364C193.184 33.0909 191.339 33.6364 189.863 32.9091ZM177.316 69.0909C173.626 69.0909 170.489 72.1818 170.489 75.8182C170.489 79.6364 173.441 82.5455 177.316 82.5455H181.375V97.8182V104.364V149.091C181.375 153.636 185.25 157.455 189.863 157.455H352.602C357.215 157.455 361.09 153.636 361.09 149.091V90.9091C361.09 86.3636 357.215 82.5455 352.602 82.5455H239.127V99.4546C239.127 103.091 235.991 106.182 232.3 106.182C228.61 106.182 225.473 103.091 225.473 99.4546V82.5455H229.533C233.223 82.5455 236.36 79.4546 236.36 75.8182C236.36 72.1818 233.223 69.0909 229.533 69.0909H225.289C225.104 67.8182 224.735 66.5455 224.366 65.2727L190.785 54.3636C185.803 57.6364 182.482 62.9091 181.56 69.0909H177.316ZM197.797 102.909C198.904 105.091 200.933 106.364 203.332 106.364C205.731 106.364 207.945 105.091 208.867 102.909L220.492 78.7272C221.414 76.909 221.23 74.7272 220.123 72.909C219.015 71.0909 216.986 70.1818 214.956 70.1818H191.708C189.678 70.1818 187.648 71.2727 186.541 72.909C185.434 74.7272 185.25 76.909 186.172 78.7272L197.797 102.909ZM47.235 145.273C41.3306 145.273 36.1643 143.636 31.5515 140L33.5811 136.909C38.0094 140.182 42.6222 141.818 47.0505 141.818C52.7704 141.818 56.4606 139.091 56.4606 135.636C56.4606 132.909 54.062 130.727 49.4492 130.364C48.6035 130.304 47.7875 130.254 47.0004 130.206L46.9977 130.206H46.9975C42.9771 129.961 39.7095 129.762 37.0869 128.545C34.3192 127.273 32.8431 125.091 32.8431 122.546C32.8431 118 37.2714 114.364 44.4673 114.364C49.6337 114.364 54.431 116.182 58.8593 119.273L56.6451 122.364C52.9549 119.455 48.7111 118 44.4673 118C39.8545 118 36.7178 120 36.7178 122.546C36.7178 123.636 37.2714 124.364 38.1939 125.091C40.0849 126.422 42.8659 126.584 46.3919 126.789C47.6826 126.864 49.073 126.945 50.5562 127.091C56.8296 127.818 60.5199 131.273 60.5199 135.818C60.5199 140.909 55.7226 145.273 47.235 145.273ZM0 144.546H24.9091V141.091H3.69024V130.364H15.6835V126.909H3.69024V118.364H23.6175V114.909H0V144.546ZM467.737 123.273C467.737 125.273 466.63 127.091 464.601 128.364C468.106 130 469.767 132.364 469.582 135.636C469.582 141.091 464.416 145.091 455.375 145.091C446.15 145.091 440.983 141.273 440.983 135.636C440.983 132.364 442.644 129.818 446.15 128.364C444.12 127.091 443.013 125.273 443.013 123.273C443.013 118.727 447.441 115.636 455.375 115.636C463.309 115.636 467.737 118.909 467.737 123.273ZM464.047 123.091C464.047 120.909 461.095 119.091 455.56 119.091C450.209 119.091 447.257 120.909 447.257 123.091C447.257 125.455 450.024 126.909 455.56 126.909C461.095 126.909 464.047 125.455 464.047 123.091ZM445.227 135.818C445.227 139.273 448.917 141.818 455.56 141.818C462.202 141.818 465.892 139.273 465.892 135.818C465.892 131.818 462.387 130.546 455.56 130.546C448.917 130.546 445.227 131.818 445.227 135.818ZM422.717 116.182H426.591V144.546H422.717V116.182ZM478.439 135.818L476.04 138.545C480.653 143.091 485.82 145.091 492.462 145.091C501.503 145.091 507.038 140.364 507.038 135.455C507.038 132.364 505.378 130 502.241 128.727C503.902 127.455 504.824 125.636 504.824 123.455C504.824 118.727 500.765 115.636 493.938 115.636C488.772 115.636 483.974 117.273 479.915 120.182L482.129 123.273C486.004 120.546 489.694 119.091 493.754 119.091C498.366 119.091 501.134 121.091 501.134 123.455C501.134 126.182 498.92 127.273 494.492 127.273H492.646V130.727H493.938C500.211 130.727 503.533 132.364 503.533 135.636C503.533 138.727 499.473 141.818 492.646 141.818C486.927 141.818 482.867 140 478.439 135.818ZM513.312 130.364C513.312 122.182 519.954 115.636 529.733 115.636C539.512 115.636 546.339 122.182 546.339 130.364C546.339 138.727 539.512 145.091 529.733 145.091C519.954 145.091 513.312 138.727 513.312 130.364ZM517.187 130.546C517.187 136.727 522.353 141.818 529.733 141.818C537.298 141.818 542.465 136.727 542.28 130.546C542.28 124.182 537.298 119.273 529.733 119.273C522.168 119.273 517.187 124.182 517.187 130.546ZM76.7569 144.546H80.6317V118.364H93.1785V114.909H64.2101V118.364H76.7569V144.546ZM93.9165 142.909C93.9165 141.273 94.8391 140.364 96.1306 140.364C97.4222 140.364 98.3448 141.273 98.3448 142.909C98.3448 144.364 97.4222 145.273 96.1306 145.273C95.0236 145.273 93.9165 144.364 93.9165 142.909ZM124.176 228H115.504C115.504 228 107.386 252.909 105.725 257.818C104.065 252.909 95.7616 228 95.7616 228H87.4586C87.4586 228 79.1556 252.909 77.4949 258C75.8343 253.091 67.7158 228 67.7158 228H57.1987L73.6202 277.636H81.0007C81.0007 277.636 89.6727 251.091 91.3333 246.182C92.9939 251.273 101.851 277.636 101.851 277.636H109.231L125.653 228H124.176ZM129.712 252.909C129.712 238 140.783 227.091 155.728 227.091C170.858 227.091 181.744 237.818 181.744 252.909C181.744 267.818 170.858 278.727 155.728 278.727C140.598 278.727 129.712 267.818 129.712 252.909ZM140.044 252.909C140.044 262.364 146.687 269.091 155.728 269.091C164.769 269.091 171.411 262.182 171.411 252.909C171.411 243.636 164.769 236.727 155.728 236.727C146.687 236.727 140.044 243.454 140.044 252.909ZM216.432 227.091C201.302 227.091 190.416 238 190.416 252.909C190.416 267.818 201.302 278.727 216.432 278.727C231.562 278.727 242.448 267.818 242.448 252.909C242.448 237.818 231.378 227.091 216.432 227.091ZM216.432 269.091C207.391 269.091 200.749 262.364 200.749 252.909C200.749 243.454 207.391 236.727 216.432 236.727C225.473 236.727 232.116 243.636 232.116 252.909C231.931 262.182 225.473 269.091 216.432 269.091ZM254.811 228H263.852H264.959V268H294.85V277.636H254.811V228ZM338.948 256.545C345.037 254.364 348.912 249.091 348.912 242.727C348.912 233.636 342.454 228 332.306 228H303.891V277.636H314.039V257.818H328.246C328.8 258.727 339.686 277.636 339.686 277.636H351.126C351.126 277.636 340.055 258.364 338.948 256.545ZM331.937 248.182H313.855V237.636H332.121C338.395 237.636 338.395 241.636 338.395 242.909C338.579 245.273 337.841 248.182 331.937 248.182ZM361.643 227.818H370.869H371.976V277.636H361.643V227.818ZM384.338 252.909C384.338 267.818 395.224 278.727 410.354 278.727C420.502 278.727 428.805 274 433.418 265.273L434.341 263.636L426.038 257.636L424.746 259.818C421.609 265.818 416.443 268.909 410.17 268.909C401.129 268.909 394.486 262.182 394.486 252.727C394.486 243.273 401.129 236.545 410.17 236.545C416.074 236.545 421.056 239.273 423.455 244L424.562 246.182L433.049 240.182L431.942 238.364C427.145 231.091 419.211 226.727 409.985 226.727C395.224 227.091 384.338 237.818 384.338 252.909ZM478.993 228H488.034H489.141V277.636H478.993V255.454H456.482V277.636H446.149V228H456.482V245.818H478.993V228Z" fill="black"/>
</svg>
