<svg width="548" height="280" viewBox="0 0 548 280" fill="none" xmlns="http://www.w3.org/2000/svg">
<path d="M355.505 52.4552H242.371C240.721 34.3022 225.502 20 206.982 20C187.363 20 171.41 35.9525 171.41 55.572V74.4584V88.0272V133.318C171.41 145.42 181.312 155.321 193.414 155.321H199.648V174.207H205.699V155.321H209.733V174.207H215.784V155.321H335.336V174.207H341.386V155.321H345.42V174.207H351.472V155.321H355.505C367.607 155.321 377.509 145.42 377.509 133.318V74.4584C377.509 62.3564 367.607 52.4552 355.505 52.4552ZM363.94 133.318C363.94 138.085 360.09 141.752 355.505 141.752H193.414C188.646 141.752 184.979 137.902 184.979 133.318V88.0272V81.426V66.024H180.945C177.278 66.024 174.16 62.9068 174.16 59.2396C174.16 55.572 177.278 52.4552 180.945 52.4552H185.162C186.629 41.82 195.797 33.5688 206.982 33.5688C217.984 33.5688 227.152 41.82 228.802 52.4552H233.02C236.687 52.4552 239.804 55.572 239.804 59.2396C239.804 62.9068 236.687 66.024 233.02 66.024H228.986V83.0764C228.986 86.7436 232.103 89.8608 235.77 89.8608C239.437 89.8608 242.554 86.7436 242.554 83.0764V66.024H355.689C360.456 66.024 364.123 69.8744 364.123 74.4584V133.318H363.94Z" fill="black"/>
<path d="M218.531 53.3732H195.244C193.227 53.3732 191.21 54.4732 190.11 56.3068C189.01 58.1404 188.826 60.3408 189.743 62.1744L201.295 86.5616C202.395 88.762 204.412 90.0456 206.796 90.0456C209.18 90.0456 211.38 88.762 212.297 86.5616L223.848 62.1744C224.765 60.3408 224.582 57.9572 223.482 56.3068C222.565 54.4732 220.548 53.3732 218.531 53.3732Z" fill="black"/>
<path d="M427.932 98.4784H424.084V127.083H427.932V98.4784Z" fill="black"/>
<path d="M465.892 110.763C467.908 109.48 469.008 107.646 469.008 105.629C469.008 101.228 464.608 97.9276 456.724 97.9276C448.84 97.9276 444.44 101.045 444.44 105.629C444.44 107.646 445.54 109.48 447.556 110.763C444.072 112.23 442.42 114.797 442.42 118.098C442.42 123.782 447.556 127.632 456.724 127.632C465.708 127.632 470.844 123.598 470.844 118.098C471.028 114.797 469.376 112.413 465.892 110.763ZM456.724 101.412C462.224 101.412 465.16 103.245 465.16 105.446C465.16 107.829 462.224 109.296 456.724 109.296C451.224 109.296 448.472 107.829 448.472 105.446C448.472 103.245 451.408 101.412 456.724 101.412ZM456.724 124.332C450.124 124.332 446.456 121.765 446.456 118.281C446.456 114.247 450.124 112.963 456.724 112.963C463.508 112.963 466.992 114.247 466.992 118.281C466.992 121.765 463.508 124.332 456.724 124.332Z" fill="black"/>
<path d="M479.456 118.462L477.076 121.213C481.66 125.797 486.792 127.814 493.392 127.814C502.38 127.814 507.88 123.046 507.88 118.096C507.88 114.979 506.228 112.595 503.112 111.312C504.76 110.028 505.68 108.194 505.68 105.994C505.68 101.226 501.644 98.1091 494.86 98.1091C489.728 98.1091 484.96 99.7595 480.924 102.694L483.124 105.81C486.976 103.06 490.644 101.593 494.676 101.593C499.26 101.593 502.012 103.61 502.012 105.994C502.012 108.744 499.812 109.844 495.412 109.844C494.86 109.844 494.128 109.844 493.576 109.844V113.328H494.86C501.096 113.328 504.396 114.979 504.396 118.279C504.396 121.396 500.36 124.514 493.576 124.514C487.892 124.33 484.04 122.496 479.456 118.462Z" fill="black"/>
<path d="M530.62 97.9276C520.9 97.9276 514.3 104.529 514.3 112.78C514.3 121.215 520.9 127.632 530.62 127.632C540.34 127.632 547.124 121.215 547.124 112.78C546.94 104.529 540.34 97.9276 530.62 97.9276ZM530.62 124.332C523.284 124.332 518.152 119.198 518.152 112.963C518.152 106.546 523.104 101.595 530.62 101.595C538.136 101.595 543.088 106.546 543.088 112.963C543.088 119.198 537.956 124.332 530.62 124.332Z" fill="black"/>
<path d="M4 127.081H28.7538V123.598H7.8506V112.779H19.7691V109.295H7.8506V100.677H27.4703V97.1932H4V127.081Z" fill="black"/>
<path d="M35.3516 122.498C39.9356 126.166 45.0696 127.816 50.9372 127.816C59.372 127.816 64.1392 123.415 64.1392 118.281C64.1392 113.697 60.472 110.213 54.238 109.48C48.7368 108.93 44.5196 109.296 41.9524 107.463C41.0356 106.73 40.4856 105.996 40.4856 104.896C40.4856 102.329 43.6028 100.312 48.1868 100.312C52.4044 100.312 56.6216 101.779 60.2888 104.712L62.4892 101.595C58.0884 98.478 53.3212 96.6444 48.1868 96.6444C41.0356 96.6444 36.6351 100.312 36.6351 104.896C36.6351 107.463 38.102 109.663 40.8524 110.947C43.9696 112.414 48.0036 112.414 53.1376 112.78C57.7216 113.147 60.1056 115.348 60.1056 118.098C60.1056 121.582 56.438 124.332 50.754 124.332C46.3532 124.332 41.7692 122.682 37.3685 119.381L35.3516 122.498Z" fill="black"/>
<path d="M80.4644 127.083H84.1316V100.679H96.7836V97.1952H67.8124V100.679H80.4644V127.083Z" fill="black"/>
<path d="M99.7161 122.865C98.4325 122.865 97.5157 123.782 97.5157 125.432C97.5157 126.899 98.6157 127.816 99.7161 127.816C101 127.816 101.916 126.899 101.916 125.432C101.916 123.782 100.816 122.865 99.7161 122.865Z" fill="black"/>
<path d="M127.4 211.248H118.782C118.782 211.248 110.714 236.368 109.064 241.319C107.414 236.368 99.1624 211.248 99.1624 211.248H90.728C90.728 211.248 82.4764 236.369 80.8264 241.503C79.176 236.552 71.108 211.248 71.108 211.248H60.84L77.1592 261.306H84.4936C84.4936 261.306 93.1116 234.535 94.7616 229.584C96.412 234.718 105.213 261.306 105.213 261.306H112.548L128.867 211.248H127.4Z" fill="black"/>
<path d="M158.756 210.328C143.904 210.328 132.902 221.33 132.902 236.366C132.902 251.401 143.721 262.403 158.756 262.403C173.792 262.403 184.61 251.401 184.61 236.366C184.61 221.146 173.792 210.328 158.756 210.328ZM158.756 252.685C149.772 252.685 143.171 245.9 143.171 236.366C143.171 226.831 149.772 220.046 158.756 220.046C167.741 220.046 174.342 227.014 174.342 236.366C174.342 245.9 167.741 252.685 158.756 252.685Z" fill="black"/>
<path d="M219.08 210.328C204.045 210.328 193.226 221.33 193.226 236.366C193.226 251.401 204.045 262.403 219.08 262.403C234.116 262.403 244.935 251.401 244.935 236.366C244.935 221.146 234.116 210.328 219.08 210.328ZM219.08 252.685C210.096 252.685 203.495 245.9 203.495 236.366C203.495 226.831 210.096 220.046 219.08 220.046C228.065 220.046 234.666 227.014 234.666 236.366C234.666 245.9 228.065 252.685 219.08 252.685Z" fill="black"/>
<path d="M266.391 211.248H257.223V261.306H297.012V251.588H267.308V211.248H266.391Z" fill="black"/>
<path d="M341.014 240.036C347.066 237.836 350.916 232.518 350.916 226.1C350.916 216.932 344.498 211.248 334.414 211.248H306.176V261.306H316.261V241.319H330.38C330.93 242.236 341.748 261.306 341.748 261.306H353.116C352.933 261.306 341.931 241.87 341.014 240.036ZM334.047 231.601H316.077V220.966H334.23C340.464 220.966 340.464 225 340.464 226.284C340.464 228.668 339.731 231.601 334.047 231.601Z" fill="black"/>
<path d="M372.738 211.064H363.57V261.306H373.655V211.064H372.738Z" fill="black"/>
<path d="M386.125 236.367C386.125 251.403 396.943 262.404 411.98 262.404C422.064 262.404 430.316 257.637 434.9 248.836L435.816 247.185L427.564 241.134L426.28 243.335C423.164 249.386 418.028 252.503 411.796 252.503C402.812 252.503 396.21 245.718 396.21 236.184C396.21 226.649 402.812 219.864 411.796 219.864C417.664 219.864 422.612 222.615 424.996 227.382L426.096 229.582L434.532 223.532L433.432 221.698C428.664 214.364 420.78 209.963 411.612 209.963C396.943 210.33 386.125 221.148 386.125 236.367Z" fill="black"/>
<path d="M489.172 211.248H480.004V229.218H457.636V211.248H447.552V261.306H457.636V238.936H480.004V261.306H490.092V211.248H489.172Z" fill="black"/>
</svg>
