<svg width="430" height="289" viewBox="0 0 430 289" fill="none" xmlns="http://www.w3.org/2000/svg">
<g clip-path="url(#clip0_1_602)">
<path d="M203.083 21.0293H225.074V34.434H233.183V0.368896H225.074V13.7736H203.083V0.368896H194.974V34.434H203.083V21.0293Z" fill="black"/>
<path d="M300.386 252.106H292.891L268.688 288.754H279.008L283.554 281.744H309.6L314.146 288.754H324.588L300.386 252.106ZM289.328 273.013L296.7 261.822L304.071 273.013H289.328Z" fill="black"/>
<path d="M114.257 277.194L98.04 252.106H92.5114L76.6628 277.317L61.3057 252.229L61.1828 252.106H16.2171C11.18 252.106 7.00284 247.925 7.00284 242.883V43.6574C7.00284 38.6153 11.18 34.434 16.2171 34.434H173.474V7.62464H188.831V0.368896H149.64V7.62464H165.243V27.3012H16.2171C7.1257 27.3012 -0.245728 34.68 -0.245728 43.7804V242.883C-0.245728 251.983 7.1257 259.362 16.2171 259.362H55.2857L73.2228 288.631L73.3457 288.754H79.98L95.46 264.281L111.309 288.754H117.697L139.934 252.106H129.737L114.257 277.194Z" fill="black"/>
<path d="M234.78 278.424L215.246 252.229L215.123 252.106H205.171V288.631H213.771V263.052L232.077 288.631H237.483L255.666 263.052V288.631H264.389V252.106H254.314L234.78 278.424Z" fill="black"/>
<path d="M186.374 252.106H154.063C146.691 252.106 142.023 256.288 142.023 263.052V278.055C142.023 284.573 146.691 288.754 154.063 288.754H186.251C193.623 288.754 198.291 284.573 198.291 278.055V263.052C198.291 256.288 193.746 252.106 186.374 252.106ZM189.569 276.579C189.569 279.408 187.849 281.006 184.9 281.006H155.537C152.589 281.006 150.869 279.408 150.869 276.579V264.404C150.869 261.453 152.589 259.977 155.906 259.977H184.531C187.849 259.977 189.569 261.453 189.569 264.404V276.579Z" fill="black"/>
<path d="M413.783 27.1783H248.54V20.9063H271.76V13.6506H248.54V7.62464H280.36V0.368896H240.431V34.434H413.906C418.943 34.434 423.12 38.6153 423.12 43.6574V242.76C423.12 247.802 418.943 251.983 413.906 251.983H370.537V277.071L336.751 252.106H336.629H329.011V288.754H337.611V263.666L371.397 288.631H371.52H379.014V259.239H413.783C422.874 259.239 430.246 251.86 430.246 242.76V43.6574C430.246 34.557 422.874 27.1783 413.783 27.1783Z" fill="black"/>
<path d="M245.346 208.449C247.557 208.449 249.646 209.556 250.751 211.277L252.84 210.17C251.243 207.957 248.909 206.358 245.346 206.358C239.694 206.358 235.271 210.416 235.271 216.319C235.271 222.222 239.694 226.281 245.346 226.281C248.786 226.281 251.243 224.682 252.84 222.468L250.751 221.362C249.646 222.96 247.557 224.19 245.346 224.19C241.046 224.19 237.729 220.87 237.729 216.319C237.851 211.646 241.046 208.449 245.346 208.449Z" fill="black"/>
<path d="M265.126 206.604L257.14 225.789H259.966L261.686 221.485H271.514L273.234 225.789H276.06L268.197 206.604H265.126ZM262.423 219.517L266.6 209.187L270.777 219.517H262.423Z" fill="black"/>
<path d="M287.24 225.912V208.818H293.506V206.604H278.517V208.818H284.783V225.912H287.24Z" fill="black"/>
<path d="M316.357 225.912V206.604H313.9V214.967H302.474V206.604H300.017V225.912H302.474V217.057H313.9V225.912H316.357Z" fill="black"/>
<path d="M338.349 225.912H341.174L333.311 206.727H330.24L322.254 225.912H325.08L326.8 221.608H336.629L338.349 225.912ZM327.537 219.517L331.714 209.187L335.891 219.517H327.537Z" fill="black"/>
<path d="M361.077 212.384C361.077 208.818 358.497 206.604 354.934 206.604H347.071V225.789H349.529V218.164H353.46L358.497 225.789H361.446L356.163 217.918C358.62 217.795 361.077 215.951 361.077 212.384ZM354.566 216.074H349.406V208.695H354.566C356.9 208.695 358.497 210.171 358.497 212.384C358.497 214.598 356.9 216.074 354.566 216.074Z" fill="black"/>
<path d="M370.66 206.604H368.203V225.789H370.66V206.604Z" fill="black"/>
<path d="M60.2 224.682C59.9543 225.174 59.7086 225.42 59.34 225.666V225.912H62.6572H65.7286C69.1686 225.912 71.8714 225.051 73.8372 223.206C75.8029 221.362 76.7857 219.025 76.7857 216.197C76.7857 213.245 75.8029 210.909 73.96 209.187C71.9943 207.465 69.2914 206.604 65.6057 206.604H63.1486H59.2172V206.85C59.5857 207.096 59.9543 207.342 60.0772 207.834C60.3229 208.326 60.3229 208.941 60.3229 209.802V222.591C60.5686 223.575 60.4457 224.19 60.2 224.682ZM63.2714 207.342H65.36C68.0629 207.342 70.2743 208.203 71.7486 209.802C73.2229 211.4 73.96 213.614 73.96 216.32C73.96 219.025 73.2229 221.116 71.8714 222.714C70.52 224.313 68.5543 225.051 66.0972 225.051H65.7286C64.8686 225.051 64.3772 224.928 64.0086 224.559C63.64 224.19 63.3943 223.698 63.3943 222.96L63.2714 207.342Z" fill="black"/>
<path d="M95.2143 225.666V225.912H100.989V225.666C100.497 225.297 100.006 224.928 99.6371 224.436C99.2686 223.944 98.9 223.206 98.4086 222.222L91.6514 206.358H91.2829L84.6486 221.362C83.6657 223.575 82.56 224.928 81.3314 225.543V225.789H86.3686V225.543C85.14 224.805 85.0171 223.452 85.8771 221.239L86.3686 219.886H94.6L95.46 221.976C96.32 223.944 96.1971 225.174 95.2143 225.666ZM86.86 219.148L90.5457 210.17L94.3543 219.148H86.86Z" fill="black"/>
<path d="M105.903 225.666V225.912H110.694V225.666C109.466 225.051 108.851 223.452 108.729 220.993L108.483 210.786L121.26 226.281H121.751L121.997 211.277C121.997 208.941 122.611 207.465 123.84 206.85V206.604H119.171V206.85C120.4 207.465 121.014 208.941 121.014 211.277V221.854L108.729 206.604H105.903V206.85C107.254 207.588 107.869 209.31 107.746 211.769L107.623 220.87C107.746 223.452 107.131 225.051 105.903 225.666Z" fill="black"/>
<path d="M131.949 224.682C131.703 225.174 131.457 225.42 131.089 225.666V225.912H136.126V225.666C135.757 225.42 135.389 225.174 135.266 224.682C135.143 224.313 135.02 223.575 135.02 222.714V209.925C135.02 209.064 135.143 208.326 135.266 207.957C135.389 207.588 135.757 207.219 136.126 206.973V206.604H131.089V206.85C131.457 207.096 131.826 207.342 131.949 207.834C132.194 208.326 132.194 208.941 132.194 209.802V222.591C132.317 223.575 132.194 224.19 131.949 224.682Z" fill="black"/>
<path d="M155.291 203.653C155.66 203.284 155.783 202.915 155.783 202.423C155.783 201.931 155.66 201.562 155.291 201.193C154.923 200.824 154.554 200.701 154.063 200.701C153.571 200.701 153.203 200.824 152.834 201.193C152.466 201.562 152.343 201.931 152.343 202.423C152.343 202.915 152.466 203.284 152.834 203.653C153.203 204.022 153.571 204.145 154.063 204.145C154.554 204.145 154.923 203.899 155.291 203.653Z" fill="black"/>
<path d="M144.971 224.682C144.726 225.174 144.48 225.42 144.111 225.666V225.912H147.183H157.871V221.362H157.503C157.134 222.714 156.52 223.698 155.783 224.313C155.046 224.928 153.817 225.174 152.22 225.174H150.254C149.394 225.174 148.78 225.051 148.411 224.682C148.043 224.313 147.92 223.821 147.92 223.083V216.443L150.869 216.566C151.729 216.566 152.466 216.811 152.957 217.18C153.449 217.549 153.817 218.164 154.063 219.025H154.309V213.122H154.063C153.817 213.983 153.449 214.598 152.957 215.09C152.466 215.459 151.851 215.705 150.869 215.828L147.797 215.951V207.588H151.483C152.957 207.588 154.186 207.834 154.923 208.326C155.783 208.818 156.397 209.679 156.889 210.909H157.257V206.604H147.92H143.989V206.85C144.357 207.096 144.726 207.342 144.849 207.834C145.094 208.326 145.094 208.941 145.094 209.802V222.591C145.217 223.575 145.094 224.19 144.971 224.682Z" fill="black"/>
<path d="M149.271 203.653C149.64 203.284 149.763 202.915 149.763 202.423C149.763 201.931 149.64 201.562 149.271 201.193C148.903 200.824 148.534 200.701 148.043 200.701C147.551 200.701 147.183 200.824 146.814 201.193C146.446 201.562 146.323 201.931 146.323 202.423C146.323 202.915 146.446 203.284 146.814 203.653C147.183 204.022 147.551 204.145 148.043 204.145C148.534 204.145 148.903 203.899 149.271 203.653Z" fill="black"/>
<path d="M164.26 225.666V225.912H167.331H177.897V220.624H177.529C177.16 222.346 176.546 223.452 175.809 224.19C175.071 224.805 173.843 225.174 172.123 225.174H170.526C169.666 225.174 169.051 225.051 168.683 224.682C168.314 224.313 168.069 223.821 168.069 223.083V209.925C168.069 209.064 168.191 208.326 168.314 207.957C168.437 207.588 168.806 207.219 169.174 206.973V206.604H164.137V206.85C164.506 207.096 164.874 207.342 164.997 207.834C165.12 208.203 165.243 208.941 165.243 209.802V222.591C165.489 224.313 164.997 225.297 164.26 225.666Z" fill="black"/>
<path d="M184.04 225.666V225.912H187.111H197.677V220.624H197.309C196.94 222.346 196.326 223.452 195.589 224.19C194.851 224.805 193.623 225.174 191.903 225.174H190.306C189.446 225.174 188.831 225.051 188.463 224.682C188.094 224.313 187.849 223.821 187.849 223.083V209.925C187.849 209.064 187.971 208.326 188.094 207.957C188.217 207.588 188.586 207.219 188.954 206.973V206.604H183.917V206.85C184.286 207.096 184.654 207.342 184.777 207.834C184.9 208.203 185.023 208.941 185.023 209.802V222.591C185.146 224.313 184.777 225.297 184.04 225.666Z" fill="black"/>
<path d="M217.58 225.912V221.362H217.211C216.843 222.714 216.229 223.698 215.491 224.313C214.754 224.928 213.526 225.174 211.929 225.174H210.086C209.226 225.174 208.611 225.051 208.243 224.682C207.874 224.313 207.751 223.821 207.751 223.083V216.443L210.7 216.566C211.56 216.566 212.297 216.811 212.789 217.18C213.28 217.549 213.649 218.164 213.894 219.025H214.14V213.122H213.771C213.526 213.983 213.157 214.598 212.666 215.09C212.174 215.459 211.56 215.705 210.577 215.828L207.506 215.951V207.588H211.191C212.666 207.588 213.894 207.834 214.631 208.326C215.491 208.818 216.106 209.679 216.597 210.909H216.966V206.604H207.629H203.697V206.85C204.066 207.096 204.434 207.342 204.557 207.834C204.803 208.326 204.803 208.941 204.803 209.802V222.591C204.803 223.452 204.68 224.19 204.557 224.559C204.311 225.051 204.066 225.297 203.697 225.543V225.789H206.769H217.58V225.912Z" fill="black"/>
<path d="M192.271 71.9426H178.88C177.651 71.9426 176.546 72.5575 175.931 73.5413C175.317 74.5252 175.194 75.8779 175.686 76.9848L182.443 91.1273C183.057 92.3571 184.286 93.2179 185.637 93.2179C186.989 93.2179 188.217 92.4801 188.831 91.1273L195.589 76.9848C196.08 75.8779 196.08 74.6482 195.343 73.5413C194.606 72.5575 193.5 71.9426 192.271 71.9426Z" fill="black"/>
<path d="M143.866 176.721C145.954 176.721 147.797 175.245 148.166 173.154L160.943 106.131C161.189 105.024 160.943 103.794 160.206 102.81C159.591 101.826 158.609 101.212 157.38 100.966C154.923 100.474 152.711 102.072 152.22 104.409L143.743 148.558L135.757 105.516C135.389 103.425 133.546 101.949 131.457 101.949C129.369 101.949 127.526 103.425 127.157 105.516L119.171 148.312L111.554 105.639C111.186 103.548 109.343 102.072 107.254 102.072H88.3342C85.8771 102.072 83.9114 104.04 83.9114 106.5C83.9114 108.959 85.8771 110.927 88.3342 110.927H103.691L114.871 173.154C115.24 175.245 117.083 176.721 119.171 176.721C121.26 176.721 123.103 175.245 123.471 173.154L131.703 130.112L139.689 173.154C139.934 175.122 141.777 176.721 143.866 176.721Z" fill="black"/>
<path d="M290.68 158.888C293.014 159.38 295.349 157.782 295.84 155.445C295.963 154.953 296.823 150.034 293.874 146.468C292.646 144.992 290.311 143.27 286.38 143.27C277.411 143.27 272.129 150.034 272.129 161.471C272.129 163.439 272.374 165.283 272.989 167.005C271.023 168.481 269.426 169.219 268.32 169.096C267.337 168.85 266.477 167.62 266.231 167.128V148.189C266.231 145.73 264.266 143.762 261.809 143.762C259.351 143.762 257.386 145.73 257.386 148.189V166.144C255.297 168.358 253.331 169.465 251.98 169.219C251.489 169.096 251.12 168.85 250.997 168.604V149.788C250.997 145.976 250.997 144.008 248.786 144.008C248.171 144.008 247.311 144.254 245.96 144.623C244.363 145.115 231.463 149.542 231.34 149.665C229.62 150.28 228.391 152.002 228.391 153.846V172.539C228.391 174.999 230.357 176.966 232.814 176.966C235.271 176.966 237.237 174.999 237.237 172.539V156.921L242.151 155.199V169.096C242.151 172.539 244.854 176.105 248.54 177.458C249.769 177.95 250.997 178.073 252.226 178.073C255.174 178.073 258 176.966 260.826 174.753C262.423 176.228 264.143 177.212 266.109 177.704C269.794 178.565 273.726 177.335 277.78 174.261C280.483 176.228 283.923 177.335 287.731 177.335C291.417 177.335 294.98 176.228 298.297 174.015C298.42 176.228 300.386 178.073 302.72 178.073C305.177 178.073 307.143 176.105 307.143 173.646V155.691C307.266 155.691 307.389 155.568 307.511 155.445C308.74 154.584 312.18 152.371 314.146 152.371C314.76 152.371 315.374 152.494 315.374 153.969C315.374 159.995 315.374 164.422 315.374 167.374C315.374 174.507 315.374 174.63 316.726 175.982C317.586 176.843 318.691 177.335 319.797 177.335H337.734C340.191 177.335 342.157 175.368 342.157 172.908C342.157 170.448 340.191 168.481 337.734 168.481H324.343V167.374C324.343 164.422 324.343 159.995 324.343 153.969C324.343 147.451 321.64 144.869 319.306 143.762C316.48 142.409 312.917 142.901 308.863 144.992C320.288 133.801 322.746 118.428 319.306 109.574C317.34 104.532 313.531 101.58 308.863 101.58C306.037 101.58 303.58 102.564 301.737 104.532C298.42 108.098 298.543 113.509 298.543 114.616V161.963C297.069 164.054 293.26 168.358 287.977 168.358C286.011 168.358 283.309 167.866 281.957 165.652C281.22 164.545 280.851 163.193 280.851 161.471C280.851 157.167 281.711 152.002 286.011 152.002C286.134 152.002 286.257 152.002 286.38 152.002C286.749 152.002 286.994 152.125 287.117 152.371C287.363 152.616 287.363 153.231 287.24 153.846C286.871 156.183 288.346 158.396 290.68 158.888ZM308.126 110.312C308.126 110.312 308.248 110.189 308.863 110.189C309.968 110.189 310.829 111.911 311.074 112.648C312.917 117.199 312.057 125.438 307.266 132.817V114.37C307.266 114.247 307.266 114.124 307.266 114.124C307.266 112.771 307.634 110.927 308.126 110.312Z" fill="black"/>
<path d="M266.969 71.9424H205.294C204.311 61.8582 195.834 53.9875 185.637 53.9875C174.703 53.9875 165.857 62.842 165.857 73.7871V84.1173C165.857 84.3633 165.857 84.4863 165.857 84.7322C165.857 84.8552 165.857 85.1012 165.857 85.3471V116.338C165.857 123.716 171.877 129.619 179.126 129.619H181.46V139.704H184.9V129.619H187.111V139.704H190.551V129.619H214.631V147.943C213.771 148.066 212.911 148.189 212.051 148.189C208.734 148.189 205.663 147.328 204.434 146.959C202.346 145.361 200.011 144.5 197.554 144.5C195.22 144.5 192.886 145.238 190.92 146.714C188.831 147.574 186.374 147.943 183.549 147.943C179.249 147.943 175.44 146.959 174.58 146.714C172.614 145.238 170.28 144.5 167.946 144.5C160.574 144.5 154.923 151.756 154.923 160.979C154.923 170.202 160.697 177.458 167.946 177.458C175.317 177.458 180.969 170.202 180.969 160.979C180.969 159.503 180.846 158.028 180.477 156.675C181.951 156.798 183.303 156.798 184.777 156.798C184.531 158.151 184.409 159.626 184.409 160.979C184.409 170.202 190.183 177.458 197.431 177.458C204.803 177.458 210.454 170.202 210.454 160.979C210.454 159.626 210.331 158.273 210.086 156.921C211.683 157.044 212.911 157.044 214.631 156.798V173.523C214.631 175.982 216.597 177.95 219.054 177.95C221.511 177.95 223.477 175.982 223.477 173.523V153.6C223.723 153.354 223.969 153.231 224.091 152.985L224.46 152.616C231.094 146.345 234.78 137.736 236.131 129.619H256.771V139.704H260.211V129.619H262.423V139.704H265.74V129.619H267.214C274.586 129.619 280.483 123.594 280.483 116.338V85.3471C280.36 77.9684 274.34 71.9424 266.969 71.9424ZM167.7 168.481C165.734 168.481 163.4 165.16 163.4 160.856C163.4 156.552 165.734 153.231 167.7 153.231C169.666 153.231 172 156.552 172 160.856C172 165.16 169.666 168.481 167.7 168.481ZM197.309 168.481C195.343 168.481 193.009 165.16 193.009 160.856C193.009 156.552 195.343 153.231 197.309 153.231C199.274 153.231 201.609 156.552 201.609 160.856C201.609 165.16 199.274 168.481 197.309 168.481ZM227.777 123.594C227.777 123.716 227.777 123.716 227.777 123.839C227.777 124.454 227.654 125.069 227.654 125.561C227.654 125.561 227.654 125.561 227.654 125.684C227.531 127.037 227.286 128.267 227.04 129.619C226.303 133.063 225.074 136.629 223.231 139.827V114.37C223.231 114.247 223.231 114.124 223.231 114.124C223.109 112.894 223.477 111.05 224.091 110.435C224.091 110.435 224.214 110.312 224.706 110.312C224.829 110.312 225.689 110.927 226.426 112.894C227.409 115.231 227.9 118.428 227.777 121.872C227.9 122.364 227.9 122.979 227.777 123.594ZM272.497 116.215C272.497 119.289 270.04 121.749 266.969 121.749H236.623C236.623 117.076 235.886 112.771 234.657 109.574C232.569 104.409 229.006 101.457 224.829 101.457C222.003 101.457 219.546 102.441 217.703 104.409C214.386 107.975 214.509 113.386 214.509 114.493V121.749H179.126C176.054 121.749 173.597 119.289 173.597 116.215V85.3471C173.597 85.1012 173.597 84.9782 173.597 84.7322C173.597 84.4863 173.597 84.3633 173.597 84.1173V80.305H171.386C169.051 80.305 167.209 78.4603 167.209 76.1237C167.209 73.7871 169.051 71.9424 171.386 71.9424H173.72C174.58 66.2854 179.617 61.8582 185.514 61.8582C191.411 61.8582 196.326 66.1624 197.309 71.9424H199.643C201.977 71.9424 203.82 73.7871 203.82 76.1237C203.82 78.4603 201.977 80.305 199.643 80.305H197.554V89.2824C197.554 91.4961 199.274 93.2178 201.486 93.2178C203.697 93.2178 205.417 91.4961 205.417 89.2824V79.8131H267.091C270.163 79.8131 272.62 82.2727 272.62 85.3471V116.215H272.497Z" fill="black"/>
<path d="M326.554 114.001C327.66 114.616 328.766 114.862 329.871 114.862C330.977 114.862 332.206 114.616 333.189 114.001C334.294 113.386 335.031 112.525 335.646 111.542C336.26 110.435 336.506 109.328 336.506 108.221C336.506 106.991 336.26 105.885 335.646 104.901C335.031 103.794 334.171 103.056 333.189 102.441C332.083 101.826 330.977 101.58 329.871 101.58C328.766 101.58 327.66 101.826 326.554 102.441C325.449 103.056 324.589 103.794 324.097 104.901C323.483 106.008 323.237 107.114 323.237 108.221C323.237 109.328 323.483 110.435 324.097 111.542C324.711 112.525 325.571 113.386 326.554 114.001ZM324.343 108.098C324.343 107.114 324.589 106.131 325.08 105.27C325.571 104.409 326.309 103.671 327.169 103.179C328.029 102.687 329.011 102.441 329.871 102.441C330.854 102.441 331.714 102.687 332.574 103.179C333.434 103.671 334.171 104.409 334.663 105.27C335.154 106.131 335.4 107.114 335.4 108.098C335.4 109.082 335.154 109.943 334.663 110.927C334.171 111.788 333.434 112.525 332.574 113.017C331.714 113.509 330.731 113.755 329.749 113.755C328.766 113.755 327.906 113.509 326.923 113.017C326.063 112.525 325.326 111.788 324.834 110.927C324.589 110.066 324.343 109.082 324.343 108.098Z" fill="black"/>
<path d="M328.151 108.836H328.889C329.257 108.836 329.626 108.959 329.871 109.205C330.117 109.451 330.486 109.943 330.977 110.804L331.591 111.911H333.066L332.206 110.435C331.837 109.82 331.469 109.328 331.1 108.959C330.977 108.836 330.731 108.713 330.486 108.59C331.1 108.59 331.591 108.344 331.96 107.975C332.329 107.606 332.574 107.115 332.574 106.623C332.574 106.254 332.451 105.885 332.206 105.516C331.96 105.147 331.714 104.901 331.346 104.778C330.977 104.655 330.363 104.532 329.503 104.532H327.046V111.911H328.151V108.836ZM328.151 105.639H329.503C330.117 105.639 330.609 105.762 330.854 105.885C331.223 106.131 331.346 106.377 331.346 106.746C331.346 107.115 331.223 107.36 330.977 107.606C330.731 107.852 330.24 107.852 329.626 107.852H328.274V105.639H328.151Z" fill="black"/>
</g>
<defs>
<clipPath id="clip0_1_602">
<rect width="430" height="289" fill="white"/>
</clipPath>
</defs>
</svg>
