<svg width="398" height="243" viewBox="0 0 398 243" fill="none" xmlns="http://www.w3.org/2000/svg">
<g clip-path="url(#clip0_1_568)">
<path d="M163.846 77.5435H158.271C158.271 77.5435 153.005 93.6403 151.921 96.8906C150.992 93.795 145.572 77.5435 145.572 77.5435H140.152C140.152 77.5435 134.886 93.7951 133.802 97.0454C132.718 93.7951 127.453 77.5435 127.453 77.5435H120.794L131.325 109.737H136.28L142.939 89.3065C144.023 92.5568 149.598 109.737 149.598 109.737H154.399L164.93 77.5435H163.846Z" fill="black"/>
<path d="M184.133 76.9243C174.532 76.9243 167.563 84.0441 167.563 93.795C167.563 103.546 174.532 110.511 184.133 110.511C193.735 110.511 200.858 103.391 200.858 93.795C200.858 84.1988 193.735 76.9243 184.133 76.9243ZM184.133 104.32C178.403 104.32 174.067 99.9861 174.067 93.795C174.067 87.6039 178.248 83.2702 184.133 83.2702C189.863 83.2702 194.199 87.7587 194.199 93.795C194.199 99.8313 189.863 104.32 184.133 104.32Z" fill="black"/>
<path d="M223.004 76.9243C213.402 76.9243 206.433 84.0441 206.433 93.795C206.433 103.546 213.402 110.511 223.004 110.511C232.605 110.511 239.729 103.391 239.729 93.795C239.729 84.1988 232.605 76.9243 223.004 76.9243ZM223.004 104.32C217.274 104.32 212.938 99.9861 212.938 93.795C212.938 87.6039 217.119 83.2702 223.004 83.2702C228.734 83.2702 233.07 87.7587 233.07 93.795C233.07 99.8313 228.734 104.32 223.004 104.32Z" fill="black"/>
<path d="M253.357 77.5435H247.627V109.737H273.18V103.546H254.132V77.5435H253.357Z" fill="black"/>
<path d="M301.52 96.1167C305.391 94.7237 307.869 91.1638 307.869 87.1396C307.869 81.2581 303.843 77.5435 297.184 77.5435H278.91V109.737H285.414V96.8906H294.551C295.016 97.5097 301.83 109.737 301.83 109.737H309.108L301.52 96.1167ZM297.029 90.5447H285.414V83.7345H297.184C301.21 83.7345 301.21 86.3658 301.21 87.1396C301.21 88.8422 300.746 90.5447 297.029 90.5447Z" fill="black"/>
<path d="M321.962 77.3887H316.077V109.892H322.581V77.3887H321.962Z" fill="black"/>
<path d="M330.634 93.795C330.634 103.546 337.603 110.511 347.205 110.511C353.709 110.511 358.974 107.415 361.917 101.843L362.536 100.76L357.271 96.8905L356.497 98.2835C354.483 102.153 351.231 104.165 347.205 104.165C341.475 104.165 337.139 99.8313 337.139 93.6402C337.139 87.4492 341.32 83.1154 347.205 83.1154C350.921 83.1154 354.174 84.9727 355.722 87.9135L356.497 89.3065L361.917 85.437L361.142 84.3536C358.045 79.5555 352.78 76.7695 347.05 76.7695C337.603 76.9243 330.634 84.0441 330.634 93.795Z" fill="black"/>
<path d="M397.071 77.5435H391.186V89.1517H376.784V77.5435H370.279V109.737H376.784V95.3428H391.186V109.737H397.845V77.5435H397.071Z" fill="black"/>
<path d="M154.864 157.408C151.302 161.123 146.811 162.98 141.391 162.98C136.125 162.98 131.479 161.123 127.918 157.563C124.356 153.848 122.497 149.36 122.497 143.943C122.497 138.525 124.356 133.882 127.918 130.167C131.479 126.453 135.97 124.595 141.391 124.595C146.656 124.595 151.147 126.453 154.864 130.167C158.426 133.882 160.284 138.371 160.284 143.633C160.284 149.05 158.426 153.694 154.864 157.408ZM151.921 132.799C149.134 129.703 145.572 128.31 141.236 128.31C136.9 128.31 133.493 129.858 130.705 132.799C127.918 135.739 126.524 139.299 126.524 143.633C126.524 147.967 127.918 151.681 130.705 154.622C133.493 157.563 137.054 159.111 141.391 159.111C145.727 159.111 149.134 157.563 151.921 154.622C154.709 151.527 156.103 147.967 156.103 143.788C156.258 139.609 154.864 135.894 151.921 132.799Z" fill="black"/>
<path d="M197.297 125.06V147.967C197.297 157.563 192.031 162.98 183.204 162.98C178.713 162.98 175.306 161.587 172.828 158.956C170.35 156.325 169.111 152.61 169.111 148.122V125.06H172.983V147.967C172.983 155.86 177.009 159.266 183.359 159.266C189.863 159.266 193.425 155.241 193.425 148.122V124.905H197.297V125.06Z" fill="black"/>
<path d="M217.119 128.774H204.575V125.06H233.69V128.774H221.146V162.516H217.119V128.774Z" fill="black"/>
<path d="M241.278 125.06H252.428C258.313 125.06 262.959 126.762 266.675 130.477C270.392 134.037 272.251 138.525 272.251 143.788C272.251 149.36 270.392 153.848 266.521 157.408C262.804 160.968 258.003 162.671 252.428 162.671H241.278V125.06ZM245.149 158.956H252.273C257.074 158.956 260.791 157.563 263.733 154.777C266.675 151.991 268.224 148.276 268.224 143.943C268.224 139.609 266.83 135.894 263.888 133.108C260.946 130.322 257.229 128.774 252.273 128.774H245.149V158.956Z" fill="black"/>
<path d="M311.276 157.408C307.714 161.123 303.223 162.98 297.803 162.98C292.538 162.98 287.892 161.123 284.33 157.563C280.768 153.848 278.91 149.36 278.91 143.943C278.91 138.525 280.768 133.882 284.33 130.167C287.892 126.453 292.383 124.595 297.803 124.595C303.068 124.595 307.56 126.453 311.276 130.167C314.838 133.882 316.696 138.371 316.696 143.633C316.696 149.05 314.838 153.694 311.276 157.408ZM308.334 132.799C305.546 129.703 301.984 128.31 297.648 128.31C293.312 128.31 289.905 129.858 287.117 132.799C284.33 135.739 282.936 139.299 282.936 143.633C282.936 147.967 284.33 151.681 287.117 154.622C289.905 157.718 293.467 159.111 297.803 159.111C302.139 159.111 305.546 157.563 308.334 154.622C311.121 151.527 312.515 147.967 312.515 143.788C312.67 139.609 311.276 135.894 308.334 132.799Z" fill="black"/>
<path d="M355.722 157.408C352.16 161.123 347.669 162.98 342.249 162.98C336.984 162.98 332.338 161.123 328.776 157.563C325.214 153.848 323.356 149.36 323.356 143.943C323.356 138.525 325.214 133.882 328.776 130.167C332.338 126.453 336.829 124.595 342.249 124.595C347.514 124.595 352.005 126.453 355.722 130.167C359.284 133.882 361.142 138.371 361.142 143.633C361.142 149.05 359.284 153.694 355.722 157.408ZM352.78 132.799C349.992 129.703 346.43 128.31 342.094 128.31C337.758 128.31 334.351 129.858 331.563 132.799C328.776 135.739 327.382 139.299 327.382 143.633C327.382 147.967 328.776 151.681 331.563 154.622C334.351 157.718 337.913 159.111 342.249 159.111C346.585 159.111 349.992 157.563 352.78 154.622C355.567 151.527 356.961 147.967 356.961 143.788C356.961 139.609 355.722 135.894 352.78 132.799Z" fill="black"/>
<path d="M374.306 147.348V162.516H370.434V125.06H383.443C387.779 125.06 391.031 126.143 393.354 128.155C395.677 130.167 396.761 132.799 396.761 136.049C396.761 139.145 395.832 141.621 393.819 143.478C391.805 145.336 389.328 146.419 386.385 146.883L398 162.825H393.199L382.049 147.657H374.306V147.348ZM374.306 143.788H382.978C386.076 143.788 388.553 143.014 390.102 141.466C391.651 139.918 392.58 138.216 392.58 136.049C392.58 131.87 389.637 128.62 383.133 128.62H374.306V143.788Z" fill="black"/>
<path d="M128.537 197.186V212.973H122.652V175.363H146.656V180.78H128.537V191.614H145.262V197.031H128.537V197.186Z" fill="black"/>
<path d="M173.912 190.685C176.545 193.162 177.784 196.412 177.784 200.127C177.784 203.841 176.545 207.092 173.912 209.723C171.279 212.199 168.182 213.592 164.311 213.592C160.594 213.592 157.342 212.354 154.709 209.723C152.076 207.246 150.837 203.996 150.837 200.281C150.837 196.567 152.231 193.317 154.864 190.84C157.497 188.364 160.749 186.971 164.465 186.971C168.182 186.816 171.279 188.054 173.912 190.685ZM156.722 199.972C156.722 202.294 157.497 204.151 158.89 205.853C160.284 207.401 162.142 208.175 164.465 208.175C166.788 208.175 168.647 207.401 170.04 205.853C171.434 204.306 172.209 202.294 172.209 200.127C172.209 197.96 171.434 195.948 170.04 194.4C168.647 192.852 166.788 192.078 164.465 192.078C162.142 192.078 160.284 192.852 158.89 194.4C157.497 195.948 156.722 197.805 156.722 199.972Z" fill="black"/>
<path d="M189.863 187.435V201.829C189.863 205.699 191.721 208.175 195.593 208.175C199.155 208.175 201.478 205.544 201.478 201.675V187.435H207.208V213.128H201.633V209.723C199.619 212.354 197.142 213.747 193.735 213.747C187.54 213.747 184.133 209.413 184.133 203.377V187.59H189.863V187.435Z" fill="black"/>
<path d="M232.915 212.973V198.579C232.915 194.71 231.057 192.233 227.185 192.233C223.623 192.233 221.3 194.864 221.3 198.734V212.973H215.57V187.28H221.146V190.685C223.159 188.054 225.637 186.661 229.044 186.661C235.393 186.661 238.645 190.84 238.645 197.031V212.818H232.915V212.973Z" fill="black"/>
<path d="M248.402 190.84C250.725 188.209 253.822 186.816 257.693 186.816C259.087 186.816 260.636 187.126 262.184 187.899C263.888 188.519 265.127 189.602 265.901 190.995V173.969H271.631V212.973H266.056V208.949C265.127 210.497 263.888 211.58 262.03 212.199C260.326 212.973 258.777 213.283 257.384 213.283C253.822 213.283 250.725 212.045 248.402 209.413C245.924 206.782 244.84 203.687 244.84 200.127C244.84 196.722 246.079 193.626 248.402 190.84ZM252.738 194.4C251.344 195.948 250.57 197.96 250.57 200.127C250.57 202.294 251.344 204.306 252.738 205.854C254.132 207.401 255.99 208.175 258.313 208.175C260.636 208.175 262.494 207.401 263.888 205.854C265.282 204.306 266.056 202.294 266.056 200.127C266.056 197.96 265.282 195.948 263.888 194.4C262.494 192.852 260.636 192.078 258.313 192.078C255.99 192.078 254.286 192.852 252.738 194.4Z" fill="black"/>
<path d="M289.595 191.769C286.653 191.769 284.485 193.162 283.246 195.793L278.91 193.317C280.923 188.983 284.64 186.816 289.75 186.816C294.551 186.816 297.803 188.518 299.352 192.078C299.971 193.317 300.281 194.864 300.281 196.722V212.973H294.706V209.413C293.157 212.045 290.679 213.283 287.118 213.283C284.64 213.283 282.626 212.509 280.923 211.116C279.219 209.723 278.445 207.866 278.445 205.699V205.389C278.445 199.508 284.64 197.496 289.131 197.496H292.228C293.777 197.496 294.706 196.722 294.706 195.329C294.706 193.471 292.848 191.769 289.595 191.769ZM294.551 201.829H288.976C287.737 201.829 286.653 202.139 285.569 202.758C284.485 203.377 284.02 204.306 284.02 205.389C284.02 207.556 285.724 208.949 288.047 208.949C291.918 208.949 294.396 206.473 294.396 202.758V201.829H294.551Z" fill="black"/>
<path d="M315.767 192.543V203.841C315.767 206.937 317.316 208.175 320.258 208.175C320.878 208.175 321.497 208.175 322.117 208.02V212.819C321.188 213.128 320.104 213.283 319.019 213.283C313.444 213.283 310.192 210.342 310.192 204.77V192.543H305.546V187.435H310.192V179.542H315.922V187.435H322.272V192.543H315.767Z" fill="black"/>
<path d="M328.931 176.446C330.479 174.898 332.648 174.898 334.196 176.446C335.745 177.994 335.745 180.161 334.196 181.708C332.648 183.256 330.325 183.256 328.931 181.708C327.537 180.161 327.382 177.839 328.931 176.446ZM334.351 212.973H328.621V187.28H334.351V212.973Z" fill="black"/>
<path d="M364.085 190.685C366.718 193.162 367.956 196.412 367.956 200.127C367.956 203.841 366.718 207.092 364.085 209.723C361.452 212.199 358.355 213.592 354.483 213.592C350.767 213.592 347.514 212.354 344.882 209.723C342.249 207.246 341.01 203.996 341.01 200.281C341.01 196.567 342.404 193.317 345.037 190.84C347.669 188.364 350.921 186.971 354.638 186.971C358.2 186.816 361.452 188.054 364.085 190.685ZM346.74 199.972C346.74 202.294 347.514 204.151 348.908 205.853C350.302 207.401 352.16 208.175 354.483 208.175C356.806 208.175 358.665 207.401 360.058 205.853C361.452 204.306 362.226 202.294 362.226 200.127C362.226 197.96 361.452 195.948 360.058 194.4C358.665 192.852 356.806 192.078 354.483 192.078C352.16 192.078 350.302 192.852 348.908 194.4C347.514 195.948 346.74 197.805 346.74 199.972Z" fill="black"/>
<path d="M391.805 212.973V198.579C391.805 194.71 389.947 192.233 386.075 192.233C382.514 192.233 380.191 194.864 380.191 198.734V212.973H374.461V187.28H380.036V190.685C382.049 188.054 384.527 186.661 387.934 186.661C394.283 186.661 397.535 190.84 397.535 197.031V212.818H391.805V212.973Z" fill="black"/>
<path d="M111.657 191.769H34.6895C27.4109 191.769 21.3712 185.733 21.3712 178.458V107.415V97.0452V72.7452H15.0218C9.13698 72.7452 4.3362 67.9472 4.3362 62.0656C4.3362 56.1841 9.13698 51.386 15.0218 51.386H21.6809C24.1588 34.5153 38.5611 21.6688 56.0607 21.6688C73.4055 21.6688 87.8078 34.6701 90.2856 51.386H96.9448C102.83 51.386 107.63 56.1841 107.63 62.0656C107.63 67.9472 102.83 72.7452 96.9448 72.7452H90.7502V99.5217C90.7502 105.403 95.551 110.201 101.436 110.201C106.546 110.201 110.882 106.641 111.812 101.689V51.386C109.179 22.7522 85.1751 0.30957 56.0607 0.30957C25.2428 0.30957 0.154877 25.3835 0.154877 56.1841V85.9013V107.261V178.303C0.154877 197.341 15.6413 212.973 34.8444 212.973H44.6008V242.536H54.2024V212.973H60.5518V242.536H70.1533V212.973H111.812L111.657 191.769Z" fill="black"/>
<path d="M74.1798 52.7791H37.7868C34.5346 52.7791 31.4374 54.4816 29.579 57.2676C27.8755 60.0536 27.5658 63.6135 28.9595 66.5542L47.2335 104.939C48.7821 108.344 52.1891 110.511 55.9058 110.511C59.6226 110.511 63.0296 108.344 64.5782 104.939L82.8521 66.5542C84.2459 63.6135 84.0911 60.0536 82.2327 57.2676C80.5292 54.4816 77.4319 52.7791 74.1798 52.7791Z" fill="black"/>
</g>
<defs>
<clipPath id="clip0_1_568">
<rect width="398" height="243" fill="white"/>
</clipPath>
</defs>
</svg>
