<svg width="120" height="120" viewBox="0 0 120 120" fill="none" xmlns="http://www.w3.org/2000/svg">
<path fill-rule="evenodd" clip-rule="evenodd" d="M25.0086 56.0948H26.8805V38H24.1536L17.4518 53.5065L10.6807 38H8V56.0948H9.87187V40.7038L16.5505 56.0948H18.2606L24.9855 40.5883H25.0086V56.0948ZM31.4136 56.0948L33.401 51.4729H43.2688L45.2331 56.0948H47.2436L39.4326 38H37.2834L29.4724 56.0948H31.4136ZM38.3233 39.9643L42.5293 49.7397H34.1174L38.3233 39.9643ZM49.8409 56.0948V38H55.2254C58.0217 38 60.3095 38.8551 62.089 40.5883C63.8684 42.2984 64.7697 44.4476 64.7697 47.0127C64.7697 49.6703 63.8453 51.8426 62.0197 53.5527C60.194 55.2397 57.9293 56.0948 55.2254 56.0948H49.8409ZM51.7359 39.7794V54.3153H55.1561C57.444 54.3153 59.2696 53.6452 60.6793 52.2817C62.089 50.9182 62.8054 49.185 62.8054 47.0589C62.8054 44.956 62.1121 43.1996 60.7024 41.8362C59.3158 40.4727 57.4671 39.7794 55.133 39.7794H51.7359ZM79.8508 39.7563V38H68.5272V56.0948H79.9433V54.3385H70.4221V47.7753H79.042V46.019H70.4221V39.7563H79.8508ZM92.2227 38V56.0948H90.3278V38H92.2227ZM112 56.0948V38H110.128V53.1136L99.4515 38H97.2561V56.0948H99.128V40.6807L109.966 56.0948H112ZM28.9136 81.1294V63.0347H31.7561V81.1294H28.9136ZM34.5123 65.6691V63.0347H48.8402V65.6691H43.0859V81.1294H40.2435V65.6691H34.5123ZM54.9854 63.0347L47.6134 81.1294H50.5252L52.1891 76.8773H61.0632L62.704 81.1294H65.662L58.3363 63.0347H54.9854ZM53.2059 74.3583L56.6261 65.7616L60.0695 74.3583H53.2059ZM70.8663 78.4949H79.024V81.1294H68.0238V63.0347H70.8663V78.4949ZM80.6278 63.0347H77.3462L84.1173 73.8961V81.1294H86.9829V73.8268L93.8233 63.0347H90.5649L85.5732 71.1461L80.6278 63.0347Z" fill="black"/>
</svg>
