<svg width="32" height="32" viewBox="0 0 32 32" fill="none" xmlns="http://www.w3.org/2000/svg">
<g clip-path="url(#clip0_1_1205)">
<path fill-rule="evenodd" clip-rule="evenodd" d="M4.36361 0H26.9091V10.3605L32 11.8151V32H0V11.8394L4.36361 10.3849V0ZM26.9091 14.2096V11.8733L29.4913 12.611L26.9091 14.2096ZM25.4545 1.45455V15.11L15.9999 20.9628L5.81815 14.6598V1.45455H25.4545ZM4.36361 11.9181V13.7594L2.43029 12.5626L4.36361 11.9181ZM1.45455 13.6692V30.5455H30.5455V13.6692L15.9999 22.6735L1.45455 13.6692ZM9.45443 12.3636H22.5453V10.9091H9.45443V12.3636ZM22.5453 15.2727H9.45443V13.8182H22.5453V15.2727ZM18.5576 4.30303H21.5879V7.33333H18.5576V4.30303ZM17.891 8V3.63636H22.2546V8H17.891Z" fill="black"/>
</g>
<defs>
<clipPath id="clip0_1_1205">
<rect width="32" height="32" fill="white"/>
</clipPath>
</defs>
</svg>
