<svg width="42" height="32" viewBox="0 0 42 32" fill="none" xmlns="http://www.w3.org/2000/svg">
<g filter="url(#filter0_d_1_847)">
<ellipse cx="27.2951" cy="15.8432" rx="9.70492" ry="9.84314" fill="#C7C9C7"/>
<ellipse cx="14.7049" cy="15.8432" rx="9.70492" ry="9.84314" fill="black"/>
<path fill-rule="evenodd" clip-rule="evenodd" d="M21 23.3349C23.0867 21.5295 24.4099 18.8431 24.4099 15.8432C24.4099 12.8433 23.0867 10.1568 21 8.35141C22.6947 6.88517 24.893 6.00003 27.2951 6.00003C32.655 6.00003 37 10.407 37 15.8432C37 21.2794 32.655 25.6863 27.2951 25.6863C24.893 25.6863 22.6947 24.8012 21 23.3349Z" fill="#C7C9C7"/>
<path fill-rule="evenodd" clip-rule="evenodd" d="M21.0001 23.3349C23.0867 21.5295 24.4099 18.8431 24.4099 15.8432C24.4099 12.8434 23.0867 10.1569 21.0001 8.3515C18.9134 10.1569 17.5903 12.8434 17.5903 15.8432C17.5903 18.8431 18.9134 21.5295 21.0001 23.3349Z" fill="#767676"/>
</g>
<defs>
<filter id="filter0_d_1_847" x="0" y="-5" width="42" height="42" filterUnits="userSpaceOnUse" color-interpolation-filters="sRGB">
<feFlood flood-opacity="0" result="BackgroundImageFix"/>
<feColorMatrix in="SourceAlpha" type="matrix" values="0 0 0 0 0 0 0 0 0 0 0 0 0 0 0 0 0 0 127 0" result="hardAlpha"/>
<feOffset/>
<feGaussianBlur stdDeviation="2.5"/>
<feComposite in2="hardAlpha" operator="out"/>
<feColorMatrix type="matrix" values="0 0 0 0 0 0 0 0 0 0 0 0 0 0 0 0 0 0 0.07 0"/>
<feBlend mode="normal" in2="BackgroundImageFix" result="effect1_dropShadow_1_847"/>
<feBlend mode="normal" in="SourceGraphic" in2="effect1_dropShadow_1_847" result="shape"/>
</filter>
</defs>
</svg>
