<svg width="32" height="32" viewBox="0 0 32 32" fill="none" xmlns="http://www.w3.org/2000/svg">
<g clip-path="url(#clip0_1_1398)">
<path fill-rule="evenodd" clip-rule="evenodd" d="M7.32773 6.36364C7.32773 5.74778 7.5322 4.44565 8.27728 3.31826C8.99692 2.22937 10.2358 1.27273 12.4186 1.27273C14.5924 1.27273 15.8333 2.25788 16.5577 3.37003C17.3071 4.52071 17.5095 5.82617 17.5095 6.36364V7H7.32773V6.36364ZM6.055 8.27273V13.3636H7.32773V8.27273H17.5095V13.3636L18.7823 13.3626V8.27273H23.5455V26.7273H1.27273V8.27273H6.055ZM6.055 7V6.36364C6.055 5.5592 6.30268 3.9977 7.21549 2.61652C8.15375 1.19685 9.7785 0 12.4186 0C15.0678 0 16.6906 1.24211 17.6241 2.67542C18.5326 4.0702 18.7823 5.62837 18.7823 6.36364V7H24.8182V28H0V7H6.055Z" fill="black"/>
<circle cx="23.5" cy="23.5" r="8.5" fill="#437E22"/>
<path d="M19.4338 23.268L19.273 23.105L19.1008 23.256L18.4827 23.7984L18.2903 23.9671L18.4689 24.1504L21.5487 27.3123L21.7216 27.4897L21.8956 27.3134L28.53 20.5905L28.706 20.4122L28.5222 20.2418L27.9151 19.679L27.7419 19.5186L27.5766 19.6871L21.7553 25.6199L19.4338 23.268Z" fill="white" stroke="white" stroke-width="0.485714"/>
</g>
<defs>
<clipPath id="clip0_1_1398">
<rect width="32" height="32" fill="white"/>
</clipPath>
</defs>
</svg>
