<svg width="32" height="32" viewBox="0 0 32 32" fill="none" xmlns="http://www.w3.org/2000/svg">
<path fill-rule="evenodd" clip-rule="evenodd" d="M5.36002 20.967H3.18215C3.03312 20.967 2.90637 21.0756 2.88313 21.2231L2.00228 26.8223C1.98478 26.9329 2.07012 27.0325 2.1819 27.0325H3.22163C3.37067 27.0325 3.49742 26.9239 3.52066 26.7761L3.75823 25.2659C3.78115 25.118 3.90821 25.0096 4.05694 25.0096H4.74637C6.18101 25.0096 7.00894 24.3135 7.22527 22.9342C7.32268 22.3308 7.2294 21.8567 6.94748 21.5245C6.63801 21.16 6.08891 20.967 5.36002 20.967ZM5.61128 23.0121C5.49221 23.7956 4.8951 23.7956 4.31775 23.7956H3.9891L4.21966 22.3323C4.23335 22.2439 4.30978 22.1788 4.39895 22.1788H4.54958C4.94286 22.1788 5.31389 22.1788 5.50562 22.4035C5.61983 22.5377 5.65491 22.7368 5.61128 23.0121ZM11.8702 22.987H10.8273C10.7384 22.987 10.6616 23.0521 10.6479 23.1406L10.6018 23.433L10.5289 23.3271C10.3031 22.9985 9.79967 22.8887 9.29714 22.8887C8.14456 22.8887 7.16028 23.7639 6.96856 24.9915C6.86893 25.6038 7.01056 26.1894 7.35702 26.5978C7.6749 26.9732 8.12968 27.1297 8.67067 27.1297C9.59925 27.1297 10.1143 26.531 10.1143 26.531L10.0677 26.8216C10.0502 26.9327 10.1355 27.0323 10.2466 27.0323H11.1861C11.3356 27.0323 11.4616 26.9237 11.4851 26.776L12.0488 23.1971C12.0666 23.087 11.9816 22.987 11.8702 22.987ZM10.4164 25.0221C10.3158 25.6195 9.84285 26.0205 9.23981 26.0205C8.93697 26.0205 8.69484 25.9231 8.53951 25.7386C8.38536 25.5554 8.32671 25.2944 8.37579 25.004C8.46981 24.4116 8.95067 23.9976 9.54457 23.9976C9.84064 23.9976 10.0814 24.0962 10.24 24.2823C10.3989 24.4704 10.4619 24.7328 10.4164 25.0221ZM16.3766 22.9868H17.4247C17.5715 22.9868 17.6571 23.1519 17.5737 23.2726L14.088 28.3172C14.0315 28.3989 13.9385 28.4475 13.8392 28.4475H12.7924C12.6451 28.4475 12.559 28.2811 12.6443 28.1601L13.7297 26.6241L12.5754 23.2275C12.5354 23.1095 12.6224 22.9868 12.7476 22.9868H13.7775C13.9113 22.9868 14.0293 23.0749 14.0679 23.2033L14.6805 25.2547L16.1261 23.12C16.1827 23.0366 16.2767 22.9868 16.3766 22.9868Z" fill="black"/>
<path fill-rule="evenodd" clip-rule="evenodd" d="M27.7397 26.8222L28.6335 21.1206C28.6472 21.0321 28.7237 20.9669 28.8126 20.9666H29.8188C29.9299 20.9666 30.0152 21.0665 29.9977 21.177L29.1163 26.776C29.0933 26.9237 28.9666 27.0323 28.8173 27.0323H27.9186C27.8075 27.0323 27.7222 26.9327 27.7397 26.8222ZM20.8946 20.9669H18.7163C18.5676 20.9669 18.4409 21.0755 18.4176 21.223L17.5367 26.8222C17.5192 26.9327 17.6045 27.0323 17.7158 27.0323H18.8334C18.9373 27.0323 19.0262 26.9564 19.0424 26.8529L19.2924 25.2658C19.3153 25.1179 19.4424 25.0094 19.5911 25.0094H20.2802C21.7151 25.0094 22.5429 24.3134 22.7594 22.9341C22.8571 22.3307 22.7632 21.8565 22.4814 21.5244C22.1721 21.1599 21.6234 20.9669 20.8946 20.9669ZM21.1458 23.012C21.027 23.7955 20.4299 23.7955 19.8522 23.7955H19.5239L19.7548 22.3321C19.7685 22.2438 19.8443 22.1786 19.9337 22.1786H20.0843C20.4774 22.1786 20.8487 22.1786 21.0403 22.4034C21.1547 22.5375 21.1894 22.7367 21.1458 23.012ZM27.4042 22.9868H26.362C26.2724 22.9868 26.1963 23.052 26.1829 23.1405L26.1368 23.4329L26.0635 23.327C25.8378 22.9984 25.3346 22.8886 24.8321 22.8886C23.6795 22.8886 22.6956 23.7637 22.5038 24.9914C22.4045 25.6037 22.5455 26.1892 22.892 26.5976C23.2105 26.9731 23.6647 27.1295 24.2056 27.1295C25.1342 27.1295 25.6491 26.5308 25.6491 26.5308L25.6027 26.8215C25.5852 26.9326 25.6705 27.0322 25.7824 27.0322H26.7214C26.8701 27.0322 26.9968 26.9236 27.0201 26.7758L27.5841 23.1969C27.6013 23.0869 27.516 22.9868 27.4042 22.9868ZM25.9505 25.022C25.8504 25.6194 25.3769 26.0204 24.7738 26.0204C24.4715 26.0204 24.2289 25.923 24.0735 25.7384C23.9193 25.5552 23.8614 25.2943 23.9099 25.0038C24.0043 24.4115 24.4846 23.9975 25.0785 23.9975C25.3747 23.9975 25.6154 24.096 25.7741 24.2822C25.9336 24.4703 25.9966 24.7327 25.9505 25.022Z" fill="#A9A9A9"/>
<path d="M13.4199 18.964L13.6876 17.259L13.0912 17.2451H10.2433L12.2225 4.66298C12.2285 4.62499 12.2486 4.58958 12.2777 4.56443C12.3069 4.53928 12.3444 4.52542 12.3833 4.52542H17.1853C18.7795 4.52542 19.8796 4.85803 20.4541 5.51451C20.7233 5.82249 20.8949 6.14431 20.9778 6.49847C21.0648 6.8701 21.0664 7.31408 20.9814 7.8556L20.9752 7.89512V8.24209L21.2446 8.39506C21.4714 8.51567 21.6515 8.65374 21.7897 8.81184C22.0202 9.07515 22.1692 9.40981 22.2321 9.80657C22.2971 10.2146 22.2756 10.7002 22.1692 11.2499C22.0463 11.8823 21.8476 12.433 21.5794 12.8837C21.3326 13.299 21.0182 13.6433 20.6451 13.9103C20.2887 14.1638 19.8653 14.3563 19.3867 14.4796C18.9228 14.6006 18.394 14.6618 17.814 14.6618H17.4402C17.1731 14.6618 16.9134 14.7582 16.7097 14.9313C16.5055 15.1078 16.3702 15.349 16.3288 15.6128L16.3006 15.7664L15.8276 18.7715L15.8061 18.8819C15.8005 18.9169 15.7907 18.9343 15.7764 18.9461C15.7636 18.9568 15.7452 18.964 15.7272 18.964H13.4199Z" fill="black"/>
<path d="M21.4995 7.93521C21.4852 8.02708 21.4689 8.12101 21.4504 8.21751C20.8171 11.4774 18.6506 12.6035 15.8834 12.6035H14.4746C14.1362 12.6035 13.8511 12.8499 13.7983 13.1845L13.0769 17.7713L12.8727 19.0714C12.8383 19.2911 13.0074 19.4892 13.2284 19.4892H15.7274C16.0233 19.4892 16.2745 19.2736 16.3211 18.9811L16.3457 18.8537L16.8163 15.8602L16.8465 15.6961C16.8925 15.4025 17.1443 15.1869 17.4402 15.1869H17.814C20.2349 15.1869 22.1303 14.2014 22.6842 11.3496C22.9156 10.1582 22.7958 9.1635 22.1835 8.46389C21.9982 8.25292 21.7683 8.0779 21.4995 7.93521Z" fill="#A9A9A9"/>
<path d="M20.8368 7.67055C20.7401 7.64232 20.6402 7.61665 20.5378 7.59356C20.4349 7.57098 20.3294 7.55096 20.2209 7.53351C19.841 7.47191 19.4249 7.44266 18.9789 7.44266H15.2151C15.1224 7.44266 15.0344 7.4637 14.9556 7.50168C14.782 7.58534 14.653 7.75012 14.6218 7.95183L13.821 13.0364L13.798 13.1847C13.8508 12.8501 14.1359 12.6037 14.4743 12.6037H15.8831C18.6503 12.6037 20.8169 11.4771 21.4502 8.21771C21.469 8.12121 21.4849 8.02729 21.4992 7.93541C21.339 7.8502 21.1654 7.77732 20.9786 7.7152C20.9326 7.69981 20.885 7.68493 20.8368 7.67055Z" fill="#767676"/>
<path d="M14.6218 7.95176C14.6531 7.75003 14.7822 7.58527 14.9556 7.50212C15.035 7.46413 15.1226 7.44309 15.2151 7.44309H18.9791C19.425 7.44309 19.8412 7.47234 20.221 7.53394C20.3296 7.55139 20.4351 7.57141 20.538 7.59399C20.6404 7.6171 20.7402 7.64276 20.837 7.67098C20.885 7.68536 20.9326 7.70024 20.9792 7.71513C21.166 7.77723 21.3397 7.85064 21.4998 7.93533C21.6883 6.73065 21.4984 5.91043 20.8488 5.16771C20.1325 4.35006 18.8398 4 17.1858 4H12.3836C12.0457 4 11.7576 4.24636 11.7052 4.58154L9.70514 17.293C9.66565 17.5444 9.85915 17.7714 10.112 17.7714H13.0768L13.8212 13.0363L14.6218 7.95176Z" fill="black"/>
</svg>
