<svg width="32" height="32" viewBox="0 0 32 32" fill="none" xmlns="http://www.w3.org/2000/svg">
<path fill-rule="evenodd" clip-rule="evenodd" d="M7.3913 1.3913V4.86958H24.087V1.3913H7.3913ZM6 4.86958V6.26088V25.0435V26.4348V31.7217C6 31.8754 6.12458 32 6.27826 32H25.2C25.3537 32 25.4783 31.8754 25.4783 31.7217V0.278261C25.4783 0.124582 25.3537 0 25.2 0H6.27826C6.12458 0 6 0.124582 6 0.278261V4.86958ZM7.3913 26.4348V30.6087H24.087V26.4348H7.3913ZM24.087 25.0435V6.26088H7.3913V25.0435H24.087ZM19.5653 3.89565H11.9131V2.50435H19.5653V3.89565ZM15.7391 29.913C16.5075 29.913 17.1304 29.2901 17.1304 28.5217C17.1304 27.7533 16.5075 27.1304 15.7391 27.1304C14.9707 27.1304 14.3478 27.7533 14.3478 28.5217C14.3478 29.2901 14.9707 29.913 15.7391 29.913Z" fill="black"/>
</svg>
