<svg width="32" height="32" viewBox="0 0 32 32" fill="none" xmlns="http://www.w3.org/2000/svg">
<path d="M17.1367 0C8.40374 0 4 6.26076 4 11.4828C4 14.644 5.19687 17.4562 7.76353 18.5033C8.18455 18.6769 8.56187 18.5097 8.684 18.0437C8.76885 17.7223 8.97004 16.9086 9.05939 16.5685C9.18216 16.1076 9.13459 15.9469 8.79456 15.5439C8.05471 14.6716 7.58098 13.5416 7.58098 11.9398C7.58098 7.29501 11.0565 3.13681 16.6308 3.13681C21.5668 3.13681 24.2787 6.15277 24.2787 10.1798C24.2787 15.4803 21.9332 19.9534 18.4518 19.9534C16.5286 19.9534 15.09 18.3638 15.5503 16.413C16.1024 14.0841 17.1727 11.5721 17.1727 9.88995C17.1727 8.38582 16.3647 7.1311 14.6941 7.1311C12.7284 7.1311 11.1491 9.16488 11.1491 11.8884C11.1491 13.6233 11.7353 14.797 11.7353 14.797C11.7353 14.797 9.72403 23.3204 9.37114 24.8129C8.66922 27.7858 9.26572 31.4291 9.3165 31.7968C9.34607 32.0154 9.62633 32.0681 9.7536 31.9035C9.93422 31.6663 12.2765 28.7764 13.0717 25.8877C13.2973 25.0707 14.3643 20.836 14.3643 20.836C15.0033 22.0547 16.8699 23.1256 18.8548 23.1256C24.7627 23.1256 28.7718 17.7397 28.7718 10.5302C28.7724 5.07739 24.1546 0 17.1367 0Z" fill="black"/>
</svg>
