<svg width="32" height="32" viewBox="0 0 32 32" fill="none" xmlns="http://www.w3.org/2000/svg">
<path fill-rule="evenodd" clip-rule="evenodd" d="M23.7192 8.49972L28.2761 3.94281L27.3333 3L22.501 7.83236C20.5022 6.82314 18.3045 6.13807 16.0261 6.13807C12.5575 6.13807 9.18171 7.72614 6.44374 9.6304C3.69833 11.5398 1.49679 13.8349 0.362875 15.3998L0 15.9007L0.385409 16.3842C1.52415 17.8129 3.72877 19.9011 6.4733 21.6364C6.9235 21.921 7.39057 22.1977 7.8721 22.4612L2 28.3333L2.94281 29.2761L9.12114 23.0978C11.2604 24.1072 13.6233 24.8047 16.0261 24.8047C19.4775 24.8047 22.7525 23.3658 25.4344 21.632C28.1238 19.8932 30.2872 17.8125 31.5357 16.4201L32 15.9024L31.5605 15.3633C30.3149 13.8351 28.1533 11.5478 25.464 9.63527C24.9073 9.2394 24.3245 8.85706 23.7192 8.49972ZM21.2875 9.0458C19.6002 8.25773 17.8203 7.76126 16.0261 7.76126C13.0259 7.76126 9.97524 9.14904 7.36481 10.9646C5.05404 12.5717 3.16431 14.4612 2.05391 15.8523C3.16359 17.1098 5.04039 18.812 7.33525 20.263C7.89451 20.6166 8.47461 20.9527 9.07068 21.2627L12.1101 18.2232C11.5404 17.4251 11.205 16.447 11.205 15.3902C11.205 12.7009 13.3772 10.5207 16.0566 10.5207C17.1159 10.5207 18.0958 10.8614 18.8937 11.4397L21.2875 9.0458ZM19.8565 12.3624L22.532 9.68696C23.2194 10.0738 23.887 10.5031 24.5291 10.9597C26.7712 12.5542 28.6374 14.436 29.8561 15.8512C28.6392 17.1322 26.7849 18.8281 24.5587 20.2674C22.0098 21.9152 19.0434 23.1815 16.0261 23.1815C14.1067 23.1815 12.1713 22.6692 10.3462 21.8728L13.0259 19.193C13.8563 19.8606 14.91 20.2598 16.0566 20.2598C18.736 20.2598 20.9081 18.0796 20.9081 15.3902C20.9081 14.2459 20.5148 13.1937 19.8565 12.3624ZM17.7249 12.6085C17.2378 12.3135 16.6669 12.1439 16.0566 12.1439C14.2703 12.1439 12.8222 13.5973 12.8222 15.3902C12.8222 15.9985 12.9889 16.5678 13.2789 17.0544L17.7249 12.6085ZM14.1825 18.0364L18.6999 13.519C19.0722 14.0479 19.291 14.6934 19.291 15.3902C19.291 17.1832 17.8429 18.6366 16.0566 18.6366C15.3581 18.6366 14.7112 18.4144 14.1825 18.0364Z" fill="black"/>
</svg>
