<svg width="32" height="32" viewBox="0 0 32 32" fill="none" xmlns="http://www.w3.org/2000/svg">
<path fill-rule="evenodd" clip-rule="evenodd" d="M22.4477 24.2361C27.2437 24.2361 31.1316 20.3482 31.1316 15.5522C31.1316 10.7563 27.2437 6.86839 22.4477 6.86839C17.6518 6.86839 13.7639 10.7563 13.7639 15.5522C13.7639 20.3482 17.6518 24.2361 22.4477 24.2361ZM22.4477 25.1045C27.7233 25.1045 32 20.8278 32 15.5522C32 10.2767 27.7233 6 22.4477 6C17.1722 6 12.8955 10.2767 12.8955 15.5522C12.8955 20.8278 17.1722 25.1045 22.4477 25.1045ZM22.4478 10.2985V16.7484L15.5763 13.8636L15.9461 12.9829L21.4926 15.3114V10.2985H22.4478ZM11.9403 11.7313H2.38802V12.6866H11.9403V11.7313ZM0 15.5522H10.5075V16.5075H0V15.5522ZM11.9403 19.8507H2.38802V20.806H11.9403V19.8507Z" fill="black"/>
</svg>
