<svg width="32" height="32" viewBox="0 0 32 32" fill="none" xmlns="http://www.w3.org/2000/svg">
<g clip-path="url(#clip0_1_1341)">
<path fill-rule="evenodd" clip-rule="evenodd" d="M16 3.54639L12.4536 0L0 4.15121L3.98402 8.13523L0.632575 11.4867L4.24037 12.76V27.1492L16 31.069L27.7596 27.1492V12.76L31.3674 11.4867L28.016 8.13527L32 4.15121L19.5464 0L16 3.54639ZM16 5.0741L6.76635 8.15198L16 11.4109L25.2336 8.15197L16 5.0741ZM19.5517 15.6569L26.5217 13.1969V26.257L16 29.7642L5.47822 26.257V13.1969L12.4482 15.6569L16 12.1052L19.5517 15.6569ZM5.0265 7.42712L2.29155 4.69217L12.1193 1.41626L14.8542 4.15121L5.0265 7.42712ZM15.3811 9.98092V6.2138H16.6189V9.98092H15.3811ZM15.3811 14.8872V28.001H16.6189V14.8872H15.3811ZM5.02112 8.84871L2.89674 10.9731L12.1246 14.23L14.249 12.1056L5.02112 8.84871ZM26.9788 8.84871L29.1032 10.9731L19.8754 14.23L17.751 12.1056L26.9788 8.84871ZM26.9735 7.42712L29.7085 4.69217L19.8807 1.41626L17.1458 4.15121L26.9735 7.42712Z" fill="black"/>
</g>
<defs>
<clipPath id="clip0_1_1341">
<rect width="32" height="32" fill="white"/>
</clipPath>
</defs>
</svg>
