<svg width="32" height="32" viewBox="0 0 32 32" fill="none" xmlns="http://www.w3.org/2000/svg">
<g clip-path="url(#clip0_1_1188)">
<path fill-rule="evenodd" clip-rule="evenodd" d="M22.7845 12.3416C22.7845 18.1091 18.1091 22.7845 12.3416 22.7845C6.57416 22.7845 1.89871 18.1091 1.89871 12.3416C1.89871 6.57416 6.57416 1.89871 12.3416 1.89871C18.1091 1.89871 22.7845 6.57416 22.7845 12.3416ZM20.3715 21.714C18.2131 23.565 15.4079 24.6832 12.3416 24.6832C5.52553 24.6832 0 19.1577 0 12.3416C0 5.52553 5.52553 0 12.3416 0C19.1577 0 24.6832 5.52553 24.6832 12.3416C24.6832 15.4079 23.565 18.2131 21.714 20.3715L32 30.6574L30.6574 32L20.3715 21.714Z" fill="currentColor"/>
</g>
<defs>
<clipPath id="clip0_1_1188">
<rect width="32" height="32" fill="white"/>
</clipPath>
</defs>
</svg>
