<svg width="32" height="32" viewBox="0 0 32 32" fill="none" xmlns="http://www.w3.org/2000/svg">
<path fill-rule="evenodd" clip-rule="evenodd" d="M7.33525 21.1249C5.04039 19.6739 3.16359 17.9717 2.05391 16.7142C3.16431 15.3231 5.05404 13.4337 7.36481 11.8265C9.97524 10.011 13.0259 8.62319 16.0261 8.62319C19.0217 8.62319 21.9776 10.0072 24.5291 11.8216C26.7712 13.4161 28.6374 15.2979 29.8561 16.7131C28.6392 17.9942 26.7849 19.69 24.5587 21.1293C22.0098 22.7771 19.0434 24.0435 16.0261 24.0435C13.0047 24.0435 9.94339 22.7739 7.33525 21.1249ZM16.0261 7C12.5575 7 9.18171 8.58807 6.44374 10.4923C3.69833 12.4018 1.49679 14.6969 0.362875 16.2618L0 16.7626L0.385409 17.2461C1.52415 18.6748 3.72877 20.763 6.4733 22.4983C9.21356 24.2309 12.5788 25.6667 16.0261 25.6667C19.4775 25.6667 22.7525 24.2277 25.4344 22.4939C28.1238 20.7552 30.2872 18.6744 31.5357 17.2821L32 16.7643L31.5605 16.2252C30.3149 14.6971 28.1533 12.4097 25.464 10.4972C22.7848 8.59186 19.4992 7 16.0261 7ZM19.291 16.2522C19.291 18.0451 17.8429 19.4986 16.0566 19.4986C14.2703 19.4986 12.8222 18.0451 12.8222 16.2522C12.8222 14.4592 14.2703 13.0058 16.0566 13.0058C17.8429 13.0058 19.291 14.4592 19.291 16.2522ZM20.9081 16.2522C20.9081 18.9416 18.736 21.1217 16.0566 21.1217C13.3772 21.1217 11.205 18.9416 11.205 16.2522C11.205 13.5628 13.3772 11.3826 16.0566 11.3826C18.736 11.3826 20.9081 13.5628 20.9081 16.2522Z" fill="black"/>
</svg>
