<svg width="42" height="32" viewBox="0 0 42 32" fill="none" xmlns="http://www.w3.org/2000/svg">
<g filter="url(#filter0_d_1_940)">
<path fill-rule="evenodd" clip-rule="evenodd" d="M22.3245 10.8047L20.0933 11.2848V9.47118L22.3245 9V10.8047ZM13.2577 10.0313L11.0888 10.4936L11.0799 17.6147C11.0799 18.9305 12.0666 19.8995 13.3822 19.8995C14.1111 19.8995 14.6444 19.7662 14.9377 19.6062V17.8014C14.6533 17.917 13.2488 18.326 13.2488 17.0102V13.8542H14.9377V11.9605H13.2488L13.2577 10.0313ZM8.00446 13.7386C7.53334 13.7386 7.2489 13.872 7.2489 14.2187C7.2489 14.5973 7.73843 14.7638 8.34576 14.9704C9.33584 15.3072 10.639 15.7505 10.6445 17.3925C10.6445 18.9839 9.37335 19.8996 7.52446 19.8996C6.76001 19.8996 5.92445 19.7485 5.09778 19.3928V17.277C5.84445 17.6859 6.78667 17.9882 7.52446 17.9882C8.02223 17.9882 8.37779 17.8548 8.37779 17.4459C8.37779 17.0265 7.84713 16.8349 7.20647 16.6035C6.23079 16.2511 5 15.8065 5 14.3254C5 12.7518 6.2 11.8094 8.00446 11.8094C8.74224 11.8094 9.47113 11.925 10.2089 12.2184V14.3076C9.53335 13.9431 8.68002 13.7386 8.00446 13.7386ZM17.7023 12.6183L17.5601 11.9604H15.6401V19.7394H17.8623V14.4674C18.3867 13.7829 19.2756 13.9074 19.5512 14.0052V11.9604C19.2667 11.8537 18.2267 11.6581 17.7023 12.6183ZM20.0932 11.9606H22.3244V19.7395H20.0932V11.9606ZM37 15.8812C37 13.6053 35.8978 11.8094 33.7911 11.8094C31.6756 11.8094 30.3956 13.6053 30.3956 15.8634C30.3956 18.5394 31.9067 19.8907 34.0756 19.8907C35.1333 19.8907 35.9333 19.6507 36.5378 19.3128V17.5348C35.9333 17.837 35.24 18.0237 34.36 18.0237C33.4978 18.0237 32.7333 17.7215 32.6356 16.6724H36.9822C36.9822 16.6234 36.9854 16.5121 36.9891 16.3838L36.9891 16.3837L36.9891 16.3834L36.9891 16.3832C36.9941 16.2091 37 16.0039 37 15.8812ZM32.6088 15.0366C32.6088 14.032 33.2222 13.6142 33.7822 13.6142C34.3244 13.6142 34.9022 14.032 34.9022 15.0366H32.6088ZM25.2221 12.5029C25.5332 12.2184 26.0932 11.8094 26.9643 11.8094C28.5199 11.8094 29.9866 13.2141 29.9955 15.7923C29.9955 18.6105 28.5466 19.8907 26.9555 19.8907C26.1732 19.8907 25.7021 19.5618 25.3821 19.3306L25.3732 21.8466L23.151 22.3177V11.9517H25.1066L25.2221 12.5029ZM25.3821 17.5169C25.5954 17.748 25.9065 17.9347 26.431 17.9347C27.2488 17.9347 27.7999 17.0457 27.7999 15.8544C27.7999 14.6898 27.2399 13.783 26.431 13.783C25.9243 13.783 25.6043 13.9608 25.3732 14.2186L25.3821 17.5169Z" fill="black"/>
</g>
<defs>
<filter id="filter0_d_1_940" x="0" y="-5" width="42" height="42" filterUnits="userSpaceOnUse" color-interpolation-filters="sRGB">
<feFlood flood-opacity="0" result="BackgroundImageFix"/>
<feColorMatrix in="SourceAlpha" type="matrix" values="0 0 0 0 0 0 0 0 0 0 0 0 0 0 0 0 0 0 127 0" result="hardAlpha"/>
<feOffset/>
<feGaussianBlur stdDeviation="2.5"/>
<feComposite in2="hardAlpha" operator="out"/>
<feColorMatrix type="matrix" values="0 0 0 0 0 0 0 0 0 0 0 0 0 0 0 0 0 0 0.07 0"/>
<feBlend mode="normal" in2="BackgroundImageFix" result="effect1_dropShadow_1_940"/>
<feBlend mode="normal" in="SourceGraphic" in2="effect1_dropShadow_1_940" result="shape"/>
</filter>
</defs>
</svg>
