<svg width="32" height="32" viewBox="0 0 32 32" fill="none" xmlns="http://www.w3.org/2000/svg">
<path d="M26.2809 6.84366C26.0649 6.73203 25.8546 6.60966 25.6509 6.47701C25.0584 6.08533 24.5152 5.62382 24.033 5.10241C22.8264 3.72181 22.3757 2.32122 22.2097 1.3406H22.2164C22.0777 0.52664 22.1351 0 22.1437 0H16.648V21.2509C16.648 21.5363 16.648 21.8182 16.636 22.0969C16.636 22.1316 16.6327 22.1636 16.6307 22.2009C16.6307 22.2162 16.6307 22.2322 16.6273 22.2482C16.6273 22.2522 16.6273 22.2562 16.6273 22.2602C16.5694 23.0227 16.325 23.7593 15.9156 24.4051C15.5062 25.051 14.9443 25.5863 14.2795 25.964C13.5865 26.3583 12.8028 26.565 12.0056 26.564C9.44504 26.564 7.36981 24.4761 7.36981 21.8976C7.36981 19.319 9.44504 17.2311 12.0056 17.2311C12.4903 17.2307 12.972 17.307 13.4328 17.4571L13.4395 11.8614C12.0405 11.6807 10.6192 11.7919 9.26529 12.188C7.91139 12.584 6.65427 13.2564 5.57323 14.1626C4.62599 14.9857 3.82964 15.9677 3.22001 17.0645C2.98803 17.4645 2.11274 19.0717 2.00674 21.6803C1.94008 23.1608 2.38472 24.6948 2.59671 25.3287V25.3421C2.73004 25.7154 3.24668 26.9893 4.08864 28.0633C4.76756 28.9247 5.56969 29.6815 6.46918 30.3092V30.2958L6.48252 30.3092C9.14305 32.1171 12.0929 31.9984 12.0929 31.9984C12.6035 31.9777 14.3141 31.9984 16.2567 31.0778C18.4113 30.0572 19.6379 28.5366 19.6379 28.5366C20.4215 27.628 21.0446 26.5926 21.4804 25.4747C21.9777 24.1675 22.1437 22.5995 22.1437 21.9729V10.6988C22.2104 10.7388 23.0984 11.3261 23.0984 11.3261C23.0984 11.3261 24.3776 12.1461 26.3735 12.68C27.8055 13.06 29.7347 13.14 29.7347 13.14V7.68428C29.0587 7.75761 27.6861 7.54429 26.2809 6.84366Z" fill="black"/>
</svg>
