<svg width="120" height="120" viewBox="0 0 120 120" fill="none" xmlns="http://www.w3.org/2000/svg">
<path d="M60.0948 112C46.0135 112 33.9439 106.971 23.8859 96.7118C14.029 86.4526 9 74.1818 9 59.8994C9 45.617 14.029 33.3462 23.8859 23.2882C33.9439 13.029 46.0135 8 60.0948 8C74.3772 8 86.4468 13.029 96.3037 23.2882C106.362 33.3462 111.391 45.617 111.391 59.8994C111.391 74.1818 106.362 86.4526 96.3037 96.7118C86.4468 106.971 74.3772 112 60.0948 112ZM60.0948 15.8453C48.2263 15.8453 38.1683 20.2708 29.7195 28.9207C21.472 37.5706 17.2476 47.8298 17.2476 59.8994C17.2476 72.1702 21.472 82.6306 29.7195 91.2805C38.1683 99.9304 48.2263 104.356 60.0948 104.356C71.9633 104.356 82.0213 99.9304 90.47 91.2805C98.9188 82.6306 103.143 72.1702 103.143 59.8994C103.143 47.6286 98.9188 37.3694 90.47 28.7195C82.2224 20.0696 71.9633 15.8453 60.0948 15.8453ZM39.7776 91.2805V28.7195H60.8994C75.383 28.7195 83.2283 36.766 83.2283 47.8298C83.2283 57.2843 77.3946 63.5203 68.7447 65.9342L86.0445 91.2805H73.9749L57.6809 67.5435H49.6344V91.2805H39.7776ZM73.1702 48.031C73.1702 41.5938 68.9459 38.3752 60.4971 38.3752H49.6344V58.089L60.296 57.8878C69.147 57.8878 73.1702 53.4623 73.1702 48.031Z" fill="black"/>
</svg>
