<svg width="32" height="32" viewBox="0 0 32 32" fill="none" xmlns="http://www.w3.org/2000/svg">
<g clip-path="url(#clip0_1_1357)">
<path fill-rule="evenodd" clip-rule="evenodd" d="M2.13329 5.64103H15.2615V18.7692H2.13329V5.64103ZM0.492269 20.4103V4H16.9025V20.4103H0.492269ZM18.8718 8.10256H27.5841L32 16.9345L32 22.8718L32 23.6923L32 24.5128H28.7017C28.7124 24.6208 28.7179 24.7303 28.7179 24.841C28.7179 26.6537 27.2485 28.1231 25.4359 28.1231C23.6232 28.1231 22.1538 26.6537 22.1538 24.841C22.1538 24.7303 22.1593 24.6208 22.17 24.5128H20.5128H19.6923H11.9633C11.974 24.6208 11.9795 24.7303 11.9795 24.841C11.9795 26.6537 10.51 28.1231 8.69742 28.1231C6.88479 28.1231 5.41536 26.6537 5.41536 24.841C5.41536 24.7303 5.42085 24.6208 5.43157 24.5128H0V22.8718H6.07154C6.67032 22.0746 7.62365 21.559 8.69742 21.559C9.77118 21.559 10.7245 22.0746 11.3233 22.8718H18.8718V8.10256ZM22.81 22.8718C23.4088 22.0746 24.3621 21.559 25.4359 21.559C26.5096 21.559 27.463 22.0746 28.0617 22.8718H30.359L30.359 17.9487H20.5129V16.3077H29.8519L26.5698 9.74359H20.5129V22.8718H22.81ZM8.69742 26.4821C9.60373 26.4821 10.3384 25.7473 10.3384 24.841C10.3384 23.9347 9.60373 23.2 8.69742 23.2C7.7911 23.2 7.05639 23.9347 7.05639 24.841C7.05639 25.7473 7.7911 26.4821 8.69742 26.4821ZM27.0769 24.841C27.0769 25.7473 26.3422 26.4821 25.4359 26.4821C24.5295 26.4821 23.7948 25.7473 23.7948 24.841C23.7948 23.9347 24.5295 23.2 25.4359 23.2C26.3422 23.2 27.0769 23.9347 27.0769 24.841Z" fill="black"/>
</g>
<defs>
<clipPath id="clip0_1_1357">
<rect width="32" height="32" fill="white"/>
</clipPath>
</defs>
</svg>
