<svg width="32" height="32" viewBox="0 0 32 32" fill="none" xmlns="http://www.w3.org/2000/svg">
<g clip-path="url(#clip0_1_1424)">
<path fill-rule="evenodd" clip-rule="evenodd" d="M32.1344 30.3563C32.1694 30.3919 32.2011 30.43 32.2291 30.4703C32.3874 30.6832 32.4557 30.9403 32.4216 31.1948C32.3876 31.4493 32.2534 31.6843 32.0436 31.857C31.8269 32.0332 31.5458 32.1309 31.2543 32.1315C31.0874 32.1317 30.9224 32.1 30.7701 32.0386C30.6177 31.9772 30.4814 31.8873 30.3702 31.775L28.9928 30.3848C28.5349 30.5181 28.057 30.5866 27.5759 30.588H5.16627C3.91018 30.588 2.70554 30.1373 1.81735 29.3351C0.929156 28.5329 0.430176 27.4448 0.430176 26.3103V6.0698C0.430384 5.50074 0.55693 4.9375 0.802331 4.41339C1.04773 3.88927 1.407 3.41492 1.8589 3.01839L0.749862 1.89551C0.548971 1.68309 0.448083 1.40811 0.468775 1.12937C0.489468 0.850638 0.630098 0.590281 0.860588 0.403991C1.09108 0.217701 1.39313 0.120268 1.70213 0.132532C2.01113 0.144797 2.30255 0.265784 2.51406 0.469617L31.0214 29.2334L32.1344 30.3563ZM5.34309 21.5483C5.57881 21.6776 5.84958 21.7452 6.12533 21.7439H20.4126L14.8634 16.1473L13.0282 18.5107L12.4954 17.837L10.6088 15.4557C10.4709 15.2806 10.2886 15.1378 10.0771 15.0393C9.86566 14.9408 9.63118 14.8894 9.39324 14.8894C9.1553 14.8894 8.92082 14.9408 8.70935 15.0393C8.49789 15.1378 8.31558 15.2806 8.17764 15.4557L6.31478 17.8227L4.90973 19.6051C4.74778 19.8066 4.65085 20.0448 4.62971 20.2931C4.60857 20.5415 4.66404 20.7902 4.78997 21.0118C4.9159 21.2334 5.10736 21.4191 5.34309 21.5483ZM19.3013 10.7866C19.0901 10.8851 18.9082 11.0279 18.7707 11.203L17.6774 12.5861L6.96991 1.79213H27.5798C28.8359 1.79213 30.0406 2.24282 30.9288 3.04503C31.8169 3.84725 32.3159 4.93529 32.3159 6.0698V26.3174C32.316 26.6281 32.2776 26.9378 32.2015 27.2407L26.755 21.7439C27.016 21.7223 27.2661 21.6391 27.4802 21.5024C27.6942 21.3658 27.8646 21.1807 27.9743 20.9656C28.0839 20.7506 28.1289 20.5133 28.1047 20.2776C28.0805 20.0418 27.9879 19.816 27.8364 19.6229L24.75 15.7017L21.1979 11.203C21.0604 11.0279 20.8785 10.8851 20.6673 10.7866C20.4562 10.688 20.222 10.6366 19.9843 10.6366C19.7466 10.6366 19.5124 10.688 19.3013 10.7866Z" fill="#E5E5E5"/>
</g>
<defs>
<clipPath id="clip0_1_1424">
<rect width="32" height="32" fill="white"/>
</clipPath>
</defs>
</svg>
