<svg width="32" height="32" viewBox="0 0 32 32" fill="none" xmlns="http://www.w3.org/2000/svg">
<g clip-path="url(#clip0_1_1192)">
<path fill-rule="evenodd" clip-rule="evenodd" d="M30.5455 16C30.5455 24.0332 24.0332 30.5455 16 30.5455C7.96677 30.5455 1.45455 24.0332 1.45455 16C1.45455 7.96677 7.96677 1.45455 16 1.45455C24.0332 1.45455 30.5455 7.96677 30.5455 16ZM32 16C32 24.8366 24.8366 32 16 32C7.16344 32 0 24.8366 0 16C0 7.16344 7.16344 0 16 0C24.8366 0 32 7.16344 32 16ZM17.4543 16C17.4543 16.8033 16.8031 17.4545 15.9997 17.4545C15.1964 17.4545 14.5452 16.8033 14.5452 16C14.5452 15.1967 15.1964 14.5455 15.9997 14.5455C16.8031 14.5455 17.4543 15.1967 17.4543 16ZM13.0907 16C13.0907 14.6444 14.0179 13.5053 15.2728 13.1825V7.27273H16.7273V13.1826C17.9819 13.5057 18.9088 14.6446 18.9088 16C18.9088 16.5394 18.762 17.0445 18.5062 17.4775L25.2417 24.213L24.2132 25.2415L17.4778 18.5062C17.0446 18.7622 16.5393 18.9091 15.9997 18.9091C14.3931 18.9091 13.0907 17.6066 13.0907 16Z" fill="black"/>
</g>
<defs>
<clipPath id="clip0_1_1192">
<rect width="32" height="32" fill="white"/>
</clipPath>
</defs>
</svg>
