<svg width="32" height="32" viewBox="0 0 32 32" fill="none" xmlns="http://www.w3.org/2000/svg">
<path fill-rule="evenodd" clip-rule="evenodd" d="M4.25584 1H27.7442L32 5.25584V31.4762H0V5.25584L4.25584 1ZM4.88702 2.52381L2.6013 4.80953H13.1985L14.1128 2.52381H4.88702ZM15.754 2.52381L14.8397 4.80953H17.1605L16.2462 2.52381H15.754ZM17.8874 2.52381L18.8016 4.80953H29.3987L27.113 2.52381H17.8874ZM17.5239 6.33334H14.4763V8.61904H17.5239V6.33334ZM12.9525 6.33334V10.1429H19.0477V6.33334H30.4761V5.88698L30.4762 5.88702V29.9524H1.52381V6.33334H12.9525ZM12.1903 20.8095H4.57129V19.2857H12.1903V20.8095ZM4.57129 24.619H15.9999V23.0952H4.57129V24.619ZM22.0952 18.5238C20.412 18.5238 19.0476 19.8883 19.0476 21.5714C19.0476 23.2546 20.412 24.619 22.0952 24.619C23.7783 24.619 25.1428 23.2546 25.1428 21.5714C25.1428 19.8883 23.7783 18.5238 22.0952 18.5238ZM17.5238 21.5714C17.5238 19.0467 19.5705 17 22.0952 17C24.6199 17 26.6666 19.0467 26.6666 21.5714C26.6666 22.5587 26.3537 23.4728 25.8216 24.2201L28.7294 27.1279L27.6519 28.2054L24.7441 25.2976C23.9968 25.8298 23.0826 26.1429 22.0952 26.1429C19.5705 26.1429 17.5238 24.0962 17.5238 21.5714Z" fill="black"/>
</svg>
