<svg width="32" height="32" viewBox="0 0 32 32" fill="none" xmlns="http://www.w3.org/2000/svg">
<g clip-path="url(#clip0_1_1415)">
<path fill-rule="evenodd" clip-rule="evenodd" d="M28.9067 0.518095L31.9543 9.66095C31.9619 9.67619 31.9619 9.69143 31.9619 9.70476C31.9619 9.71809 31.9619 9.72952 31.9695 9.73714L31.9773 9.76732C31.9895 9.81423 32 9.85427 32 9.90476V31.2381C32 31.6648 31.6648 32 31.2381 32H28.9524H13.7143H3.04762H0.761905C0.335238 32 0 31.6648 0 31.2381V9.90476C0 9.84381 0.0152381 9.79809 0.0457142 9.73714C0.0457142 9.72635 0.043802 9.71746 0.0420097 9.70914C0.0387426 9.69396 0.0358742 9.68063 0.0457142 9.66095L3.09333 0.518095C3.18476 0.213333 3.47429 0 3.80952 0H28.1905C28.5257 0 28.8152 0.213333 28.9067 0.518095ZM27.6419 1.52381H4.3581L1.81333 9.14286H30.1867L27.6419 1.52381ZM3.80952 30.4762H12.9524V13.7143H3.80952V30.4762ZM14.4762 30.4762H28.1905V13.7143H14.4762V30.4762ZM29.7143 30.4762H30.4762V10.6667H1.52381V30.4762H2.28571V12.9524C2.28571 12.5257 2.62095 12.1905 3.04762 12.1905H13.7143H28.9524C29.379 12.1905 29.7143 12.5257 29.7143 12.9524V30.4762ZM12.1904 22.8571C12.1904 23.2838 11.8552 23.619 11.4285 23.619C11.0019 23.619 10.6666 23.2838 10.6666 22.8571V21.3333C10.6666 20.9067 11.0019 20.5714 11.4285 20.5714C11.8552 20.5714 12.1904 20.9067 12.1904 21.3333V22.8571ZM16.1524 17.8743C16.3505 17.8743 16.5486 17.7981 16.6857 17.6457L18.6362 15.6952C18.941 15.3905 18.941 14.9181 18.6362 14.6133C18.3314 14.3086 17.8591 14.3086 17.5543 14.6133L15.6038 16.5638C15.2991 16.8686 15.2991 17.341 15.6038 17.6457C15.7714 17.7981 15.9695 17.8743 16.1524 17.8743ZM16.8077 20.6629C16.6249 20.6629 16.4268 20.5867 16.2744 20.4343C15.9849 20.1295 15.9849 19.6419 16.2591 19.3524L20.4496 15.1619C20.7544 14.8571 21.2268 14.8571 21.5315 15.1619C21.8363 15.4667 21.8363 15.939 21.5315 16.2438L17.3411 20.4343C17.2039 20.5867 16.9906 20.6629 16.8077 20.6629Z" fill="black"/>
</g>
<defs>
<clipPath id="clip0_1_1415">
<rect width="32" height="32" fill="white"/>
</clipPath>
</defs>
</svg>
