<svg width="32" height="32" viewBox="0 0 32 32" fill="none" xmlns="http://www.w3.org/2000/svg">
<g clip-path="url(#clip0_1_1248)">
<path fill-rule="evenodd" clip-rule="evenodd" d="M26.7564 12.7553C26.7943 12.4112 26.8094 12.0672 26.8094 11.7231C26.8094 11.4457 26.7981 11.1649 26.7677 10.8945C26.7564 10.7646 26.745 10.6382 26.7298 10.5083C26.7268 10.4834 26.7227 10.458 26.7185 10.4325C26.7121 10.3932 26.7056 10.3535 26.7033 10.3152C26.7053 10.3226 26.7125 10.3689 26.7162 10.3926C26.715 10.3848 26.7133 10.3733 26.7109 10.3573C26.709 10.3415 26.7061 10.3257 26.7033 10.3099C26.7005 10.2941 26.6976 10.2783 26.6957 10.2625C26.6085 9.72889 26.4796 9.20225 26.3091 8.68615C26.2257 8.42985 26.1309 8.18057 26.0285 7.9313C26.0119 7.88958 25.9939 7.84786 25.9762 7.807C25.9655 7.78253 25.9551 7.75836 25.9451 7.73469C25.8731 7.57318 25.9982 7.85055 25.9224 7.68904C25.8693 7.57669 25.8125 7.46435 25.7556 7.352C25.513 6.87802 25.2363 6.4216 24.9216 5.98625C24.8458 5.87741 24.7662 5.76857 24.6828 5.66324C24.6638 5.63867 24.6439 5.61409 24.624 5.58952C24.6041 5.56494 24.5842 5.54036 24.5653 5.51579C24.5584 5.50728 24.5404 5.48621 24.5207 5.46322C24.4755 5.41029 24.4215 5.34714 24.4743 5.40344C24.4955 5.42698 24.5034 5.43572 24.5034 5.43571C24.5034 5.4357 24.4511 5.37747 24.4402 5.36482C24.4375 5.36187 24.4348 5.35885 24.432 5.35578C24.4149 5.33687 24.3958 5.31574 24.3795 5.2946C24.3587 5.27178 24.3378 5.24808 24.317 5.22438C24.2961 5.20068 24.2753 5.17698 24.2544 5.15416C24.171 5.05937 24.0839 4.96808 23.9967 4.8768C23.6214 4.4906 23.2158 4.12897 22.7874 3.79192C22.7268 3.74277 22.6623 3.69362 22.5979 3.64447C22.5853 3.63496 22.5707 3.62195 22.5551 3.60803C22.5188 3.57569 22.4769 3.53842 22.4424 3.52861C22.4538 3.53212 22.5827 3.62691 22.4766 3.55318C22.4633 3.5444 22.45 3.53475 22.4368 3.52509C22.4235 3.51544 22.4102 3.50578 22.397 3.49701C22.3704 3.47945 22.3439 3.46102 22.3173 3.44259C22.2908 3.42416 22.2643 3.40572 22.2377 3.38817C22.0103 3.2372 21.7753 3.08974 21.5364 2.95281C21.055 2.67896 20.5508 2.4332 20.0315 2.22254C20.0258 2.22028 20.015 2.21605 20.0027 2.21125C19.9578 2.19373 19.893 2.16842 19.9822 2.20148C20.015 2.21385 20.0268 2.21829 20.0268 2.21828C20.0268 2.21825 19.9737 2.19811 19.9557 2.19095C19.895 2.16637 19.8344 2.14179 19.7699 2.12073C19.6448 2.07509 19.5197 2.03295 19.3909 1.99082C19.1179 1.90305 18.8412 1.82581 18.5645 1.75559C18.2839 1.68537 17.9996 1.62569 17.7153 1.57302L17.7153 1.57302C17.5713 1.54845 17.4272 1.52387 17.2832 1.50281C17.2671 1.50017 17.2505 1.4971 17.2336 1.49397C17.183 1.48459 17.1296 1.47472 17.0785 1.47472C17.183 1.47472 17.183 1.47472 17.1477 1.47396C17.1088 1.47313 17.0269 1.47138 16.9951 1.4677C16.4075 1.4045 15.8161 1.38343 15.2248 1.4045C14.9291 1.41503 14.6296 1.43259 14.3339 1.46419C14.3074 1.4677 14.2818 1.47033 14.2562 1.47296C14.2306 1.4756 14.205 1.47823 14.1785 1.48174C14.1653 1.48261 14.1507 1.48262 14.1389 1.48213C14.1151 1.48566 14.0911 1.49002 14.0678 1.49426C14.0512 1.49729 14.0349 1.50025 14.0193 1.50281L14.0193 1.50281C13.8828 1.52387 13.7464 1.54494 13.6099 1.56951C13.0413 1.66782 12.4802 1.80826 11.9344 1.9838C11.8017 2.02593 11.6652 2.07157 11.5325 2.12073C11.4965 2.13302 11.4615 2.14618 11.4264 2.15935C11.3913 2.17251 11.3563 2.18568 11.3203 2.19797C11.3155 2.1996 11.311 2.20101 11.3067 2.20219C11.2991 2.20571 11.2918 2.2092 11.2851 2.21237C11.2799 2.21484 11.2751 2.21711 11.271 2.21903C11.017 2.32085 10.7668 2.42969 10.5242 2.54906C10.0238 2.79131 9.54237 3.06516 9.08369 3.37061C9.05336 3.39168 9.02303 3.41187 8.9927 3.43206C8.96238 3.45224 8.93205 3.47243 8.90173 3.4935C8.88846 3.50227 8.87519 3.51193 8.86193 3.52158C8.84866 3.53124 8.83539 3.54089 8.82212 3.54967C8.71219 3.62691 8.84487 3.52861 8.85624 3.52509C8.78211 3.54716 8.69504 3.62574 8.61957 3.69385C8.58697 3.72327 8.55653 3.75074 8.53023 3.77086C8.32174 3.93236 8.12082 4.10089 7.9237 4.27643C7.72279 4.459 7.52946 4.64508 7.33992 4.83818C7.24136 4.94 7.1428 5.04532 7.04803 5.15065C7.02836 5.17175 7.00359 5.19547 6.97721 5.22073C6.90758 5.28742 6.8267 5.36488 6.79851 5.43337C6.79702 5.4351 6.79554 5.43682 6.79405 5.43855C6.7713 5.46312 6.75235 5.4877 6.73339 5.51228C6.6917 5.56143 6.65379 5.61058 6.61588 5.65973C6.53627 5.75804 6.46046 5.85986 6.38843 5.96167C6.23301 6.17935 6.08517 6.40054 5.94491 6.62875C5.80465 6.85696 5.67197 7.09219 5.55067 7.32742C5.49476 7.42793 5.44456 7.53373 5.39512 7.63793C5.38757 7.65385 5.38003 7.66972 5.3725 7.68553C5.36855 7.69377 5.36414 7.70148 5.35968 7.70839C5.35399 7.72241 5.34892 7.73673 5.34504 7.74769C5.34399 7.75065 5.34303 7.75336 5.34217 7.75575C5.31564 7.81193 5.2891 7.8681 5.26636 7.92779C5.06165 8.41581 4.89486 8.92138 4.76976 9.43397C4.70532 9.69729 4.65225 9.96412 4.60676 10.231C4.60297 10.2503 4.60012 10.2704 4.59728 10.2906C4.59444 10.3108 4.5916 10.331 4.5878 10.3503C4.56885 10.4767 4.59539 10.3257 4.59539 10.3082C4.59309 10.3465 4.58661 10.3861 4.58017 10.4255C4.57599 10.451 4.57183 10.4764 4.56885 10.5013C4.5499 10.6382 4.53853 10.7751 4.52715 10.912L4.52715 10.9121C4.47787 11.5475 4.48545 12.1865 4.55369 12.8185C4.56506 12.9238 4.57643 13.0292 4.5916 13.1345C4.5806 13.0469 4.58747 13.0917 4.59666 13.1516C4.6033 13.1949 4.61116 13.2461 4.61434 13.2609L4.61435 13.2609C4.64467 13.4259 4.675 13.5909 4.7129 13.7559C4.78872 14.1035 4.88349 14.4476 4.99721 14.7846C5.05407 14.9602 5.11852 15.1357 5.18675 15.3112C5.20807 15.3665 5.23631 15.4238 5.26489 15.4817C5.31172 15.5767 5.35945 15.6734 5.37907 15.7663C5.37103 15.7394 5.31847 15.6368 5.35355 15.7115L5.37629 15.7642C5.38387 15.7782 5.3905 15.7922 5.39714 15.8063C5.40377 15.8203 5.41041 15.8344 5.41799 15.8484C5.43315 15.8765 5.44737 15.9055 5.46158 15.9344C5.4758 15.9634 5.49001 15.9924 5.50518 16.0205C5.64544 16.2943 5.79707 16.5611 5.95249 16.828C6.77888 18.2358 7.73037 19.577 8.69702 20.9041C9.80394 22.4279 10.9525 23.9235 12.1163 25.4087C13.083 26.641 14.061 27.8628 15.0504 29.0776C15.2509 29.3237 15.4515 29.5682 15.652 29.8122C15.9088 29.4999 16.1644 29.1869 16.4189 28.8739C17.3742 27.6978 18.3181 26.5181 19.2506 25.3279C20.3613 23.913 21.453 22.4876 22.5107 21.0376C23.4508 19.7491 24.3795 18.4465 25.1983 17.0878C25.3576 16.8245 25.513 16.5611 25.657 16.2908C25.7253 16.1679 25.7897 16.045 25.8504 15.9221L25.8504 15.9221C25.8753 15.873 25.9002 15.824 25.9231 15.7749C25.9241 15.7723 25.9289 15.7615 25.9349 15.7483C25.944 15.7279 25.9558 15.7016 25.9603 15.6904C25.9679 15.6711 25.9764 15.6518 25.9849 15.6325C25.9935 15.6132 26.002 15.5939 26.0096 15.5746C26.2749 14.9566 26.4758 14.3177 26.6123 13.6681C26.6476 13.5047 26.6763 13.3381 26.7046 13.1742L26.7109 13.138C26.7147 13.1099 26.7298 12.9976 26.7109 13.1345C26.7128 13.1134 26.7156 13.0924 26.7185 13.0713C26.7213 13.0502 26.7241 13.0292 26.726 13.0081C26.7374 12.9238 26.7488 12.8396 26.7564 12.7553ZM25.9657 15.6832C25.9651 15.6847 25.9627 15.6899 25.9596 15.6967C25.965 15.6848 25.9665 15.6814 25.9657 15.6832ZM15.1163 30.4609H15.1149C15.1129 30.4643 14.9493 30.663 15.0201 30.5767C15.0522 30.5381 15.0843 30.4995 15.1163 30.4609ZM5.38008 15.7712C5.37975 15.7696 5.37942 15.7679 5.37907 15.7663C5.37972 15.7685 5.38008 15.7701 5.38008 15.7712ZM6.80608 5.42455C6.80343 5.42791 6.80069 5.43141 6.79784 5.43503C6.79806 5.43448 6.79828 5.43393 6.79851 5.43337C6.80103 5.43045 6.80356 5.42751 6.80608 5.42455ZM6.83954 5.38237C6.87205 5.34222 6.85981 5.35628 6.80608 5.42455C6.81723 5.41146 6.82838 5.39786 6.83954 5.38237ZM28.3252 11.6284C28.3019 9.38167 27.5829 7.14664 26.2408 5.27353C24.9216 3.43732 23.0565 1.93114 20.8731 1.03234C18.5266 0.0668394 15.9488 -0.228077 13.4204 0.175678C11.0435 0.554857 8.81075 1.61164 7.04424 3.12485C5.28531 4.63103 4.00023 6.61821 3.40129 8.76339C2.68104 11.3369 2.93881 14.0965 4.10637 16.5225C4.73935 17.8381 5.60076 19.0704 6.44495 20.2781L6.46046 20.3003C7.556 21.8626 8.7084 23.3934 9.87975 24.9101C10.9412 26.2864 12.0216 27.6486 13.1171 29.0003C13.7112 29.7352 14.3054 30.4666 14.9106 31.1911C14.9303 31.215 14.9881 31.2848 15.1262 31.4509C15.4319 31.8187 15.5479 32.0005 15.6631 32C15.7788 31.9995 15.8937 31.8153 16.199 31.4509C16.645 30.9187 16.9114 30.5929 17.2137 30.223C17.2891 30.1308 17.3668 30.0358 17.45 29.9342C18.3711 28.8037 19.2847 27.6662 20.1869 26.5251C21.309 25.1032 22.4121 23.6707 23.4849 22.2172C24.4667 20.8866 25.4296 19.5419 26.3015 18.1481C26.6237 17.6285 26.9383 17.1053 27.2037 16.5576C27.7913 15.3499 28.1476 14.0754 28.2803 12.7588C28.3144 12.4147 28.3295 12.0707 28.3333 11.7266C28.3333 11.6937 28.3305 11.6609 28.3252 11.6284ZM15.6916 6.12617C15.6847 6.126 15.6778 6.12591 15.6709 6.12591C15.6627 6.12583 15.6545 6.1259 15.6464 6.12611C14.3694 6.13875 13.0784 6.52568 12.0373 7.27141C10.9658 8.04166 10.1632 9.08446 9.70458 10.3208C8.80312 12.7501 9.58597 15.6533 11.5905 17.2965C12.6344 18.1537 13.8798 18.6632 15.228 18.7699C16.5091 18.8726 17.8376 18.5447 18.9367 17.8811C20.0003 17.2412 20.8939 16.2735 21.4078 15.1398C21.9772 13.8837 22.1433 12.5131 21.8744 11.1582C21.3762 8.66181 19.2491 6.59991 16.7265 6.21281C16.3815 6.16633 16.0402 6.13124 15.6916 6.12617ZM15.5457 7.69514C15.4402 7.697 15.3361 7.70143 15.232 7.70986C15.2004 7.71381 15.1687 7.71677 15.1371 7.71974C15.1055 7.7227 15.0739 7.72566 15.0422 7.72961C15.0291 7.73112 15.0182 7.73234 15.0093 7.73332C15.0018 7.73453 14.9931 7.73592 14.9829 7.73751C14.7101 7.78096 14.4412 7.84811 14.1803 7.93106C14.1597 7.93865 14.1236 7.94832 14.0812 7.95966C13.9693 7.98966 13.8136 8.03136 13.7849 8.07721C13.7889 8.06931 13.9628 7.99426 13.8284 8.05746C13.8126 8.06536 13.7968 8.07227 13.781 8.07919C13.7651 8.0861 13.7493 8.09301 13.7335 8.10091C13.6782 8.12461 13.6228 8.15226 13.5675 8.17991C13.3302 8.30236 13.0969 8.44061 12.8795 8.59466C12.8663 8.60522 12.846 8.61709 12.824 8.63C12.7835 8.65372 12.7371 8.68091 12.7178 8.70975C12.7161 8.71219 12.7147 8.71465 12.7134 8.71711C12.7148 8.71459 12.7163 8.71213 12.7178 8.70975C12.7578 8.64498 12.8216 8.63231 12.753 8.68946C12.7377 8.70472 12.7208 8.71833 12.7033 8.73242C12.6936 8.74022 12.6838 8.74817 12.6739 8.75661C12.575 8.83561 12.4802 8.92251 12.3853 9.01336C12.2864 9.10816 12.1915 9.20691 12.1006 9.30961C12.0808 9.33331 12.0611 9.35602 12.0413 9.37873C12.0215 9.40144 12.0017 9.42416 11.982 9.44786C11.9667 9.46312 11.9531 9.48001 11.939 9.49748C11.9312 9.50716 11.9232 9.51701 11.9148 9.52686C11.8238 9.63351 11.9345 9.49131 11.9424 9.48736C11.8794 9.52172 11.8122 9.64119 11.7589 9.73591C11.7387 9.77186 11.7204 9.80424 11.7052 9.82706C11.634 9.93371 11.5668 10.0443 11.5036 10.1589C11.4364 10.2813 11.3731 10.4038 11.3138 10.5302C11.3059 10.546 11.299 10.5618 11.292 10.5776C11.2851 10.5934 11.2782 10.6092 11.2703 10.625C11.2549 10.6572 11.2563 10.6542 11.2634 10.6386C11.2747 10.6139 11.3004 10.5578 11.298 10.5578C11.2733 10.5732 11.2487 10.663 11.2334 10.7187C11.229 10.7344 11.2255 10.7475 11.2228 10.7553C11.128 11.0121 11.0528 11.2767 10.9975 11.5453C10.9817 11.6243 10.9658 11.7033 10.954 11.7823C10.9534 11.786 10.9528 11.7894 10.9523 11.7925C10.9516 11.7988 10.9509 11.8059 10.95 11.8139C10.9342 11.9522 10.9224 12.0865 10.9184 12.2247C10.9065 12.5091 10.9184 12.7935 10.95 13.0779C10.953 13.102 10.9545 13.1191 10.9551 13.1305C10.9587 13.1476 10.9619 13.1609 10.9619 13.1609C10.9678 13.1925 10.9738 13.2231 10.9797 13.2537C10.9856 13.2843 10.9915 13.3149 10.9975 13.3465C11.0252 13.4769 11.0568 13.6072 11.0924 13.7336C11.1319 13.8719 11.1754 14.0062 11.2228 14.1365C11.2259 14.1446 11.2304 14.1603 11.236 14.1796C11.2523 14.2359 11.2773 14.3222 11.298 14.334C11.2997 14.3357 11.287 14.3079 11.2755 14.2827C11.2608 14.2504 11.2481 14.2225 11.2703 14.2669C11.2782 14.2827 11.2851 14.2985 11.292 14.3143C11.299 14.3301 11.3059 14.3459 11.3138 14.3617C11.4245 14.6026 11.555 14.8396 11.7013 15.0648C11.7152 15.0866 11.7314 15.1158 11.7493 15.148C11.8024 15.2436 11.8704 15.366 11.9385 15.4045C11.8634 15.3571 11.8555 15.2978 11.9108 15.365C11.9261 15.3802 11.9397 15.3971 11.9538 15.4146C11.9616 15.4243 11.9696 15.4341 11.978 15.444L11.9781 15.444C12.0176 15.4914 12.0571 15.5388 12.0966 15.5822C12.2746 15.7837 12.4643 15.9693 12.6699 16.1392C12.6858 16.153 12.7026 16.1668 12.7194 16.1806C12.7362 16.1945 12.753 16.2083 12.7688 16.2221C12.7691 16.2224 12.7694 16.2227 12.7697 16.223C12.806 16.249 12.8408 16.2751 12.8755 16.3011C12.9823 16.3762 13.089 16.4473 13.1997 16.5144C13.3184 16.5855 13.4409 16.6527 13.5635 16.7159C13.6268 16.7475 13.69 16.7791 13.7533 16.8067C13.7627 16.8114 13.7721 16.8155 13.7816 16.8195C13.7983 16.843 13.8959 16.8706 13.9572 16.888C13.9779 16.8939 13.9945 16.8986 14.0024 16.9015C14.0577 16.9213 14.117 16.941 14.1763 16.9608L14.1763 16.9608C14.3029 17.0003 14.4294 17.0358 14.5599 17.0674C14.6982 17.103 14.8366 17.1306 14.979 17.1543C14.9891 17.1559 14.9979 17.1573 15.0054 17.1585C15.0143 17.1595 15.0252 17.1607 15.0383 17.1622C15.1015 17.1701 15.1648 17.178 15.228 17.182C15.5127 17.2057 15.7974 17.2057 16.0821 17.1859C16.1236 17.182 16.1641 17.178 16.2046 17.1741C16.2452 17.1701 16.2857 17.1662 16.3272 17.1622C16.3436 17.1606 16.3551 17.1599 16.3625 17.1598C16.3764 17.1567 16.3865 17.1543 16.3865 17.1543C16.5091 17.1346 16.6317 17.1069 16.7542 17.0793C16.9495 17.0334 17.1344 16.9687 17.3209 16.9035C17.3874 16.8802 17.4542 16.8568 17.5217 16.8342C17.5348 16.828 17.5478 16.8223 17.5608 16.8166C17.5766 16.8097 17.5924 16.8028 17.6082 16.7949C17.6556 16.7742 17.7007 16.7513 17.7469 16.7279C17.7624 16.72 17.7781 16.712 17.7941 16.704C17.9048 16.6487 18.0115 16.5895 18.1143 16.5263C18.2329 16.4552 18.3476 16.3801 18.4623 16.3011C18.4757 16.2904 18.4963 16.2779 18.5187 16.2643C18.5624 16.2378 18.6126 16.2074 18.6283 16.1787C18.6204 16.1866 18.4781 16.2972 18.5888 16.2063L18.6481 16.1589C18.8537 15.9891 19.0474 15.8034 19.2253 15.6059C19.2587 15.5701 19.2903 15.5326 19.3225 15.4945C19.3399 15.4738 19.3575 15.453 19.3756 15.4321C19.3909 15.4169 19.4045 15.4 19.4186 15.3825C19.4264 15.3728 19.4344 15.363 19.4428 15.3531C19.4741 15.3177 19.4591 15.3362 19.4386 15.3615C19.4203 15.3842 19.3974 15.4124 19.3993 15.4124C19.4666 15.3757 19.541 15.2422 19.595 15.1452C19.6108 15.1168 19.6249 15.0915 19.6365 15.0727C19.7789 14.8554 19.9054 14.6303 20.0161 14.3933C20.0184 14.3876 20.0248 14.3756 20.0327 14.3607C20.0359 14.3547 20.0394 14.3482 20.043 14.3414C20.0608 14.3076 20.0804 14.2679 20.0795 14.2525C20.0935 14.2187 20.1069 14.1842 20.1189 14.1484C20.1664 14.0141 20.2098 13.8798 20.2494 13.7455C20.2889 13.6072 20.3206 13.469 20.3482 13.3307C20.3542 13.2991 20.3591 13.2685 20.364 13.2379C20.369 13.2073 20.3739 13.1767 20.3799 13.1451C20.3805 13.1407 20.3812 13.1366 20.3818 13.1328C20.3823 13.1275 20.383 13.1211 20.3838 13.1135C20.4154 12.8212 20.4313 12.5249 20.4194 12.2326C20.4115 12.0904 20.3996 11.9443 20.3838 11.7981C20.383 11.7905 20.3823 11.7841 20.3818 11.7788C20.3812 11.7749 20.3805 11.7709 20.3799 11.7665C20.373 11.712 20.3633 11.6604 20.3531 11.6067C20.3515 11.5981 20.3499 11.5895 20.3482 11.5809C20.2929 11.3004 20.2178 11.0279 20.1189 10.7632C20.115 10.7514 20.1105 10.7346 20.1055 10.7157C20.0998 10.6943 20.0935 10.6702 20.0863 10.6476C20.0843 10.6499 20.0773 10.6403 20.0636 10.6092C20.0556 10.5934 20.0487 10.5776 20.0418 10.5618C20.0349 10.546 20.028 10.5302 20.0201 10.5144C19.9687 10.4038 19.9133 10.2971 19.854 10.1905C19.7828 10.0601 19.7038 9.93371 19.6247 9.81126C19.6119 9.7916 19.5966 9.76484 19.5797 9.73507C19.5285 9.64522 19.4617 9.5279 19.3993 9.49526C19.427 9.51106 19.4982 9.62166 19.427 9.53476C19.4117 9.51951 19.3981 9.50262 19.384 9.48515C19.3762 9.47547 19.3682 9.46562 19.3598 9.45576L19.3597 9.45572C19.3163 9.40438 19.2728 9.35305 19.2253 9.30171C19.1384 9.20695 19.0475 9.11613 18.9566 9.02531L18.9565 9.02521C18.8576 8.92646 18.7548 8.83561 18.6481 8.74871L18.5888 8.70131C18.482 8.61046 18.6244 8.72106 18.6283 8.72896C18.6148 8.70193 18.5587 8.66749 18.5132 8.63958C18.4922 8.62672 18.4735 8.61524 18.4623 8.60651C18.2448 8.45246 18.0155 8.31421 17.7743 8.19176L17.7743 8.19174C17.711 8.16015 17.6478 8.12855 17.5845 8.10091C17.5687 8.09301 17.5529 8.0861 17.5371 8.07919C17.5213 8.07227 17.5054 8.06536 17.4896 8.05746C17.3947 8.01401 17.6359 8.10881 17.5331 8.07721C17.4699 8.05746 17.4086 8.03376 17.3473 8.01006C17.286 7.98636 17.2247 7.96266 17.1615 7.94291C16.9005 7.85996 16.6317 7.79281 16.3588 7.74936C16.3453 7.74691 16.3337 7.7437 16.324 7.74025C16.3193 7.74007 16.3147 7.73992 16.3102 7.73978C16.2956 7.73931 16.2828 7.7389 16.2758 7.73751C16.2442 7.73554 16.2126 7.73257 16.1809 7.72961C16.1493 7.72665 16.1177 7.72369 16.086 7.72171C15.9476 7.70986 15.8093 7.70591 15.6709 7.70591C15.628 7.70553 15.5863 7.70185 15.5457 7.69514ZM16.3826 7.74936C16.3816 7.74885 16.3806 7.74836 16.3796 7.74786C16.3807 7.74833 16.3817 7.74883 16.3826 7.74936ZM20.0568 14.3062C20.0672 14.2799 20.0794 14.2493 20.0794 14.2511C20.0794 14.2515 20.0795 14.252 20.0795 14.2525C20.0721 14.2705 20.0645 14.2884 20.0568 14.3062ZM20.0568 14.3062C20.0544 14.3124 20.0521 14.3184 20.05 14.3236C20.0467 14.3321 20.0441 14.3387 20.043 14.3414C20.0413 14.3457 20.0432 14.3405 20.0517 14.3182C20.0534 14.3142 20.0551 14.3102 20.0568 14.3062ZM16.2798 17.1701C16.2802 17.1704 16.2807 17.1707 16.2812 17.1709L16.2798 17.1701ZM13.7862 16.8214C13.7847 16.8208 13.7831 16.8201 13.7816 16.8195C13.7813 16.8192 13.7811 16.8189 13.781 16.8186C13.7813 16.8189 13.7832 16.82 13.7862 16.8214ZM13.7862 16.8214C13.7871 16.8218 13.788 16.8222 13.7889 16.8225C13.8007 16.8275 13.8126 16.8324 13.8244 16.8383C13.9461 16.892 13.8151 16.8355 13.7862 16.8214Z" fill="black"/>
</g>
<defs>
<clipPath id="clip0_1_1248">
<rect width="32" height="32" fill="white"/>
</clipPath>
</defs>
</svg>
