<svg width="120" height="120" viewBox="0 0 120 120" fill="none" xmlns="http://www.w3.org/2000/svg">
<path fill-rule="evenodd" clip-rule="evenodd" d="M68.1 58.2401C69.1013 58.2745 70.0791 57.9319 70.84 57.28C71.1844 56.9638 71.4559 56.5764 71.6355 56.1447C71.8151 55.7129 71.8985 55.2473 71.88 54.78C71.88 53 70.58 52.02 68.04 51.36C67.1937 51.2127 66.3888 50.8853 65.68 50.4C65.4472 50.2016 65.263 49.9523 65.1416 49.6714C65.0203 49.3906 64.965 49.0856 64.98 48.78C64.9619 48.3994 65.034 48.0198 65.1904 47.6722C65.3468 47.3247 65.5831 47.019 65.88 46.78C66.4683 46.271 67.222 45.9937 68 46C68.7246 45.992 69.4325 46.217 70.0195 46.642C70.6065 47.0669 71.0414 47.6692 71.26 48.36L71.8 48.04C71.5116 47.268 70.9918 46.6039 70.3116 46.1385C69.6314 45.6731 68.8241 45.4292 68 45.44C67.0641 45.4809 66.1723 45.849 65.48 46.48C65.1305 46.7727 64.8518 47.1406 64.6648 47.5562C64.4777 47.9719 64.3872 48.4244 64.4 48.88C64.3747 49.2558 64.4375 49.6322 64.5833 49.9794C64.7292 50.3266 64.954 50.635 65.24 50.88C66.0727 51.4347 67.0021 51.8281 67.98 52.04C70.28 52.64 71.3 53.46 71.3 54.86C71.3236 55.2608 71.2526 55.6615 71.0928 56.0298C70.933 56.398 70.6888 56.7236 70.38 56.98C69.7453 57.4712 68.9625 57.7322 68.16 57.72C67.7324 57.736 67.306 57.6644 66.907 57.5097C66.5081 57.3549 66.1449 57.1202 65.84 56.82C65.3202 56.2366 64.9193 55.5572 64.66 54.82L64.1 55.12C64.3293 56.0084 64.8459 56.796 65.5694 57.3603C66.2928 57.9246 67.1825 58.2339 68.1 58.2401ZM33.2601 45.58L36.8401 57.26L40.5401 45.58H41.1601L44.8801 57.26L48.4601 45.58H49.1401L45.2401 58.1H44.5001L40.8401 46.66L37.1801 58.1H36.4401L32.5601 45.58H33.2601ZM59.7201 54.54L61.28 58.1H62L56.5401 45.58H55.82L50.3 58.1H50.98L52.5401 54.54H59.7201ZM56.16 46.36L59.5401 54H52.82L56.16 46.36ZM10.64 74.66C9.905 75.2886 8.96712 75.6296 8 75.62C7.08253 75.6138 6.19284 75.3045 5.46939 74.7402C4.74595 74.1759 4.22935 73.3883 4 72.4999L4.56 72.2199C4.8289 72.9526 5.22873 73.6303 5.74 74.2199C6.04438 74.4984 6.40063 74.7141 6.78841 74.8548C7.17619 74.9955 7.5879 75.0584 8 75.0399C8.80674 75.0581 9.59364 74.7887 10.22 74.2799C10.535 74.0277 10.7848 73.7034 10.9484 73.3345C11.1119 72.9656 11.1845 72.5628 11.16 72.16C11.16 70.78 10.14 69.9399 7.84 69.3599C6.85021 69.1556 5.91162 68.7543 5.08 68.1799C4.79279 67.9359 4.56708 67.6277 4.42115 67.2803C4.27521 66.9328 4.21315 66.5559 4.24 66.1799C4.23113 65.7229 4.32542 65.2698 4.51587 64.8543C4.70632 64.4388 4.98801 64.0716 5.34 63.7799C6.07263 63.1631 7.00229 62.8295 7.96 62.8399C8.78409 62.8291 9.59142 63.073 10.2716 63.5384C10.9518 64.0038 11.4716 64.6679 11.76 65.44L11.22 65.7399C10.9945 65.0501 10.5505 64.4525 9.95506 64.0375C9.35964 63.6225 8.64526 63.4127 7.92 63.4399C7.18556 63.4547 6.47888 63.7232 5.92 64.1999C5.62185 64.439 5.38348 64.7441 5.22379 65.0913C5.0641 65.4384 4.98748 65.818 5 66.1999C4.985 66.5055 5.0403 66.8105 5.16166 67.0913C5.28301 67.3722 5.46718 67.6215 5.7 67.8199C6.42047 68.2833 7.2207 68.6088 8.06 68.7799C10.6 69.4199 11.92 70.4199 11.92 72.1999C11.9063 72.68 11.784 73.1508 11.5623 73.5768C11.3406 74.0029 11.0253 74.3732 10.64 74.66ZM33.3 69.3C32.2879 70.0715 31.0296 70.4482 29.76 70.36H26.96V75.5H26.3V62.98H29.82C31.0698 62.8742 32.3133 63.2458 33.3 64.02C33.6662 64.3554 33.9586 64.7633 34.1587 65.2178C34.3587 65.6723 34.462 66.1634 34.462 66.66C34.462 67.1565 34.3587 67.6477 34.1587 68.1022C33.9586 68.5567 33.6662 68.9646 33.3 69.3ZM32.78 64.46C31.9274 63.7813 30.8452 63.4588 29.76 63.56H26.96V69.74H29.7001C30.7928 69.8257 31.8797 69.5131 32.76 68.86C33.072 68.581 33.3208 68.2386 33.4898 67.8558C33.6588 67.4729 33.7441 67.0584 33.7401 66.64C33.7461 66.229 33.6635 65.8215 33.4978 65.4453C33.3321 65.0691 33.0873 64.733 32.78 64.46ZM40.84 63.0601L46.38 75.5001H45.66L44.1 72.0001H36.84L35.28 75.5801H34.58L40.12 63.0601H40.84ZM43.82 71.3201L40.46 63.7001L37.12 71.3201H43.82ZM57.2 75.5L53.06 70.18H50V75.5H49.4V62.98H53.16C54.3914 62.8735 55.6164 63.246 56.58 64.02C56.9291 64.339 57.206 64.7288 57.3923 65.1634C57.5786 65.598 57.6698 66.0673 57.66 66.5401C57.66 68.5401 56.34 69.8401 53.84 70.1201L58 75.5H57.2ZM50 63.5601L50.08 69.5801H53C54.077 69.662 55.146 69.3413 56 68.68C56.3047 68.4172 56.5491 68.0918 56.7167 67.7259C56.8842 67.3601 56.9709 66.9624 56.9709 66.56C56.9709 66.1577 56.8842 65.76 56.7167 65.3942C56.5491 65.0283 56.3047 64.7029 56 64.4401C55.1618 63.7797 54.1028 63.4648 53.04 63.5601H50ZM67.5599 62.98L73.0599 75.5H72.3399L70.7999 72H63.5399L61.9999 75.5H61.3199L66.8399 62.98H67.5599ZM70.5199 71.32L67.1399 63.7L63.7999 71.32H70.5199ZM110.76 69.52L115.24 62.98H116L111.08 70.12V75.5H110.44V70.12L105.52 62.98H106.32L110.76 69.52ZM76.5 51.42H84.62V45.58H85.3V58.1H84.62V52H76.5V58H75.84V45.58H76.5V51.42ZM22.6 68.82V69.42H16.3V74.88H23.24V75.5H15.64V62.98H23.16V63.56H16.3V68.82H22.6ZM79.8 63.56H84V62.98H74.92V63.56H79.14V75.56H79.8V63.56ZM94 68.82V69.42H87.7V74.88H94.62V75.5H87.02V62.98H94.54V63.56H87.7V68.82H94ZM97.6801 62.98V75.5H104.58V74.88H98.34V62.98H97.6801Z" fill="black"/>
<path d="M70.84 57.28L71.0027 57.47L71.009 57.4642L70.84 57.28ZM68.1 58.2401L68.1086 57.9901L68.1017 57.9901L68.1 58.2401ZM71.6355 56.1447L71.8663 56.2407L71.6355 56.1447ZM71.88 54.78H71.6298L71.6302 54.79L71.88 54.78ZM68.04 51.36L68.1029 51.1181L68.0929 51.1155L68.0829 51.1138L68.04 51.36ZM65.68 50.4L65.5178 50.5903L65.5278 50.5989L65.5388 50.6063L65.68 50.4ZM65.1416 49.6714L65.3711 49.5723L65.1416 49.6714ZM64.98 48.78L65.2297 48.7923L65.2303 48.7803L65.2297 48.7682L64.98 48.78ZM65.1904 47.6722L65.4184 47.7748L65.1904 47.6722ZM65.88 46.78L66.0368 46.9749L66.0436 46.9691L65.88 46.78ZM68 46L67.9979 46.2501L68.0028 46.25L68 46ZM70.0195 46.642L70.1661 46.4395L70.0195 46.642ZM71.26 48.36L71.0216 48.4355L71.1166 48.7356L71.3874 48.5751L71.26 48.36ZM71.8 48.04L71.9274 48.2551L72.1074 48.1485L72.0342 47.9526L71.8 48.04ZM70.3116 46.1385L70.1704 46.3448L70.3116 46.1385ZM68 45.44L67.9967 45.19L67.9891 45.1903L68 45.44ZM65.48 46.48L65.6406 46.6719L65.6484 46.6648L65.48 46.48ZM64.6648 47.5562L64.8928 47.6588L64.6648 47.5562ZM64.4 48.88L64.6494 48.8968L64.6502 48.8849L64.6499 48.8731L64.4 48.88ZM64.5833 49.9794L64.8138 49.8826V49.8826L64.5833 49.9794ZM65.24 50.88L65.0773 51.0699L65.0888 51.0797L65.1014 51.0881L65.24 50.88ZM67.98 52.04L68.0431 51.7979L68.0329 51.7957L67.98 52.04ZM71.3 54.86H71.05V54.8674L71.0504 54.8748L71.3 54.86ZM71.0928 56.0298L71.3222 56.1293L71.0928 56.0298ZM70.38 56.98L70.5331 57.1779L70.5397 57.1724L70.38 56.98ZM68.16 57.72L68.1638 57.4697L68.1506 57.4702L68.16 57.72ZM66.907 57.5097L66.8166 57.7428L66.907 57.5097ZM65.84 56.82L65.6533 56.9864L65.6588 56.9925L65.6646 56.9982L65.84 56.82ZM64.66 54.82L64.8958 54.7371L64.799 54.462L64.5419 54.5997L64.66 54.82ZM64.1 55.12L63.9819 54.8997L63.8088 54.9924L63.8579 55.1825L64.1 55.12ZM65.5694 57.3603L65.4156 57.5574V57.5574L65.5694 57.3603ZM36.8401 57.26L36.601 57.3332L36.8361 58.1002L37.0784 57.3355L36.8401 57.26ZM33.2601 45.58L33.4991 45.5067L33.4449 45.33H33.2601V45.58ZM40.5401 45.58V45.33H40.357L40.3017 45.5045L40.5401 45.58ZM41.1601 45.58L41.3983 45.5041L41.3428 45.33H41.1601V45.58ZM44.8801 57.26L44.6418 57.3358L44.8846 58.0981L45.1191 57.3332L44.8801 57.26ZM48.4601 45.58V45.33H48.2752L48.221 45.5067L48.4601 45.58ZM49.1401 45.58L49.3787 45.6543L49.4798 45.33H49.1401V45.58ZM45.2401 58.1V58.35H45.424L45.4787 58.1743L45.2401 58.1ZM44.5001 58.1L44.2619 58.1761L44.3176 58.35H44.5001V58.1ZM40.8401 46.66L41.0782 46.5838L40.8401 45.8395L40.6019 46.5838L40.8401 46.66ZM37.1801 58.1V58.35H37.3626L37.4182 58.1761L37.1801 58.1ZM36.4401 58.1L36.2013 58.174L36.2558 58.35H36.4401V58.1ZM32.5601 45.58V45.33H32.2209L32.3213 45.654L32.5601 45.58ZM61.28 58.1L61.0511 58.2003L61.1166 58.35H61.28V58.1ZM59.7201 54.54L59.949 54.4396L59.8834 54.29H59.7201V54.54ZM62 58.1V58.35H62.3818L62.2292 58L62 58.1ZM56.5401 45.58L56.7692 45.48L56.7038 45.33H56.5401V45.58ZM55.82 45.58V45.33H55.6571L55.5913 45.4791L55.82 45.58ZM50.3 58.1L50.0713 57.9991L49.9166 58.35H50.3V58.1ZM50.98 58.1V58.35H51.1434L51.209 58.2003L50.98 58.1ZM52.5401 54.54V54.29H52.3767L52.3111 54.4396L52.5401 54.54ZM59.5401 54V54.25H59.924L59.7687 53.8988L59.5401 54ZM56.16 46.36L56.3887 46.2588L56.1587 45.739L55.931 46.2598L56.16 46.36ZM52.82 54L52.591 53.8998L52.4379 54.25H52.82V54ZM8 75.62L8.00251 75.37L8.00168 75.37L8 75.62ZM10.64 74.66L10.4907 74.4594L10.4839 74.4645L10.4775 74.47L10.64 74.66ZM5.46939 74.7402L5.62315 74.5431H5.62315L5.46939 74.7402ZM4 72.4999L3.8882 72.2763L3.70741 72.3667L3.75794 72.5624L4 72.4999ZM4.56 72.2199L4.79469 72.1338L4.69834 71.8713L4.4482 71.9963L4.56 72.2199ZM5.74 74.2199L5.55111 74.3837L5.56059 74.3947L5.57126 74.4044L5.74 74.2199ZM6.78841 74.8548L6.87368 74.6198H6.87368L6.78841 74.8548ZM8 75.0399L8.00562 74.79L7.99721 74.7898L7.9888 74.7902L8 75.0399ZM10.22 74.2799L10.0637 74.0848L10.0624 74.0859L10.22 74.2799ZM11.16 72.16H10.91V72.1676L10.9105 72.1751L11.16 72.16ZM7.84 69.3599L7.90119 69.1173L7.89056 69.1151L7.84 69.3599ZM5.08 68.1799L4.91814 68.3705L4.92765 68.3786L4.93793 68.3857L5.08 68.1799ZM4.24 66.1799L4.48936 66.1978L4.49017 66.1864L4.48995 66.1751L4.24 66.1799ZM4.51587 64.8543L4.2886 64.7501H4.2886L4.51587 64.8543ZM5.34 63.7799L5.4995 63.9725L5.50103 63.9712L5.34 63.7799ZM7.96 62.8399L7.95727 63.09L7.9633 63.0899L7.96 62.8399ZM11.76 65.44L11.8814 65.6585L12.0695 65.554L11.9942 65.3525L11.76 65.44ZM11.22 65.7399L10.9824 65.8176L11.0765 66.1056L11.3414 65.9585L11.22 65.7399ZM9.95506 64.0375L10.098 63.8324L10.098 63.8324L9.95506 64.0375ZM7.92 63.4399L7.92501 63.6899L7.92938 63.6898L7.92 63.4399ZM5.92 64.1999L6.07644 64.3951L6.08225 64.3901L5.92 64.1999ZM5 66.1999L5.2497 66.2122L5.2502 66.202L5.24987 66.1918L5 66.1999ZM5.7 67.8199L5.5378 68.0102L5.55062 68.0211L5.56478 68.0302L5.7 67.8199ZM8.06 68.7799L8.12115 68.5373L8.10996 68.535L8.06 68.7799ZM11.92 72.1999L12.17 72.2071V72.1999H11.92ZM11.5623 73.5768L11.3405 73.4614V73.4614L11.5623 73.5768ZM29.76 70.36L29.7774 70.1106L29.7687 70.11H29.76V70.36ZM33.3 69.3L33.4516 69.4988L33.4606 69.492L33.4689 69.4843L33.3 69.3ZM26.96 70.36V70.11H26.71V70.36H26.96ZM26.96 75.5V75.75H27.21V75.5H26.96ZM26.3 75.5H26.05V75.75H26.3V75.5ZM26.3 62.98V62.73H26.05V62.98H26.3ZM29.82 62.98V63.23H29.8306L29.8411 63.2291L29.82 62.98ZM33.3 64.02L33.4689 63.8356L33.4619 63.8292L33.4544 63.8233L33.3 64.02ZM34.1587 65.2178L34.3875 65.1171V65.1171L34.1587 65.2178ZM34.1587 68.1022L33.9299 68.0015V68.0015L34.1587 68.1022ZM29.76 63.56V63.81H29.7717L29.7833 63.8089L29.76 63.56ZM32.78 64.46L32.9464 64.2728L32.9357 64.2644L32.78 64.46ZM26.96 63.56V63.31H26.71V63.56H26.96ZM26.96 69.74H26.71V69.99H26.96V69.74ZM29.7001 69.74L29.7196 69.4907L29.7098 69.49H29.7001V69.74ZM32.76 68.86L32.909 69.0607L32.9182 69.0539L32.9267 69.0463L32.76 68.86ZM33.4898 67.8558L33.2611 67.7548L33.4898 67.8558ZM33.7401 66.64L33.49 66.6363L33.4901 66.6424L33.7401 66.64ZM33.4978 65.4453L33.7266 65.3445L33.4978 65.4453ZM46.38 75.5001V75.7501H46.765L46.6083 75.3984L46.38 75.5001ZM40.84 63.0601L41.0683 62.9584L41.0023 62.8101H40.84V63.0601ZM45.66 75.5001L45.4316 75.6018L45.4977 75.7501H45.66V75.5001ZM44.1 72.0001L44.3283 71.8983L44.2622 71.7501H44.1V72.0001ZM36.84 72.0001V71.7501H36.6762L36.6108 71.9002L36.84 72.0001ZM35.28 75.5801V75.8301H35.4437L35.5091 75.6799L35.28 75.5801ZM34.58 75.5801L34.3513 75.4789L34.196 75.8301H34.58V75.5801ZM40.12 63.0601V62.8101H39.9572L39.8913 62.9589L40.12 63.0601ZM40.46 63.7001L40.6887 63.5992L40.4593 63.0789L40.231 63.5997L40.46 63.7001ZM43.82 71.3201V71.5701H44.2034L44.0487 71.2192L43.82 71.3201ZM37.12 71.3201L36.891 71.2197L36.7374 71.5701H37.12V71.3201ZM53.06 70.18L53.2573 70.0265L53.1823 69.93H53.06V70.18ZM57.2 75.5L57.0027 75.6536L57.0778 75.75H57.2V75.5ZM50 70.18V69.93H49.75V70.18H50ZM50 75.5V75.75H50.25V75.5H50ZM49.4 75.5H49.15V75.75H49.4V75.5ZM49.4 62.98V62.73H49.15V62.98H49.4ZM53.16 62.98V63.23H53.1708L53.1816 63.2291L53.16 62.98ZM56.58 64.02L56.7486 63.8355L56.7428 63.8301L56.7366 63.8251L56.58 64.02ZM57.66 66.5401L57.41 66.5349V66.5401H57.66ZM53.84 70.1201L53.8122 69.8716L53.3702 69.9211L53.6423 70.273L53.84 70.1201ZM58 75.5V75.75H58.5093L58.1978 75.3471L58 75.5ZM50.08 69.5801L49.83 69.5834L49.8333 69.8301H50.08V69.5801ZM50 63.5601V63.3101H49.7467L49.75 63.5634L50 63.5601ZM53 69.5801L53.019 69.3308L53.0095 69.3301H53V69.5801ZM56 68.68L56.1533 68.878L56.1633 68.8693L56 68.68ZM56 64.4401L56.1635 64.2506L56.1547 64.2437L56 64.4401ZM53.04 63.5601V63.8101H53.0512L53.0623 63.8091L53.04 63.5601ZM73.0599 75.5V75.75H73.4428L73.2888 75.3994L73.0599 75.5ZM67.5599 62.98L67.7888 62.8794L67.7232 62.73H67.5599V62.98ZM72.3399 75.5L72.1111 75.6007L72.1768 75.75H72.3399V75.5ZM70.7999 72L71.0288 71.8993L70.9631 71.75H70.7999V72ZM63.5399 72V71.75H63.3768L63.3111 71.8993L63.5399 72ZM61.9999 75.5V75.75H62.1631L62.2288 75.6007L61.9999 75.5ZM61.3199 75.5L61.0912 75.3991L60.9365 75.75H61.3199V75.5ZM66.8399 62.98V62.73H66.6769L66.6112 62.8791L66.8399 62.98ZM67.1399 63.7L67.3685 63.5986L67.1386 63.0803L66.911 63.5996L67.1399 63.7ZM70.5199 71.32V71.57H70.9043L70.7485 71.2186L70.5199 71.32ZM63.7999 71.32L63.571 71.2196L63.4174 71.57H63.7999V71.32ZM115.24 62.98V62.73H115.108L115.034 62.8387L115.24 62.98ZM110.76 69.52L110.553 69.6604L110.759 69.9637L110.966 69.6613L110.76 69.52ZM116 62.98L116.206 63.1218L116.476 62.73H116V62.98ZM111.08 70.12L110.874 69.9781L110.83 70.0422V70.12H111.08ZM111.08 75.5V75.75H111.33V75.5H111.08ZM110.44 75.5H110.19V75.75H110.44V75.5ZM110.44 70.12H110.69V70.0422L110.646 69.9781L110.44 70.12ZM105.52 62.98V62.73H105.044L105.314 63.1218L105.52 62.98ZM106.32 62.98L106.527 62.8396L106.452 62.73H106.32V62.98ZM84.62 51.42V51.67H84.87V51.42H84.62ZM76.5 51.42H76.25V51.67H76.5V51.42ZM84.62 45.58V45.33H84.37V45.58H84.62ZM85.3 45.58H85.55V45.33H85.3V45.58ZM85.3 58.1V58.35H85.55V58.1H85.3ZM84.62 58.1H84.37V58.35H84.62V58.1ZM84.62 52H84.87V51.75H84.62V52ZM76.5 52V51.75H76.25V52H76.5ZM76.5 58V58.25H76.75V58H76.5ZM75.84 58H75.59V58.25H75.84V58ZM75.84 45.58V45.33H75.59V45.58H75.84ZM76.5 45.58H76.75V45.33H76.5V45.58ZM22.6 69.42V69.67H22.85V69.42H22.6ZM22.6 68.82H22.85V68.57H22.6V68.82ZM16.3 69.42V69.17H16.05V69.42H16.3ZM16.3 74.88H16.05V75.13H16.3V74.88ZM23.24 74.88H23.49V74.63H23.24V74.88ZM23.24 75.5V75.75H23.49V75.5H23.24ZM15.64 75.5H15.39V75.75H15.64V75.5ZM15.64 62.98V62.73H15.39V62.98H15.64ZM23.16 62.98H23.41V62.73H23.16V62.98ZM23.16 63.56V63.81H23.41V63.56H23.16ZM16.3 63.56V63.31H16.05V63.56H16.3ZM16.3 68.82H16.05V69.07H16.3V68.82ZM84 63.56V63.81H84.25V63.56H84ZM79.8 63.56V63.31H79.55V63.56H79.8ZM84 62.98H84.25V62.73H84V62.98ZM74.92 62.98V62.73H74.67V62.98H74.92ZM74.92 63.56H74.67V63.81H74.92V63.56ZM79.14 63.56H79.39V63.31H79.14V63.56ZM79.14 75.56H78.89V75.81H79.14V75.56ZM79.8 75.56V75.81H80.05V75.56H79.8ZM94 69.42V69.67H94.25V69.42H94ZM94 68.82H94.25V68.57H94V68.82ZM87.7 69.42V69.17H87.45V69.42H87.7ZM87.7 74.88H87.45V75.13H87.7V74.88ZM94.62 74.88H94.87V74.63H94.62V74.88ZM94.62 75.5V75.75H94.87V75.5H94.62ZM87.02 75.5H86.77V75.75H87.02V75.5ZM87.02 62.98V62.73H86.77V62.98H87.02ZM94.54 62.98H94.79V62.73H94.54V62.98ZM94.54 63.56V63.81H94.79V63.56H94.54ZM87.7 63.56V63.31H87.45V63.56H87.7ZM87.7 68.82H87.45V69.07H87.7V68.82ZM97.6801 75.5H97.4301V75.75H97.6801V75.5ZM97.6801 62.98V62.73H97.4301V62.98H97.6801ZM104.58 75.5V75.75H104.83V75.5H104.58ZM104.58 74.88H104.83V74.63H104.58V74.88ZM98.34 74.88H98.09V75.13H98.34V74.88ZM98.34 62.98H98.59V62.73H98.34V62.98ZM70.6773 57.0902C69.964 57.7013 69.0473 58.0225 68.1086 57.9902L68.0914 58.4899C69.1553 58.5265 70.1942 58.1625 71.0026 57.4699L70.6773 57.0902ZM71.4047 56.0487C71.239 56.4469 70.9886 56.8042 70.6709 57.0959L71.009 57.4642C71.3802 57.1235 71.6728 56.706 71.8663 56.2407L71.4047 56.0487ZM71.6302 54.79C71.6473 55.2209 71.5704 55.6504 71.4047 56.0487L71.8663 56.2407C72.0599 55.7754 72.1498 55.2736 72.1298 54.7701L71.6302 54.79ZM67.9771 51.602C69.2343 51.9287 70.1505 52.3269 70.7499 52.84C71.3365 53.3421 71.63 53.9625 71.63 54.78H72.13C72.13 53.8176 71.7735 53.058 71.0751 52.4601C70.3895 51.8732 69.3857 51.4514 68.1029 51.1181L67.9771 51.602ZM65.5388 50.6063C66.2772 51.1118 67.1155 51.4528 67.9971 51.6063L68.0829 51.1138C67.2718 50.9725 66.5005 50.6588 65.8212 50.1938L65.5388 50.6063ZM64.9121 49.7706C65.0487 50.0866 65.2559 50.367 65.5178 50.5903L65.8422 50.2098C65.6385 50.0361 65.4773 49.818 65.3711 49.5723L64.9121 49.7706ZM64.7303 48.7678C64.7134 49.1116 64.7756 49.4546 64.9121 49.7706L65.3711 49.5723C65.2649 49.3265 65.2166 49.0597 65.2297 48.7923L64.7303 48.7678ZM64.9624 47.5696C64.7899 47.9531 64.7103 48.3719 64.7303 48.7919L65.2297 48.7682C65.2135 48.4268 65.2781 48.0865 65.4184 47.7748L64.9624 47.5696ZM65.7232 46.5853C65.3957 46.8489 65.135 47.1862 64.9624 47.5696L65.4184 47.7748C65.5586 47.4632 65.7705 47.1891 66.0367 46.9748L65.7232 46.5853ZM68.002 45.7501C67.1633 45.7432 66.3507 46.0421 65.7164 46.591L66.0436 46.9691C66.5859 46.4998 67.2807 46.2442 67.9979 46.25L68.002 45.7501ZM70.1661 46.4395C69.5357 45.9831 68.7754 45.7414 67.9972 45.7501L68.0028 46.25C68.6737 46.2426 69.3294 46.451 69.8729 46.8445L70.1661 46.4395ZM71.4983 48.2846C71.2635 47.5427 70.7965 46.8958 70.1661 46.4395L69.8729 46.8445C70.4165 47.238 70.8192 47.7957 71.0216 48.4355L71.4983 48.2846ZM71.6725 47.825L71.1325 48.145L71.3874 48.5751L71.9274 48.2551L71.6725 47.825ZM70.1704 46.3448C70.8081 46.7811 71.2954 47.4037 71.5658 48.1275L72.0342 47.9526C71.7278 47.1323 71.1755 46.4266 70.4528 45.9321L70.1704 46.3448ZM68.0033 45.69C68.7759 45.6798 69.5327 45.9085 70.1704 46.3448L70.4528 45.9321C69.7301 45.4377 68.8723 45.1785 67.9967 45.1901L68.0033 45.69ZM65.6484 46.6648C66.2974 46.0732 67.1335 45.7281 68.0109 45.6898L67.9891 45.1903C66.9947 45.2337 66.0471 45.6248 65.3116 46.2953L65.6484 46.6648ZM64.8928 47.6588C65.0643 47.2776 65.32 46.9401 65.6405 46.6717L65.3195 46.2884C64.9411 46.6052 64.6393 47.0036 64.4368 47.4536L64.8928 47.6588ZM64.6499 48.8731C64.6382 48.4552 64.7212 48.04 64.8928 47.6588L64.4368 47.4536C64.2343 47.9037 64.1363 48.3937 64.1501 48.887L64.6499 48.8731ZM64.8138 49.8826C64.6831 49.5713 64.6268 49.2337 64.6494 48.8968L64.1505 48.8633C64.1227 49.2778 64.192 49.6932 64.3528 50.0762L64.8138 49.8826ZM65.4026 50.6902C65.1462 50.4705 64.9446 50.194 64.8138 49.8826L64.3528 50.0762C64.5137 50.4593 64.7618 50.7996 65.0773 51.0699L65.4026 50.6902ZM68.0329 51.7957C67.0857 51.5904 66.1853 51.2092 65.3786 50.672L65.1014 51.0881C65.9602 51.6601 66.9186 52.0658 67.927 52.2844L68.0329 51.7957ZM71.55 54.86C71.55 54.0867 71.2627 53.4613 70.6631 52.9585C70.0778 52.4676 69.2045 52.1011 68.0431 51.7981L67.9169 52.282C69.0554 52.579 69.8422 52.9225 70.3418 53.3416C70.8273 53.7488 71.05 54.2334 71.05 54.86H71.55ZM71.3222 56.1293C71.4976 55.7251 71.5755 55.2852 71.5495 54.8453L71.0504 54.8748C71.0717 55.2364 71.0077 55.5979 70.8635 55.9302L71.3222 56.1293ZM70.5397 57.1724C70.8787 56.8908 71.1467 56.5335 71.3222 56.1293L70.8635 55.9302C70.7193 56.2626 70.4989 56.5563 70.2203 56.7877L70.5397 57.1724ZM68.1562 57.97C69.0154 57.983 69.8534 57.7036 70.533 57.1778L70.227 56.7823C69.6371 57.2388 68.9096 57.4813 68.1638 57.4701L68.1562 57.97ZM66.8166 57.7428C67.2473 57.9098 67.7076 57.9871 68.1693 57.9699L68.1506 57.4702C67.7571 57.4849 67.3646 57.419 66.9974 57.2766L66.8166 57.7428ZM65.6646 56.9982C65.9939 57.3223 66.3859 57.5757 66.8166 57.7428L66.9974 57.2766C66.6302 57.1342 66.296 56.9182 66.0153 56.6419L65.6646 56.9982ZM64.4241 54.903C64.6943 55.6709 65.1118 56.3786 65.6533 56.9864L66.0266 56.6537C65.5285 56.0946 65.1443 55.4435 64.8958 54.7371L64.4241 54.903ZM64.218 55.3404L64.778 55.0404L64.5419 54.5997L63.9819 54.8997L64.218 55.3404ZM65.7231 57.1632C65.0432 56.6328 64.5576 55.8925 64.342 55.0576L63.8579 55.1825C64.101 56.1243 64.6487 56.9592 65.4156 57.5574L65.7231 57.1632ZM68.1017 57.9901C67.2393 57.9843 66.4031 57.6936 65.7231 57.1632L65.4156 57.5574C66.1825 58.1556 67.1257 58.4835 68.0983 58.49L68.1017 57.9901ZM37.0791 57.1867L33.4991 45.5067L33.021 45.6532L36.601 57.3332L37.0791 57.1867ZM40.3017 45.5045L36.6017 57.1845L37.0784 57.3355L40.7784 45.6555L40.3017 45.5045ZM41.1601 45.33H40.5401V45.83H41.1601V45.33ZM45.1183 57.1841L41.3983 45.5041L40.9218 45.6558L44.6418 57.3358L45.1183 57.1841ZM48.221 45.5067L44.641 57.1867L45.1191 57.3332L48.6991 45.6532L48.221 45.5067ZM49.1401 45.33H48.4601V45.83H49.1401V45.33ZM45.4787 58.1743L49.3787 45.6543L48.9014 45.5056L45.0014 58.0256L45.4787 58.1743ZM44.5001 58.35H45.2401V57.85H44.5001V58.35ZM40.6019 46.7361L44.2619 58.1761L44.7382 58.0238L41.0782 46.5838L40.6019 46.7361ZM37.4182 58.1761L41.0782 46.7361L40.6019 46.5838L36.9419 58.0238L37.4182 58.1761ZM36.4401 58.35H37.1801V57.85H36.4401V58.35ZM32.3213 45.654L36.2013 58.174L36.6789 58.0259L32.7989 45.506L32.3213 45.654ZM33.2601 45.33H32.5601V45.83H33.2601V45.33ZM61.509 57.9996L59.949 54.4396L59.4911 54.6403L61.0511 58.2003L61.509 57.9996ZM61.28 58.35H62V57.85H61.28V58.35ZM56.3109 45.6799L61.7709 58.1999L62.2292 58L56.7692 45.48L56.3109 45.6799ZM56.5401 45.33H55.82V45.83H56.5401V45.33ZM50.5288 58.2008L56.0488 45.6808L55.5913 45.4791L50.0713 57.9991L50.5288 58.2008ZM50.3 58.35H50.98V57.85H50.3V58.35ZM52.3111 54.4396L50.7511 57.9996L51.209 58.2003L52.769 54.6403L52.3111 54.4396ZM52.5401 54.79H59.7201V54.29H52.5401V54.79ZM59.7687 53.8988L56.3887 46.2588L55.9314 46.4611L59.3114 54.1011L59.7687 53.8988ZM59.5401 53.75H52.82V54.25H59.5401V53.75ZM55.931 46.2598L52.591 53.8998L53.0491 54.1001L56.3891 46.4601L55.931 46.2598ZM7.99749 75.8699C9.02506 75.8802 10.0216 75.5179 10.8025 74.8499L10.4775 74.47C9.78844 75.0593 8.90918 75.379 8.0025 75.37L7.99749 75.8699ZM5.31564 74.9373C6.08255 75.5355 7.02572 75.8634 7.99832 75.8699L8.00168 75.37C7.13935 75.3642 6.30312 75.0735 5.62315 74.5431L5.31564 74.9373ZM3.75794 72.5624C4.00107 73.5042 4.54872 74.3391 5.31564 74.9373L5.62315 74.5431C4.94319 74.0127 4.45763 73.2724 4.24206 72.4375L3.75794 72.5624ZM4.4482 71.9963L3.8882 72.2763L4.1118 72.7236L4.6718 72.4436L4.4482 71.9963ZM5.92888 74.0562C5.43746 73.4894 5.05315 72.838 4.79469 72.1338L4.32531 72.3061C4.60464 73.0672 5.02 73.7712 5.55111 74.3837L5.92888 74.0562ZM6.87368 74.6198C6.51678 74.4903 6.18888 74.2918 5.90874 74.0355L5.57126 74.4044C5.89987 74.705 6.28449 74.9379 6.70314 75.0898L6.87368 74.6198ZM7.9888 74.7902C7.60951 74.8072 7.23059 74.7493 6.87368 74.6198L6.70314 75.0898C7.1218 75.2417 7.56628 75.3096 8.0112 75.2897L7.9888 74.7902ZM10.0624 74.0859C9.48207 74.5572 8.75304 74.8068 8.00562 74.79L7.99438 75.2899C8.86044 75.3094 9.7052 75.0202 10.3776 74.474L10.0624 74.0859ZM10.7198 73.2332C10.5725 73.5655 10.3475 73.8576 10.0637 74.0848L10.3763 74.4751C10.7225 74.1978 10.9971 73.8414 11.1769 73.4358L10.7198 73.2332ZM10.9105 72.1751C10.9325 72.538 10.8672 72.9008 10.7198 73.2332L11.1769 73.4358C11.3567 73.0303 11.4365 72.5875 11.4095 72.1448L10.9105 72.1751ZM7.77887 69.6024C8.91602 69.8891 9.70249 70.2327 10.2018 70.6515C10.6878 71.0591 10.91 71.544 10.91 72.16H11.41C11.41 71.3959 11.1222 70.7708 10.5232 70.2684C9.93751 69.7772 9.06398 69.4108 7.90113 69.1175L7.77887 69.6024ZM4.93793 68.3857C5.79712 68.979 6.76684 69.3936 7.78944 69.6048L7.89056 69.1151C6.93359 68.9175 6.02611 68.5295 5.22207 67.9742L4.93793 68.3857ZM4.19065 67.3771C4.35179 67.7607 4.60101 68.1011 4.91814 68.3705L5.24186 67.9894C4.98457 67.7708 4.78237 67.4947 4.65164 67.1835L4.19065 67.3771ZM3.99063 66.1621C3.96099 66.5772 4.02951 66.9934 4.19065 67.3771L4.65164 67.1835C4.52091 66.8722 4.46532 66.5345 4.48936 66.1978L3.99063 66.1621ZM4.2886 64.7501C4.08249 65.1998 3.98044 65.6902 3.99005 66.1848L4.48995 66.1751C4.48181 65.7557 4.56835 65.3398 4.74314 64.9585L4.2886 64.7501ZM5.18051 63.5874C4.79958 63.903 4.49471 64.3004 4.2886 64.7501L4.74314 64.9585C4.91792 64.5771 5.17645 64.2401 5.49949 63.9725L5.18051 63.5874ZM7.96272 62.59C6.94516 62.5789 5.9574 62.9333 5.17897 63.5887L5.50103 63.9712C6.18787 63.3928 7.05943 63.0801 7.95728 63.0899L7.96272 62.59ZM10.4128 63.332C9.69008 62.8376 8.83229 62.5784 7.9567 62.59L7.9633 63.0899C8.73589 63.0797 9.49276 63.3084 10.1304 63.7447L10.4128 63.332ZM11.9942 65.3525C11.6878 64.5322 11.1355 63.8265 10.4128 63.332L10.1304 63.7447C10.7681 64.181 11.2554 64.8036 11.5258 65.5274L11.9942 65.3525ZM11.3414 65.9585L11.8814 65.6585L11.6386 65.2214L11.0986 65.5214L11.3414 65.9585ZM9.81211 64.2426C10.363 64.6265 10.7738 65.1794 10.9824 65.8176L11.4576 65.6623C11.2153 64.9208 10.738 64.2784 10.098 63.8324L9.81211 64.2426ZM7.92938 63.6898C8.60035 63.6646 9.26126 63.8586 9.81211 64.2426L10.098 63.8324C9.45803 63.3863 8.69017 63.1609 7.91062 63.1901L7.92938 63.6898ZM6.08225 64.3901C6.59718 63.9509 7.24831 63.7035 7.92501 63.6899L7.91499 63.19C7.12281 63.2059 6.36057 63.4955 5.75776 64.0097L6.08225 64.3901ZM5.45092 65.1958C5.59438 64.8839 5.80852 64.6097 6.07637 64.395L5.76363 64.0049C5.43518 64.2682 5.17259 64.6044 4.99667 64.9868L5.45092 65.1958ZM5.24987 66.1918C5.23862 65.8486 5.30745 65.5076 5.45092 65.1958L4.99667 64.9868C4.82075 65.3693 4.73634 65.7874 4.75013 66.2081L5.24987 66.1918ZM5.39115 66.9922C5.28496 66.7464 5.23657 66.4796 5.2497 66.2122L4.7503 66.1877C4.73342 66.5315 4.79564 66.8745 4.93216 67.1905L5.39115 66.9922ZM5.8622 67.6297C5.65849 67.456 5.49734 67.2379 5.39115 66.9922L4.93216 67.1905C5.06869 67.5065 5.27588 67.7869 5.5378 68.0102L5.8622 67.6297ZM8.10996 68.535C7.30098 68.37 6.52966 68.0562 5.83522 67.6097L5.56478 68.0302C6.31128 68.5103 7.14042 68.8475 8.01004 69.0249L8.10996 68.535ZM12.17 72.1999C12.17 71.2367 11.8079 70.4722 11.1048 69.8723C10.414 69.2828 9.40501 68.861 8.12108 68.5375L7.99892 69.0224C9.25499 69.3389 10.176 69.7371 10.7802 70.2526C11.3721 70.7577 11.67 71.3832 11.67 72.1999H12.17ZM11.784 73.6922C12.0232 73.2327 12.1551 72.7249 12.1699 72.2071L11.6701 72.1928C11.6574 72.6351 11.5448 73.0689 11.3405 73.4614L11.784 73.6922ZM10.7893 74.8605C11.2048 74.5512 11.5449 74.1518 11.784 73.6922L11.3405 73.4614C11.1362 73.854 10.8457 74.1952 10.4907 74.4594L10.7893 74.8605ZM29.7427 70.6094C31.0729 70.7018 32.3912 70.3071 33.4516 69.4988L33.1485 69.1011C32.1847 69.8358 30.9864 70.1946 29.7774 70.1106L29.7427 70.6094ZM29.76 70.11H26.96V70.61H29.76V70.11ZM26.71 70.36V75.5H27.21V70.36H26.71ZM26.96 75.25H26.3V75.75H26.96V75.25ZM26.55 75.5V62.98H26.05V75.5H26.55ZM26.3 63.23H29.82V62.73H26.3V63.23ZM33.4544 63.8233C32.4178 63.0101 31.1117 62.6197 29.799 62.7309L29.8411 63.2291C31.0279 63.1286 32.2087 63.4815 33.1457 64.2167L33.4544 63.8233ZM34.3875 65.1171C34.1735 64.6308 33.8607 64.1944 33.4689 63.8356L33.1312 64.2043C33.4718 64.5163 33.7438 64.8957 33.9299 65.3185L34.3875 65.1171ZM34.712 66.66C34.712 66.1287 34.6015 65.6033 34.3875 65.1171L33.9299 65.3185C34.1159 65.7412 34.212 66.1981 34.212 66.66H34.712ZM34.3875 68.2029C34.6015 67.7167 34.712 67.1912 34.712 66.66H34.212C34.212 67.1219 34.1159 67.5787 33.9299 68.0015L34.3875 68.2029ZM33.4689 69.4843C33.8607 69.1255 34.1735 68.6891 34.3875 68.2029L33.9299 68.0015C33.7438 68.4242 33.4718 68.8036 33.1312 69.1156L33.4689 69.4843ZM29.7833 63.8089C30.8041 63.7137 31.8222 64.0171 32.6244 64.6556L32.9357 64.2644C32.0325 63.5455 30.8862 63.2038 29.7368 63.311L29.7833 63.8089ZM29.76 63.31H26.96V63.81H29.76V63.31ZM26.71 63.56V69.74H27.21V63.56H26.71ZM26.96 69.99H29.7001V69.49H26.96V69.99ZM32.6111 68.6592C31.7792 69.2763 30.7522 69.5717 29.7196 69.4907L29.6805 69.9892C30.8335 70.0796 31.9802 69.7498 32.909 69.0607L32.6111 68.6592ZM33.2611 67.7548C33.1064 68.1051 32.8788 68.4184 32.5934 68.6736L32.9267 69.0463C33.2652 68.7436 33.5351 68.3722 33.7185 67.9568L33.2611 67.7548ZM33.4901 66.6424C33.4938 67.0253 33.4157 67.4045 33.2611 67.7548L33.7185 67.9568C33.9019 67.5414 33.9944 67.0916 33.99 66.6375L33.4901 66.6424ZM33.269 65.546C33.4202 65.8893 33.4956 66.2612 33.4901 66.6363L33.99 66.6436C33.9966 66.1967 33.9067 65.7536 33.7266 65.3445L33.269 65.546ZM32.614 64.6468C32.8944 64.896 33.1178 65.2027 33.269 65.546L33.7266 65.3445C33.5465 64.9354 33.2802 64.57 32.9461 64.2731L32.614 64.6468ZM46.6083 75.3984L41.0683 62.9584L40.6116 63.1618L46.1516 75.6018L46.6083 75.3984ZM45.66 75.7501H46.38V75.2501H45.66V75.7501ZM43.8716 72.1018L45.4316 75.6018L45.8883 75.3983L44.3283 71.8983L43.8716 72.1018ZM36.84 72.2501H44.1V71.7501H36.84V72.2501ZM35.5091 75.6799L37.0691 72.0999L36.6108 71.9002L35.0508 75.4802L35.5091 75.6799ZM34.58 75.8301H35.28V75.3301H34.58V75.8301ZM39.8913 62.9589L34.3513 75.4789L34.8086 75.6812L40.3486 63.1612L39.8913 62.9589ZM40.84 62.8101H40.12V63.3101H40.84V62.8101ZM40.2312 63.8009L43.5912 71.4209L44.0487 71.2192L40.6887 63.5992L40.2312 63.8009ZM37.3489 71.4204L40.6889 63.8004L40.231 63.5997L36.891 71.2197L37.3489 71.4204ZM43.82 71.0701H37.12V71.5701H43.82V71.0701ZM52.8627 70.3336L57.0027 75.6536L57.3973 75.3465L53.2573 70.0265L52.8627 70.3336ZM53.06 69.93H50V70.43H53.06V69.93ZM49.75 70.18V75.5H50.25V70.18H49.75ZM50 75.25H49.4V75.75H50V75.25ZM49.65 75.5V62.98H49.15V75.5H49.65ZM49.4 63.23H53.16V62.73H49.4V63.23ZM56.7366 63.8251C55.7228 63.0108 54.434 62.6188 53.1385 62.731L53.1816 63.2291C54.3488 63.1281 55.5101 63.4812 56.4235 64.2149L56.7366 63.8251ZM57.6221 65.0649C57.4218 64.5976 57.124 64.1784 56.7486 63.8355L56.4114 64.2046C56.7342 64.4995 56.9903 64.86 57.1625 65.2618L57.6221 65.0649ZM57.91 66.5452C57.9205 66.0369 57.8224 65.5322 57.6221 65.0649L57.1625 65.2618C57.3347 65.6637 57.4191 66.0977 57.4101 66.5349L57.91 66.5452ZM53.8678 70.3685C55.1529 70.2246 56.1657 69.8152 56.8597 69.1564C57.5584 68.493 57.91 67.5991 57.91 66.5401H57.41C57.41 67.481 57.1017 68.2371 56.5154 68.7937C55.9243 69.3549 55.0271 69.7355 53.8122 69.8716L53.8678 70.3685ZM58.1978 75.3471L54.0378 69.9671L53.6423 70.273L57.8022 75.653L58.1978 75.3471ZM58 75.25H57.2V75.75H58V75.25ZM50.33 69.5767L50.25 63.5567L49.75 63.5634L49.83 69.5834L50.33 69.5767ZM50.08 69.8301H53V69.3301H50.08V69.8301ZM55.847 68.4824C55.0419 69.1057 54.0342 69.408 53.019 69.3308L52.9811 69.8293C54.1198 69.916 55.2501 69.5769 56.1531 68.8777L55.847 68.4824ZM56.4894 67.6218C56.3368 67.955 56.1142 68.2514 55.8367 68.4908L56.1633 68.8693C56.4952 68.583 56.7614 68.2285 56.944 67.83L56.4894 67.6218ZM56.7209 66.56C56.7209 66.9265 56.6419 67.2887 56.4894 67.6218L56.944 67.83C57.1265 67.4315 57.2209 66.9984 57.2209 66.56H56.7209ZM56.4894 65.4983C56.6419 65.8314 56.7209 66.1936 56.7209 66.56H57.2209C57.2209 66.1217 57.1265 65.6886 56.944 65.2901L56.4894 65.4983ZM55.8367 64.6293C56.1142 64.8687 56.3368 65.1651 56.4894 65.4983L56.944 65.2901C56.7614 64.8916 56.4952 64.5371 56.1633 64.2508L55.8367 64.6293ZM53.0623 63.8091C54.0616 63.7195 55.0573 64.0155 55.8453 64.6364L56.1547 64.2437C55.2664 63.5438 54.1441 63.2101 53.0177 63.311L53.0623 63.8091ZM53.04 63.3101H50V63.8101H53.04V63.3101ZM73.2888 75.3994L67.7888 62.8794L67.3311 63.0805L72.8311 75.6005L73.2888 75.3994ZM72.3399 75.75H73.0599V75.25H72.3399V75.75ZM70.5711 72.1007L72.1111 75.6007L72.5688 75.3993L71.0288 71.8993L70.5711 72.1007ZM63.5399 72.25H70.7999V71.75H63.5399V72.25ZM62.2288 75.6007L63.7688 72.1007L63.3111 71.8993L61.7711 75.3993L62.2288 75.6007ZM61.3199 75.75H61.9999V75.25H61.3199V75.75ZM66.6112 62.8791L61.0912 75.3991L61.5487 75.6008L67.0687 63.0808L66.6112 62.8791ZM67.5599 62.73H66.8399V63.23H67.5599V62.73ZM66.9114 63.8013L70.2914 71.4213L70.7485 71.2186L67.3685 63.5986L66.9114 63.8013ZM64.0289 71.4203L67.3689 63.8003L66.911 63.5996L63.571 71.2196L64.0289 71.4203ZM70.5199 71.07H63.7999V71.57H70.5199V71.07ZM115.034 62.8387L110.554 69.3787L110.966 69.6613L115.446 63.1213L115.034 62.8387ZM116 62.73H115.24V63.23H116V62.73ZM111.286 70.2618L116.206 63.1218L115.794 62.8381L110.874 69.9781L111.286 70.2618ZM111.33 75.5V70.12H110.83V75.5H111.33ZM110.44 75.75H111.08V75.25H110.44V75.75ZM110.19 70.12V75.5H110.69V70.12H110.19ZM105.314 63.1218L110.234 70.2618L110.646 69.9781L105.726 62.8381L105.314 63.1218ZM106.32 62.73H105.52V63.23H106.32V62.73ZM110.967 69.3796L106.527 62.8396L106.113 63.1204L110.553 69.6604L110.967 69.3796ZM84.62 51.17H76.5V51.67H84.62V51.17ZM84.37 45.58V51.42H84.87V45.58H84.37ZM85.3 45.33H84.62V45.83H85.3V45.33ZM85.55 58.1V45.58H85.05V58.1H85.55ZM84.62 58.35H85.3V57.85H84.62V58.35ZM84.37 52V58.1H84.87V52H84.37ZM76.5 52.25H84.62V51.75H76.5V52.25ZM76.75 58V52H76.25V58H76.75ZM75.84 58.25H76.5V57.75H75.84V58.25ZM75.59 45.58V58H76.09V45.58H75.59ZM76.5 45.33H75.84V45.83H76.5V45.33ZM76.75 51.42V45.58H76.25V51.42H76.75ZM22.85 69.42V68.82H22.35V69.42H22.85ZM16.3 69.67H22.6V69.17H16.3V69.67ZM16.55 74.88V69.42H16.05V74.88H16.55ZM23.24 74.63H16.3V75.13H23.24V74.63ZM23.49 75.5V74.88H22.99V75.5H23.49ZM15.64 75.75H23.24V75.25H15.64V75.75ZM15.39 62.98V75.5H15.89V62.98H15.39ZM23.16 62.73H15.64V63.23H23.16V62.73ZM23.41 63.56V62.98H22.91V63.56H23.41ZM16.3 63.81H23.16V63.31H16.3V63.81ZM16.55 68.82V63.56H16.05V68.82H16.55ZM22.6 68.57H16.3V69.07H22.6V68.57ZM84 63.31H79.8V63.81H84V63.31ZM83.75 62.98V63.56H84.25V62.98H83.75ZM74.92 63.23H84V62.73H74.92V63.23ZM75.17 63.56V62.98H74.67V63.56H75.17ZM79.14 63.31H74.92V63.81H79.14V63.31ZM79.39 75.56V63.56H78.89V75.56H79.39ZM79.8 75.31H79.14V75.81H79.8V75.31ZM79.55 63.56V75.56H80.05V63.56H79.55ZM94.25 69.42V68.82H93.75V69.42H94.25ZM87.7 69.67H94V69.17H87.7V69.67ZM87.95 74.88V69.42H87.45V74.88H87.95ZM94.62 74.63H87.7V75.13H94.62V74.63ZM94.87 75.5V74.88H94.37V75.5H94.87ZM87.02 75.75H94.62V75.25H87.02V75.75ZM86.77 62.98V75.5H87.27V62.98H86.77ZM94.54 62.73H87.02V63.23H94.54V62.73ZM94.79 63.56V62.98H94.29V63.56H94.79ZM87.7 63.81H94.54V63.31H87.7V63.81ZM87.95 68.82V63.56H87.45V68.82H87.95ZM94 68.57H87.7V69.07H94V68.57ZM97.9301 75.5V62.98H97.4301V75.5H97.9301ZM104.58 75.25H97.6801V75.75H104.58V75.25ZM104.33 74.88V75.5H104.83V74.88H104.33ZM98.34 75.13H104.58V74.63H98.34V75.13ZM98.09 62.98V74.88H98.59V62.98H98.09ZM97.6801 63.23H98.34V62.73H97.6801V63.23Z" fill="black"/>
</svg>
