<svg width="120" height="120" viewBox="0 0 120 120" fill="none" xmlns="http://www.w3.org/2000/svg">
<path fill-rule="evenodd" clip-rule="evenodd" d="M51.254 64.5361C49.4602 64.5361 48 63.0562 48 61.2368C48 61.1699 48.0029 61.1012 48.007 61.0207L48.0064 40.266C48.0064 39.598 48.0555 38.9415 48.1502 38.3H24.2165L29.1541 97.399H91.2021L96.1397 38.3H73.8561C73.9509 38.9415 74 39.598 74 40.266V55.0084C74 56.0862 73.1349 56.9633 72.0719 56.9633C70.9866 56.9633 69.9423 56.5665 69.1239 55.8683V66.2287C69.1239 68.0481 67.6637 69.528 65.8699 69.528C65.2817 69.528 64.7192 69.3711 64.2263 69.0768C64.0417 70.7196 62.6621 72 60.9933 72C59.3268 72 57.9484 70.7232 57.7609 69.0839C57.2708 69.3735 56.713 69.528 56.1301 69.528C54.3363 69.528 52.8761 68.0481 52.8761 66.2287C52.8761 66.1618 52.8784 66.0925 52.8842 66.012L52.8837 64.0932C52.3942 64.3822 51.8369 64.5361 51.254 64.5361ZM73.518 36.7H96.2734L97.5016 22L99.096 22.1332L92.674 98.999H27.6822L21.2603 22.1332L22.8547 22L24.0828 36.7H48.488C49.14 34.3421 50.4218 32.2497 52.136 30.6216C52.1436 30.6134 52.1507 30.6048 52.1579 30.5962C52.1683 30.5836 52.1788 30.571 52.1909 30.5594C52.4152 30.3474 52.6483 30.1484 52.8842 29.9547L52.8696 18.6029C52.8696 18.2783 53.2207 18.0118 53.657 18.0006H53.6599C53.6642 18.0006 53.6684 18.0004 53.6726 18.0003C53.677 18.0002 53.6815 18 53.6862 18L53.7288 18.0006C54.1652 18.0124 54.5156 18.2783 54.5156 18.6029L54.5145 28.8159C55.1675 28.4315 55.8515 28.1016 56.5681 27.8369C56.6628 27.8014 56.7597 27.7848 56.8555 27.7848C57.1972 27.7848 57.5185 27.9986 57.6423 28.3427C57.8018 28.7833 57.5781 29.2719 57.1435 29.4324C55.727 29.9571 54.4444 30.7542 53.334 31.8031C53.2791 31.8546 53.2178 31.8943 53.1541 31.928C50.9906 34.0328 49.6378 36.9898 49.6378 40.266L49.6384 61.1113C49.6343 61.1569 49.6326 61.1966 49.6326 61.2362C49.6326 62.1435 50.3603 62.8815 51.2546 62.8815C52.1494 62.8815 52.8766 62.1435 52.8766 61.2362C52.8766 61.196 52.8743 61.1569 52.872 61.1178L52.8702 61.0793L52.8696 49.9182C52.8696 49.4722 53.2207 49.1068 53.657 49.0914H53.6599H53.6862L53.7288 49.092C54.1652 49.1074 54.5156 49.4728 54.5156 49.9188L54.5145 66.1038C54.5104 66.1511 54.5086 66.1896 54.5086 66.2287C54.5086 67.136 55.2364 67.8739 56.1307 67.8739C56.9683 67.8739 57.6756 67.2148 57.7469 66.3709V51.3004C57.7469 50.8438 58.1125 50.4731 58.5623 50.4731C59.012 50.4731 59.3783 50.8438 59.3783 51.3004V66.0416C59.3823 66.0943 59.3847 66.163 59.3847 66.2287C59.3847 66.3004 59.3818 66.3715 59.3771 66.4419L59.3783 68.558L59.3765 68.5757C59.3736 68.6213 59.3712 68.661 59.3712 68.7013C59.3712 69.608 60.0984 70.3459 60.9933 70.3459C61.8881 70.3459 62.6159 69.608 62.6159 68.7013C62.6159 68.6622 62.6136 68.6237 62.6112 68.5858L62.6095 68.5396V51.3004C62.6095 50.8468 62.971 50.4778 63.4173 50.4731L63.4331 50.4707L63.4588 50.4731C63.9027 50.4802 64.2613 50.8486 64.2613 51.3004L64.2596 66.0315C64.2508 66.1132 64.2479 66.1713 64.2479 66.2287C64.2479 67.136 64.9757 67.8739 65.8705 67.8739C66.7648 67.8739 67.4926 67.136 67.4926 66.2287V46.6822C63.3186 46.2647 60.1043 42.7042 60.1043 38.4041C60.1043 37.9486 60.4699 37.5773 60.9197 37.5773C61.3694 37.5773 61.7357 37.948 61.7357 38.4041C61.7357 42.0788 64.6842 45.0684 68.3085 45.0684C68.7583 45.0684 69.1239 45.4397 69.1239 45.8957V52.3202C69.1239 53.9684 70.4463 55.3092 72.0719 55.3092C72.2354 55.3092 72.3686 55.1748 72.3686 55.009L72.3709 52.2705V40.2666C72.3709 36.8583 70.9084 33.7947 68.5918 31.6787C68.5317 31.6485 68.4744 31.6118 68.4219 31.565C67.5895 30.8271 66.6661 30.226 65.6702 29.767C65.6205 29.7516 65.5913 29.7445 65.5913 29.7445L65.5948 29.7326C65.3536 29.6237 65.1088 29.52 64.8594 29.4282C64.4243 29.2671 64.2 28.7797 64.3583 28.3391C64.4821 27.9945 64.8034 27.7801 65.1456 27.7801C65.2409 27.7801 65.3378 27.7966 65.4324 27.8316C66.1497 28.0957 66.8366 28.4238 67.4914 28.8088L67.4785 18.6029C67.4785 18.2783 67.829 18.0118 68.2653 18.0006H68.2682C68.2726 18.0006 68.277 18.0004 68.2814 18.0003C68.2858 18.0001 68.2901 18 68.2945 18L68.3377 18.0006C68.7735 18.0124 69.1239 18.2783 69.1239 18.6029L69.1228 29.9447C69.2583 30.0554 69.3926 30.1685 69.5246 30.2852C69.5679 30.3237 69.6064 30.3657 69.6403 30.4107C71.4693 32.067 72.837 34.2388 73.518 36.7ZM60.6242 77.8339C60.6242 77.5386 60.3849 77.2993 60.0897 77.2993C59.7945 77.2993 59.5551 77.5386 59.5551 77.8339V78.6814L58.8638 77.9903C58.6551 77.7815 58.3166 77.7816 58.1079 77.9903C57.8992 78.1991 57.8992 78.5376 58.108 78.7463L59.5551 80.1932V84.9003L56.3994 83.0787L56.1481 81.2913C56.107 80.999 55.8367 80.7953 55.5443 80.8364C55.2519 80.8775 55.0482 81.1478 55.0893 81.4401L55.2243 82.4005L54.107 81.7555C53.8513 81.6079 53.5243 81.6955 53.3767 81.9512C53.2291 82.2068 53.3167 82.5337 53.5723 82.6813L54.5783 83.262L53.6139 83.3975C53.3216 83.4386 53.1178 83.7088 53.1589 84.0011C53.2 84.2935 53.4703 84.4971 53.7627 84.456L56.0007 84.1416L56.0088 84.1405C56.0194 84.139 56.0299 84.1372 56.0402 84.1351C56.0524 84.1327 56.0644 84.1298 56.0762 84.1266L59.0202 85.8259L56.1381 87.4895C56.0976 87.4728 56.0542 87.4609 56.0088 87.4545L56.0006 87.4534L53.7627 87.1389C53.4703 87.0978 53.2 87.3015 53.1589 87.5938C53.1178 87.8861 53.3216 88.1564 53.6139 88.1975L54.6575 88.3441L53.5723 88.9706C53.3166 89.1181 53.229 89.445 53.3766 89.7007C53.5243 89.9563 53.8512 90.0439 54.1069 89.8963L55.2156 89.2564L55.0893 90.1549C55.0482 90.4472 55.2519 90.7174 55.5443 90.7585C55.8367 90.7996 56.107 90.596 56.1481 90.3037L56.3907 88.5781L59.5551 86.7515V89.9054L58.108 91.3522C57.8992 91.5609 57.8992 91.8994 58.1079 92.1082C58.3166 92.3169 58.6551 92.317 58.8638 92.1083L59.5551 91.4171V92.2648C59.5551 92.56 59.7945 92.7993 60.0897 92.7993C60.3849 92.7993 60.6242 92.56 60.6242 92.2648V91.4171L61.3156 92.1083C61.5243 92.317 61.8628 92.3169 62.0715 92.1082C62.2802 91.8994 62.2802 91.5609 62.0714 91.3522L60.6242 89.9053V86.7518L63.7493 88.5556L64.2928 90.5837C64.3692 90.8688 64.6624 91.038 64.9476 90.9616C65.2327 90.8851 65.402 90.592 65.3256 90.3069L65.0588 89.3115L66.0727 89.8967C66.3283 90.0443 66.6553 89.9567 66.8029 89.7011C66.9506 89.4454 66.863 89.1185 66.6073 88.9709L65.6589 88.4235L66.5513 88.1845C66.8365 88.1081 67.0058 87.815 66.9294 87.5299C66.853 87.2447 66.5599 87.0755 66.2747 87.1519L64.3494 87.6677L61.1587 85.8259L64.4167 83.9453L66.2747 84.443C66.5599 84.5194 66.853 84.3502 66.9294 84.0651C67.0058 83.78 66.8365 83.4869 66.5513 83.4105L65.7262 83.1894L66.6072 82.6809C66.8629 82.5333 66.9505 82.2064 66.8029 81.9508C66.6552 81.6951 66.3283 81.6075 66.0726 81.7551L65.0408 82.3507L65.3256 81.2881C65.402 81.0029 65.2327 80.7098 64.9476 80.6334C64.6624 80.557 64.3692 80.7262 64.2928 81.0113L63.7313 83.1066L60.6242 84.9V80.1932L62.0714 78.7463C62.2802 78.5376 62.2802 78.1991 62.0715 77.9903C61.8628 77.7816 61.5243 77.7815 61.3156 77.9903L60.6242 78.6814V77.8339Z" fill="black"/>
</svg>
