<svg width="120" height="120" viewBox="0 0 120 120" fill="none" xmlns="http://www.w3.org/2000/svg">
<path fill-rule="evenodd" clip-rule="evenodd" d="M27.261 93.9059L22.0137 31.0993C24.8025 30.9065 26.3685 29.945 27.8439 29.0383L27.8479 29.0358C29.4044 28.0793 30.8509 27.1903 33.8541 27.1903C36.8595 27.1903 38.3237 28.0807 39.8992 29.0387L39.9018 29.0403C41.5669 30.0528 43.3459 31.1341 46.8025 31.1341C50.2594 31.1341 52.0329 30.0525 53.6928 29.0396L53.6958 29.0378C55.2651 28.0802 56.7233 27.1903 59.728 27.1903C62.7288 27.1903 64.1754 28.0777 65.7338 29.0338L65.7416 29.0386C67.3945 30.0526 69.1624 31.1341 72.6308 31.1341C76.0987 31.1341 77.8721 30.0529 79.5302 29.0393L79.5376 29.0348C81.1024 28.0782 82.5549 27.1903 85.5563 27.1903C88.561 27.1903 90.0193 28.0802 91.5885 29.0378L91.5916 29.0396C93.0763 29.9457 94.6521 30.9067 97.4424 31.0993L92.195 93.9059H27.261ZM20.6686 15L21.8743 29.4308C24.2672 29.271 25.5658 28.473 26.9556 27.6188L26.9672 27.6117C28.6178 26.5973 30.3857 25.5159 33.8541 25.5159C37.3212 25.5159 39.1056 26.5964 40.7718 27.6097L40.7822 27.616C42.3559 28.5729 43.8141 29.4597 46.8025 29.4597C49.7901 29.4597 51.2424 28.5734 52.8098 27.6169L52.8206 27.6103C54.4816 26.5967 56.2605 25.5159 59.728 25.5159C63.1964 25.5159 64.9643 26.5974 66.6172 27.6114L66.625 27.6162C68.1834 28.5722 69.63 29.4597 72.6308 29.4597C75.6323 29.4597 77.0847 28.5718 78.6495 27.6152L78.6569 27.6107C80.315 26.5971 82.0884 25.5159 85.5563 25.5159C89.0239 25.5159 90.8028 26.5967 92.4638 27.6103L92.4745 27.6169C93.8758 28.472 95.1852 29.271 97.5818 29.4308L98.7874 15L100.456 15.1394L93.7354 95.5804H25.7207L19 15.1394L20.6686 15ZM86.7509 98.7208H33.3788V100.814H86.7509V98.7208ZM33.3788 102.907H86.7509V105H33.3788V102.907ZM78.8543 49.6606C79.0497 50.0234 79.2032 50.4211 79.3148 50.8536H81.9311C81.8473 50.0443 81.6311 49.3257 81.2822 48.6978C80.9334 48.0699 80.4729 47.5397 79.9008 47.1071C79.3427 46.6606 78.6939 46.3257 77.9543 46.1025C77.2148 45.8653 76.4264 45.7467 75.5892 45.7467C74.4729 45.7467 73.4683 45.956 72.5753 46.3746C71.6962 46.7932 70.9497 47.3583 70.3357 48.0699C69.7218 48.7815 69.2473 49.6118 68.9125 50.5606C68.5915 51.5094 68.4311 52.5141 68.4311 53.5746C68.4311 54.649 68.5915 55.6606 68.9125 56.6094C69.2473 57.5583 69.7218 58.3885 70.3357 59.1001C70.9497 59.8118 71.6962 60.3769 72.5753 60.7955C73.4683 61.2001 74.4729 61.4025 75.5892 61.4025C76.4962 61.4025 77.3264 61.256 78.0799 60.9629C78.8334 60.6699 79.4892 60.2583 80.0473 59.7281C80.6055 59.1839 81.045 58.542 81.366 57.8025C81.7008 57.0629 81.8962 56.2467 81.952 55.3536H79.3985C79.3427 55.8978 79.2241 56.4071 79.0427 56.8815C78.8613 57.356 78.6101 57.7746 78.2892 58.1374C77.9683 58.4862 77.5846 58.7653 77.138 58.9746C76.6915 59.1699 76.1753 59.2676 75.5892 59.2676C74.7939 59.2676 74.1032 59.1071 73.5171 58.7862C72.945 58.4653 72.4776 58.0397 72.1148 57.5094C71.752 56.9653 71.4799 56.3513 71.2985 55.6676C71.1311 54.9839 71.0473 54.2862 71.0473 53.5746C71.0473 52.8629 71.1311 52.1653 71.2985 51.4815C71.4799 50.7978 71.752 50.1908 72.1148 49.6606C72.4776 49.1164 72.945 48.6839 73.5171 48.3629C74.1032 48.042 74.7939 47.8815 75.5892 47.8815C76.1334 47.8815 76.6078 47.9583 77.0125 48.1118C77.4311 48.2513 77.7939 48.4536 78.1008 48.7188C78.4078 48.9839 78.659 49.2978 78.8543 49.6606ZM41.9393 52.3815C41.5486 52.4513 41.1579 52.4792 40.7672 52.4653V54.2443C41.2416 54.2304 41.7021 54.2443 42.1486 54.2862C42.6091 54.3281 43.0207 54.4397 43.3835 54.6211C43.7463 54.7885 44.0393 55.0397 44.2625 55.3746C44.4858 55.7094 44.5974 56.1629 44.5974 56.735C44.5974 57.5722 44.3253 58.2211 43.7811 58.6815C43.2509 59.1281 42.5881 59.3513 41.7928 59.3513C40.8579 59.3513 40.1532 59.0583 39.6788 58.4722C39.2184 57.8722 39.0021 57.1257 39.03 56.2327H36.6439C36.6579 57.0001 36.7765 57.6978 36.9997 58.3257C37.223 58.9536 37.5439 59.4908 37.9625 59.9374C38.3951 60.3839 38.9253 60.7327 39.5532 60.9839C40.1951 61.2211 40.9416 61.3397 41.7928 61.3397C42.4904 61.3397 43.1532 61.235 43.7811 61.0257C44.409 60.8164 44.9602 60.5234 45.4346 60.1467C45.909 59.756 46.2858 59.2885 46.5649 58.7443C46.8439 58.1862 46.9835 57.5583 46.9835 56.8606C46.9835 55.9118 46.7463 55.1094 46.2718 54.4536C45.8114 53.7839 45.1625 53.3653 44.3253 53.1978V53.156C45.037 52.9048 45.5602 52.5071 45.8951 51.9629C46.23 51.4048 46.3974 50.756 46.3974 50.0164C46.3974 49.3746 46.2649 48.8094 45.9997 48.3211C45.7346 47.8187 45.3788 47.4071 44.9323 47.0862C44.4997 46.7653 44.0044 46.5211 43.4463 46.3536C42.9021 46.1862 42.3439 46.1025 41.7718 46.1025C41.0323 46.1025 40.3695 46.2281 39.7835 46.4792C39.1974 46.7304 38.6951 47.0792 38.2765 47.5257C37.8718 47.9722 37.5509 48.5025 37.3137 49.1164C37.0765 49.7164 36.9439 50.3722 36.916 51.0839H39.3021C39.2881 50.7071 39.33 50.3443 39.4277 49.9955C39.5253 49.6327 39.6718 49.3118 39.8672 49.0327C40.0765 48.7397 40.3346 48.5094 40.6416 48.342C40.9486 48.1746 41.3114 48.0908 41.73 48.0908C42.3997 48.0908 42.9439 48.2792 43.3625 48.656C43.7951 49.0327 44.0114 49.535 44.0114 50.1629C44.0114 50.6094 43.9137 50.9862 43.7184 51.2932C43.537 51.6001 43.2928 51.8443 42.9858 52.0257C42.6788 52.1932 42.33 52.3118 41.9393 52.3815ZM55.9974 46.835C55.3416 46.3467 54.4904 46.1025 53.4439 46.1025C52.3974 46.1025 51.5392 46.3467 50.8695 46.835C50.2136 47.3094 49.6974 47.9234 49.3206 48.6769C48.9578 49.4164 48.7067 50.2327 48.5671 51.1257C48.4416 52.0187 48.3788 52.8839 48.3788 53.7211C48.3788 54.5583 48.4416 55.4234 48.5671 56.3164C48.7067 57.2094 48.9578 58.0327 49.3206 58.7862C49.6974 59.5257 50.2136 60.1397 50.8695 60.6281C51.5392 61.1025 52.3974 61.3397 53.4439 61.3397C54.4904 61.3397 55.3416 61.1025 55.9974 60.6281C56.6671 60.1397 57.1834 59.5257 57.5462 58.7862C57.9229 58.0327 58.1741 57.2094 58.2997 56.3164C58.4392 55.4234 58.509 54.5583 58.509 53.7211C58.509 52.8839 58.4392 52.0187 58.2997 51.1257C58.1741 50.2327 57.9229 49.4164 57.5462 48.6769C57.1834 47.9234 56.6671 47.3094 55.9974 46.835ZM54.7416 58.9118C54.3927 59.2048 53.9602 59.3513 53.4439 59.3513C52.9136 59.3513 52.4741 59.2048 52.1253 58.9118C51.7904 58.6048 51.5183 58.2001 51.309 57.6978C51.1136 57.1815 50.9741 56.5815 50.8904 55.8978C50.8067 55.2141 50.7648 54.4885 50.7648 53.7211C50.7648 52.9536 50.8067 52.235 50.8904 51.5653C50.9741 50.8815 51.1136 50.2815 51.309 49.7653C51.5183 49.249 51.7904 48.8443 52.1253 48.5513C52.4741 48.2443 52.9136 48.0908 53.4439 48.0908C53.9602 48.0908 54.3927 48.2443 54.7416 48.5513C55.0904 48.8443 55.3625 49.249 55.5578 49.7653C55.7671 50.2815 55.9136 50.8815 55.9974 51.5653C56.0811 52.235 56.1229 52.9536 56.1229 53.7211C56.1229 54.4885 56.0811 55.2141 55.9974 55.8978C55.9136 56.5815 55.7671 57.1815 55.5578 57.6978C55.3625 58.2001 55.0904 58.6048 54.7416 58.9118ZM61.4741 49.242C61.4741 49.5211 61.5229 49.7792 61.6206 50.0164C61.7322 50.2536 61.8717 50.4629 62.0392 50.6443C62.2206 50.8118 62.4299 50.9513 62.6671 51.0629C62.9043 51.1606 63.1624 51.2094 63.4415 51.2094C63.7066 51.2094 63.9578 51.1606 64.195 51.0629C64.4461 50.9513 64.6554 50.8118 64.8229 50.6443C65.0043 50.4629 65.1438 50.2536 65.2415 50.0164C65.3531 49.7792 65.4089 49.5211 65.4089 49.242C65.4089 48.9769 65.3531 48.7257 65.2415 48.4885C65.1438 48.2374 65.0043 48.0281 64.8229 47.8606C64.6554 47.6792 64.4461 47.5397 64.195 47.442C63.9578 47.3304 63.7066 47.2746 63.4415 47.2746C63.1624 47.2746 62.9043 47.3304 62.6671 47.442C62.4299 47.5397 62.2206 47.6792 62.0392 47.8606C61.8717 48.0281 61.7322 48.2374 61.6206 48.4885C61.5229 48.7257 61.4741 48.9769 61.4741 49.242ZM60.302 49.242C60.302 48.8094 60.3857 48.4048 60.5531 48.0281C60.7206 47.6374 60.9438 47.3025 61.2229 47.0234C61.502 46.7443 61.8299 46.5211 62.2066 46.3536C62.5973 46.1862 63.0089 46.1025 63.4415 46.1025C63.8741 46.1025 64.2787 46.1862 64.6554 46.3536C65.0461 46.5211 65.381 46.7443 65.6601 47.0234C65.9392 47.3025 66.1624 47.6374 66.3299 48.0281C66.4973 48.4048 66.581 48.8094 66.581 49.242C66.581 49.6746 66.4973 50.0862 66.3299 50.4769C66.1624 50.8536 65.9392 51.1815 65.6601 51.4606C65.381 51.7397 65.0461 51.9629 64.6554 52.1304C64.2787 52.2978 63.8741 52.3815 63.4415 52.3815C63.0089 52.3815 62.5973 52.2978 62.2066 52.1304C61.8299 51.9629 61.502 51.7397 61.2229 51.4606C60.9438 51.1815 60.7206 50.8536 60.5531 50.4769C60.3857 50.0862 60.302 49.6746 60.302 49.242Z" fill="black"/>
</svg>
