<svg width="120" height="120" viewBox="0 0 120 120" fill="none" xmlns="http://www.w3.org/2000/svg">
<path fill-rule="evenodd" clip-rule="evenodd" d="M23.2353 42.1064L26.0642 75.966L58.5239 59.7431L23.2353 42.1064ZM21.5597 41.269L24.523 76.7363L7 85.494L7.7153 86.9252L24.6664 78.4533L26.4831 100.198H94.144L95.9607 78.4535L112.911 86.9252L113.627 85.494L96.1041 76.7365L99.0674 41.2688L113.627 33.9922L112.911 32.561L99.2234 39.4021L100.833 20.1332L99.2388 20L98.0356 34.4017C95.62 34.2473 94.3052 33.445 92.9017 32.5885L92.8913 32.5821C91.2392 31.574 89.4744 30.5016 86.031 30.5016C82.5872 30.5016 80.8279 31.5743 79.1787 32.5824L79.1716 32.5868C77.6116 33.5404 76.159 34.4284 73.1609 34.4284C70.1635 34.4284 68.7167 33.5408 67.163 32.5877L67.1556 32.5831C65.5116 31.5746 63.7578 30.5016 60.3135 30.5016C56.8701 30.5016 55.1053 31.574 53.4533 32.5821L53.4428 32.5885C51.8802 33.542 50.4277 34.4284 47.4435 34.4284C44.4586 34.4284 43.0002 33.5416 41.4313 32.5876L41.4212 32.5815C39.764 31.5737 37.9937 30.5016 34.5507 30.5016C31.1065 30.5016 29.3526 31.5745 27.711 32.5834L27.6997 32.5904C26.3077 33.4459 25.0036 34.2473 22.5916 34.4017L21.3883 20L19.7939 20.1332L21.4038 39.4023L7.7153 32.561L7 33.9922L21.5597 41.269ZM23.0793 40.2398L60.3133 58.8488L97.5478 40.2395L97.9023 35.9962C95.1109 35.8105 93.5406 34.8527 92.0578 33.9479L92.0551 33.9462C90.4907 32.9916 89.0322 32.1016 86.031 32.1016C83.033 32.1016 81.5803 32.9896 80.0203 33.9433L80.0132 33.9476C78.364 34.9557 76.6047 36.0284 73.1609 36.0284C69.7167 36.0284 67.9629 34.9554 66.3189 33.9469L66.3114 33.9423C64.7577 32.9892 63.3109 32.1016 60.3135 32.1016C57.3123 32.1016 55.8539 32.9916 54.2895 33.9462L54.2867 33.9479C52.6358 34.9554 50.8763 36.0284 47.4435 36.0284C44.0111 36.0284 42.2461 34.9557 40.5899 33.9486L40.5876 33.9472C39.0169 32.992 37.5526 32.1016 34.5507 32.1016C31.5508 32.1016 30.1041 32.9907 28.5523 33.9444L28.5487 33.9466C27.0753 34.8521 25.5148 35.8103 22.7248 35.9962L23.0793 40.2398ZM60.3133 60.6375L26.2076 77.683L27.955 98.598H92.6721L94.4195 77.6833L60.3133 60.6375ZM94.5629 75.9663L62.1028 59.7431L97.3919 42.1062L94.5629 75.9663Z" fill="black"/>
</svg>
