<svg width="32" height="32" viewBox="0 0 32 32" fill="none" xmlns="http://www.w3.org/2000/svg">
<path d="M29.736 4.73082C28.035 2.8426 25.9328 1.99407 23.8802 2.00003C22.0867 2.00053 20.3385 2.62414 18.8427 3.6673C17.7292 4.44483 16.7525 5.4582 15.9998 6.64038C15.2465 5.45869 14.2699 4.44532 13.1564 3.6673C11.661 2.62414 9.91233 2.00053 8.11934 2.00003C6.06675 1.99407 3.96409 2.8426 2.26356 4.73082C0.715692 6.43284 -0.00574477 8.42383 3.44394e-05 10.4615C0.00099764 12.2976 0.561098 14.1575 1.50937 15.9762C2.45957 17.7954 3.80227 19.5813 5.41515 21.2804C7.41427 23.385 9.97928 25.5195 12.0521 27.1406C14.1244 28.7597 15.7026 29.86 15.7103 29.865C15.7142 29.8679 15.719 29.8694 15.7228 29.8719C15.7464 29.8878 15.7715 29.9002 15.796 29.9131C15.8168 29.9235 15.837 29.936 15.8587 29.9444C15.8803 29.9528 15.9025 29.9583 15.9242 29.9648C15.9502 29.9732 15.9757 29.9816 16.0022 29.9871C16.0229 29.9911 16.0441 29.9911 16.0653 29.9935C16.0932 29.996 16.1202 30 16.1481 30C16.1712 29.9995 16.1938 29.995 16.217 29.993C16.2425 29.9901 16.268 29.9886 16.2935 29.9831C16.3157 29.9787 16.3374 29.9702 16.3595 29.9633C16.3855 29.9548 16.411 29.9484 16.4361 29.9374C16.4544 29.9295 16.4713 29.9186 16.4886 29.9091C16.5165 29.8942 16.5445 29.8794 16.5705 29.861C16.5743 29.8585 16.5782 29.857 16.5811 29.8545C16.5888 29.8491 18.0962 28.7498 20.0972 27.1317C22.0988 25.5121 24.592 23.3781 26.5853 21.2799C28.1982 19.5808 29.5409 17.7949 30.4906 15.9757C31.4389 14.157 31.999 12.2966 32 10.461C32.0053 8.42383 31.2838 6.43284 29.736 4.73082ZM29.1417 15.2284C28.2806 16.8798 27.025 18.5605 25.4902 20.1761C23.5797 22.189 21.1235 24.2961 19.1518 25.8904C18.1655 26.6878 17.3001 27.3586 16.6817 27.8288C16.4645 27.9941 16.2801 28.1331 16.1293 28.2458C15.4743 27.7766 14.147 26.808 12.5891 25.5776C10.6246 24.027 8.29416 22.0569 6.50886 20.1761C4.974 18.5605 3.71895 16.8798 2.85737 15.2284C1.99434 13.5761 1.53008 11.9599 1.53104 10.4615C1.53682 8.79621 2.07862 7.25853 3.38328 5.80724C4.82519 4.2214 6.46359 3.58389 8.11885 3.57842C9.56269 3.57743 11.0258 4.08635 12.2977 4.9746C13.5691 5.86136 14.6407 7.12298 15.3067 8.5847C15.312 8.59612 15.3193 8.60505 15.325 8.61598C15.338 8.6408 15.352 8.66513 15.3669 8.68847C15.3804 8.70882 15.3944 8.72868 15.4088 8.74755C15.4247 8.76791 15.4421 8.78677 15.4599 8.80514C15.4777 8.82401 15.496 8.84139 15.5158 8.85777C15.5341 8.87317 15.5533 8.88757 15.5731 8.90097C15.5957 8.91686 15.6193 8.93126 15.6434 8.94417C15.654 8.94963 15.6626 8.95757 15.6737 8.96303C15.6843 8.968 15.6949 8.96998 15.7055 8.97445C15.7305 8.98488 15.7556 8.99431 15.7821 9.00226C15.8052 9.00971 15.8283 9.01566 15.8514 9.02063C15.876 9.02559 15.9006 9.02857 15.9256 9.03106C15.9502 9.03354 15.9747 9.03552 15.9993 9.03552C16.0238 9.03552 16.0484 9.03354 16.073 9.03106C16.098 9.02857 16.1231 9.02559 16.1471 9.02063C16.1702 9.01566 16.1934 9.00971 16.2165 9.00226C16.2425 8.99382 16.268 8.98488 16.2931 8.97445C16.3032 8.96998 16.3142 8.968 16.3248 8.96303C16.3354 8.95757 16.3446 8.95012 16.3547 8.94417C16.3793 8.93076 16.4029 8.91636 16.4255 8.90047C16.4452 8.88707 16.4635 8.87317 16.4818 8.85827C16.5021 8.84139 16.5209 8.82302 16.5396 8.80366C16.5565 8.78578 16.5729 8.76791 16.5883 8.74854C16.6042 8.72868 16.6186 8.70783 16.6331 8.68598C16.6475 8.66414 16.661 8.6418 16.6726 8.61796C16.6788 8.60654 16.6865 8.59661 16.6923 8.5842C17.3579 7.12249 18.4294 5.86086 19.7009 4.9741C20.9728 4.08635 22.4359 3.57743 23.8797 3.57793C25.535 3.58389 27.1734 4.2209 28.6153 5.80674C29.9199 7.25753 30.4617 8.79571 30.4675 10.461C30.4685 11.9604 30.0047 13.5761 29.1417 15.2284Z" fill="black"/>
</svg>
