<svg width="32" height="32" viewBox="0 0 32 32" fill="none" xmlns="http://www.w3.org/2000/svg">
<g clip-path="url(#clip0_1_1286)">
<path fill-rule="evenodd" clip-rule="evenodd" d="M20.8952 2.78711e-05C22.6912 -0.00530304 24.5306 0.753907 26.019 2.44336C27.3734 3.96622 28.0046 5.74764 28 7.57036C27.9991 9.21273 27.509 10.8773 26.6793 12.5046C26.3587 13.1325 25.987 13.756 25.5702 14.3723C29.2885 15.4784 32 18.9225 32 23C32 27.9706 27.9706 32 23 32C18.7317 32 15.1574 29.0287 14.2326 25.0417C14.2244 25.0428 14.2163 25.0436 14.2081 25.0444C14.202 25.0451 14.1959 25.0457 14.1898 25.0464C14.182 25.0471 14.1743 25.0481 14.1665 25.0491C14.1542 25.0508 14.142 25.0524 14.1296 25.0526C14.112 25.0526 14.0949 25.0508 14.0775 25.0489C14.0708 25.0482 14.064 25.0475 14.0571 25.0469C14.05 25.046 14.0429 25.0455 14.0359 25.045C14.0244 25.0441 14.0131 25.0433 14.0019 25.0411C13.9798 25.0364 13.9584 25.0293 13.9367 25.0221L13.9336 25.0211C13.9286 25.0196 13.9235 25.0181 13.9184 25.0166C13.9044 25.0125 13.8902 25.0084 13.8763 25.0029C13.8634 24.9978 13.8512 24.991 13.8389 24.9842C13.8331 24.9811 13.8274 24.9779 13.8215 24.9749C13.8183 24.9731 13.8151 24.9714 13.8118 24.9697C13.7935 24.9599 13.775 24.9501 13.7575 24.938C13.756 24.9371 13.7545 24.9363 13.7528 24.9355C13.7507 24.9344 13.7485 24.9333 13.7465 24.9318C13.7398 24.9274 12.3589 23.9429 10.5456 22.4942C8.73187 21.0438 6.48749 19.134 4.73826 17.2508C3.32699 15.7307 2.15212 14.1327 1.3207 12.505C0.490961 10.8777 0.000872935 9.21361 3.01345e-05 7.57081C-0.00502667 5.74764 0.626231 3.96622 1.98061 2.44336C3.46858 0.753907 5.30841 -0.00530304 7.10442 2.78711e-05C8.67329 0.000472113 10.2034 0.558441 11.5118 1.49179C12.4861 2.18792 13.3407 3.09462 13.9998 4.15192C14.6584 3.09418 15.513 2.18748 16.4873 1.49179C17.7962 0.558441 19.3259 0.000472113 20.8952 2.78711e-05ZM24.1173 14.0687C23.7512 14.0233 23.3783 14 23 14C18.0294 14 14 18.0294 14 23C14 23.1363 14.003 23.2719 14.009 23.4067C13.4064 22.9633 12.3006 22.1336 11.0154 21.0958C9.29654 19.7084 7.25739 17.9456 5.69526 16.2629C4.35225 14.8173 3.25408 13.3135 2.5002 11.836C1.74505 10.3575 1.33882 8.91153 1.33966 7.57081C1.34472 6.08082 1.81879 4.705 2.96037 3.40648C4.22204 1.98757 5.65564 1.41716 7.104 1.41227C8.36735 1.41139 9.64757 1.86673 10.7605 2.66148C11.873 3.4549 12.8106 4.58372 13.3934 5.89157C13.396 5.89734 13.3992 5.90239 13.4023 5.90746C13.4048 5.91138 13.4072 5.9153 13.4094 5.91956C13.4208 5.94177 13.433 5.96354 13.4461 5.98442C13.4579 6.00263 13.4701 6.0204 13.4827 6.03728C13.4966 6.0555 13.5118 6.07238 13.5274 6.08881C13.543 6.1057 13.559 6.12124 13.5763 6.1359C13.5923 6.14967 13.6092 6.16256 13.6264 6.17455C13.6462 6.18877 13.6669 6.20165 13.688 6.2132C13.6924 6.21554 13.6965 6.21839 13.7005 6.22127C13.705 6.22439 13.7095 6.22754 13.7145 6.23008C13.7196 6.23251 13.7246 6.23414 13.7297 6.23577C13.7339 6.23712 13.7381 6.23848 13.7423 6.2403C13.7642 6.24963 13.7861 6.25807 13.8093 6.26518C13.8295 6.27184 13.8498 6.27717 13.87 6.28162C13.8915 6.28606 13.913 6.28872 13.9349 6.29095C13.9564 6.29317 13.9779 6.29494 13.9994 6.29494C14.0209 6.29494 14.0424 6.29317 14.0638 6.29095C14.0858 6.28872 14.1077 6.28606 14.1287 6.28162C14.149 6.27717 14.1692 6.27184 14.1894 6.26518C14.2122 6.25763 14.2345 6.24963 14.2564 6.2403C14.2606 6.23842 14.2649 6.23703 14.2694 6.23562C14.2743 6.23404 14.2793 6.23243 14.2842 6.23008C14.2896 6.22725 14.2946 6.22381 14.2995 6.22038C14.3031 6.21791 14.3067 6.21544 14.3104 6.2132C14.3319 6.20121 14.3525 6.18832 14.3723 6.17411C14.3896 6.16211 14.4056 6.14968 14.4216 6.13635C14.4393 6.12124 14.4557 6.10481 14.4722 6.08748C14.4869 6.07149 14.5013 6.0555 14.5147 6.03817C14.5287 6.0204 14.5413 6.00174 14.5539 5.9822C14.5666 5.96265 14.5784 5.94266 14.5885 5.92134C14.5907 5.91719 14.5931 5.91326 14.5956 5.90932C14.5992 5.90354 14.6028 5.89773 14.6058 5.89113C15.1881 4.58328 16.1258 3.45446 17.2383 2.66104C18.3512 1.86673 19.6314 1.41139 20.8947 1.41183C22.3431 1.41716 23.7767 1.98712 25.0384 3.40603C26.1799 4.70411 26.654 6.08037 26.6591 7.57036C26.6599 8.91197 26.2541 10.3575 25.499 11.836C25.121 12.5772 24.6562 13.3249 24.1173 14.0687Z" fill="black"/>
<path d="M26.9071 24.5446V25.3246H25.0231L24.4591 27.9286H23.5831L24.1471 25.3246H21.2911L20.7271 27.9286H19.8511L20.4151 25.3246H18.7111V24.5446H20.5951L21.2071 21.7126H19.5031V20.9326H21.3871L21.9151 18.5326H22.7911L22.2631 20.9326H25.1191L25.6471 18.5326H26.5231L25.9951 20.9326H27.6991V21.7126H25.8151L25.2031 24.5446H26.9071ZM24.3271 24.5446L24.9511 21.7126H22.0831L21.4711 24.5446H24.3271Z" fill="white"/>
</g>
<defs>
<clipPath id="clip0_1_1286">
<rect width="32" height="32" fill="white"/>
</clipPath>
</defs>
</svg>
