<svg width="32" height="32" viewBox="0 0 32 32" fill="none" xmlns="http://www.w3.org/2000/svg">
<path d="M29.736 4.73082C28.035 2.8426 25.9328 1.99407 23.8802 2.00003C22.0867 2.00053 20.3385 2.62414 18.8427 3.6673C17.7292 4.44483 16.7525 5.4582 15.9998 6.64038C15.2465 5.45869 14.2699 4.44532 13.1564 3.6673C11.661 2.62414 9.91233 2.00053 8.11934 2.00003C6.06675 1.99407 3.96409 2.8426 2.26356 4.73082C0.715692 6.43284 -0.00574477 8.42383 3.44394e-05 10.4615C0.00099764 12.2976 0.561098 14.1575 1.50937 15.9762C2.45957 17.7954 3.80227 19.5813 5.41515 21.2804C7.41427 23.385 9.97928 25.5195 12.0521 27.1406C14.1244 28.7597 15.7026 29.86 15.7103 29.865C15.7142 29.8679 15.719 29.8694 15.7228 29.8719C15.7464 29.8878 15.7715 29.9002 15.796 29.9131C15.8168 29.9235 15.837 29.936 15.8587 29.9444C15.8803 29.9528 15.9025 29.9583 15.9242 29.9648C15.9502 29.9732 15.9757 29.9816 16.0022 29.9871C16.0229 29.9911 16.0441 29.9911 16.0653 29.9935C16.0932 29.996 16.1202 30 16.1481 30C16.1712 29.9995 16.1938 29.995 16.217 29.993C16.2425 29.9901 16.268 29.9886 16.2935 29.9831C16.3157 29.9787 16.3374 29.9702 16.3595 29.9633C16.3855 29.9548 16.411 29.9484 16.4361 29.9374C16.4544 29.9295 16.4713 29.9186 16.4886 29.9091C16.5165 29.8942 16.5445 29.8794 16.5705 29.861C16.5743 29.8585 16.5782 29.857 16.5811 29.8545C16.5888 29.8491 18.0962 28.7498 20.0972 27.1317C22.0988 25.5121 24.592 23.3781 26.5853 21.2799C28.1982 19.5808 29.5409 17.7949 30.4906 15.9757C31.4389 14.157 31.999 12.2966 32 10.461C32.0053 8.42383 31.2838 6.43284 29.736 4.73082Z" fill="black"/>
</svg>
