<svg width="32" height="32" viewBox="0 0 32 32" fill="none" xmlns="http://www.w3.org/2000/svg">
<path d="M31.68 9.90667C31.68 9.90667 31.36 7.66667 30.4 6.70667C29.2267 5.42667 27.84 5.42667 27.2 5.32C22.72 5 16 5 16 5C16 5 9.28 5 4.8 5.32C4.16 5.42667 2.77333 5.42667 1.6 6.70667C0.64 7.66667 0.32 9.90667 0.32 9.90667C0.32 9.90667 0 12.4667 0 15.0267V17.3733C0 19.9333 0.32 22.6 0.32 22.6C0.32 22.6 0.64 24.84 1.6 25.8C2.77333 27.08 4.37333 27.08 5.12 27.1867C7.68 27.2933 16 27.4 16 27.4C16 27.4 22.72 27.4 27.2 27.08C27.84 26.9733 29.2267 26.9733 30.4 25.6933C31.36 24.7333 31.68 22.4933 31.68 22.4933C31.68 22.4933 32 19.9333 32 17.3733V15.0267C32 12.4667 31.68 9.90667 31.68 9.90667ZM12.6933 20.36V11.4L21.3333 15.88L12.6933 20.36Z" fill="black"/>
</svg>
