<svg width="120" height="63" viewBox="0 0 120 63" fill="none" xmlns="http://www.w3.org/2000/svg">
<path fill-rule="evenodd" clip-rule="evenodd" d="M51.9904 30.8251C51.9904 30.7673 51.9879 30.7094 51.9855 30.6516C51.9831 30.5937 51.9807 30.5359 51.9807 30.478C51.9807 30.4443 51.9783 30.4129 51.9759 30.3816C51.9735 30.3503 51.9711 30.3189 51.9711 30.2852C51.9663 30.2322 51.9638 30.1767 51.9614 30.1213C51.959 30.0659 51.9566 30.0104 51.9518 29.9574C51.9518 29.9237 51.9494 29.8923 51.947 29.861C51.9446 29.8297 51.9422 29.7983 51.9422 29.7646L51.9132 29.4175C51.9084 29.3886 51.906 29.3621 51.9036 29.3356C51.9012 29.309 51.8988 29.2825 51.8939 29.2536C51.8843 29.1716 51.8747 29.0921 51.865 29.0125C51.8554 28.933 51.8457 28.8535 51.8361 28.7715V28.7522C51.8265 28.6703 51.8144 28.5883 51.8024 28.5064C51.7903 28.4244 51.7783 28.3425 51.7686 28.2605C51.7638 28.2316 51.759 28.2051 51.7541 28.1786C51.7493 28.1521 51.7445 28.1256 51.7397 28.0966C51.7204 27.9809 51.7011 27.8749 51.6818 27.7688L51.6783 27.7471L51.6783 27.7471C51.6697 27.6945 51.6602 27.6364 51.6433 27.5856C51.6336 27.5326 51.624 27.482 51.6143 27.4314C51.6047 27.3808 51.5951 27.3302 51.5854 27.2771C51.5806 27.2434 51.5734 27.212 51.5661 27.1807C51.5589 27.1494 51.5517 27.118 51.5469 27.0843C51.5372 27.0313 51.5252 26.9783 51.5131 26.9253C51.5011 26.8722 51.489 26.8192 51.4794 26.7661C51.4746 26.7372 51.4673 26.7083 51.4601 26.6794C51.4529 26.6505 51.4456 26.6215 51.4408 26.5926C51.4119 26.448 51.3733 26.3034 51.3348 26.1684C51.3299 26.1587 51.3275 26.1467 51.3251 26.1346C51.3227 26.1226 51.3203 26.1105 51.3155 26.1009C51.2769 25.9466 51.2383 25.802 51.1901 25.6574C51.1805 25.6285 51.1733 25.5995 51.166 25.5706C51.1588 25.5417 51.1516 25.5128 51.1419 25.4839C51.1275 25.4357 51.113 25.385 51.0985 25.3344L51.0985 25.3343L51.0983 25.3336C51.0839 25.2833 51.0695 25.2329 51.0552 25.185C51.0456 25.1514 51.036 25.1202 51.0264 25.089L51.0263 25.0886C51.0166 25.0573 51.007 25.0259 50.9973 24.9922C50.9829 24.944 50.9684 24.8982 50.9539 24.8524C50.9395 24.8066 50.925 24.7608 50.9105 24.7126C50.8913 24.6451 50.872 24.5872 50.843 24.5197C50.8286 24.4715 50.8117 24.4257 50.7948 24.3799C50.778 24.3341 50.7611 24.2883 50.7466 24.2401L50.7352 24.2051C50.7194 24.1562 50.7024 24.1035 50.6791 24.057C50.6406 23.9413 50.5924 23.8256 50.5442 23.7099C50.5345 23.6809 50.5225 23.652 50.5104 23.6231C50.4984 23.5942 50.4863 23.5652 50.4767 23.5363C50.4526 23.4737 50.4285 23.4134 50.4044 23.3531C50.3803 23.2929 50.3562 23.2326 50.3321 23.17C50.3231 23.1491 50.3142 23.1291 50.3055 23.1098C50.2862 23.0666 50.2682 23.0267 50.2549 22.9868L50.2548 22.9865C50.2163 22.8998 50.1778 22.8132 50.1392 22.7361C50.1103 22.6686 50.0814 22.6011 50.0428 22.5336L50.0428 22.5335C50.0042 22.4564 49.9657 22.3793 49.9368 22.3022C49.9223 22.2685 49.9054 22.2348 49.8886 22.201C49.8717 22.1673 49.8548 22.1335 49.8404 22.0998L49.7247 21.8684C49.7054 21.8346 49.6885 21.8009 49.6716 21.7672C49.6548 21.7334 49.6379 21.6997 49.6186 21.6659C49.5945 21.6226 49.5729 21.5817 49.5512 21.5408L49.5512 21.5406L49.5511 21.5406C49.5294 21.4996 49.5077 21.4586 49.4836 21.4152C49.4258 21.3092 49.3679 21.2031 49.3101 21.1067C49.2972 21.0836 49.2844 21.0611 49.2717 21.0389C49.2368 20.9781 49.2034 20.9197 49.1751 20.8561L49.1603 20.8298L49.1446 20.8013C49.1157 20.7488 49.0853 20.6937 49.0498 20.6439L48.9341 20.4415C48.9206 20.4199 48.9079 20.3991 48.8955 20.3789L48.8955 20.3788L48.8954 20.3787C48.8635 20.3265 48.8338 20.2779 48.7991 20.2294C48.7798 20.2004 48.7605 20.1691 48.7413 20.1378C48.722 20.1064 48.7027 20.0751 48.6834 20.0462C48.6699 20.0245 48.6563 20.0036 48.643 19.9831L48.6429 19.9828L48.6428 19.9828C48.6088 19.9302 48.5761 19.8798 48.5484 19.8244L48.4327 19.6509C48.4086 19.6123 48.3845 19.5762 48.3604 19.54C48.3363 19.5039 48.3122 19.4677 48.2881 19.4291C48.2688 19.405 48.252 19.3785 48.2351 19.352C48.2182 19.3255 48.2013 19.299 48.1821 19.2749C48.129 19.1978 48.0736 19.1206 48.0182 19.0435C47.9627 18.9664 47.9073 18.8892 47.8543 18.8121L47.7675 18.6964L47.5939 18.465C47.5747 18.4409 47.5578 18.4168 47.5409 18.3927C47.524 18.3686 47.5072 18.3445 47.4879 18.3204C47.43 18.2433 47.3722 18.1661 47.3047 18.089C47.2925 18.0738 47.2804 18.0596 47.2685 18.0457C47.2428 18.0155 47.2185 17.987 47.1987 17.954C47.1697 17.9155 47.1384 17.8769 47.1071 17.8383L47.1069 17.8382C47.0756 17.7997 47.0443 17.7612 47.0155 17.7226C46.9835 17.6907 46.9582 17.6588 46.9285 17.6213L46.9094 17.5973C46.8757 17.5588 46.8419 17.5178 46.8082 17.4768L46.8082 17.4768C46.7744 17.4358 46.7407 17.3948 46.707 17.3563C46.6877 17.337 46.6684 17.3177 46.6587 17.2984C46.4081 17.0188 46.1478 16.7392 45.8874 16.4693L45.8874 16.4693C45.8585 16.4403 45.8296 16.4114 45.8103 16.3825L45.5789 16.1511C45.55 16.1222 45.5211 16.0933 45.4825 16.0643C45.4441 16.0259 45.4032 15.9875 45.3623 15.949L45.3623 15.949L45.3623 15.949L45.3623 15.9489L45.3622 15.9489L45.3622 15.9489L45.3622 15.9489L45.3622 15.9488L45.3622 15.9488L45.3621 15.9488L45.3621 15.9488L45.3621 15.9488L45.3621 15.9487L45.362 15.9487L45.362 15.9487L45.362 15.9487L45.362 15.9486L45.3619 15.9486L45.3619 15.9486L45.3619 15.9486L45.3619 15.9485L45.3619 15.9485L45.3618 15.9485L45.3618 15.9485L45.3618 15.9484L45.3618 15.9484L45.3617 15.9484L45.3617 15.9484C45.3208 15.9099 45.28 15.8714 45.2415 15.833L45.1643 15.7558C45.0383 15.6361 44.9081 15.5204 44.7765 15.4035L44.7764 15.4035C44.7068 15.3416 44.6367 15.2793 44.5666 15.2159C44.3641 15.0327 44.1617 14.8688 43.9496 14.7049C43.9399 14.7001 43.9327 14.6929 43.9254 14.6857C43.9182 14.6784 43.911 14.6712 43.9013 14.6664L43.6121 14.435C43.5928 14.4157 43.5639 14.3964 43.5446 14.3868C43.4692 14.3264 43.3937 14.272 43.3137 14.2142L43.2457 14.165C43.2265 14.1554 43.2168 14.1457 43.1975 14.1265C42.9469 13.9433 42.6865 13.7601 42.4262 13.5865C42.2238 13.4516 42.0213 13.3166 41.8092 13.1913C41.8092 13.1913 41.7996 13.1913 41.7996 13.1816C41.7417 13.1479 41.6839 13.1117 41.626 13.0756C41.5682 13.0394 41.5103 13.0033 41.4525 12.9695C41.4476 12.9647 41.4404 12.9599 41.4332 12.955C41.426 12.9502 41.4187 12.9454 41.4139 12.9406L41.0668 12.7381C41.062 12.7381 41.0596 12.7357 41.0572 12.7333C41.0548 12.7309 41.0524 12.7285 41.0475 12.7285C40.6619 12.5067 40.2666 12.3043 39.8617 12.1114C39.6206 11.9957 39.3796 11.88 39.1289 11.774C39.1241 11.774 39.1193 11.7716 39.1145 11.7692C39.1096 11.7668 39.1048 11.7643 39.1 11.7643C38.9747 11.7065 38.8397 11.6487 38.7143 11.6004C38.2709 11.4173 37.8081 11.2437 37.3549 11.0895C37.1235 11.0123 36.8922 10.9352 36.6608 10.8677C36.6567 10.8677 36.6543 10.8677 36.6522 10.867C36.6494 10.866 36.647 10.8636 36.6415 10.8581C36.5788 10.8388 36.5137 10.8195 36.4487 10.8002C36.3836 10.7809 36.3185 10.7617 36.2558 10.7424C36.251 10.7424 36.2462 10.74 36.2414 10.7376C36.2365 10.7351 36.2317 10.7327 36.2269 10.7327C34.3854 10.27 32.4765 10 30.5 10C27.357 10 24.3682 10.6749 21.6783 11.8897C21.6397 11.909 21.6011 11.9283 21.5626 11.9379C21.4661 11.9861 21.3601 12.0343 21.2637 12.0729C21.2322 12.0855 21.2007 12.1022 21.1665 12.1203L21.1665 12.1203L21.1665 12.1203C21.1484 12.13 21.1295 12.14 21.1094 12.15C21.0467 12.1789 20.9841 12.2103 20.9214 12.2416C20.8587 12.2729 20.7961 12.3043 20.7334 12.3332C20.6948 12.3525 20.6563 12.3717 20.6081 12.4007C20.5117 12.4489 20.4152 12.4971 20.3285 12.5453C20.3044 12.5598 20.2803 12.5718 20.2562 12.5839C20.2321 12.5959 20.208 12.608 20.1839 12.6224C20.126 12.6562 20.0657 12.6899 20.0055 12.7237L20.0054 12.7237C19.9452 12.7574 19.885 12.7912 19.8271 12.8249C19.7886 12.8442 19.7404 12.8731 19.7018 12.902C19.6584 12.9261 19.6126 12.9526 19.5668 12.9791C19.521 13.0057 19.4752 13.0322 19.4318 13.0563L19.2872 13.143C19.2294 13.1768 19.1715 13.2129 19.1137 13.2491L19.1137 13.2491C19.0558 13.2853 18.998 13.3214 18.9401 13.3552C18.9209 13.3696 18.8992 13.3841 18.8775 13.3985L18.8775 13.3985L18.8774 13.3986C18.8558 13.413 18.8341 13.4275 18.8148 13.4419C18.7817 13.464 18.7487 13.4846 18.7162 13.5049L18.7161 13.5049C18.6633 13.5379 18.6119 13.57 18.5641 13.6058C18.5159 13.6348 18.4677 13.6637 18.4195 13.7022C18.3617 13.7408 18.3062 13.7794 18.2508 13.8179L18.2508 13.8179L18.2508 13.818C18.1953 13.8565 18.1399 13.8951 18.0821 13.9336C18.0339 13.9626 17.9953 13.9915 17.9567 14.03C17.9182 14.059 17.8772 14.0879 17.8362 14.1168C17.7952 14.1457 17.7543 14.1747 17.7157 14.2036C17.6916 14.2229 17.6699 14.2397 17.6482 14.2566L17.6482 14.2566C17.6265 14.2735 17.6048 14.2904 17.5807 14.3096C17.5277 14.3482 17.4747 14.3892 17.4216 14.4302C17.3686 14.4711 17.3156 14.5121 17.2626 14.5507C17.2385 14.57 17.2168 14.5868 17.1951 14.6037C17.1734 14.6206 17.1517 14.6374 17.1276 14.6567C17.0504 14.7146 16.9733 14.7724 16.9058 14.8399C16.8817 14.8592 16.86 14.8761 16.8383 14.8929C16.8166 14.9098 16.795 14.9267 16.7709 14.946C16.7178 14.9893 16.6672 15.0327 16.6166 15.0761L16.6166 15.0761L16.6166 15.0761L16.6166 15.0761C16.566 15.1195 16.5153 15.1629 16.4623 15.2063C16.4382 15.2256 16.4165 15.2448 16.3948 15.2641C16.3732 15.2834 16.3515 15.3027 16.3274 15.322C16.2937 15.3509 16.2576 15.3821 16.2214 15.4134L16.2214 15.4134L16.2213 15.4135L16.2213 15.4136C16.1851 15.4449 16.149 15.4762 16.1152 15.5052C16.0911 15.5244 16.0695 15.5437 16.0478 15.563L16.0477 15.563C16.0261 15.5823 16.0044 15.6016 15.9803 15.6209C15.8839 15.7076 15.7874 15.7944 15.691 15.8908C15.6669 15.9101 15.6452 15.9318 15.6235 15.9535C15.6018 15.9752 15.5802 15.9969 15.5561 16.0161C15.5332 16.039 15.5103 16.0608 15.4878 16.0822L15.4878 16.0822C15.4439 16.1239 15.4015 16.1644 15.3632 16.209L15.2379 16.3343C15.1415 16.4307 15.0547 16.5175 14.9679 16.6139C14.9515 16.6303 14.9362 16.6468 14.9212 16.6628L14.9212 16.6628C14.8923 16.6939 14.8647 16.7235 14.833 16.7489C14.804 16.7826 14.7727 16.814 14.7414 16.8453C14.71 16.8766 14.6787 16.908 14.6498 16.9417C14.6305 16.9658 14.6088 16.9875 14.5871 17.0092L14.5871 17.0092C14.5654 17.0309 14.5437 17.0526 14.5244 17.0767C14.4377 17.1731 14.3509 17.2695 14.2738 17.3659C14.2326 17.4071 14.1985 17.4483 14.1593 17.4954L14.1388 17.5202C14.1099 17.5539 14.0834 17.5852 14.0569 17.6165L14.0568 17.6166L14.0567 17.6168C14.0302 17.6481 14.0037 17.6793 13.9749 17.713L13.9748 17.7131C13.9266 17.7709 13.8785 17.8287 13.8399 17.8769C13.8013 17.9203 13.7652 17.9661 13.729 18.0119L13.729 18.0119L13.729 18.0119L13.729 18.0119L13.729 18.0119L13.729 18.0119L13.729 18.012L13.729 18.012L13.729 18.012L13.729 18.012L13.729 18.012L13.7289 18.012L13.7289 18.012L13.7289 18.012L13.7289 18.012L13.7289 18.012C13.6928 18.0578 13.6567 18.1035 13.6182 18.1469C13.5989 18.1758 13.5772 18.2023 13.5555 18.2288L13.5555 18.2288L13.5555 18.2288L13.5555 18.2288L13.5555 18.2288L13.5555 18.2288L13.5555 18.2288L13.5555 18.2289L13.5555 18.2289L13.5555 18.2289L13.5554 18.2289L13.5554 18.2289L13.5554 18.2289L13.5554 18.2289L13.5554 18.2289L13.5554 18.2289L13.5554 18.2289C13.5338 18.2554 13.5121 18.2819 13.4928 18.3108C13.4687 18.3445 13.4446 18.3758 13.4205 18.4072C13.3964 18.4385 13.3723 18.4698 13.3482 18.5036C13.3193 18.5422 13.2928 18.5783 13.2663 18.6145C13.2397 18.6506 13.2132 18.6868 13.1843 18.7253C13.1554 18.7639 13.1265 18.8049 13.0975 18.8459C13.0686 18.8868 13.0397 18.9278 13.0108 18.9664C12.9915 18.9953 12.9698 19.0242 12.9481 19.0531L12.9481 19.0531C12.9264 19.0821 12.9047 19.111 12.8854 19.1399C12.8613 19.1736 12.8396 19.205 12.818 19.2363L12.8179 19.2363L12.8179 19.2364C12.7962 19.2677 12.7745 19.299 12.7504 19.3327L12.5769 19.593C12.5287 19.6605 12.4805 19.7377 12.4323 19.8148C12.3937 19.8823 12.3552 19.9401 12.307 20.0076C12.2877 20.0414 12.2684 20.0727 12.2491 20.104L12.2491 20.104C12.2298 20.1354 12.2105 20.1667 12.1913 20.2004L12.1912 20.2005C12.1334 20.2969 12.0755 20.3933 12.0081 20.4993L11.8924 20.7018L11.7767 20.9043C11.7574 20.9332 11.7405 20.9645 11.7237 20.9958L11.7237 20.9958C11.7068 21.0272 11.6899 21.0585 11.6706 21.0874C11.6558 21.1147 11.6409 21.1425 11.6259 21.1707L11.6259 21.1707L11.6259 21.1708L11.6257 21.171L11.6257 21.1711C11.5823 21.2525 11.5375 21.3366 11.4874 21.4152C11.473 21.4442 11.4561 21.4755 11.4392 21.5068C11.4224 21.5382 11.4055 21.5695 11.391 21.5984C11.3717 21.637 11.3525 21.6732 11.3332 21.7093C11.3139 21.7455 11.2946 21.7816 11.2753 21.8202L11.2753 21.8202C11.2464 21.878 11.2175 21.9359 11.1886 22.0034C11.1596 22.0612 11.1307 22.1215 11.1018 22.1817L11.1018 22.1818C11.0729 22.242 11.0439 22.3023 11.015 22.3601C10.9861 22.4179 10.9572 22.4758 10.9379 22.5336C10.9186 22.5722 10.9017 22.6108 10.8849 22.6493L10.8849 22.6493C10.868 22.6879 10.8511 22.7265 10.8318 22.765C10.8174 22.7939 10.8053 22.8229 10.7933 22.8518C10.7812 22.8807 10.7692 22.9096 10.7547 22.9386C10.6969 23.0639 10.639 23.1989 10.5908 23.3242C10.5812 23.3531 10.5691 23.3797 10.5571 23.4062L10.5571 23.4062C10.545 23.4327 10.533 23.4592 10.5233 23.4881C10.5089 23.5267 10.492 23.5677 10.4751 23.6086L10.4751 23.6086L10.4751 23.6087C10.4582 23.6496 10.4414 23.6906 10.4269 23.7291C10.4173 23.7533 10.4076 23.7798 10.398 23.8063C10.3883 23.8328 10.3787 23.8593 10.3691 23.8834C10.3505 23.9354 10.3305 23.9887 10.3102 24.043C10.2778 24.1297 10.2445 24.2187 10.2148 24.3076C10.2052 24.3317 10.1955 24.3582 10.1859 24.3848C10.1762 24.4113 10.1666 24.4378 10.157 24.4619L10.0702 24.7222C10.0605 24.7463 10.0533 24.7704 10.0461 24.7945C10.0388 24.8186 10.0316 24.8427 10.022 24.8668C9.99787 24.9439 9.97377 25.0187 9.94966 25.0934C9.92556 25.1681 9.90146 25.2428 9.87735 25.32C9.86771 25.3441 9.86048 25.3682 9.85325 25.3923C9.84602 25.4164 9.83879 25.4405 9.82915 25.4646C9.81469 25.508 9.80263 25.5538 9.79058 25.5995C9.77853 25.6453 9.76648 25.6911 9.75202 25.7345L9.72309 25.8502C9.67489 26.0141 9.63632 26.178 9.59776 26.3419C9.58812 26.3901 9.57848 26.4383 9.55919 26.4865C9.54955 26.5348 9.5375 26.5805 9.52545 26.6263C9.5134 26.6721 9.50135 26.7179 9.4917 26.7661C9.48688 26.7806 9.48447 26.7951 9.48206 26.8095C9.47965 26.824 9.47724 26.8385 9.47242 26.8529C9.45317 26.9443 9.43392 27.0334 9.41467 27.1224L9.41467 27.1224L9.41466 27.1224L9.41466 27.1225L9.41466 27.1225L9.41465 27.1225L9.41465 27.1225L9.41465 27.1225L9.41464 27.1225L9.41464 27.1226L9.41464 27.1226L9.41463 27.1226L9.41463 27.1226L9.41463 27.1226L9.41462 27.1226L9.41457 27.1229L9.41453 27.1231L9.41452 27.1231L9.41452 27.1231L9.41452 27.1231L9.41451 27.1232L9.41451 27.1232L9.41451 27.1232L9.4145 27.1232L9.4145 27.1232L9.4145 27.1233L9.41449 27.1233L9.41449 27.1233L9.41449 27.1233L9.41448 27.1233L9.41448 27.1233C9.39523 27.2124 9.37598 27.3014 9.35673 27.3928C9.35191 27.4169 9.34709 27.4386 9.34226 27.4603C9.33744 27.482 9.33262 27.5037 9.3278 27.5278C9.30852 27.6242 9.28924 27.7206 9.2796 27.817V27.8363C9.24103 28.0388 9.21211 28.2413 9.18318 28.4437C9.17836 28.4678 9.17595 28.4895 9.17354 28.5112C9.17113 28.5329 9.16872 28.5546 9.1639 28.5787C9.15941 28.6236 9.15283 28.6685 9.1461 28.7144C9.13839 28.767 9.13049 28.8209 9.12534 28.8776C9.05785 29.726 9 30.613 9 31.5C9 39.5408 13.4157 46.55 19.9428 50.233C19.9814 50.2522 20.02 50.2715 20.0585 50.3004C20.1839 50.3776 20.3188 50.4451 20.4538 50.5126C20.502 50.5415 20.5599 50.5704 20.6081 50.5897L20.6083 50.5898C20.6853 50.6283 20.7624 50.6669 20.8491 50.715C20.8732 50.7295 20.8973 50.7415 20.9214 50.7536C20.9455 50.7656 20.9696 50.7777 20.9937 50.7922C21.0594 50.8231 21.1252 50.8556 21.1915 50.8883L21.1918 50.8885L21.1919 50.8885L21.1919 50.8885C21.2909 50.9374 21.3912 50.987 21.4951 51.0332C21.5143 51.0428 21.5336 51.0525 21.5626 51.0621C21.5827 51.0711 21.6033 51.08 21.6243 51.0891L21.6243 51.0891C21.6936 51.1191 21.7659 51.1504 21.8325 51.1874C21.8711 51.2067 21.9096 51.226 21.9482 51.2356C22.2471 51.361 22.546 51.4863 22.8545 51.602C22.8641 51.6068 22.8762 51.6117 22.8882 51.6165L22.8882 51.6165C22.9003 51.6213 22.9123 51.6261 22.922 51.6309C23.2498 51.7563 23.5872 51.872 23.9247 51.978C24.3874 52.1226 24.8599 52.2576 25.3323 52.3733C26.9906 52.7783 28.7164 53 30.5 53C36.3619 53 41.6742 50.6572 45.5596 46.8489L45.9646 46.4439L45.9839 46.4247C46.0513 46.3572 46.1164 46.2873 46.1815 46.2174C46.2466 46.1475 46.3117 46.0776 46.3792 46.0101L46.3888 46.0004C46.6491 45.7112 46.8998 45.422 47.1504 45.1231L47.1601 45.1135L47.5072 44.6796C47.5168 44.6603 47.5265 44.6507 47.5457 44.6314C47.5988 44.5591 47.6518 44.4891 47.7049 44.4192C47.7579 44.3493 47.8109 44.2795 47.8639 44.2072C47.8687 44.1975 47.876 44.1879 47.8832 44.1782L47.8889 44.1706C47.8913 44.1674 47.8936 44.1641 47.8957 44.1608L47.8984 44.1566C47.8999 44.1542 47.9013 44.1517 47.9025 44.1493L47.9027 44.149C48.0087 44.0045 48.1146 43.86 48.211 43.7155C48.2158 43.7058 48.2206 43.6986 48.2255 43.6914C48.2303 43.6841 48.2351 43.6769 48.2399 43.6673C48.2928 43.5903 48.3433 43.5133 48.3938 43.4364L48.394 43.4361L48.3941 43.4359C48.4448 43.3588 48.4954 43.2816 48.5484 43.2045C48.6182 43.0998 48.6829 42.9952 48.7499 42.8869C48.7755 42.8455 48.8014 42.8036 48.828 42.761V42.7513C48.9148 42.6067 49.0016 42.4621 49.0883 42.3078L49.098 42.2982C49.1414 42.2259 49.1823 42.1536 49.2233 42.0813C49.2643 42.009 49.3053 41.9367 49.3487 41.8643C49.3487 41.8615 49.3495 41.8595 49.3507 41.8578L49.3514 41.8569L49.3535 41.8547C49.3559 41.8523 49.3583 41.8499 49.3583 41.8451L49.5897 41.4112C49.5945 41.4064 49.5969 41.4016 49.5993 41.3967C49.6017 41.3919 49.6041 41.3871 49.609 41.3823C49.6475 41.31 49.6837 41.2377 49.7198 41.1654C49.756 41.093 49.7922 41.0207 49.8307 40.9484C49.8355 40.9436 49.8379 40.9364 49.8404 40.9291C49.8428 40.9219 49.8452 40.9147 49.85 40.9099L50.0525 40.476L50.0563 40.4687L50.06 40.4622C50.0666 40.4509 50.0717 40.4419 50.0717 40.4278C50.1055 40.3555 50.1368 40.2855 50.1682 40.2156C50.1995 40.1457 50.2308 40.0759 50.2646 40.0036L50.2935 39.9457C50.3513 39.8108 50.4092 39.6661 50.467 39.5215C50.4695 39.5167 50.4719 39.5113 50.4743 39.5056L50.4815 39.4878C50.4863 39.4757 50.4911 39.4637 50.496 39.454C50.5249 39.3866 50.5514 39.3167 50.5779 39.2468C50.6044 39.1769 50.6309 39.107 50.6599 39.0395C50.6695 39.0105 50.6791 38.9816 50.6888 38.9623L50.6888 38.9622C50.737 38.8273 50.7852 38.6923 50.8334 38.5478L50.8334 38.5477C50.8431 38.5188 50.8527 38.4899 50.8623 38.4513C50.8864 38.384 50.9081 38.3166 50.9297 38.2492L50.9298 38.2489L50.9299 38.2486C50.9516 38.1812 50.9732 38.1138 50.9973 38.0464C51.007 38.0078 51.0166 37.9789 51.0359 37.9404C51.0551 37.8729 51.0744 37.8079 51.0937 37.7428L51.0937 37.7427C51.113 37.6776 51.1323 37.6125 51.1516 37.5451L51.1516 37.545C51.1612 37.5065 51.1709 37.4679 51.1901 37.4294C51.2094 37.3667 51.2263 37.3016 51.2432 37.2365C51.26 37.1715 51.2769 37.1064 51.2962 37.0437C51.3058 36.9955 51.3155 36.957 51.3348 36.9087C51.3475 36.8534 51.3622 36.798 51.3771 36.7419C51.3959 36.6708 51.415 36.5985 51.4312 36.5231C51.4408 36.4749 51.4504 36.4267 51.4697 36.3785L51.5565 36.0025C51.5613 35.9784 51.5661 35.9518 51.571 35.9253L51.571 35.9252C51.5758 35.8988 51.5806 35.8723 51.5854 35.8482C51.6143 35.7229 51.6336 35.6072 51.6529 35.4818C51.656 35.4636 51.659 35.4463 51.6621 35.4293L51.6674 35.4C51.6722 35.3734 51.677 35.3469 51.6818 35.3179C51.6915 35.2601 51.7011 35.1998 51.7108 35.1396L51.711 35.1378L51.711 35.1378L51.7111 35.1377L51.7111 35.1376L51.7111 35.1376C51.7206 35.078 51.7301 35.0184 51.7397 34.9612L51.7686 34.7877C51.7879 34.672 51.8072 34.5466 51.8168 34.4309C51.8216 34.402 51.8265 34.3706 51.8313 34.3392L51.8352 34.3136L51.8397 34.2848L51.8457 34.2478C51.865 34.1321 51.8747 34.0165 51.8843 33.9008L51.8843 33.9007L51.8876 33.8782C51.896 33.82 51.9036 33.7677 51.9036 33.7078L51.9325 33.3608C51.9373 33.327 51.9397 33.2933 51.9422 33.2595C51.9446 33.2258 51.947 33.192 51.9518 33.1583C51.9614 33.0426 51.9711 32.9173 51.9711 32.8016C51.9711 32.7678 51.9735 32.7365 51.9759 32.7052C51.9783 32.6738 51.9807 32.6425 51.9807 32.6087C51.9855 32.5461 51.9879 32.481 51.9904 32.416C51.9928 32.3509 51.9952 32.2858 52 32.2231C52 32.1929 52.0026 32.1627 52.0051 32.1338L52.0051 32.1337L52.0052 32.1336C52.0075 32.1073 52.0096 32.0821 52.0096 32.0592C52.0096 31.9676 52.0121 31.8736 52.0145 31.7796C52.0169 31.6856 52.0193 31.5916 52.0193 31.5C52.0193 31.3265 52.0193 31.1529 52.0096 30.989C51.9904 30.9312 51.9904 30.8733 51.9904 30.8251ZM34.8386 48.2372H26.4507V22.254L23.3269 22.2251L23.3558 18.0215L27.4052 14.4157H34.8386V48.2372ZM36.9404 28.1448C36.9404 26.8143 38.0298 25.7249 39.3603 25.7249C40.6908 25.7249 41.7803 26.8143 41.7803 28.1448C41.7803 29.4753 40.6908 30.5648 39.3603 30.5648C38.0202 30.5648 36.9404 29.485 36.9404 28.1448ZM37.9238 35.9832L45.4439 25.6767H47.1987L39.6785 35.9832H37.9238ZM43.2457 33.5632C43.2457 32.2327 44.3352 31.1433 45.6657 31.1433C46.9962 31.1433 48.0856 32.2327 48.0856 33.5632C48.0856 34.8937 46.9962 35.9832 45.6657 35.9832C45.5982 35.9832 45.5211 35.9832 45.4536 35.9735C45.0679 35.9446 44.7016 35.8193 44.3931 35.6168C43.6989 35.1926 43.2457 34.4309 43.2457 33.5632ZM40.4305 28.1448C40.4305 27.5567 39.9484 27.0747 39.3603 27.0747C38.7722 27.0747 38.2901 27.5567 38.2901 28.1448C38.2901 28.733 38.7722 29.215 39.3603 29.215C39.9484 29.215 40.4305 28.733 40.4305 28.1448ZM45.6561 32.493C46.2442 32.493 46.7262 32.9751 46.7262 33.5632C46.7262 34.1513 46.2538 34.6334 45.6561 34.6334C45.0679 34.6334 44.5859 34.1513 44.5859 33.5632C44.5859 32.9751 45.0679 32.493 45.6561 32.493ZM58.5271 27.2289H62.7114V25.185H58.5271V23.6809H63.1549V21.5309H56.0686V30.3913H58.5271V27.2289ZM73.5675 25.9563C73.5675 28.5016 71.5235 30.5648 68.7854 30.5648C66.0569 30.5648 64.0323 28.5305 64.0226 25.9852V25.9563C64.0226 23.411 66.0666 21.3478 68.8047 21.3478C71.5428 21.3478 73.5675 23.3821 73.5675 25.9274V25.9563ZM68.7854 23.5749C67.4453 23.5749 66.5487 24.6547 66.5487 25.937H66.539V25.9659C66.539 27.2386 67.4646 28.357 68.8047 28.357C70.1641 28.357 71.0608 27.2771 71.0608 25.9948V25.9659C71.0608 24.6933 70.1352 23.5749 68.7854 23.5749ZM77.3758 27.711H78.446L80.2296 30.3913H83.0641L80.9527 27.3061C82.0518 26.8336 82.7749 25.937 82.7749 24.5872V24.5583C82.7749 23.6809 82.5049 23.0061 81.9939 22.4951C81.3962 21.8877 80.461 21.5309 79.1112 21.5309H74.9173V30.3913H77.3758V27.711ZM77.3661 23.652H78.9762C79.7957 23.652 80.3067 24.0087 80.3067 24.7029V24.7318C80.3067 25.3778 79.8247 25.7827 78.9859 25.7827H77.3661V23.652ZM91.0664 30.3913H88.6078V23.6809H85.9565V21.5309H93.7274V23.6809H91.0664V30.3913ZM100.467 24.8475H97.3139V21.5309H94.865V30.3913H97.3139V27.0265H100.467V30.3913H102.925V21.5309H100.467V24.8475ZM106.984 26.8915V28.2991H111.747V30.3913H104.554V21.5309H111.679V23.6135H106.984V24.9632H111.236V26.8915H106.984ZM60.0794 32.1556H56.0108V41.6426H58.6428V38.9334H59.9444C62.3065 38.9334 64.0226 37.7572 64.0226 35.5204V35.4915C64.0226 33.3897 62.48 32.1556 60.0794 32.1556ZM61.3906 35.6361C61.3906 36.3785 60.8218 36.8702 59.8865 36.8702H58.6428V34.3635H59.8769C60.8218 34.3635 61.3906 34.7973 61.3906 35.6072V35.6361ZM67.7635 39.3383H72.3623V41.6426H65.1314V32.1556H67.7635V39.3383ZM76.7684 32.0881L72.7287 41.6426H75.4957L76.1706 39.9457H79.8343L80.5285 41.6426H83.3437L79.304 32.0881H76.7684ZM76.9419 37.9018L78.0121 35.2022L79.0726 37.9018H76.9419ZM86.7182 32.1556L90.6229 37.1691V32.1556H93.226V41.6426H90.9218L86.8628 36.4363V41.6426H84.2596V32.1556H86.7182ZM97.5067 37.9018H102.067V35.8289H97.5067V34.3924H102.539V32.1556H94.9036V41.6426H102.607V39.4058H97.5067V37.9018ZM106.271 34.4599H103.417V32.1556H111.747V34.4599H108.903V41.6426H106.271V34.4599ZM110.725 40.6592C110.725 40.4664 110.58 40.3796 110.378 40.3796H109.983V41.1991H110.214V40.9484H110.31L110.474 41.1991H110.744L110.551 40.9099C110.657 40.8809 110.725 40.7942 110.725 40.6592ZM110.359 40.7749H110.214V40.5821H110.359C110.436 40.5821 110.484 40.6206 110.484 40.6785C110.493 40.7363 110.445 40.7749 110.359 40.7749ZM109.491 40.8038C109.491 40.3603 109.857 39.9747 110.32 39.9747C110.792 39.9747 111.149 40.3507 111.149 40.8038C111.149 41.2473 110.783 41.633 110.32 41.633C109.857 41.633 109.491 41.257 109.491 40.8038ZM110.32 41.498C110.715 41.498 111.014 41.1798 111.014 40.8038C111.014 40.4182 110.715 40.1096 110.32 40.1096C109.925 40.1096 109.626 40.4278 109.626 40.8038C109.626 41.1798 109.925 41.498 110.32 41.498Z" fill="black"/>
</svg>
