<svg width="120" height="120" viewBox="0 0 120 120" fill="none" xmlns="http://www.w3.org/2000/svg">
<path fill-rule="evenodd" clip-rule="evenodd" d="M22.8 21H11V54.1H11.966L40.519 82.9738C40.5496 83.1119 40.6172 83.2436 40.7222 83.3533C40.8335 83.4696 40.9715 83.5449 41.1175 83.579L56.7968 99.4345L80.9249 75.3065L60.2004 54.1H108.1V21H96.3H85.8H75.3H64.8H54.3H43.8H33.3H22.8ZM19.0271 58.9649L14.2162 54.1H24.3342L19.0271 58.9649ZM26.7095 66.7337L20.1529 60.1034L25.8406 54.8897C26.066 54.683 26.146 54.3769 26.0747 54.1H57.9632L63.8391 60.1125L41.4038 81.5931L34.8152 74.9304L50.3566 59.8746C50.674 59.5672 50.682 59.0607 50.3746 58.7434C50.0672 58.426 49.5607 58.418 49.2434 58.7254L33.6901 73.7927L27.8351 67.8719L36.88 58.351C37.1843 58.0307 37.1713 57.5243 36.851 57.22C36.5307 56.9157 36.0243 56.9287 35.72 57.249L26.7095 66.7337ZM58.3006 52.5H58.2993H12.6V22.6H22V43.8C22 44.2418 22.3582 44.6 22.8 44.6C23.2418 44.6 23.6 44.2418 23.6 43.8V22.6H32.5V35.3C32.5 35.7418 32.8582 36.1 33.3 36.1C33.7418 36.1 34.1 35.7418 34.1 35.3V22.6H43V43.8C43 44.2418 43.3582 44.6 43.8 44.6C44.2418 44.6 44.6 44.2418 44.6 43.8V22.6H53.5V35.3C53.5 35.7418 53.8582 36.1 54.3 36.1C54.7418 36.1 55.1 35.7418 55.1 35.3V22.6H64V43.8C64 44.2418 64.3582 44.6 64.8 44.6C65.2418 44.6 65.6 44.2418 65.6 43.8V22.6H74.5V37.3C74.5 37.7418 74.8582 38.1 75.3 38.1C75.7418 38.1 76.1 37.7418 76.1 37.3V22.6H85V43.8C85 44.2418 85.3582 44.6 85.8 44.6C86.2418 44.6 86.6 44.2418 86.6 43.8V22.6H95.5V37.3C95.5 37.7418 95.8582 38.1 96.3 38.1C96.7418 38.1 97.1 37.7418 97.1 37.3V22.6H106.5V52.5H58.3006ZM42.529 82.7309L64.9574 61.2568L78.6751 75.2935L56.8032 97.1655L42.529 82.7309ZM64.7 79.3C64.7 81.7301 62.73 83.7001 60.3 83.7001C57.8699 83.7001 55.9 81.7301 55.9 79.3C55.9 76.87 57.8699 74.9 60.3 74.9C62.73 74.9 64.7 76.87 64.7 79.3ZM66.3 79.3C66.3 82.6138 63.6137 85.3 60.3 85.3C56.9863 85.3 54.3 82.6138 54.3 79.3C54.3 75.9863 56.9863 73.3 60.3 73.3C63.6137 73.3 66.3 75.9863 66.3 79.3Z" fill="black"/>
</svg>
