<svg width="120" height="120" viewBox="0 0 120 120" fill="none" xmlns="http://www.w3.org/2000/svg">
<path fill-rule="evenodd" clip-rule="evenodd" d="M33.7348 57.2281C31.7019 57.2281 30.3263 56.2498 29.5926 54.3086L30.6778 53.7431C31.2892 55.2257 32.191 56.0511 33.7348 56.0511C34.4532 56.0511 35.0646 55.8524 35.5538 55.4703C36.0582 55.0882 36.3027 54.5838 36.3027 53.9723C36.3027 52.7495 35.3551 52.0311 33.5208 51.5879C31.0752 50.9918 29.9441 49.9371 29.9441 48.271C29.9441 47.2775 30.311 46.4979 31.0447 45.9018C31.7783 45.3057 32.6649 45 33.7043 45C35.5996 45 36.9141 45.9782 37.4797 47.4915L36.4097 48.0876C35.9053 46.8189 34.9882 46.177 33.6737 46.177C33.0012 46.177 32.4203 46.3604 31.9312 46.7425C31.4421 47.1246 31.1975 47.6138 31.1975 48.2099C31.1975 49.2951 31.9312 49.8759 33.7501 50.3498C35.1564 50.7013 36.1652 51.2057 36.7613 51.863C37.3116 52.4591 37.5867 53.1317 37.5867 53.8806C37.5867 54.7977 37.2351 55.5926 36.532 56.2498C35.8289 56.9071 34.8965 57.2281 33.7348 57.2281ZM8 45.1376V57.1058H11.5614C13.3498 57.1058 14.8477 56.5402 16.0552 55.4244C17.2628 54.2933 17.8742 52.8565 17.8742 51.0988C17.8742 49.4021 17.2781 47.9806 16.1011 46.8495C14.9241 45.7031 13.4109 45.1376 11.5614 45.1376H8ZM9.25338 55.9288V46.3145H11.5003C13.0441 46.3145 14.2669 46.7731 15.184 47.6749C16.1164 48.5767 16.5749 49.7384 16.5749 51.1293C16.5749 52.5356 16.1011 53.6819 15.1687 54.5838C14.2363 55.4856 13.0288 55.9288 11.5156 55.9288H9.25338ZM27.8491 46.2992V45.1376H20.3594V57.1058H27.9103V55.9441H21.6128V51.6032H27.3141V50.4415H21.6128V46.2992H27.8491ZM41.361 57.1058V45.1376H40.1076V57.1058H41.361ZM55.2063 48.6379L54.0752 49.1575C53.7848 48.3169 53.2804 47.629 52.5926 47.0635C51.9048 46.4979 50.9877 46.2075 49.8413 46.2075C48.542 46.2075 47.4262 46.6661 46.5091 47.5832C45.6073 48.5003 45.1487 49.662 45.1487 51.0835C45.1487 52.4897 45.5767 53.6666 46.4327 54.6296C47.3039 55.5773 48.435 56.0511 49.8566 56.0511C50.9724 56.0511 51.9353 55.7301 52.7454 55.0882C53.5708 54.4462 54.0141 53.5749 54.0752 52.4744H49.077V51.3127H55.4203V51.7713C55.4203 53.3304 54.9159 54.6296 53.8918 55.669C52.883 56.7084 51.5226 57.2281 49.826 57.2281C48.0376 57.2281 46.6008 56.6472 45.5003 55.5009C44.3998 54.3545 43.8495 52.9024 43.8495 51.1599C43.8495 49.4327 44.4303 47.9653 45.5767 46.7884C46.7231 45.6114 48.1599 45.0153 49.8718 45.0153C51.2475 45.0153 52.3939 45.3668 53.311 46.0852C54.2434 46.7884 54.8701 47.6443 55.2063 48.6379ZM67.5479 57.1058V45.1376H66.3098V55.134L59.248 45.1376H57.796V57.1058H59.0341V46.9106L66.2028 57.1058H67.5479ZM78.3765 45.1376V46.2992H72.1402V50.4415H77.8415V51.6032H72.1402V55.9441H78.4376V57.1058H70.8868V45.1376H78.3765ZM81.0371 45.1376V57.1058H84.5985C86.3868 57.1058 87.8848 56.5402 89.0923 55.4244C90.2998 54.2933 90.9112 52.8565 90.9112 51.0988C90.9112 49.4021 90.3151 47.9806 89.1382 46.8495C87.9612 45.7031 86.448 45.1376 84.5985 45.1376H81.0371ZM82.2904 55.9288V46.3145H84.5374C86.0811 46.3145 87.3039 46.7731 88.2211 47.6749C89.1534 48.5767 89.612 49.7384 89.612 51.1293C89.612 52.5356 89.1382 53.6819 88.2058 54.5838C87.2734 55.4856 86.0659 55.9288 84.5526 55.9288H82.2904ZM98.9189 45.1376V57.1058H97.6656V45.1376H98.9189ZM112 57.1058V45.1376H110.762V55.134L103.7 45.1376H102.248V57.1058H103.486V46.9106L110.655 57.1058H112ZM35.3746 75.9245C33.7697 75.9245 32.501 74.9921 31.8132 73.326L33.3722 72.4547C33.8155 73.6011 34.4728 74.1667 35.344 74.1667C36.521 74.1667 37.1629 73.3871 37.1629 72.2407V63.8187H39.0583V72.2407C39.0583 73.326 38.7067 74.2125 38.0189 74.9004C37.3311 75.5882 36.4598 75.9245 35.3746 75.9245ZM40.2677 75.7869L45.1437 63.8187H47.36L52.2054 75.7869H50.2489L49.1637 72.9744H43.2942L42.1936 75.7869H40.2677ZM46.2289 65.6223L43.9667 71.3084H48.5064L46.2289 65.6223ZM61.0127 70.269C61.7922 69.5353 62.1897 68.6182 62.1897 67.5329C62.1897 66.5088 61.8381 65.6223 61.135 64.9039C60.4472 64.1855 59.3925 63.8187 58.0015 63.8187H53.7676V75.7869H55.6476V71.3542H57.7723C59.1632 71.3542 60.2332 70.9874 61.0127 70.269ZM55.6476 65.5612H57.8334C58.7199 65.5612 59.3466 65.7599 59.7135 66.1573C60.0956 66.5547 60.279 67.0285 60.279 67.5788C60.279 68.6793 59.4995 69.627 57.8334 69.627H55.6476V65.5612ZM61.8072 75.7869L66.6831 63.8187H68.8995L73.7448 75.7869H71.7883L70.7031 72.9744H64.8336L63.7331 75.7869H61.8072ZM67.7684 65.6223L65.5062 71.3084H70.0458L67.7684 65.6223ZM77.1565 66.57L83.3317 75.7869H85.2882V63.8187H83.4234V72.6382L77.5233 63.8187H75.307V75.7869H77.1565V66.57Z" fill="black"/>
</svg>
