<svg width="120" height="120" viewBox="0 0 120 120" fill="none" xmlns="http://www.w3.org/2000/svg">
<path fill-rule="evenodd" clip-rule="evenodd" d="M49.6484 60.3979C47.5306 60.3979 45.4975 59.5932 43.9092 58.2166C42.3209 56.7977 41.3044 54.574 41.3044 51.9692C41.3044 49.5126 42.1303 47.4795 43.8033 45.8488C45.4764 44.2181 47.4459 43.3922 49.7543 43.3922C51.8509 43.3922 53.6933 44.0487 54.8793 45.0653C56.0652 46.0606 56.87 47.183 57.23 48.369L54.8793 49.449C54.0533 47.3101 52.3168 45.8276 49.7119 45.8276C48.2083 45.8276 46.8741 46.3994 45.7517 47.5219C44.6293 48.6443 44.0575 50.0844 44.0575 51.8845C44.0575 53.6634 44.6081 55.1247 45.7305 56.2683C46.8529 57.3907 48.1871 57.9625 49.7119 57.9625C50.8555 57.9625 51.9144 57.6236 52.8674 56.9671C53.8416 56.2894 54.5404 55.4 54.9428 54.3199L57.3147 55.4C56.9123 56.5647 56.1076 57.6872 54.8581 58.7037C53.6086 59.7202 51.745 60.3979 49.6484 60.3979ZM15.339 43.6252L8.58331 60.2073H11.2517L12.7765 56.3106H20.9087L22.4124 60.2073H25.1231L18.4098 43.6252H15.339ZM13.7083 54.0022L16.8426 46.1241L19.9981 54.0022H13.7083ZM27.2875 43.6252V60.2073H29.8924V53.9175H33.0479L36.6481 60.2073H39.5918L35.6527 53.4728C37.8764 52.7316 39.1682 51.0374 39.1682 48.729C39.1682 47.2677 38.7023 46.0606 37.7917 45.0864C36.881 44.1123 35.4409 43.6252 33.5138 43.6252H27.2875ZM29.8924 51.5668V46.0394H33.2385C35.9492 46.0394 36.521 47.5219 36.521 48.7925C36.521 50.3173 35.5468 51.5668 33.2385 51.5668H29.8924ZM60.0675 43.6252V60.2073H62.6723V53.0492H70.8681V60.2073H73.473V43.6252H70.8681V50.5715H62.6723V43.6252H60.0675ZM77.7087 60.2073V43.6252H80.3135V60.2073H77.7087ZM95.6306 43.6252L90.6539 57.2001L85.7195 43.6252H82.8181L89.1079 60.2073H92.1151L98.3837 43.6252H95.6306ZM111.523 45.9759H103.518V50.5926H110.803V52.9434H103.518V57.8354H111.608V60.2073H100.913V43.6252H111.523V45.9759ZM61.288 76.7073C59.4612 76.7073 58.0345 75.8006 57.4478 74.2005L58.8345 73.4804C59.2745 74.6005 60.1813 75.2139 61.3147 75.2139C62.3814 75.2139 63.1414 74.6538 63.1414 73.7871C63.1414 73.0271 62.5414 72.5871 61.048 72.1204C59.9146 71.7603 59.1012 71.3603 58.5945 70.907C58.0611 70.4403 57.7945 69.8002 57.7945 69.0002C57.7945 68.1601 58.1278 67.4534 58.7945 66.8801C59.4745 66.2934 60.2879 66 61.2613 66C63.0214 66 64.1948 66.9201 64.6882 68.2135L63.3281 68.9468C62.9281 67.9734 62.2214 67.4801 61.2213 67.4801C60.2079 67.4801 59.4745 68.0668 59.4745 68.9068C59.4745 69.6935 60.1279 70.1202 61.408 70.5069C62.7014 70.8936 63.5948 71.3336 64.0882 71.827C64.5815 72.307 64.8349 72.9337 64.8349 73.6938C64.8349 74.5072 64.5148 75.2139 63.8748 75.8139C63.2348 76.4139 62.3681 76.7073 61.288 76.7073ZM46.1329 74.8805C46.9997 73.8538 47.453 72.6137 47.453 71.3736C47.453 70.0536 46.8796 68.4668 45.5862 67.3601C44.7462 66.6267 43.4261 66.1467 41.8794 66.1467H38.5725V76.5873H41.906C43.7595 76.5873 45.2796 75.8939 46.1329 74.8805ZM44.8262 68.9202C45.4262 69.6535 45.7329 70.5203 45.7329 71.3736C45.7329 72.2804 45.4262 73.1471 44.8262 73.8805C44.2262 74.5872 43.1594 75.0672 41.8394 75.0672H40.2126V67.6668H41.8527C43.1728 67.6668 44.2395 68.1735 44.8262 68.9202ZM51.0596 67.6268H56.0999V66.1467H49.4195V76.5873H56.1532V75.0939H51.0596V72.0137H55.6465V70.5336H51.0596V67.6268ZM66.8033 66.1467V76.5873H68.4434V66.1467H66.8033ZM80.4343 69.0935L78.9809 69.7602C78.4342 68.4268 77.3675 67.5201 75.714 67.5201C74.6873 67.5201 73.8339 67.8801 73.1406 68.6135C72.4605 69.3469 72.1138 70.2536 72.1138 71.347C72.1138 72.4404 72.4472 73.3604 73.1272 74.0938C73.8073 74.8272 74.6606 75.2005 75.7007 75.2005C77.4608 75.2005 78.5542 74.2271 78.8075 72.8537H75.0607V71.3603H80.581V71.9337C80.581 73.2938 80.141 74.4272 79.2476 75.3472C78.3675 76.2539 77.1941 76.7073 75.714 76.7073C74.1539 76.7073 72.8739 76.2006 71.8871 75.2005C70.9004 74.2005 70.4071 72.9204 70.4071 71.387C70.4071 69.8536 70.9271 68.5735 71.9805 67.5468C73.0339 66.52 74.274 66 75.7274 66C76.9141 66 77.9275 66.3067 78.7542 66.9067C79.5809 67.5068 80.141 68.2268 80.4343 69.0935ZM84.0817 68.5468L89.4687 76.5873H91.1755V66.1467H89.5487V73.8405L84.4017 66.1467H82.4683V76.5873H84.0817V68.5468Z" fill="black"/>
</svg>
