<svg width="120" height="120" viewBox="0 0 120 120" fill="none" xmlns="http://www.w3.org/2000/svg">
<path d="M9.38649 65.8159C9.71777 66.3497 10.1963 66.8098 10.7669 67.1411C12.681 68.2454 15.1104 67.638 16.2883 65.7607L21.4785 56.7239C21.773 56.1718 21.9202 55.5276 21.9202 54.8466C21.9202 52.5828 20.0797 50.7423 17.8343 50.7423H7.80366C5.53986 50.7423 3.71777 52.5828 3.71777 54.8466C3.71777 55.5276 3.88342 56.1534 4.15949 56.7055L9.38649 65.8159Z" fill="black"/>
<path d="M28.7117 53.4294H32.8344C35.5399 53.4294 36.8098 54.6074 36.8098 56.6687C36.8098 59.5767 34.9509 60.9571 31.8037 60.9571H30.4785L29.816 64.6932H26.7239L28.7117 53.4294ZM31.8221 58.9509C33.0368 58.9509 33.6258 58.2147 33.6258 56.8528C33.6258 56.0429 33.2577 55.6012 32.3374 55.6012H31.4356L30.8466 58.9509H31.8221Z" fill="black"/>
<path d="M38.5399 53.4294H42.9386C45.3313 53.4294 46.6012 54.5706 46.6012 56.4294C46.6012 58.1043 45.7914 59.319 44.227 59.7975V59.8528L45.9754 64.6932H42.8098L41.4478 60.589H40.3251L39.6994 64.6932H36.5521L38.5399 53.4294ZM41.7055 58.7117C42.9754 58.7117 43.4172 57.865 43.4172 56.7055C43.4172 55.9141 42.957 55.5828 42.2024 55.5828H41.2638L40.73 58.7117H41.7055Z" fill="black"/>
<path d="M48.8835 53.4294H52.0491L50.0614 64.7117H46.9141L48.8835 53.4294Z" fill="black"/>
<path d="M53.7055 53.4294H57.8282L58.4724 60.2393H58.546L61.638 53.4294H65.8896L63.9202 64.7117H60.8282L62.1718 57.0736H62.0981L58.6748 64.7117H56.4294L55.73 57.0552H55.6748L54.3313 64.7117H51.7178L53.7055 53.4294Z" fill="black"/>
<path d="M70.6749 53.4294H74.0614L75.6074 64.7117H72.4601L72.2393 62.5031H68.7239L67.638 64.7117H64.7485L70.6749 53.4294ZM69.6442 60.4417H72L71.5951 56.5767H71.5399L69.6442 60.4417Z" fill="black"/>
<path d="M78.3865 53.4294H81.5521L79.9693 62.4478H84.1104L83.7239 64.7117H76.4172L78.3865 53.4294Z" fill="black"/>
<path d="M84.8834 60.4049C84.8834 56.3374 87.2761 53.2454 91.0675 53.2454C93.865 53.2454 95.7055 54.8282 95.7055 57.7546C95.7055 61.8589 93.3497 64.9141 89.503 64.9141C86.7055 64.9141 84.8834 63.3313 84.8834 60.4049ZM92.2638 59.1533C92.3558 58.5828 92.4294 57.9754 92.4294 57.4601C92.4294 56.1902 91.9325 55.5644 90.8466 55.5644C89.6871 55.5644 88.7669 56.6135 88.3435 59.0061C88.2147 59.6687 88.1779 60.2208 88.1779 60.6993C88.1779 62.0429 88.7485 62.5951 89.7607 62.5951C91.0491 62.5951 91.8773 61.3619 92.2638 59.1533Z" fill="black"/>
<path d="M97.8037 53.4294L95.8344 64.7117H98.9816L99.7178 60.4601H103.012L103.399 58.2515H100.104L100.564 55.6933H106.933L105.331 64.7117H108.479L110.08 55.6933H112.914L113.301 53.4294H97.8037Z" fill="black"/>
<path d="M110.834 63.3128C110.834 62.411 111.552 61.6748 112.472 61.6748C113.393 61.6748 114.129 62.411 114.129 63.3128C114.129 64.2147 113.393 64.9509 112.472 64.9509C111.552 64.9509 110.834 64.2147 110.834 63.3128ZM113.779 63.3128C113.779 62.5766 113.264 61.9693 112.472 61.9693C111.699 61.9693 111.184 62.5766 111.184 63.3128C111.184 64.0674 111.681 64.6564 112.472 64.6564C113.264 64.6564 113.779 64.0674 113.779 63.3128ZM111.828 62.503H112.583C112.988 62.503 113.227 62.6871 113.227 63C113.227 63.2024 113.117 63.3497 112.988 63.4049V63.4233L113.301 64.0674H112.748L112.491 63.5337H112.344V64.0674H111.81V62.503H111.828ZM112.509 63.2024C112.62 63.2024 112.693 63.1656 112.693 63.0368C112.693 62.9263 112.638 62.8711 112.509 62.8711H112.362V63.2024H112.509Z" fill="black"/>
<path d="M9.69941 53.9448C9.58898 53.7424 9.38652 53.7424 9.25769 53.9448L7.91413 56.2638C7.7853 56.4663 7.7853 56.816 7.91413 57.0368L12.497 64.9693C12.6258 65.1718 12.8098 65.1718 12.9387 64.9693L14.2638 62.6503C14.3927 62.4479 14.3927 62.0982 14.2638 61.8957L9.69941 53.9448Z" fill="white"/>
<path d="M16.5828 53.4479C16.454 53.227 16.1595 53.0614 15.9203 53.0614H10.6196C10.3804 53.0614 10.2884 53.227 10.3988 53.4479L11.6319 55.5829C11.7607 55.7853 12.0552 55.9694 12.2945 55.9694H14.4663C14.7055 55.9694 14.816 56.135 14.6871 56.3559L13.5828 58.2516C13.4724 58.454 13.4724 58.8037 13.5828 59.0062L14.816 61.1412C14.9448 61.3436 15.1288 61.3436 15.2577 61.1412L17.908 56.5031C18.0368 56.3007 18.0368 55.951 17.908 55.7485L16.5828 53.4479Z" fill="white"/>
</svg>
