<svg width="120" height="120" viewBox="0 0 120 120" fill="none" xmlns="http://www.w3.org/2000/svg">
<path fill-rule="evenodd" clip-rule="evenodd" d="M30.2637 12.0285C42.5521 11.9958 54.8406 12.0067 67.1291 12.0176C73.2733 12.023 79.4175 12.0285 85.5618 12.0285C87.6907 11.9527 89.8223 12.0283 91.9404 12.2547C95.8028 12.8036 99.4661 14.3116 102.595 16.6411C105.725 18.9706 108.22 22.0473 109.854 25.5898C111.488 29.1324 112.208 33.028 111.948 36.9205C111.688 40.8131 110.457 44.5784 108.367 47.8725L81.5988 94.2295C81.3717 94.6163 81.1491 95.0062 80.9266 95.3961L80.9265 95.3963L80.9264 95.3966L80.9262 95.3968L80.9261 95.397L80.926 95.3972L80.9259 95.3973C80.0582 96.9178 79.1905 98.4381 78.0517 99.7764C75.7007 102.643 72.7007 104.909 69.3 106.386C65.8992 107.863 62.1956 108.508 58.4958 108.269C54.7959 108.03 51.2062 106.913 48.0238 105.011C44.8415 103.109 42.158 100.476 40.1956 97.3301L11.3356 47.3038C8.3345 42.3391 7.30856 36.428 8.46124 30.7425C9.48821 25.6381 12.1905 21.023 16.1392 17.6293C20.0879 14.2357 25.0568 12.258 30.2576 12.0101L30.2637 12.0285ZM80.1861 25.1894C79.1715 25.4504 78.2402 25.966 77.4804 26.6872C76.7206 27.4085 76.1573 28.3117 75.8439 29.3114C75.2677 30.8812 75.1971 32.592 75.6421 34.2039C75.8638 34.8381 76.2426 35.4058 76.7431 35.8539C77.2436 36.302 77.8495 36.6159 78.5042 36.7664C79.5329 37.0388 80.6137 37.0459 81.6458 36.7871C82.6779 36.5282 83.6275 36.0119 84.4059 35.2864C86.0204 33.6902 86.6137 31.3112 86.4791 29.0974C86.4589 28.4674 86.2973 27.8501 86.0061 27.2912C85.715 26.7322 85.3019 26.2459 84.7973 25.8683C84.1146 25.449 83.3539 25.1726 82.5613 25.0559C81.7687 24.9392 80.9606 24.9847 80.1861 25.1894ZM15.3597 36.7358C16.0473 32.8952 16.7288 29.0546 17.4042 25.214C18.191 25.2168 18.9793 25.2108 19.7699 25.2047C20.5703 25.1986 21.373 25.1925 22.1787 25.1955C23.4691 25.2445 24.9492 25.7459 25.4751 27.0302C26.1295 28.7793 25.6586 31.0972 23.989 32.1063C22.6851 32.9156 21.1126 32.9088 19.618 32.9024H19.6176H19.6171H19.6166H19.6161H19.6156C19.4847 32.9019 19.3544 32.9013 19.2249 32.9013C18.9925 34.1793 18.7663 35.4573 18.54 36.7353L18.5399 36.7358H15.3597ZM26.5677 30.7145C26.8941 28.8805 27.2204 27.0472 27.544 25.2139C29.1335 25.2138 30.7229 25.2016 32.3124 25.1833C33.5172 25.2016 34.8749 25.6114 35.4865 26.7428C36.4283 28.602 35.4743 31.2195 33.3705 31.7332C33.6762 32.5678 33.9819 33.3994 34.2876 34.2309C34.5935 35.0628 34.8993 35.8948 35.2052 36.7297H31.9455L30.5389 32.5282H29.3953C29.2579 33.3143 29.138 34.1024 29.018 34.8902L29.018 34.8904L29.018 34.8906L29.0179 34.8907L29.0179 34.8909L29.0179 34.8911L29.0179 34.8913C28.9242 35.5066 28.8305 36.1218 28.7286 36.7358H25.4995C25.8534 34.7273 26.2106 32.7205 26.5677 30.7145ZM36.1531 36.7542H39.3822C40.0671 32.9054 40.7501 29.0566 41.4309 25.2078H38.1896C37.5128 29.0566 36.834 32.9054 36.1531 36.7542ZM43.1494 25.2078C42.4726 29.0566 41.7938 32.9054 41.1129 36.7542H43.7916C43.9773 35.7302 44.1566 34.7043 44.3359 33.6783L44.3359 33.678C44.617 32.0694 44.8981 30.4607 45.2043 28.8588C45.4119 30.4742 45.5519 32.1012 45.692 33.7284C45.7789 34.7379 45.8657 35.7474 45.9688 36.7542H48.2561C48.7797 35.6231 49.291 34.4865 49.8024 33.3495C50.4857 31.8306 51.1692 30.3112 51.8826 28.8038C51.6182 30.4394 51.3258 32.0726 51.0328 33.7093L51.0327 33.71C50.8513 34.7229 50.6697 35.7372 50.4944 36.7542H53.6745C54.3554 32.9054 55.0343 29.0566 55.7111 25.2078H51.3261C50.8765 26.1777 50.4331 27.1498 49.99 28.1213L49.9898 28.1218L49.9896 28.1222L49.9894 28.1227L49.9892 28.1231L49.989 28.1236C49.3596 29.5035 48.7306 30.8825 48.0848 32.253C47.9348 30.8816 47.8057 29.508 47.6767 28.136L47.6766 28.1355L47.6766 28.135C47.5847 27.158 47.4929 26.1818 47.3937 25.2078H43.1494ZM60.6525 25.2078L54.5369 36.7542H57.4968C57.6359 36.4805 57.771 36.2044 57.9061 35.9282L57.9062 35.9279L57.9063 35.9278C58.1455 35.4389 58.3848 34.9497 58.6466 34.473H62.2549C62.3282 35.2253 62.4078 35.9836 62.4873 36.7358H65.7347C65.5553 35.4515 65.3793 34.1664 65.2033 32.8813C64.8513 30.3115 64.4993 27.7416 64.1202 25.1772C63.1807 25.2122 62.2536 25.2104 61.302 25.2086H61.3019C61.0889 25.2082 60.8746 25.2078 60.6587 25.2078H60.6525ZM66.5909 36.7542H74.1132L74.1132 36.7541L74.1132 36.7539L74.1133 36.7538L74.1133 36.7537L74.1133 36.7536L74.1133 36.7534C74.2478 35.9831 74.3823 35.2128 74.5107 34.4425H70.2297C70.466 33.0999 70.7058 31.7503 70.9461 30.3982L70.9468 30.3944C71.2535 28.6682 71.561 26.9382 71.8626 25.2139H68.6274C67.9425 29.0586 67.2636 32.9054 66.5909 36.7542ZM86.6137 36.7542H89.8428C89.9742 36.0295 90.1011 35.3048 90.228 34.5801C90.3549 33.8554 90.4818 33.1306 90.6133 32.4059H94.0014C94.136 31.6537 94.2705 30.8954 94.3989 30.137H91.0108L91.0802 29.743L91.0803 29.7421C91.2102 29.0037 91.3407 28.2616 91.4756 27.5195H98.05C97.5057 30.5773 96.9553 33.678 96.4171 36.7542H99.6584C100.134 34.0219 100.634 31.2603 101.132 28.5086L101.132 28.5053L101.133 28.5012L101.134 28.4988L101.134 28.4972L101.134 28.4941L101.31 27.5256H104.227C104.275 27.2363 104.326 26.9461 104.376 26.6554C104.459 26.1779 104.542 25.699 104.618 25.22H88.6502C88.1827 27.8372 87.7209 30.4629 87.2589 33.0894C87.0441 34.3111 86.8292 35.5329 86.6137 36.7542ZM103.42 33.6963C103.129 33.7556 102.859 33.8904 102.637 34.0873C102.415 34.2841 102.249 34.536 102.155 34.8176C102.061 35.0991 102.044 35.4004 102.103 35.691C102.163 35.9816 102.299 36.2513 102.496 36.4729C102.699 36.6878 102.954 36.847 103.236 36.935C103.519 37.023 103.819 37.037 104.108 36.9756C104.397 36.9142 104.666 36.7795 104.888 36.5843C105.11 36.3892 105.278 36.1402 105.377 35.8613C105.465 35.58 105.479 35.2805 105.416 34.9923C105.354 34.7042 105.217 34.4372 105.021 34.2176C104.824 33.998 104.573 33.8334 104.294 33.7398C104.014 33.6463 103.715 33.6271 103.426 33.6841L103.42 33.6963ZM49.9256 46.6922C49.7754 46.7219 49.6354 46.7898 49.519 46.8892C49.4026 46.9887 49.3137 47.1164 49.2609 47.2601C49.2081 47.4038 49.1931 47.5587 49.2174 47.7098C49.2417 47.861 49.3045 48.0033 49.3997 48.1233C50.5799 50.1887 51.7733 52.2411 52.9701 54.2996L52.9708 54.3007L52.9736 54.3055C53.4128 55.0609 53.8525 55.8172 54.2922 56.5751C54.5848 57.1033 55.0138 57.5431 55.5346 57.8486C56.0553 58.1542 56.6485 58.3142 57.2522 58.312H65.7163C65.9288 58.2791 66.1461 58.2993 66.3489 58.3708C66.5516 58.4423 66.7335 58.5629 66.8783 58.7218C67.1658 59.1437 66.9211 59.6574 66.6887 60.0427C65.9862 61.2401 65.2882 62.439 64.5903 63.6379L64.588 63.6418L64.5857 63.6458C63.8877 64.8447 63.1898 66.0436 62.4873 67.2409C62.1572 67.7713 61.9822 68.3836 61.9822 69.0083C61.9822 69.6331 62.1572 70.2454 62.4873 70.7758C64.0936 73.536 65.696 76.3003 67.2942 79.0687C67.3768 79.2609 67.5073 79.4288 67.6732 79.5562C67.8392 79.6836 68.0351 79.7663 68.2421 79.7964C68.4536 79.7645 68.6529 79.6776 68.8203 79.5445C68.9877 79.4115 69.1173 79.2369 69.1962 79.0381C72.7107 72.9713 76.2292 66.9086 79.7519 60.85C80.0907 60.3115 80.2705 59.6882 80.2705 59.052C80.2705 58.4158 80.0907 57.7925 79.7519 57.254C78.0965 54.4 76.4453 51.546 74.7981 48.692C74.5354 48.1102 74.1172 47.6121 73.5895 47.2528C73.0619 46.8934 72.4452 46.6868 71.8076 46.6555H51.2955C50.8386 46.6357 50.3808 46.648 49.9256 46.6922ZM46.0972 48.7287C45.8377 48.9109 45.6276 49.1547 45.4856 49.4381C43.761 52.4226 42.0303 55.405 40.2934 58.3854C39.9818 58.9045 39.8172 59.4985 39.8172 60.1039C39.8172 60.7093 39.9818 61.3033 40.2934 61.8224C46.4295 72.3985 52.5615 82.9766 58.6894 93.5567C58.8974 93.9359 59.2521 94.3579 59.7352 94.2967C60.1971 94.2383 60.4019 93.8891 60.5953 93.5593L60.622 93.5139L65.8203 84.5483C66.1331 84.0285 66.2983 83.4334 66.2983 82.8267C66.2983 82.2201 66.1331 81.625 65.8203 81.1052C59.6598 70.5046 53.5033 59.8899 47.3509 49.2608C47.1613 48.8327 46.5987 48.4229 46.0972 48.7471V48.7287ZM20.1667 27.4217C20.3233 27.4299 20.492 27.4246 20.6647 27.4191C21.2606 27.4003 21.904 27.3799 22.2644 27.911C22.4179 28.2884 22.478 28.6973 22.4397 29.103C22.4014 29.5086 22.2657 29.899 22.0442 30.241C21.5569 30.9013 20.7013 30.8791 19.9355 30.8592H19.9354C19.8075 30.8559 19.682 30.8526 19.5612 30.8526C19.6165 30.5414 19.6721 30.2297 19.7279 29.9175L19.7279 29.9174L19.7279 29.9174L19.7279 29.9173L19.7279 29.9173L19.728 29.9172C19.876 29.0886 20.0245 28.2568 20.1667 27.4217ZM30.791 27.3994C30.6271 27.4047 30.4672 27.4098 30.3187 27.4033C30.1414 28.4736 29.9518 29.5683 29.7622 30.608C29.9079 30.6034 30.0586 30.605 30.2113 30.6067C30.8724 30.614 31.571 30.6216 32.0678 30.1248C32.3074 29.816 32.464 29.451 32.5229 29.0647C32.5818 28.6783 32.5409 28.2832 32.4042 27.917C32.0576 27.3587 31.3967 27.38 30.791 27.3994ZM80.7976 27.489C81.1682 27.3213 81.588 27.298 81.9748 27.4235C82.3616 27.5491 82.6877 27.8145 82.8892 28.1678C83.1464 29.0921 83.1632 30.0668 82.9381 30.9994C82.7302 32.1185 82.4488 33.3356 81.5804 34.1367C80.816 34.8461 79.2503 34.7789 78.8712 33.6842C78.5165 32.4182 78.8161 31.0789 79.1219 29.8313C79.391 28.9078 79.8374 27.8743 80.7976 27.489ZM60.3693 30.8343C60.1155 31.3554 59.8617 31.8763 59.6006 32.3937H62.0469C62.0126 32.0638 61.9786 31.734 61.9447 31.4043C61.8395 30.3828 61.7344 29.3622 61.6188 28.3451C61.1822 29.1657 60.7757 30.0001 60.3693 30.8343ZM103.371 33.9961C103.582 33.9392 103.804 33.9336 104.018 33.9797C104.232 34.0257 104.432 34.1221 104.601 34.2609C104.77 34.3997 104.904 34.5768 104.991 34.7776C105.078 34.9783 105.116 35.197 105.101 35.4153C105.087 35.6337 105.021 35.8455 104.908 36.0331C104.795 36.2207 104.64 36.3788 104.454 36.4941C104.268 36.6095 104.057 36.6789 103.839 36.6965C103.621 36.714 103.401 36.6793 103.199 36.5953C102.955 36.4671 102.754 36.2708 102.619 36.0302C102.484 35.7897 102.422 35.5152 102.44 35.24C102.458 34.9649 102.556 34.7009 102.721 34.4801C102.886 34.2593 103.112 34.0912 103.371 33.9961ZM103.089 34.5037V36.1182H103.615C103.615 36.0039 103.634 35.8135 103.649 35.6611L103.65 35.6603C103.655 35.6011 103.661 35.5477 103.664 35.5067C103.695 35.5519 103.725 35.5989 103.755 35.646C103.952 35.9555 104.154 36.2717 104.6 36.1549L104.325 35.5434C104.344 35.4982 104.368 35.4514 104.393 35.4036C104.497 35.1991 104.612 34.9749 104.453 34.7667C104.206 34.4804 103.845 34.4925 103.499 34.5041C103.357 34.5089 103.217 34.5136 103.089 34.4976V34.5037ZM103.628 34.8767C103.978 34.7788 104.09 34.8991 103.964 35.2375C103.609 35.3292 103.499 35.2069 103.628 34.8767Z" fill="black"/>
</svg>
