<svg width="120" height="120" viewBox="0 0 120 120" fill="none" xmlns="http://www.w3.org/2000/svg">
<path d="M64.968 89.7461V30H64.6364V89.7461H64.968Z" fill="black"/>
<path fill-rule="evenodd" clip-rule="evenodd" d="M95.5427 71.8533H83.5184L81.4186 73.9531H89.3373V74.7267H80.645L78.0064 77.3653L77.4593 76.8183L80.0316 74.246V65.8079H80.8052V73.4724L83.1096 71.168H83.0708V59.3924L96.0816 46.3816C97.8003 44.6628 100.414 43.4368 103.018 43.0603C105.617 42.6846 108.292 43.1464 110.058 44.9237C111.812 46.6898 112.256 49.3562 111.872 51.9449C111.487 54.5384 110.261 57.1404 108.554 58.8531L95.5427 71.8533ZM96.6646 46.8929V57.6131L109.143 45.1345C107.615 43.8648 105.405 43.4969 103.129 43.826C100.686 44.1791 98.2512 45.3255 96.6646 46.8929ZM95.8909 58.3867V47.6663L90.1551 53.4022V64.1226L95.8909 58.3867ZM83.8445 59.7128L89.3814 54.1758V64.8962L83.8445 70.4332V59.7128ZM89.9948 65.3769L84.292 71.0796H95.2225L100.93 65.3769H89.9948ZM90.7684 64.6033H101.704L107.423 58.8894H96.4822L90.7684 64.6033ZM111.107 51.8314C110.757 54.1863 109.672 56.5334 108.191 58.1158H97.2558L109.7 45.672C111.063 47.2023 111.455 49.4813 111.107 51.8314Z" fill="black"/>
<path fill-rule="evenodd" clip-rule="evenodd" d="M30.5814 57.0636L28.9377 54.2014L29.6702 53.7808L31.3139 56.6429L30.5814 57.0636Z" fill="black"/>
<path fill-rule="evenodd" clip-rule="evenodd" d="M40.8769 61.2669C41.6386 62.7759 43.4866 63.3878 45.0042 62.6254L45.3791 62.437L47.142 65.8894L46.7476 66.0752C45.9999 66.4274 45.4322 67.0596 45.1587 67.8368C44.5908 69.44 45.4314 71.1942 47.0341 71.7548L47.4892 71.9139L45.6783 75.4927L45.2846 75.2402C44.5221 74.751 43.5797 74.6218 42.7177 74.8876C41.1012 75.3833 40.1876 77.109 40.6905 78.7253L40.8609 79.2731H35.5552L35.7208 78.7281C36.0164 77.7547 35.8211 76.7048 35.1967 75.9154C34.148 74.5866 32.2138 74.3623 30.883 75.4125L30.4902 75.7225L28.3986 71.8878L28.8539 71.7171C28.9709 71.6732 29.0844 71.6233 29.1878 71.5681C30.6848 70.7692 31.2583 68.9062 30.4614 67.413L31.2066 67.0153C32.2241 68.922 31.4917 71.2921 29.5912 72.3103L30.7676 74.4671C32.4308 73.4643 34.6242 73.8266 35.8594 75.3917C36.5413 76.2541 36.8204 77.3561 36.6535 78.4285H39.7557C39.4543 76.5372 40.5878 74.6576 42.4689 74.0804C43.4205 73.787 44.4465 73.8708 45.3345 74.3015L46.3134 72.3669C44.5606 71.5036 43.6924 69.4471 44.3621 67.5561C44.6618 66.7044 45.2405 65.9878 46.0042 65.5184L44.9983 63.5487C43.1473 64.2444 41.0311 63.4468 40.1228 61.6475L40.8769 61.2669Z" fill="black"/>
<path fill-rule="evenodd" clip-rule="evenodd" d="M16.3415 47.0297C18.486 46.7731 20.4386 48.3033 20.6953 50.4491C20.7136 50.6044 20.7229 50.7607 20.7229 50.9163H19.8782C19.8782 50.7941 19.871 50.6717 19.8566 50.549C19.6553 48.868 18.1243 47.6671 16.4419 47.8684C14.7606 48.0696 13.5595 49.6006 13.7608 51.2832C13.8685 52.1947 14.3859 53.0158 15.1635 53.5125L14.7087 54.2243C13.7199 53.5926 13.0597 52.5485 12.9221 51.3829C12.6658 49.2387 14.1959 47.2865 16.3415 47.0297Z" fill="black"/>
<path fill-rule="evenodd" clip-rule="evenodd" d="M24.0323 49.4044C24.8661 47.4068 27.1576 46.4623 29.1559 47.2965L28.8306 48.0759C27.2635 47.4218 25.4663 48.1619 24.8118 49.7296M24.0323 49.4044C23.8946 49.7347 23.8033 50.0823 23.7578 50.4374L24.0323 49.4044ZM23.7578 50.4374L24.5956 50.5448L23.7578 50.4374ZM24.5956 50.5448C24.6318 50.2621 24.7041 49.988 24.8118 49.7296L24.5956 50.5448Z" fill="black"/>
<path fill-rule="evenodd" clip-rule="evenodd" d="M29.5291 54.3492C29.5212 54.3537 29.5081 54.3612 29.4928 54.3688L29.1151 53.6134C29.1092 53.6163 29.1055 53.6184 29.1054 53.6185C29.1051 53.6186 29.1054 53.6185 29.1054 53.6185L29.1151 53.6134L29.1161 53.6121C29.1207 53.6094 29.1283 53.6048 29.1361 53.6003C29.1439 53.5958 29.157 53.5883 29.1723 53.5806L29.5501 54.3361C29.5572 54.3326 29.5611 54.3302 29.5592 54.3313L29.5501 54.3361L29.5491 54.3373C29.5445 54.3401 29.5369 54.3447 29.5291 54.3492Z" fill="black"/>
<path fill-rule="evenodd" clip-rule="evenodd" d="M29.6103 80.2573C28.2726 78.5623 28.5557 76.0968 30.2526 74.7576L30.7759 75.4207C29.4471 76.4693 29.2231 78.4033 30.2733 79.734C31.3218 81.0626 33.2555 81.2867 34.5862 80.237C35.0772 79.8469 35.4348 79.33 35.6133 78.7372L36.4221 78.9808C36.1918 79.7452 35.7318 80.4058 35.111 80.8988L35.11 80.8996C33.415 82.2372 30.9495 81.9542 29.6103 80.2573Z" fill="black"/>
<path fill-rule="evenodd" clip-rule="evenodd" d="M45.645 74.5314C46.4133 75.0344 46.9895 75.7932 47.2642 76.6723C47.9063 78.7361 46.7502 80.9272 44.68 81.5685C42.6163 82.2102 40.426 81.0539 39.7848 78.9839L40.5917 78.734C41.0953 80.3601 42.8135 81.2646 44.4296 80.7618C46.0556 80.2582 46.9605 78.54 46.458 76.924C46.242 76.233 45.7879 75.6345 45.1824 75.238L45.645 74.5314Z" fill="black"/>
<path fill-rule="evenodd" clip-rule="evenodd" d="M30.6027 57.1075L30.5699 57.0421L31.3254 56.6643L31.3581 56.7298L30.6027 57.1075Z" fill="black"/>
<path fill-rule="evenodd" clip-rule="evenodd" d="M8.32566 58.3202C9.18754 56.3397 11.4973 55.4326 13.4772 56.2943L13.1402 57.0687C11.5874 56.393 9.77564 57.105 9.10014 58.6573C8.42441 60.21 9.13645 62.0218 10.6887 62.6973C11.4922 63.0488 12.4127 63.0353 13.2113 62.6612L13.5696 63.4261C12.553 63.9023 11.3795 63.9213 10.3513 63.4716C8.37104 62.6097 7.46406 60.3001 8.32566 58.3202Z" fill="black"/>
<path fill-rule="evenodd" clip-rule="evenodd" d="M47.0175 58.1189C46.6221 57.3287 45.9625 56.6982 45.1685 56.324L44.8084 57.0881C45.4369 57.3842 45.9547 57.8819 46.2626 58.4977L46.2637 58.4998C47.0327 60.0163 46.4221 61.8633 44.9052 62.6254L45.2844 63.3801C47.2181 62.4087 47.9977 60.0531 47.0175 58.1189Z" fill="black"/>
<path fill-rule="evenodd" clip-rule="evenodd" d="M13.4911 70.9393C12.3361 69.106 12.8867 66.6947 14.7191 65.5403L15.1693 66.2549C13.7307 67.1612 13.3 69.0513 14.2058 70.489C15.112 71.9274 17.0016 72.3582 18.4392 71.4531C19.2102 70.9628 19.7272 70.1642 19.8493 69.2593L20.6863 69.3723C20.5304 70.5278 19.8701 71.5445 18.8915 72.1664L18.8901 72.1673C17.0568 73.3223 14.6455 72.7717 13.4911 70.9393Z" fill="black"/>
<path fill-rule="evenodd" clip-rule="evenodd" d="M28.1632 72.7359C26.0203 73.0185 24.0503 71.5163 23.7662 69.3713L24.6035 69.2603C24.8262 70.9417 26.3713 72.1213 28.0546 71.8983L28.0592 71.8977C28.2884 71.8699 28.524 71.8065 28.7508 71.7187L29.0557 72.5064C28.7762 72.6146 28.4729 72.6982 28.1632 72.7359Z" fill="black"/>
<path fill-rule="evenodd" clip-rule="evenodd" d="M46.2806 65.311C47.2147 64.8715 48.2778 64.8163 49.2492 65.1554C51.2937 65.8705 52.3657 68.1074 51.6511 70.1503C50.936 72.1949 48.6992 73.2666 46.6563 72.552L46.9352 71.7548C48.5394 72.3159 50.2933 71.474 50.8539 69.8714C51.415 68.2673 50.5732 66.5135 48.9708 65.9529M46.2806 65.311L46.6403 66.0753L46.2806 65.311ZM46.6403 66.0753C47.3744 65.7298 48.2085 65.6868 48.9708 65.9529L46.6403 66.0753Z" fill="black"/>
<path fill-rule="evenodd" clip-rule="evenodd" d="M19.7929 50.0688H24.6434L24.5879 50.5405C24.5735 50.6632 24.5663 50.7857 24.5663 50.9082C24.5663 51.4088 24.6952 51.913 24.9333 52.3607C25.7391 53.856 27.6007 54.416 29.0956 53.6111L29.4574 53.4163L31.514 56.9974L31.1533 57.2092C30.6984 57.4764 30.3163 57.8514 30.0424 58.3052C29.1727 59.7652 29.6477 61.6477 31.1066 62.5173L31.4447 62.7188L29.5769 66.4236L29.1889 66.1968C28.7225 65.9241 28.191 65.7802 27.6439 65.7802C27.5529 65.7802 27.4686 65.786 27.3712 65.7928C27.3215 65.7962 27.2684 65.7999 27.2093 65.8032C25.5362 66.0335 24.3658 67.5738 24.5951 69.2504L24.6606 69.7299H19.7654L19.8424 69.2418C19.8625 69.1146 19.87 68.9825 19.87 68.8415C19.87 68.2592 19.7047 67.6914 19.3957 67.2027C18.4893 65.7641 16.5989 65.3328 15.1611 66.2386L14.7799 66.4787L12.8054 62.843L13.2114 62.653C13.8866 62.3369 14.4264 61.7833 14.729 61.0916C15.4109 59.5413 14.694 57.7286 13.1402 57.0524L12.707 56.8639L14.7838 53.2558L15.1573 53.4975C15.6432 53.8119 16.2173 53.9776 16.8005 53.9776C18.4972 53.9776 19.87 52.6048 19.87 50.9082C19.87 50.7857 19.8628 50.6632 19.8483 50.5405L19.7929 50.0688ZM20.7146 50.9134C20.7118 53.0741 18.9619 54.8223 16.8005 54.8223C16.2067 54.8223 15.6177 54.6874 15.085 54.4256L13.8964 56.4907C15.5814 57.477 16.3102 59.5941 15.5027 61.4306C15.1789 62.1705 14.6404 62.7879 13.9633 63.2053L15.1042 65.3061C16.8759 64.4524 19.0362 65.0479 20.1098 66.7517C20.5039 67.3751 20.7146 68.0992 20.7146 68.8415C20.7146 68.856 20.7146 68.8706 20.7144 68.8853H23.722C23.6942 66.9331 25.1297 65.2266 27.1142 64.9637L27.1307 64.9615L27.1474 64.9607C27.1843 64.9587 27.2276 64.9558 27.2746 64.9526C27.3886 64.9448 27.5244 64.9355 27.6439 64.9355C28.1887 64.9355 28.723 65.0478 29.2156 65.264L30.345 63.0238C28.7454 61.8401 28.277 59.6173 29.3174 57.8718L29.3185 57.8699C29.593 57.4148 29.9531 57.0226 30.3757 56.7115L29.1236 54.5311C27.2901 55.2847 25.1495 54.5438 24.1891 52.7602L24.1882 52.7584C23.8877 52.1939 23.7225 51.5555 23.7216 50.9134H20.7146Z" fill="black"/>
<path fill-rule="evenodd" clip-rule="evenodd" d="M29.145 47.3035C29.9541 47.6345 30.6233 48.2314 31.0535 48.991C32.1168 50.8701 31.4571 53.2629 29.5684 54.3264L29.154 53.5904C30.6345 52.7567 31.1522 50.8808 30.3185 49.4072M29.145 47.3035L28.8251 48.0853L29.145 47.3035ZM28.8251 48.0853C29.4552 48.343 29.9799 48.8093 30.3185 49.4072L28.8251 48.0853Z" fill="black"/>
<path fill-rule="evenodd" clip-rule="evenodd" d="M8.89227 59.3681C8.6207 61.0415 9.75707 62.6181 11.4304 62.8897C13.1038 63.1613 14.6805 62.0249 14.9521 60.3516C15.2236 58.6782 14.0873 57.1015 12.4139 56.8299C10.7405 56.5584 9.16385 57.6947 8.89227 59.3681ZM11.2951 63.7235C9.16129 63.3772 7.71222 61.3666 8.05852 59.2328C8.40483 57.099 10.4154 55.6499 12.5492 55.9962C14.683 56.3425 16.1321 58.353 15.7858 60.4869C15.4395 62.6207 13.4289 64.0698 11.2951 63.7235Z" fill="black"/>
<path fill-rule="evenodd" clip-rule="evenodd" d="M29.6326 59.3699C29.361 61.0433 30.4974 62.62 32.1708 62.8916C33.8441 63.1631 35.4208 62.0268 35.6924 60.3534C35.964 58.6801 34.8276 57.1034 33.1542 56.8318C31.4809 56.5602 29.9042 57.6966 29.6326 59.3699ZM32.0355 63.7253C29.9016 63.379 28.4526 61.3685 28.7989 59.2346C29.1452 57.1008 31.1557 55.6517 33.2896 55.998C35.4234 56.3443 36.8725 58.3549 36.5262 60.4887C36.1798 62.6226 34.1693 64.0716 32.0355 63.7253Z" fill="black"/>
<path fill-rule="evenodd" clip-rule="evenodd" d="M29.6319 77.3617C29.3603 79.035 30.4967 80.6117 32.1701 80.8833C33.8434 81.1549 35.4201 80.0185 35.6917 78.3451C35.9633 76.6718 34.8269 75.0951 33.1535 74.8235C31.4802 74.552 29.9035 75.6883 29.6319 77.3617ZM32.0347 81.7171C29.9009 81.3707 28.4518 79.3602 28.7982 77.2264C29.1445 75.0925 31.155 73.6435 33.2888 73.9898C35.4227 74.3361 36.8717 76.3466 36.5254 78.4805C36.1791 80.6143 34.1686 82.0634 32.0347 81.7171Z" fill="black"/>
<path fill-rule="evenodd" clip-rule="evenodd" d="M40.5759 59.3715C40.3043 61.0448 41.4407 62.6215 43.114 62.8931C44.7874 63.1647 46.3641 62.0283 46.6356 60.3549C46.9072 58.6816 45.7708 57.1049 44.0975 56.8333C42.4241 56.5617 40.8474 57.6981 40.5759 59.3715ZM42.9787 63.7268C40.8449 63.3805 39.3958 61.37 39.7421 59.2362C40.0884 57.1023 42.099 55.6533 44.2328 55.9996C46.3666 56.3459 47.8157 58.3564 47.4694 60.4903C47.1231 62.6241 45.1125 64.0732 42.9787 63.7268Z" fill="black"/>
<path fill-rule="evenodd" clip-rule="evenodd" d="M40.575 77.3632C40.3035 79.0366 41.4398 80.6133 43.1132 80.8848C44.7866 81.1564 46.3632 80.0201 46.6348 78.3467C46.9064 76.6733 45.77 75.0966 44.0967 74.8251C42.4233 74.5535 40.8466 75.6899 40.575 77.3632ZM42.9779 81.7186C40.8441 81.3723 39.395 79.3617 39.7413 77.2279C40.0876 75.0941 42.0981 73.645 44.232 73.9913C46.3658 74.3376 47.8149 76.3482 47.4686 78.482C47.1223 80.6158 45.1117 82.0649 42.9779 81.7186Z" fill="black"/>
<path fill-rule="evenodd" clip-rule="evenodd" d="M13.7764 50.4267C13.5048 52.1 14.6412 53.6767 16.3145 53.9483C17.9879 54.2199 19.5646 53.0835 19.8362 51.4101C20.1077 49.7368 18.9714 48.1601 17.298 47.8885C15.6246 47.6169 14.0479 48.7533 13.7764 50.4267ZM16.1792 54.7821C14.0454 54.4357 12.5963 52.4252 12.9426 50.2914C13.2889 48.1575 15.2995 46.7085 17.4333 47.0548C19.5671 47.4011 21.0162 49.4116 20.6699 51.5455C20.3236 53.6793 18.313 55.1284 16.1792 54.7821Z" fill="black"/>
<path fill-rule="evenodd" clip-rule="evenodd" d="M13.7774 68.3679C13.5058 70.0412 14.6422 71.6179 16.3155 71.8895C17.9889 72.1611 19.5656 71.0247 19.8371 69.3513C20.1087 67.678 18.9723 66.1013 17.299 65.8297C15.6256 65.5581 14.0489 66.6945 13.7774 68.3679ZM16.1802 72.7232C14.0464 72.3769 12.5973 70.3664 12.9436 68.2326C13.2899 66.0987 15.3005 64.6497 17.4343 64.996C19.5681 65.3423 21.0172 67.3528 20.6709 69.4866C20.3246 71.6205 18.314 73.0695 16.1802 72.7232Z" fill="black"/>
<path fill-rule="evenodd" clip-rule="evenodd" d="M24.6504 68.364C24.3788 70.0373 25.5152 71.614 27.1886 71.8856C28.8619 72.1572 30.4386 71.0208 30.7102 69.3474C30.9818 67.6741 29.8454 66.0974 28.172 65.8258C26.4987 65.5542 24.922 66.6906 24.6504 68.364ZM27.0533 72.7193C24.9194 72.373 23.4704 70.3625 23.8167 68.2287C24.163 66.0948 26.1735 64.6458 28.3073 64.9921C30.4412 65.3384 31.8902 67.3489 31.5439 69.4828C31.1976 71.6166 29.1871 73.0657 27.0533 72.7193Z" fill="black"/>
<path fill-rule="evenodd" clip-rule="evenodd" d="M24.6495 50.4228C24.3779 52.0962 25.5143 53.6728 27.1877 53.9444C28.861 54.216 30.4377 53.0796 30.7093 51.4063C30.9809 49.7329 29.8445 48.1562 28.1711 47.8846C26.4978 47.6131 24.9211 48.7494 24.6495 50.4228ZM27.0524 54.7782C24.9185 54.4319 23.4695 52.4213 23.8158 50.2875C24.1621 48.1537 26.1726 46.7046 28.3064 47.0509C30.4403 47.3972 31.8893 49.4077 31.543 51.5416C31.1967 53.6754 29.1862 55.1245 27.0524 54.7782Z" fill="black"/>
<path fill-rule="evenodd" clip-rule="evenodd" d="M35.6025 41.1H40.4531L40.3976 41.5717C40.3831 41.6944 40.3759 41.817 40.3759 41.9394C40.3759 42.44 40.5049 42.9442 40.743 43.3919C41.5488 44.8873 43.4104 45.4472 44.9052 44.6423L45.267 44.4475L47.3236 48.0286L46.963 48.2404C46.5081 48.5076 46.126 48.8826 45.852 49.3364C44.9824 50.7964 45.4574 52.6789 46.9163 53.5485L47.2543 53.75L45.3866 57.4548L44.9986 57.228C44.5322 56.9553 44.0007 56.8114 43.4536 56.8114C43.3626 56.8114 43.2783 56.8173 43.1809 56.824C43.1312 56.8275 43.0781 56.8312 43.019 56.8344C41.3458 57.0647 40.1755 58.6051 40.4047 60.2816L40.4703 60.7612H35.575L35.6521 60.273C35.6722 60.1459 35.6797 60.0137 35.6797 59.8727C35.6797 59.2904 35.5143 58.7226 35.2053 58.234C34.299 56.7953 32.4085 56.364 30.9708 57.2698L30.5896 57.5099L28.615 53.8742L29.0211 53.6842C29.6963 53.3681 30.2361 52.8146 30.5387 52.1229C31.2205 50.5725 30.5037 48.7598 28.9498 48.0836L28.5167 47.8951L30.5934 44.287L30.9669 44.5287C31.4528 44.8431 32.027 45.0089 32.6102 45.0089C34.3068 45.0089 35.6797 43.636 35.6797 41.9394C35.6797 41.817 35.6725 41.6944 35.658 41.5717L35.6025 41.1ZM36.5243 41.9447C36.5215 44.1054 34.7716 45.8535 32.6102 45.8535C32.0164 45.8535 31.4274 45.7186 30.8947 45.4568L29.706 47.522C31.3911 48.5082 32.1198 50.6254 31.3123 52.4618C30.9885 53.2017 30.4501 53.8191 29.773 54.2365L30.9139 56.3373C32.6856 55.4837 34.8459 56.0791 35.9194 57.7829C36.3136 58.4063 36.5243 59.1304 36.5243 59.8727C36.5243 59.8873 36.5242 59.9019 36.5241 59.9165H39.5317C39.5039 57.9643 40.9394 56.2579 42.9238 55.995L42.9404 55.9928L42.9571 55.9919C42.994 55.9899 43.0373 55.987 43.0843 55.9838C43.1983 55.976 43.3341 55.9668 43.4536 55.9668C43.9984 55.9668 44.5327 56.0791 45.0253 56.2952L46.1547 54.055C44.5551 52.8713 44.0866 50.6485 45.127 48.903L45.1282 48.9011C45.4027 48.446 45.7627 48.0539 46.1854 47.7427L44.9332 45.5623C43.0997 46.316 40.9592 45.575 39.9988 43.7915L39.9979 43.7897C39.6974 43.2251 39.5322 42.5867 39.5313 41.9447H36.5243Z" fill="black"/>
<path fill-rule="evenodd" clip-rule="evenodd" d="M45.4423 50.4012C45.1707 52.0745 46.3071 53.6512 47.9804 53.9228C49.6538 54.1944 51.2305 53.058 51.502 51.3846C51.7736 49.7113 50.6373 48.1346 48.9639 47.863C47.2905 47.5914 45.7138 48.7278 45.4423 50.4012ZM47.8451 54.7565C45.7113 54.4102 44.2622 52.3997 44.6085 50.2659C44.9548 48.132 46.9654 46.683 49.0992 47.0293C51.233 47.3756 52.6821 49.3861 52.3358 51.5199C51.9895 53.6538 49.9789 55.1028 47.8451 54.7565Z" fill="black"/>
<path fill-rule="evenodd" clip-rule="evenodd" d="M29.5861 41.4579C29.3145 43.1313 30.4509 44.7079 32.1242 44.9795C33.7976 45.2511 35.3743 44.1147 35.6458 42.4414C35.9174 40.768 34.781 39.1913 33.1077 38.9197C31.4343 38.6482 29.8576 39.7845 29.5861 41.4579ZM31.9889 45.8133C29.8551 45.467 28.406 43.4564 28.7523 41.3226C29.0986 39.1888 31.1092 37.7397 33.243 38.086C35.3768 38.4323 36.8259 40.4428 36.4796 42.5767C36.1333 44.7105 34.1227 46.1596 31.9889 45.8133Z" fill="black"/>
<path fill-rule="evenodd" clip-rule="evenodd" d="M40.4592 41.454C40.1876 43.1274 41.324 44.7041 42.9973 44.9756C44.6707 45.2472 46.2474 44.1108 46.5189 42.4375C46.7905 40.7641 45.6541 39.1874 43.9808 38.9159C42.3074 38.6443 40.7307 39.7807 40.4592 41.454ZM42.862 45.8094C40.7282 45.4631 39.2791 43.4525 39.6254 41.3187C39.9717 39.1849 41.9823 37.7358 44.1161 38.0821C46.2499 38.4284 47.699 40.439 47.3527 42.5728C47.0064 44.7066 44.9958 46.1557 42.862 45.8094Z" fill="black"/>
<path fill-rule="evenodd" clip-rule="evenodd" d="M44.9261 68.3674C44.6545 70.0408 45.7909 71.6175 47.4642 71.889C49.1376 72.1606 50.7143 71.0242 50.9858 69.3509C51.2574 67.6775 50.121 66.1008 48.4477 65.8293C46.7743 65.5577 45.1976 66.6941 44.9261 68.3674ZM47.3289 72.7228C45.1951 72.3765 43.746 70.3659 44.0923 68.2321C44.4386 66.0983 46.4492 64.6492 48.583 64.9955C50.7168 65.3418 52.1659 67.3524 51.8196 69.4862C51.4733 71.62 49.4627 73.0691 47.3289 72.7228Z" fill="black"/>
</svg>
