<svg width="120" height="120" viewBox="0 0 120 120" fill="none" xmlns="http://www.w3.org/2000/svg">
<path fill-rule="evenodd" clip-rule="evenodd" d="M25.0086 56.0948H26.8805V38H24.1536L17.4518 53.5065L10.6807 38H8V56.0948H9.87187V40.7038L16.5505 56.0948H18.2606L24.9855 40.5883H25.0086V56.0948ZM31.4136 56.0948L33.401 51.4729H43.2688L45.2331 56.0948H47.2436L39.4326 38H37.2834L29.4724 56.0948H31.4136ZM38.3233 39.9643L42.5293 49.7397H34.1174L38.3233 39.9643ZM49.8409 56.0948V38H55.2254C58.0217 38 60.3095 38.8551 62.089 40.5883C63.8684 42.2984 64.7697 44.4476 64.7697 47.0127C64.7697 49.6703 63.8453 51.8426 62.0197 53.5527C60.194 55.2397 57.9293 56.0948 55.2254 56.0948H49.8409ZM51.7359 39.7794V54.3153H55.1561C57.444 54.3153 59.2696 53.6452 60.6793 52.2817C62.089 50.9182 62.8054 49.185 62.8054 47.0589C62.8054 44.956 62.1121 43.1996 60.7024 41.8362C59.3158 40.4727 57.4671 39.7794 55.133 39.7794H51.7359ZM79.8508 39.7563V38H68.5272V56.0948H79.9433V54.3385H70.4221V47.7753H79.042V46.019H70.4221V39.7563H79.8508ZM92.2227 38V56.0948H90.3278V38H92.2227ZM112 56.0948V38H110.128V53.1136L99.4515 38H97.2561V56.0948H99.128V40.6807L109.966 56.0948H112ZM57.7665 81.3373C54.6005 81.3373 52.1278 79.7659 51.1109 76.9927L53.5143 75.7448C54.2769 77.686 55.8484 78.7491 57.8127 78.7491C59.6615 78.7491 60.9787 77.7785 60.9787 76.2763C60.9787 74.9591 59.9388 74.1965 57.3505 73.3876C55.3862 72.7637 53.9765 72.0704 53.0984 71.2847C52.174 70.4758 51.7118 69.3666 51.7118 67.98C51.7118 66.5241 52.2895 65.2993 53.445 64.3056C54.6236 63.2888 56.0333 62.7804 57.7203 62.7804C60.7707 62.7804 62.8044 64.3749 63.6594 66.6165L61.3022 67.8876C60.609 66.2006 59.3842 65.3455 57.6509 65.3455C55.8946 65.3455 54.6236 66.3623 54.6236 67.8182C54.6236 69.1817 55.756 69.9212 57.9745 70.5914C60.2161 71.2616 61.7644 72.0242 62.6195 72.8792C63.4745 73.7112 63.9136 74.7973 63.9136 76.1146C63.9136 77.5243 63.359 78.7491 62.2497 79.789C61.1405 80.8289 59.6384 81.3373 57.7665 81.3373ZM45.2639 63.0346H48.1063V74.104C48.1063 76.2994 47.5055 78.0789 46.2807 79.3961C45.079 80.7134 43.3227 81.3604 41.0348 81.3604C38.747 81.3604 36.9906 80.7134 35.8121 79.3961C34.6335 78.0789 34.0326 76.3457 34.0326 74.2427V63.0346H36.8751V74.1271C36.8751 76.9234 38.5852 78.6797 41.081 78.6797C43.6924 78.6797 45.2639 76.8772 45.2639 74.2196V63.0346ZM72.1153 63.0346L64.7434 81.1293H67.6552L69.3191 76.8772H78.1932L79.8339 81.1293H82.792L75.4662 63.0346H72.1153ZM70.3359 74.3582L73.7561 65.7615L77.1994 74.3582H70.3359Z" fill="black"/>
</svg>
