<svg width="120" height="120" viewBox="0 0 120 120" fill="none" xmlns="http://www.w3.org/2000/svg">
<path fill-rule="evenodd" clip-rule="evenodd" d="M112 41.7746L60 22L8 41.7746L60 61.5493L112 41.7746ZM60 59.3305L13.8347 41.7746L60 24.2188L106.165 41.7746L60 59.3305ZM10.5607 53.5005L11.2738 51.5531L59.9973 69.3955L108.03 51.5548L108.752 53.4989L60.0024 71.606L10.5607 53.5005ZM10.5607 62.7962L11.2738 60.8488L59.9973 78.6912L108.03 60.8504L108.752 62.7945L60.0024 80.9016L10.5607 62.7962ZM11.2738 70.527L10.5607 72.4745L60.0024 90.5799L108.752 72.4728L108.03 70.5287L59.9973 88.3694L11.2738 70.527ZM10.5607 80.7701L11.2738 78.8227L59.9973 96.6651L108.03 78.8243L108.752 80.7685L60.0024 98.8755L10.5607 80.7701Z" fill="black"/>
</svg>
